<?xml version="1.0" encoding="UTF-8" standalone="no"?>
<svg xmlns:ffdec="https://www.free-decompiler.com/flash" xmlns:xlink="http://www.w3.org/1999/xlink" ffdec:objectType="frame" height="44.8px" width="44.8px" xmlns="http://www.w3.org/2000/svg">
  <g transform="matrix(1.0, 0.0, 0.0, 1.0, 22.4, 22.4)">
    <use ffdec:characterId="51" height="44.8" transform="matrix(1.0, 0.0, 0.0, 1.0, 0.0, 0.0)" width="44.8" xlink:href="#shape0"/>
    <use ffdec:characterId="68" height="21.35" transform="matrix(1.0, 0.0, 0.0, 1.0047, 0.0, 0.0)" width="21.3" xlink:href="#button0"/>
  </g>
  <defs>
    <g id="shape0">
      <path d="M15.85 -15.85 Q22.4 -9.3 22.4 0.0 22.4 9.3 15.85 15.85 9.3 22.4 0.0 22.4 -9.3 22.4 -15.85 15.85 -22.4 9.3 -22.4 0.0 -22.4 -9.3 -15.85 -15.85 -9.3 -22.4 0.0 -22.4 9.3 -22.4 15.85 -15.85" fill="url(#gradient0)" fill-rule="evenodd" stroke="none"/>
    </g>
    <radialGradient cx="0" cy="0" gradientTransform="matrix(0.0278, 0.0, 0.0, 0.0278, 0.0, 0.0)" gradientUnits="userSpaceOnUse" id="gradient0" r="819.2" spreadMethod="pad">
      <stop offset="0.5098039215686274" stop-color="#ffff00"/>
      <stop offset="1.0" stop-color="#ffffff" stop-opacity="0.0"/>
    </radialGradient>
    <g id="button0">
      <g class="button" transform="matrix(1.0, 0.0, 0.0, 1.0, 0.0, 0.0)">
        <g class="button-frame button-frame-up" transform="matrix(1.0, 0.0, 0.0, 1.0, 0.0, 0.0)">
          <use ffdec:characterId="54" height="21.35" transform="matrix(1.0, 0.0, 0.0, 1.0, 0.0, 0.0)" width="21.3" xlink:href="#shape1"/>
        </g>
        <g class="button-frame button-frame-over" transform="matrix(1.0, 0.0, 0.0, 1.0, 0.0, 0.0)">
          <use ffdec:characterId="54" height="21.35" transform="matrix(1.0, 0.0, 0.0, 1.0, 0.0, 0.0)" width="21.3" xlink:href="#shape1"/>
        </g>
        <g class="button-frame button-frame-down" transform="matrix(1.0, 0.0, 0.0, 1.0, 0.0, 0.0)">
          <use ffdec:characterId="54" height="21.35" transform="matrix(1.0, 0.0, 0.0, 1.0, 0.0, 0.0)" width="21.3" xlink:href="#shape1"/>
        </g>
        <g class="button-frame button-frame-hittest" transform="matrix(1.0, 0.0, 0.0, 1.0, 0.0, 0.0)">
          <use ffdec:characterId="54" height="21.35" transform="matrix(1.0, 0.0, 0.0, 1.0, 0.0, 0.0)" width="21.3" xlink:href="#shape1"/>
        </g>
      </g>
    </g>
    <style><![CDATA[
    .button-frame {
      pointer-events: none;
    }

    .button-frame-up,
    .button-frame-over,
    .button-frame-down {
      opacity: 0;
    }

    .button .button-frame-up {
      opacity: 1;
    }

    .button:hover .button-frame-up {
      opacity: 0;
    }
    .button:hover .button-frame-over {
      opacity: 1;
    }

    .button:active .button-frame-over {
      opacity: 0;
    }
    .button:active .button-frame-down {
      opacity: 1;
    }

    .button-frame-hittest {
      opacity: 0;
      pointer-events: all;
      cursor: pointer;
    }
]]></style>
    <g id="shape1">
      <path d="M10.7 -0.05 Q10.6 4.35 7.55 7.5 4.45 10.55 0.0 10.6 -4.45 10.55 -7.5 7.5 -10.6 4.35 -10.6 -0.05 -10.6 -4.5 -7.5 -7.55 -4.45 -10.7 0.0 -10.7 4.45 -10.7 7.55 -7.55 10.6 -4.5 10.7 -0.05" fill="url(#gradient1)" fill-rule="evenodd" stroke="none"/>
      <path d="M0.1 -10.5 Q4.45 -10.5 7.5 -7.45 10.65 -4.35 10.65 0.1 10.65 4.5 7.5 7.55 4.45 10.65 0.1 10.65 -4.3 10.65 -7.4 7.55 -10.55 4.5 -10.55 0.1 -10.55 -4.35 -7.4 -7.45 -4.3 -10.5 0.1 -10.5" fill="url(#gradient2)" fill-rule="evenodd" stroke="none"/>
    </g>
    <radialGradient cx="0" cy="0" gradientTransform="matrix(0.0137, 0.0, 0.0, 0.0137, 0.4, -0.45)" gradientUnits="userSpaceOnUse" id="gradient1" r="819.2" spreadMethod="pad">
      <stop offset="0.0" stop-color="#ffffff"/>
      <stop offset="1.0" stop-color="#999999"/>
    </radialGradient>
    <linearGradient gradientTransform="matrix(0.0, -0.0109, 0.0129, 0.0, 0.0, 0.05)" gradientUnits="userSpaceOnUse" id="gradient2" spreadMethod="pad" x1="-819.2" x2="819.2">
      <stop offset="0.01568627450980392" stop-color="#ffffff" stop-opacity="0.84313726"/>
      <stop offset="0.2549019607843137" stop-color="#aecbf8" stop-opacity="0.6901961"/>
      <stop offset="0.7372549019607844" stop-color="#8eb5f8" stop-opacity="0.0"/>
    </linearGradient>
  </defs>
</svg>
