<?xml version="1.0" encoding="UTF-8" standalone="no"?>
<svg xmlns:ffdec="https://www.free-decompiler.com/flash" xmlns:xlink="http://www.w3.org/1999/xlink" ffdec:objectType="shape" height="36.65px" width="50.05px" xmlns="http://www.w3.org/2000/svg">
  <g transform="matrix(1.0, 0.0, 0.0, 1.0, 25.0, 18.35)">
    <path d="M-3.55 -17.9 Q-1.35 -19.1 1.3 -17.0 2.9 -14.85 3.55 -16.05 9.2 -20.8 15.65 -10.6 23.45 -6.6 24.45 -3.8 L24.4 -3.65 23.95 -1.75 23.5 -0.05 23.05 1.3 Q20.0 10.35 17.7 -2.45 L17.6 -2.85 Q15.95 -5.9 14.75 -4.25 14.2 -3.6 13.8 -2.05 L13.5 0.4 12.4 3.65 Q11.05 6.15 10.0 7.05 8.55 8.25 7.7 6.35 L5.5 -0.55 Q5.0 -4.55 2.2 -5.6 -0.45 -7.15 -2.0 -0.65 -2.6 3.65 -3.6 5.95 -4.65 8.2 -6.1 8.5 -8.55 8.2 -9.65 1.6 L-9.7 1.45 Q-11.45 -4.65 -13.55 -2.6 -14.4 -1.8 -15.25 0.2 -16.0 2.35 -16.75 3.55 -18.5 6.4 -19.95 3.45 -20.35 0.85 -21.3 0.55 L-21.5 -1.45 -21.35 -2.75 -20.45 -6.15 Q-19.35 -9.3 -17.15 -13.5 L-15.25 -13.75 -15.15 -13.3 -15.05 -12.65 Q-14.9 -11.3 -15.0 -9.7 L-15.4 -7.15 -15.95 -6.4 Q-16.55 -5.35 -16.5 -3.35 -16.15 -2.85 -17.5 1.0 -16.15 -0.35 -15.55 -2.75 L-15.45 -5.35 Q-15.3 -6.5 -14.9 -6.7 L-14.25 -9.7 -14.0 -12.65 -13.95 -13.05 -13.95 -13.1 -13.9 -13.3 Q-13.1 -17.4 -9.0 -15.2 -5.9 -13.0 -5.3 -14.1 L-5.2 -13.25 -5.1 -12.65 -4.75 -9.5 Q-3.9 -2.15 -3.65 2.75 -2.7 -4.75 -0.45 -6.4 L-1.75 -9.35 -2.65 -12.0 -2.85 -12.7 Q-3.5 -15.3 -3.55 -17.9 M24.6 -0.75 L24.9 0.15 25.0 0.55 Q24.7 0.25 24.6 -0.75 M25.0 0.85 L24.55 3.6 Q23.8 6.7 22.3 8.45 19.45 9.95 17.95 7.45 16.35 -0.9 15.7 1.15 15.0 6.1 13.95 9.3 13.05 12.0 11.8 13.45 5.3 16.45 3.6 6.35 1.9 -3.8 0.35 1.9 L-1.5 8.35 -2.55 11.25 Q-3.25 12.8 -5.65 13.45 -8.1 14.1 -12.6 3.7 L-12.95 2.9 Q-13.15 2.6 -13.6 2.7 -14.05 2.75 -15.1 5.0 -16.15 7.2 -17.15 8.1 L-18.45 8.9 Q-19.45 9.25 -20.0 8.5 -20.5 4.35 -21.8 4.3 -20.65 2.8 -20.1 4.95 -19.7 11.35 -16.2 6.65 -15.45 5.25 -14.95 3.25 -13.9 0.45 -12.3 4.1 -7.9 14.85 -4.4 12.3 -2.0 10.8 -1.45 5.5 0.25 -1.75 2.55 -0.15 3.35 0.55 4.4 6.35 6.35 17.1 12.15 11.55 13.5 9.2 14.6 2.3 15.75 -1.6 16.5 -0.6 17.15 0.6 18.0 5.15 19.5 11.05 22.0 7.6 23.4 4.95 25.0 0.85 M17.75 -8.45 L15.55 -9.7 17.6 -6.05 Q16.85 -8.2 17.75 -8.45 M12.85 -0.85 Q12.95 -3.25 13.85 -4.15 L9.7 -9.6 12.85 -0.85 M19.85 -1.65 L20.9 1.85 22.0 -0.55 21.3 0.0 20.3 -0.7 19.85 -1.65 M9.25 6.5 Q10.2 6.6 11.2 3.6 9.0 8.1 7.75 2.9 8.5 6.7 9.25 6.5 M-13.05 -9.85 Q-11.55 -10.5 -10.5 -9.65 -9.25 -8.75 -8.65 -5.85 -9.1 -8.5 -9.85 -9.65 -11.05 -11.6 -13.05 -9.85 M-17.85 -2.1 Q-18.15 -5.95 -19.45 -4.5 -18.65 -5.15 -17.85 -2.1 M-18.45 -0.65 Q-18.75 -4.5 -20.05 -3.05 -19.25 -3.7 -18.45 -0.65 M-14.15 -5.5 Q-10.2 -7.65 -9.35 -1.5 L-7.75 5.65 Q-6.6 8.65 -5.1 6.75 -6.8 6.8 -7.95 2.95 -8.65 0.55 -9.1 -3.25 -11.1 -8.35 -14.15 -5.5 M-18.95 0.7 Q-19.2 -3.15 -20.5 -1.7 -19.7 -2.3 -18.95 0.7" fill="#fffff3" fill-rule="evenodd" stroke="none"/>
    <path d="M-21.3 0.55 Q-20.35 0.85 -19.95 3.45 -18.5 6.4 -16.75 3.55 -16.0 2.35 -15.25 0.2 -14.4 -1.8 -13.55 -2.6 -11.45 -4.65 -9.7 1.45 L-9.65 1.6 Q-8.55 8.2 -6.1 8.5 -4.65 8.2 -3.6 5.95 -2.6 3.65 -2.0 -0.65 -0.45 -7.15 2.2 -5.6 5.0 -4.55 5.5 -0.55 L7.7 6.35 Q8.55 8.25 10.0 7.05 11.05 6.15 12.4 3.65 L13.5 0.4 13.8 -2.05 Q14.2 -3.6 14.75 -4.25 15.95 -5.9 17.6 -2.85 L17.7 -2.45 Q20.0 10.35 23.05 1.3 L23.5 -0.05 23.95 -1.75 24.4 -3.65 24.6 -0.75 Q24.7 0.25 25.0 0.55 L25.05 0.65 25.0 0.85 Q23.4 4.95 22.0 7.6 19.5 11.05 18.0 5.15 17.15 0.6 16.5 -0.6 15.75 -1.6 14.6 2.3 13.5 9.2 12.15 11.55 6.35 17.1 4.4 6.35 3.35 0.55 2.55 -0.15 0.25 -1.75 -1.45 5.5 -2.0 10.8 -4.4 12.3 -7.9 14.85 -12.3 4.1 -13.9 0.45 -14.95 3.25 -15.45 5.25 -16.2 6.65 -19.7 11.35 -20.1 4.95 -20.65 2.8 -21.8 4.3 L-22.2 4.85 Q-22.55 5.8 -23.75 6.4 L-23.85 6.45 -23.95 6.2 Q-24.6 4.55 -24.15 2.7 -23.85 1.55 -23.2 1.0 L-22.25 0.6 -21.3 0.55" fill="#000000" fill-rule="evenodd" stroke="none"/>
    <path d="M-3.55 -17.9 Q-3.5 -15.3 -2.85 -12.7 L-2.65 -12.0 -1.75 -9.35 -0.45 -6.4 Q-2.7 -4.75 -3.65 2.75 -3.9 -2.15 -4.75 -9.5 L-5.1 -12.65 -5.2 -13.25 -5.3 -14.1 -4.95 -15.75 Q-4.5 -17.45 -3.55 -17.9 M-13.9 -13.3 L-13.95 -13.1 -13.95 -13.05 -14.0 -12.65 -14.25 -9.7 -14.9 -6.7 Q-15.3 -6.5 -15.45 -5.35 L-15.55 -2.75 Q-16.15 -0.35 -17.5 1.0 -16.15 -2.85 -16.5 -3.35 -16.55 -5.35 -15.95 -6.4 L-15.4 -7.15 -15.0 -9.7 Q-14.9 -11.3 -15.05 -12.65 L-15.15 -13.3 -15.25 -13.75 -14.3 -13.3 -13.9 -13.3 M-17.15 -13.5 Q-19.35 -9.3 -20.45 -6.15 L-21.35 -2.75 -21.5 -1.45 -21.3 0.55 -22.25 0.6 -23.2 1.0 Q-23.85 1.55 -24.15 2.7 -24.6 4.55 -23.95 6.2 L-23.85 6.45 Q-24.6 6.0 -24.85 4.75 -25.2 3.25 -24.75 1.05 -24.4 -0.8 -20.95 -7.1 -17.65 -13.15 -17.15 -13.5 M22.3 8.45 L20.55 10.2 Q14.35 12.15 13.95 9.3 15.0 6.1 15.7 1.15 16.35 -0.9 17.95 7.45 19.45 9.95 22.3 8.45 M11.8 13.45 Q10.15 16.95 8.0 17.95 1.55 15.85 1.1 12.1 0.65 8.3 -1.4 14.75 -1.85 17.55 -3.5 17.75 -6.25 17.95 -8.2 15.95 L-9.4 14.4 -9.85 13.35 Q-11.95 8.95 -13.0 4.5 -11.35 15.15 -13.95 14.9 -15.4 14.7 -16.75 12.7 -17.9 11.0 -18.45 8.9 L-17.15 8.1 Q-16.15 7.2 -15.1 5.0 -14.05 2.75 -13.6 2.7 -13.15 2.6 -12.95 2.9 L-12.6 3.7 Q-8.1 14.1 -5.65 13.45 -3.25 12.8 -2.55 11.25 L-1.5 8.35 0.35 1.9 Q1.9 -3.8 3.6 6.35 5.3 16.45 11.8 13.45 M12.85 -0.85 L9.7 -9.6 13.85 -4.15 Q12.95 -3.25 12.85 -0.85 M17.75 -8.45 Q16.85 -8.2 17.6 -6.05 L15.55 -9.7 17.75 -8.45 M19.85 -1.65 L20.3 -0.7 21.3 0.0 22.0 -0.55 20.9 1.85 19.85 -1.65 M9.25 6.5 Q8.5 6.7 7.75 2.9 9.0 8.1 11.2 3.6 10.2 6.6 9.25 6.5 M-13.05 -9.85 Q-11.05 -11.6 -9.85 -9.65 -9.1 -8.5 -8.65 -5.85 -9.25 -8.75 -10.5 -9.65 -11.55 -10.5 -13.05 -9.85 M-14.15 -5.5 Q-11.1 -8.35 -9.1 -3.25 -8.65 0.55 -7.95 2.95 -6.8 6.8 -5.1 6.75 -6.6 8.65 -7.75 5.65 L-9.35 -1.5 Q-10.2 -7.65 -14.15 -5.5 M-18.45 -0.65 Q-19.25 -3.7 -20.05 -3.05 -18.75 -4.5 -18.45 -0.65 M-17.85 -2.1 Q-18.65 -5.15 -19.45 -4.5 -18.15 -5.95 -17.85 -2.1 M-18.95 0.7 Q-19.7 -2.3 -20.5 -1.7 -19.2 -3.15 -18.95 0.7" fill="#ffcfb7" fill-rule="evenodd" stroke="none"/>
    <path d="M20.55 10.2 Q16.6 13.4 11.8 13.45 13.05 12.0 13.95 9.3 14.35 12.15 20.55 10.2 M8.0 17.95 Q4.65 19.4 0.2 14.75 -0.6 13.9 -1.4 14.75 0.65 8.3 1.1 12.1 1.55 15.85 8.0 17.95 M-9.85 13.35 Q-11.7 15.4 -13.95 14.9 -11.35 15.15 -13.0 4.5 -11.95 8.95 -9.85 13.35" fill="#d3705a" fill-rule="evenodd" stroke="none"/>
    <path d="M-20.0 8.5 Q-22.35 6.65 -23.75 6.4 -22.55 5.8 -22.2 4.85 L-21.8 4.3 Q-20.5 4.35 -20.0 8.5" fill="#e49d87" fill-rule="evenodd" stroke="none"/>
  </g>
</svg>
