<?xml version="1.0" encoding="UTF-8" standalone="no"?>
<svg xmlns:ffdec="https://www.free-decompiler.com/flash" xmlns:xlink="http://www.w3.org/1999/xlink" ffdec:objectType="frame" height="85.45px" width="56.2px" xmlns="http://www.w3.org/2000/svg">
  <g transform="matrix(1.0, 0.0, 0.0, 1.0, 36.0, 18.9)">
    <use ffdec:characterId="53" height="74.5" transform="matrix(1.0, 0.0, -0.0264, 0.9805, -13.25, 30.05)" width="43.4" xlink:href="#sprite0"/>
    <use ffdec:characterId="54" height="31.4" transform="matrix(0.985, -0.1566, 0.1566, 0.985, 1.65, 0.45)" width="29.05" xlink:href="#shape2"/>
  </g>
  <defs>
    <g id="sprite0">
      <use ffdec:characterId="50" height="74.5" transform="matrix(1.0, 0.0, 0.0, 1.0, 0.0, 0.0)" width="43.4" xlink:href="#shape0"/>
      <use ffdec:characterId="52" height="15.3" transform="matrix(1.0, 0.0, 0.0, 1.0, -15.2, -14.95)" width="8.8" xlink:href="#sprite1"/>
    </g>
    <g id="shape0">
      <path d="M21.65 -25.55 L21.6 -25.6 21.7 -25.8 21.65 -25.55" fill="#ada964" fill-rule="evenodd" stroke="none"/>
      <path d="M-12.65 30.3 Q-15.75 27.15 -14.8 24.95 -14.25 23.5 -11.9 22.5 L-6.7 22.65 Q-4.45 24.0 -3.4 26.85 -2.45 29.35 -2.45 31.2 -2.45 34.0 -4.85 36.05 -9.9 37.85 -12.65 37.0 -15.55 36.15 -17.8 34.05 -20.05 31.9 -20.95 27.8 -22.85 19.25 -19.8 12.2 -15.85 2.95 -14.85 0.05 L-14.2 -2.4 Q-13.15 -7.55 -12.2 -14.1 -10.85 -21.9 -8.6 -27.6 -5.05 -34.1 -0.4 -37.25 L1.55 -37.25 Q-8.6 -30.5 -10.3 -17.4 -11.85 -5.9 -14.1 1.6 -21.8 18.85 -20.35 24.95 -18.9 31.1 -17.65 32.8 -16.0 35.15 -11.05 36.45 L-7.75 36.25 Q-4.35 35.2 -3.65 31.4 -3.4 29.85 -4.0 27.85 -4.8 25.25 -6.7 24.15 -9.3 22.65 -11.6 23.45 -13.25 23.9 -13.95 24.95 -15.2 26.85 -12.65 30.3" fill="#ffef93" fill-rule="evenodd" stroke="none"/>
      <path d="M1.55 -37.25 Q4.1 -34.15 3.85 -31.25 -1.05 -27.55 -4.0 -18.95 -5.45 -14.65 -5.9 -11.15 -8.2 -0.7 -9.75 1.6 -19.35 15.3 -18.9 21.85 L-18.7 24.95 Q-18.0 30.65 -15.75 33.05 -13.3 35.7 -8.3 35.35 -4.95 33.85 -4.4 31.4 -4.2 30.2 -5.0 28.15 -5.9 25.85 -7.25 24.95 -9.0 23.75 -11.05 24.1 -12.55 24.3 -13.05 24.95 -14.55 26.55 -12.65 30.3 -15.2 26.85 -13.95 24.95 -13.25 23.9 -11.6 23.45 -9.3 22.65 -6.7 24.15 -4.8 25.25 -4.0 27.85 -3.4 29.85 -3.65 31.4 -4.35 35.2 -7.75 36.25 L-11.05 36.45 Q-16.0 35.15 -17.65 32.8 -18.9 31.1 -20.35 24.95 -21.8 18.85 -14.1 1.6 -11.85 -5.9 -10.3 -17.4 -8.6 -30.5 1.55 -37.25" fill="#ff871b" fill-rule="evenodd" stroke="none"/>
      <path d="M-9.75 1.6 Q-8.2 -0.7 -5.9 -11.15 -4.05 -9.45 -2.5 -10.1 -1.15 -10.7 0.6 -13.55 1.45 -3.05 0.75 0.8 0.0 4.7 -1.65 4.9 -7.75 5.3 -9.75 1.6" fill="#b54200" fill-rule="evenodd" stroke="none"/>
      <path d="M3.85 -31.25 Q3.55 -27.75 2.35 -25.1 1.7 -24.65 3.15 -19.0 7.2 1.9 1.95 6.8 0.3 8.35 -1.15 8.25 -8.5 7.65 -13.6 14.95 -11.4 7.1 -1.65 4.9 0.0 4.7 0.75 0.8 1.45 -3.05 0.6 -13.55 -1.15 -10.7 -2.5 -10.1 -4.05 -9.45 -5.9 -11.15 -5.45 -14.65 -4.0 -18.95 -1.05 -27.55 3.85 -31.25" fill="#c64200" fill-rule="evenodd" stroke="none"/>
      <path d="M-13.6 14.95 L-13.6 15.0 Q-15.7 17.5 -17.0 22.35 L-17.05 24.95 Q-16.7 33.9 -7.9 33.9 -6.35 32.85 -5.85 31.4 -5.2 29.3 -6.7 27.0 -8.1 24.85 -10.55 24.95 -13.95 25.15 -12.65 30.3 -14.55 26.55 -13.05 24.95 -12.55 24.3 -11.05 24.1 -9.0 23.75 -7.25 24.95 -5.9 25.85 -5.0 28.15 -4.2 30.2 -4.4 31.4 -4.95 33.85 -8.3 35.35 -13.3 35.7 -15.75 33.05 -18.0 30.65 -18.7 24.95 L-18.9 21.85 Q-19.35 15.3 -9.75 1.6 -7.75 5.3 -1.65 4.9 -11.4 7.1 -13.6 14.95" fill="#a53900" fill-rule="evenodd" stroke="none"/>
    </g>
    <g id="sprite1">
      <use ffdec:characterId="51" height="12.3" transform="matrix(0.951, -0.1262, 0.0, 1.0, 0.15, 0.5)" width="8.8" xlink:href="#shape1"/>
    </g>
    <g id="shape1">
      <path d="M-1.65 5.55 L-4.4 6.15 Q-2.1 -3.1 4.4 -6.15 L4.0 -3.95 Q0.15 -1.35 -1.65 5.55" fill="#f4e48c" fill-rule="evenodd" stroke="none"/>
      <path d="M4.0 -3.95 L2.35 6.15 Q0.6 5.3 -1.65 5.55 0.15 -1.35 4.0 -3.95" fill="#f48119" fill-rule="evenodd" stroke="none"/>
    </g>
    <g id="shape2">
      <path d="M-14.3 -7.15 Q-13.45 -10.35 -5.0 -11.05 -10.4 -9.95 -14.3 -7.15 M-4.25 -13.3 Q-2.95 -16.1 -0.75 -15.6 L-0.85 -14.75 Q-2.75 -14.75 -4.25 -13.3 M-1.05 -11.35 Q-1.55 -9.35 -0.3 -7.65 -1.1 -4.9 -3.9 -8.6 -2.55 -11.45 -1.05 -11.35 M4.9 4.6 Q5.15 4.8 5.5 4.8 L6.15 4.6 6.85 5.4 6.75 5.5 5.2 6.3 4.75 6.35 Q3.85 6.3 3.15 5.85 L4.9 4.6" fill="#ffef93" fill-rule="evenodd" stroke="none"/>
      <path d="M-0.85 -14.75 Q-1.05 -12.15 1.05 -10.0 3.85 -3.6 6.15 -2.6 7.3 -4.7 7.5 -1.3 L9.1 0.4 Q9.65 2.3 9.1 3.9 L9.3 5.25 Q7.0 5.8 7.4 6.8 L6.2 7.5 Q4.25 8.45 1.6 7.5 -1.1 5.4 -2.45 7.5 -8.5 6.6 -12.0 3.45 -15.5 0.25 -14.4 -7.1 L-14.3 -7.15 Q-10.4 -9.95 -5.0 -11.05 L-4.25 -13.3 Q-2.75 -14.75 -0.85 -14.75 M-1.05 -11.35 Q-2.55 -11.45 -3.9 -8.6 -1.1 -4.9 -0.3 -7.65 -1.55 -9.35 -1.05 -11.35 M-10.45 -1.45 Q-7.45 3.35 -3.15 2.85 -1.85 -1.05 0.75 -1.55 -4.25 -8.55 -7.75 -6.8 -8.1 -3.1 -10.45 -1.45 M7.6 3.45 Q7.6 2.25 6.75 1.4 5.9 0.55 4.75 0.55 3.5 0.55 2.65 1.4 1.95 2.1 1.85 3.1 L1.85 3.45 Q1.8 4.6 2.65 5.5 L3.15 5.85 Q3.85 6.3 4.75 6.35 L5.2 6.3 6.75 5.5 6.85 5.4 Q7.55 4.65 7.6 3.65 L7.6 3.6 7.6 3.45" fill="#ff871b" fill-rule="evenodd" stroke="none"/>
      <path d="M9.3 5.25 L9.6 6.6 7.4 6.8 Q7.0 5.8 9.3 5.25 M-10.45 -1.45 Q-8.1 -3.1 -7.75 -6.8 -4.25 -8.55 0.75 -1.55 -1.85 -1.05 -3.15 2.85 -7.45 3.35 -10.45 -1.45 M6.55 3.2 L7.5 3.6 7.6 3.65 Q7.55 4.65 6.85 5.4 L6.15 4.6 6.35 4.5 6.65 3.65 6.55 3.2 M1.85 3.1 L4.4 3.5 4.4 3.65 Q4.4 4.1 4.75 4.5 L4.9 4.6 3.15 5.85 2.65 5.5 Q1.8 4.6 1.85 3.45 L1.85 3.1 M4.55 9.85 Q8.3 8.75 8.2 9.85 9.25 12.15 13.0 13.3 11.55 15.5 10.05 13.5 L4.55 9.85" fill="#c64200" fill-rule="evenodd" stroke="none"/>
      <path d="M9.6 6.6 L10.05 9.4 12.05 11.35 Q16.25 12.6 13.0 15.4 9.6 16.4 8.0 14.15 L1.9 9.7 Q-1.5 10.65 -2.45 7.5 -1.1 5.4 1.6 7.5 4.25 8.45 6.2 7.5 L7.4 6.8 9.6 6.6 M6.55 3.2 L6.35 2.85 Q5.95 2.5 5.5 2.55 5.05 2.5 4.75 2.85 L4.4 3.5 1.85 3.1 Q1.95 2.1 2.65 1.4 3.5 0.55 4.75 0.55 5.9 0.55 6.75 1.4 7.6 2.25 7.6 3.45 L7.5 3.6 6.55 3.2 M4.55 9.85 L10.05 13.5 Q11.55 15.5 13.0 13.3 9.25 12.15 8.2 9.85 8.3 8.75 4.55 9.85" fill="#ffc357" fill-rule="evenodd" stroke="none"/>
      <path d="M4.4 3.5 L4.75 2.85 Q5.05 2.5 5.5 2.55 5.95 2.5 6.35 2.85 L6.55 3.2 6.65 3.65 6.35 4.5 6.15 4.6 5.5 4.8 Q5.15 4.8 4.9 4.6 L4.75 4.5 Q4.4 4.1 4.4 3.65 L4.4 3.5" fill="#282503" fill-rule="evenodd" stroke="none"/>
    </g>
  </defs>
</svg>
