<?xml version="1.0" encoding="UTF-8" standalone="no"?>
<svg xmlns:ffdec="https://www.free-decompiler.com/flash" xmlns:xlink="http://www.w3.org/1999/xlink" ffdec:objectType="frame" height="79.75px" width="71.9px" xmlns="http://www.w3.org/2000/svg">
  <g transform="matrix(1.0, 0.0, 0.0, 1.0, 39.8, 38.65)">
    <use ffdec:characterId="65" height="13.15" transform="matrix(4.6943, 1.83, -1.83, 4.6943, -2.95, 4.65)" width="8.3" xlink:href="#shape0"/>
    <use ffdec:characterId="66" height="33.15" transform="matrix(0.9846, 0.3838, -0.4907, 1.2589, 4.85, 3.35)" width="31.8" xlink:href="#shape1"/>
  </g>
  <defs>
    <g id="shape0">
      <path d="M-3.75 -0.2 L-0.45 -7.15 1.35 -0.8 -3.75 -0.2" fill="#009900" fill-rule="evenodd" stroke="none"/>
      <path d="M-0.45 -7.15 L4.55 -1.8 1.35 -0.8 -0.45 -7.15 M1.35 -0.8 L1.4 -0.85 1.35 -0.8" fill="#00ff00" fill-rule="evenodd" stroke="none"/>
      <path d="M1.35 -0.8 L1.4 -0.85 1.35 -0.8" fill="#076317" fill-rule="evenodd" stroke="none"/>
      <path d="M4.55 -1.8 L1.1 6.0 1.35 -0.8 4.55 -1.8" fill="#00cc00" fill-rule="evenodd" stroke="none"/>
      <path d="M1.1 6.0 L-3.75 -0.2 1.35 -0.8 1.1 6.0" fill="#006600" fill-rule="evenodd" stroke="none"/>
    </g>
    <g id="shape1">
      <path d="M7.95 -16.55 L1.1 -0.25 15.9 7.65 0.4 1.6 -7.25 16.6 -1.1 0.85 -15.9 -8.05 -0.65 -0.9 7.95 -16.55" fill="#ffffff" fill-rule="evenodd" stroke="none"/>
    </g>
  </defs>
</svg>
