<?xml version="1.0" encoding="UTF-8" standalone="no"?>
<svg xmlns:ffdec="https://www.free-decompiler.com/flash" xmlns:xlink="http://www.w3.org/1999/xlink" ffdec:objectType="frame" height="410.0px" width="590.0px" xmlns="http://www.w3.org/2000/svg">
  <g transform="matrix(1.0, 0.0, 0.0, 1.0, 0.0, 0.0)">
    <rect fill="#000000" height="410.0px" width="590.0px"/>
    <use ffdec:characterId="1" height="139.35" transform="matrix(1.0, 0.0, 0.0, 1.0, 0.0, 0.0)" width="528.05" xlink:href="#shape0"/>
    <use ffdec:characterId="2" height="36.65" transform="matrix(1.0, 0.0, 0.0, 1.0, 491.8, 386.05)" width="50.05" xlink:href="#shape1"/>
    <use ffdec:characterId="2" height="36.65" transform="matrix(0.8555, 0.0, 0.0, 0.8555, 549.0, 354.15)" width="50.05" xlink:href="#shape1"/>
    <use ffdec:characterId="2" height="36.65" transform="matrix(0.8555, 0.0, 0.0, 0.8555, 61.9, 269.05)" width="50.05" xlink:href="#shape1"/>
    <use ffdec:characterId="3" height="23.3" transform="matrix(1.0, 0.0, 0.0, 1.0, 423.85, 358.5)" width="48.75" xlink:href="#shape2"/>
    <use ffdec:characterId="2" height="36.65" transform="matrix(1.0, 0.0, 0.0, 1.0, 428.9, 347.85)" width="50.05" xlink:href="#shape1"/>
    <use ffdec:characterId="4" height="15.65" transform="matrix(5.1799, 0.0, 0.0, 1.2564, 182.0, 302.35)" width="23.85" xlink:href="#shape3"/>
    <use ffdec:characterId="10" height="88.7" transform="matrix(1.0, 0.0, 0.0, 1.0, 133.0, 93.15)" width="79.2" xlink:href="#sprite0"/>
    <use ffdec:characterId="11" height="144.1" transform="matrix(1.1967, 0.054, -0.054, 1.1967, 161.7, 181.6)" width="103.95" xlink:href="#shape5"/>
    <use ffdec:characterId="13" height="21.8" transform="matrix(0.9944, -0.3152, 0.3152, 0.9944, 159.3, 124.4)" width="21.85" xlink:href="#sprite2"/>
    <use ffdec:characterId="13" height="21.8" transform="matrix(0.8685, 0.7934, -0.7934, 0.8685, 140.35, 119.6)" width="21.85" xlink:href="#sprite2"/>
    <use ffdec:characterId="17" height="26.0" transform="matrix(1.0, 0.0, 0.0, 1.0, 170.5, 350.65)" width="250.65" xlink:href="#sprite3"/>
    <use ffdec:characterId="18" height="249.25" transform="matrix(1.0, 0.0, 0.0, 1.0, 236.0, 183.15)" width="91.8" xlink:href="#shape7"/>
    <use ffdec:characterId="19" height="8.5" transform="matrix(1.1329, 0.0, 0.0, 0.7952, 235.45, 295.65)" width="76.7" xlink:href="#shape8"/>
    <use ffdec:characterId="19" height="8.5" transform="matrix(-1.1199, 0.0, 0.0, -0.7952, 235.8, 282.0)" width="76.7" xlink:href="#shape8"/>
    <use ffdec:characterId="19" height="8.5" transform="matrix(-1.1199, 0.0, 0.0, -0.7952, 236.85, 300.05)" width="76.7" xlink:href="#shape8"/>
    <use ffdec:characterId="19" height="8.5" transform="matrix(1.1199, 0.0, 0.0, 0.7952, 236.15, 322.8)" width="76.7" xlink:href="#shape8"/>
    <use ffdec:characterId="19" height="8.5" transform="matrix(-1.1484, 0.0, 0.0, -0.7952, 236.25, 257.75)" width="76.7" xlink:href="#shape8"/>
    <use ffdec:characterId="19" height="8.5" transform="matrix(1.1484, 0.0, 0.0, 0.7952, 235.55, 279.3)" width="76.7" xlink:href="#shape8"/>
    <use ffdec:characterId="20" height="215.85" transform="matrix(1.0, 0.0, 0.0, 1.0, 195.1, 157.8)" width="12.15" xlink:href="#shape9"/>
    <use ffdec:characterId="21" height="215.85" transform="matrix(1.0, 0.0, 0.0, 1.0, 278.45, 157.3)" width="12.15" xlink:href="#shape10"/>
    <use ffdec:characterId="22" height="8.25" transform="matrix(0.0058, -1.9999, 1.0612, 0.0109, 276.7, 191.15)" width="3.5" xlink:href="#shape11"/>
    <use ffdec:characterId="22" height="8.25" transform="matrix(0.0056, -1.9999, 1.025, 0.0109, 196.9, 191.15)" width="3.5" xlink:href="#shape11"/>
    <use ffdec:characterId="22" height="8.25" transform="matrix(0.006, -1.2539, 1.0975, 0.0068, 193.95, 262.65)" width="3.5" xlink:href="#shape11"/>
    <use ffdec:characterId="22" height="8.25" transform="matrix(0.006, -1.2539, 1.0975, 0.0068, 279.4, 262.7)" width="3.5" xlink:href="#shape11"/>
    <use ffdec:characterId="20" height="215.85" transform="matrix(0.0, -1.0, 0.4576, 0.0, 235.2, 255.75)" width="12.15" xlink:href="#shape9"/>
    <use ffdec:characterId="22" height="8.25" transform="matrix(0.0054, -1.0, 1.0, 0.0054, 194.2, 70.45)" width="3.5" xlink:href="#shape11"/>
    <use ffdec:characterId="22" height="8.25" transform="matrix(0.0054, -1.0, 1.0, 0.0054, 279.4, 71.45)" width="3.5" xlink:href="#shape11"/>
    <use ffdec:characterId="21" height="215.85" transform="matrix(-0.0053, -1.0, 0.4858, -0.0023, 236.0, 65.2)" width="12.15" xlink:href="#shape10"/>
    <use ffdec:characterId="22" height="8.25" transform="matrix(1.0, 0.0, 0.0, 1.0, 229.6, 67.05)" width="3.5" xlink:href="#shape11"/>
    <use ffdec:characterId="22" height="8.25" transform="matrix(0.0059, -1.1428, 1.0843, 0.0062, 277.8, 228.8)" width="3.5" xlink:href="#shape11"/>
    <use ffdec:characterId="22" height="8.25" transform="matrix(0.0059, -1.1428, 1.0843, 0.0062, 195.9, 227.2)" width="3.5" xlink:href="#shape11"/>
    <use ffdec:characterId="20" height="215.85" transform="matrix(0.0, -1.0, 0.4576, 0.0, 233.0, 220.35)" width="12.15" xlink:href="#shape9"/>
    <use ffdec:characterId="22" height="8.25" transform="matrix(0.0054, -1.0, 1.0, 0.0054, 196.2, 110.05)" width="3.5" xlink:href="#shape11"/>
    <use ffdec:characterId="22" height="8.25" transform="matrix(0.0054, -1.0, 1.0, 0.0054, 277.6, 111.05)" width="3.5" xlink:href="#shape11"/>
    <use ffdec:characterId="21" height="215.85" transform="matrix(-0.0053, -1.0, 0.4858, -0.0023, 235.95, 104.2)" width="12.15" xlink:href="#shape10"/>
    <use ffdec:characterId="22" height="8.25" transform="matrix(0.0054, -1.0, 1.0, 0.0054, 197.2, 147.55)" width="3.5" xlink:href="#shape11"/>
    <use ffdec:characterId="22" height="8.25" transform="matrix(0.0054, -1.0, 1.0, 0.0054, 276.6, 148.15)" width="3.5" xlink:href="#shape11"/>
    <use ffdec:characterId="21" height="215.85" transform="matrix(-0.0053, -1.0, 0.4858, -0.0023, 235.95, 141.6)" width="12.15" xlink:href="#shape10"/>
    <use ffdec:characterId="20" height="215.85" transform="matrix(0.0, -1.0, 0.4576, 0.0, 235.85, 183.05)" width="12.15" xlink:href="#shape9"/>
    <use ffdec:characterId="22" height="8.25" transform="matrix(1.0, 0.0, 0.0, 1.0, 227.8, 106.05)" width="3.5" xlink:href="#shape11"/>
    <use ffdec:characterId="22" height="8.25" transform="matrix(1.0, 0.0, 0.0, 1.0, 227.4, 143.35)" width="3.5" xlink:href="#shape11"/>
    <use ffdec:characterId="22" height="8.25" transform="matrix(1.0, 0.0, 0.0, 1.0, 227.4, 181.35)" width="3.5" xlink:href="#shape11"/>
    <use ffdec:characterId="22" height="8.25" transform="matrix(1.0, 0.0, 0.0, 1.0, 227.9, 218.55)" width="3.5" xlink:href="#shape11"/>
    <use ffdec:characterId="21" height="215.85" transform="matrix(0.995, 0.0934, 0.0114, 0.9746, 235.5, 158.45)" width="12.15" xlink:href="#shape10"/>
    <use ffdec:characterId="23" height="13.8" transform="matrix(-0.783, 0.0, 0.0, 0.783, 235.4, 67.1)" width="11.4" xlink:href="#shape12"/>
    <use ffdec:characterId="23" height="13.8" transform="matrix(0.7703, 0.0, 0.0, 0.7703, 235.65, 66.6)" width="11.4" xlink:href="#shape12"/>
    <use ffdec:characterId="23" height="13.8" transform="matrix(-0.783, 0.0, 0.0, 0.783, 233.75, 107.25)" width="11.4" xlink:href="#shape12"/>
    <use ffdec:characterId="23" height="13.8" transform="matrix(0.7703, 0.0, 0.0, 0.7703, 234.0, 106.75)" width="11.4" xlink:href="#shape12"/>
    <use ffdec:characterId="23" height="13.8" transform="matrix(-0.783, 0.0, 0.0, 0.783, 233.2, 144.1)" width="11.4" xlink:href="#shape12"/>
    <use ffdec:characterId="23" height="13.8" transform="matrix(0.7703, 0.0, 0.0, 0.7703, 233.45, 143.6)" width="11.4" xlink:href="#shape12"/>
    <use ffdec:characterId="23" height="13.8" transform="matrix(0.783, 0.0, 0.0, 0.783, 233.95, 181.9)" width="11.4" xlink:href="#shape12"/>
    <use ffdec:characterId="23" height="13.8" transform="matrix(-0.7703, 0.0, 0.0, 0.7703, 233.7, 181.4)" width="11.4" xlink:href="#shape12"/>
    <use ffdec:characterId="23" height="13.8" transform="matrix(-0.9933, 0.0, 0.0, 0.825, 234.1, 218.95)" width="11.4" xlink:href="#shape12"/>
    <use ffdec:characterId="23" height="13.8" transform="matrix(0.9772, 0.0, 0.0, 0.8115, 234.45, 218.4)" width="11.4" xlink:href="#shape12"/>
    <use ffdec:characterId="23" height="13.8" transform="matrix(-0.783, 0.0, 0.0, 0.783, 193.05, 64.8)" width="11.4" xlink:href="#shape12"/>
    <use ffdec:characterId="23" height="13.8" transform="matrix(1.0, 0.0, 0.0, 1.0, 194.1, 64.7)" width="11.4" xlink:href="#shape12"/>
    <use ffdec:characterId="23" height="13.8" transform="matrix(-0.783, 0.0, 0.0, 0.783, 195.25, 104.95)" width="11.4" xlink:href="#shape12"/>
    <use ffdec:characterId="23" height="13.8" transform="matrix(1.0, 0.0, 0.0, 1.0, 196.3, 104.85)" width="11.4" xlink:href="#shape12"/>
    <use ffdec:characterId="23" height="13.8" transform="matrix(-0.783, 0.0, 0.0, 0.783, 196.35, 142.35)" width="11.4" xlink:href="#shape12"/>
    <use ffdec:characterId="23" height="13.8" transform="matrix(1.0, 0.0, 0.0, 1.0, 197.4, 142.25)" width="11.4" xlink:href="#shape12"/>
    <use ffdec:characterId="23" height="13.8" transform="matrix(0.783, 0.0, 0.0, 0.783, 197.35, 184.05)" width="11.4" xlink:href="#shape12"/>
    <use ffdec:characterId="23" height="13.8" transform="matrix(-1.0, 0.0, 0.0, 1.0, 196.3, 183.95)" width="11.4" xlink:href="#shape12"/>
    <use ffdec:characterId="23" height="13.8" transform="matrix(0.783, 0.0, 0.0, 0.783, 196.2, 221.85)" width="11.4" xlink:href="#shape12"/>
    <use ffdec:characterId="23" height="13.8" transform="matrix(-1.0, 0.0, 0.0, 1.0, 195.15, 221.75)" width="11.4" xlink:href="#shape12"/>
    <use ffdec:characterId="23" height="13.8" transform="matrix(0.783, 0.0, 0.0, 0.783, 194.15, 257.15)" width="11.4" xlink:href="#shape12"/>
    <use ffdec:characterId="23" height="13.8" transform="matrix(-1.0, 0.0, 0.0, 1.0, 193.1, 257.05)" width="11.4" xlink:href="#shape12"/>
    <use ffdec:characterId="22" height="8.25" transform="matrix(1.0, 0.0, 0.0, 1.0, 230.4, 253.85)" width="3.5" xlink:href="#shape11"/>
    <use ffdec:characterId="23" height="13.8" transform="matrix(-0.9933, 0.0, 0.0, 0.825, 237.15, 255.05)" width="11.4" xlink:href="#shape12"/>
    <use ffdec:characterId="23" height="13.8" transform="matrix(0.9772, 0.0, 0.0, 0.8115, 237.5, 254.5)" width="11.4" xlink:href="#shape12"/>
    <use ffdec:characterId="23" height="13.8" transform="matrix(0.783, 0.0, 0.0, 0.783, 280.15, 64.8)" width="11.4" xlink:href="#shape12"/>
    <use ffdec:characterId="23" height="13.8" transform="matrix(-1.0, 0.0, 0.0, 1.0, 279.1, 64.7)" width="11.4" xlink:href="#shape12"/>
    <use ffdec:characterId="23" height="13.8" transform="matrix(0.783, 0.0, 0.0, 0.783, 277.95, 104.95)" width="11.4" xlink:href="#shape12"/>
    <use ffdec:characterId="23" height="13.8" transform="matrix(-1.0, 0.0, 0.0, 1.0, 276.9, 104.85)" width="11.4" xlink:href="#shape12"/>
    <use ffdec:characterId="23" height="13.8" transform="matrix(0.783, 0.0, 0.0, 0.783, 276.85, 142.35)" width="11.4" xlink:href="#shape12"/>
    <use ffdec:characterId="23" height="13.8" transform="matrix(-1.0, 0.0, 0.0, 1.0, 275.8, 142.25)" width="11.4" xlink:href="#shape12"/>
    <use ffdec:characterId="23" height="13.8" transform="matrix(-0.783, 0.0, 0.0, 0.783, 276.2, 184.2)" width="11.4" xlink:href="#shape12"/>
    <use ffdec:characterId="23" height="13.8" transform="matrix(1.0, 0.0, 0.0, 1.0, 277.25, 184.1)" width="11.4" xlink:href="#shape12"/>
    <use ffdec:characterId="23" height="13.8" transform="matrix(-0.783, 0.0, 0.0, 0.783, 277.15, 221.6)" width="11.4" xlink:href="#shape12"/>
    <use ffdec:characterId="23" height="13.8" transform="matrix(1.0, 0.0, 0.0, 1.0, 278.2, 221.5)" width="11.4" xlink:href="#shape12"/>
    <use ffdec:characterId="23" height="13.8" transform="matrix(-0.8792, 0.0, 0.0, 0.6468, 278.65, 256.85)" width="11.4" xlink:href="#shape12"/>
    <use ffdec:characterId="23" height="13.8" transform="matrix(1.1228, 0.0, 0.0, 0.8261, 279.85, 256.75)" width="11.4" xlink:href="#shape12"/>
    <use ffdec:characterId="24" height="58.65" transform="matrix(0.9883, -0.1494, 0.1494, 0.9883, 236.4, 286.6)" width="71.1" xlink:href="#shape13"/>
    <use ffdec:characterId="25" height="112.05" transform="matrix(0.4, 0.0, 0.0, 0.4, 219.8, 286.4)" width="42.15" xlink:href="#shape14"/>
    <use ffdec:characterId="26" height="99.1" transform="matrix(0.45, 0.0, 0.0, 0.45, 248.25, 286.85)" width="72.85" xlink:href="#shape15"/>
    <use ffdec:characterId="17" height="26.0" transform="matrix(1.0, 0.0, 0.7563, 1.0, 307.25, 353.65)" width="250.65" xlink:href="#sprite3"/>
    <use ffdec:characterId="18" height="249.25" transform="matrix(0.9941, 0.1054, -0.1054, 0.9941, 357.2, 187.15)" width="91.8" xlink:href="#shape7"/>
    <use ffdec:characterId="19" height="8.5" transform="matrix(1.1262, 0.1194, -0.0838, 0.7904, 344.8, 298.95)" width="76.7" xlink:href="#shape8"/>
    <use ffdec:characterId="19" height="8.5" transform="matrix(-1.1133, -0.1181, 0.0838, -0.7904, 346.6, 285.4)" width="76.7" xlink:href="#shape8"/>
    <use ffdec:characterId="19" height="8.5" transform="matrix(-1.1133, -0.1181, 0.0838, -0.7904, 345.75, 303.45)" width="76.7" xlink:href="#shape8"/>
    <use ffdec:characterId="19" height="8.5" transform="matrix(1.1133, 0.1181, -0.0838, 0.7904, 342.65, 325.95)" width="76.7" xlink:href="#shape8"/>
    <use ffdec:characterId="19" height="8.5" transform="matrix(-1.1416, -0.1211, 0.0838, -0.7904, 349.6, 261.35)" width="76.7" xlink:href="#shape8"/>
    <use ffdec:characterId="19" height="8.5" transform="matrix(1.1416, 0.1211, -0.0838, 0.7904, 346.6, 282.7)" width="76.7" xlink:href="#shape8"/>
    <use ffdec:characterId="20" height="215.85" transform="matrix(0.9941, 0.1054, -0.1054, 0.9941, 319.2, 157.65)" width="12.15" xlink:href="#shape9"/>
    <use ffdec:characterId="21" height="215.85" transform="matrix(0.9941, 0.1054, -0.1054, 0.9941, 402.15, 165.95)" width="12.15" xlink:href="#shape10"/>
    <use ffdec:characterId="22" height="8.25" transform="matrix(0.2166, -1.9875, 1.0538, 0.1227, 396.8, 199.4)" width="3.5" xlink:href="#shape11"/>
    <use ffdec:characterId="22" height="8.25" transform="matrix(0.2164, -1.9875, 1.0178, 0.1189, 317.5, 191.0)" width="3.5" xlink:href="#shape11"/>
    <use ffdec:characterId="22" height="8.25" transform="matrix(0.1381, -1.2459, 1.0903, 0.1225, 307.0, 261.75)" width="3.5" xlink:href="#shape11"/>
    <use ffdec:characterId="22" height="8.25" transform="matrix(0.1381, -1.2459, 1.0903, 0.1225, 391.95, 270.85)" width="3.5" xlink:href="#shape11"/>
    <use ffdec:characterId="20" height="215.85" transform="matrix(0.1054, -0.9941, 0.4549, 0.0482, 348.75, 259.2)" width="12.15" xlink:href="#shape9"/>
    <use ffdec:characterId="22" height="8.25" transform="matrix(0.1108, -0.9935, 0.9935, 0.1108, 327.55, 70.7)" width="3.5" xlink:href="#shape11"/>
    <use ffdec:characterId="22" height="8.25" transform="matrix(0.1108, -0.9935, 0.9935, 0.1108, 412.15, 80.7)" width="3.5" xlink:href="#shape11"/>
    <use ffdec:characterId="21" height="215.85" transform="matrix(0.1001, -0.9946, 0.4832, 0.0489, 369.65, 69.9)" width="12.15" xlink:href="#shape10"/>
    <use ffdec:characterId="22" height="8.25" transform="matrix(0.9941, 0.1054, -0.1054, 0.9941, 363.1, 71.1)" width="3.5" xlink:href="#shape11"/>
    <use ffdec:characterId="22" height="8.25" transform="matrix(0.1263, -1.1354, 1.0772, 0.1205, 393.95, 236.95)" width="3.5" xlink:href="#shape11"/>
    <use ffdec:characterId="22" height="8.25" transform="matrix(0.1263, -1.1354, 1.0772, 0.1205, 312.7, 226.7)" width="3.5" xlink:href="#shape11"/>
    <use ffdec:characterId="20" height="215.85" transform="matrix(0.1054, -0.9941, 0.4549, 0.0482, 350.3, 223.85)" width="12.15" xlink:href="#shape9"/>
    <use ffdec:characterId="22" height="8.25" transform="matrix(0.1108, -0.9935, 0.9935, 0.1108, 325.35, 110.3)" width="3.5" xlink:href="#shape11"/>
    <use ffdec:characterId="22" height="8.25" transform="matrix(0.1108, -0.9935, 0.9935, 0.1108, 406.15, 119.9)" width="3.5" xlink:href="#shape11"/>
    <use ffdec:characterId="21" height="215.85" transform="matrix(0.1001, -0.9946, 0.4832, 0.0489, 365.45, 108.65)" width="12.15" xlink:href="#shape10"/>
    <use ffdec:characterId="22" height="8.25" transform="matrix(0.1108, -0.9935, 0.9935, 0.1108, 322.4, 147.65)" width="3.5" xlink:href="#shape11"/>
    <use ffdec:characterId="22" height="8.25" transform="matrix(0.1108, -0.9935, 0.9935, 0.1108, 401.25, 156.65)" width="3.5" xlink:href="#shape11"/>
    <use ffdec:characterId="21" height="215.85" transform="matrix(0.1001, -0.9946, 0.4832, 0.0489, 361.55, 145.85)" width="12.15" xlink:href="#shape10"/>
    <use ffdec:characterId="20" height="215.85" transform="matrix(0.1054, -0.9941, 0.4549, 0.0482, 357.05, 187.05)" width="12.15" xlink:href="#shape9"/>
    <use ffdec:characterId="22" height="8.25" transform="matrix(0.9941, 0.1054, -0.1054, 0.9941, 357.2, 109.65)" width="3.5" xlink:href="#shape11"/>
    <use ffdec:characterId="22" height="8.25" transform="matrix(0.9941, 0.1054, -0.1054, 0.9941, 352.85, 146.7)" width="3.5" xlink:href="#shape11"/>
    <use ffdec:characterId="22" height="8.25" transform="matrix(0.9941, 0.1054, -0.1054, 0.9941, 348.85, 184.45)" width="3.5" xlink:href="#shape11"/>
    <use ffdec:characterId="22" height="8.25" transform="matrix(0.9941, 0.1054, -0.1054, 0.9941, 345.4, 221.5)" width="3.5" xlink:href="#shape11"/>
    <use ffdec:characterId="21" height="215.85" transform="matrix(0.9793, 0.1978, -0.0914, 0.9701, 359.3, 162.55)" width="12.15" xlink:href="#shape10"/>
    <use ffdec:characterId="23" height="13.8" transform="matrix(-0.7784, -0.0826, -0.0826, 0.7784, 368.85, 71.75)" width="11.4" xlink:href="#shape12"/>
    <use ffdec:characterId="23" height="13.8" transform="matrix(0.7657, 0.0812, -0.0812, 0.7657, 369.15, 71.25)" width="11.4" xlink:href="#shape12"/>
    <use ffdec:characterId="23" height="13.8" transform="matrix(-0.7784, -0.0826, -0.0826, 0.7784, 362.95, 111.5)" width="11.4" xlink:href="#shape12"/>
    <use ffdec:characterId="23" height="13.8" transform="matrix(0.7657, 0.0812, -0.0812, 0.7657, 363.25, 111.0)" width="11.4" xlink:href="#shape12"/>
    <use ffdec:characterId="23" height="13.8" transform="matrix(-0.7784, -0.0826, -0.0826, 0.7784, 358.55, 148.05)" width="11.4" xlink:href="#shape12"/>
    <use ffdec:characterId="23" height="13.8" transform="matrix(0.7657, 0.0812, -0.0812, 0.7657, 358.85, 147.55)" width="11.4" xlink:href="#shape12"/>
    <use ffdec:characterId="23" height="13.8" transform="matrix(0.7784, 0.0826, -0.0826, 0.7784, 355.3, 185.65)" width="11.4" xlink:href="#shape12"/>
    <use ffdec:characterId="23" height="13.8" transform="matrix(-0.7657, -0.0812, -0.0812, 0.7657, 355.1, 185.15)" width="11.4" xlink:href="#shape12"/>
    <use ffdec:characterId="23" height="13.8" transform="matrix(-0.9875, -0.1047, -0.087, 0.8201, 351.55, 222.55)" width="11.4" xlink:href="#shape12"/>
    <use ffdec:characterId="23" height="13.8" transform="matrix(0.9714, 0.103, -0.0856, 0.8067, 351.95, 222.0)" width="11.4" xlink:href="#shape12"/>
    <use ffdec:characterId="23" height="13.8" transform="matrix(-0.7784, -0.0826, -0.0826, 0.7784, 327.0, 65.0)" width="11.4" xlink:href="#shape12"/>
    <use ffdec:characterId="23" height="13.8" transform="matrix(0.9941, 0.1054, -0.1054, 0.9941, 328.05, 65.0)" width="11.4" xlink:href="#shape12"/>
    <use ffdec:characterId="23" height="13.8" transform="matrix(-0.7784, -0.0826, -0.0826, 0.7784, 324.95, 105.1)" width="11.4" xlink:href="#shape12"/>
    <use ffdec:characterId="23" height="13.8" transform="matrix(0.9941, 0.1054, -0.1054, 0.9941, 326.0, 105.1)" width="11.4" xlink:href="#shape12"/>
    <use ffdec:characterId="23" height="13.8" transform="matrix(-0.7784, -0.0826, -0.0826, 0.7784, 322.1, 142.45)" width="11.4" xlink:href="#shape12"/>
    <use ffdec:characterId="23" height="13.8" transform="matrix(0.9941, 0.1054, -0.1054, 0.9941, 323.15, 142.45)" width="11.4" xlink:href="#shape12"/>
    <use ffdec:characterId="23" height="13.8" transform="matrix(0.7784, 0.0826, -0.0826, 0.7784, 318.7, 183.95)" width="11.4" xlink:href="#shape12"/>
    <use ffdec:characterId="23" height="13.8" transform="matrix(-0.9941, -0.1054, -0.1054, 0.9941, 317.65, 183.75)" width="11.4" xlink:href="#shape12"/>
    <use ffdec:characterId="23" height="13.8" transform="matrix(0.7784, 0.0826, -0.0826, 0.7784, 313.6, 221.4)" width="11.4" xlink:href="#shape12"/>
    <use ffdec:characterId="23" height="13.8" transform="matrix(-0.9941, -0.1054, -0.1054, 0.9941, 312.55, 221.2)" width="11.4" xlink:href="#shape12"/>
    <use ffdec:characterId="23" height="13.8" transform="matrix(0.7784, 0.0826, -0.0826, 0.7784, 307.8, 256.25)" width="11.4" xlink:href="#shape12"/>
    <use ffdec:characterId="23" height="13.8" transform="matrix(-0.9941, -0.1054, -0.1054, 0.9941, 306.75, 256.05)" width="11.4" xlink:href="#shape12"/>
    <use ffdec:characterId="22" height="8.25" transform="matrix(0.9941, 0.1054, -0.1054, 0.9941, 344.2, 256.85)" width="3.5" xlink:href="#shape11"/>
    <use ffdec:characterId="23" height="13.8" transform="matrix(-0.9875, -0.1047, -0.087, 0.8201, 350.8, 258.8)" width="11.4" xlink:href="#shape12"/>
    <use ffdec:characterId="23" height="13.8" transform="matrix(0.9714, 0.103, -0.0856, 0.8067, 351.2, 258.25)" width="11.4" xlink:href="#shape12"/>
    <use ffdec:characterId="23" height="13.8" transform="matrix(0.7784, 0.0826, -0.0826, 0.7784, 413.6, 74.15)" width="11.4" xlink:href="#shape12"/>
    <use ffdec:characterId="23" height="13.8" transform="matrix(-0.9941, -0.1054, -0.1054, 0.9941, 412.55, 73.95)" width="11.4" xlink:href="#shape12"/>
    <use ffdec:characterId="23" height="13.8" transform="matrix(0.7784, 0.0826, -0.0826, 0.7784, 407.15, 113.8)" width="11.4" xlink:href="#shape12"/>
    <use ffdec:characterId="23" height="13.8" transform="matrix(-0.9941, -0.1054, -0.1054, 0.9941, 406.1, 113.6)" width="11.4" xlink:href="#shape12"/>
    <use ffdec:characterId="23" height="13.8" transform="matrix(0.7784, 0.0826, -0.0826, 0.7784, 402.1, 150.9)" width="11.4" xlink:href="#shape12"/>
    <use ffdec:characterId="23" height="13.8" transform="matrix(-0.9941, -0.1054, -0.1054, 0.9941, 401.05, 150.7)" width="11.4" xlink:href="#shape12"/>
    <use ffdec:characterId="23" height="13.8" transform="matrix(-0.7784, -0.0826, -0.0826, 0.7784, 397.05, 192.45)" width="11.4" xlink:href="#shape12"/>
    <use ffdec:characterId="23" height="13.8" transform="matrix(0.9941, 0.1054, -0.1054, 0.9941, 398.1, 192.45)" width="11.4" xlink:href="#shape12"/>
    <use ffdec:characterId="23" height="13.8" transform="matrix(-0.7784, -0.0826, -0.0826, 0.7784, 394.05, 229.75)" width="11.4" xlink:href="#shape12"/>
    <use ffdec:characterId="23" height="13.8" transform="matrix(0.9941, 0.1054, -0.1054, 0.9941, 395.1, 229.75)" width="11.4" xlink:href="#shape12"/>
    <use ffdec:characterId="23" height="13.8" transform="matrix(-0.874, -0.0927, -0.0682, 0.643, 391.85, 264.9)" width="11.4" xlink:href="#shape12"/>
    <use ffdec:characterId="23" height="13.8" transform="matrix(1.1161, 0.1184, -0.0871, 0.8212, 393.05, 264.95)" width="11.4" xlink:href="#shape12"/>
    <use ffdec:characterId="24" height="58.65" transform="matrix(0.9709, -0.0894, 0.0894, 0.9709, 344.3, 288.3)" width="71.1" xlink:href="#shape13"/>
    <use ffdec:characterId="25" height="112.05" transform="matrix(0.4, 0.0, 0.0, 0.4, 342.8, 287.4)" width="42.15" xlink:href="#shape14"/>
    <use ffdec:characterId="28" height="5.7" transform="matrix(1.0482, -0.3322, 0.3322, 1.0482, 160.0, 125.2)" width="5.8" xlink:href="#sprite4"/>
    <use ffdec:characterId="28" height="5.7" transform="matrix(0.8685, 0.7934, -0.7934, 0.8685, 140.35, 119.4)" width="5.8" xlink:href="#sprite4"/>
    <use ffdec:characterId="41" height="29.2" transform="matrix(-1.0, 0.0, 0.0, 1.0, 146.45, 122.15)" width="43.35" xlink:href="#sprite5"/>
    <use ffdec:characterId="29" height="19.6" transform="matrix(1.0, 0.0, 0.0, 1.0, 214.95, 84.95)" width="19.5" xlink:href="#shape17"/>
    <use ffdec:characterId="29" height="19.6" transform="matrix(1.0, 0.0, 0.0, 1.0, 254.95, 84.95)" width="19.5" xlink:href="#shape17"/>
    <use ffdec:characterId="29" height="19.6" transform="matrix(1.0, 0.0, 0.0, 1.0, 214.75, 123.95)" width="19.5" xlink:href="#shape17"/>
    <use ffdec:characterId="29" height="19.6" transform="matrix(1.0, 0.0, 0.0, 1.0, 254.95, 123.95)" width="19.5" xlink:href="#shape17"/>
    <use ffdec:characterId="29" height="19.6" transform="matrix(1.0, 0.0, 0.0, 1.0, 214.75, 162.35)" width="19.5" xlink:href="#shape17"/>
    <use ffdec:characterId="29" height="19.6" transform="matrix(1.0, 0.0, 0.0, 1.0, 254.35, 162.35)" width="19.5" xlink:href="#shape17"/>
    <use ffdec:characterId="29" height="19.6" transform="matrix(1.0, 0.0, 0.0, 1.0, 214.75, 199.55)" width="19.5" xlink:href="#shape17"/>
    <use ffdec:characterId="29" height="19.6" transform="matrix(1.0, 0.0, 0.0, 1.0, 254.35, 199.55)" width="19.5" xlink:href="#shape17"/>
    <use ffdec:characterId="29" height="19.6" transform="matrix(1.0, 0.0, 0.0, 1.0, 214.75, 236.9)" width="19.5" xlink:href="#shape17"/>
    <use ffdec:characterId="29" height="19.6" transform="matrix(1.0, 0.0, 0.0, 1.0, 255.55, 236.9)" width="19.5" xlink:href="#shape17"/>
    <use ffdec:characterId="29" height="19.6" transform="matrix(1.0, 0.0, 0.0, 1.0, 332.35, 239.15)" width="19.5" xlink:href="#shape17"/>
    <use ffdec:characterId="30" height="26.3" transform="matrix(-1.17, -0.2575, -0.2575, 1.17, 140.6, 121.35)" width="55.25" xlink:href="#shape18"/>
    <use ffdec:characterId="31" height="9.65" transform="matrix(3.3921, 0.0, 0.0, 3.3921, 147.6, 139.8)" width="9.35" xlink:href="#shape19"/>
    <use ffdec:characterId="32" height="13.0" transform="matrix(3.3921, 0.0, 0.0, 3.3921, 147.45, 171.9)" width="18.45" xlink:href="#shape20"/>
    <use ffdec:characterId="33" height="22.0" transform="matrix(1.052, 0.0, 0.0, 1.052, 149.5, 134.35)" width="15.1" xlink:href="#shape21"/>
    <use ffdec:characterId="24" height="58.65" transform="matrix(0.9883, -0.1557, 0.1494, 1.0299, 290.9, 361.7)" width="71.1" xlink:href="#shape13"/>
    <use ffdec:characterId="34" height="0.65" transform="matrix(1.0, 0.0, 0.0, 1.0, 307.95, 213.7)" width="0.2" xlink:href="#shape22"/>
    <use ffdec:characterId="35" height="131.65" transform="matrix(-0.9929, -0.1128, -0.1128, 0.9929, 433.35, 119.8)" width="13.7" xlink:href="#shape23"/>
    <use ffdec:characterId="36" height="27.25" transform="matrix(-0.9909, -0.0765, -0.1311, 0.9981, 368.85, 56.9)" width="140.8" xlink:href="#shape24"/>
    <use ffdec:characterId="37" height="164.6" transform="matrix(-0.9909, -0.1315, -0.1315, 0.9909, 371.8, 271.15)" width="121.9" xlink:href="#shape25"/>
    <use ffdec:characterId="37" height="164.6" transform="matrix(1.0, 0.0, 0.0, 1.0, 217.7, 265.05)" width="121.9" xlink:href="#shape25"/>
    <use ffdec:characterId="35" height="131.65" transform="matrix(1.0, 0.0, 0.0, 1.0, 175.95, 106.55)" width="13.7" xlink:href="#shape23"/>
    <use ffdec:characterId="36" height="27.25" transform="matrix(1.0, 0.0408, 0.0, 1.0, 249.3, 49.65)" width="140.8" xlink:href="#shape24"/>
    <use ffdec:characterId="38" height="11.85" transform="matrix(1.0, 0.0, 0.0, 1.0, 288.7, 324.3)" width="20.45" xlink:href="#shape26"/>
    <use ffdec:characterId="39" height="62.75" transform="matrix(0.0, 1.0, -1.0961, 0.0, 292.7, 390.05)" width="8.6" xlink:href="#shape27"/>
    <use ffdec:characterId="39" height="62.75" transform="matrix(1.0, 0.0, 0.0, 0.9861, 257.35, 361.9)" width="8.6" xlink:href="#shape27"/>
    <use ffdec:characterId="39" height="62.75" transform="matrix(0.0, 1.0, -1.1668, 0.0, 291.25, 332.7)" width="8.6" xlink:href="#shape27"/>
    <use ffdec:characterId="39" height="62.75" transform="matrix(-0.9981, 0.0565, 0.0557, 0.9842, 327.0, 361.55)" width="8.6" xlink:href="#shape27"/>
    <use ffdec:characterId="40" height="13.4" transform="matrix(1.0, 0.0, 0.0, 1.0, 327.25, 386.05)" width="8.4" xlink:href="#shape28"/>
    <use ffdec:characterId="40" height="13.4" transform="matrix(-1.0, 0.0, 0.0, 1.0, 259.0, 386.25)" width="8.4" xlink:href="#shape28"/>
    <use ffdec:characterId="40" height="13.4" transform="matrix(-1.0, 0.0, 0.0, -1.0, 257.65, 336.45)" width="8.4" xlink:href="#shape28"/>
    <use ffdec:characterId="40" height="13.4" transform="matrix(1.0, 0.0, 0.0, -1.0, 325.75, 335.4)" width="8.4" xlink:href="#shape28"/>
    <use ffdec:characterId="25" height="112.05" transform="matrix(0.4, 0.0, 0.0, 0.4, 278.8, 360.4)" width="42.15" xlink:href="#shape14"/>
    <use ffdec:characterId="25" height="112.05" transform="matrix(0.4, 0.0, 0.0, 0.4, 302.8, 360.4)" width="42.15" xlink:href="#shape14"/>
  </g>
  <defs>
    <g id="shape0">
      <path d="M41.2 273.0 L50.55 268.95 77.75 279.1 Q59.1 290.35 46.4 287.4 30.25 280.3 41.2 273.0" fill="#000000" fill-opacity="0.3019608" fill-rule="evenodd" stroke="none"/>
      <path d="M467.5 390.7 L478.5 386.0 510.35 397.85 Q488.5 411.05 473.65 407.6 454.7 399.25 467.5 390.7" fill="#000000" fill-opacity="0.3019608" fill-rule="evenodd" stroke="none"/>
      <path d="M528.3 358.05 L537.65 354.0 564.85 364.15 Q546.2 375.4 533.5 372.45 517.35 365.35 528.3 358.05" fill="#000000" fill-opacity="0.3019608" fill-rule="evenodd" stroke="none"/>
    </g>
    <g id="shape1">
      <path d="M-3.55 -17.9 Q-1.35 -19.1 1.3 -17.0 2.9 -14.85 3.55 -16.05 9.2 -20.8 15.65 -10.6 23.45 -6.6 24.45 -3.8 L24.4 -3.65 23.95 -1.75 23.5 -0.05 23.05 1.3 Q20.0 10.35 17.7 -2.45 L17.6 -2.85 Q15.95 -5.9 14.75 -4.25 14.2 -3.6 13.8 -2.05 L13.5 0.4 12.4 3.65 Q11.05 6.15 10.0 7.05 8.55 8.25 7.7 6.35 L5.5 -0.55 Q5.0 -4.55 2.2 -5.6 -0.45 -7.15 -2.0 -0.65 -2.6 3.65 -3.6 5.95 -4.65 8.2 -6.1 8.5 -8.55 8.2 -9.65 1.6 L-9.7 1.45 Q-11.45 -4.65 -13.55 -2.6 -14.4 -1.8 -15.25 0.2 -16.0 2.35 -16.75 3.55 -18.5 6.4 -19.95 3.45 -20.35 0.85 -21.3 0.55 L-21.5 -1.45 -21.35 -2.75 -20.45 -6.15 Q-19.35 -9.3 -17.15 -13.5 L-15.25 -13.75 -15.15 -13.3 -15.05 -12.65 Q-14.9 -11.3 -15.0 -9.7 L-15.4 -7.15 -15.95 -6.4 Q-16.55 -5.35 -16.5 -3.35 -16.15 -2.85 -17.5 1.0 -16.15 -0.35 -15.55 -2.75 L-15.45 -5.35 Q-15.3 -6.5 -14.9 -6.7 L-14.25 -9.7 -14.0 -12.65 -13.95 -13.05 -13.95 -13.1 -13.9 -13.3 Q-13.1 -17.4 -9.0 -15.2 -5.9 -13.0 -5.3 -14.1 L-5.2 -13.25 -5.1 -12.65 -4.75 -9.5 Q-3.9 -2.15 -3.65 2.75 -2.7 -4.75 -0.45 -6.4 L-1.75 -9.35 -2.65 -12.0 -2.85 -12.7 Q-3.5 -15.3 -3.55 -17.9 M24.6 -0.75 L24.9 0.15 25.0 0.55 Q24.7 0.25 24.6 -0.75 M25.0 0.85 L24.55 3.6 Q23.8 6.7 22.3 8.45 19.45 9.95 17.95 7.45 16.35 -0.9 15.7 1.15 15.0 6.1 13.95 9.3 13.05 12.0 11.8 13.45 5.3 16.45 3.6 6.35 1.9 -3.8 0.35 1.9 L-1.5 8.35 -2.55 11.25 Q-3.25 12.8 -5.65 13.45 -8.1 14.1 -12.6 3.7 L-12.95 2.9 Q-13.15 2.6 -13.6 2.7 -14.05 2.75 -15.1 5.0 -16.15 7.2 -17.15 8.1 L-18.45 8.9 Q-19.45 9.25 -20.0 8.5 -20.5 4.35 -21.8 4.3 -20.65 2.8 -20.1 4.95 -19.7 11.35 -16.2 6.65 -15.45 5.25 -14.95 3.25 -13.9 0.45 -12.3 4.1 -7.9 14.85 -4.4 12.3 -2.0 10.8 -1.45 5.5 0.25 -1.75 2.55 -0.15 3.35 0.55 4.4 6.35 6.35 17.1 12.15 11.55 13.5 9.2 14.6 2.3 15.75 -1.6 16.5 -0.6 17.15 0.6 18.0 5.15 19.5 11.05 22.0 7.6 23.4 4.95 25.0 0.85 M12.85 -0.85 Q12.95 -3.25 13.85 -4.15 L9.7 -9.6 12.85 -0.85 M17.6 -6.05 Q16.85 -8.2 17.75 -8.45 L15.55 -9.7 17.6 -6.05 M19.85 -1.65 L20.9 1.85 22.0 -0.55 21.3 0.0 20.3 -0.7 19.85 -1.65 M9.25 6.5 Q10.2 6.6 11.2 3.6 9.0 8.1 7.75 2.9 8.5 6.7 9.25 6.5 M-13.05 -9.85 Q-11.55 -10.5 -10.5 -9.65 -9.25 -8.75 -8.65 -5.85 -9.1 -8.5 -9.85 -9.65 -11.05 -11.6 -13.05 -9.85 M-18.45 -0.65 Q-18.75 -4.5 -20.05 -3.05 -19.25 -3.7 -18.45 -0.65 M-19.45 -4.5 Q-18.65 -5.15 -17.85 -2.1 -18.15 -5.95 -19.45 -4.5 M-14.15 -5.5 Q-10.2 -7.65 -9.35 -1.5 L-7.75 5.65 Q-6.6 8.65 -5.1 6.75 -6.8 6.8 -7.95 2.95 -8.65 0.55 -9.1 -3.25 -11.1 -8.35 -14.15 -5.5 M-18.95 0.7 Q-19.2 -3.15 -20.5 -1.7 -19.7 -2.3 -18.95 0.7" fill="#fffff3" fill-rule="evenodd" stroke="none"/>
      <path d="M-21.3 0.55 Q-20.35 0.85 -19.95 3.45 -18.5 6.4 -16.75 3.55 -16.0 2.35 -15.25 0.2 -14.4 -1.8 -13.55 -2.6 -11.45 -4.65 -9.7 1.45 L-9.65 1.6 Q-8.55 8.2 -6.1 8.5 -4.65 8.2 -3.6 5.95 -2.6 3.65 -2.0 -0.65 -0.45 -7.15 2.2 -5.6 5.0 -4.55 5.5 -0.55 L7.7 6.35 Q8.55 8.25 10.0 7.05 11.05 6.15 12.4 3.65 L13.5 0.4 13.8 -2.05 Q14.2 -3.6 14.75 -4.25 15.95 -5.9 17.6 -2.85 L17.7 -2.45 Q20.0 10.35 23.05 1.3 L23.5 -0.05 23.95 -1.75 24.4 -3.65 24.6 -0.75 Q24.7 0.25 25.0 0.55 L25.05 0.65 25.0 0.85 Q23.4 4.95 22.0 7.6 19.5 11.05 18.0 5.15 17.15 0.6 16.5 -0.6 15.75 -1.6 14.6 2.3 13.5 9.2 12.15 11.55 6.35 17.1 4.4 6.35 3.35 0.55 2.55 -0.15 0.25 -1.75 -1.45 5.5 -2.0 10.8 -4.4 12.3 -7.9 14.85 -12.3 4.1 -13.9 0.45 -14.95 3.25 -15.45 5.25 -16.2 6.65 -19.7 11.35 -20.1 4.95 -20.65 2.8 -21.8 4.3 L-22.2 4.85 Q-22.55 5.8 -23.75 6.4 L-23.85 6.45 -23.95 6.2 Q-24.6 4.55 -24.15 2.7 -23.85 1.55 -23.2 1.0 L-22.25 0.6 -21.3 0.55" fill="#000000" fill-rule="evenodd" stroke="none"/>
      <path d="M-3.55 -17.9 Q-3.5 -15.3 -2.85 -12.7 L-2.65 -12.0 -1.75 -9.35 -0.45 -6.4 Q-2.7 -4.75 -3.65 2.75 -3.9 -2.15 -4.75 -9.5 L-5.1 -12.65 -5.2 -13.25 -5.3 -14.1 -4.95 -15.75 Q-4.5 -17.45 -3.55 -17.9 M-13.9 -13.3 L-13.95 -13.1 -13.95 -13.05 -14.0 -12.65 -14.25 -9.7 -14.9 -6.7 Q-15.3 -6.5 -15.45 -5.35 L-15.55 -2.75 Q-16.15 -0.35 -17.5 1.0 -16.15 -2.85 -16.5 -3.35 -16.55 -5.35 -15.95 -6.4 L-15.4 -7.15 -15.0 -9.7 Q-14.9 -11.3 -15.05 -12.65 L-15.15 -13.3 -15.25 -13.75 -14.3 -13.3 -13.9 -13.3 M-17.15 -13.5 Q-19.35 -9.3 -20.45 -6.15 L-21.35 -2.75 -21.5 -1.45 -21.3 0.55 -22.25 0.6 -23.2 1.0 Q-23.85 1.55 -24.15 2.7 -24.6 4.55 -23.95 6.2 L-23.85 6.45 Q-24.6 6.0 -24.85 4.75 -25.2 3.25 -24.75 1.05 -24.4 -0.8 -20.95 -7.1 -17.65 -13.15 -17.15 -13.5 M22.3 8.45 L20.55 10.2 Q14.35 12.15 13.95 9.3 15.0 6.1 15.7 1.15 16.35 -0.9 17.95 7.45 19.45 9.95 22.3 8.45 M11.8 13.45 Q10.15 16.95 8.0 17.95 1.55 15.85 1.1 12.1 0.65 8.3 -1.4 14.75 -1.85 17.55 -3.5 17.75 -6.25 17.95 -8.2 15.95 L-9.4 14.4 -9.85 13.35 Q-11.95 8.95 -13.0 4.5 -11.35 15.15 -13.95 14.9 -15.4 14.7 -16.75 12.7 -17.9 11.0 -18.45 8.9 L-17.15 8.1 Q-16.15 7.2 -15.1 5.0 -14.05 2.75 -13.6 2.7 -13.15 2.6 -12.95 2.9 L-12.6 3.7 Q-8.1 14.1 -5.65 13.45 -3.25 12.8 -2.55 11.25 L-1.5 8.35 0.35 1.9 Q1.9 -3.8 3.6 6.35 5.3 16.45 11.8 13.45 M17.6 -6.05 L15.55 -9.7 17.75 -8.45 Q16.85 -8.2 17.6 -6.05 M12.85 -0.85 L9.7 -9.6 13.85 -4.15 Q12.95 -3.25 12.85 -0.85 M19.85 -1.65 L20.3 -0.7 21.3 0.0 22.0 -0.55 20.9 1.85 19.85 -1.65 M9.25 6.5 Q8.5 6.7 7.75 2.9 9.0 8.1 11.2 3.6 10.2 6.6 9.25 6.5 M-13.05 -9.85 Q-11.05 -11.6 -9.85 -9.65 -9.1 -8.5 -8.65 -5.85 -9.25 -8.75 -10.5 -9.65 -11.55 -10.5 -13.05 -9.85 M-14.15 -5.5 Q-11.1 -8.35 -9.1 -3.25 -8.65 0.55 -7.95 2.95 -6.8 6.8 -5.1 6.75 -6.6 8.65 -7.75 5.65 L-9.35 -1.5 Q-10.2 -7.65 -14.15 -5.5 M-19.45 -4.5 Q-18.15 -5.95 -17.85 -2.1 -18.65 -5.15 -19.45 -4.5 M-18.45 -0.65 Q-19.25 -3.7 -20.05 -3.05 -18.75 -4.5 -18.45 -0.65 M-18.95 0.7 Q-19.7 -2.3 -20.5 -1.7 -19.2 -3.15 -18.95 0.7" fill="#ffcfb7" fill-rule="evenodd" stroke="none"/>
      <path d="M20.55 10.2 Q16.6 13.4 11.8 13.45 13.05 12.0 13.95 9.3 14.35 12.15 20.55 10.2 M8.0 17.95 Q4.65 19.4 0.2 14.75 -0.6 13.9 -1.4 14.75 0.65 8.3 1.1 12.1 1.55 15.85 8.0 17.95 M-9.85 13.35 Q-11.7 15.4 -13.95 14.9 -11.35 15.15 -13.0 4.5 -11.95 8.95 -9.85 13.35" fill="#d3705a" fill-rule="evenodd" stroke="none"/>
      <path d="M-20.0 8.5 Q-22.35 6.65 -23.75 6.4 -22.55 5.8 -22.2 4.85 L-21.8 4.3 Q-20.5 4.35 -20.0 8.5" fill="#e49d87" fill-rule="evenodd" stroke="none"/>
    </g>
    <g id="shape2">
      <path d="M-8.2 -10.7 Q28.95 -15.2 23.7 1.15 1.8 14.4 -13.05 10.95 -32.05 2.55 -19.2 -6.0 L-8.2 -10.7" fill="#000000" fill-opacity="0.3019608" fill-rule="evenodd" stroke="none"/>
    </g>
    <g id="shape3">
      <path d="M-8.45 6.2 Q-11.9 4.2 -11.9 1.0 -11.9 -2.2 -8.45 -4.75 -4.95 -7.3 0.0 -7.7 4.95 -8.15 8.4 -6.15 11.9 -4.15 11.95 -0.9 11.9 2.3 8.4 4.85 4.95 7.4 0.0 7.8 -4.95 8.2 -8.45 6.2" fill="#000000" fill-opacity="0.3019608" fill-rule="evenodd" stroke="none"/>
    </g>
    <g id="sprite0">
      <use ffdec:characterId="8" height="81.2" transform="matrix(1.0, 0.0, 0.0, 1.0, 0.0, 0.0)" width="64.4" xlink:href="#morphshape0"/>
      <use ffdec:characterId="7" height="13.4" transform="matrix(-0.8349, 0.4315, 0.4315, 0.8349, -21.1, -44.9)" width="13.4" xlink:href="#sprite1"/>
      <use ffdec:characterId="7" height="13.4" transform="matrix(-0.8349, 0.4315, 0.4315, 0.8349, 33.1, -53.4)" width="13.4" xlink:href="#sprite1"/>
    </g>
    <g id="morphshape0">
      <path d="M-21.1 -44.85 Q1.7 -24.9 7.8 0.2 13.9 25.25 18.3 25.35 22.65 25.45 29.95 1.0 37.2 -23.5 33.05 -53.25" fill="none" stroke="#ff0000" stroke-linecap="round" stroke-linejoin="round" stroke-width="2.0"/>
    </g>
    <g id="sprite1">
      <use ffdec:characterId="6" height="13.4" transform="matrix(1.0, 0.0, 0.0, 1.0, 0.0, 0.0)" width="13.4" xlink:href="#shape4"/>
    </g>
    <g id="shape4">
      <path d="M4.75 -4.75 Q6.7 -2.8 6.7 0.0 6.7 2.8 4.75 4.75 2.8 6.7 0.0 6.7 -2.8 6.7 -4.75 4.75 -6.7 2.8 -6.7 0.0 -6.7 -2.8 -4.75 -4.75 -2.8 -6.7 0.0 -6.7 2.8 -6.7 4.75 -4.75" fill="url(#gradient0)" fill-rule="evenodd" stroke="none"/>
    </g>
    <radialGradient cx="0" cy="0" gradientTransform="matrix(0.0105, 0.0, 0.0, 0.0105, -1.1, -1.5)" gradientUnits="userSpaceOnUse" id="gradient0" r="819.2" spreadMethod="pad">
      <stop offset="0.0" stop-color="#fbf6e7"/>
      <stop offset="0.4588235294117647" stop-color="#ffa737"/>
      <stop offset="1.0" stop-color="#b54200"/>
    </radialGradient>
    <g id="shape5">
      <path d="M44.3 71.0 Q45.65 68.15 47.15 62.4 49.0 55.25 48.45 51.4 -5.3 74.35 -33.3 69.65 -28.4 76.9 -19.55 84.0 6.8 104.75 44.3 71.0 M39.7 28.75 L33.2 20.15 Q28.95 14.8 23.1 10.35 5.1 7.85 -10.0 8.6 -21.75 12.75 -37.9 42.45 -14.75 49.7 39.7 28.75 M7.35 -9.4 Q6.15 -11.5 -9.55 -42.5 -19.1 -52.25 -23.55 -38.5 L-26.1 -27.65 Q-27.95 -17.5 -25.85 -9.75 -13.45 -13.9 7.35 -9.4" fill="#ef0000" fill-rule="evenodd" stroke="none"/>
      <path d="M-31.15 -7.35 Q-28.95 -8.7 -25.85 -9.75 -27.95 -17.5 -26.1 -27.65 -28.85 -16.05 -31.15 -7.35 M-10.0 8.6 Q-27.75 9.5 -41.8 15.15 -49.25 26.35 -51.4 31.75 L-51.15 32.2 Q-47.1 39.5 -37.9 42.45 -21.75 12.75 -10.0 8.6 M-55.25 57.5 Q-56.0 63.3 -50.2 73.35 -44.45 83.35 -31.05 90.85 -17.7 98.3 -6.3 97.45 11.5 96.35 27.35 88.1 38.85 82.2 44.3 71.0 6.8 104.75 -19.55 84.0 -28.4 76.9 -33.3 69.65 -37.0 69.05 -45.25 64.45 -53.35 59.85 -55.25 57.5" fill="#970000" fill-rule="evenodd" stroke="none"/>
      <path d="M-31.15 -7.35 Q-35.35 3.65 -41.8 15.15 -27.75 9.5 -10.0 8.6 L-10.0 8.5 Q-22.65 2.05 -25.85 -9.75 -28.95 -8.7 -31.15 -7.35 M-51.7 32.5 Q-55.75 49.0 -55.25 57.5 -53.35 59.85 -45.25 64.45 -37.0 69.05 -33.3 69.65 -41.85 56.55 -37.9 42.45 -47.1 39.5 -51.15 32.2 L-51.7 32.5" fill="#000066" fill-rule="evenodd" stroke="none"/>
      <path d="M-25.85 -9.75 Q-22.65 2.05 -10.0 8.5 L-10.0 8.6 Q5.1 7.85 23.1 10.35 15.4 4.4 7.35 -9.4 -13.45 -13.9 -25.85 -9.75 M-51.4 31.75 L-51.7 32.5 -51.15 32.2 -51.4 31.75 M48.45 51.4 Q46.25 36.85 39.7 28.75 -14.75 49.7 -37.9 42.45 -41.85 56.55 -33.3 69.65 -5.3 74.35 48.45 51.4" fill="#0000db" fill-rule="evenodd" stroke="none"/>
      <path d="M11.9 10.6 Q32.6 28.85 34.3 50.3 35.45 64.65 29.4 73.9 63.3 42.2 21.0 11.4 3.75 -1.1 -0.9 -13.45 -0.85 -0.6 11.9 10.6" fill="#ffffff" fill-opacity="0.4117647" fill-rule="evenodd" stroke="none"/>
    </g>
    <g id="sprite2">
      <use ffdec:characterId="12" height="21.8" transform="matrix(1.0, 0.0, 0.0, 1.0, 0.0, 0.0)" width="21.85" xlink:href="#shape6"/>
    </g>
    <g id="shape6">
      <path d="M6.75 -8.5 Q10.3 -5.7 10.85 -1.25 11.35 3.2 8.55 6.75 5.75 10.3 1.25 10.8 -3.2 11.3 -6.7 8.55 -10.25 5.7 -10.8 1.25 -11.3 -3.2 -8.5 -6.75 -5.7 -10.3 -1.2 -10.8 3.2 -11.35 6.75 -8.5" fill="url(#gradient1)" fill-rule="evenodd" stroke="none"/>
    </g>
    <radialGradient cx="0" cy="0" gradientTransform="matrix(0.0187, 0.0, 0.0, 0.0187, -3.75, -2.45)" gradientUnits="userSpaceOnUse" id="gradient1" r="819.2" spreadMethod="pad">
      <stop offset="0.25098039215686274" stop-color="#ffffff"/>
      <stop offset="0.8549019607843137" stop-color="#8eb5f8"/>
      <stop offset="0.996078431372549" stop-color="#0859d4"/>
    </radialGradient>
    <g id="sprite3">
      <use ffdec:characterId="14" height="26.0" transform="matrix(1.0, 0.0, 0.0, 1.0, 0.0, 0.0)" width="250.65" xlink:href="#morphshape1"/>
    </g>
    <g id="morphshape1">
      <path d="M-142.75 -12.95 L0.75 -12.95 Q39.1 -16.45 44.65 -23.2 45.7 -29.2 77.85 -31.05 108.2 -32.55 107.9 -38.95 L22.85 -38.95 Q16.6 -32.95 -14.6 -33.1 -69.95 -31.05 -77.55 -23.2 -82.5 -16.65 -142.7 -12.95" fill="#240000" fill-opacity="0.3019608" fill-rule="evenodd" stroke="none"/>
      <path d="M-142.7 -12.95 Q-82.5 -16.65 -77.55 -23.2 -69.95 -31.05 -14.6 -33.1 16.6 -32.95 22.85 -38.95 L107.9 -38.95 Q108.2 -32.55 77.85 -31.05 45.7 -29.2 44.65 -23.2 39.1 -16.45 0.75 -12.95 L-142.75 -12.95" ffdec:has-small-stroke="true" ffdec:original-stroke-width="0.0" fill="none" stroke="#000000" stroke-linecap="round" stroke-linejoin="round" stroke-opacity="0.0" stroke-width="1.0"/>
    </g>
    <g id="shape7">
      <path d="M45.55 -115.45 Q39.05 -24.05 44.05 70.0 1.45 67.65 -41.05 70.95 -34.4 -16.55 -38.3 -114.75 -19.15 -112.6 45.55 -115.45" fill="#0000ab" fill-rule="evenodd" stroke="none"/>
      <path d="M-43.95 76.95 Q12.95 71.2 44.75 77.75 42.75 105.15 42.85 116.0 37.95 118.3 31.4 118.8 L42.9 118.8 Q42.2 127.35 44.2 133.8 L-44.75 133.8 Q-42.05 127.05 -43.75 120.35 -36.55 121.45 -33.55 120.35 L-43.45 118.55 Q-40.7 112.3 -44.3 105.0 L-17.2 104.75 -44.0 102.85 -43.95 76.95" fill="#edab3c" fill-rule="evenodd" stroke="none"/>
      <path d="M-43.95 76.95 L-44.0 102.85 -17.2 104.75 -44.3 105.0 Q-40.7 112.3 -43.45 118.55 L-33.55 120.35 Q-36.55 121.45 -43.75 120.35 -42.05 127.05 -44.75 133.8 L-46.25 133.55 Q-44.95 127.35 -44.75 120.35 -44.4 113.65 -45.05 103.3 -45.6 95.2 -45.45 76.95 L-43.95 76.95" fill="#d28a10" fill-rule="evenodd" stroke="none"/>
    </g>
    <g id="shape8">
      <path d="M5.85 -14.1 Q-19.5 -19.25 -38.35 -18.6 L-38.35 -20.3 Q7.75 -19.75 38.35 -15.15 L38.35 -11.85 Q24.6 -11.4 5.85 -14.1" fill="#d28a10" fill-opacity="0.4392157" fill-rule="evenodd" stroke="none"/>
    </g>
    <g id="shape9">
      <path d="M-2.65 -107.9 L-2.1 -107.9 Q1.25 -107.85 1.7 -105.3 9.55 8.8 3.4 104.05 2.95 107.0 -1.6 107.95 8.15 89.2 -2.65 -107.9" fill="#f7be66" fill-rule="evenodd" stroke="none"/>
      <path d="M-1.6 107.95 Q-6.5 107.4 -6.0 104.15 1.85 8.8 -6.0 -105.3 -5.5 -107.8 -2.65 -107.9 8.15 89.2 -1.6 107.95" fill="#d28a10" fill-rule="evenodd" stroke="none"/>
    </g>
    <g id="shape10">
      <path d="M2.7 -107.9 L2.55 -105.1 Q-8.05 89.35 1.65 107.95 -2.9 107.0 -3.35 104.05 -9.5 9.05 -1.7 -104.7 L-1.65 -105.3 Q-1.35 -107.0 2.7 -107.9" fill="#d28a10" fill-rule="evenodd" stroke="none"/>
      <path d="M1.65 107.95 Q-8.05 89.35 2.55 -105.1 L2.7 -107.9 Q5.5 -107.8 6.05 -105.35 L6.05 -105.3 Q-1.8 8.8 6.05 104.15 6.55 107.4 1.65 107.95" fill="#f7be66" fill-rule="evenodd" stroke="none"/>
    </g>
    <g id="shape11">
      <path d="M2.45 -4.15 Q3.8 0.05 2.55 4.0 L-0.35 4.1 Q0.8 2.1 0.2 -4.15 L2.45 -4.15" fill="#000000" fill-opacity="0.3019608" fill-rule="evenodd" stroke="none"/>
    </g>
    <g id="shape12">
      <path d="M-4.5 -7.25 Q-0.3 -2.9 5.3 5.1 5.35 6.8 3.85 6.3 -1.05 -1.1 -5.95 -5.8 -6.65 -7.95 -4.5 -7.25" fill="#391000" fill-rule="evenodd" stroke="none"/>
    </g>
    <g id="shape13">
      <path d="M29.7 29.35 Q-1.25 24.3 -35.55 21.85 -29.85 -2.1 -29.75 -29.3 L35.55 -21.45 Q30.2 4.2 29.7 29.35" fill="#fffbf0" fill-rule="evenodd" stroke="none"/>
    </g>
    <g id="shape14">
      <path d="M-12.05 -12.6 L-21.05 -30.05 21.1 -56.0 21.1 53.8 -5.6 56.05 -5.6 -15.95 -12.05 -12.6" fill="#e30000" fill-rule="evenodd" stroke="none"/>
    </g>
    <g id="shape15">
      <path d="M0.35 -49.55 Q18.75 -49.45 27.5 -35.6 36.3 -21.6 36.45 2.35 L36.45 3.8 Q36.4 10.9 34.45 18.65 32.25 27.2 27.6 34.0 23.05 40.95 15.95 45.25 8.8 49.4 -0.1 49.55 -11.65 49.5 -20.0 42.9 -28.2 36.3 -32.25 25.5 -36.2 14.7 -36.4 1.85 L-36.2 0.35 Q-35.85 -21.5 -26.75 -35.6 -17.7 -49.6 0.1 -49.55 L0.35 -49.55 M9.8 -19.5 Q6.85 -27.75 -0.1 -27.75 -7.5 -27.75 -10.15 -19.25 -12.75 -11.45 -12.75 -1.1 L-12.75 0.6 Q-12.75 27.6 -0.1 27.85 L0.1 27.85 Q12.75 27.85 12.75 -0.35 12.75 -11.15 9.8 -19.5" fill="#d70000" fill-rule="evenodd" stroke="none"/>
    </g>
    <g id="sprite4">
      <use ffdec:characterId="27" height="5.7" transform="matrix(1.0, 0.0, 0.0, 1.0, 0.0, 0.0)" width="5.8" xlink:href="#shape16"/>
    </g>
    <g id="shape16">
      <path d="M0.0 -2.3 Q-0.45 -2.25 -0.7 -1.9 L-0.9 -1.1 Q-0.85 -0.65 -0.45 -0.35 -0.1 -0.05 0.35 -0.1 0.8 -0.15 1.05 -0.45 1.35 -0.85 1.3 -1.3 L0.85 -2.05 0.0 -2.3 M1.65 -2.2 Q2.65 -1.45 2.85 -0.25 3.0 0.95 2.3 1.85 1.6 2.75 0.45 2.85 -0.75 2.95 -1.7 2.25 -2.7 1.45 -2.85 0.25 -3.05 -0.95 -2.3 -1.85 -1.65 -2.75 -0.45 -2.85 0.7 -2.95 1.65 -2.2" fill="#000000" fill-rule="evenodd" stroke="none"/>
      <path d="M0.0 -2.3 L0.85 -2.05 1.3 -1.3 Q1.35 -0.85 1.05 -0.45 0.8 -0.15 0.35 -0.1 -0.1 -0.05 -0.45 -0.35 -0.85 -0.65 -0.9 -1.1 L-0.7 -1.9 Q-0.45 -2.25 0.0 -2.3" fill="#ffffff" fill-rule="evenodd" stroke="none"/>
    </g>
    <g id="shape17">
      <path d="M9.7 0.5 Q9.65 4.55 6.85 7.4 4.0 10.2 -0.05 10.3 -4.15 10.2 -6.95 7.4 -9.8 4.55 -9.8 0.5 -9.8 -3.6 -6.95 -6.4 -4.15 -9.25 -0.05 -9.25 4.0 -9.25 6.85 -6.4 9.65 -3.6 9.7 0.5" fill="url(#gradient2)" fill-rule="evenodd" stroke="none"/>
      <path d="M6.85 -6.25 Q9.7 -3.4 9.7 0.65 9.7 4.65 6.85 7.5 4.0 10.35 0.0 10.35 -4.0 10.35 -6.9 7.5 -9.75 4.65 -9.7 0.65 -9.75 -3.4 -6.9 -6.25 -4.0 -9.1 0.0 -9.1 4.0 -9.1 6.85 -6.25" fill="url(#gradient3)" fill-rule="evenodd" stroke="none"/>
    </g>
    <radialGradient cx="0" cy="0" gradientTransform="matrix(0.0126, 0.0, 0.0, 0.0126, 0.3, 0.15)" gradientUnits="userSpaceOnUse" id="gradient2" r="819.2" spreadMethod="pad">
      <stop offset="0.0" stop-color="#ffffff"/>
      <stop offset="1.0" stop-color="#999999"/>
    </radialGradient>
    <linearGradient gradientTransform="matrix(0.0, -0.01, 0.0119, 0.0, -0.05, 0.6)" gradientUnits="userSpaceOnUse" id="gradient3" spreadMethod="pad" x1="-819.2" x2="819.2">
      <stop offset="0.01568627450980392" stop-color="#ffffff" stop-opacity="0.84313726"/>
      <stop offset="0.2549019607843137" stop-color="#aecbf8" stop-opacity="0.6901961"/>
      <stop offset="0.7372549019607844" stop-color="#8eb5f8" stop-opacity="0.0"/>
    </linearGradient>
    <g id="shape18">
      <path d="M-12.5 0.8 Q-11.5 -2.45 -7.7 -2.95 -3.7 -3.05 -2.6 1.3 -0.4 9.15 4.3 8.45 6.6 8.2 8.1 7.15 6.5 8.8 3.5 9.15 -1.25 9.85 -3.4 2.0 -4.55 -2.4 -8.55 -2.25 -11.55 -1.8 -12.5 0.8 M-23.65 -5.45 Q-25.25 -3.9 -25.35 -1.9 -26.65 11.35 -17.7 10.65 -16.4 10.55 -15.35 9.85 -16.65 11.2 -18.5 11.3 -27.45 12.05 -26.15 -1.2 -26.0 -3.7 -23.65 -5.45" fill="#9f9f9f" fill-rule="evenodd" stroke="none"/>
      <path d="M8.05 -8.8 L9.2 -7.85 Q9.95 -7.05 10.55 -5.4 11.8 -1.9 11.7 3.35 L11.75 3.35 11.2 6.15 Q10.45 8.3 8.15 9.8 6.4 10.95 2.45 11.05 -2.05 11.05 -4.15 4.4 -5.35 -0.4 -8.3 -0.1 -11.25 0.2 -11.55 5.15 -12.5 12.1 -16.95 12.75 -29.2 15.7 -27.75 -1.35 -27.6 -3.2 -24.8 -6.4 -20.55 -9.7 -10.0 -10.7 2.0 -11.9 6.8 -9.55 L8.05 -8.8 M21.3 6.45 Q15.75 6.8 15.35 0.55 L16.5 -1.4 16.45 -4.1 Q19.65 0.05 25.6 1.45 L21.3 6.45 M15.05 -6.75 L15.3 -5.8 Q15.8 -3.5 15.7 -1.1 L15.4 -0.65 15.2 -0.4 14.8 0.15 13.85 1.15 Q13.95 -1.9 13.15 -5.0 L14.2 -5.75 14.5 -6.0 14.9 -6.55 15.05 -6.75 M-12.5 0.8 Q-11.55 -1.8 -8.55 -2.25 -4.55 -2.4 -3.4 2.0 -1.25 9.85 3.5 9.15 6.5 8.8 8.1 7.15 11.25 3.85 8.85 -4.65 7.2 -11.05 -8.65 -9.5 L-9.8 -9.4 Q-19.75 -8.4 -23.65 -5.45 -26.0 -3.7 -26.15 -1.2 -27.45 12.05 -18.5 11.3 -16.65 11.2 -15.35 9.85 -13.45 7.8 -12.95 2.9 -12.9 1.7 -12.5 0.8" fill="#333333" fill-rule="evenodd" stroke="none"/>
      <path d="M6.8 -9.55 Q2.0 -11.9 -10.0 -10.7 -20.55 -9.7 -24.8 -6.4 -22.2 -8.55 -19.05 -9.9 -14.65 -11.9 -6.75 -12.7 4.9 -13.85 9.7 -11.7 L6.8 -9.55" fill="#ffb871" fill-rule="evenodd" stroke="none"/>
      <path d="M8.05 -8.8 L6.8 -9.55 9.7 -11.7 11.05 -11.0 8.05 -8.8" fill="#ffa851" fill-rule="evenodd" stroke="none"/>
      <path d="M9.2 -7.85 L8.05 -8.8 11.05 -11.0 12.2 -10.05 9.2 -7.85" fill="#ff9933" fill-rule="evenodd" stroke="none"/>
      <path d="M11.2 6.15 L11.75 3.35 12.85 3.35 14.65 1.4 Q14.45 2.95 13.9 4.25 L11.2 6.15" fill="#f27900" fill-rule="evenodd" stroke="none"/>
      <path d="M10.55 -5.4 Q9.95 -7.05 9.2 -7.85 L12.2 -10.05 Q13.1 -9.15 13.6 -7.95 12.3 -6.5 10.55 -5.4" fill="#ff8d1c" fill-rule="evenodd" stroke="none"/>
      <path d="M8.15 9.8 Q10.45 8.3 11.2 6.15 L13.9 4.25 Q12.35 7.95 8.15 9.8" fill="#df7000" fill-rule="evenodd" stroke="none"/>
      <path d="M16.1 -6.4 Q19.4 -0.7 27.35 1.25 L23.1 6.2 21.3 6.45 25.6 1.45 Q19.65 0.05 16.45 -4.1 L16.1 -6.4" fill="#666666" fill-rule="evenodd" stroke="none"/>
      <path d="M13.6 -7.95 L14.0 -8.5 15.45 -8.75 15.45 -8.7 Q13.3 -6.0 11.95 -5.25 L10.55 -5.4 Q12.3 -6.5 13.6 -7.95" fill="#ffff99" fill-rule="evenodd" stroke="none"/>
      <path d="M11.75 3.35 L11.7 3.35 Q11.8 -1.9 10.55 -5.4 L11.95 -5.25 Q13.4 -1.0 12.85 3.35 L11.75 3.35" fill="#cc9900" fill-rule="evenodd" stroke="none"/>
      <path d="M11.95 -5.25 Q13.3 -6.0 15.45 -8.7 L16.1 -6.4 16.45 -4.1 16.5 -1.4 15.35 0.55 14.65 1.4 12.85 3.35 Q13.4 -1.0 11.95 -5.25 M15.05 -6.75 L14.9 -6.55 14.5 -6.0 14.2 -5.75 13.15 -5.0 Q13.95 -1.9 13.85 1.15 L14.8 0.15 15.2 -0.4 15.4 -0.65 15.7 -1.1 Q15.8 -3.5 15.3 -5.8 L15.05 -6.75" fill="#ffcc00" fill-rule="evenodd" stroke="none"/>
    </g>
    <g id="shape19">
      <path d="M-0.05 -4.8 Q0.7 -4.85 0.75 -4.25 0.2 1.05 2.75 4.1 L0.3 3.85 -0.15 3.9 -3.25 4.3 Q0.3 0.5 -0.5 -4.2 L-0.55 -4.45 -0.05 -4.8" fill="#fbc115" fill-rule="evenodd" stroke="none"/>
      <path d="M-0.05 -4.8 L0.4 -4.85 Q1.4 -4.9 1.4 -4.2 1.05 1.5 4.65 4.7 L3.75 4.35 2.75 4.1 Q0.2 1.05 0.75 -4.25 0.7 -4.85 -0.05 -4.8" fill="#e98c01" fill-rule="evenodd" stroke="none"/>
      <path d="M-3.25 4.3 L-4.7 4.8 Q-0.25 0.45 -0.6 -4.2 L-0.55 -4.45 -0.5 -4.2 Q0.3 0.5 -3.25 4.3" fill="#ffffff" fill-rule="evenodd" stroke="none"/>
    </g>
    <g id="shape20">
      <path d="M0.6 -4.7 Q2.95 -4.55 4.65 -3.45 L5.25 -3.0 Q7.1 -1.45 6.85 0.55 6.55 2.55 4.35 3.9 L2.55 4.7 -0.7 5.05 Q-3.55 4.9 -5.4 3.4 -7.2 1.85 -6.95 -0.2 -6.7 -2.2 -4.5 -3.5 -2.3 -4.85 0.6 -4.7" fill="url(#gradient4)" fill-rule="evenodd" stroke="none"/>
      <path d="M5.4 -5.3 L5.9 -5.05 5.4 -5.3" fill="#ffc357" fill-rule="evenodd" stroke="none"/>
      <path d="M0.6 -4.7 Q-2.3 -4.85 -4.5 -3.5 -6.7 -2.2 -6.95 -0.2 -7.2 1.85 -5.4 3.4 -3.55 4.9 -0.7 5.05 L2.55 4.7 4.35 3.9 Q6.55 2.55 6.85 0.55 7.1 -1.45 5.25 -3.0 L4.65 -3.45 Q2.95 -4.55 0.6 -4.7 M5.9 -5.05 Q6.95 -4.5 7.9 -3.4 L8.55 -2.5 9.0 -1.55 9.2 0.1 9.15 0.5 Q8.75 3.15 5.85 4.95 3.1 6.55 -0.4 6.5 L-0.85 6.45 -0.9 6.45 Q-4.05 6.1 -6.25 4.4 -8.75 2.35 -8.5 -0.25 -8.25 -2.9 -5.4 -4.6 -2.9 -6.15 0.3 -6.2 L1.3 -6.15 Q3.55 -6.05 5.4 -5.3 L5.9 -5.05" fill="#fbc115" fill-rule="evenodd" stroke="none"/>
      <path d="M-0.9 6.45 Q-4.7 6.3 -7.15 4.25 -9.6 2.2 -9.2 -0.45 -8.9 -3.15 -5.95 -4.9 -3.4 -6.45 -0.2 -6.5 L1.85 -6.4 Q3.8 -6.15 5.4 -5.3 3.55 -6.05 1.3 -6.15 L0.3 -6.2 Q-2.9 -6.15 -5.4 -4.6 -8.25 -2.9 -8.5 -0.25 -8.75 2.35 -6.25 4.4 -4.05 6.1 -0.9 6.45" fill="#ffffff" fill-rule="evenodd" stroke="none"/>
    </g>
    <radialGradient cx="0" cy="0" gradientTransform="matrix(-3.0E-4, 0.0104, 0.0158, 5.0E-4, 0.65, -4.15)" gradientUnits="userSpaceOnUse" id="gradient4" r="819.2" spreadMethod="pad">
      <stop offset="0.0" stop-color="#000000"/>
      <stop offset="0.5254901960784314" stop-color="#ab280e"/>
      <stop offset="1.0" stop-color="#ff871b"/>
    </radialGradient>
    <g id="shape21">
      <path d="M1.4 -10.35 L2.9 -9.3 Q1.75 0.55 5.75 11.05 L-9.35 11.05 Q-2.55 1.05 -4.1 -9.5 L-1.9 -10.75 Q-1.2 -11.1 0.2 -10.75 L1.4 -10.35" fill="url(#gradient5)" fill-rule="evenodd" stroke="none"/>
    </g>
    <linearGradient gradientTransform="matrix(0.0, 0.0085, -0.0094, -1.0E-4, 0.2, -1.0)" gradientUnits="userSpaceOnUse" id="gradient5" spreadMethod="pad" x1="-819.2" x2="819.2">
      <stop offset="0.0" stop-color="#ff0000"/>
      <stop offset="1.0" stop-color="#ef0000" stop-opacity="0.0"/>
    </linearGradient>
    <g id="shape22">
      <path d="M-108.85 27.05 L-108.85 26.6" ffdec:has-small-stroke="true" ffdec:original-stroke-width="0.25" fill="none" stroke="#aecbf8" stroke-linecap="round" stroke-linejoin="round" stroke-width="1.0"/>
    </g>
    <g id="shape23">
      <path d="M-2.75 3.65 L-2.8 3.75 -2.75 3.65" fill="#d07fff" fill-rule="evenodd" stroke="none"/>
      <path d="M-0.65 -43.5 Q2.35 -45.5 4.8 -50.35 L4.8 -50.3 Q4.6 -41.2 -0.4 -35.7 -2.4 -39.05 -0.65 -43.5 M-1.4 -31.7 L4.2 -40.3 Q3.8 -31.1 -0.95 -25.7 -1.55 -29.85 -1.4 -31.7 M-1.95 -21.65 Q1.5 -25.3 3.65 -30.3 3.25 -20.65 -1.6 -16.05 -2.3 -18.45 -1.95 -21.65 M-2.45 -12.4 L3.15 -21.05 Q2.4 -11.85 -1.95 -6.4 -2.8 -8.9 -2.45 -12.4 M-3.0 -2.4 Q0.45 -5.3 2.6 -11.0 1.9 -1.4 -2.75 3.65 -4.0 1.65 -3.0 -2.4 M-3.75 7.75 Q-0.8 4.45 1.85 -0.85 L1.85 -0.8 Q1.05 9.35 -3.25 13.75 L-3.6 12.6 Q-3.95 10.85 -3.85 9.05 L-3.85 8.5 -3.75 7.75 M-4.3 17.8 Q-1.3 14.35 1.3 9.15 -0.05 19.85 -3.85 23.65 -4.5 20.25 -4.3 17.8 M-4.3 26.85 Q-1.3 23.75 1.35 18.2 0.3 29.15 -3.85 32.85 -5.45 28.7 -4.3 26.85 M-4.85 36.85 L0.8 28.25 Q-0.55 38.65 -4.4 42.85 -5.65 38.95 -4.85 36.85 M-5.0 44.6 Q-1.8 43.7 0.2 38.25 -1.1 48.55 -5.0 52.5 -6.75 50.1 -5.0 44.6 M-5.9 56.15 Q-2.4 53.1 -0.3 47.5 -0.6 57.9 -6.05 64.25 -3.2 63.7 -0.85 57.55 -0.2 65.1 -6.4 68.95 L-6.45 68.8 Q-7.45 67.9 -6.05 64.25 -7.55 59.65 -5.9 56.15 M-0.85 -50.8 Q1.65 -56.95 4.75 -59.4 4.75 -50.8 -0.4 -44.9 -1.05 -48.3 -0.85 -50.8" fill="#ffff00" fill-rule="evenodd" stroke="none"/>
      <path d="M-0.65 -43.5 L-0.4 -44.9 Q4.75 -50.8 4.75 -59.4 1.65 -56.95 -0.85 -50.8 -0.25 -58.6 6.85 -62.35 6.6 -57.4 5.9 -55.0 7.3 -49.5 5.5 -44.9 L5.65 -41.0 Q5.65 -36.8 4.95 -34.8 6.15 -29.5 4.45 -25.05 5.6 -20.0 3.9 -15.55 4.65 -12.0 3.0 -5.1 3.0 -2.95 2.65 -1.3 3.6 1.8 2.5 4.7 L3.1 8.45 3.1 9.05 Q3.1 11.4 2.45 13.55 3.85 19.05 2.05 23.65 L2.2 27.55 Q2.2 31.75 1.5 33.75 2.7 39.05 1.0 43.5 2.15 48.55 0.45 53.0 0.6 71.55 -6.4 69.0 L-6.45 69.0 -6.4 68.95 Q-0.2 65.1 -0.85 57.55 -3.2 63.7 -6.05 64.25 -0.6 57.9 -0.3 47.5 -2.4 53.1 -5.9 56.15 -5.65 54.35 -5.0 52.5 -1.1 48.55 0.2 38.25 -1.8 43.7 -5.0 44.6 L-4.4 42.85 Q-0.55 38.65 0.8 28.25 L-4.85 36.85 Q-4.6 34.9 -3.85 32.85 0.3 29.15 1.35 18.2 -1.3 23.75 -4.3 26.85 L-3.85 23.65 Q-0.05 19.85 1.3 9.15 -1.3 14.35 -4.3 17.8 -4.05 15.8 -3.25 13.75 1.05 9.35 1.85 -0.8 L1.85 -0.85 Q-0.8 4.45 -3.75 7.75 L-2.8 3.75 -2.75 3.65 Q1.9 -1.4 2.6 -11.0 0.45 -5.3 -3.0 -2.4 -2.75 -4.35 -1.95 -6.4 2.4 -11.85 3.15 -21.05 L-2.45 -12.4 -1.6 -16.05 Q3.25 -20.65 3.65 -30.3 1.5 -25.3 -1.95 -21.65 -1.7 -23.65 -0.95 -25.7 3.8 -31.1 4.2 -40.3 L-1.4 -31.7 Q-1.15 -33.65 -0.4 -35.7 4.6 -41.2 4.8 -50.3 L4.8 -50.35 Q2.35 -45.5 -0.65 -43.5" fill="#ff871b" fill-rule="evenodd" stroke="none"/>
    </g>
    <g id="shape24">
      <path d="M-5.0 -6.55 Q0.05 -0.25 8.15 -2.5 4.05 -4.45 3.1 -7.5 L5.25 -7.25 Q9.65 -1.5 16.6 -4.0 13.35 -5.75 12.05 -8.25 L14.05 -8.05 Q20.15 -2.55 25.85 -4.5 23.0 -5.9 22.4 -8.9 L23.9 -9.0 Q26.4 -3.05 35.8 -6.0 33.1 -7.35 31.65 -10.3 L32.95 -10.35 Q37.5 -4.75 44.75 -7.5 L40.5 -11.95 42.7 -11.7 Q48.15 -6.5 53.05 -7.9 L47.8 -12.65 50.05 -12.35 Q55.6 -6.2 61.65 -7.95 58.15 -9.85 56.1 -13.05 L57.7 -13.3 Q59.7 -10.2 63.45 -7.55 L62.8 -6.45 54.6 -6.85 Q51.85 -5.1 45.85 -6.25 44.9 -4.4 37.75 -5.35 36.7 -4.55 33.35 -4.15 L29.75 -3.8 Q27.05 -2.2 17.8 -2.25 16.05 -0.6 8.95 -1.25 5.25 1.0 -1.1 -0.8 -6.75 1.7 -12.8 -0.35 -17.4 2.15 -23.3 -0.3 -27.4 1.9 -33.15 -0.75 -35.1 1.25 -42.4 -1.6 -45.25 0.5 -51.3 -2.7 -52.15 -0.6 -58.2 -4.2 -59.85 -1.3 -64.0 -2.8 -62.75 1.2 -67.4 4.9 -67.3 6.9 -69.05 10.15 -70.95 13.7 -72.75 13.75 -68.5 6.25 -73.3 3.65 -72.5 2.75 -72.6 1.5 -67.25 5.6 -65.6 -2.95 -67.9 -3.7 -69.2 -5.75 -68.3 -6.05 -68.25 -6.65 -66.8 -4.75 -64.95 -4.35 -60.1 -3.5 -59.2 -5.3 L-60.25 -10.35 -58.65 -10.55 Q-58.35 -3.95 -51.95 -4.35 -53.95 -6.75 -54.1 -10.25 -53.1 -10.05 -53.15 -9.9 -52.35 -3.4 -43.15 -2.75 -45.65 -5.45 -46.4 -8.15 L-44.5 -7.4 Q-41.4 -1.5 -34.2 -1.8 -36.9 -4.05 -37.75 -6.85 L-35.8 -6.35 Q-33.55 -0.3 -24.8 -1.5 -27.55 -3.85 -28.8 -6.4 L-27.15 -6.0 Q-24.4 -0.3 -14.4 -1.5 -17.7 -3.65 -19.15 -6.35 L-17.3 -6.05 Q-12.0 0.05 -2.25 -1.65 -6.1 -3.95 -7.75 -6.8 L-5.0 -6.55" fill="#fe9a03" fill-rule="evenodd" stroke="none"/>
      <path d="M3.1 -7.5 Q4.05 -4.45 8.15 -2.5 0.05 -0.25 -5.0 -6.55 -1.7 -8.75 3.1 -7.5 M-7.75 -6.8 Q-6.1 -3.95 -2.25 -1.65 -12.0 0.05 -17.3 -6.05 -13.15 -7.95 -7.75 -6.8 M-19.15 -6.35 Q-17.7 -3.65 -14.4 -1.5 -24.4 -0.3 -27.15 -6.0 L-19.15 -6.35 M-28.8 -6.4 Q-27.55 -3.85 -24.8 -1.5 -33.55 -0.3 -35.8 -6.35 -32.65 -7.15 -28.8 -6.4 M-37.75 -6.85 Q-36.9 -4.05 -34.2 -1.8 -41.4 -1.5 -44.5 -7.4 -41.35 -8.45 -37.75 -6.85 M-46.4 -8.15 Q-45.65 -5.45 -43.15 -2.75 -52.35 -3.4 -53.15 -9.9 -49.2 -10.65 -46.4 -8.15 M-54.1 -10.25 Q-53.95 -6.75 -51.95 -4.35 -58.35 -3.95 -58.65 -10.55 -55.25 -11.45 -54.1 -10.25 M-60.25 -10.35 L-59.2 -5.3 Q-60.1 -3.5 -64.95 -4.35 -66.8 -4.75 -68.25 -6.65 -64.95 -10.7 -60.25 -10.35 M-69.2 -5.75 Q-67.9 -3.7 -65.6 -2.95 -67.25 5.6 -72.6 1.5 -72.35 -3.8 -69.2 -5.75 M-73.3 3.65 Q-68.5 6.25 -72.75 13.75 -75.5 10.3 -73.3 3.65 M63.45 -7.55 Q59.7 -10.2 57.7 -13.3 61.7 -13.95 66.5 -12.6 L63.45 -7.55 M56.1 -13.05 Q58.15 -9.85 61.65 -7.95 55.6 -6.2 50.05 -12.35 51.85 -13.65 56.1 -13.05 M47.8 -12.65 L53.05 -7.9 Q48.15 -6.5 42.7 -11.7 44.5 -12.95 47.8 -12.65 M40.5 -11.95 L44.75 -7.5 Q37.5 -4.75 32.95 -10.35 L33.95 -10.3 32.9 -10.4 Q36.45 -12.05 40.5 -11.95 M31.65 -10.3 Q33.1 -7.35 35.8 -6.0 26.4 -3.05 23.9 -9.0 25.85 -11.65 31.65 -10.3 M22.4 -8.9 Q23.0 -5.9 25.85 -4.5 20.15 -2.55 14.05 -8.05 17.15 -10.05 22.4 -8.9 M12.05 -8.25 Q13.35 -5.75 16.6 -4.0 9.65 -1.5 5.25 -7.25 7.75 -9.5 12.05 -8.25" fill="#ffff00" fill-rule="evenodd" stroke="none"/>
    </g>
    <g id="shape25">
      <path d="M-44.0 -93.1 L-42.4 -95.4 Q-40.85 -91.35 -42.2 -85.2 -40.75 -81.85 -41.65 -76.05 L-41.2 -74.75 Q-40.35 -71.8 -40.8 -66.5 -39.2 -63.45 -39.75 -58.65 -38.2 -55.6 -38.05 -49.25 -35.8 -46.8 -35.95 -40.55 -34.1 -38.25 -33.8 -35.5 L-33.25 -31.8 Q-31.3 -29.4 -30.65 -22.8 -28.8 -19.95 -28.3 -13.5 -26.55 -10.7 -26.35 -4.25 -25.6 -2.7 -25.15 -0.85 -24.25 2.6 -24.35 6.95 -22.7 11.2 -22.85 18.4 -21.45 22.2 -21.95 28.15 -21.45 29.6 -21.05 31.4 L-20.55 34.55 Q-20.4 35.85 -21.1 37.95 L-21.85 40.25 Q-19.35 42.9 -20.35 46.15 -18.5 45.75 -14.0 47.55 L-11.25 48.75 Q-8.2 47.75 -5.95 48.0 L-3.45 48.35 -0.15 49.3 Q5.3 47.25 10.2 51.25 16.4 49.15 21.2 52.5 L21.35 52.6 Q26.7 50.75 32.2 53.25 37.55 51.4 43.2 53.35 48.45 51.4 53.4 53.15 55.6 52.5 58.7 52.1 61.8 51.65 64.6 53.0 71.05 53.1 72.1 59.6 74.0 61.45 71.6 66.15 72.9 62.65 70.8 61.0 68.0 60.15 65.2 64.3 65.2 63.5 65.45 62.8 68.55 58.45 65.0 54.15 64.3 57.05 61.6 59.35 L61.15 58.45 61.2 58.45 Q62.85 56.95 62.6 55.25 55.8 53.3 51.55 60.05 L50.35 59.85 Q52.45 57.45 52.4 55.1 44.7 53.45 40.35 60.75 L38.55 60.3 Q41.65 57.65 41.95 54.45 34.85 54.0 28.9 60.65 L26.55 60.05 Q29.5 57.45 30.35 54.35 23.05 52.25 16.9 59.55 L15.5 58.95 15.6 58.85 Q17.8 56.3 19.0 53.45 12.7 51.0 6.4 58.05 L5.6 57.3 5.6 57.2 Q9.15 54.75 8.35 51.8 2.45 48.95 -2.9 55.55 L-4.55 55.2 Q-1.95 53.3 -1.75 50.35 -11.8 49.2 -12.75 55.6 L-14.0 55.4 -15.0 55.2 Q-11.65 52.95 -12.3 50.5 -18.2 46.7 -22.55 53.15 -23.65 53.2 -23.9 51.95 -20.65 46.95 -23.45 42.75 -26.0 44.3 -28.55 44.4 L-28.7 42.9 Q-22.35 39.95 -23.15 31.35 -24.65 34.8 -27.7 35.55 L-27.45 33.55 Q-23.15 29.65 -24.05 22.0 -25.15 25.2 -28.35 26.6 L-28.2 24.9 Q-24.7 19.7 -25.35 11.7 -26.5 15.35 -29.6 17.0 L-29.5 15.15 Q-26.25 8.4 -27.05 -0.35 -28.45 3.5 -31.45 5.75 L-31.55 3.0 Q-27.15 -1.6 -29.25 -10.55 -30.7 -7.05 -33.55 -4.9 L-33.55 -7.05 Q-29.8 -11.9 -31.8 -18.75 L-35.4 -13.7 -35.65 -16.6 Q-32.25 -20.9 -33.45 -27.9 -34.85 -24.8 -37.55 -23.1 L-37.65 -25.35 Q-33.7 -29.45 -36.2 -37.55 -36.65 -33.7 -39.85 -31.75 L-40.25 -35.15 Q-36.65 -38.05 -38.85 -46.25 -39.75 -43.0 -42.7 -41.45 L-42.75 -43.65 Q-39.4 -46.4 -40.3 -54.45 L-44.35 -48.6 -44.3 -50.85 Q-40.2 -54.7 -42.15 -62.95 -42.95 -59.4 -45.8 -56.8 L-45.75 -59.05 -45.8 -59.55 Q-42.05 -63.1 -42.6 -72.8 -43.15 -69.1 -47.0 -65.35 L-46.85 -69.7 Q-43.2 -73.0 -43.3 -83.05 -45.35 -78.95 -47.85 -76.0 L-47.6 -79.15 Q-44.2 -83.65 -44.0 -93.1" fill="#ff871b" fill-rule="evenodd" stroke="none"/>
      <path d="M-44.0 -93.1 Q-44.2 -83.65 -47.6 -79.15 -51.55 -86.0 -44.0 -93.1 M-47.85 -76.0 Q-45.35 -78.95 -43.3 -83.05 -43.2 -73.0 -46.85 -69.7 -47.9 -71.25 -47.9 -74.75 L-47.85 -76.0 M-47.0 -65.35 Q-43.15 -69.1 -42.6 -72.8 -42.05 -63.1 -45.8 -59.55 L-45.85 -59.5 Q-46.85 -61.9 -47.0 -65.35 M-45.8 -56.8 Q-42.95 -59.4 -42.15 -62.95 -40.2 -54.7 -44.3 -50.85 -45.85 -52.5 -45.8 -56.8 M-44.35 -48.6 L-40.3 -54.45 Q-39.4 -46.4 -42.75 -43.65 -44.2 -45.35 -44.35 -48.6 M-42.7 -41.45 Q-39.75 -43.0 -38.85 -46.25 -36.65 -38.05 -40.25 -35.15 -42.3 -37.45 -42.7 -41.45 M-39.85 -31.75 Q-36.65 -33.7 -36.2 -37.55 -33.7 -29.45 -37.65 -25.35 -39.2 -27.65 -39.85 -31.75 M-37.55 -23.1 Q-34.85 -24.8 -33.45 -27.9 -32.25 -20.9 -35.65 -16.6 -37.25 -18.9 -37.55 -23.1 M-35.4 -13.7 L-31.8 -18.75 Q-29.8 -11.9 -33.55 -7.05 -34.9 -9.7 -35.4 -13.7 M-33.55 -4.9 Q-30.7 -7.05 -29.25 -10.55 -27.15 -1.6 -31.55 3.0 -32.7 0.7 -33.2 -1.9 L-33.55 -4.9 M-31.45 5.75 Q-28.45 3.5 -27.05 -0.35 -26.25 8.4 -29.5 15.15 -31.05 10.7 -31.45 5.75 M-29.6 17.0 Q-26.5 15.35 -25.35 11.7 -24.7 19.7 -28.2 24.9 -29.8 22.6 -29.6 17.0 M-28.35 26.6 Q-25.15 25.2 -24.05 22.0 -23.15 29.65 -27.45 33.55 L-28.1 31.35 Q-28.55 29.15 -28.35 26.6 M-27.7 35.55 Q-24.65 34.8 -23.15 31.35 -22.35 39.95 -28.7 42.9 -28.7 36.55 -27.7 35.55 M-28.55 44.4 Q-26.0 44.3 -23.45 42.75 -20.65 46.95 -23.9 51.95 -28.05 49.15 -28.55 44.4 M-22.55 53.15 Q-18.2 46.7 -12.3 50.5 -11.65 52.95 -15.0 55.2 -20.25 55.6 -22.55 53.15 M-12.75 55.6 Q-11.8 49.2 -1.75 50.35 -1.95 53.3 -4.55 55.2 L-12.75 55.6 M-2.9 55.55 Q2.45 48.95 8.35 51.8 9.15 54.75 5.6 57.2 L5.6 57.25 Q0.95 58.35 -2.9 55.55 M6.4 58.05 Q12.7 51.0 19.0 53.45 17.8 56.3 15.6 58.85 L15.5 58.95 Q9.85 61.0 6.4 58.05 M16.9 59.55 Q23.05 52.25 30.35 54.35 29.5 57.45 26.55 60.05 L20.15 60.4 16.9 59.55 M28.9 60.65 Q34.85 54.0 41.95 54.45 41.65 57.65 38.55 60.3 L38.5 60.35 28.9 60.65 M40.35 60.75 Q44.7 53.45 52.4 55.1 52.45 57.45 50.35 59.85 45.3 61.75 40.35 60.75 M51.55 60.05 Q55.8 53.3 62.6 55.25 62.85 56.95 61.2 58.45 L61.15 58.4 61.15 58.45 58.25 59.55 Q55.65 60.65 51.55 60.05 M61.6 59.35 Q64.3 57.05 65.0 54.15 68.55 58.45 65.45 62.8 62.65 61.3 61.9 59.9 L61.6 59.35 M65.2 64.3 Q68.0 60.15 70.8 61.0 72.9 62.65 71.6 66.15 67.4 73.1 65.2 64.3" fill="#ffff00" fill-rule="evenodd" stroke="none"/>
    </g>
    <g id="shape26">
      <path d="M-9.55 -0.9 Q-5.75 -1.1 -4.65 3.05 L-5.95 3.3 -7.35 3.6 Q-7.85 3.75 -8.05 4.4 -9.95 3.55 -10.0 1.4 -10.05 0.05 -9.55 -0.9 M-8.2 4.9 Q-5.45 5.8 -4.1 8.1 L-6.8 8.65 Q-8.4 8.0 -8.35 6.1 L-8.2 4.9 M-3.2 7.95 Q-5.8 5.95 -4.8 3.9 0.25 3.85 1.5 7.75 L-3.2 7.95 M2.7 7.85 Q0.9 5.65 1.9 3.5 L1.9 3.45 2.1 3.5 Q5.35 4.55 6.9 8.5 L2.7 7.85 M7.65 8.65 Q5.95 6.55 6.8 4.25 L6.9 4.2 Q7.3 4.05 7.8 4.2 L8.15 4.35 8.35 4.45 8.7 4.65 9.15 5.95 Q9.0 8.25 7.65 8.65 M8.45 4.25 Q9.15 1.55 6.75 -1.2 8.7 -1.3 10.0 -0.15 10.45 0.65 10.45 1.75 10.3 3.7 8.45 4.25 M7.75 3.65 L7.65 3.6 5.75 3.2 4.6 3.05 Q4.95 0.6 2.75 -1.35 7.35 -0.35 7.75 3.65 M3.2 2.85 L0.55 2.7 -2.9 2.85 -3.45 2.9 Q-3.8 0.85 -4.8 -1.15 0.8 -0.95 3.2 2.85" fill="#ffff00" fill-rule="evenodd" stroke="none"/>
      <path d="M8.35 4.45 L8.45 4.3 8.7 4.65 8.35 4.45" fill="#f75a00" fill-rule="evenodd" stroke="none"/>
      <path d="M-9.55 -0.9 L-8.75 -1.85 -6.45 -2.4 -4.05 -2.8 -2.8 -3.0 1.3 -3.2 2.55 -3.1 6.8 -2.3 7.2 -2.15 7.85 -1.85 Q9.4 -1.35 10.0 -0.15 8.7 -1.3 6.75 -1.2 9.15 1.55 8.45 4.25 L8.45 4.3 8.35 4.45 8.15 4.35 7.8 4.2 Q7.3 4.05 6.9 4.2 L6.8 4.25 Q5.95 6.55 7.65 8.65 L6.9 8.5 Q5.35 4.55 2.1 3.5 L1.9 3.45 1.9 3.5 Q0.9 5.65 2.7 7.85 L1.5 7.75 Q0.25 3.85 -4.8 3.9 -5.8 5.95 -3.2 7.95 L-4.1 8.1 Q-5.45 5.8 -8.2 4.9 L-8.05 4.4 Q-7.85 3.75 -7.35 3.6 L-5.95 3.3 -4.65 3.05 Q-5.75 -1.1 -9.55 -0.9 M7.75 3.65 Q7.35 -0.35 2.75 -1.35 4.95 0.6 4.6 3.05 L5.75 3.2 7.65 3.6 7.75 3.65 M3.2 2.85 Q0.8 -0.95 -4.8 -1.15 -3.8 0.85 -3.45 2.9 L-2.9 2.85 0.55 2.7 3.2 2.85" fill="#ff871b" fill-rule="evenodd" stroke="none"/>
    </g>
    <g id="shape27">
      <path d="M-0.5 30.3 Q-2.15 28.9 -2.3 26.0 0.85 23.35 3.0 18.75 2.65 27.9 -0.5 30.3 M-1.6 21.9 Q-2.6 19.45 -2.55 16.0 0.6 13.95 2.75 8.75 3.15 18.75 -1.6 21.9 M-1.95 12.25 Q-2.85 9.9 -2.75 6.7 0.55 3.8 2.5 -0.8 3.25 8.05 -1.95 12.25 M-2.1 2.6 Q-3.0 -1.45 -3.0 -3.35 0.3 -6.25 2.2 -10.9 2.15 -0.95 -2.1 2.6 M-2.3 -7.45 Q-4.4 -11.0 -3.25 -13.35 -0.4 -16.05 2.1 -20.55 1.65 -11.05 -2.3 -7.45 M-3.05 -16.55 Q-4.95 -19.25 -3.95 -22.4 -0.45 -25.4 1.1 -30.8 1.2 -20.85 -3.05 -16.55" fill="#ffff00" fill-rule="evenodd" stroke="none"/>
      <path d="M-3.95 -22.4 Q-4.5 -27.0 1.5 -32.0 4.55 -27.55 3.65 -21.6 2.7 -15.7 3.55 -9.55 4.35 -3.45 4.3 2.8 L4.15 15.45 Q4.05 22.05 2.75 28.3 2.05 31.75 -0.5 30.3 2.65 27.9 3.0 18.75 0.85 23.35 -2.3 26.0 -2.25 24.0 -1.6 21.9 3.15 18.75 2.75 8.75 0.6 13.95 -2.55 16.0 -2.45 14.15 -1.95 12.25 3.25 8.05 2.5 -0.8 0.55 3.8 -2.75 6.7 -2.7 4.7 -2.1 2.6 2.15 -0.95 2.2 -10.9 0.3 -6.25 -3.0 -3.35 -2.9 -5.35 -2.3 -7.45 1.65 -11.05 2.1 -20.55 -0.4 -16.05 -3.25 -13.35 L-3.05 -16.55 Q1.2 -20.85 1.1 -30.8 -0.45 -25.4 -3.95 -22.4" fill="#ff871b" fill-rule="evenodd" stroke="none"/>
    </g>
    <g id="shape28">
      <path d="M4.0 -0.4 Q1.65 -1.6 -0.65 -0.1 -3.05 1.45 -0.25 6.5 -2.3 7.7 -4.1 1.35 -4.4 1.1 -3.85 -1.05 L-2.65 -6.7 3.2 -2.95 Q4.7 -0.2 4.0 -0.4" fill="#ff871b" fill-rule="evenodd" stroke="none"/>
      <path d="M-0.25 6.5 Q-3.05 1.45 -0.65 -0.1 1.65 -1.6 4.0 -0.4 5.2 4.85 -0.25 6.5" fill="#ffff00" fill-rule="evenodd" stroke="none"/>
    </g>
  </defs>
</svg>
