<?xml version="1.0" encoding="UTF-8" standalone="no"?>
<svg xmlns:ffdec="https://www.free-decompiler.com/flash" xmlns:xlink="http://www.w3.org/1999/xlink" ffdec:objectType="frame" height="74.6px" width="74.6px" xmlns="http://www.w3.org/2000/svg">
  <g transform="matrix(1.0, 0.0, 0.0, 1.0, 37.3, 37.3)">
    <use ffdec:characterId="74" height="83.0" transform="matrix(0.9, 0.0, 0.0, 0.9, 0.0, 0.0)" width="83.0" xlink:href="#shape0"/>
    <use ffdec:characterId="75" height="46.55" transform="matrix(1.0, 0.0, 0.0, 1.0, 0.0, 0.0)" width="59.25" xlink:href="#shape1"/>
    <use ffdec:characterId="95" height="100.2" transform="matrix(0.329, 0.0, 0.0, 0.329, 0.0, 0.0)" width="71.55" xlink:href="#shape2"/>
  </g>
  <defs>
    <g id="shape0">
      <path d="M0.0 -41.5 Q-17.2 -41.5 -29.35 -29.35 -41.5 -17.2 -41.5 0.0 -41.5 17.2 -29.35 29.35 -17.2 41.5 0.0 41.5 17.2 41.5 29.35 29.35 41.5 17.2 41.5 0.0 41.5 -17.2 29.35 -29.35 17.2 -41.5 0.0 -41.5 Z" ffdec:has-small-stroke="true" ffdec:original-stroke-width="0.05" fill="none" stroke="#c6f3ff" stroke-linecap="round" stroke-linejoin="round" stroke-width="1.1111186463666882"/>
      <path d="M24.05 -24.55 Q34.95 -13.65 34.95 1.85 34.95 17.35 24.05 28.3 L23.3 28.95 Q29.55 19.85 29.55 8.15 29.55 -7.35 18.65 -18.25 7.7 -29.2 -7.8 -29.2 -22.75 -29.2 -33.5 -18.95 -31.5 -21.9 -28.8 -24.55 -17.9 -35.5 -2.4 -35.5 13.1 -35.5 24.05 -24.55" fill="#cef5ff" fill-rule="evenodd" stroke="none"/>
    </g>
    <g id="shape1">
      <path d="M29.65 -22.7 Q27.45 1.0 29.45 23.3 L29.05 23.3 28.75 23.3 Q0.9 21.9 -29.6 23.05 L-29.6 22.85 -24.05 17.35 24.8 17.35 24.8 -19.0 25.1 -19.0 29.65 -22.7" fill="#85550c" fill-rule="evenodd" stroke="none"/>
      <path d="M24.8 -19.0 L24.8 17.35 -24.05 17.35 -24.0 17.35 -24.15 -19.0 24.8 -19.0" fill="#fffbf0" fill-rule="evenodd" stroke="none"/>
      <path d="M29.65 -22.7 L25.1 -19.0 24.8 -19.0 -24.15 -19.0 -24.0 17.35 -24.05 17.35 -29.6 22.85 Q-26.9 0.95 -29.5 -23.25 L29.65 -22.7" fill="#f7be66" fill-rule="evenodd" stroke="none"/>
    </g>
    <g id="shape2">
      <path d="M28.45 -35.5 Q32.1 -29.75 32.1 -23.0 L31.85 -19.4 Q31.2 -14.3 29.15 -10.6 27.05 -6.8 24.85 -4.85 L22.45 -2.75 Q28.3 0.05 32.0 6.95 35.8 13.7 35.8 20.55 35.8 25.45 34.2 29.5 32.6 33.65 30.15 37.0 27.6 40.3 25.15 42.4 16.3 50.1 -0.5 50.1 -10.85 50.1 -19.8 46.3 -28.9 42.4 -35.75 34.65 L-19.4 19.2 -15.95 22.75 Q-13.65 24.95 -10.35 26.55 -5.8 28.5 -1.85 28.9 2.8 28.4 6.6 25.7 10.15 23.0 10.15 18.45 10.15 15.0 8.8 12.45 7.35 9.9 4.75 9.05 0.45 7.9 -7.0 7.9 L-10.45 7.9 -12.05 8.2 -12.05 -9.75 -10.2 -9.75 -7.25 -9.5 Q-0.9 -9.5 3.75 -11.45 8.15 -13.2 8.2 -18.7 8.15 -23.25 5.0 -25.95 1.8 -28.65 -2.85 -28.65 -7.25 -28.65 -11.3 -26.45 -15.6 -24.1 -16.85 -20.4 L-34.1 -31.95 Q-33.4 -33.55 -30.45 -37.25 -27.65 -40.9 -24.35 -43.1 -14.5 -50.1 -1.1 -50.1 7.3 -50.1 15.55 -46.3 23.5 -42.4 28.45 -35.5" fill="#d70000" fill-rule="evenodd" stroke="none"/>
    </g>
  </defs>
</svg>
