<?xml version="1.0" encoding="UTF-8" standalone="no"?>
<svg xmlns:ffdec="https://www.free-decompiler.com/flash" xmlns:xlink="http://www.w3.org/1999/xlink" ffdec:objectType="frame" height="58.55px" width="59.25px" xmlns="http://www.w3.org/2000/svg">
  <g transform="matrix(1.0, 0.0, 0.0, 1.0, 29.6, 23.25)">
    <use ffdec:characterId="63" height="52.55" transform="matrix(1.0, 0.0, 0.0, 1.0, 0.0, 0.0)" width="59.25" xlink:href="#sprite0"/>
  </g>
  <defs>
    <g id="sprite0">
      <use ffdec:characterId="56" height="46.55" transform="matrix(1.0, 0.0, 0.0, 1.0, 0.0, 0.0)" width="59.25" xlink:href="#shape0"/>
      <use ffdec:characterId="62" height="98.25" transform="matrix(0.329, 0.0, 0.0, 0.329, 0.0, 0.0)" width="75.0" xlink:href="#shape1"/>
    </g>
    <g id="shape0">
      <path d="M24.8 -19.0 L25.1 -19.0 29.65 -22.7 Q27.45 1.0 29.45 23.3 L29.05 23.3 28.75 23.3 Q0.9 21.9 -29.6 23.05 L-29.6 22.85 -24.05 17.35 24.8 17.35 24.8 -19.0" fill="#85550c" fill-rule="evenodd" stroke="none"/>
      <path d="M24.8 -19.0 L24.8 17.35 -24.05 17.35 -24.0 17.35 -24.15 -19.0 24.8 -19.0" fill="#fffbf0" fill-rule="evenodd" stroke="none"/>
      <path d="M29.65 -22.7 L25.1 -19.0 24.8 -19.0 -24.15 -19.0 -24.0 17.35 -24.05 17.35 -29.6 22.85 Q-26.9 0.95 -29.5 -23.25 L29.65 -22.7" fill="#f7be66" fill-rule="evenodd" stroke="none"/>
    </g>
    <g id="shape1">
      <path d="M34.5 -19.15 L34.5 -17.8 Q34.5 -10.45 30.25 -1.4 25.55 8.65 18.85 16.05 L8.9 26.95 37.5 26.95 31.7 49.15 -37.5 49.15 -1.8 6.5 Q9.85 -8.6 9.9 -15.0 L9.9 -15.7 Q9.15 -22.0 5.85 -25.05 2.75 -27.85 -1.5 -27.85 L-2.25 -27.85 Q-6.95 -27.75 -10.1 -24.45 -13.05 -21.15 -13.3 -16.35 L-13.3 -15.95 -13.25 -15.25 -35.6 -8.0 Q-36.5 -11.85 -36.45 -16.1 L-36.45 -17.9 Q-36.1 -26.9 -31.45 -34.25 -26.95 -41.35 -18.6 -45.3 -10.75 -49.1 -1.15 -49.1 L-0.8 -49.1 Q8.4 -49.1 16.35 -45.5 24.2 -42.0 29.15 -35.35 33.9 -28.6 34.5 -19.15" fill="#d70000" fill-rule="evenodd" stroke="none"/>
    </g>
  </defs>
</svg>
