<?xml version="1.0" encoding="UTF-8" standalone="no"?>
<svg xmlns:ffdec="https://www.free-decompiler.com/flash" xmlns:xlink="http://www.w3.org/1999/xlink" ffdec:objectType="frame" height="52.55px" width="59.25px" xmlns="http://www.w3.org/2000/svg">
  <g transform="matrix(1.0, 0.0, 0.0, 1.0, 29.6, 23.25)">
    <use ffdec:characterId="56" height="46.55" transform="matrix(1.0, 0.0, 0.0, 1.0, 0.0, 0.0)" width="59.25" xlink:href="#shape0"/>
    <use ffdec:characterId="64" height="100.95" transform="matrix(0.329, 0.0, 0.0, 0.329, 0.0, -1.0)" width="74.85" xlink:href="#shape1"/>
  </g>
  <defs>
    <g id="shape0">
      <path d="M24.8 -19.0 L25.1 -19.0 29.65 -22.7 Q27.45 1.0 29.45 23.3 L29.05 23.3 28.75 23.3 Q0.9 21.9 -29.6 23.05 L-29.6 22.85 -24.05 17.35 24.8 17.35 24.8 -19.0" fill="#85550c" fill-rule="evenodd" stroke="none"/>
      <path d="M24.8 -19.0 L24.8 17.35 -24.05 17.35 -24.0 17.35 -24.15 -19.0 24.8 -19.0" fill="#fffbf0" fill-rule="evenodd" stroke="none"/>
      <path d="M29.65 -22.7 L25.1 -19.0 24.8 -19.0 -24.15 -19.0 -24.0 17.35 -24.05 17.35 -29.6 22.85 Q-26.9 0.95 -29.5 -23.25 L29.65 -22.7" fill="#f7be66" fill-rule="evenodd" stroke="none"/>
    </g>
    <g id="shape1">
      <path d="M23.6 -23.4 L23.6 4.75 37.45 4.75 34.0 25.75 23.8 25.75 23.8 48.4 0.15 50.5 0.15 25.75 -37.4 26.3 -24.35 -38.0 -1.1 -50.45 -11.6 5.75 1.75 5.75 1.75 -17.9 23.6 -23.4" fill="#d70000" fill-rule="evenodd" stroke="none"/>
    </g>
  </defs>
</svg>
