<?xml version="1.0" encoding="UTF-8" standalone="no"?>
<svg xmlns:ffdec="https://www.free-decompiler.com/flash" xmlns:xlink="http://www.w3.org/1999/xlink" ffdec:objectType="frame" height="47.35px" width="59.25px" xmlns="http://www.w3.org/2000/svg">
  <g transform="matrix(1.0, 0.0, 0.0, 1.0, 29.6, 23.25)">
    <use ffdec:characterId="56" height="46.55" transform="matrix(1.0, 0.0, 0.0, 1.0, 0.0, 0.0)" width="59.25" xlink:href="#shape0"/>
    <use ffdec:characterId="60" height="34.8" transform="matrix(0.935, 0.0, 0.0, 0.935, 1.15, -1.1)" width="24.6" xlink:href="#shape1"/>
  </g>
  <defs>
    <g id="shape0">
      <path d="M24.8 -19.0 L25.1 -19.0 29.65 -22.7 Q27.45 1.0 29.45 23.3 L29.05 23.3 28.75 23.3 Q0.9 21.9 -29.6 23.05 L-29.6 22.85 -24.05 17.35 24.8 17.35 24.8 -19.0" fill="#85550c" fill-rule="evenodd" stroke="none"/>
      <path d="M24.8 -19.0 L24.8 17.35 -24.05 17.35 -24.0 17.35 -24.15 -19.0 24.8 -19.0" fill="#fffbf0" fill-rule="evenodd" stroke="none"/>
      <path d="M29.65 -22.7 L25.1 -19.0 24.8 -19.0 -24.15 -19.0 -24.0 17.35 -24.05 17.35 -29.6 22.85 Q-26.9 0.95 -29.5 -23.25 L29.65 -22.7" fill="#f7be66" fill-rule="evenodd" stroke="none"/>
    </g>
    <g id="shape1">
      <path d="M8.6 -9.7 L-0.45 -9.7 -0.45 -6.55 -0.05 -6.7 0.35 -6.75 0.75 -6.8 1.25 -6.8 Q4.55 -6.8 7.15 -5.0 9.6 -3.25 11.0 -0.35 12.3 2.45 12.3 5.5 L12.3 5.65 Q12.15 9.0 10.4 11.6 8.6 14.3 5.75 15.8 2.85 17.3 -0.35 17.4 L-0.7 17.4 Q-4.5 17.4 -8.05 15.45 -11.75 13.4 -12.3 12.5 L-6.45 6.4 -5.9 6.95 -4.85 7.9 -3.3 8.65 -0.95 9.1 Q1.05 9.1 2.65 7.55 3.9 6.3 3.9 4.8 L3.85 4.2 Q3.65 2.55 2.75 1.6 1.85 0.65 0.6 0.3 L-1.95 -0.15 -6.1 0.45 Q-8.15 1.15 -8.65 1.5 L-8.65 -17.4 10.65 -17.4 8.6 -9.7" fill="#d70000" fill-rule="evenodd" stroke="none"/>
    </g>
  </defs>
</svg>
