<?xml version="1.0" encoding="UTF-8" standalone="no"?>
<svg xmlns:ffdec="https://www.free-decompiler.com/flash" xmlns:xlink="http://www.w3.org/1999/xlink" ffdec:objectType="frame" height="410.0px" width="590.0px" xmlns="http://www.w3.org/2000/svg">
  <g transform="matrix(1.0, 0.0, 0.0, 1.0, 0.0, 0.0)">
    
    <use ffdec:characterId="1" height="98.9" transform="matrix(0.1927, 0.0, 0.0, 0.1927, 55.75, 280.6)" width="212.55" xlink:href="#shape0"/>
    <use ffdec:characterId="2" height="139.7" transform="matrix(0.1927, 0.0, 0.0, 0.1927, 62.05, 271.15)" width="218.9" xlink:href="#shape1"/>
    <use ffdec:characterId="3" height="140.4" transform="matrix(0.1927, 0.0, 0.0, 0.1927, 62.05, 264.85)" width="221.3" xlink:href="#shape2"/>
    <use ffdec:characterId="1" height="98.9" transform="matrix(0.2259, 0.0, 0.0, 0.2259, 484.6, 399.6)" width="212.55" xlink:href="#shape0"/>
    <use ffdec:characterId="2" height="139.7" transform="matrix(0.2259, 0.0, 0.0, 0.2259, 492.0, 388.55)" width="218.9" xlink:href="#shape1"/>
    <use ffdec:characterId="3" height="140.4" transform="matrix(0.2259, 0.0, 0.0, 0.2259, 492.0, 381.15)" width="221.3" xlink:href="#shape2"/>
    <use ffdec:characterId="1" height="98.9" transform="matrix(0.1927, 0.0, 0.0, 0.1927, 542.85, 365.65)" width="212.55" xlink:href="#shape0"/>
    <use ffdec:characterId="2" height="139.7" transform="matrix(0.1927, 0.0, 0.0, 0.1927, 549.15, 356.2)" width="218.9" xlink:href="#shape1"/>
    <use ffdec:characterId="3" height="140.4" transform="matrix(0.1927, 0.0, 0.0, 0.1927, 549.15, 349.9)" width="221.3" xlink:href="#shape2"/>
    <use ffdec:characterId="4" height="15.65" transform="matrix(5.1799, 0.0, 0.0, 1.2564, 304.85, 313.85)" width="23.85" xlink:href="#shape3"/>
    <use ffdec:characterId="44" height="137.25" transform="matrix(-0.9607, 0.2672, 0.2672, 0.9607, 383.15, 226.2)" width="232.7" xlink:href="#shape4"/>
    <use ffdec:characterId="1" height="98.9" transform="matrix(0.2262, 0.0, 0.0, 0.2262, 421.75, 361.4)" width="212.55" xlink:href="#shape0"/>
    <use ffdec:characterId="2" height="139.7" transform="matrix(0.2262, 0.0, 0.0, 0.2262, 429.15, 350.35)" width="218.9" xlink:href="#shape1"/>
    <use ffdec:characterId="3" height="140.4" transform="matrix(0.2262, 0.0, 0.0, 0.2262, 429.15, 342.95)" width="221.3" xlink:href="#shape2"/>
    <use ffdec:characterId="17" height="26.0" transform="matrix(1.0, 0.0, 0.0, 1.0, 170.5, 350.65)" width="250.65" xlink:href="#sprite0"/>
    <use ffdec:characterId="18" height="186.4" transform="matrix(1.0, 0.0, 0.0, 1.0, 236.0, 183.15)" width="86.6" xlink:href="#shape5"/>
    <use ffdec:characterId="19" height="59.55" transform="matrix(1.0, 0.0, 0.0, 1.0, 235.25, 293.95)" width="91.0" xlink:href="#shape6"/>
    <use ffdec:characterId="20" height="8.5" transform="matrix(1.1329, 0.0, 0.0, 0.7952, 235.45, 295.65)" width="76.7" xlink:href="#shape7"/>
    <use ffdec:characterId="20" height="8.5" transform="matrix(-1.1199, 0.0, 0.0, -0.7952, 235.8, 282.0)" width="76.7" xlink:href="#shape7"/>
    <use ffdec:characterId="20" height="8.5" transform="matrix(-1.1199, 0.0, 0.0, -0.7952, 236.85, 300.05)" width="76.7" xlink:href="#shape7"/>
    <use ffdec:characterId="20" height="8.5" transform="matrix(1.1199, 0.0, 0.0, 0.7952, 236.15, 322.8)" width="76.7" xlink:href="#shape7"/>
    <use ffdec:characterId="20" height="8.5" transform="matrix(-1.1484, 0.0, 0.0, -0.7952, 236.25, 257.75)" width="76.7" xlink:href="#shape7"/>
    <use ffdec:characterId="20" height="8.5" transform="matrix(1.1484, 0.0, 0.0, 0.7952, 235.55, 279.3)" width="76.7" xlink:href="#shape7"/>
    <use ffdec:characterId="21" height="215.85" transform="matrix(1.0, 0.0, 0.0, 1.0, 195.1, 157.8)" width="12.15" xlink:href="#shape8"/>
    <use ffdec:characterId="22" height="215.85" transform="matrix(1.0, 0.0, 0.0, 1.0, 278.45, 157.3)" width="12.15" xlink:href="#shape9"/>
    <use ffdec:characterId="23" height="8.25" transform="matrix(0.0058, -1.9999, 1.0612, 0.0109, 276.7, 191.15)" width="3.5" xlink:href="#shape10"/>
    <use ffdec:characterId="23" height="8.25" transform="matrix(0.0056, -1.9999, 1.025, 0.0109, 196.9, 191.15)" width="3.5" xlink:href="#shape10"/>
    <use ffdec:characterId="23" height="8.25" transform="matrix(0.006, -1.2539, 1.0975, 0.0068, 193.95, 262.65)" width="3.5" xlink:href="#shape10"/>
    <use ffdec:characterId="23" height="8.25" transform="matrix(0.006, -1.2539, 1.0975, 0.0068, 279.4, 262.7)" width="3.5" xlink:href="#shape10"/>
    <use ffdec:characterId="21" height="215.85" transform="matrix(0.0, -1.0, 0.4576, 0.0, 235.2, 255.75)" width="12.15" xlink:href="#shape8"/>
    <use ffdec:characterId="23" height="8.25" transform="matrix(0.0054, -1.0, 1.0, 0.0054, 194.2, 70.45)" width="3.5" xlink:href="#shape10"/>
    <use ffdec:characterId="23" height="8.25" transform="matrix(0.0054, -1.0, 1.0, 0.0054, 279.4, 71.45)" width="3.5" xlink:href="#shape10"/>
    <use ffdec:characterId="22" height="215.85" transform="matrix(-0.0053, -1.0, 0.4858, -0.0023, 236.0, 65.2)" width="12.15" xlink:href="#shape9"/>
    <use ffdec:characterId="23" height="8.25" transform="matrix(1.0, 0.0, 0.0, 1.0, 229.6, 67.05)" width="3.5" xlink:href="#shape10"/>
    <use ffdec:characterId="23" height="8.25" transform="matrix(0.0059, -1.1428, 1.0843, 0.0062, 277.8, 228.8)" width="3.5" xlink:href="#shape10"/>
    <use ffdec:characterId="23" height="8.25" transform="matrix(0.0059, -1.1428, 1.0843, 0.0062, 195.9, 227.2)" width="3.5" xlink:href="#shape10"/>
    <use ffdec:characterId="21" height="215.85" transform="matrix(0.0, -1.0, 0.4576, 0.0, 233.0, 220.35)" width="12.15" xlink:href="#shape8"/>
    <use ffdec:characterId="23" height="8.25" transform="matrix(0.0054, -1.0, 1.0, 0.0054, 196.2, 110.05)" width="3.5" xlink:href="#shape10"/>
    <use ffdec:characterId="23" height="8.25" transform="matrix(0.0054, -1.0, 1.0, 0.0054, 277.6, 111.05)" width="3.5" xlink:href="#shape10"/>
    <use ffdec:characterId="22" height="215.85" transform="matrix(-0.0053, -1.0, 0.4858, -0.0023, 235.95, 104.2)" width="12.15" xlink:href="#shape9"/>
    <use ffdec:characterId="23" height="8.25" transform="matrix(0.0054, -1.0, 1.0, 0.0054, 197.2, 147.55)" width="3.5" xlink:href="#shape10"/>
    <use ffdec:characterId="23" height="8.25" transform="matrix(0.0054, -1.0, 1.0, 0.0054, 276.6, 148.15)" width="3.5" xlink:href="#shape10"/>
    <use ffdec:characterId="22" height="215.85" transform="matrix(-0.0053, -1.0, 0.4858, -0.0023, 235.95, 141.6)" width="12.15" xlink:href="#shape9"/>
    <use ffdec:characterId="21" height="215.85" transform="matrix(0.0, -1.0, 0.4576, 0.0, 235.85, 183.05)" width="12.15" xlink:href="#shape8"/>
    <use ffdec:characterId="23" height="8.25" transform="matrix(1.0, 0.0, 0.0, 1.0, 227.8, 106.05)" width="3.5" xlink:href="#shape10"/>
    <use ffdec:characterId="23" height="8.25" transform="matrix(1.0, 0.0, 0.0, 1.0, 227.4, 143.35)" width="3.5" xlink:href="#shape10"/>
    <use ffdec:characterId="23" height="8.25" transform="matrix(1.0, 0.0, 0.0, 1.0, 227.4, 181.35)" width="3.5" xlink:href="#shape10"/>
    <use ffdec:characterId="23" height="8.25" transform="matrix(1.0, 0.0, 0.0, 1.0, 227.9, 218.55)" width="3.5" xlink:href="#shape10"/>
    <use ffdec:characterId="22" height="215.85" transform="matrix(0.995, 0.0934, 0.0114, 0.9746, 235.5, 158.45)" width="12.15" xlink:href="#shape9"/>
    <use ffdec:characterId="24" height="13.8" transform="matrix(-0.783, 0.0, 0.0, 0.783, 235.4, 67.1)" width="11.4" xlink:href="#shape11"/>
    <use ffdec:characterId="24" height="13.8" transform="matrix(0.7703, 0.0, 0.0, 0.7703, 235.65, 66.6)" width="11.4" xlink:href="#shape11"/>
    <use ffdec:characterId="24" height="13.8" transform="matrix(-0.783, 0.0, 0.0, 0.783, 233.75, 107.25)" width="11.4" xlink:href="#shape11"/>
    <use ffdec:characterId="24" height="13.8" transform="matrix(0.7703, 0.0, 0.0, 0.7703, 234.0, 106.75)" width="11.4" xlink:href="#shape11"/>
    <use ffdec:characterId="24" height="13.8" transform="matrix(-0.783, 0.0, 0.0, 0.783, 233.2, 144.1)" width="11.4" xlink:href="#shape11"/>
    <use ffdec:characterId="24" height="13.8" transform="matrix(0.7703, 0.0, 0.0, 0.7703, 233.45, 143.6)" width="11.4" xlink:href="#shape11"/>
    <use ffdec:characterId="24" height="13.8" transform="matrix(0.783, 0.0, 0.0, 0.783, 233.95, 181.9)" width="11.4" xlink:href="#shape11"/>
    <use ffdec:characterId="24" height="13.8" transform="matrix(-0.7703, 0.0, 0.0, 0.7703, 233.7, 181.4)" width="11.4" xlink:href="#shape11"/>
    <use ffdec:characterId="24" height="13.8" transform="matrix(-0.9933, 0.0, 0.0, 0.825, 234.1, 218.95)" width="11.4" xlink:href="#shape11"/>
    <use ffdec:characterId="24" height="13.8" transform="matrix(0.9772, 0.0, 0.0, 0.8115, 234.45, 218.4)" width="11.4" xlink:href="#shape11"/>
    <use ffdec:characterId="25" height="13.8" transform="matrix(1.0, 0.0, 0.0, 1.0, 193.7, 64.2)" width="11.4" xlink:href="#shape12"/>
    <use ffdec:characterId="25" height="13.8" transform="matrix(1.0, 0.0, 0.0, 1.0, 195.9, 104.35)" width="11.4" xlink:href="#shape12"/>
    <use ffdec:characterId="25" height="13.8" transform="matrix(1.0, 0.0, 0.0, 1.0, 197.0, 141.75)" width="11.4" xlink:href="#shape12"/>
    <use ffdec:characterId="25" height="13.8" transform="matrix(-1.0, 0.0, 0.0, 1.0, 196.7, 183.45)" width="11.4" xlink:href="#shape12"/>
    <use ffdec:characterId="25" height="13.8" transform="matrix(-1.0, 0.0, 0.0, 1.0, 195.55, 221.25)" width="11.4" xlink:href="#shape12"/>
    <use ffdec:characterId="25" height="13.8" transform="matrix(-1.0, 0.0, 0.0, 1.0, 193.5, 256.55)" width="11.4" xlink:href="#shape12"/>
    <use ffdec:characterId="23" height="8.25" transform="matrix(1.0, 0.0, 0.0, 1.0, 230.4, 253.85)" width="3.5" xlink:href="#shape10"/>
    <use ffdec:characterId="24" height="13.8" transform="matrix(-0.9933, 0.0, 0.0, 0.825, 237.15, 255.05)" width="11.4" xlink:href="#shape11"/>
    <use ffdec:characterId="24" height="13.8" transform="matrix(0.9772, 0.0, 0.0, 0.8115, 237.5, 254.5)" width="11.4" xlink:href="#shape11"/>
    <use ffdec:characterId="25" height="13.8" transform="matrix(-1.0, 0.0, 0.0, 1.0, 279.5, 64.2)" width="11.4" xlink:href="#shape12"/>
    <use ffdec:characterId="25" height="13.8" transform="matrix(-1.0, 0.0, 0.0, 1.0, 277.3, 104.35)" width="11.4" xlink:href="#shape12"/>
    <use ffdec:characterId="25" height="13.8" transform="matrix(-1.0, 0.0, 0.0, 1.0, 276.2, 141.75)" width="11.4" xlink:href="#shape12"/>
    <use ffdec:characterId="25" height="13.8" transform="matrix(1.0, 0.0, 0.0, 1.0, 276.85, 183.6)" width="11.4" xlink:href="#shape12"/>
    <use ffdec:characterId="25" height="13.8" transform="matrix(1.0, 0.0, 0.0, 1.0, 277.8, 221.0)" width="11.4" xlink:href="#shape12"/>
    <use ffdec:characterId="25" height="13.8" transform="matrix(1.1228, 0.0, 0.0, 0.8261, 279.4, 256.35)" width="11.4" xlink:href="#shape12"/>
    <use ffdec:characterId="31" height="42.65" id="chip1" transform="matrix(1.0, 0.0, 0.0, 1.0, 214.95, 84.95)" width="42.65" xlink:href="#sprite1"/>
    <use ffdec:characterId="31" height="42.65" id="chip6" transform="matrix(1.0, 0.0, 0.0, 1.0, 254.95, 84.95)" width="42.65" xlink:href="#sprite1"/>
    <use ffdec:characterId="32" height="42.65" id="chip2" transform="matrix(1.0, 0.0, 0.0, 1.0, 214.75, 123.95)" width="42.65" xlink:href="#sprite2"/>
    <use ffdec:characterId="32" height="42.65" id="chip7" transform="matrix(1.0, 0.0, 0.0, 1.0, 254.95, 123.95)" width="42.65" xlink:href="#sprite2"/>
    <use ffdec:characterId="31" height="42.65" id="chip3" transform="matrix(1.0, 0.0, 0.0, 1.0, 214.75, 162.35)" width="42.65" xlink:href="#sprite1"/>
    <use ffdec:characterId="32" height="42.65" id="chip8" transform="matrix(1.0, 0.0, 0.0, 1.0, 254.35, 162.35)" width="42.65" xlink:href="#sprite2"/>
    <use ffdec:characterId="32" height="42.65" id="chip4" transform="matrix(1.0, 0.0, 0.0, 1.0, 214.75, 199.55)" width="42.65" xlink:href="#sprite2"/>
    <use ffdec:characterId="32" height="42.65" id="chip9" transform="matrix(1.0, 0.0, 0.0, 1.0, 254.35, 199.55)" width="42.65" xlink:href="#sprite2"/>
    <use ffdec:characterId="32" height="42.65" id="chip5" transform="matrix(1.0, 0.0, 0.0, 1.0, 214.75, 236.9)" width="42.65" xlink:href="#sprite2"/>
    <use ffdec:characterId="32" height="42.65" id="chip10" transform="matrix(1.0, 0.0, 0.0, 1.0, 255.55, 236.9)" width="42.65" xlink:href="#sprite2"/>
  </g>
  <defs>
    <g id="shape0">
      <path d="M-75.55 -39.5 L-27.0 -60.35 114.05 -7.9 Q17.25 50.7 -48.45 35.35 -132.4 -1.6 -75.55 -39.5" fill="#000000" fill-opacity="0.3019608" fill-rule="evenodd" stroke="none"/>
    </g>
    <g id="shape1">
      <path d="M-17.4 -69.75 Q-15.9 -67.45 4.25 -60.6 22.75 -54.3 37.9 -50.4 103.3 -33.4 109.25 -10.5 110.3 -6.45 107.7 4.7 104.45 18.55 97.6 26.25 85.0 32.9 78.45 21.85 71.45 -14.95 68.4 -5.95 65.5 16.0 60.75 30.0 56.7 42.05 51.3 48.25 22.5 61.75 15.0 16.9 7.5 -27.95 0.5 -2.75 L-7.5 25.75 Q-9.3 31.7 -12.25 38.65 -15.2 45.55 -25.95 48.45 -36.65 51.3 -56.7 5.3 -57.55 2.8 -58.25 1.7 -58.95 0.55 -61.0 0.85 -63.05 1.15 -67.65 11.0 -72.25 20.8 -76.7 24.8 -80.55 28.2 -82.5 28.25 -86.8 29.8 -89.3 26.5 -91.85 4.75 -99.55 8.25 -96.2 3.35 -93.9 3.2 -90.55 2.95 -89.45 12.7 -87.9 26.15 -82.4 24.7 -80.45 24.1 -79.25 22.9 -72.0 17.15 -69.25 6.95 -63.2 -6.2 -59.4 -5.0 -55.65 -3.8 -42.75 27.6 -27.45 54.6 -13.25 31.65 -10.55 26.5 -9.1 19.2 -8.2 16.55 -5.9 4.4 -4.65 -2.4 -2.05 -7.75 0.95 -13.9 4.45 -15.1 9.05 -16.65 12.1 -10.9 15.4 -4.7 18.1 11.95 19.45 20.45 21.35 26.8 25.8 41.7 33.2 45.15 35.45 46.2 38.0 46.2 55.35 47.3 62.4 5.25 65.95 -16.0 69.25 -18.6 L70.05 -18.7 Q70.95 -18.6 72.9 -17.1 74.85 -15.65 76.85 -4.4 78.85 6.85 82.4 19.8 83.05 21.15 85.4 21.9 88.25 22.8 91.25 21.45 99.9 17.6 104.6 -2.2 L103.8 -8.1 Q102.9 -13.2 98.9 -17.85 86.35 -32.45 41.85 -46.7 21.9 -52.75 6.65 -57.7 -18.1 -65.75 -19.45 -66.9 L-17.4 -69.75" fill="#fffff3" fill-rule="evenodd" stroke="none"/>
      <path d="M82.4 19.8 Q78.85 6.85 76.85 -4.4 74.85 -15.65 72.9 -17.1 70.95 -18.6 70.05 -18.7 L69.25 -18.6 Q58.35 -16.7 39.5 29.15 L39.5 29.2 Q30.2 29.45 21.35 26.8 19.45 20.45 18.1 11.95 15.4 -4.7 12.1 -10.9 9.05 -16.65 4.45 -15.1 0.95 -13.9 -2.05 -7.75 -4.65 -2.4 -5.9 4.4 -8.2 16.55 -9.1 19.2 -19.8 14.4 -32.5 4.65 -45.05 -5.0 -55.25 -16.1 -66.0 -27.85 -70.6 -37.5 -75.75 -48.2 -72.05 -54.1 3.25 -54.25 26.2 -47.45 46.55 -41.4 74.85 -23.5 95.7 -10.25 104.6 -2.2 102.95 1.2 94.2 10.25 85.0 19.75 82.4 19.8" fill="#dc8d7c" fill-rule="evenodd" stroke="none"/>
      <path d="M-17.4 -69.75 L-19.45 -66.9 -19.45 -66.95 -71.05 -66.95 Q-72.5 -60.3 -79.2 -49.6 L-89.45 -33.8 Q-103.05 -10.7 -105.95 0.9 -106.7 3.85 -105.45 9.55 -104.45 14.3 -103.7 15.45 -105.0 15.95 -106.5 17.15 -118.9 -3.1 -77.7 -57.95 L-76.15 -63.2 Q-74.7 -68.65 -75.4 -69.7 L-75.5 -69.95 -17.4 -69.75 M-82.5 28.25 Q-80.55 28.2 -76.7 24.8 -72.25 20.8 -67.65 11.0 -63.05 1.15 -61.0 0.85 -58.95 0.55 -58.25 1.7 -57.55 2.8 -56.7 5.3 -36.65 51.3 -25.95 48.45 -15.2 45.55 -12.25 38.65 -9.3 31.7 -7.5 25.75 L0.5 -2.75 Q7.5 -27.95 15.0 16.9 22.5 61.75 51.3 48.25 43.95 63.95 34.4 68.2 6.0 59.0 4.0 42.3 2.0 25.6 -7.05 54.1 -8.95 66.65 -16.35 67.3 -28.45 68.35 -37.3 59.5 -40.45 56.4 -42.6 52.6 -44.35 49.6 -44.6 47.9 -53.85 28.65 -58.5 8.85 -51.05 55.95 -62.65 54.7 -68.95 54.0 -74.95 45.05 -80.05 37.5 -82.5 28.25 M60.75 30.0 Q65.5 16.0 68.4 -5.95 71.45 -14.95 78.45 21.85 85.0 32.9 97.6 26.25 93.35 31.15 90.0 34.05 62.6 42.6 60.75 30.0" fill="#ffcfb7" fill-rule="evenodd" stroke="none"/>
      <path d="M-19.45 -66.9 Q-18.1 -65.75 6.65 -57.7 21.9 -52.75 41.85 -46.7 86.35 -32.45 98.9 -17.85 102.9 -13.2 103.8 -8.1 L104.6 -2.2 Q95.7 -10.25 74.85 -23.5 46.55 -41.4 26.2 -47.45 3.25 -54.25 -72.05 -54.1 -82.05 -45.6 -92.85 -25.2 -106.45 6.75 -103.7 15.45 -104.45 14.3 -105.45 9.55 -106.7 3.85 -105.95 0.9 -103.05 -10.7 -89.45 -33.8 L-79.2 -49.6 Q-72.5 -60.3 -71.05 -66.95 L-19.45 -66.95 -19.45 -66.9" fill="#000000" fill-rule="evenodd" stroke="none"/>
      <path d="M69.25 -18.6 Q65.95 -16.0 62.4 5.25 55.35 47.3 38.0 46.2 35.45 46.2 33.2 45.15 25.8 41.7 21.35 26.8 30.2 29.45 39.5 29.2 L39.5 29.15 Q58.35 -16.7 69.25 -18.6" fill="#c2453a" fill-rule="evenodd" stroke="none"/>
      <path d="M-75.5 -69.95 L-75.4 -69.7 -75.45 -69.75 -75.5 -69.95" fill="#aecbf8" fill-rule="evenodd" stroke="none"/>
      <path d="M104.6 -2.2 Q99.9 17.6 91.25 21.45 88.25 22.8 85.4 21.9 83.05 21.15 82.4 19.8 85.0 19.75 94.2 10.25 102.95 1.2 104.6 -2.2 M-9.1 19.2 Q-10.55 26.5 -13.25 31.65 -24.4 35.25 -42.75 27.6 -55.65 -3.8 -59.4 -5.0 -63.2 -6.2 -69.25 6.95 -89.55 0.4 -92.85 -25.2 -82.05 -45.6 -72.05 -54.1 -75.75 -48.2 -70.6 -37.5 -66.0 -27.85 -55.25 -16.1 -45.05 -5.0 -32.5 4.65 -19.8 14.4 -9.1 19.2" fill="#d26f59" fill-rule="evenodd" stroke="none"/>
      <path d="M-13.25 31.65 Q-27.45 54.6 -42.75 27.6 -24.4 35.25 -13.25 31.65 M-69.25 6.95 Q-72.0 17.15 -79.25 22.9 -88.75 2.45 -93.9 3.2 -96.2 3.35 -99.55 8.25 -99.9 10.6 -103.7 15.45 -106.45 6.75 -92.85 -25.2 -89.55 0.4 -69.25 6.95" fill="#cc5840" fill-rule="evenodd" stroke="none"/>
      <path d="M51.3 48.25 Q56.7 42.05 60.75 30.0 62.6 42.6 90.0 34.05 72.55 48.2 51.3 48.25 M34.4 68.2 Q19.8 74.65 0.05 54.1 -3.5 50.35 -7.05 54.1 2.0 25.6 4.0 42.3 6.0 59.0 34.4 68.2 M-44.6 47.9 Q-52.65 57.1 -62.65 54.7 -51.05 55.95 -58.5 8.85 -53.85 28.65 -44.6 47.9" fill="#d3705a" fill-rule="evenodd" stroke="none"/>
      <path d="M-79.25 22.9 Q-80.45 24.1 -82.4 24.7 -87.9 26.15 -89.45 12.7 -90.55 2.95 -93.9 3.2 -88.75 2.45 -79.25 22.9" fill="#732900" fill-rule="evenodd" stroke="none"/>
      <path d="M-99.55 8.25 Q-91.85 4.75 -89.3 26.5 -100.25 17.95 -106.5 17.15 -105.0 15.95 -103.7 15.45 -99.9 10.6 -99.55 8.25" fill="#e49d87" fill-rule="evenodd" stroke="none"/>
    </g>
    <g id="shape2">
      <path d="M76.8 -5.25 Q73.5 -14.7 77.5 -15.65 L67.75 -21.25 76.8 -5.25 M-16.7 -57.55 Q-6.9 -62.7 4.75 -53.45 11.95 -43.9 14.65 -49.3 39.75 -70.3 68.3 -25.35 102.75 -7.55 107.1 4.8 L106.9 5.4 106.9 5.45 Q89.55 80.65 76.9 9.05 66.6 -10.15 60.05 12.6 60.25 22.8 53.85 37.8 39.6 64.25 33.2 49.75 L23.3 19.2 Q21.1 1.65 8.85 -3.05 -2.75 -9.95 -9.7 18.8 -14.85 56.35 -27.85 59.25 -38.65 58.0 -43.55 28.7 -54.45 -9.75 -68.3 22.5 -80.0 55.2 -89.05 36.95 -90.85 25.45 -95.1 24.15 -100.45 6.6 -76.7 -38.0 -73.0 -40.5 -68.4 -39.15 -65.5 -27.2 -69.0 -10.1 -74.2 -5.7 -73.85 6.85 -72.3 9.15 -78.4 26.1 -72.3 20.05 -69.7 9.4 -69.95 -6.5 -66.9 -8.0 -63.95 -16.25 -62.6 -36.2 L-62.6 -36.25 Q-59.25 -55.5 -40.65 -45.6 -26.85 -35.75 -24.25 -40.75 -18.45 5.75 -17.15 33.75 -12.8 0.65 -2.9 -6.6 -15.8 -32.1 -16.7 -57.55 M86.9 14.25 L91.4 29.9 96.3 19.15 Q91.6 26.05 86.9 14.25 M55.85 17.9 Q56.4 7.25 60.4 3.25 L41.95 -20.75 55.85 17.9 M48.6 37.55 Q38.95 57.35 33.3 34.45 36.6 51.35 39.9 50.45 44.25 50.8 48.6 37.55 M-39.1 -4.2 Q-44.05 -34.25 -58.55 -21.95 -44.2 -27.9 -39.1 -4.2 M-23.4 51.5 Q-35.6 52.05 -41.15 7.3 -49.95 -15.3 -63.45 -2.8 -45.85 -12.2 -42.2 14.95 L-35.25 46.6 Q-30.15 59.95 -23.4 51.5 M-89.6 8.15 Q-85.95 5.35 -82.55 18.75 -83.7 1.65 -89.6 8.15 M-91.7 14.1 Q-88.05 11.3 -84.65 24.7 -85.8 7.6 -91.7 14.1 M-79.9 12.35 Q-81.05 -4.75 -86.95 1.75 -83.3 -1.05 -79.9 12.35" fill="#fffff3" fill-rule="evenodd" stroke="none"/>
      <path d="M76.8 -5.25 L67.75 -21.25 77.5 -15.65 Q73.5 -14.7 76.8 -5.25 M-16.7 -57.55 Q-15.8 -32.1 -2.9 -6.6 -12.8 0.65 -17.15 33.75 -18.45 5.75 -24.25 -40.75 L-22.85 -48.0 Q-20.75 -55.45 -16.7 -57.55 M-62.6 -36.2 Q-63.95 -16.25 -66.9 -8.0 -69.95 -6.5 -69.7 9.4 -72.3 20.05 -78.4 26.1 -72.3 9.15 -73.85 6.85 -74.2 -5.7 -69.0 -10.1 -65.5 -27.2 -68.4 -39.15 -65.65 -38.35 -62.6 -36.2 M-76.7 -38.0 Q-100.45 6.6 -95.1 24.15 -105.05 23.0 -107.65 33.5 -109.85 42.45 -106.4 50.2 -109.55 48.15 -110.8 42.65 -112.3 35.95 -110.35 26.35 -108.7 18.25 -93.5 -9.7 -79.0 -36.4 -76.7 -38.0 M86.9 14.25 Q91.6 26.05 96.3 19.15 L91.4 29.9 86.9 14.25 M55.85 17.9 L41.95 -20.75 60.4 3.25 Q56.4 7.25 55.85 17.9 M48.6 37.55 Q44.25 50.8 39.9 50.45 36.6 51.35 33.3 34.45 38.95 57.35 48.6 37.55 M-39.1 -4.2 Q-44.2 -27.9 -58.55 -21.95 -44.05 -34.25 -39.1 -4.2 M-91.7 14.1 Q-85.8 7.6 -84.65 24.7 -88.05 11.3 -91.7 14.1 M-89.6 8.15 Q-83.7 1.65 -82.55 18.75 -85.95 5.35 -89.6 8.15 M-23.4 51.5 Q-30.15 59.95 -35.25 46.6 L-42.2 14.95 Q-45.85 -12.2 -63.45 -2.8 -49.95 -15.3 -41.15 7.3 -35.6 52.05 -23.4 51.5 M-79.9 12.35 Q-83.3 -1.05 -86.95 1.75 -81.05 -4.75 -79.9 12.35" fill="#ffcfb7" fill-rule="evenodd" stroke="none"/>
      <path d="M-95.1 24.15 Q-90.85 25.45 -89.05 36.95 -80.0 55.2 -68.3 22.5 -54.45 -9.75 -43.55 28.7 -38.65 58.0 -27.85 59.25 -14.85 56.35 -9.7 18.8 -2.75 -9.95 8.85 -3.05 21.1 1.65 23.3 19.2 L33.2 49.75 Q39.6 64.25 53.85 37.8 60.25 22.8 60.05 12.6 66.6 -10.15 76.9 9.05 89.55 80.65 106.9 5.45 107.25 22.85 109.85 24.4 102.7 43.3 96.35 55.15 85.35 70.5 78.6 44.45 74.95 24.3 72.0 18.9 68.75 14.55 63.65 31.85 58.85 62.4 52.7 72.65 27.25 97.2 18.45 49.75 13.9 24.05 10.35 21.0 0.25 13.95 -7.3 46.0 -9.7 69.5 -20.35 76.05 -35.7 87.3 -55.35 39.8 -62.2 23.65 -67.05 35.9 -69.15 44.8 -72.65 51.0 -87.95 71.85 -89.75 43.5 -92.5 32.55 -99.15 42.95 -100.75 47.5 -106.4 50.2 -109.85 42.45 -107.65 33.5 -105.05 23.0 -95.1 24.15" fill="#000000" fill-rule="evenodd" stroke="none"/>
    </g>
    <g id="shape3">
      <path d="M-8.45 6.2 Q-11.9 4.2 -11.9 1.0 -11.9 -2.2 -8.45 -4.75 -4.95 -7.3 0.0 -7.7 4.95 -8.15 8.4 -6.15 11.9 -4.15 11.95 -0.9 11.9 2.3 8.4 4.85 4.95 7.4 0.0 7.8 -4.95 8.2 -8.45 6.2" fill="#000000" fill-opacity="0.3019608" fill-rule="evenodd" stroke="none"/>
    </g>
    <g id="shape4">
      <path d="M85.6 -58.65 Q96.35 -56.7 105.7 -48.85 132.2 1.05 102.45 24.05 92.55 31.7 83.15 35.05 96.2 8.45 85.6 -58.65 M-20.55 0.8 Q-35.55 -6.6 -36.6 -10.4 L-31.1 -10.15 -27.45 -11.15 Q-22.8 -13.25 -21.05 -17.4 -20.4 -18.9 -20.2 -20.55 L-19.45 -21.55 Q-19.0 -14.5 -12.75 -14.95 L-10.75 -15.2 -6.0 -20.75 Q-11.75 -22.2 -15.25 -25.25 L8.3 -30.55 Q-2.2 -9.2 -1.05 5.45 -10.1 5.6 -20.55 0.8 M34.05 -42.3 L45.55 -48.75 Q56.25 -54.55 58.55 -55.4 66.55 9.6 52.35 32.7 24.6 7.2 23.15 -6.8 26.35 -23.4 34.05 -42.3" fill="#ef0000" fill-rule="evenodd" stroke="none"/>
      <path d="M58.55 -55.4 Q60.8 -57.1 72.6 -58.65 84.4 -60.2 85.6 -58.65 96.2 8.45 83.15 35.05 66.7 40.85 52.35 32.7 66.55 9.6 58.55 -55.4 M8.3 -30.55 Q22.15 -34.5 34.05 -42.3 26.35 -23.4 23.15 -6.8 L23.05 -6.9 Q12.7 5.15 -1.05 5.45 -2.2 -9.2 8.3 -30.55" fill="#0000db" fill-rule="evenodd" stroke="none"/>
      <path d="M105.7 -48.85 Q116.35 -39.85 119.7 -25.8 124.4 -6.4 120.7 13.35 114.95 46.55 64.0 55.6 66.15 54.65 73.6 46.85 81.35 38.7 83.15 35.05 92.55 31.7 102.45 24.05 132.2 1.05 105.7 -48.85 M37.1 44.45 L21.7 29.45 Q19.3 12.95 23.15 -6.8 24.6 7.2 52.35 32.7 48.65 38.7 37.1 44.45 M0.1 11.85 Q-11.9 5.3 -20.55 0.8 -10.1 5.6 -1.05 5.45 -0.85 8.75 0.1 11.85" fill="#970000" fill-rule="evenodd" stroke="none"/>
      <path d="M64.0 55.6 Q52.9 55.6 37.1 44.45 48.65 38.7 52.35 32.7 66.7 40.85 83.15 35.05 81.35 38.7 73.6 46.85 66.15 54.65 64.0 55.6 M21.7 29.45 Q11.25 19.65 0.1 11.85 -0.85 8.75 -1.05 5.45 12.7 5.15 23.05 -6.9 L23.15 -6.8 Q19.3 12.95 21.7 29.45" fill="#000066" fill-rule="evenodd" stroke="none"/>
      <path d="M-87.65 -14.5 Q-88.95 -23.35 -91.2 -27.5 -88.2 -24.15 -75.25 -21.45 L-62.1 -19.3 -75.2 -18.1 Q-84.7 -16.6 -87.65 -14.5 M-53.75 -25.6 Q-53.4 -25.35 -53.35 -24.85 -53.3 -24.4 -53.55 -24.05 -53.85 -23.7 -54.35 -23.6 L-55.2 -23.8 -55.65 -24.5 Q-55.7 -25.0 -55.4 -25.35 -55.15 -25.75 -54.65 -25.8 L-53.75 -25.6 M-40.8 -24.95 Q-41.0 -25.45 -40.8 -25.9 L-40.15 -26.6 Q-39.75 -26.8 -39.3 -26.6 -38.85 -26.45 -38.65 -25.95 -38.45 -25.5 -38.65 -25.0 -38.85 -24.55 -39.3 -24.35 L-40.15 -24.3 -40.8 -24.95" fill="#ffffff" fill-rule="evenodd" stroke="none"/>
      <path d="M-55.95 -21.3 L-56.65 -21.3 Q-57.65 -22.0 -57.8 -23.15 -57.95 -24.35 -57.2 -25.3 -56.4 -26.2 -55.1 -26.45 -53.95 -26.65 -52.9 -25.95 -51.9 -25.25 -51.75 -24.1 -51.6 -22.9 -52.4 -21.95 L-52.95 -21.4 -55.95 -21.3 M-53.75 -25.6 L-54.65 -25.8 Q-55.15 -25.75 -55.4 -25.35 -55.7 -25.0 -55.65 -24.5 L-55.2 -23.8 -54.35 -23.6 Q-53.85 -23.7 -53.55 -24.05 -53.3 -24.4 -53.35 -24.85 -53.4 -25.35 -53.75 -25.6 M-40.8 -24.95 L-40.15 -24.3 -39.3 -24.35 Q-38.85 -24.55 -38.65 -25.0 -38.45 -25.5 -38.65 -25.95 -38.85 -26.45 -39.3 -26.6 -39.75 -26.8 -40.15 -26.6 L-40.8 -25.9 Q-41.0 -25.45 -40.8 -24.95 M-41.8 -24.5 L-41.55 -25.7 Q-41.0 -26.95 -39.9 -27.5 L-37.55 -27.55 Q-36.4 -27.1 -35.9 -25.85 -35.35 -24.65 -35.9 -23.35 -36.45 -22.05 -37.6 -21.55 L-39.7 -21.45 Q-40.4 -23.55 -41.8 -24.5" fill="#000000" fill-rule="evenodd" stroke="none"/>
      <path d="M-64.2 -29.5 Q-62.85 -30.55 -58.9 -32.5 L-53.95 -34.65 -51.65 -35.2 -51.6 -35.2 -48.0 -35.85 -48.0 -35.9 -41.05 -36.65 -40.95 -36.65 -40.6 -36.7 Q-30.75 -37.45 -25.75 -35.25 L-29.0 -32.85 Q-34.25 -35.35 -45.05 -34.4 L-49.8 -33.9 Q-59.9 -32.75 -64.2 -29.5" fill="#ffb871" fill-rule="evenodd" stroke="none"/>
      <path d="M-36.6 -10.4 Q-39.4 -11.9 -41.0 -16.35 -41.05 -17.7 -42.35 -19.8 -43.9 -22.3 -45.75 -22.6 -46.4 -22.75 -50.55 -21.45 -49.8 -23.2 -48.15 -24.05 L-46.2 -24.7 Q-41.7 -24.85 -40.45 -19.9 -38.0 -11.15 -32.7 -11.9 -29.55 -12.3 -28.05 -13.7 -25.05 -21.35 -26.7 -27.35 -28.25 -33.55 -41.7 -33.1 L-51.7 -32.15 Q-59.1 -31.05 -62.75 -28.5 L-63.15 -28.25 Q-65.7 -26.25 -65.95 -23.5 L-66.05 -21.7 -67.8 -21.8 -67.7 -23.65 Q-67.55 -25.7 -64.2 -29.5 -59.9 -32.75 -49.8 -33.9 L-45.05 -34.4 Q-34.25 -35.35 -29.0 -32.85 L-27.6 -32.0 -26.35 -30.95 Q-25.3 -29.9 -24.8 -28.2 -23.35 -21.65 -23.45 -19.4 -23.55 -16.95 -24.1 -15.25 -25.05 -12.5 -27.45 -11.15 L-31.1 -10.15 -36.6 -10.4 M-50.1 -13.6 L-50.7 -11.95 Q-52.25 -8.4 -55.6 -7.85 -61.95 -6.3 -65.05 -9.6 L-62.65 -10.6 Q-60.7 -9.2 -57.35 -9.45 -55.3 -9.6 -53.85 -11.1 L-53.65 -11.3 Q-52.9 -12.2 -52.4 -13.3 L-50.1 -13.6 M-19.6 -28.45 Q-19.15 -26.4 -19.15 -24.3 L-19.2 -23.25 -19.55 -22.75 -19.75 -22.5 -20.2 -21.85 -21.25 -20.75 Q-21.15 -24.2 -22.05 -27.65 L-20.85 -28.45 -20.55 -28.8 -20.1 -29.35 -19.9 -29.6 -19.6 -28.45 M-18.2 -26.7 L-16.65 -24.95 Q-13.35 -21.8 -7.9 -20.5 L-12.75 -14.95 Q-19.0 -14.5 -19.45 -21.55 L-18.1 -23.75 -18.2 -26.7" fill="#333333" fill-rule="evenodd" stroke="none"/>
      <path d="M-65.2 -21.65 L-66.05 -21.7 -65.95 -23.5 Q-65.7 -26.25 -63.15 -28.25 -64.9 -26.5 -65.05 -24.25 L-65.2 -21.65 M-50.55 -21.45 Q-49.85 -23.55 -48.05 -24.55 -46.95 -25.2 -45.25 -25.45 -43.2 -25.5 -41.8 -24.5 -40.4 -23.55 -39.7 -21.45 L-39.5 -20.7 Q-37.1 -11.9 -31.8 -12.65 -29.3 -12.95 -28.05 -13.7 -29.55 -12.3 -32.7 -11.9 -38.0 -11.15 -40.45 -19.9 -41.7 -24.85 -46.2 -24.7 L-48.15 -24.05 Q-49.8 -23.2 -50.55 -21.45 M-62.65 -10.6 L-61.3 -11.1 Q-59.5 -10.0 -56.45 -10.25 -54.9 -10.35 -53.85 -11.1 -55.3 -9.6 -57.35 -9.45 -60.7 -9.2 -62.65 -10.6" fill="#9f9f9f" fill-rule="evenodd" stroke="none"/>
      <path d="M-22.95 -33.4 Q-21.9 -32.35 -21.4 -31.05 -22.5 -29.75 -24.8 -28.2 -25.3 -29.9 -26.35 -30.95 L-22.95 -33.4" fill="#ff8d1c" fill-rule="evenodd" stroke="none"/>
      <path d="M-24.1 -15.25 Q-23.55 -16.95 -23.45 -19.4 L-23.45 -18.3 -22.2 -18.4 -20.2 -20.55 Q-20.4 -18.9 -21.05 -17.4 L-24.1 -15.25" fill="#f27900" fill-rule="evenodd" stroke="none"/>
      <path d="M-25.75 -35.25 L-24.25 -34.45 -27.6 -32.0 -29.0 -32.85 -25.75 -35.25" fill="#ffa851" fill-rule="evenodd" stroke="none"/>
      <path d="M-24.25 -34.45 L-22.95 -33.4 -26.35 -30.95 -27.6 -32.0 -24.25 -34.45" fill="#ff9933" fill-rule="evenodd" stroke="none"/>
      <path d="M-24.1 -15.25 L-21.05 -17.4 Q-22.8 -13.25 -27.45 -11.15 -25.05 -12.5 -24.1 -15.25" fill="#df7000" fill-rule="evenodd" stroke="none"/>
      <path d="M-21.4 -31.05 L-20.9 -31.65 -19.3 -31.95 -19.3 -31.9 -23.25 -28.0 -24.8 -28.2 Q-22.5 -29.75 -21.4 -31.05" fill="#ffff99" fill-rule="evenodd" stroke="none"/>
      <path d="M-19.3 -31.9 L-18.6 -29.3 -18.2 -26.7 -18.1 -23.75 -19.45 -21.55 -20.2 -20.55 -22.2 -18.4 Q-21.6 -23.25 -23.25 -28.0 L-19.3 -31.9 M-19.6 -28.45 L-19.9 -29.6 -20.1 -29.35 -20.55 -28.8 -20.85 -28.45 -22.05 -27.65 Q-21.15 -24.2 -21.25 -20.75 L-20.2 -21.85 -19.75 -22.5 -19.55 -22.75 -19.2 -23.25 -19.15 -24.3 Q-19.15 -26.4 -19.6 -28.45" fill="#ffcc00" fill-rule="evenodd" stroke="none"/>
      <path d="M-18.6 -29.3 Q-17.2 -27.0 -15.25 -25.25 -11.75 -22.2 -6.0 -20.75 L-10.75 -15.2 -12.75 -14.95 -7.9 -20.5 Q-13.35 -21.8 -16.65 -24.95 L-18.2 -26.7 -18.6 -29.3" fill="#666666" fill-rule="evenodd" stroke="none"/>
      <path d="M-24.8 -28.2 L-23.25 -28.0 Q-21.6 -23.25 -22.2 -18.4 L-23.45 -18.3 -23.45 -19.4 Q-23.35 -21.65 -24.8 -28.2" fill="#cc9900" fill-rule="evenodd" stroke="none"/>
      <path d="M-92.35 6.75 Q-97.25 10.95 -100.8 7.9 L-100.7 7.9 Q-106.4 3.65 -109.4 -9.9 L-110.1 -14.7 Q-110.6 -18.25 -110.15 -22.5 L-109.3 -29.3 Q-108.85 -31.9 -107.4 -33.75 -103.6 -38.95 -99.65 -36.95 L-97.0 -35.0 -96.95 -34.95 Q-93.9 -31.9 -92.2 -26.65 -89.95 -19.75 -89.35 -16.15 -88.8 -13.0 -88.75 -10.6 L-89.05 -1.9 Q-89.4 2.3 -92.35 6.75 M-94.35 -25.2 Q-95.2 -27.65 -97.35 -30.85 -100.4 -35.45 -102.75 -35.35 -104.2 -35.25 -106.15 -31.7 -108.9 -26.75 -108.3 -19.25 -107.5 -9.0 -106.0 -4.35 -104.8 -0.25 -104.05 0.9 -99.8 7.55 -97.15 7.25 -94.1 6.85 -92.35 0.35 L-91.8 -3.3 Q-91.2 -9.3 -92.05 -15.15 -92.8 -20.8 -94.35 -25.2" fill="#fe9a03" fill-rule="evenodd" stroke="none"/>
      <path d="M-91.8 -3.3 L-92.35 0.35 Q-94.1 6.85 -97.15 7.25 -99.8 7.55 -104.05 0.9 -104.8 -0.25 -106.0 -4.35 -107.5 -9.0 -108.3 -19.25 -108.9 -26.75 -106.15 -31.7 -104.2 -35.25 -102.75 -35.35 -100.4 -35.45 -97.35 -30.85 -95.2 -27.65 -94.35 -25.2 -99.55 -12.95 -91.8 -3.3" fill="#7a1d05" fill-rule="evenodd" stroke="none"/>
      <path d="M-96.95 -34.95 L-86.4 -27.1 Q-81.05 -23.1 -67.8 -21.8 L-66.05 -21.7 -65.2 -21.65 -65.1 -21.65 -56.65 -21.3 -55.95 -21.3 -54.8 -16.95 Q-57.5 -16.1 -69.9 -13.65 -83.8 -10.95 -88.7 -10.65 L-88.75 -10.6 Q-88.8 -13.0 -89.35 -16.15 -89.95 -19.75 -92.2 -26.65 -93.9 -31.9 -96.95 -34.95 M-87.65 -14.5 Q-84.7 -16.6 -75.2 -18.1 L-62.1 -19.3 -75.25 -21.45 Q-88.2 -24.15 -91.2 -27.5 -88.95 -23.35 -87.65 -14.5" fill="#fcd35a" fill-rule="evenodd" stroke="none"/>
      <path d="M-88.75 -10.6 L-88.7 -10.65 Q-83.8 -10.95 -69.9 -13.65 -57.5 -16.1 -54.8 -16.95 L-54.45 -15.6 Q-59.0 -14.55 -71.45 -9.8 -84.55 -4.75 -89.05 -1.9 L-88.75 -10.6" fill="#fbc115" fill-rule="evenodd" stroke="none"/>
      <path d="M-94.35 -25.2 Q-92.8 -20.8 -92.05 -15.15 -91.2 -9.3 -91.8 -3.3 -99.55 -12.95 -94.35 -25.2" fill="#4b1203" fill-rule="evenodd" stroke="none"/>
      <path d="M-65.05 -9.6 Q-70.2 -7.1 -92.35 6.75 -89.4 2.3 -89.05 -1.9 -84.55 -4.75 -71.45 -9.8 -59.0 -14.55 -54.45 -15.6 L-53.8 -13.1 -58.45 -12.0 -61.3 -11.1 -62.65 -10.6 -65.05 -9.6" fill="#e98c01" fill-rule="evenodd" stroke="none"/>
      <path d="M-53.95 -34.65 Q-38.1 -45.7 -21.7 -72.5 -21.3 -71.5 -20.15 -70.85 -35.95 -45.8 -47.1 -36.6 -30.25 -41.6 5.85 -69.95 7.8 -68.85 7.7 -68.6 1.45 -63.1 -7.8 -56.35 -26.25 -42.85 -40.95 -36.65 L-41.05 -36.65 -48.0 -35.9 -48.0 -35.85 -51.6 -35.2 -51.65 -35.2 -53.95 -34.65" fill="#ff0000" fill-rule="evenodd" stroke="none"/>
      <path d="M5.85 -69.95 Q4.95 -70.85 4.55 -72.45 3.9 -74.85 5.1 -76.9 6.05 -78.75 8.7 -79.65 11.0 -80.4 13.2 -79.05 15.25 -77.85 15.9 -75.45 16.55 -73.15 15.35 -71.0 14.1 -68.95 11.75 -68.25 9.55 -67.7 7.7 -68.6 7.8 -68.85 5.85 -69.95" fill="url(#gradient0)" fill-rule="evenodd" stroke="none"/>
      <path d="M-21.7 -72.5 L-22.45 -74.25 Q-23.15 -76.7 -21.9 -78.7 -20.7 -80.75 -18.3 -81.45 -15.9 -82.1 -13.8 -80.85 -12.05 -79.85 -11.3 -78.0 L-11.1 -77.25 Q-10.45 -74.95 -11.65 -72.75 -12.9 -70.7 -15.25 -70.05 -17.6 -69.4 -19.75 -70.6 L-20.15 -70.85 Q-21.3 -71.5 -21.7 -72.5" fill="url(#gradient1)" fill-rule="evenodd" stroke="none"/>
      <path d="M-56.65 -21.3 L-65.1 -21.65 Q-65.25 -25.2 -63.0 -28.2 L-62.75 -28.5 Q-59.1 -31.05 -51.7 -32.15 -49.0 -31.4 -46.4 -28.8 -47.6 -27.05 -48.05 -24.55 -49.85 -23.55 -50.55 -21.45 L-52.95 -21.4 -52.4 -21.95 Q-51.6 -22.9 -51.75 -24.1 -51.9 -25.25 -52.9 -25.95 -53.95 -26.65 -55.1 -26.45 -56.4 -26.2 -57.2 -25.3 -57.95 -24.35 -57.8 -23.15 -57.65 -22.0 -56.65 -21.3 M-58.45 -12.0 L-53.8 -13.1 -52.4 -13.3 Q-52.9 -12.2 -53.65 -11.3 -56.35 -11.05 -58.45 -12.0" fill="url(#gradient2)" fill-rule="evenodd" stroke="none"/>
      <path d="M-48.05 -24.55 Q-47.6 -27.05 -46.4 -28.8 -43.3 -32.3 -41.7 -33.1 -28.25 -33.55 -26.7 -27.35 -25.05 -21.35 -28.05 -13.7 -29.3 -12.95 -31.8 -12.65 -37.1 -11.9 -39.5 -20.7 L-39.7 -21.45 -37.6 -21.55 Q-36.45 -22.05 -35.9 -23.35 -35.35 -24.65 -35.9 -25.85 -36.4 -27.1 -37.55 -27.55 L-39.9 -27.5 Q-41.0 -26.95 -41.55 -25.7 L-41.8 -24.5 Q-43.2 -25.5 -45.25 -25.45 -46.95 -25.2 -48.05 -24.55" fill="url(#gradient3)" fill-rule="evenodd" stroke="none"/>
      <path d="M-41.0 -16.35 Q-40.95 -15.2 -42.05 -13.45 -43.15 -11.6 -44.2 -11.45 -46.45 -11.2 -47.05 -11.8 L-48.35 -13.15 -50.1 -13.6 -52.4 -13.3 -53.8 -13.1 -54.45 -15.6 -54.8 -16.95 -55.95 -21.3 -52.95 -21.4 -50.55 -21.45 Q-46.4 -22.75 -45.75 -22.6 -43.9 -22.3 -42.35 -19.8 -41.05 -17.7 -41.0 -16.35" fill="url(#gradient4)" fill-rule="evenodd" stroke="none"/>
      <path d="M40.25 -28.25 Q23.45 -17.7 10.7 -20.85 25.35 -22.5 43.65 -37.85 88.6 -75.45 113.8 -30.0 104.65 -39.9 95.65 -42.0 86.7 -44.05 71.85 -41.45 57.0 -38.85 40.25 -28.25" fill="#ffffff" fill-opacity="0.4117647" fill-rule="evenodd" stroke="none"/>
    </g>
    <radialGradient cx="0" cy="0" gradientTransform="matrix(-0.0089, 0.0024, 0.0024, 0.0089, 10.7, -75.35)" gradientUnits="userSpaceOnUse" id="gradient0" r="819.2" spreadMethod="pad">
      <stop offset="0.0" stop-color="#fbf6e7"/>
      <stop offset="0.4588235294117647" stop-color="#ffa737"/>
      <stop offset="1.0" stop-color="#b54200"/>
    </radialGradient>
    <radialGradient cx="0" cy="0" gradientTransform="matrix(-0.0089, 0.0024, 0.0024, 0.0089, -16.3, -77.15)" gradientUnits="userSpaceOnUse" id="gradient1" r="819.2" spreadMethod="pad">
      <stop offset="0.0" stop-color="#fbf6e7"/>
      <stop offset="0.4588235294117647" stop-color="#ffa737"/>
      <stop offset="1.0" stop-color="#b54200"/>
    </radialGradient>
    <radialGradient cx="0" cy="0" gradientTransform="matrix(-0.0158, -0.0091, -0.0091, 0.0158, -50.25, -22.0)" gradientUnits="userSpaceOnUse" id="gradient2" r="819.2" spreadMethod="pad">
      <stop offset="0.25098039215686274" stop-color="#ffffff"/>
      <stop offset="0.8549019607843137" stop-color="#8eb5f8"/>
      <stop offset="0.996078431372549" stop-color="#0859d4"/>
    </radialGradient>
    <radialGradient cx="0" cy="0" gradientTransform="matrix(-0.0179, 0.0103, 0.0103, 0.0179, -34.2, -26.75)" gradientUnits="userSpaceOnUse" id="gradient3" r="819.2" spreadMethod="pad">
      <stop offset="0.25098039215686274" stop-color="#ffffff"/>
      <stop offset="0.8549019607843137" stop-color="#8eb5f8"/>
      <stop offset="0.996078431372549" stop-color="#0859d4"/>
    </radialGradient>
    <linearGradient gradientTransform="matrix(-0.0105, 0.0028, 0.002, 0.0077, -45.85, -17.35)" gradientUnits="userSpaceOnUse" id="gradient4" spreadMethod="pad" x1="-819.2" x2="819.2">
      <stop offset="0.0" stop-color="#ef0000"/>
      <stop offset="1.0" stop-color="#fcd35a"/>
    </linearGradient>
    <g id="sprite0">
      <use ffdec:characterId="15" height="26.0" transform="matrix(1.0, 0.0, 0.0, 1.0, 0.0, 0.0)" width="250.65" xlink:href="#morphshape0"/>
    </g>
    <g id="morphshape0">
      <path d="M-142.7 -12.95 L0.8 -12.95 Q40.35 -16.1 44.7 -23.2 44.05 -29.4 76.05 -30.65 108.05 -31.9 107.9 -38.95 L22.85 -38.95 Q17.0 -32.35 -14.6 -33.1 -71.45 -31.65 -77.55 -23.2 -81.1 -16.3 -142.7 -12.95" fill="#240000" fill-opacity="0.3019608" fill-rule="evenodd" stroke="none"/>
      <path d="M-142.7 -12.95 Q-81.1 -16.3 -77.55 -23.2 -71.45 -31.65 -14.6 -33.1 17.0 -32.35 22.85 -38.95 L107.9 -38.95 Q108.05 -31.9 76.05 -30.65 44.05 -29.4 44.7 -23.2 40.35 -16.1 0.8 -12.95 L-142.7 -12.95 Z" ffdec:has-small-stroke="true" ffdec:original-stroke-width="0.0" fill="none" stroke="#000000" stroke-linecap="round" stroke-linejoin="round" stroke-opacity="0.0" stroke-width="1.0"/>
    </g>
    <g id="shape5">
      <path d="M-41.05 70.95 Q-34.4 -16.55 -38.3 -114.75 -19.15 -112.6 45.55 -115.45 39.05 -24.05 44.05 70.0 1.45 67.65 -41.05 70.95" fill="#0000ab" fill-rule="evenodd" stroke="none"/>
    </g>
    <g id="shape6">
      <path d="M-43.2 -33.85 L-43.25 -7.95 -16.45 -6.05 -43.55 -5.8 Q-39.95 1.5 -42.7 7.75 L-32.8 9.55 Q-35.8 10.65 -43.0 9.55 -41.3 16.25 -44.0 23.0 L-45.5 22.75 Q-44.2 16.55 -44.0 9.55 -43.65 2.85 -44.3 -7.5 -44.85 -15.6 -44.7 -33.85 L-43.2 -33.85" fill="#d28a10" fill-rule="evenodd" stroke="none"/>
      <path d="M-44.0 23.0 Q-41.3 16.25 -43.0 9.55 -35.8 10.65 -32.8 9.55 L-42.7 7.75 Q-39.95 1.5 -43.55 -5.8 L-16.45 -6.05 -43.25 -7.95 -43.2 -33.85 Q13.7 -39.6 45.5 -33.05 43.5 -5.65 43.6 5.2 38.7 7.5 32.15 8.0 L43.65 8.0 Q42.95 16.55 44.95 23.0 L-44.0 23.0" fill="#edab3c" fill-rule="evenodd" stroke="none"/>
    </g>
    <g id="shape7">
      <path d="M5.85 -14.1 Q-19.5 -19.25 -38.35 -18.6 L-38.35 -20.3 Q7.75 -19.75 38.35 -15.15 L38.35 -11.85 Q24.6 -11.4 5.85 -14.1" fill="#d28a10" fill-opacity="0.4392157" fill-rule="evenodd" stroke="none"/>
    </g>
    <g id="shape8">
      <path d="M-2.65 -107.9 L-2.1 -107.9 Q1.25 -107.85 1.7 -105.3 9.55 8.8 3.4 104.05 2.95 107.0 -1.6 107.95 8.15 89.2 -2.65 -107.9" fill="#f7be66" fill-rule="evenodd" stroke="none"/>
      <path d="M-1.6 107.95 Q-6.5 107.4 -6.0 104.15 1.85 8.8 -6.0 -105.3 -5.5 -107.8 -2.65 -107.9 8.15 89.2 -1.6 107.95" fill="#d28a10" fill-rule="evenodd" stroke="none"/>
    </g>
    <g id="shape9">
      <path d="M2.7 -107.9 L2.55 -105.1 Q-8.05 89.35 1.65 107.95 -2.9 107.0 -3.35 104.05 -9.5 9.05 -1.7 -104.7 L-1.65 -105.3 Q-1.35 -107.0 2.7 -107.9" fill="#d28a10" fill-rule="evenodd" stroke="none"/>
      <path d="M1.65 107.95 Q-8.05 89.35 2.55 -105.1 L2.7 -107.9 Q5.5 -107.8 6.05 -105.35 L6.05 -105.3 Q-1.8 8.8 6.05 104.15 6.55 107.4 1.65 107.95" fill="#f7be66" fill-rule="evenodd" stroke="none"/>
    </g>
    <g id="shape10">
      <path d="M2.45 -4.15 Q3.8 0.05 2.55 4.0 L-0.35 4.1 Q0.8 2.1 0.2 -4.15 L2.45 -4.15" fill="#000000" fill-opacity="0.3019608" fill-rule="evenodd" stroke="none"/>
    </g>
    <g id="shape11">
      <path d="M-4.5 -7.25 Q-0.3 -2.9 5.3 5.1 5.35 6.8 3.85 6.3 -1.05 -1.1 -5.95 -5.8 -6.65 -7.95 -4.5 -7.25" fill="#391000" fill-rule="evenodd" stroke="none"/>
    </g>
    <g id="shape12">
      <path d="M0.1 -1.9 L2.9 -5.1 Q4.6 -5.65 4.05 -3.95 L1.05 -0.75 5.7 5.6 Q5.75 7.3 4.25 6.8 L-0.15 0.7 -3.65 5.55 Q-4.85 5.95 -4.8 4.6 L-1.05 -0.45 -5.55 -5.3 Q-6.25 -7.45 -4.1 -6.75 -2.15 -4.75 0.1 -1.9" fill="#391000" fill-rule="evenodd" stroke="none"/>
    </g>
  </defs>
</svg>
