<?xml version="1.0" encoding="UTF-8" standalone="no"?>
<svg xmlns:ffdec="https://www.free-decompiler.com/flash" xmlns:xlink="http://www.w3.org/1999/xlink" ffdec:objectType="frame" height="410.0px" width="590.0px" xmlns="http://www.w3.org/2000/svg">
  <g transform="matrix(1.0, 0.0, 0.0, 1.0, 0.0, 0.0)">
    
    <use ffdec:characterId="1" height="98.9" transform="matrix(0.1927, 0.0, 0.0, 0.1927, 55.75, 280.6)" width="212.55" xlink:href="#shape0"/>
    <use ffdec:characterId="2" height="139.7" transform="matrix(0.1927, 0.0, 0.0, 0.1927, 62.05, 271.15)" width="218.9" xlink:href="#shape1"/>
    <use ffdec:characterId="3" height="140.4" transform="matrix(0.1927, 0.0, 0.0, 0.1927, 62.05, 264.85)" width="221.3" xlink:href="#shape2"/>
    <use ffdec:characterId="1" height="98.9" transform="matrix(0.2259, 0.0, 0.0, 0.2259, 484.6, 399.6)" width="212.55" xlink:href="#shape0"/>
    <use ffdec:characterId="2" height="139.7" transform="matrix(0.2259, 0.0, 0.0, 0.2259, 492.0, 388.55)" width="218.9" xlink:href="#shape1"/>
    <use ffdec:characterId="3" height="140.4" transform="matrix(0.2259, 0.0, 0.0, 0.2259, 492.0, 381.15)" width="221.3" xlink:href="#shape2"/>
    <use ffdec:characterId="1" height="98.9" transform="matrix(0.1927, 0.0, 0.0, 0.1927, 542.85, 365.65)" width="212.55" xlink:href="#shape0"/>
    <use ffdec:characterId="2" height="139.7" transform="matrix(0.1927, 0.0, 0.0, 0.1927, 549.15, 356.2)" width="218.9" xlink:href="#shape1"/>
    <use ffdec:characterId="3" height="140.4" transform="matrix(0.1927, 0.0, 0.0, 0.1927, 549.15, 349.9)" width="221.3" xlink:href="#shape2"/>
    <use ffdec:characterId="4" height="15.65" transform="matrix(5.1799, 0.0, 0.0, 1.2564, 369.0, 326.35)" width="23.85" xlink:href="#shape3"/>
    <use ffdec:characterId="10" height="88.7" transform="matrix(-1.0, 0.0, 0.0, 1.0, 394.4, 125.15)" width="79.2" xlink:href="#sprite0"/>
    <use ffdec:characterId="13" height="144.1" transform="matrix(-1.1967, 0.054, 0.054, 1.1967, 365.7, 213.6)" width="103.9" xlink:href="#shape5"/>
    <use ffdec:characterId="12" height="21.8" transform="matrix(-0.9944, -0.3152, -0.3152, 0.9944, 368.1, 156.4)" width="21.85" xlink:href="#sprite2"/>
    <use ffdec:characterId="12" height="21.8" transform="matrix(-0.8685, 0.7934, 0.7934, 0.8685, 387.05, 151.6)" width="21.85" xlink:href="#sprite2"/>
    <use ffdec:characterId="50" height="63.8" transform="matrix(1.8464, 0.0, 0.0, 1.8464, 427.25, 346.3)" width="63.8" xlink:href="#shape7"/>
    <use ffdec:characterId="1" height="98.9" transform="matrix(0.2262, 0.0, 0.0, 0.2262, 421.75, 361.4)" width="212.55" xlink:href="#shape0"/>
    <use ffdec:characterId="2" height="139.7" transform="matrix(0.2262, 0.0, 0.0, 0.2262, 429.15, 350.35)" width="218.9" xlink:href="#shape1"/>
    <use ffdec:characterId="3" height="140.4" transform="matrix(0.2262, 0.0, 0.0, 0.2262, 429.15, 342.95)" width="221.3" xlink:href="#shape2"/>
    <use ffdec:characterId="17" height="26.0" transform="matrix(1.0, 0.0, 0.0, 1.0, 170.5, 350.65)" width="250.65" xlink:href="#sprite3"/>
    <use ffdec:characterId="18" height="186.4" transform="matrix(1.0, 0.0, 0.0, 1.0, 236.0, 183.15)" width="86.6" xlink:href="#shape8"/>
    <use ffdec:characterId="19" height="59.55" transform="matrix(1.0, 0.0, 0.0, 1.0, 235.25, 293.95)" width="91.0" xlink:href="#shape9"/>
    <use ffdec:characterId="20" height="8.5" transform="matrix(1.1329, 0.0, 0.0, 0.7952, 235.45, 295.65)" width="76.7" xlink:href="#shape10"/>
    <use ffdec:characterId="20" height="8.5" transform="matrix(-1.1199, 0.0, 0.0, -0.7952, 235.8, 282.0)" width="76.7" xlink:href="#shape10"/>
    <use ffdec:characterId="20" height="8.5" transform="matrix(-1.1199, 0.0, 0.0, -0.7952, 236.85, 300.05)" width="76.7" xlink:href="#shape10"/>
    <use ffdec:characterId="20" height="8.5" transform="matrix(1.1199, 0.0, 0.0, 0.7952, 236.15, 322.8)" width="76.7" xlink:href="#shape10"/>
    <use ffdec:characterId="20" height="8.5" transform="matrix(-1.1484, 0.0, 0.0, -0.7952, 236.25, 257.75)" width="76.7" xlink:href="#shape10"/>
    <use ffdec:characterId="20" height="8.5" transform="matrix(1.1484, 0.0, 0.0, 0.7952, 235.55, 279.3)" width="76.7" xlink:href="#shape10"/>
    <use ffdec:characterId="21" height="215.85" transform="matrix(1.0, 0.0, 0.0, 1.0, 195.1, 157.8)" width="12.15" xlink:href="#shape11"/>
    <use ffdec:characterId="22" height="215.85" transform="matrix(1.0, 0.0, 0.0, 1.0, 278.45, 157.3)" width="12.15" xlink:href="#shape12"/>
    <use ffdec:characterId="23" height="8.25" transform="matrix(0.0058, -1.9999, 1.0612, 0.0109, 276.7, 191.15)" width="3.5" xlink:href="#shape13"/>
    <use ffdec:characterId="23" height="8.25" transform="matrix(0.0056, -1.9999, 1.025, 0.0109, 196.9, 191.15)" width="3.5" xlink:href="#shape13"/>
    <use ffdec:characterId="23" height="8.25" transform="matrix(0.006, -1.2539, 1.0975, 0.0068, 193.95, 262.65)" width="3.5" xlink:href="#shape13"/>
    <use ffdec:characterId="23" height="8.25" transform="matrix(0.006, -1.2539, 1.0975, 0.0068, 279.4, 262.7)" width="3.5" xlink:href="#shape13"/>
    <use ffdec:characterId="21" height="215.85" transform="matrix(0.0, -1.0, 0.4576, 0.0, 235.2, 255.75)" width="12.15" xlink:href="#shape11"/>
    <use ffdec:characterId="23" height="8.25" transform="matrix(0.0054, -1.0, 1.0, 0.0054, 194.2, 70.45)" width="3.5" xlink:href="#shape13"/>
    <use ffdec:characterId="23" height="8.25" transform="matrix(0.0054, -1.0, 1.0, 0.0054, 279.4, 71.45)" width="3.5" xlink:href="#shape13"/>
    <use ffdec:characterId="22" height="215.85" transform="matrix(-0.0053, -1.0, 0.4858, -0.0023, 236.0, 65.2)" width="12.15" xlink:href="#shape12"/>
    <use ffdec:characterId="23" height="8.25" transform="matrix(1.0, 0.0, 0.0, 1.0, 229.6, 67.05)" width="3.5" xlink:href="#shape13"/>
    <use ffdec:characterId="23" height="8.25" transform="matrix(0.0059, -1.1428, 1.0843, 0.0062, 277.8, 228.8)" width="3.5" xlink:href="#shape13"/>
    <use ffdec:characterId="23" height="8.25" transform="matrix(0.0059, -1.1428, 1.0843, 0.0062, 195.9, 227.2)" width="3.5" xlink:href="#shape13"/>
    <use ffdec:characterId="21" height="215.85" transform="matrix(0.0, -1.0, 0.4576, 0.0, 233.0, 220.35)" width="12.15" xlink:href="#shape11"/>
    <use ffdec:characterId="23" height="8.25" transform="matrix(0.0054, -1.0, 1.0, 0.0054, 196.2, 110.05)" width="3.5" xlink:href="#shape13"/>
    <use ffdec:characterId="23" height="8.25" transform="matrix(0.0054, -1.0, 1.0, 0.0054, 277.6, 111.05)" width="3.5" xlink:href="#shape13"/>
    <use ffdec:characterId="22" height="215.85" transform="matrix(-0.0053, -1.0, 0.4858, -0.0023, 235.95, 104.2)" width="12.15" xlink:href="#shape12"/>
    <use ffdec:characterId="23" height="8.25" transform="matrix(0.0054, -1.0, 1.0, 0.0054, 197.2, 147.55)" width="3.5" xlink:href="#shape13"/>
    <use ffdec:characterId="23" height="8.25" transform="matrix(0.0054, -1.0, 1.0, 0.0054, 276.6, 148.15)" width="3.5" xlink:href="#shape13"/>
    <use ffdec:characterId="22" height="215.85" transform="matrix(-0.0053, -1.0, 0.4858, -0.0023, 235.95, 141.6)" width="12.15" xlink:href="#shape12"/>
    <use ffdec:characterId="21" height="215.85" transform="matrix(0.0, -1.0, 0.4576, 0.0, 235.85, 183.05)" width="12.15" xlink:href="#shape11"/>
    <use ffdec:characterId="23" height="8.25" transform="matrix(1.0, 0.0, 0.0, 1.0, 227.8, 106.05)" width="3.5" xlink:href="#shape13"/>
    <use ffdec:characterId="23" height="8.25" transform="matrix(1.0, 0.0, 0.0, 1.0, 227.4, 143.35)" width="3.5" xlink:href="#shape13"/>
    <use ffdec:characterId="23" height="8.25" transform="matrix(1.0, 0.0, 0.0, 1.0, 227.4, 181.35)" width="3.5" xlink:href="#shape13"/>
    <use ffdec:characterId="23" height="8.25" transform="matrix(1.0, 0.0, 0.0, 1.0, 227.9, 218.55)" width="3.5" xlink:href="#shape13"/>
    <use ffdec:characterId="22" height="215.85" transform="matrix(0.995, 0.0934, 0.0114, 0.9746, 235.5, 158.45)" width="12.15" xlink:href="#shape12"/>
    <use ffdec:characterId="24" height="13.8" transform="matrix(-0.783, 0.0, 0.0, 0.783, 235.4, 67.1)" width="11.4" xlink:href="#shape14"/>
    <use ffdec:characterId="24" height="13.8" transform="matrix(0.7703, 0.0, 0.0, 0.7703, 235.65, 66.6)" width="11.4" xlink:href="#shape14"/>
    <use ffdec:characterId="24" height="13.8" transform="matrix(-0.783, 0.0, 0.0, 0.783, 233.75, 107.25)" width="11.4" xlink:href="#shape14"/>
    <use ffdec:characterId="24" height="13.8" transform="matrix(0.7703, 0.0, 0.0, 0.7703, 234.0, 106.75)" width="11.4" xlink:href="#shape14"/>
    <use ffdec:characterId="24" height="13.8" transform="matrix(-0.783, 0.0, 0.0, 0.783, 233.2, 144.1)" width="11.4" xlink:href="#shape14"/>
    <use ffdec:characterId="24" height="13.8" transform="matrix(0.7703, 0.0, 0.0, 0.7703, 233.45, 143.6)" width="11.4" xlink:href="#shape14"/>
    <use ffdec:characterId="24" height="13.8" transform="matrix(0.783, 0.0, 0.0, 0.783, 233.95, 181.9)" width="11.4" xlink:href="#shape14"/>
    <use ffdec:characterId="24" height="13.8" transform="matrix(-0.7703, 0.0, 0.0, 0.7703, 233.7, 181.4)" width="11.4" xlink:href="#shape14"/>
    <use ffdec:characterId="24" height="13.8" transform="matrix(-0.9933, 0.0, 0.0, 0.825, 234.1, 218.95)" width="11.4" xlink:href="#shape14"/>
    <use ffdec:characterId="24" height="13.8" transform="matrix(0.9772, 0.0, 0.0, 0.8115, 234.45, 218.4)" width="11.4" xlink:href="#shape14"/>
    <use ffdec:characterId="25" height="13.8" transform="matrix(1.0, 0.0, 0.0, 1.0, 193.7, 64.2)" width="11.4" xlink:href="#shape15"/>
    <use ffdec:characterId="25" height="13.8" transform="matrix(1.0, 0.0, 0.0, 1.0, 195.9, 104.35)" width="11.4" xlink:href="#shape15"/>
    <use ffdec:characterId="25" height="13.8" transform="matrix(1.0, 0.0, 0.0, 1.0, 197.0, 141.75)" width="11.4" xlink:href="#shape15"/>
    <use ffdec:characterId="25" height="13.8" transform="matrix(-1.0, 0.0, 0.0, 1.0, 196.7, 183.45)" width="11.4" xlink:href="#shape15"/>
    <use ffdec:characterId="25" height="13.8" transform="matrix(-1.0, 0.0, 0.0, 1.0, 195.55, 221.25)" width="11.4" xlink:href="#shape15"/>
    <use ffdec:characterId="25" height="13.8" transform="matrix(-1.0, 0.0, 0.0, 1.0, 193.5, 256.55)" width="11.4" xlink:href="#shape15"/>
    <use ffdec:characterId="23" height="8.25" transform="matrix(1.0, 0.0, 0.0, 1.0, 230.4, 253.85)" width="3.5" xlink:href="#shape13"/>
    <use ffdec:characterId="24" height="13.8" transform="matrix(-0.9933, 0.0, 0.0, 0.825, 237.15, 255.05)" width="11.4" xlink:href="#shape14"/>
    <use ffdec:characterId="24" height="13.8" transform="matrix(0.9772, 0.0, 0.0, 0.8115, 237.5, 254.5)" width="11.4" xlink:href="#shape14"/>
    <use ffdec:characterId="25" height="13.8" transform="matrix(-1.0, 0.0, 0.0, 1.0, 279.5, 64.2)" width="11.4" xlink:href="#shape15"/>
    <use ffdec:characterId="25" height="13.8" transform="matrix(-1.0, 0.0, 0.0, 1.0, 277.3, 104.35)" width="11.4" xlink:href="#shape15"/>
    <use ffdec:characterId="25" height="13.8" transform="matrix(-1.0, 0.0, 0.0, 1.0, 276.2, 141.75)" width="11.4" xlink:href="#shape15"/>
    <use ffdec:characterId="25" height="13.8" transform="matrix(1.0, 0.0, 0.0, 1.0, 276.85, 183.6)" width="11.4" xlink:href="#shape15"/>
    <use ffdec:characterId="25" height="13.8" transform="matrix(1.0, 0.0, 0.0, 1.0, 277.8, 221.0)" width="11.4" xlink:href="#shape15"/>
    <use ffdec:characterId="25" height="13.8" transform="matrix(1.1228, 0.0, 0.0, 0.8261, 279.4, 256.35)" width="11.4" xlink:href="#shape15"/>
    <use ffdec:characterId="39" height="19.7" transform="matrix(-1.6051, 0.875, -0.875, -1.6051, 339.65, 194.05)" width="41.75" xlink:href="#shape16"/>
    <use ffdec:characterId="40" height="24.35" transform="matrix(-1.1944, 1.1945, 1.1944, 1.1945, 290.9, 198.7)" width="28.8" xlink:href="#shape17"/>
    <use ffdec:characterId="27" height="5.7" transform="matrix(-1.0482, -0.3322, -0.3322, 1.0482, 363.6, 158.45)" width="5.8" xlink:href="#sprite4"/>
    <use ffdec:characterId="27" height="5.7" transform="matrix(-0.8685, 0.7934, 0.7934, 0.8685, 383.25, 152.65)" width="5.8" xlink:href="#sprite5"/>
    <use ffdec:characterId="47" height="29.2" transform="matrix(1.0, 0.0, 0.0, 1.0, 381.45, 154.15)" width="43.35" xlink:href="#sprite6"/>
    <use ffdec:characterId="41" height="36.25" transform="matrix(1.0, 0.0, 0.0, 1.0, 215.0, 85.5)" width="36.25" xlink:href="#shape20"/>
    <use ffdec:characterId="41" height="36.25" transform="matrix(1.0, 0.0, 0.0, 1.0, 255.1, 86.0)" width="36.25" xlink:href="#shape20"/>
    <use ffdec:characterId="41" height="36.25" transform="matrix(1.0, 0.0, 0.0, 1.0, 215.0, 125.1)" width="36.25" xlink:href="#shape20"/>
    <use ffdec:characterId="41" height="36.25" transform="matrix(1.0, 0.0, 0.0, 1.0, 254.3, 124.4)" width="36.25" xlink:href="#shape20"/>
    <use ffdec:characterId="41" height="36.25" transform="matrix(1.0, 0.0, 0.0, 1.0, 215.0, 163.1)" width="36.25" xlink:href="#shape20"/>
    <use ffdec:characterId="41" height="36.25" transform="matrix(1.0, 0.0, 0.0, 1.0, 253.9, 163.2)" width="36.25" xlink:href="#shape20"/>
    <use ffdec:characterId="41" height="36.25" transform="matrix(1.0, 0.0, 0.0, 1.0, 215.0, 200.3)" width="36.25" xlink:href="#shape20"/>
    <use ffdec:characterId="41" height="36.25" transform="matrix(1.0, 0.0, 0.0, 1.0, 253.7, 200.6)" width="36.25" xlink:href="#shape20"/>
    <use ffdec:characterId="41" height="36.25" transform="matrix(1.0, 0.0, 0.0, 1.0, 214.6, 236.7)" width="36.25" xlink:href="#shape20"/>
    <use ffdec:characterId="41" height="36.25" transform="matrix(1.0, 0.0, 0.0, 1.0, 254.9, 236.8)" width="36.25" xlink:href="#shape20"/>
    <use ffdec:characterId="31" height="42.65" id="chip1" transform="matrix(1.0, 0.0, 0.0, 1.0, 214.95, 84.95)" width="42.65" xlink:href="#sprite7"/>
    <use ffdec:characterId="31" height="42.65" id="chip6" transform="matrix(1.0, 0.0, 0.0, 1.0, 254.95, 84.95)" width="42.65" xlink:href="#sprite7"/>
    <use ffdec:characterId="32" height="42.65" id="chip2" transform="matrix(1.0, 0.0, 0.0, 1.0, 214.75, 123.95)" width="42.65" xlink:href="#sprite8"/>
    <use ffdec:characterId="32" height="42.65" id="chip7" transform="matrix(1.0, 0.0, 0.0, 1.0, 254.95, 123.95)" width="42.65" xlink:href="#sprite8"/>
    <use ffdec:characterId="31" height="42.65" id="chip3" transform="matrix(1.0, 0.0, 0.0, 1.0, 214.75, 162.35)" width="42.65" xlink:href="#sprite7"/>
    <use ffdec:characterId="32" height="42.65" id="chip8" transform="matrix(1.0, 0.0, 0.0, 1.0, 254.35, 162.35)" width="42.65" xlink:href="#sprite8"/>
    <use ffdec:characterId="32" height="42.65" id="chip4" transform="matrix(1.0, 0.0, 0.0, 1.0, 214.75, 199.55)" width="42.65" xlink:href="#sprite8"/>
    <use ffdec:characterId="32" height="42.65" id="chip9" transform="matrix(1.0, 0.0, 0.0, 1.0, 254.35, 199.55)" width="42.65" xlink:href="#sprite8"/>
    <use ffdec:characterId="32" height="42.65" id="chip5" transform="matrix(1.0, 0.0, 0.0, 1.0, 214.75, 236.9)" width="42.65" xlink:href="#sprite8"/>
    <use ffdec:characterId="32" height="42.65" id="chip10" transform="matrix(1.0, 0.0, 0.0, 1.0, 255.55, 236.9)" width="42.65" xlink:href="#sprite8"/>
    <use ffdec:characterId="36" height="26.3" transform="matrix(1.17, -0.2575, 0.2575, 1.17, 386.5, 153.35)" width="55.25" xlink:href="#shape21"/>
    <use ffdec:characterId="48" height="31.55" transform="matrix(1.3965, -0.7243, 0.7243, 1.3965, 347.1, 163.25)" width="45.95" xlink:href="#shape22"/>
    <use ffdec:characterId="49" height="10.05" transform="matrix(-1.2289, 0.6374, 0.6374, 1.2289, 378.15, 160.25)" width="9.95" xlink:href="#shape23"/>
  </g>
  <defs>
    <g id="shape0">
      <path d="M-75.55 -39.5 L-27.0 -60.35 114.05 -7.9 Q17.25 50.7 -48.45 35.35 -132.4 -1.6 -75.55 -39.5" fill="#000000" fill-opacity="0.3019608" fill-rule="evenodd" stroke="none"/>
    </g>
    <g id="shape1">
      <path d="M-17.4 -69.75 Q-15.9 -67.45 4.25 -60.6 22.75 -54.3 37.9 -50.4 103.3 -33.4 109.25 -10.5 110.3 -6.45 107.7 4.7 104.45 18.55 97.6 26.25 85.0 32.9 78.45 21.85 71.45 -14.95 68.4 -5.95 65.5 16.0 60.75 30.0 56.7 42.05 51.3 48.25 22.5 61.75 15.0 16.9 7.5 -27.95 0.5 -2.75 L-7.5 25.75 Q-9.3 31.7 -12.25 38.65 -15.2 45.55 -25.95 48.45 -36.65 51.3 -56.7 5.3 -57.55 2.8 -58.25 1.7 -58.95 0.55 -61.0 0.85 -63.05 1.15 -67.65 11.0 -72.25 20.8 -76.7 24.8 -80.55 28.2 -82.5 28.25 -86.8 29.8 -89.3 26.5 -91.85 4.75 -99.55 8.25 -96.2 3.35 -93.9 3.2 -90.55 2.95 -89.45 12.7 -87.9 26.15 -82.4 24.7 -80.45 24.1 -79.25 22.9 -72.0 17.15 -69.25 6.95 -63.2 -6.2 -59.4 -5.0 -55.65 -3.8 -42.75 27.6 -27.45 54.6 -13.25 31.65 -10.55 26.5 -9.1 19.2 -8.2 16.55 -5.9 4.4 -4.65 -2.4 -2.05 -7.75 0.95 -13.9 4.45 -15.1 9.05 -16.65 12.1 -10.9 15.4 -4.7 18.1 11.95 19.45 20.45 21.35 26.8 25.8 41.7 33.2 45.15 35.45 46.2 38.0 46.2 55.35 47.3 62.4 5.25 65.95 -16.0 69.25 -18.6 L70.05 -18.7 Q70.95 -18.6 72.9 -17.1 74.85 -15.65 76.85 -4.4 78.85 6.85 82.4 19.8 83.05 21.15 85.4 21.9 88.25 22.8 91.25 21.45 99.9 17.6 104.6 -2.2 L103.8 -8.1 Q102.9 -13.2 98.9 -17.85 86.35 -32.45 41.85 -46.7 21.9 -52.75 6.65 -57.7 -18.1 -65.75 -19.45 -66.9 L-17.4 -69.75" fill="#fffff3" fill-rule="evenodd" stroke="none"/>
      <path d="M82.4 19.8 Q78.85 6.85 76.85 -4.4 74.85 -15.65 72.9 -17.1 70.95 -18.6 70.05 -18.7 L69.25 -18.6 Q58.35 -16.7 39.5 29.15 L39.5 29.2 Q30.2 29.45 21.35 26.8 19.45 20.45 18.1 11.95 15.4 -4.7 12.1 -10.9 9.05 -16.65 4.45 -15.1 0.95 -13.9 -2.05 -7.75 -4.65 -2.4 -5.9 4.4 -8.2 16.55 -9.1 19.2 -19.8 14.4 -32.5 4.65 -45.05 -5.0 -55.25 -16.1 -66.0 -27.85 -70.6 -37.5 -75.75 -48.2 -72.05 -54.1 3.25 -54.25 26.2 -47.45 46.55 -41.4 74.85 -23.5 95.7 -10.25 104.6 -2.2 102.95 1.2 94.2 10.25 85.0 19.75 82.4 19.8" fill="#dc8d7c" fill-rule="evenodd" stroke="none"/>
      <path d="M-17.4 -69.75 L-19.45 -66.9 -19.45 -66.95 -71.05 -66.95 Q-72.5 -60.3 -79.2 -49.6 L-89.45 -33.8 Q-103.05 -10.7 -105.95 0.9 -106.7 3.85 -105.45 9.55 -104.45 14.3 -103.7 15.45 -105.0 15.95 -106.5 17.15 -118.9 -3.1 -77.7 -57.95 L-76.15 -63.2 Q-74.7 -68.65 -75.4 -69.7 L-75.5 -69.95 -17.4 -69.75 M-82.5 28.25 Q-80.55 28.2 -76.7 24.8 -72.25 20.8 -67.65 11.0 -63.05 1.15 -61.0 0.85 -58.95 0.55 -58.25 1.7 -57.55 2.8 -56.7 5.3 -36.65 51.3 -25.95 48.45 -15.2 45.55 -12.25 38.65 -9.3 31.7 -7.5 25.75 L0.5 -2.75 Q7.5 -27.95 15.0 16.9 22.5 61.75 51.3 48.25 43.95 63.95 34.4 68.2 6.0 59.0 4.0 42.3 2.0 25.6 -7.05 54.1 -8.95 66.65 -16.35 67.3 -28.45 68.35 -37.3 59.5 -40.45 56.4 -42.6 52.6 -44.35 49.6 -44.6 47.9 -53.85 28.65 -58.5 8.85 -51.05 55.95 -62.65 54.7 -68.95 54.0 -74.95 45.05 -80.05 37.5 -82.5 28.25 M60.75 30.0 Q65.5 16.0 68.4 -5.95 71.45 -14.95 78.45 21.85 85.0 32.9 97.6 26.25 93.35 31.15 90.0 34.05 62.6 42.6 60.75 30.0" fill="#ffcfb7" fill-rule="evenodd" stroke="none"/>
      <path d="M-19.45 -66.9 Q-18.1 -65.75 6.65 -57.7 21.9 -52.75 41.85 -46.7 86.35 -32.45 98.9 -17.85 102.9 -13.2 103.8 -8.1 L104.6 -2.2 Q95.7 -10.25 74.85 -23.5 46.55 -41.4 26.2 -47.45 3.25 -54.25 -72.05 -54.1 -82.05 -45.6 -92.85 -25.2 -106.45 6.75 -103.7 15.45 -104.45 14.3 -105.45 9.55 -106.7 3.85 -105.95 0.9 -103.05 -10.7 -89.45 -33.8 L-79.2 -49.6 Q-72.5 -60.3 -71.05 -66.95 L-19.45 -66.95 -19.45 -66.9" fill="#000000" fill-rule="evenodd" stroke="none"/>
      <path d="M69.25 -18.6 Q65.95 -16.0 62.4 5.25 55.35 47.3 38.0 46.2 35.45 46.2 33.2 45.15 25.8 41.7 21.35 26.8 30.2 29.45 39.5 29.2 L39.5 29.15 Q58.35 -16.7 69.25 -18.6" fill="#c2453a" fill-rule="evenodd" stroke="none"/>
      <path d="M-75.5 -69.95 L-75.4 -69.7 -75.45 -69.75 -75.5 -69.95" fill="#aecbf8" fill-rule="evenodd" stroke="none"/>
      <path d="M104.6 -2.2 Q99.9 17.6 91.25 21.45 88.25 22.8 85.4 21.9 83.05 21.15 82.4 19.8 85.0 19.75 94.2 10.25 102.95 1.2 104.6 -2.2 M-9.1 19.2 Q-10.55 26.5 -13.25 31.65 -24.4 35.25 -42.75 27.6 -55.65 -3.8 -59.4 -5.0 -63.2 -6.2 -69.25 6.95 -89.55 0.4 -92.85 -25.2 -82.05 -45.6 -72.05 -54.1 -75.75 -48.2 -70.6 -37.5 -66.0 -27.85 -55.25 -16.1 -45.05 -5.0 -32.5 4.65 -19.8 14.4 -9.1 19.2" fill="#d26f59" fill-rule="evenodd" stroke="none"/>
      <path d="M-13.25 31.65 Q-27.45 54.6 -42.75 27.6 -24.4 35.25 -13.25 31.65 M-69.25 6.95 Q-72.0 17.15 -79.25 22.9 -88.75 2.45 -93.9 3.2 -96.2 3.35 -99.55 8.25 -99.9 10.6 -103.7 15.45 -106.45 6.75 -92.85 -25.2 -89.55 0.4 -69.25 6.95" fill="#cc5840" fill-rule="evenodd" stroke="none"/>
      <path d="M51.3 48.25 Q56.7 42.05 60.75 30.0 62.6 42.6 90.0 34.05 72.55 48.2 51.3 48.25 M34.4 68.2 Q19.8 74.65 0.05 54.1 -3.5 50.35 -7.05 54.1 2.0 25.6 4.0 42.3 6.0 59.0 34.4 68.2 M-44.6 47.9 Q-52.65 57.1 -62.65 54.7 -51.05 55.95 -58.5 8.85 -53.85 28.65 -44.6 47.9" fill="#d3705a" fill-rule="evenodd" stroke="none"/>
      <path d="M-79.25 22.9 Q-80.45 24.1 -82.4 24.7 -87.9 26.15 -89.45 12.7 -90.55 2.95 -93.9 3.2 -88.75 2.45 -79.25 22.9" fill="#732900" fill-rule="evenodd" stroke="none"/>
      <path d="M-99.55 8.25 Q-91.85 4.75 -89.3 26.5 -100.25 17.95 -106.5 17.15 -105.0 15.95 -103.7 15.45 -99.9 10.6 -99.55 8.25" fill="#e49d87" fill-rule="evenodd" stroke="none"/>
    </g>
    <g id="shape2">
      <path d="M76.8 -5.25 Q73.5 -14.7 77.5 -15.65 L67.75 -21.25 76.8 -5.25 M-16.7 -57.55 Q-6.9 -62.7 4.75 -53.45 11.95 -43.9 14.65 -49.3 39.75 -70.3 68.3 -25.35 102.75 -7.55 107.1 4.8 L106.9 5.4 106.9 5.45 Q89.55 80.65 76.9 9.05 66.6 -10.15 60.05 12.6 60.25 22.8 53.85 37.8 39.6 64.25 33.2 49.75 L23.3 19.2 Q21.1 1.65 8.85 -3.05 -2.75 -9.95 -9.7 18.8 -14.85 56.35 -27.85 59.25 -38.65 58.0 -43.55 28.7 -54.45 -9.75 -68.3 22.5 -80.0 55.2 -89.05 36.95 -90.85 25.45 -95.1 24.15 -100.45 6.6 -76.7 -38.0 -73.0 -40.5 -68.4 -39.15 -65.5 -27.2 -69.0 -10.1 -74.2 -5.7 -73.85 6.85 -72.3 9.15 -78.4 26.1 -72.3 20.05 -69.7 9.4 -69.95 -6.5 -66.9 -8.0 -63.95 -16.25 -62.6 -36.2 L-62.6 -36.25 Q-59.25 -55.5 -40.65 -45.6 -26.85 -35.75 -24.25 -40.75 -18.45 5.75 -17.15 33.75 -12.8 0.65 -2.9 -6.6 -15.8 -32.1 -16.7 -57.55 M86.9 14.25 L91.4 29.9 96.3 19.15 Q91.6 26.05 86.9 14.25 M55.85 17.9 Q56.4 7.25 60.4 3.25 L41.95 -20.75 55.85 17.9 M48.6 37.55 Q38.95 57.35 33.3 34.45 36.6 51.35 39.9 50.45 44.25 50.8 48.6 37.55 M-39.1 -4.2 Q-44.05 -34.25 -58.55 -21.95 -44.2 -27.9 -39.1 -4.2 M-23.4 51.5 Q-35.6 52.05 -41.15 7.3 -49.95 -15.3 -63.45 -2.8 -45.85 -12.2 -42.2 14.95 L-35.25 46.6 Q-30.15 59.95 -23.4 51.5 M-89.6 8.15 Q-85.95 5.35 -82.55 18.75 -83.7 1.65 -89.6 8.15 M-91.7 14.1 Q-88.05 11.3 -84.65 24.7 -85.8 7.6 -91.7 14.1 M-79.9 12.35 Q-81.05 -4.75 -86.95 1.75 -83.3 -1.05 -79.9 12.35" fill="#fffff3" fill-rule="evenodd" stroke="none"/>
      <path d="M76.8 -5.25 L67.75 -21.25 77.5 -15.65 Q73.5 -14.7 76.8 -5.25 M-16.7 -57.55 Q-15.8 -32.1 -2.9 -6.6 -12.8 0.65 -17.15 33.75 -18.45 5.75 -24.25 -40.75 L-22.85 -48.0 Q-20.75 -55.45 -16.7 -57.55 M-62.6 -36.2 Q-63.95 -16.25 -66.9 -8.0 -69.95 -6.5 -69.7 9.4 -72.3 20.05 -78.4 26.1 -72.3 9.15 -73.85 6.85 -74.2 -5.7 -69.0 -10.1 -65.5 -27.2 -68.4 -39.15 -65.65 -38.35 -62.6 -36.2 M-76.7 -38.0 Q-100.45 6.6 -95.1 24.15 -105.05 23.0 -107.65 33.5 -109.85 42.45 -106.4 50.2 -109.55 48.15 -110.8 42.65 -112.3 35.95 -110.35 26.35 -108.7 18.25 -93.5 -9.7 -79.0 -36.4 -76.7 -38.0 M86.9 14.25 Q91.6 26.05 96.3 19.15 L91.4 29.9 86.9 14.25 M55.85 17.9 L41.95 -20.75 60.4 3.25 Q56.4 7.25 55.85 17.9 M48.6 37.55 Q44.25 50.8 39.9 50.45 36.6 51.35 33.3 34.45 38.95 57.35 48.6 37.55 M-39.1 -4.2 Q-44.2 -27.9 -58.55 -21.95 -44.05 -34.25 -39.1 -4.2 M-91.7 14.1 Q-85.8 7.6 -84.65 24.7 -88.05 11.3 -91.7 14.1 M-89.6 8.15 Q-83.7 1.65 -82.55 18.75 -85.95 5.35 -89.6 8.15 M-23.4 51.5 Q-30.15 59.95 -35.25 46.6 L-42.2 14.95 Q-45.85 -12.2 -63.45 -2.8 -49.95 -15.3 -41.15 7.3 -35.6 52.05 -23.4 51.5 M-79.9 12.35 Q-83.3 -1.05 -86.95 1.75 -81.05 -4.75 -79.9 12.35" fill="#ffcfb7" fill-rule="evenodd" stroke="none"/>
      <path d="M-95.1 24.15 Q-90.85 25.45 -89.05 36.95 -80.0 55.2 -68.3 22.5 -54.45 -9.75 -43.55 28.7 -38.65 58.0 -27.85 59.25 -14.85 56.35 -9.7 18.8 -2.75 -9.95 8.85 -3.05 21.1 1.65 23.3 19.2 L33.2 49.75 Q39.6 64.25 53.85 37.8 60.25 22.8 60.05 12.6 66.6 -10.15 76.9 9.05 89.55 80.65 106.9 5.45 107.25 22.85 109.85 24.4 102.7 43.3 96.35 55.15 85.35 70.5 78.6 44.45 74.95 24.3 72.0 18.9 68.75 14.55 63.65 31.85 58.85 62.4 52.7 72.65 27.25 97.2 18.45 49.75 13.9 24.05 10.35 21.0 0.25 13.95 -7.3 46.0 -9.7 69.5 -20.35 76.05 -35.7 87.3 -55.35 39.8 -62.2 23.65 -67.05 35.9 -69.15 44.8 -72.65 51.0 -87.95 71.85 -89.75 43.5 -92.5 32.55 -99.15 42.95 -100.75 47.5 -106.4 50.2 -109.85 42.45 -107.65 33.5 -105.05 23.0 -95.1 24.15" fill="#000000" fill-rule="evenodd" stroke="none"/>
    </g>
    <g id="shape3">
      <path d="M-8.45 6.2 Q-11.9 4.2 -11.9 1.0 -11.9 -2.2 -8.45 -4.75 -4.95 -7.3 0.0 -7.7 4.95 -8.15 8.4 -6.15 11.9 -4.15 11.95 -0.9 11.9 2.3 8.4 4.85 4.95 7.4 0.0 7.8 -4.95 8.2 -8.45 6.2" fill="#000000" fill-opacity="0.3019608" fill-rule="evenodd" stroke="none"/>
    </g>
    <g id="sprite0">
      <use ffdec:characterId="8" height="81.2" transform="matrix(1.0, 0.0, 0.0, 1.0, 0.0, 0.0)" width="64.4" xlink:href="#morphshape0"/>
      <use ffdec:characterId="7" height="13.4" transform="matrix(-0.8354, 0.4333, 0.4333, 0.8354, -20.45, -46.05)" width="13.4" xlink:href="#sprite1"/>
      <use ffdec:characterId="7" height="13.4" transform="matrix(-0.8354, 0.4333, 0.4333, 0.8354, 31.4, -53.6)" width="13.4" xlink:href="#sprite1"/>
    </g>
    <g id="morphshape0">
      <path d="M-20.45 -46.05 Q1.65 -23.15 7.7 1.3 13.75 25.7 18.15 25.6 22.5 25.5 29.45 1.35 36.35 -22.85 31.4 -53.6" fill="none" stroke="#ff0000" stroke-linecap="round" stroke-linejoin="round" stroke-width="2.0"/>
    </g>
    <g id="sprite1">
      <use ffdec:characterId="6" height="13.4" transform="matrix(1.0, 0.0, 0.0, 1.0, 0.0, 0.0)" width="13.4" xlink:href="#shape4"/>
    </g>
    <g id="shape4">
      <path d="M4.75 -4.75 Q6.7 -2.8 6.7 0.0 6.7 2.8 4.75 4.75 2.8 6.7 0.0 6.7 -2.8 6.7 -4.75 4.75 -6.7 2.8 -6.7 0.0 -6.7 -2.8 -4.75 -4.75 -2.8 -6.7 0.0 -6.7 2.8 -6.7 4.75 -4.75" fill="url(#gradient0)" fill-rule="evenodd" stroke="none"/>
    </g>
    <radialGradient cx="0" cy="0" gradientTransform="matrix(0.0105, 0.0, 0.0, 0.0105, -1.1, -1.5)" gradientUnits="userSpaceOnUse" id="gradient0" r="819.2" spreadMethod="pad">
      <stop offset="0.0" stop-color="#fbf6e7"/>
      <stop offset="0.4588235294117647" stop-color="#ffa737"/>
      <stop offset="1.0" stop-color="#b54200"/>
    </radialGradient>
    <g id="shape5">
      <path d="M-26.05 -27.65 L-23.55 -38.5 Q-19.1 -52.25 -9.55 -42.45 L7.35 -9.4 Q-13.45 -13.9 -25.85 -9.75 -27.95 -17.5 -26.05 -27.65 M23.1 10.35 Q28.95 14.8 33.2 20.1 L39.75 28.75 Q-14.8 49.7 -37.9 42.4 -21.75 12.8 -10.0 8.6 5.15 7.85 23.1 10.35 M48.45 51.45 Q49.0 55.25 47.15 62.45 45.65 68.2 44.3 71.0 6.85 104.8 -19.55 84.0 -28.45 76.95 -33.3 69.65 -5.3 74.35 48.45 51.45" fill="#ef0000" fill-rule="evenodd" stroke="none"/>
      <path d="M7.35 -9.4 Q15.4 4.4 23.1 10.35 5.15 7.85 -10.0 8.6 L-9.95 8.45 Q-22.65 2.0 -25.85 -9.75 -13.45 -13.9 7.35 -9.4 M39.75 28.75 Q46.25 36.85 48.45 51.45 -5.3 74.35 -33.3 69.65 -41.85 56.55 -37.9 42.4 -14.8 49.7 39.75 28.75 M-51.7 32.55 L-51.4 31.75 -51.15 32.15 -51.7 32.55" fill="#0000db" fill-rule="evenodd" stroke="none"/>
      <path d="M44.3 71.0 Q38.8 82.2 27.35 88.15 11.5 96.4 -6.35 97.45 -17.7 98.3 -31.05 90.85 -44.45 83.35 -50.25 73.35 -56.0 63.35 -55.2 57.5 -53.4 59.85 -45.25 64.45 -37.0 69.05 -33.3 69.65 -28.45 76.95 -19.55 84.0 6.85 104.8 44.3 71.0 M-51.4 31.75 Q-49.25 26.4 -41.75 15.15 -27.75 9.5 -10.0 8.6 -21.75 12.8 -37.9 42.4 -47.1 39.5 -51.15 32.15 L-51.4 31.75 M-31.15 -7.35 Q-28.8 -16.05 -26.05 -27.65 -27.95 -17.5 -25.85 -9.75 -28.95 -8.7 -31.15 -7.35" fill="#970000" fill-rule="evenodd" stroke="none"/>
      <path d="M-55.2 57.5 Q-55.75 49.0 -51.7 32.55 L-51.15 32.15 Q-47.1 39.5 -37.9 42.4 -41.85 56.55 -33.3 69.65 -37.0 69.05 -45.25 64.45 -53.4 59.85 -55.2 57.5 M-41.75 15.15 Q-35.35 3.65 -31.15 -7.35 -28.95 -8.7 -25.85 -9.75 -22.65 2.0 -9.95 8.45 L-10.0 8.6 Q-27.75 9.5 -41.75 15.15" fill="#000066" fill-rule="evenodd" stroke="none"/>
      <path d="M11.9 10.6 Q32.6 28.85 34.3 50.3 35.45 64.65 29.4 73.9 63.3 42.2 21.0 11.4 3.75 -1.1 -0.9 -13.45 -0.85 -0.6 11.9 10.6" fill="#ffffff" fill-opacity="0.4117647" fill-rule="evenodd" stroke="none"/>
    </g>
    <g id="sprite2">
      <use ffdec:characterId="11" height="21.8" transform="matrix(1.0, 0.0, 0.0, 1.0, 0.0, 0.0)" width="21.85" xlink:href="#shape6"/>
    </g>
    <g id="shape6">
      <path d="M6.75 -8.5 Q10.3 -5.7 10.85 -1.25 11.35 3.2 8.55 6.75 5.75 10.3 1.25 10.8 -3.2 11.3 -6.7 8.55 -10.25 5.7 -10.8 1.25 -11.3 -3.2 -8.5 -6.75 -5.7 -10.3 -1.2 -10.8 3.2 -11.35 6.75 -8.5" fill="url(#gradient1)" fill-rule="evenodd" stroke="none"/>
    </g>
    <radialGradient cx="0" cy="0" gradientTransform="matrix(0.0187, 0.0, 0.0, 0.0187, -3.75, -2.45)" gradientUnits="userSpaceOnUse" id="gradient1" r="819.2" spreadMethod="pad">
      <stop offset="0.25098039215686274" stop-color="#ffffff"/>
      <stop offset="0.8549019607843137" stop-color="#8eb5f8"/>
      <stop offset="0.996078431372549" stop-color="#0859d4"/>
    </radialGradient>
    <g id="shape7">
      <path d="M-22.55 -22.55 Q-13.2 -31.9 0.0 -31.9 13.2 -31.9 22.55 -22.55 31.9 -13.2 31.9 0.0 31.9 13.2 22.55 22.55 13.2 31.9 0.0 31.9 -13.2 31.9 -22.55 22.55 -31.9 13.2 -31.9 0.0 -31.9 -13.2 -22.55 -22.55" fill="url(#gradient2)" fill-rule="evenodd" stroke="none"/>
    </g>
    <radialGradient cx="0" cy="0" gradientTransform="matrix(0.0396, 0.0, 0.0, 0.0396, 0.0, 0.0)" gradientUnits="userSpaceOnUse" id="gradient2" r="819.2" spreadMethod="pad">
      <stop offset="0.42745098039215684" stop-color="#ffff00"/>
      <stop offset="1.0" stop-color="#ffff00" stop-opacity="0.0"/>
    </radialGradient>
    <g id="sprite3">
      <use ffdec:characterId="15" height="26.0" transform="matrix(1.0, 0.0, 0.0, 1.0, 0.0, 0.0)" width="250.65" xlink:href="#morphshape1"/>
    </g>
    <g id="morphshape1">
      <path d="M-142.7 -12.95 L0.8 -12.95 Q37.6 -16.85 44.7 -23.2 47.95 -28.9 80.3 -31.55 108.45 -33.4 107.9 -38.95 L22.85 -38.95 Q16.1 -33.75 -14.6 -33.1 -67.95 -30.25 -77.55 -23.2 -84.3 -17.05 -142.7 -12.95" fill="#240000" fill-opacity="0.3019608" fill-rule="evenodd" stroke="none"/>
      <path d="M-142.7 -12.95 Q-84.3 -17.05 -77.55 -23.2 -67.95 -30.25 -14.6 -33.1 16.1 -33.75 22.85 -38.95 L107.9 -38.95 Q108.45 -33.4 80.3 -31.55 47.95 -28.9 44.7 -23.2 37.6 -16.85 0.8 -12.95 L-142.7 -12.95 Z" ffdec:has-small-stroke="true" ffdec:original-stroke-width="0.0" fill="none" stroke="#000000" stroke-linecap="round" stroke-linejoin="round" stroke-opacity="0.0" stroke-width="1.0"/>
    </g>
    <g id="shape8">
      <path d="M-41.05 70.95 Q-34.4 -16.55 -38.3 -114.75 -19.15 -112.6 45.55 -115.45 39.05 -24.05 44.05 70.0 1.45 67.65 -41.05 70.95" fill="#0000ab" fill-rule="evenodd" stroke="none"/>
    </g>
    <g id="shape9">
      <path d="M-43.2 -33.85 L-43.25 -7.95 -16.45 -6.05 -43.55 -5.8 Q-39.95 1.5 -42.7 7.75 L-32.8 9.55 Q-35.8 10.65 -43.0 9.55 -41.3 16.25 -44.0 23.0 L-45.5 22.75 Q-44.2 16.55 -44.0 9.55 -43.65 2.85 -44.3 -7.5 -44.85 -15.6 -44.7 -33.85 L-43.2 -33.85" fill="#d28a10" fill-rule="evenodd" stroke="none"/>
      <path d="M-44.0 23.0 Q-41.3 16.25 -43.0 9.55 -35.8 10.65 -32.8 9.55 L-42.7 7.75 Q-39.95 1.5 -43.55 -5.8 L-16.45 -6.05 -43.25 -7.95 -43.2 -33.85 Q13.7 -39.6 45.5 -33.05 43.5 -5.65 43.6 5.2 38.7 7.5 32.15 8.0 L43.65 8.0 Q42.95 16.55 44.95 23.0 L-44.0 23.0" fill="#edab3c" fill-rule="evenodd" stroke="none"/>
    </g>
    <g id="shape10">
      <path d="M5.85 -14.1 Q-19.5 -19.25 -38.35 -18.6 L-38.35 -20.3 Q7.75 -19.75 38.35 -15.15 L38.35 -11.85 Q24.6 -11.4 5.85 -14.1" fill="#d28a10" fill-opacity="0.4392157" fill-rule="evenodd" stroke="none"/>
    </g>
    <g id="shape11">
      <path d="M-2.65 -107.9 L-2.1 -107.9 Q1.25 -107.85 1.7 -105.3 9.55 8.8 3.4 104.05 2.95 107.0 -1.6 107.95 8.15 89.2 -2.65 -107.9" fill="#f7be66" fill-rule="evenodd" stroke="none"/>
      <path d="M-1.6 107.95 Q-6.5 107.4 -6.0 104.15 1.85 8.8 -6.0 -105.3 -5.5 -107.8 -2.65 -107.9 8.15 89.2 -1.6 107.95" fill="#d28a10" fill-rule="evenodd" stroke="none"/>
    </g>
    <g id="shape12">
      <path d="M2.7 -107.9 L2.55 -105.1 Q-8.05 89.35 1.65 107.95 -2.9 107.0 -3.35 104.05 -9.5 9.05 -1.7 -104.7 L-1.65 -105.3 Q-1.35 -107.0 2.7 -107.9" fill="#d28a10" fill-rule="evenodd" stroke="none"/>
      <path d="M1.65 107.95 Q-8.05 89.35 2.55 -105.1 L2.7 -107.9 Q5.5 -107.8 6.05 -105.35 L6.05 -105.3 Q-1.8 8.8 6.05 104.15 6.55 107.4 1.65 107.95" fill="#f7be66" fill-rule="evenodd" stroke="none"/>
    </g>
    <g id="shape13">
      <path d="M2.45 -4.15 Q3.8 0.05 2.55 4.0 L-0.35 4.1 Q0.8 2.1 0.2 -4.15 L2.45 -4.15" fill="#000000" fill-opacity="0.3019608" fill-rule="evenodd" stroke="none"/>
    </g>
    <g id="shape14">
      <path d="M-4.5 -7.25 Q-0.3 -2.9 5.3 5.1 5.35 6.8 3.85 6.3 -1.05 -1.1 -5.95 -5.8 -6.65 -7.95 -4.5 -7.25" fill="#391000" fill-rule="evenodd" stroke="none"/>
    </g>
    <g id="shape15">
      <path d="M0.1 -1.9 L2.9 -5.1 Q4.6 -5.65 4.05 -3.95 L1.05 -0.75 5.7 5.6 Q5.75 7.3 4.25 6.8 L-0.15 0.7 -3.65 5.55 Q-4.85 5.95 -4.8 4.6 L-1.05 -0.45 -5.55 -5.3 Q-6.25 -7.45 -4.1 -6.75 -2.15 -4.75 0.1 -1.9" fill="#391000" fill-rule="evenodd" stroke="none"/>
    </g>
    <g id="shape16">
      <path d="M-17.65 -9.85 Q3.7 -9.35 20.9 3.0 L20.9 9.85 Q3.7 -5.8 -20.85 -5.5 L-17.65 -9.85" fill="#ef0000" fill-rule="evenodd" stroke="none"/>
    </g>
    <g id="shape17">
      <path d="M0.7 -0.7 Q10.15 -12.45 12.2 -9.95 13.05 -8.6 12.75 -7.75 9.2 -7.4 2.75 1.6 2.2 0.25 0.7 -0.7 M-14.4 -5.6 Q-14.3 -8.95 -11.55 -8.2 -10.9 -8.05 -9.55 -6.8 -8.25 -5.6 -7.65 -4.1 -7.05 -2.6 -6.2 -2.1 -2.75 1.2 -3.7 6.15 -0.85 0.9 -5.2 -1.65 -3.4 -1.45 -0.45 -5.95 3.25 -11.75 7.65 -12.05 9.35 -10.85 8.45 -9.7 5.75 -9.95 -1.15 -1.55 L-3.2 -1.3 Q2.9 0.25 3.35 5.65 4.35 5.3 3.65 3.25 8.05 -5.65 13.5 -6.1 14.8 -5.2 9.45 0.6 4.1 6.35 1.8 8.3 -0.55 10.3 -5.25 10.35 -9.9 10.4 -10.2 1.25 -10.0 0.65 -10.2 -0.95 -10.65 -2.8 -12.05 -4.15 -13.55 -5.6 -14.4 -5.6" fill="#ef0000" fill-rule="evenodd" stroke="none"/>
      <path d="M12.2 -9.95 Q10.15 -12.45 0.7 -0.7 L-0.55 -1.05 Q4.25 -6.45 8.45 -9.7 11.05 -11.75 12.2 -9.95 M-10.2 1.25 Q-12.9 -4.55 -14.4 -5.6 -13.55 -5.6 -12.05 -4.15 -10.65 -2.8 -10.2 -0.95 -10.0 0.65 -10.2 1.25 M-6.2 -2.1 L-5.15 -1.85 Q-4.45 -1.85 -1.2 -6.05 2.1 -10.3 4.45 -11.45 6.0 -12.2 7.65 -12.05 3.25 -11.75 -0.45 -5.95 -3.4 -1.45 -5.2 -1.65 -0.85 0.9 -3.7 6.15 -2.75 1.2 -6.2 -2.1 M3.65 3.25 L3.35 2.25 Q6.5 -4.15 12.0 -6.4 L13.5 -6.1 Q8.05 -5.65 3.65 3.25" fill="#ff6262" fill-rule="evenodd" stroke="none"/>
      <path d="M8.45 -9.7 Q4.25 -6.45 -0.55 -1.05 L0.7 -0.7 Q2.2 0.25 2.75 1.6 9.2 -7.4 12.75 -7.75 L12.0 -6.4 Q6.5 -4.15 3.35 2.25 L3.65 3.25 Q4.35 5.3 3.35 5.65 2.9 0.25 -3.2 -1.3 L-1.15 -1.55 Q5.75 -9.95 8.45 -9.7 M13.5 -6.1 Q15.45 -5.1 13.1 -2.2 L10.25 1.45 6.05 6.4 Q2.45 10.55 -0.7 11.5 -3.8 12.45 -4.95 12.25 -6.15 12.05 -8.1 10.7 -10.1 9.35 -10.45 7.85 -10.8 6.3 -10.2 1.25 -9.9 10.4 -5.25 10.35 -0.55 10.3 1.8 8.3 4.1 6.35 9.45 0.6 14.8 -5.2 13.5 -6.1" fill="#970000" fill-rule="evenodd" stroke="none"/>
    </g>
    <g id="sprite4">
      <use ffdec:characterId="26" height="5.7" transform="matrix(1.0, 0.0, 0.0, 1.0, 0.0, 0.0)" width="5.8" xlink:href="#shape18"/>
    </g>
    <g id="shape18">
      <path d="M0.0 -2.3 Q-0.45 -2.25 -0.7 -1.9 L-0.9 -1.1 Q-0.85 -0.65 -0.45 -0.35 -0.1 -0.05 0.35 -0.1 0.8 -0.15 1.05 -0.45 1.35 -0.85 1.3 -1.3 L0.85 -2.05 0.0 -2.3 M1.65 -2.2 Q2.65 -1.45 2.85 -0.25 3.0 0.95 2.3 1.85 1.6 2.75 0.45 2.85 -0.75 2.95 -1.7 2.25 -2.7 1.45 -2.85 0.25 -3.05 -0.95 -2.3 -1.85 -1.65 -2.75 -0.45 -2.85 0.7 -2.95 1.65 -2.2" fill="#000000" fill-rule="evenodd" stroke="none"/>
      <path d="M0.0 -2.3 L0.85 -2.05 1.3 -1.3 Q1.35 -0.85 1.05 -0.45 0.8 -0.15 0.35 -0.1 -0.1 -0.05 -0.45 -0.35 -0.85 -0.65 -0.9 -1.1 L-0.7 -1.9 Q-0.45 -2.25 0.0 -2.3" fill="#ffffff" fill-rule="evenodd" stroke="none"/>
    </g>
    <g id="sprite5">
      <use ffdec:characterId="26" height="5.7" transform="matrix(1.0, 0.0, 0.0, 1.0, 0.0, 0.0)" width="5.8" xlink:href="#shape19"/>
    </g>
    <g id="shape19">
      <path d="M0.0 -2.3 Q-0.45 -2.25 -0.7 -1.9 L-0.9 -1.1 Q-0.85 -0.65 -0.45 -0.35 -0.1 -0.05 0.35 -0.1 0.8 -0.15 1.05 -0.45 1.35 -0.85 1.3 -1.3 L0.85 -2.05 0.0 -2.3 M1.65 -2.2 Q2.65 -1.45 2.85 -0.25 3.0 0.95 2.3 1.85 1.6 2.75 0.45 2.85 -0.75 2.95 -1.7 2.25 -2.7 1.45 -2.85 0.25 -3.05 -0.95 -2.3 -1.85 -1.65 -2.75 -0.45 -2.85 0.7 -2.95 1.65 -2.2" fill="#000000" fill-rule="evenodd" stroke="none"/>
      <path d="M0.0 -2.3 L0.85 -2.05 1.3 -1.3 Q1.35 -0.85 1.05 -0.45 0.8 -0.15 0.35 -0.1 -0.1 -0.05 -0.45 -0.35 -0.85 -0.65 -0.9 -1.1 L-0.7 -1.9 Q-0.45 -2.25 0.0 -2.3" fill="#ffffff" fill-rule="evenodd" stroke="none"/>
    </g>
    <g id="shape20">
      <path d="M12.85 -12.85 Q18.15 -7.55 18.15 0.0 18.15 7.55 12.85 12.85 7.55 18.15 0.0 18.15 -7.55 18.15 -12.85 12.85 -18.15 7.55 -18.1 0.0 -18.15 -7.55 -12.85 -12.85 -7.55 -18.15 0.0 -18.1 7.55 -18.15 12.85 -12.85" fill="url(#gradient3)" fill-rule="evenodd" stroke="none"/>
    </g>
    <radialGradient cx="0" cy="0" gradientTransform="matrix(0.0225, 0.0, 0.0, 0.0225, 0.0, 0.0)" gradientUnits="userSpaceOnUse" id="gradient3" r="819.2" spreadMethod="pad">
      <stop offset="0.5098039215686274" stop-color="#ffff00"/>
      <stop offset="1.0" stop-color="#ffffff" stop-opacity="0.0"/>
    </radialGradient>
    <g id="shape21">
      <path d="M-12.5 0.8 Q-11.5 -2.45 -7.7 -2.95 -3.7 -3.05 -2.6 1.3 -0.4 9.15 4.3 8.45 6.6 8.2 8.1 7.15 6.5 8.8 3.5 9.15 -1.25 9.85 -3.4 2.0 -4.55 -2.4 -8.55 -2.25 -11.55 -1.8 -12.5 0.8 M-23.65 -5.45 Q-25.25 -3.9 -25.35 -1.9 -26.65 11.35 -17.7 10.65 -16.4 10.55 -15.35 9.85 -16.65 11.2 -18.5 11.3 -27.45 12.05 -26.15 -1.2 -26.0 -3.7 -23.65 -5.45" fill="#9f9f9f" fill-rule="evenodd" stroke="none"/>
      <path d="M8.05 -8.8 L9.2 -7.85 Q9.95 -7.05 10.55 -5.4 11.8 -1.9 11.7 3.35 L11.75 3.35 11.2 6.15 Q10.45 8.3 8.15 9.8 6.4 10.95 2.45 11.05 -2.05 11.05 -4.15 4.4 -5.35 -0.4 -8.3 -0.1 -11.25 0.2 -11.55 5.15 -12.5 12.1 -16.95 12.75 -29.2 15.7 -27.75 -1.35 -27.6 -3.2 -24.8 -6.4 -20.55 -9.7 -10.0 -10.7 2.0 -11.9 6.8 -9.55 L8.05 -8.8 M21.3 6.45 Q15.75 6.8 15.35 0.55 L16.5 -1.4 16.45 -4.1 Q19.65 0.05 25.6 1.45 L21.3 6.45 M15.05 -6.75 L15.3 -5.8 Q15.8 -3.5 15.7 -1.1 L15.4 -0.65 15.2 -0.4 14.8 0.15 13.85 1.15 Q13.95 -1.9 13.15 -5.0 L14.2 -5.75 14.5 -6.0 14.9 -6.55 15.05 -6.75 M-12.5 0.8 Q-11.55 -1.8 -8.55 -2.25 -4.55 -2.4 -3.4 2.0 -1.25 9.85 3.5 9.15 6.5 8.8 8.1 7.15 11.25 3.85 8.85 -4.65 7.2 -11.05 -8.65 -9.5 L-9.8 -9.4 Q-19.75 -8.4 -23.65 -5.45 -26.0 -3.7 -26.15 -1.2 -27.45 12.05 -18.5 11.3 -16.65 11.2 -15.35 9.85 -13.45 7.8 -12.95 2.9 -12.9 1.7 -12.5 0.8" fill="#333333" fill-rule="evenodd" stroke="none"/>
      <path d="M6.8 -9.55 Q2.0 -11.9 -10.0 -10.7 -20.55 -9.7 -24.8 -6.4 -22.2 -8.55 -19.05 -9.9 -14.65 -11.9 -6.75 -12.7 4.9 -13.85 9.7 -11.7 L6.8 -9.55" fill="#ffb871" fill-rule="evenodd" stroke="none"/>
      <path d="M8.05 -8.8 L6.8 -9.55 9.7 -11.7 11.05 -11.0 8.05 -8.8" fill="#ffa851" fill-rule="evenodd" stroke="none"/>
      <path d="M9.2 -7.85 L8.05 -8.8 11.05 -11.0 12.2 -10.05 9.2 -7.85" fill="#ff9933" fill-rule="evenodd" stroke="none"/>
      <path d="M11.2 6.15 L11.75 3.35 12.85 3.35 14.65 1.4 Q14.45 2.95 13.9 4.25 L11.2 6.15" fill="#f27900" fill-rule="evenodd" stroke="none"/>
      <path d="M10.55 -5.4 Q9.95 -7.05 9.2 -7.85 L12.2 -10.05 Q13.1 -9.15 13.6 -7.95 12.3 -6.5 10.55 -5.4" fill="#ff8d1c" fill-rule="evenodd" stroke="none"/>
      <path d="M8.15 9.8 Q10.45 8.3 11.2 6.15 L13.9 4.25 Q12.35 7.95 8.15 9.8" fill="#df7000" fill-rule="evenodd" stroke="none"/>
      <path d="M16.1 -6.4 Q19.4 -0.7 27.35 1.25 L23.1 6.2 21.3 6.45 25.6 1.45 Q19.65 0.05 16.45 -4.1 L16.1 -6.4" fill="#666666" fill-rule="evenodd" stroke="none"/>
      <path d="M13.6 -7.95 L14.0 -8.5 15.45 -8.75 15.45 -8.7 Q13.3 -6.0 11.95 -5.25 L10.55 -5.4 Q12.3 -6.5 13.6 -7.95" fill="#ffff99" fill-rule="evenodd" stroke="none"/>
      <path d="M11.75 3.35 L11.7 3.35 Q11.8 -1.9 10.55 -5.4 L11.95 -5.25 Q13.4 -1.0 12.85 3.35 L11.75 3.35" fill="#cc9900" fill-rule="evenodd" stroke="none"/>
      <path d="M11.95 -5.25 Q13.3 -6.0 15.45 -8.7 L16.1 -6.4 16.45 -4.1 16.5 -1.4 15.35 0.55 14.65 1.4 12.85 3.35 Q13.4 -1.0 11.95 -5.25 M15.05 -6.75 L14.9 -6.55 14.5 -6.0 14.2 -5.75 13.15 -5.0 Q13.95 -1.9 13.85 1.15 L14.8 0.15 15.2 -0.4 15.4 -0.65 15.7 -1.1 Q15.8 -3.5 15.3 -5.8 L15.05 -6.75" fill="#ffcc00" fill-rule="evenodd" stroke="none"/>
    </g>
    <g id="shape22">
      <path d="M-14.25 8.55 L-15.25 10.85 -16.6 12.95 -17.6 13.85 Q-18.7 14.65 -19.6 14.55 -20.85 14.4 -21.8 12.85 L-23.0 9.15 -23.4 5.35 -23.05 -0.65 Q-22.7 -3.8 -22.05 -5.8 L-20.8 -9.45 -18.45 -13.15 Q-17.2 -14.55 -15.8 -14.4 -15.45 -14.35 -14.4 -13.7 -12.35 -12.45 -12.05 -6.3 -17.65 0.85 -14.25 8.55" fill="#7a1d05" fill-rule="evenodd" stroke="none"/>
      <path d="M-17.3 15.5 L-17.35 15.5 -17.5 15.55 Q-19.55 16.2 -21.3 15.1 L-22.2 14.35 Q-25.15 10.55 -24.75 1.15 -24.3 -3.9 -23.05 -7.25 L-21.25 -11.55 Q-20.5 -13.2 -19.25 -14.15 -15.85 -16.95 -13.6 -14.9 L-12.2 -13.15 -12.15 -13.1 Q-10.75 -10.6 -10.5 -6.8 -10.15 0.45 -11.05 4.35 -11.8 7.35 -12.8 10.0 -13.6 12.15 -14.3 12.95 L-16.25 14.9 -16.45 15.05 -16.5 15.1 -17.3 15.5 M-12.05 -6.3 Q-12.35 -12.45 -14.4 -13.7 -15.45 -14.35 -15.8 -14.4 -17.2 -14.55 -18.45 -13.15 L-20.8 -9.45 -22.05 -5.8 Q-22.7 -3.8 -23.05 -0.65 L-23.4 5.35 -23.0 9.15 -21.8 12.85 Q-20.85 14.4 -19.6 14.55 -18.7 14.65 -17.6 13.85 L-16.6 12.95 -15.25 10.85 -14.25 8.55 Q-13.65 7.2 -12.9 3.0 -11.85 -2.45 -12.05 -6.3" fill="#fe9a03" fill-rule="evenodd" stroke="none"/>
      <path d="M-12.15 -13.1 Q-10.05 -9.6 -6.95 -6.45 L-6.65 -6.1 Q-2.15 -0.35 16.35 4.05 L16.35 4.1 19.6 4.3 21.0 5.85 Q21.3 7.55 21.0 9.05 18.75 9.75 17.05 5.75 3.35 7.25 -11.05 4.3 L-11.05 4.35 Q-10.15 0.45 -10.5 -6.8 -10.75 -10.6 -12.15 -13.1 M8.1 3.25 Q-7.8 -2.7 -9.6 -7.25 -8.85 -4.15 -9.55 1.9 -3.3 -0.35 8.1 3.25" fill="#fcd35a" fill-rule="evenodd" stroke="none"/>
      <path d="M-12.05 -6.3 Q-11.85 -2.45 -12.9 3.0 -13.65 7.2 -14.25 8.55 -17.65 0.85 -12.05 -6.3" fill="#4b1203" fill-rule="evenodd" stroke="none"/>
      <path d="M21.0 9.05 L20.55 10.45 20.15 10.5 Q17.1 10.55 15.55 7.2 -1.0 6.3 -12.8 10.0 -11.8 7.35 -11.05 4.35 L-11.05 4.3 Q3.35 7.25 17.05 5.75 18.75 9.75 21.0 9.05" fill="#fbc115" fill-rule="evenodd" stroke="none"/>
      <path d="M20.55 10.45 L19.75 11.8 19.5 11.8 Q17.05 11.9 16.35 10.35 L15.6 9.25 3.15 9.75 Q-7.25 11.1 -12.9 13.85 L-16.45 15.15 -16.5 15.1 -16.45 15.05 -16.25 14.9 -14.3 12.95 Q-13.6 12.15 -12.8 10.0 -1.0 6.3 15.55 7.2 17.1 10.55 20.15 10.5 L20.55 10.45" fill="#e98c01" fill-rule="evenodd" stroke="none"/>
      <path d="M-16.45 15.15 L-17.3 15.5 -16.5 15.1 -16.45 15.15" fill="#dc8501" fill-rule="evenodd" stroke="none"/>
      <path d="M8.1 3.25 Q-3.3 -0.35 -9.55 1.9 -8.85 -4.15 -9.6 -7.25 -7.8 -2.7 8.1 3.25" fill="#ffffff" fill-rule="evenodd" stroke="none"/>
    </g>
    <g id="shape23">
      <path d="M6.9 -5.0 L6.9 1.9 3.3 2.1 2.15 3.95 Q1.4 5.25 -1.5 5.0 -2.95 3.3 -3.05 0.6 -3.15 -2.3 -1.3 -3.6 L2.4 -3.85 6.9 -5.0" fill="url(#gradient4)" fill-rule="evenodd" stroke="none"/>
    </g>
    <linearGradient gradientTransform="matrix(0.0084, 0.0, 0.0, 0.0061, 0.0, 0.0)" gradientUnits="userSpaceOnUse" id="gradient4" spreadMethod="pad" x1="-819.2" x2="819.2">
      <stop offset="0.0" stop-color="#ef0000"/>
      <stop offset="1.0" stop-color="#ff871b" stop-opacity="0.023529412"/>
    </linearGradient>
  </defs>
</svg>
