<?xml version="1.0" encoding="UTF-8" standalone="no"?>
<svg xmlns:ffdec="https://www.free-decompiler.com/flash" xmlns:xlink="http://www.w3.org/1999/xlink" ffdec:objectType="frame" height="410.0px" width="590.0px" xmlns="http://www.w3.org/2000/svg">
  <g transform="matrix(1.0, 0.0, 0.0, 1.0, 0.0, 0.0)">
    <rect fill="#000000" height="410.0px" width="590.0px"/>
    <use ffdec:characterId="6" height="40.5" transform="matrix(0.8519, 0.0, 0.0, 0.8519, 410.7, 341.8)" width="54.45" xlink:href="#sprite0"/>
    <use ffdec:characterId="6" height="40.5" transform="matrix(0.8519, 0.0, 0.0, 0.8519, 59.95, 270.7)" width="54.45" xlink:href="#sprite0"/>
    <use ffdec:characterId="8" height="15.55" transform="matrix(-5.1799, 0.0, 0.0, 1.2564, 411.45, 371.8)" width="23.8" xlink:href="#sprite3"/>
    <use ffdec:characterId="14" height="88.7" transform="matrix(-1.0, 0.0, 0.0, 1.0, 549.45, 197.15)" width="79.2" xlink:href="#sprite4"/>
    <use ffdec:characterId="15" height="110.0" transform="matrix(0.6205, 1.4435, -1.4435, 0.6205, 444.65, 261.45)" width="79.15" xlink:href="#shape5"/>
    <use ffdec:characterId="17" height="21.8" transform="matrix(0.9944, -0.3152, 0.3152, 0.9944, 537.85, 228.4)" width="21.85" xlink:href="#sprite6"/>
    <use ffdec:characterId="17" height="21.8" transform="matrix(0.8685, 0.7934, -0.7934, 0.8685, 518.9, 223.6)" width="21.85" xlink:href="#sprite6"/>
    <use ffdec:characterId="17" height="21.8" transform="matrix(0.9944, -0.3152, 0.3152, 0.9944, 537.85, 228.4)" width="21.85" xlink:href="#sprite6"/>
    <use ffdec:characterId="17" height="21.8" transform="matrix(0.8685, 0.7934, -0.7934, 0.8685, 518.9, 223.6)" width="21.85" xlink:href="#sprite6"/>
    <use ffdec:characterId="19" height="5.7" transform="matrix(1.0482, -0.3322, 0.3322, 1.0482, 538.85, 227.45)" width="5.8" xlink:href="#sprite7"/>
    <use ffdec:characterId="19" height="5.7" transform="matrix(0.8685, 0.7934, -0.7934, 0.8685, 519.2, 221.65)" width="5.8" xlink:href="#sprite7"/>
    <use ffdec:characterId="40" height="26.3" transform="matrix(-1.17, -0.2575, -0.2575, 1.17, 519.25, 224.1)" width="55.25" xlink:href="#sprite8"/>
    <use ffdec:characterId="41" height="31.55" transform="matrix(-1.3965, -0.7243, -0.7243, 1.3965, 558.65, 234.0)" width="45.95" xlink:href="#sprite9"/>
    <use ffdec:characterId="42" height="10.05" transform="matrix(1.2289, 0.6374, -0.6374, 1.2289, 527.6, 231.0)" width="9.95" xlink:href="#sprite10"/>
    <use ffdec:characterId="2" height="149.45" transform="matrix(0.1927, 0.0, 0.0, 0.1927, 542.85, 365.65)" width="240.7" xlink:href="#sprite11"/>
    <clipPath id="clipPath0">
      <path d="M 547.54 343.25 L 547.16 343.26 L 546.78 343.29 L 546.39 343.34 L 545.99 343.42 L 545.59 343.52 L 545.18 343.64 L 544.77 343.79 L 544.35 343.95 L 544.09 344.07 L 543.83 344.2 L 543.56 344.36 L 543.3 344.53 L 543.04 344.73 L 542.78 344.94 L 542.52 345.17 L 542.26 345.43 L 542 345.7 L 541.74 345.99 L 541.48 346.31 L 541.22 346.64 L 540.96 346.99 L 540.7 347.36 L 540.45 347.75 L 540.19 348.16 L 539.93 348.59 L 539.67 349.04 L 539.16 350 L 538.65 351.04 L 538.13 352.15 L 537.62 353.35 L 537.11 354.62 L 536.61 355.97 L 536.1 357.4 L 536.3 357.01 L 536.5 356.68 L 536.69 356.4 L 536.88 356.16 L 537.07 355.98 L 537.16 355.91 L 537.25 355.85 L 537.34 355.81 L 537.43 355.78 L 537.52 355.76 L 537.61 355.75 L 537.7 355.76 L 537.78 355.78 L 537.87 355.81 L 537.95 355.85 L 538.5 356.45 L 540.5 360.85 L 540.87 361.52 L 541.24 362.14 L 541.6 362.71 L 541.95 363.23 L 542.3 363.69 L 542.64 364.09 L 542.97 364.45 L 543.3 364.75 L 543.9 364.8 L 544.12 364.74 L 544.33 364.67 L 544.53 364.59 L 544.73 364.49 L 544.92 364.39 L 545.11 364.28 L 545.29 364.16 L 545.46 364.02 L 545.63 363.88 L 545.79 363.73 L 545.95 363.57 L 546.1 363.39 L 546.25 363.21 L 546.39 363.02 L 546.52 362.81 L 546.65 362.6 L 547.4 360.35 L 547.47 360.03 L 547.55 359.7 L 547.76 359 L 548.03 358.25 L 548.35 357.45 L 548.51 357.07 L 548.68 356.75 L 548.86 356.47 L 549.05 356.25 L 549.15 356.16 L 549.25 356.07 L 549.35 356 L 549.46 355.95 L 549.56 355.9 L 549.67 355.87 L 549.78 355.85 L 549.89 355.85 L 549.95 355.85 L 550.04 355.86 L 550.15 355.89 L 550.27 355.94 L 550.4 356.01 L 550.7 356.22 L 551.05 356.5 L 551.14 356.6 L 551.24 356.73 L 551.45 357.08 L 551.69 357.55 L 551.96 358.14 L 552.26 358.84 L 552.58 359.66 L 552.93 360.6 L 553.3 361.65 L 553.52 362.33 L 553.64 362.64 L 553.76 362.94 L 553.89 363.22 L 554.02 363.48 L 554.16 363.72 L 554.3 363.95 L 554.45 364.16 L 554.6 364.35 L 554.75 364.53 L 554.91 364.69 L 555.08 364.83 L 555.25 364.95 L 555.42 365.06 L 555.6 365.15 L 556.5 365.4 L 556.65 365.4 L 556.81 365.4 L 556.98 365.38 L 557.14 365.36 L 557.3 365.32 L 557.45 365.27 L 557.61 365.21 L 557.76 365.14 L 557.91 365.06 L 558.05 364.97 L 558.2 364.87 L 558.48 364.64 L 558.75 364.36 L 559 364.04 L 559.25 363.68 L 559.49 363.27 L 559.72 362.83 L 559.94 362.34 L 560.14 361.8 L 560.34 361.23 L 560.52 360.61 L 560.7 359.95 L 559.94 358.42 L 559.2 356.97 L 558.49 355.59 L 557.8 354.3 L 557.14 353.08 L 556.51 351.94 L 555.9 350.87 L 555.31 349.89 L 554.75 348.98 L 554.22 348.15 L 553.71 347.4 L 553.23 346.72 L 552.77 346.12 L 552.34 345.61 L 551.93 345.16 L 551.55 344.8 L 551.32 344.61 L 551.1 344.44 L 550.86 344.27 L 550.63 344.12 L 550.39 343.98 L 550.14 343.85 L 549.9 343.74 L 549.65 343.63 L 549.4 343.54 L 549.14 343.46 L 548.88 343.4 L 548.62 343.34 L 548.35 343.3 L 548.08 343.27 L 547.81 343.25 L 547.54 343.25 Z"/>
    </clipPath>
    <g clip-path="url(#clipPath0)">
      <use ffdec:characterId="43" height="17.8" transform="matrix(0.866, 0.5, -0.5, 0.866, 547.0, 353.8)" width="17.75" xlink:href="#sprite12"/>
    </g>
    <use ffdec:characterId="28" height="140.2" transform="matrix(0.1927, 0.0, 0.0, 0.1609, 549.15, 348.05)" width="221.4" xlink:href="#sprite13"/>
    <use ffdec:characterId="45" height="21.45" transform="matrix(0.0, 1.726, -1.726, 0.0, 476.3, 255.95)" width="24.3" xlink:href="#sprite14"/>
    <use ffdec:characterId="47" height="21.2" transform="matrix(0.0, 1.726, -1.726, 0.0, 502.75, 266.6)" width="16.65" xlink:href="#sprite15"/>
    <use ffdec:characterId="31" height="59.55" transform="matrix(1.0, 0.0, 0.0, 1.0, 235.25, 293.95)" width="91.0" xlink:href="#sprite16"/>
    <use ffdec:characterId="31" height="59.55" transform="matrix(0.9926, 0.1179, -0.1179, 0.9926, 344.35, 297.95)" width="91.0" xlink:href="#sprite16"/>
    <use ffdec:characterId="49" height="232.9" transform="matrix(1.0, 0.0, 0.0, 1.0, 535.1, 352.0)" width="101.65" xlink:href="#sprite17"/>
    <use ffdec:characterId="33" height="222.05" transform="matrix(0.846, 0.0, 0.0, 0.846, 240.8, 160.9)" width="102.35" xlink:href="#sprite18"/>
    <use ffdec:characterId="34" height="215.85" transform="matrix(1.0, 0.0, 0.0, 1.0, 195.1, 157.8)" width="12.15" xlink:href="#shape21"/>
    <use ffdec:characterId="35" height="215.85" transform="matrix(1.0, 0.0, 0.0, 1.0, 278.45, 157.3)" width="12.15" xlink:href="#shape22"/>
    <use ffdec:characterId="36" height="8.25" transform="matrix(0.0058, -1.9999, 1.0612, 0.0109, 276.7, 191.15)" width="3.5" xlink:href="#shape23"/>
    <use ffdec:characterId="36" height="8.25" transform="matrix(0.0056, -1.9999, 1.025, 0.0109, 196.9, 191.15)" width="3.5" xlink:href="#shape23"/>
    <use ffdec:characterId="36" height="8.25" transform="matrix(0.006, -1.2539, 1.0975, 0.0068, 193.95, 262.65)" width="3.5" xlink:href="#shape23"/>
    <use ffdec:characterId="36" height="8.25" transform="matrix(0.006, -1.2539, 1.0975, 0.0068, 279.4, 262.7)" width="3.5" xlink:href="#shape23"/>
    <use ffdec:characterId="34" height="215.85" transform="matrix(0.0, -1.0, 0.4576, 0.0, 235.2, 255.75)" width="12.15" xlink:href="#shape21"/>
    <use ffdec:characterId="36" height="8.25" transform="matrix(0.0054, -1.0, 1.0, 0.0054, 194.2, 70.45)" width="3.5" xlink:href="#shape23"/>
    <use ffdec:characterId="36" height="8.25" transform="matrix(0.0054, -1.0, 1.0, 0.0054, 279.4, 71.45)" width="3.5" xlink:href="#shape23"/>
    <use ffdec:characterId="35" height="215.85" transform="matrix(-0.0053, -1.0, 0.4858, -0.0023, 236.0, 65.2)" width="12.15" xlink:href="#shape22"/>
    <use ffdec:characterId="36" height="8.25" transform="matrix(1.0, 0.0, 0.0, 1.0, 229.6, 67.05)" width="3.5" xlink:href="#shape23"/>
    <use ffdec:characterId="36" height="8.25" transform="matrix(0.0059, -1.1428, 1.0843, 0.0062, 277.8, 228.8)" width="3.5" xlink:href="#shape23"/>
    <use ffdec:characterId="36" height="8.25" transform="matrix(0.0059, -1.1428, 1.0843, 0.0062, 195.9, 227.2)" width="3.5" xlink:href="#shape23"/>
    <use ffdec:characterId="34" height="215.85" transform="matrix(0.0, -1.0, 0.4576, 0.0, 233.0, 220.35)" width="12.15" xlink:href="#shape21"/>
    <use ffdec:characterId="36" height="8.25" transform="matrix(0.0054, -1.0, 1.0, 0.0054, 196.2, 110.05)" width="3.5" xlink:href="#shape23"/>
    <use ffdec:characterId="36" height="8.25" transform="matrix(0.0054, -1.0, 1.0, 0.0054, 277.6, 111.05)" width="3.5" xlink:href="#shape23"/>
    <use ffdec:characterId="35" height="215.85" transform="matrix(-0.0053, -1.0, 0.4858, -0.0023, 235.95, 104.2)" width="12.15" xlink:href="#shape22"/>
    <use ffdec:characterId="36" height="8.25" transform="matrix(0.0054, -1.0, 1.0, 0.0054, 197.2, 147.55)" width="3.5" xlink:href="#shape23"/>
    <use ffdec:characterId="36" height="8.25" transform="matrix(0.0054, -1.0, 1.0, 0.0054, 276.6, 148.15)" width="3.5" xlink:href="#shape23"/>
    <use ffdec:characterId="35" height="215.85" transform="matrix(-0.0053, -1.0, 0.4858, -0.0023, 235.95, 141.6)" width="12.15" xlink:href="#shape22"/>
    <use ffdec:characterId="34" height="215.85" transform="matrix(0.0, -1.0, 0.4576, 0.0, 235.85, 183.05)" width="12.15" xlink:href="#shape21"/>
    <use ffdec:characterId="36" height="8.25" transform="matrix(1.0, 0.0, 0.0, 1.0, 227.8, 106.05)" width="3.5" xlink:href="#shape23"/>
    <use ffdec:characterId="36" height="8.25" transform="matrix(1.0, 0.0, 0.0, 1.0, 227.4, 143.35)" width="3.5" xlink:href="#shape23"/>
    <use ffdec:characterId="36" height="8.25" transform="matrix(1.0, 0.0, 0.0, 1.0, 227.4, 181.35)" width="3.5" xlink:href="#shape23"/>
    <use ffdec:characterId="36" height="8.25" transform="matrix(1.0, 0.0, 0.0, 1.0, 227.9, 218.55)" width="3.5" xlink:href="#shape23"/>
    <use ffdec:characterId="35" height="215.85" transform="matrix(0.995, 0.0934, 0.0114, 0.9746, 235.5, 158.45)" width="12.15" xlink:href="#shape22"/>
    <use ffdec:characterId="37" height="13.8" transform="matrix(-0.783, 0.0, 0.0, 0.783, 235.4, 67.1)" width="11.4" xlink:href="#shape24"/>
    <use ffdec:characterId="37" height="13.8" transform="matrix(0.7703, 0.0, 0.0, 0.7703, 235.65, 66.6)" width="11.4" xlink:href="#shape24"/>
    <use ffdec:characterId="37" height="13.8" transform="matrix(-0.783, 0.0, 0.0, 0.783, 233.75, 107.25)" width="11.4" xlink:href="#shape24"/>
    <use ffdec:characterId="37" height="13.8" transform="matrix(0.7703, 0.0, 0.0, 0.7703, 234.0, 106.75)" width="11.4" xlink:href="#shape24"/>
    <use ffdec:characterId="37" height="13.8" transform="matrix(-0.783, 0.0, 0.0, 0.783, 233.2, 144.1)" width="11.4" xlink:href="#shape24"/>
    <use ffdec:characterId="37" height="13.8" transform="matrix(0.7703, 0.0, 0.0, 0.7703, 233.45, 143.6)" width="11.4" xlink:href="#shape24"/>
    <use ffdec:characterId="37" height="13.8" transform="matrix(0.783, 0.0, 0.0, 0.783, 233.95, 181.9)" width="11.4" xlink:href="#shape24"/>
    <use ffdec:characterId="37" height="13.8" transform="matrix(-0.7703, 0.0, 0.0, 0.7703, 233.7, 181.4)" width="11.4" xlink:href="#shape24"/>
    <use ffdec:characterId="37" height="13.8" transform="matrix(-0.9933, 0.0, 0.0, 0.825, 234.1, 218.95)" width="11.4" xlink:href="#shape24"/>
    <use ffdec:characterId="37" height="13.8" transform="matrix(0.9772, 0.0, 0.0, 0.8115, 234.45, 218.4)" width="11.4" xlink:href="#shape24"/>
    <use ffdec:characterId="37" height="13.8" transform="matrix(-0.783, 0.0, 0.0, 0.783, 193.05, 64.8)" width="11.4" xlink:href="#shape24"/>
    <use ffdec:characterId="37" height="13.8" transform="matrix(1.0, 0.0, 0.0, 1.0, 194.1, 64.7)" width="11.4" xlink:href="#shape24"/>
    <use ffdec:characterId="37" height="13.8" transform="matrix(-0.783, 0.0, 0.0, 0.783, 195.25, 104.95)" width="11.4" xlink:href="#shape24"/>
    <use ffdec:characterId="37" height="13.8" transform="matrix(1.0, 0.0, 0.0, 1.0, 196.3, 104.85)" width="11.4" xlink:href="#shape24"/>
    <use ffdec:characterId="37" height="13.8" transform="matrix(-0.783, 0.0, 0.0, 0.783, 196.35, 142.35)" width="11.4" xlink:href="#shape24"/>
    <use ffdec:characterId="37" height="13.8" transform="matrix(1.0, 0.0, 0.0, 1.0, 197.4, 142.25)" width="11.4" xlink:href="#shape24"/>
    <use ffdec:characterId="37" height="13.8" transform="matrix(0.783, 0.0, 0.0, 0.783, 197.35, 184.05)" width="11.4" xlink:href="#shape24"/>
    <use ffdec:characterId="37" height="13.8" transform="matrix(-1.0, 0.0, 0.0, 1.0, 196.3, 183.95)" width="11.4" xlink:href="#shape24"/>
    <use ffdec:characterId="37" height="13.8" transform="matrix(0.783, 0.0, 0.0, 0.783, 196.2, 221.85)" width="11.4" xlink:href="#shape24"/>
    <use ffdec:characterId="37" height="13.8" transform="matrix(-1.0, 0.0, 0.0, 1.0, 195.15, 221.75)" width="11.4" xlink:href="#shape24"/>
    <use ffdec:characterId="37" height="13.8" transform="matrix(0.783, 0.0, 0.0, 0.783, 194.15, 257.15)" width="11.4" xlink:href="#shape24"/>
    <use ffdec:characterId="37" height="13.8" transform="matrix(-1.0, 0.0, 0.0, 1.0, 193.1, 257.05)" width="11.4" xlink:href="#shape24"/>
    <use ffdec:characterId="36" height="8.25" transform="matrix(1.0, 0.0, 0.0, 1.0, 230.4, 253.85)" width="3.5" xlink:href="#shape23"/>
    <use ffdec:characterId="37" height="13.8" transform="matrix(-0.9933, 0.0, 0.0, 0.825, 237.15, 255.05)" width="11.4" xlink:href="#shape24"/>
    <use ffdec:characterId="37" height="13.8" transform="matrix(0.9772, 0.0, 0.0, 0.8115, 237.5, 254.5)" width="11.4" xlink:href="#shape24"/>
    <use ffdec:characterId="37" height="13.8" transform="matrix(0.783, 0.0, 0.0, 0.783, 280.15, 64.8)" width="11.4" xlink:href="#shape24"/>
    <use ffdec:characterId="37" height="13.8" transform="matrix(-1.0, 0.0, 0.0, 1.0, 279.1, 64.7)" width="11.4" xlink:href="#shape24"/>
    <use ffdec:characterId="37" height="13.8" transform="matrix(0.783, 0.0, 0.0, 0.783, 277.95, 104.95)" width="11.4" xlink:href="#shape24"/>
    <use ffdec:characterId="37" height="13.8" transform="matrix(-1.0, 0.0, 0.0, 1.0, 276.9, 104.85)" width="11.4" xlink:href="#shape24"/>
    <use ffdec:characterId="37" height="13.8" transform="matrix(0.783, 0.0, 0.0, 0.783, 276.85, 142.35)" width="11.4" xlink:href="#shape24"/>
    <use ffdec:characterId="37" height="13.8" transform="matrix(-1.0, 0.0, 0.0, 1.0, 275.8, 142.25)" width="11.4" xlink:href="#shape24"/>
    <use ffdec:characterId="37" height="13.8" transform="matrix(-0.783, 0.0, 0.0, 0.783, 276.2, 184.2)" width="11.4" xlink:href="#shape24"/>
    <use ffdec:characterId="37" height="13.8" transform="matrix(1.0, 0.0, 0.0, 1.0, 277.25, 184.1)" width="11.4" xlink:href="#shape24"/>
    <use ffdec:characterId="37" height="13.8" transform="matrix(-0.783, 0.0, 0.0, 0.783, 277.15, 221.6)" width="11.4" xlink:href="#shape24"/>
    <use ffdec:characterId="37" height="13.8" transform="matrix(1.0, 0.0, 0.0, 1.0, 278.2, 221.5)" width="11.4" xlink:href="#shape24"/>
    <use ffdec:characterId="37" height="13.8" transform="matrix(-0.8792, 0.0, 0.0, 0.6468, 278.65, 256.85)" width="11.4" xlink:href="#shape24"/>
    <use ffdec:characterId="37" height="13.8" transform="matrix(1.1228, 0.0, 0.0, 0.8261, 279.85, 256.75)" width="11.4" xlink:href="#shape24"/>
    <use ffdec:characterId="33" height="222.05" transform="matrix(-0.8398, -0.0997, 0.0997, -0.8398, 356.9, 164.55)" width="102.35" xlink:href="#sprite18"/>
    <use ffdec:characterId="34" height="215.85" transform="matrix(0.9926, 0.1179, -0.1179, 0.9926, 320.55, 158.1)" width="12.15" xlink:href="#shape21"/>
    <use ffdec:characterId="35" height="215.85" transform="matrix(0.9926, 0.1179, -0.1179, 0.9926, 403.35, 167.45)" width="12.15" xlink:href="#shape22"/>
    <use ffdec:characterId="36" height="8.25" transform="matrix(0.2415, -1.9845, 1.0521, 0.1359, 397.65, 200.85)" width="3.5" xlink:href="#shape23"/>
    <use ffdec:characterId="36" height="8.25" transform="matrix(0.2413, -1.9845, 1.0162, 0.1316, 318.45, 191.45)" width="3.5" xlink:href="#shape23"/>
    <use ffdec:characterId="36" height="8.25" transform="matrix(0.1537, -1.244, 1.0886, 0.1361, 307.05, 262.05)" width="3.5" xlink:href="#shape23"/>
    <use ffdec:characterId="36" height="8.25" transform="matrix(0.1537, -1.244, 1.0886, 0.1361, 391.9, 272.15)" width="3.5" xlink:href="#shape23"/>
    <use ffdec:characterId="34" height="215.85" transform="matrix(0.1179, -0.9926, 0.4543, 0.0539, 348.8, 260.05)" width="12.15" xlink:href="#shape21"/>
    <use ffdec:characterId="36" height="8.25" transform="matrix(0.1233, -0.992, 0.992, 0.1233, 329.95, 71.25)" width="3.5" xlink:href="#shape23"/>
    <use ffdec:characterId="36" height="8.25" transform="matrix(0.1233, -0.992, 0.992, 0.1233, 414.45, 82.3)" width="3.5" xlink:href="#shape23"/>
    <use ffdec:characterId="35" height="215.85" transform="matrix(0.1126, -0.9932, 0.4825, 0.055, 372.1, 71.0)" width="12.15" xlink:href="#shape22"/>
    <use ffdec:characterId="36" height="8.25" transform="matrix(0.9926, 0.1179, -0.1179, 0.9926, 365.5, 72.1)" width="3.5" xlink:href="#shape23"/>
    <use ffdec:characterId="36" height="8.25" transform="matrix(0.1405, -1.1337, 1.0756, 0.134, 394.3, 238.35)" width="3.5" xlink:href="#shape23"/>
    <use ffdec:characterId="36" height="8.25" transform="matrix(0.1405, -1.1337, 1.0756, 0.134, 313.2, 227.05)" width="3.5" xlink:href="#shape23"/>
    <use ffdec:characterId="34" height="215.85" transform="matrix(0.1179, -0.9926, 0.4543, 0.0539, 350.8, 224.65)" width="12.15" xlink:href="#shape21"/>
    <use ffdec:characterId="36" height="8.25" transform="matrix(0.1233, -0.992, 0.992, 0.1233, 327.3, 110.8)" width="3.5" xlink:href="#shape23"/>
    <use ffdec:characterId="36" height="8.25" transform="matrix(0.1233, -0.992, 0.992, 0.1233, 407.95, 121.4)" width="3.5" xlink:href="#shape23"/>
    <use ffdec:characterId="35" height="215.85" transform="matrix(0.1126, -0.9932, 0.4825, 0.055, 367.45, 109.7)" width="12.15" xlink:href="#shape22"/>
    <use ffdec:characterId="36" height="8.25" transform="matrix(0.1233, -0.992, 0.992, 0.1233, 323.85, 148.2)" width="3.5" xlink:href="#shape23"/>
    <use ffdec:characterId="36" height="8.25" transform="matrix(0.1233, -0.992, 0.992, 0.1233, 402.6, 158.15)" width="3.5" xlink:href="#shape23"/>
    <use ffdec:characterId="35" height="215.85" transform="matrix(0.1126, -0.9932, 0.4825, 0.055, 363.0, 146.85)" width="12.15" xlink:href="#shape22"/>
    <use ffdec:characterId="34" height="215.85" transform="matrix(0.1179, -0.9926, 0.4543, 0.0539, 358.05, 188.0)" width="12.15" xlink:href="#shape21"/>
    <use ffdec:characterId="36" height="8.25" transform="matrix(0.9926, 0.1179, -0.1179, 0.9926, 359.1, 110.6)" width="3.5" xlink:href="#shape23"/>
    <use ffdec:characterId="36" height="8.25" transform="matrix(0.9926, 0.1179, -0.1179, 0.9926, 354.3, 147.6)" width="3.5" xlink:href="#shape23"/>
    <use ffdec:characterId="36" height="8.25" transform="matrix(0.9926, 0.1179, -0.1179, 0.9926, 349.85, 185.3)" width="3.5" xlink:href="#shape23"/>
    <use ffdec:characterId="36" height="8.25" transform="matrix(0.9926, 0.1179, -0.1179, 0.9926, 345.95, 222.25)" width="3.5" xlink:href="#shape23"/>
    <use ffdec:characterId="35" height="215.85" transform="matrix(0.9767, 0.2101, -0.1035, 0.9688, 360.6, 163.5)" width="12.15" xlink:href="#shape22"/>
    <use ffdec:characterId="37" height="13.8" transform="matrix(-0.7773, -0.0923, -0.0923, 0.7773, 371.25, 72.85)" width="11.4" xlink:href="#shape24"/>
    <use ffdec:characterId="37" height="13.8" transform="matrix(0.7646, 0.0908, -0.0908, 0.7646, 371.55, 72.35)" width="11.4" xlink:href="#shape24"/>
    <use ffdec:characterId="37" height="13.8" transform="matrix(-0.7773, -0.0923, -0.0923, 0.7773, 364.9, 112.5)" width="11.4" xlink:href="#shape24"/>
    <use ffdec:characterId="37" height="13.8" transform="matrix(0.7646, 0.0908, -0.0908, 0.7646, 365.2, 112.0)" width="11.4" xlink:href="#shape24"/>
    <use ffdec:characterId="37" height="13.8" transform="matrix(-0.7773, -0.0923, -0.0923, 0.7773, 360.0, 149.05)" width="11.4" xlink:href="#shape24"/>
    <use ffdec:characterId="37" height="13.8" transform="matrix(0.7646, 0.0908, -0.0908, 0.7646, 360.3, 148.55)" width="11.4" xlink:href="#shape24"/>
    <use ffdec:characterId="37" height="13.8" transform="matrix(0.7773, 0.0923, -0.0923, 0.7773, 356.3, 186.6)" width="11.4" xlink:href="#shape24"/>
    <use ffdec:characterId="37" height="13.8" transform="matrix(-0.7646, -0.0908, -0.0908, 0.7646, 356.1, 186.1)" width="11.4" xlink:href="#shape24"/>
    <use ffdec:characterId="37" height="13.8" transform="matrix(-0.986, -0.1171, -0.0972, 0.8189, 352.1, 223.45)" width="11.4" xlink:href="#shape24"/>
    <use ffdec:characterId="37" height="13.8" transform="matrix(0.97, 0.1152, -0.0957, 0.8055, 352.5, 222.9)" width="11.4" xlink:href="#shape24"/>
    <use ffdec:characterId="37" height="13.8" transform="matrix(-0.7773, -0.0923, -0.0923, 0.7773, 329.5, 65.5)" width="11.4" xlink:href="#shape24"/>
    <use ffdec:characterId="37" height="13.8" transform="matrix(0.9926, 0.1179, -0.1179, 0.9926, 330.55, 65.55)" width="11.4" xlink:href="#shape24"/>
    <use ffdec:characterId="37" height="13.8" transform="matrix(-0.7773, -0.0923, -0.0923, 0.7773, 326.95, 105.6)" width="11.4" xlink:href="#shape24"/>
    <use ffdec:characterId="37" height="13.8" transform="matrix(0.9926, 0.1179, -0.1179, 0.9926, 328.0, 105.65)" width="11.4" xlink:href="#shape24"/>
    <use ffdec:characterId="37" height="13.8" transform="matrix(-0.7773, -0.0923, -0.0923, 0.7773, 323.65, 142.9)" width="11.4" xlink:href="#shape24"/>
    <use ffdec:characterId="37" height="13.8" transform="matrix(0.9926, 0.1179, -0.1179, 0.9926, 324.7, 142.95)" width="11.4" xlink:href="#shape24"/>
    <use ffdec:characterId="37" height="13.8" transform="matrix(0.7773, 0.0923, -0.0923, 0.7773, 319.75, 184.45)" width="11.4" xlink:href="#shape24"/>
    <use ffdec:characterId="37" height="13.8" transform="matrix(-0.9926, -0.1179, -0.1179, 0.9926, 318.7, 184.2)" width="11.4" xlink:href="#shape24"/>
    <use ffdec:characterId="37" height="13.8" transform="matrix(0.7773, 0.0923, -0.0923, 0.7773, 314.15, 221.85)" width="11.4" xlink:href="#shape24"/>
    <use ffdec:characterId="37" height="13.8" transform="matrix(-0.9926, -0.1179, -0.1179, 0.9926, 313.1, 221.6)" width="11.4" xlink:href="#shape24"/>
    <use ffdec:characterId="37" height="13.8" transform="matrix(0.7773, 0.0923, -0.0923, 0.7773, 307.9, 256.65)" width="11.4" xlink:href="#shape24"/>
    <use ffdec:characterId="37" height="13.8" transform="matrix(-0.9926, -0.1179, -0.1179, 0.9926, 306.85, 256.4)" width="11.4" xlink:href="#shape24"/>
    <use ffdec:characterId="36" height="8.25" transform="matrix(0.9926, 0.1179, -0.1179, 0.9926, 344.3, 257.6)" width="3.5" xlink:href="#shape23"/>
    <use ffdec:characterId="37" height="13.8" transform="matrix(-0.986, -0.1171, -0.0972, 0.8189, 350.9, 259.6)" width="11.4" xlink:href="#shape24"/>
    <use ffdec:characterId="37" height="13.8" transform="matrix(0.97, 0.1152, -0.0957, 0.8055, 351.3, 259.05)" width="11.4" xlink:href="#shape24"/>
    <use ffdec:characterId="37" height="13.8" transform="matrix(0.7773, 0.0923, -0.0923, 0.7773, 416.0, 75.85)" width="11.4" xlink:href="#shape24"/>
    <use ffdec:characterId="37" height="13.8" transform="matrix(-0.9926, -0.1179, -0.1179, 0.9926, 414.95, 75.6)" width="11.4" xlink:href="#shape24"/>
    <use ffdec:characterId="37" height="13.8" transform="matrix(0.7773, 0.0923, -0.0923, 0.7773, 409.05, 115.4)" width="11.4" xlink:href="#shape24"/>
    <use ffdec:characterId="37" height="13.8" transform="matrix(-0.9926, -0.1179, -0.1179, 0.9926, 408.0, 115.15)" width="11.4" xlink:href="#shape24"/>
    <use ffdec:characterId="37" height="13.8" transform="matrix(0.7773, 0.0923, -0.0923, 0.7773, 403.55, 152.45)" width="11.4" xlink:href="#shape24"/>
    <use ffdec:characterId="37" height="13.8" transform="matrix(-0.9926, -0.1179, -0.1179, 0.9926, 402.5, 152.2)" width="11.4" xlink:href="#shape24"/>
    <use ffdec:characterId="37" height="13.8" transform="matrix(-0.7773, -0.0923, -0.0923, 0.7773, 397.95, 193.85)" width="11.4" xlink:href="#shape24"/>
    <use ffdec:characterId="37" height="13.8" transform="matrix(0.9926, 0.1179, -0.1179, 0.9926, 399.0, 193.9)" width="11.4" xlink:href="#shape24"/>
    <use ffdec:characterId="37" height="13.8" transform="matrix(-0.7773, -0.0923, -0.0923, 0.7773, 394.5, 231.1)" width="11.4" xlink:href="#shape24"/>
    <use ffdec:characterId="37" height="13.8" transform="matrix(0.9926, 0.1179, -0.1179, 0.9926, 395.55, 231.15)" width="11.4" xlink:href="#shape24"/>
    <use ffdec:characterId="37" height="13.8" transform="matrix(-0.8727, -0.1036, -0.0762, 0.6421, 391.9, 266.25)" width="11.4" xlink:href="#shape24"/>
    <use ffdec:characterId="37" height="13.8" transform="matrix(1.1145, 0.1324, -0.0974, 0.82, 393.05, 266.3)" width="11.4" xlink:href="#shape24"/>
    <use ffdec:characterId="39" height="19.6" transform="matrix(1.0, 0.0, 0.0, 1.0, 214.95, 84.95)" width="19.5" xlink:href="#sprite19"/>
    <use ffdec:characterId="39" height="19.6" transform="matrix(1.0, 0.0, 0.0, 1.0, 254.95, 84.95)" width="19.5" xlink:href="#sprite19"/>
    <use ffdec:characterId="39" height="19.6" transform="matrix(1.0, 0.0, 0.0, 1.0, 254.95, 123.95)" width="19.5" xlink:href="#sprite19"/>
    <use ffdec:characterId="39" height="19.6" transform="matrix(1.0, 0.0, 0.0, 1.0, 214.75, 123.95)" width="19.5" xlink:href="#sprite19"/>
    <use ffdec:characterId="39" height="19.6" transform="matrix(1.0, 0.0, 0.0, 1.0, 214.75, 162.35)" width="19.5" xlink:href="#sprite19"/>
    <use ffdec:characterId="39" height="19.6" transform="matrix(1.0, 0.0, 0.0, 1.0, 254.35, 162.35)" width="19.5" xlink:href="#sprite19"/>
    <use ffdec:characterId="39" height="19.6" transform="matrix(1.0, 0.0, 0.0, 1.0, 254.35, 199.55)" width="19.5" xlink:href="#sprite19"/>
    <use ffdec:characterId="39" height="19.6" transform="matrix(1.0, 0.0, 0.0, 1.0, 214.75, 199.55)" width="19.5" xlink:href="#sprite19"/>
    <use ffdec:characterId="39" height="19.6" transform="matrix(1.0, 0.0, 0.0, 1.0, 214.75, 236.9)" width="19.5" xlink:href="#sprite19"/>
    <use ffdec:characterId="39" height="19.6" transform="matrix(1.0, 0.0, 0.0, 1.0, 255.55, 236.9)" width="19.5" xlink:href="#sprite19"/>
    <use ffdec:characterId="39" height="19.6" transform="matrix(1.0, 0.0, 0.0, 1.0, 332.35, 239.15)" width="19.5" xlink:href="#sprite19"/>
    <use ffdec:characterId="39" height="19.6" transform="matrix(1.0, 0.0, 0.0, 1.0, 335.95, 203.15)" width="19.5" xlink:href="#sprite19"/>
    <use ffdec:characterId="6" height="40.5" transform="matrix(0.9987, 0.0, 0.0, 0.9987, 489.55, 388.0)" width="54.45" xlink:href="#sprite0"/>
  </g>
  <defs>
    <g id="sprite0">
      <use ffdec:characterId="2" height="149.45" transform="matrix(0.2262, 0.0, 0.0, 0.2262, -4.95, 11.6)" width="240.7" xlink:href="#sprite1"/>
      <use ffdec:characterId="3" height="140.2" transform="matrix(0.2262, 0.0, 0.0, 0.2262, 2.45, -6.85)" width="221.4" xlink:href="#shape1"/>
      <use ffdec:characterId="5" height="12.4" transform="matrix(0.2262, 0.0, 0.0, 0.2262, -17.5, -2.65)" width="7.05" xlink:href="#sprite2"/>
      <use ffdec:characterId="5" height="12.4" transform="matrix(0.2262, 0.0, 0.0, 0.2262, -17.0, -4.0)" width="7.05" xlink:href="#sprite2"/>
      <use ffdec:characterId="5" height="12.4" transform="matrix(0.2262, 0.0, 0.0, 0.2262, -16.4, -5.45)" width="7.05" xlink:href="#sprite2"/>
    </g>
    <g id="sprite1">
      <use ffdec:characterId="1" height="149.45" transform="matrix(1.0, 0.0, 0.0, 1.0, 0.0, 0.0)" width="240.7" xlink:href="#shape0"/>
    </g>
    <g id="shape0">
      <path d="M-75.55 -39.5 L-27.0 -60.35 114.05 -7.9 Q17.25 50.7 -48.45 35.35 -132.4 -1.6 -75.55 -39.5" fill="#000000" fill-opacity="0.3019608" fill-rule="evenodd" stroke="none"/>
      <path d="M22.2 -109.55 L28.65 -108.35 Q52.05 -104.15 70.7 -99.35 133.9 -82.95 142.05 -59.45 143.0 -57.2 138.4 -42.35 133.7 -27.3 130.4 -22.7 117.8 -16.05 111.25 -27.1 105.2 -39.45 104.0 -49.55 102.75 -59.7 100.5 -46.35 98.25 -33.0 93.55 -18.95 89.5 -6.9 84.1 -0.7 73.6 2.9 66.25 0.15 56.45 0.4 47.55 -29.6 38.6 -59.65 31.8 -42.8 25.0 -26.0 24.25 -21.6 23.5 -17.25 20.9 -12.9 14.2 -1.7 5.75 -2.05 -2.5 -2.35 -10.3 -13.35 -19.25 -29.25 -23.9 -43.65 -26.35 -50.75 -27.75 -50.6 -28.75 -50.55 -31.6 -45.55 -32.7 -43.65 -33.95 -39.45 -35.2 -35.45 -36.3 -33.75 -41.0 -26.6 -43.2 -24.25 -46.45 -20.75 -49.7 -20.7 L-49.6 -24.25 Q-47.65 -24.85 -46.45 -26.05 -39.2 -31.8 -36.45 -42.0 -30.4 -55.15 -25.85 -52.3 -24.3 -51.6 -22.85 -49.3 L-20.5 -44.1 -16.4 -33.4 Q-6.65 -8.75 2.15 -5.95 L5.35 -5.7 Q14.55 -8.0 19.55 -17.3 22.25 -22.45 23.3 -28.85 24.7 -35.35 28.25 -43.9 31.75 -52.5 36.6 -52.35 38.65 -52.3 42.4 -48.7 46.15 -45.15 54.15 -22.15 58.6 -7.25 66.0 -3.8 68.25 -2.75 70.8 -2.75 88.15 -1.65 95.2 -43.7 97.85 -59.65 99.25 -59.95 103.7 -60.6 105.8 -56.45 107.9 -52.3 109.7 -44.4 111.5 -36.5 115.2 -29.15 117.25 -24.95 119.45 -23.75 L119.5 -23.75 Q120.55 -23.2 121.7 -23.35 129.3 -24.3 137.4 -51.15 L137.5 -51.55 Q148.3 -73.9 74.65 -95.65 53.7 -101.85 25.85 -108.0 24.1 -108.55 22.2 -109.55" fill="#fffff3" fill-rule="evenodd" stroke="none"/>
      <path d="M22.2 -109.55 Q24.1 -108.55 25.85 -108.0 53.7 -101.85 74.65 -95.65 148.3 -73.9 137.5 -51.55 L137.4 -51.15 137.25 -51.35 Q118.95 -80.65 59.35 -96.3 34.2 -102.9 -4.6 -103.8 -17.35 -104.1 -29.15 -103.7 L-39.2 -103.1 -39.25 -103.05 Q-50.2 -95.55 -60.05 -74.15 -73.65 -42.2 -67.85 -36.7 -68.3 -35.7 -69.65 -34.5 L-70.9 -33.5 Q-72.3 -35.75 -72.9 -38.5 -73.9 -42.7 -73.15 -48.05 -72.0 -56.6 -56.65 -82.75 -49.0 -95.8 -41.55 -107.2 L-39.8 -109.5 -39.75 -109.55 Q-8.35 -112.25 22.2 -109.55" fill="#000000" fill-rule="evenodd" stroke="none"/>
      <path d="M-49.6 -24.25 L-49.7 -20.7 Q-46.45 -20.75 -43.2 -24.25 -41.0 -26.6 -36.3 -33.75 -35.2 -35.45 -33.95 -39.45 -32.7 -43.65 -31.6 -45.55 -28.75 -50.55 -27.75 -50.6 -26.35 -50.75 -23.9 -43.65 -19.25 -29.25 -10.3 -13.35 -2.5 -2.35 5.75 -2.05 14.2 -1.7 20.9 -12.9 23.5 -17.25 24.25 -21.6 25.0 -26.0 31.8 -42.8 38.6 -59.65 47.55 -29.6 56.45 0.4 66.25 0.15 73.6 2.9 84.1 -0.7 76.75 15.0 67.2 19.25 38.8 10.05 36.8 -6.65 34.8 -23.35 25.75 5.15 24.2 15.4 16.45 18.35 8.2 21.5 -3.0 14.3 -5.05 13.0 -7.6 9.15 -10.95 4.15 -11.8 -1.05 -21.05 -20.3 -25.7 -40.1 -18.55 4.8 -29.85 5.75 -32.6 5.05 -35.5 3.5 -45.5 -4.9 -49.7 -20.7 -54.0 -19.15 -56.5 -22.45 -59.05 -44.2 -66.75 -40.7 -63.4 -45.6 -61.1 -45.75 -57.75 -46.0 -56.65 -36.25 -55.1 -22.8 -49.6 -24.25 M93.55 -18.95 Q98.25 -33.0 100.5 -46.35 102.75 -59.7 104.0 -49.55 105.2 -39.45 111.25 -27.1 117.8 -16.05 130.4 -22.7 128.1 -19.55 122.8 -14.9 95.4 -6.35 93.55 -18.95 M-73.7 -31.8 Q-86.05 -52.0 -44.95 -106.65 L-39.8 -109.5 -41.55 -107.2 Q-49.0 -95.8 -56.65 -82.75 -72.0 -56.6 -73.15 -48.05 -73.9 -42.7 -72.9 -38.5 -72.3 -35.75 -70.9 -33.5 -72.2 -33.0 -73.7 -31.8" fill="#ffcfb7" fill-rule="evenodd" stroke="none"/>
      <path d="M19.55 -17.3 Q14.55 -8.0 5.35 -5.7 L2.15 -5.95 Q-4.55 -11.6 -12.4 -26.35 3.4 -19.0 19.55 -17.3 M-36.45 -42.0 Q-39.2 -31.8 -46.45 -26.05 -55.95 -46.5 -61.1 -45.75 -63.4 -45.6 -66.75 -40.7 -67.1 -38.35 -67.85 -36.7 -73.65 -42.2 -60.05 -74.15 -56.75 -48.55 -36.45 -42.0" fill="#cc5840" fill-rule="evenodd" stroke="none"/>
      <path d="M119.5 -23.75 L119.45 -23.75 Q117.25 -24.95 115.2 -29.15 120.8 -29.25 128.1 -34.4 124.3 -29.0 119.5 -23.75 M66.0 -3.8 Q58.6 -7.25 54.15 -22.15 63.0 -19.5 72.3 -19.75 L66.0 -3.8 M23.3 -28.85 Q22.25 -22.45 19.55 -17.3 3.4 -19.0 -12.4 -26.35 L-20.5 -44.1 -22.85 -49.3 Q-24.3 -51.6 -25.85 -52.3 -30.4 -55.15 -36.45 -42.0 -56.75 -48.55 -60.05 -74.15 -50.2 -95.55 -39.25 -103.05 -58.4 -88.2 -31.05 -64.95 -3.7 -41.75 23.3 -28.85" fill="#d26f59" fill-rule="evenodd" stroke="none"/>
      <path d="M115.2 -29.15 Q111.5 -36.5 109.7 -44.4 107.9 -52.3 105.8 -56.45 103.7 -60.6 99.25 -59.95 93.05 -60.1 82.7 -39.85 L72.3 -19.75 Q63.0 -19.5 54.15 -22.15 46.15 -45.15 42.4 -48.7 38.65 -52.3 36.6 -52.35 31.75 -52.5 28.25 -43.9 24.7 -35.35 23.3 -28.85 -3.7 -41.75 -31.05 -64.95 -58.4 -88.2 -39.25 -103.05 L-39.2 -103.1 -29.15 -103.7 Q-17.35 -104.1 -4.6 -103.8 34.2 -102.9 59.35 -96.3 118.95 -80.65 137.25 -51.35 L137.4 -51.15 137.2 -51.2 Q135.85 -47.7 131.9 -40.75 L128.1 -34.4 Q120.8 -29.25 115.2 -29.15" fill="#dc8d7c" fill-rule="evenodd" stroke="none"/>
      <path d="M137.4 -51.15 Q129.3 -24.3 121.7 -23.35 120.55 -23.2 119.5 -23.75 124.3 -29.0 128.1 -34.4 L131.9 -40.75 Q135.85 -47.7 137.2 -51.2 L137.4 -51.15 M99.25 -59.95 Q97.85 -59.65 95.2 -43.7 88.15 -1.65 70.8 -2.75 68.25 -2.75 66.0 -3.8 L72.3 -19.75 82.7 -39.85 Q93.05 -60.1 99.25 -59.95" fill="#c2453a" fill-rule="evenodd" stroke="none"/>
      <path d="M84.1 -0.7 Q89.5 -6.9 93.55 -18.95 95.4 -6.35 122.8 -14.9 105.35 -0.75 84.1 -0.7 M67.2 19.25 Q52.6 25.7 32.85 5.15 29.3 1.4 25.75 5.15 34.8 -23.35 36.8 -6.65 38.8 10.05 67.2 19.25 M-11.8 -1.05 Q-19.85 8.15 -29.85 5.75 -18.55 4.8 -25.7 -40.1 -21.05 -20.3 -11.8 -1.05" fill="#d3705a" fill-rule="evenodd" stroke="none"/>
      <path d="M-56.5 -22.45 Q-67.45 -31.0 -73.7 -31.8 -72.2 -33.0 -70.9 -33.5 L-69.65 -34.5 Q-68.3 -35.7 -67.85 -36.7 -67.1 -38.35 -66.75 -40.7 -59.05 -44.2 -56.5 -22.45" fill="#e49d87" fill-rule="evenodd" stroke="none"/>
      <path d="M2.15 -5.95 Q-6.65 -8.75 -16.4 -33.4 L-20.5 -44.1 -12.4 -26.35 Q-4.55 -11.6 2.15 -5.95 M-46.45 -26.05 Q-47.65 -24.85 -49.6 -24.25 -55.1 -22.8 -56.65 -36.25 -57.75 -46.0 -61.1 -45.75 -55.95 -46.5 -46.45 -26.05" fill="#732900" fill-rule="evenodd" stroke="none"/>
    </g>
    <g id="shape1">
      <path d="M76.8 -5.25 Q73.5 -14.7 77.5 -15.65 L67.75 -21.25 76.8 -5.25 M-16.7 -57.55 Q-6.25 -62.25 4.75 -53.45 11.95 -43.9 14.65 -49.3 39.75 -70.3 68.3 -25.35 102.75 -7.55 107.1 4.8 L106.9 5.4 106.9 5.45 Q89.55 80.65 76.9 9.05 66.6 -10.15 60.05 12.6 60.25 22.8 53.85 37.8 39.6 64.25 33.2 49.75 L23.3 19.2 Q21.1 1.65 8.85 -3.05 -2.75 -9.95 -9.7 18.8 -14.85 56.35 -27.85 59.25 -38.65 58.0 -43.55 28.7 -54.45 -9.75 -68.3 22.5 -80.0 55.2 -89.05 36.95 -90.85 25.45 -95.1 24.15 -100.45 6.6 -76.7 -38.0 -73.0 -40.5 -68.4 -39.15 -65.5 -27.2 -69.0 -10.1 -74.2 -5.7 -73.85 6.85 -72.3 9.15 -78.4 26.1 -72.3 20.05 -69.7 9.4 -69.95 -6.5 -66.9 -8.0 -63.95 -16.25 -62.6 -36.2 L-62.6 -36.25 Q-59.25 -55.5 -40.65 -45.6 -26.85 -35.75 -24.25 -40.75 -18.45 5.75 -17.15 33.75 -12.8 0.65 -2.9 -6.6 -15.8 -32.1 -16.7 -57.55 M86.9 14.25 L91.4 29.9 96.3 19.15 Q91.6 26.05 86.9 14.25 M55.85 17.9 Q56.4 7.25 60.4 3.25 L41.95 -20.75 55.85 17.9 M48.6 37.55 Q38.95 57.35 33.3 34.45 36.6 51.35 39.9 50.45 44.25 50.8 48.6 37.55 M-39.1 -4.2 Q-44.05 -34.25 -58.55 -21.95 -44.2 -27.9 -39.1 -4.2 M-23.4 51.5 Q-35.6 52.05 -41.15 7.3 -49.95 -15.3 -63.45 -2.8 -45.85 -12.2 -42.2 14.95 L-35.25 46.6 Q-30.15 59.95 -23.4 51.5" fill="#fffff3" fill-rule="evenodd" stroke="none"/>
      <path d="M76.8 -5.25 L67.75 -21.25 77.5 -15.65 Q73.5 -14.7 76.8 -5.25 M-16.7 -57.55 Q-15.8 -32.1 -2.9 -6.6 -12.8 0.65 -17.15 33.75 -18.45 5.75 -24.25 -40.75 -23.95 -41.3 -21.85 -49.0 -19.3 -56.6 -16.7 -57.55 M-62.6 -36.2 Q-63.95 -16.25 -66.9 -8.0 -69.95 -6.5 -69.7 9.4 -72.3 20.05 -78.4 26.1 -72.3 9.15 -73.85 6.85 -74.2 -5.7 -69.0 -10.1 -65.5 -27.2 -68.4 -39.15 -65.65 -38.35 -62.6 -36.2 M-76.7 -38.0 Q-100.45 6.6 -95.1 24.15 -99.3 22.85 -107.05 31.15 L-107.05 31.3 Q-111.7 38.2 -106.4 50.2 -111.85 46.65 -111.55 36.1 -111.45 31.8 -110.35 26.35 -108.65 18.25 -93.45 -9.7 -79.0 -36.4 -76.7 -38.0 M86.9 14.25 Q91.6 26.05 96.3 19.15 L91.4 29.9 86.9 14.25 M55.85 17.9 L41.95 -20.75 60.4 3.25 Q56.4 7.25 55.85 17.9 M48.6 37.55 Q44.25 50.8 39.9 50.45 36.6 51.35 33.3 34.45 38.95 57.35 48.6 37.55 M-39.1 -4.2 Q-44.2 -27.9 -58.55 -21.95 -44.05 -34.25 -39.1 -4.2 M-23.4 51.5 Q-30.15 59.95 -35.25 46.6 L-42.2 14.95 Q-45.85 -12.2 -63.45 -2.8 -49.95 -15.3 -41.15 7.3 -35.6 52.05 -23.4 51.5" fill="#ffcfb7" fill-rule="evenodd" stroke="none"/>
      <path d="M-95.1 24.15 Q-90.85 25.45 -89.05 36.95 -80.0 55.2 -68.3 22.5 -54.45 -9.75 -43.55 28.7 -38.65 58.0 -27.85 59.25 -14.85 56.35 -9.7 18.8 -2.75 -9.95 8.85 -3.05 21.1 1.65 23.3 19.2 L33.2 49.75 Q39.6 64.25 53.85 37.8 60.25 22.8 60.05 12.6 66.6 -10.15 76.9 9.05 89.55 80.65 106.9 5.45 107.25 22.85 109.85 24.4 102.7 43.3 96.35 55.15 85.35 70.5 78.6 44.45 74.95 24.3 72.0 18.9 68.75 14.55 63.65 31.85 58.85 62.4 52.7 72.65 27.25 97.2 18.45 49.75 13.9 24.05 10.35 21.0 0.25 13.95 -7.3 46.0 -9.7 69.5 -20.35 76.05 -35.7 87.3 -55.35 39.8 -62.2 23.65 -67.05 35.9 -69.15 44.8 -72.65 51.0 -87.95 71.85 -89.75 43.5 -92.5 32.55 -99.15 42.95 -100.75 47.5 -106.4 50.2 -111.7 38.2 -107.05 31.3 L-107.05 31.15 Q-99.3 22.85 -95.1 24.15" fill="#000000" fill-rule="evenodd" stroke="none"/>
    </g>
    <g id="sprite2">
      <use ffdec:characterId="4" height="12.4" transform="matrix(1.0, 0.0, 0.0, 1.0, 0.0, 0.0)" width="7.05" xlink:href="#shape2"/>
    </g>
    <g id="shape2">
      <path d="M3.55 6.2 Q0.15 -7.2 -3.5 -4.4 2.4 -10.9 3.55 6.2" fill="#ffcfb7" fill-rule="evenodd" stroke="none"/>
    </g>
    <g id="sprite3">
      <use ffdec:characterId="7" height="13.45" transform="matrix(1.1606, 0.0, 0.0, 1.1593, 0.0, 0.05)" width="20.55" xlink:href="#shape3"/>
    </g>
    <g id="shape3">
      <path d="M7.25 -5.3 Q10.25 -3.6 10.3 -0.8 10.25 1.95 7.25 4.15 4.25 6.35 0.0 6.7 -4.25 7.05 -7.25 5.3 -10.25 3.6 -10.25 0.85 -10.25 -1.9 -7.25 -4.15 -4.25 -6.35 0.0 -6.65 4.25 -7.0 7.25 -5.3" fill="#000000" fill-opacity="0.3019608" fill-rule="evenodd" stroke="none"/>
    </g>
    <g id="sprite4">
      <use ffdec:characterId="9" height="81.2" transform="matrix(1.0, 0.0, 0.0, 1.0, 0.0, 0.0)" width="64.4" xlink:href="#morphshape0"/>
      <use ffdec:characterId="11" height="13.4" transform="matrix(-0.8349, 0.4315, 0.4315, 0.8349, -22.9, -41.65)" width="13.4" xlink:href="#sprite5"/>
      <use ffdec:characterId="11" height="13.4" transform="matrix(-0.8349, 0.4315, 0.4315, 0.8349, 37.55, -52.65)" width="13.4" xlink:href="#sprite5"/>
    </g>
    <g id="morphshape0">
      <path d="M-22.9 -41.65 Q1.9 -29.85 8.15 -3.0 14.35 23.8 18.75 24.35 23.1 24.9 31.35 -0.35 39.55 -25.65 37.55 -52.7" fill="none" stroke="#ff0000" stroke-linecap="round" stroke-linejoin="round" stroke-width="2.0"/>
    </g>
    <g id="sprite5">
      <use ffdec:characterId="10" height="13.4" transform="matrix(1.0, 0.0, 0.0, 1.0, 0.0, 0.0)" width="13.4" xlink:href="#shape4"/>
    </g>
    <g id="shape4">
      <path d="M4.75 -4.75 Q6.7 -2.8 6.7 0.0 6.7 2.8 4.75 4.75 2.8 6.7 0.0 6.7 -2.8 6.7 -4.75 4.75 -6.7 2.8 -6.7 0.0 -6.7 -2.8 -4.75 -4.75 -2.8 -6.7 0.0 -6.7 2.8 -6.7 4.75 -4.75" fill="url(#gradient0)" fill-rule="evenodd" stroke="none"/>
    </g>
    <radialGradient cx="0" cy="0" gradientTransform="matrix(0.0105, 0.0, 0.0, 0.0105, -1.1, -1.5)" gradientUnits="userSpaceOnUse" id="gradient0" r="819.2" spreadMethod="pad">
      <stop offset="0.0" stop-color="#fbf6e7"/>
      <stop offset="0.4588235294117647" stop-color="#ffa737"/>
      <stop offset="1.0" stop-color="#b54200"/>
    </radialGradient>
    <g id="shape5">
      <path d="M7.3 -41.8 Q9.95 -34.4 9.35 -28.3 -0.5 -29.9 -15.6 -23.95 L-6.95 -50.9 Q-1.0 -59.45 4.05 -49.65 L7.3 -41.8 M-33.45 41.1 Q-34.85 39.15 -36.65 35.0 -38.95 29.85 -39.0 26.9 4.25 37.5 24.75 30.5 22.0 36.6 16.2 43.0 -1.1 61.9 -33.45 41.1 M-35.25 8.75 L-31.4 1.45 Q-28.85 -3.05 -25.0 -7.15 -11.8 -11.25 -0.3 -12.55 9.05 -10.85 24.85 9.45 8.35 17.8 -35.25 8.75" fill="#ef0000" fill-rule="evenodd" stroke="none"/>
      <path d="M7.3 -41.8 Q10.8 -33.4 13.65 -27.15 11.8 -27.9 9.35 -28.3 9.95 -34.4 7.3 -41.8 M24.4 -11.55 Q31.4 -4.0 33.7 -0.25 L33.55 0.1 Q31.4 6.15 24.85 9.45 9.05 -10.85 -0.3 -12.55 13.15 -14.05 24.4 -11.55 M39.75 18.65 Q41.05 22.95 37.95 31.2 34.85 39.45 25.7 46.75 16.55 54.0 7.9 54.75 -5.65 56.15 -18.6 51.9 -27.95 48.85 -33.45 41.1 -1.1 61.9 16.2 43.0 22.0 36.6 24.75 30.5 27.45 29.6 33.1 25.1 38.65 20.65 39.75 18.65" fill="#970000" fill-rule="evenodd" stroke="none"/>
      <path d="M9.35 -28.3 Q11.8 -27.9 13.65 -27.15 18.15 -19.4 24.4 -11.55 13.15 -14.05 -0.3 -12.55 L-0.35 -12.65 Q8.4 -19.05 9.35 -28.3 M34.0 0.3 Q39.1 12.2 39.75 18.65 38.65 20.65 33.1 25.1 27.45 29.6 24.75 30.5 29.55 19.6 24.85 9.45 31.4 6.15 33.55 0.1 L34.0 0.3" fill="#000066" fill-rule="evenodd" stroke="none"/>
      <path d="M33.7 -0.25 L34.0 0.3 33.55 0.1 33.7 -0.25 M-39.0 26.9 Q-39.15 15.65 -35.25 8.75 8.35 17.8 24.85 9.45 29.55 19.6 24.75 30.5 4.25 37.5 -39.0 26.9 M-25.0 -7.15 Q-19.95 -12.55 -15.6 -23.95 -0.5 -29.9 9.35 -28.3 8.4 -19.05 -0.35 -12.65 L-0.3 -12.55 Q-11.8 -11.25 -25.0 -7.15" fill="#0000db" fill-rule="evenodd" stroke="none"/>
      <path d="M-16.55 -8.35 Q-29.85 7.95 -28.5 24.3 -27.6 35.25 -21.9 41.45 -51.3 21.8 -23.3 -6.6 -11.85 -18.15 -9.9 -28.0 -8.35 -18.35 -16.55 -8.35" fill="#ffffff" fill-opacity="0.4117647" fill-rule="evenodd" stroke="none"/>
    </g>
    <g id="sprite6">
      <use ffdec:characterId="16" height="21.8" transform="matrix(1.0, 0.0, 0.0, 1.0, 0.0, 0.0)" width="21.85" xlink:href="#shape6"/>
    </g>
    <g id="shape6">
      <path d="M6.75 -8.5 Q10.3 -5.7 10.85 -1.25 11.35 3.2 8.55 6.75 5.75 10.3 1.25 10.8 -3.2 11.3 -6.7 8.55 -10.25 5.7 -10.8 1.25 -11.3 -3.2 -8.5 -6.75 -5.7 -10.3 -1.2 -10.8 3.2 -11.35 6.75 -8.5" fill="url(#gradient1)" fill-rule="evenodd" stroke="none"/>
    </g>
    <radialGradient cx="0" cy="0" gradientTransform="matrix(0.0187, 0.0, 0.0, 0.0187, -3.75, -2.45)" gradientUnits="userSpaceOnUse" id="gradient1" r="819.2" spreadMethod="pad">
      <stop offset="0.25098039215686274" stop-color="#ffffff"/>
      <stop offset="0.8549019607843137" stop-color="#8eb5f8"/>
      <stop offset="0.996078431372549" stop-color="#0859d4"/>
    </radialGradient>
    <g id="sprite7">
      <use ffdec:characterId="18" height="5.7" transform="matrix(1.0, 0.0, 0.0, 1.0, 0.0, 0.0)" width="5.8" xlink:href="#shape7"/>
    </g>
    <g id="shape7">
      <path d="M0.0 -2.3 Q-0.45 -2.25 -0.7 -1.9 L-0.9 -1.1 Q-0.85 -0.65 -0.45 -0.35 -0.1 -0.05 0.35 -0.1 0.8 -0.15 1.05 -0.45 1.35 -0.85 1.3 -1.3 L0.85 -2.05 0.0 -2.3 M1.65 -2.2 Q2.65 -1.45 2.85 -0.25 3.0 0.95 2.3 1.85 1.6 2.75 0.45 2.85 -0.75 2.95 -1.7 2.25 -2.7 1.45 -2.85 0.25 -3.05 -0.95 -2.3 -1.85 -1.65 -2.75 -0.45 -2.85 0.7 -2.95 1.65 -2.2" fill="#000000" fill-rule="evenodd" stroke="none"/>
      <path d="M0.0 -2.3 L0.85 -2.05 1.3 -1.3 Q1.35 -0.85 1.05 -0.45 0.8 -0.15 0.35 -0.1 -0.1 -0.05 -0.45 -0.35 -0.85 -0.65 -0.9 -1.1 L-0.7 -1.9 Q-0.45 -2.25 0.0 -2.3" fill="#ffffff" fill-rule="evenodd" stroke="none"/>
    </g>
    <g id="sprite8">
      <use ffdec:characterId="21" height="26.3" transform="matrix(1.0, 0.0, 0.0, 1.0, 0.0, 0.0)" width="55.25" xlink:href="#shape8"/>
    </g>
    <g id="shape8">
      <path d="M8.1 7.15 Q6.5 8.8 3.5 9.15 -1.25 9.85 -3.4 2.0 -4.55 -2.4 -8.55 -2.25 -11.55 -1.8 -12.5 0.8 -11.5 -2.45 -7.7 -2.95 -3.7 -3.05 -2.6 1.3 -0.4 9.15 4.3 8.45 6.6 8.2 8.1 7.15 M-15.35 9.85 Q-16.65 11.2 -18.5 11.3 -27.45 12.05 -26.15 -1.2 -26.0 -3.7 -23.65 -5.45 -25.25 -3.9 -25.35 -1.9 -26.65 11.35 -17.7 10.65 -16.4 10.55 -15.35 9.85" fill="#9f9f9f" fill-rule="evenodd" stroke="none"/>
      <path d="M-24.8 -6.4 Q-20.55 -9.7 -10.0 -10.7 2.0 -11.9 6.8 -9.55 L8.05 -8.8 9.2 -7.85 Q9.95 -7.05 10.55 -5.4 11.8 -1.9 11.7 3.35 L11.75 3.35 11.2 6.15 Q10.45 8.3 8.15 9.8 6.4 10.95 2.45 11.05 -2.05 11.05 -4.15 4.4 -5.35 -0.4 -8.3 -0.1 -11.25 0.2 -11.55 5.15 -12.5 12.1 -16.95 12.75 -29.2 15.7 -27.75 -1.35 -27.6 -3.2 -24.8 -6.4 M21.3 6.45 Q15.75 6.8 15.35 0.55 L16.5 -1.4 16.45 -4.1 Q19.65 0.05 25.6 1.45 L21.3 6.45 M15.05 -6.75 L15.3 -5.8 Q15.8 -3.5 15.7 -1.1 L15.4 -0.65 15.2 -0.4 14.8 0.15 13.85 1.15 Q13.95 -1.9 13.15 -5.0 L14.2 -5.75 14.5 -6.0 14.9 -6.55 15.05 -6.75 M-12.5 0.8 Q-11.55 -1.8 -8.55 -2.25 -4.55 -2.4 -3.4 2.0 -1.25 9.85 3.5 9.15 6.5 8.8 8.1 7.15 11.25 3.85 8.85 -4.65 7.2 -11.05 -8.65 -9.5 L-9.8 -9.4 Q-19.75 -8.4 -23.65 -5.45 -26.0 -3.7 -26.15 -1.2 -27.45 12.05 -18.5 11.3 -16.65 11.2 -15.35 9.85 -13.45 7.8 -12.95 2.9 -12.9 1.7 -12.5 0.8" fill="#333333" fill-rule="evenodd" stroke="none"/>
      <path d="M9.7 -11.7 L6.8 -9.55 Q2.0 -11.9 -10.0 -10.7 -20.55 -9.7 -24.8 -6.4 -22.2 -8.55 -19.05 -9.9 -14.65 -11.9 -6.75 -12.7 4.9 -13.85 9.7 -11.7" fill="#ffb871" fill-rule="evenodd" stroke="none"/>
      <path d="M6.8 -9.55 L9.7 -11.7 11.05 -11.0 8.05 -8.8 6.8 -9.55" fill="#ffa851" fill-rule="evenodd" stroke="none"/>
      <path d="M8.05 -8.8 L11.05 -11.0 12.2 -10.05 9.2 -7.85 8.05 -8.8" fill="#ff9933" fill-rule="evenodd" stroke="none"/>
      <path d="M14.65 1.4 Q14.45 2.95 13.9 4.25 L11.2 6.15 11.75 3.35 12.85 3.35 14.65 1.4" fill="#f27900" fill-rule="evenodd" stroke="none"/>
      <path d="M13.6 -7.95 Q12.3 -6.5 10.55 -5.4 9.95 -7.05 9.2 -7.85 L12.2 -10.05 Q13.1 -9.15 13.6 -7.95" fill="#ff8d1c" fill-rule="evenodd" stroke="none"/>
      <path d="M13.9 4.25 Q12.35 7.95 8.15 9.8 10.45 8.3 11.2 6.15 L13.9 4.25" fill="#df7000" fill-rule="evenodd" stroke="none"/>
      <path d="M16.1 -6.4 Q19.4 -0.7 27.35 1.25 L23.1 6.2 21.3 6.45 25.6 1.45 Q19.65 0.05 16.45 -4.1 L16.1 -6.4" fill="#666666" fill-rule="evenodd" stroke="none"/>
      <path d="M13.6 -7.95 L14.0 -8.5 15.45 -8.75 15.45 -8.7 Q13.3 -6.0 11.95 -5.25 L10.55 -5.4 Q12.3 -6.5 13.6 -7.95" fill="#ffff99" fill-rule="evenodd" stroke="none"/>
      <path d="M10.55 -5.4 L11.95 -5.25 Q13.4 -1.0 12.85 3.35 L11.75 3.35 11.7 3.35 Q11.8 -1.9 10.55 -5.4" fill="#cc9900" fill-rule="evenodd" stroke="none"/>
      <path d="M11.95 -5.25 Q13.3 -6.0 15.45 -8.7 L16.1 -6.4 16.45 -4.1 16.5 -1.4 15.35 0.55 14.65 1.4 12.85 3.35 Q13.4 -1.0 11.95 -5.25 M15.05 -6.75 L14.9 -6.55 14.5 -6.0 14.2 -5.75 13.15 -5.0 Q13.95 -1.9 13.85 1.15 L14.8 0.15 15.2 -0.4 15.4 -0.65 15.7 -1.1 Q15.8 -3.5 15.3 -5.8 L15.05 -6.75" fill="#ffcc00" fill-rule="evenodd" stroke="none"/>
    </g>
    <g id="sprite9">
      <use ffdec:characterId="22" height="31.55" transform="matrix(1.0, 0.0, 0.0, 1.0, 0.0, 0.0)" width="45.95" xlink:href="#shape9"/>
    </g>
    <g id="shape9">
      <path d="M-14.25 8.55 L-15.25 10.85 -16.6 12.95 -17.6 13.85 Q-18.7 14.65 -19.6 14.55 -20.85 14.4 -21.8 12.85 L-23.0 9.15 -23.4 5.35 -23.05 -0.65 Q-22.7 -3.8 -22.05 -5.8 L-20.8 -9.45 -18.45 -13.15 Q-17.2 -14.55 -15.8 -14.4 -15.45 -14.35 -14.4 -13.7 -12.35 -12.45 -12.05 -6.3 -17.65 0.85 -14.25 8.55" fill="#7a1d05" fill-rule="evenodd" stroke="none"/>
      <path d="M-17.3 15.5 L-17.35 15.5 -17.5 15.55 Q-19.55 16.2 -21.3 15.1 L-22.2 14.35 Q-25.15 10.55 -24.75 1.15 -24.3 -3.9 -23.05 -7.25 L-21.25 -11.55 Q-20.5 -13.2 -19.25 -14.15 -15.85 -16.95 -13.6 -14.9 L-12.2 -13.15 -12.15 -13.1 Q-10.75 -10.6 -10.5 -6.8 -10.15 0.45 -11.05 4.35 -11.8 7.35 -12.8 10.0 -13.6 12.15 -14.3 12.95 L-16.25 14.9 -16.45 15.05 -16.5 15.1 -17.3 15.5 M-12.05 -6.3 Q-12.35 -12.45 -14.4 -13.7 -15.45 -14.35 -15.8 -14.4 -17.2 -14.55 -18.45 -13.15 L-20.8 -9.45 -22.05 -5.8 Q-22.7 -3.8 -23.05 -0.65 L-23.4 5.35 -23.0 9.15 -21.8 12.85 Q-20.85 14.4 -19.6 14.55 -18.7 14.65 -17.6 13.85 L-16.6 12.95 -15.25 10.85 -14.25 8.55 Q-13.65 7.2 -12.9 3.0 -11.85 -2.45 -12.05 -6.3" fill="#fe9a03" fill-rule="evenodd" stroke="none"/>
      <path d="M-12.15 -13.1 Q-10.05 -9.6 -6.95 -6.45 L-6.65 -6.1 Q-2.15 -0.35 16.35 4.05 L16.35 4.1 19.6 4.3 21.0 5.85 Q21.3 7.55 21.0 9.05 18.75 9.75 17.05 5.75 3.35 7.25 -11.05 4.3 L-11.05 4.35 Q-10.15 0.45 -10.5 -6.8 -10.75 -10.6 -12.15 -13.1 M8.1 3.25 Q-7.8 -2.7 -9.6 -7.25 -8.85 -4.15 -9.55 1.9 -3.3 -0.35 8.1 3.25" fill="#fcd35a" fill-rule="evenodd" stroke="none"/>
      <path d="M-12.05 -6.3 Q-11.85 -2.45 -12.9 3.0 -13.65 7.2 -14.25 8.55 -17.65 0.85 -12.05 -6.3" fill="#4b1203" fill-rule="evenodd" stroke="none"/>
      <path d="M21.0 9.05 L20.55 10.45 20.15 10.5 Q17.1 10.55 15.55 7.2 -1.0 6.3 -12.8 10.0 -11.8 7.35 -11.05 4.35 L-11.05 4.3 Q3.35 7.25 17.05 5.75 18.75 9.75 21.0 9.05" fill="#fbc115" fill-rule="evenodd" stroke="none"/>
      <path d="M20.55 10.45 L19.75 11.8 19.5 11.8 Q17.05 11.9 16.35 10.35 L15.6 9.25 3.15 9.75 Q-7.25 11.1 -12.9 13.85 L-16.45 15.15 -16.5 15.1 -16.45 15.05 -16.25 14.9 -14.3 12.95 Q-13.6 12.15 -12.8 10.0 -1.0 6.3 15.55 7.2 17.1 10.55 20.15 10.5 L20.55 10.45" fill="#e98c01" fill-rule="evenodd" stroke="none"/>
      <path d="M-16.45 15.15 L-17.3 15.5 -16.5 15.1 -16.45 15.15" fill="#dc8501" fill-rule="evenodd" stroke="none"/>
      <path d="M8.1 3.25 Q-3.3 -0.35 -9.55 1.9 -8.85 -4.15 -9.6 -7.25 -7.8 -2.7 8.1 3.25" fill="#ffffff" fill-rule="evenodd" stroke="none"/>
    </g>
    <g id="sprite10">
      <use ffdec:characterId="23" height="10.05" transform="matrix(1.0, 0.0, 0.0, 1.0, 0.0, 0.0)" width="9.95" xlink:href="#shape10"/>
    </g>
    <g id="shape10">
      <path d="M6.9 -5.0 L6.9 1.9 3.3 2.1 2.15 3.95 Q1.4 5.25 -1.5 5.0 -2.95 3.3 -3.05 0.6 -3.15 -2.3 -1.3 -3.6 L2.4 -3.85 6.9 -5.0" fill="url(#gradient2)" fill-rule="evenodd" stroke="none"/>
    </g>
    <linearGradient gradientTransform="matrix(0.0084, 0.0, 0.0, 0.0061, 0.0, 0.0)" gradientUnits="userSpaceOnUse" id="gradient2" spreadMethod="pad" x1="-819.2" x2="819.2">
      <stop offset="0.0" stop-color="#ef0000"/>
      <stop offset="1.0" stop-color="#ff871b" stop-opacity="0.023529412"/>
    </linearGradient>
    <g id="sprite11">
      <use ffdec:characterId="1" height="149.45" transform="matrix(1.0, 0.0, 0.0, 1.0, 0.0, 0.0)" width="240.7" xlink:href="#shape0"/>
    </g>
    <g id="sprite12">
      <use ffdec:characterId="26" height="17.8" transform="matrix(1.0, 0.0, 0.0, 1.0, 0.0, 0.0)" width="17.75" xlink:href="#shape11"/>
    </g>
    <g id="shape11">
      <path d="M8.85 0.5 Q8.8 4.2 6.25 6.8 3.65 9.35 -0.05 9.4 -3.75 9.35 -6.3 6.8 -8.9 4.2 -8.9 0.5 -8.9 -3.2 -6.3 -5.75 -3.75 -8.35 -0.05 -8.35 3.65 -8.35 6.25 -5.75 8.8 -3.2 8.85 0.5" fill="url(#gradient3)" fill-rule="evenodd" stroke="none"/>
      <path d="M0.0 -8.2 Q3.65 -8.2 6.2 -5.65 8.8 -3.05 8.8 0.65 8.8 4.3 6.2 6.85 3.65 9.45 0.0 9.45 -3.65 9.45 -6.25 6.85 -8.85 4.3 -8.85 0.65 -8.85 -3.05 -6.25 -5.65 -3.65 -8.2 0.0 -8.2" fill="url(#gradient4)" fill-rule="evenodd" stroke="none"/>
    </g>
    <radialGradient cx="0" cy="0" gradientTransform="matrix(0.0114, 0.0, 0.0, 0.0114, 0.3, 0.2)" gradientUnits="userSpaceOnUse" id="gradient3" r="819.2" spreadMethod="pad">
      <stop offset="0.0" stop-color="#ffffff"/>
      <stop offset="1.0" stop-color="#999999"/>
    </radialGradient>
    <linearGradient gradientTransform="matrix(0.0, -0.0091, 0.0108, 0.0, -0.05, 0.6)" gradientUnits="userSpaceOnUse" id="gradient4" spreadMethod="pad" x1="-819.2" x2="819.2">
      <stop offset="0.01568627450980392" stop-color="#ffffff" stop-opacity="0.84313726"/>
      <stop offset="0.2549019607843137" stop-color="#aecbf8" stop-opacity="0.6901961"/>
      <stop offset="0.7372549019607844" stop-color="#8eb5f8" stop-opacity="0.0"/>
    </linearGradient>
    <g id="sprite13">
      <use ffdec:characterId="3" height="140.2" transform="matrix(1.0, 0.0, 0.0, 1.0, 0.0, 0.0)" width="221.4" xlink:href="#shape1"/>
      <use ffdec:characterId="5" height="12.4" transform="matrix(1.0, 0.0, 0.0, 1.0, -88.2, 18.5)" width="7.05" xlink:href="#sprite2"/>
      <use ffdec:characterId="5" height="12.4" transform="matrix(1.0, 0.0, 0.0, 1.0, -86.1, 12.55)" width="7.05" xlink:href="#sprite2"/>
      <use ffdec:characterId="5" height="12.4" transform="matrix(1.0, 0.0, 0.0, 1.0, -83.45, 6.15)" width="7.05" xlink:href="#sprite2"/>
    </g>
    <g id="sprite14">
      <use ffdec:characterId="44" height="21.45" transform="matrix(1.0, 0.0, 0.0, 1.0, 0.0, 0.0)" width="24.3" xlink:href="#shape12"/>
    </g>
    <g id="shape12">
      <path d="M5.7 -5.4 L7.05 -7.45 12.15 -6.05 6.4 2.25 Q3.55 6.3 -0.25 9.05 -4.05 11.75 -5.55 5.9 -7.05 0.05 -11.7 -8.9 L-10.05 -10.35 Q-8.8 -11.0 -7.2 -10.35 -3.4 -5.5 -1.55 1.3 -3.25 2.6 -3.45 4.3 -3.1 5.15 -1.4 3.5 L3.45 -1.7 Q6.5 -5.3 5.7 -5.4" fill="#ef0000" fill-rule="evenodd" stroke="none"/>
      <path d="M5.7 -5.4 Q6.5 -5.3 3.45 -1.7 L-1.4 3.5 Q-3.1 5.15 -3.45 4.3 L-0.3 1.45 Q-1.1 0.6 -1.55 1.3 -3.4 -5.5 -7.2 -10.35 L-5.8 -9.6 Q-3.1 -5.25 -0.3 1.45 3.05 -1.7 5.7 -5.4 M-0.3 1.45 L-0.3 1.5 -0.3 1.45" fill="#ff6262" fill-rule="evenodd" stroke="none"/>
      <path d="M-3.45 4.3 Q-3.25 2.6 -1.55 1.3 -1.1 0.6 -0.3 1.45 L-3.45 4.3 M-11.7 -8.9 Q-7.05 0.05 -5.55 5.9 -4.05 11.75 -0.25 9.05 3.55 6.3 6.4 2.25 2.55 8.5 -0.5 10.25 -3.6 11.95 -5.15 7.9 L-11.4 -5.6 Q-12.75 -8.5 -11.7 -8.9" fill="#970000" fill-rule="evenodd" stroke="none"/>
      <path d="M-0.3 1.45 L-0.3 1.5 -0.3 1.45" fill="#d70000" fill-rule="evenodd" stroke="none"/>
    </g>
    <g id="sprite15">
      <use ffdec:characterId="46" height="21.2" transform="matrix(1.0, 0.0, 0.0, 1.0, 0.0, 0.0)" width="16.65" xlink:href="#shape13"/>
    </g>
    <g id="shape13">
      <path d="M0.7 -9.85 Q1.5 -10.0 2.3 -9.45 -0.95 -7.6 2.25 -0.25 11.2 3.1 4.0 10.25 2.3 11.05 0.9 10.0 -0.55 8.95 -6.75 5.75 L-5.6 5.85 Q-9.0 -0.5 -6.35 -5.0 L-5.25 -5.7 Q-7.05 -2.35 -6.0 0.65 L-4.6 4.25 -3.9 3.8 -2.35 3.55 Q-4.9 2.4 -4.75 -3.05 -4.6 -8.5 -2.75 -10.6 -2.25 -10.55 -1.7 -9.95 -3.6 -1.8 -0.1 1.25 L-0.05 1.3 Q1.0 1.5 1.6 0.95 L1.65 0.95 Q-0.4 0.45 -0.65 -4.15 -0.9 -8.8 0.7 -9.85" fill="#ef0000" fill-rule="evenodd" stroke="none"/>
      <path d="M-0.05 1.3 L-0.1 1.25 Q-3.6 -1.8 -1.7 -9.95 L-0.8 -8.7 -1.2 -5.5 Q-1.55 -0.85 -0.05 1.25 L-0.05 1.3 M-3.9 3.8 L-4.6 4.25 -6.0 0.65 Q-7.05 -2.35 -5.25 -5.7 L-5.45 -3.35 Q-5.45 -0.95 -4.85 1.25 L-3.9 3.8 M4.0 10.25 Q11.2 3.1 2.25 -0.25 -0.95 -7.6 2.3 -9.45 L3.0 -8.75 Q1.8 -2.1 4.3 -1.2 6.8 -0.3 8.1 4.0 9.35 8.35 4.0 10.25" fill="#970000" fill-rule="evenodd" stroke="none"/>
      <path d="M0.7 -9.85 Q-0.9 -8.8 -0.65 -4.15 -0.4 0.45 1.65 0.95 L1.6 0.95 Q1.0 1.5 -0.05 1.3 L-0.05 1.25 Q-1.55 -0.85 -1.2 -5.5 L-0.8 -8.7 Q-0.1 -9.75 0.7 -9.85 M-2.75 -10.6 Q-4.6 -8.5 -4.75 -3.05 -4.9 2.4 -2.35 3.55 L-3.9 3.8 -4.85 1.25 Q-5.45 -0.95 -5.45 -3.35 L-5.25 -5.7 -4.9 -7.9 Q-4.7 -9.2 -4.15 -9.85 -3.6 -10.5 -2.75 -10.6 M-6.35 -5.0 Q-9.0 -0.5 -5.6 5.85 L-6.75 5.75 -7.55 3.7 -8.2 0.6 Q-8.55 -0.75 -7.9 -2.75 -7.45 -4.1 -6.35 -5.0" fill="#ff6262" fill-rule="evenodd" stroke="none"/>
    </g>
    <g id="sprite16">
      <use ffdec:characterId="29" height="59.55" transform="matrix(1.0, 0.0, 0.0, 1.0, 0.0, 0.0)" width="91.0" xlink:href="#shape14"/>
      <use ffdec:characterId="30" height="8.5" transform="matrix(1.1329, 0.0, 0.0, 0.7952, 0.2, 1.7)" width="76.7" xlink:href="#shape15"/>
      <use ffdec:characterId="30" height="8.5" transform="matrix(-1.1199, 0.0, 0.0, -0.7952, 0.55, -11.95)" width="76.7" xlink:href="#shape15"/>
      <use ffdec:characterId="30" height="8.5" transform="matrix(-1.1199, 0.0, 0.0, -0.7952, 1.6, 6.1)" width="76.7" xlink:href="#shape15"/>
      <use ffdec:characterId="30" height="8.5" transform="matrix(1.1199, 0.0, 0.0, 0.7952, 0.9, 28.85)" width="76.7" xlink:href="#shape15"/>
      <use ffdec:characterId="30" height="8.5" transform="matrix(-1.1484, 0.0, 0.0, -0.7952, 1.0, -36.2)" width="76.7" xlink:href="#shape15"/>
      <use ffdec:characterId="30" height="8.5" transform="matrix(1.1484, 0.0, 0.0, 0.7952, 0.3, -14.65)" width="76.7" xlink:href="#shape15"/>
    </g>
    <g id="shape14">
      <path d="M-43.2 -33.85 L-43.25 -7.95 -16.45 -6.05 -43.55 -5.8 Q-39.95 1.5 -42.7 7.75 L-32.8 9.55 Q-35.8 10.65 -43.0 9.55 -41.3 16.25 -44.0 23.0 L-45.5 22.75 Q-44.2 16.55 -44.0 9.55 -43.65 2.85 -44.3 -7.5 -44.85 -15.6 -44.7 -33.85 L-43.2 -33.85" fill="#d28a10" fill-rule="evenodd" stroke="none"/>
      <path d="M-44.0 23.0 Q-41.3 16.25 -43.0 9.55 -35.8 10.65 -32.8 9.55 L-42.7 7.75 Q-39.95 1.5 -43.55 -5.8 L-16.45 -6.05 -43.25 -7.95 -43.2 -33.85 Q13.7 -39.6 45.5 -33.05 43.5 -5.65 43.6 5.2 38.7 7.5 32.15 8.0 L43.65 8.0 Q42.95 16.55 44.95 23.0 L-44.0 23.0" fill="#edab3c" fill-rule="evenodd" stroke="none"/>
    </g>
    <g id="shape15">
      <path d="M5.85 -14.1 Q-19.5 -19.25 -38.35 -18.6 L-38.35 -20.3 Q7.75 -19.75 38.35 -15.15 L38.35 -11.85 Q24.6 -11.4 5.85 -14.1" fill="#d28a10" fill-opacity="0.4392157" fill-rule="evenodd" stroke="none"/>
    </g>
    <g id="sprite17">
      <use ffdec:characterId="48" height="14.15" transform="matrix(-0.509, 0.0, 0.0, 0.509, 15.1, -11.45)" width="14.15" xlink:href="#shape16"/>
      <use ffdec:characterId="48" height="14.15" transform="matrix(-0.509, 0.0, 0.0, 0.509, 37.3, -8.65)" width="14.15" xlink:href="#shape17"/>
      <use ffdec:characterId="48" height="14.15" transform="matrix(-0.509, 0.0, 0.0, 0.509, 22.75, -13.5)" width="14.15" xlink:href="#shape18"/>
      <use ffdec:characterId="48" height="14.15" transform="matrix(-0.509, 0.0, 0.0, 0.509, 7.1, -11.45)" width="14.15" xlink:href="#shape19"/>
    </g>
    <g id="shape16">
      <path d="M-4.7 -2.85 Q-3.05 -5.5 0.1 -5.3 -4.45 -2.9 -4.8 2.75 -6.35 -0.3 -4.7 -2.85" fill="#dbe8fb" fill-rule="evenodd" stroke="none"/>
      <path d="M4.45 -4.55 Q6.35 -2.65 6.35 0.05 6.35 2.8 4.45 4.7 2.5 6.6 -0.2 6.65 -1.75 6.65 -3.0 6.05 L-4.85 4.7 Q-6.8 2.8 -6.8 0.05 -6.8 -2.65 -4.85 -4.55 -2.95 -6.5 -0.2 -6.5 L2.2 -6.05 Q3.4 -5.6 4.45 -4.55 Z" ffdec:has-small-stroke="true" ffdec:original-stroke-width="1.0" fill="none" stroke="#dbe8fb" stroke-linecap="round" stroke-linejoin="round" stroke-width="1.9646261766292945"/>
    </g>
    <g id="shape17">
      <path d="M-4.7 -2.85 Q-3.05 -5.5 0.1 -5.3 -4.45 -2.9 -4.8 2.75 -6.35 -0.3 -4.7 -2.85" fill="#dbe8fb" fill-rule="evenodd" stroke="none"/>
      <path d="M4.45 -4.55 Q6.35 -2.65 6.35 0.05 6.35 2.8 4.45 4.7 2.5 6.6 -0.2 6.65 -1.75 6.65 -3.0 6.05 L-4.85 4.7 Q-6.8 2.8 -6.8 0.05 -6.8 -2.65 -4.85 -4.55 -2.95 -6.5 -0.2 -6.5 L2.2 -6.05 Q3.4 -5.6 4.45 -4.55 Z" ffdec:has-small-stroke="true" ffdec:original-stroke-width="1.0" fill="none" stroke="#dbe8fb" stroke-linecap="round" stroke-linejoin="round" stroke-width="1.9646261766292945"/>
    </g>
    <g id="shape18">
      <path d="M-4.7 -2.85 Q-3.05 -5.5 0.1 -5.3 -4.45 -2.9 -4.8 2.75 -6.35 -0.3 -4.7 -2.85" fill="#dbe8fb" fill-rule="evenodd" stroke="none"/>
      <path d="M4.45 -4.55 Q6.35 -2.65 6.35 0.05 6.35 2.8 4.45 4.7 2.5 6.6 -0.2 6.65 -1.75 6.65 -3.0 6.05 L-4.85 4.7 Q-6.8 2.8 -6.8 0.05 -6.8 -2.65 -4.85 -4.55 -2.95 -6.5 -0.2 -6.5 L2.2 -6.05 Q3.4 -5.6 4.45 -4.55 Z" ffdec:has-small-stroke="true" ffdec:original-stroke-width="1.0" fill="none" stroke="#dbe8fb" stroke-linecap="round" stroke-linejoin="round" stroke-width="1.9646261766292945"/>
    </g>
    <g id="shape19">
      <path d="M-4.7 -2.85 Q-3.05 -5.5 0.1 -5.3 -4.45 -2.9 -4.8 2.75 -6.35 -0.3 -4.7 -2.85" fill="#dbe8fb" fill-rule="evenodd" stroke="none"/>
      <path d="M4.45 -4.55 Q6.35 -2.65 6.35 0.05 6.35 2.8 4.45 4.7 2.5 6.6 -0.2 6.65 -1.75 6.65 -3.0 6.05 L-4.85 4.7 Q-6.8 2.8 -6.8 0.05 -6.8 -2.65 -4.85 -4.55 -2.95 -6.5 -0.2 -6.5 L2.2 -6.05 Q3.4 -5.6 4.45 -4.55 Z" ffdec:has-small-stroke="true" ffdec:original-stroke-width="1.0" fill="none" stroke="#dbe8fb" stroke-linecap="round" stroke-linejoin="round" stroke-width="1.9646261766292945"/>
    </g>
    <g id="sprite18">
      <use ffdec:characterId="32" height="222.05" transform="matrix(1.0, 0.0, 0.0, 1.0, 0.0, 0.0)" width="102.35" xlink:href="#shape20"/>
    </g>
    <g id="shape20">
      <path d="M-52.45 -111.15 Q-28.3 -106.8 48.15 -110.2 40.5 -2.1 46.55 110.9 -3.95 106.25 -54.2 110.15 -46.3 6.7 -52.45 -111.15" fill="#0000ab" fill-rule="evenodd" stroke="none"/>
    </g>
    <g id="shape21">
      <path d="M-2.65 -107.9 L-2.1 -107.9 Q1.25 -107.85 1.7 -105.3 9.55 8.8 3.4 104.05 2.95 107.0 -1.6 107.95 8.15 89.2 -2.65 -107.9" fill="#f7be66" fill-rule="evenodd" stroke="none"/>
      <path d="M-1.6 107.95 Q-6.5 107.4 -6.0 104.15 1.85 8.8 -6.0 -105.3 -5.5 -107.8 -2.65 -107.9 8.15 89.2 -1.6 107.95" fill="#d28a10" fill-rule="evenodd" stroke="none"/>
    </g>
    <g id="shape22">
      <path d="M2.7 -107.9 Q5.55 -107.8 6.05 -105.3 -1.8 8.8 6.05 104.15 6.55 107.4 1.65 107.95 -8.1 89.2 2.7 -107.9" fill="#f7be66" fill-rule="evenodd" stroke="none"/>
      <path d="M1.65 107.95 Q-2.9 107.0 -3.35 104.05 -9.5 8.8 -1.65 -105.3 -1.2 -107.85 2.15 -107.9 L2.7 -107.9 Q-8.1 89.2 1.65 107.95" fill="#d28a10" fill-rule="evenodd" stroke="none"/>
    </g>
    <g id="shape23">
      <path d="M0.2 -4.15 L2.45 -4.15 Q3.8 0.05 2.55 4.0 L-0.35 4.1 Q0.8 2.1 0.2 -4.15" fill="#000000" fill-opacity="0.3019608" fill-rule="evenodd" stroke="none"/>
    </g>
    <g id="shape24">
      <path d="M-4.5 -7.25 Q-0.3 -2.9 5.3 5.1 5.35 6.8 3.85 6.3 -1.05 -1.1 -5.95 -5.8 -6.65 -7.95 -4.5 -7.25" fill="#391000" fill-rule="evenodd" stroke="none"/>
    </g>
    <g id="sprite19">
      <use ffdec:characterId="38" height="19.6" transform="matrix(1.0, 0.0, 0.0, 1.0, 0.0, 0.0)" width="19.5" xlink:href="#shape25"/>
    </g>
    <g id="shape25">
      <path d="M9.7 0.5 Q9.65 4.55 6.85 7.4 4.0 10.2 -0.05 10.3 -4.15 10.2 -6.95 7.4 -9.8 4.55 -9.8 0.5 -9.8 -3.6 -6.95 -6.4 -4.15 -9.25 -0.05 -9.25 4.0 -9.25 6.85 -6.4 9.65 -3.6 9.7 0.5" fill="url(#gradient5)" fill-rule="evenodd" stroke="none"/>
      <path d="M6.85 -6.25 Q9.7 -3.4 9.7 0.65 9.7 4.65 6.85 7.5 4.0 10.35 0.0 10.35 -4.0 10.35 -6.9 7.5 -9.75 4.65 -9.7 0.65 -9.75 -3.4 -6.9 -6.25 -4.0 -9.1 0.0 -9.1 4.0 -9.1 6.85 -6.25" fill="url(#gradient6)" fill-rule="evenodd" stroke="none"/>
    </g>
    <radialGradient cx="0" cy="0" gradientTransform="matrix(0.0126, 0.0, 0.0, 0.0126, 0.3, 0.15)" gradientUnits="userSpaceOnUse" id="gradient5" r="819.2" spreadMethod="pad">
      <stop offset="0.0" stop-color="#ffffff"/>
      <stop offset="1.0" stop-color="#999999"/>
    </radialGradient>
    <linearGradient gradientTransform="matrix(0.0, -0.01, 0.0119, 0.0, -0.05, 0.6)" gradientUnits="userSpaceOnUse" id="gradient6" spreadMethod="pad" x1="-819.2" x2="819.2">
      <stop offset="0.01568627450980392" stop-color="#ffffff" stop-opacity="0.84313726"/>
      <stop offset="0.2549019607843137" stop-color="#aecbf8" stop-opacity="0.6901961"/>
      <stop offset="0.7372549019607844" stop-color="#8eb5f8" stop-opacity="0.0"/>
    </linearGradient>
  </defs>
</svg>
