<?xml version="1.0" encoding="UTF-8" standalone="no"?>
<svg xmlns:ffdec="https://www.free-decompiler.com/flash" xmlns:xlink="http://www.w3.org/1999/xlink" ffdec:objectType="frame" height="410.0px" width="590.0px" xmlns="http://www.w3.org/2000/svg">
  <g transform="matrix(1.0, 0.0, 0.0, 1.0, 0.0, 0.0)">
    <rect fill="#000000" height="410.0px" width="590.0px"/>
    <use ffdec:characterId="6" height="40.5" transform="matrix(0.8519, 0.0, 0.0, 0.8519, 410.7, 341.8)" width="54.45" xlink:href="#sprite0"/>
    <use ffdec:characterId="6" height="40.5" transform="matrix(0.8519, 0.0, 0.0, 0.8519, 59.95, 270.7)" width="54.45" xlink:href="#sprite0"/>
    <use ffdec:characterId="8" height="15.55" transform="matrix(-5.1799, 0.0, 0.0, 1.2564, 49.65, 324.45)" width="23.8" xlink:href="#sprite3"/>
    <use ffdec:characterId="14" height="88.7" transform="matrix(-0.9878, -0.1525, -0.1525, 0.9878, 168.9, 194.5)" width="79.2" xlink:href="#sprite4"/>
    <use ffdec:characterId="55" height="159.1" transform="matrix(-0.3468, -1.1443, -1.1443, 0.3468, 86.1, 223.4)" width="125.75" xlink:href="#sprite6"/>
    <use ffdec:characterId="17" height="21.8" transform="matrix(1.0303, -0.1597, 0.1597, 1.0303, 152.65, 223.6)" width="21.85" xlink:href="#sprite7"/>
    <use ffdec:characterId="17" height="21.8" transform="matrix(0.7368, 0.9161, -0.9161, 0.7368, 134.65, 215.95)" width="21.85" xlink:href="#sprite7"/>
    <use ffdec:characterId="19" height="5.7" transform="matrix(1.086, -0.1683, 0.1683, 1.086, 158.65, 224.75)" width="5.8" xlink:href="#sprite8"/>
    <use ffdec:characterId="19" height="5.7" transform="matrix(0.7368, 0.9161, -0.9161, 0.7368, 140.15, 216.05)" width="5.8" xlink:href="#sprite8"/>
    <use ffdec:characterId="40" height="26.3" transform="matrix(-1.1164, -0.4328, -0.4328, 1.1164, 134.95, 216.5)" width="55.25" xlink:href="#sprite9"/>
    <use ffdec:characterId="56" height="31.55" transform="matrix(-0.3302, -1.4825, -1.542, 0.528, 159.3, 247.0)" width="45.95" xlink:href="#sprite10"/>
    <use ffdec:characterId="2" height="149.45" transform="matrix(0.1927, 0.0, 0.0, 0.1927, 542.85, 365.65)" width="240.7" xlink:href="#sprite11"/>
    <use ffdec:characterId="28" height="140.2" transform="matrix(0.1927, 0.0, 0.0, 0.1927, 549.15, 349.9)" width="221.4" xlink:href="#sprite12"/>
    <use ffdec:characterId="111" height="26.95" transform="matrix(-0.3727, -1.3909, -1.3909, 0.3727, 112.8, 266.65)" width="17.45" xlink:href="#sprite13"/>
    <use ffdec:characterId="45" height="21.45" transform="matrix(0.0, 1.726, -1.726, 0.0, 90.15, 247.15)" width="24.3" xlink:href="#sprite14"/>
    <use ffdec:characterId="73" height="362.0" transform="matrix(0.9926, 0.1145, -0.1145, 0.9926, 357.95, 157.8)" width="264.3" xlink:href="#sprite15"/>
    <use ffdec:characterId="73" height="362.0" transform="matrix(1.0, 0.0, 0.0, 1.0, 229.95, 149.8)" width="264.3" xlink:href="#sprite19"/>
    <use ffdec:characterId="31" height="59.55" transform="matrix(1.0, 0.0, 0.0, 1.0, 235.25, 293.95)" width="91.0" xlink:href="#sprite23"/>
    <use ffdec:characterId="31" height="59.55" transform="matrix(0.9926, 0.1179, -0.1179, 0.9926, 344.35, 297.95)" width="91.0" xlink:href="#sprite23"/>
    <use ffdec:characterId="113" height="112.4" transform="matrix(0.9994, -0.0308, 0.0308, 0.9994, 407.55, 304.3)" width="124.45" xlink:href="#sprite24"/>
    <use ffdec:characterId="113" height="112.4" transform="matrix(0.9994, -0.0308, 0.0308, 0.9994, 292.8, 303.55)" width="124.45" xlink:href="#sprite25"/>
    <use ffdec:characterId="115" height="46.55" transform="matrix(1.0, 0.0, 0.0, 1.0, 348.85, 291.7)" width="59.15" xlink:href="#sprite26"/>
    <use ffdec:characterId="115" height="46.55" transform="matrix(1.0, 0.0, 0.0, 1.0, 234.85, 291.7)" width="59.15" xlink:href="#sprite27"/>
    <use ffdec:characterId="49" height="232.9" transform="matrix(1.0, 0.0, 0.0, 1.0, 455.1, 120.0)" width="101.65" xlink:href="#sprite28"/>
    <use ffdec:characterId="116" height="0.2" transform="matrix(1.0, 0.0, 0.0, 1.0, 0.0, 0.0)" width="0.0" xlink:href="#shape28"/>
    <use ffdec:characterId="98" height="80.6" transform="matrix(1.0, 0.0, 0.0, 1.0, 477.4, 87.6)" width="74.6" xlink:href="#sprite29"/>
    <use ffdec:characterId="98" height="80.6" transform="matrix(1.0, 0.0, 0.0, 1.0, 549.35, 87.75)" width="74.6" xlink:href="#sprite30"/>
    <use ffdec:characterId="98" height="80.6" transform="matrix(1.0, 0.0, 0.0, 1.0, 522.3, 143.0)" width="74.6" xlink:href="#sprite31"/>
    <use ffdec:characterId="98" height="80.6" transform="matrix(1.0, 0.0, 0.0, 1.0, 448.35, 143.2)" width="74.6" xlink:href="#sprite32"/>
    <use ffdec:characterId="98" height="80.6" transform="matrix(1.0, 0.0, 0.0, 1.0, 466.35, 196.0)" width="74.6" xlink:href="#sprite33"/>
    <use ffdec:characterId="98" height="80.6" transform="matrix(1.0, 0.0, 0.0, 1.0, 552.4, 205.0)" width="74.6" xlink:href="#sprite34"/>
    <use ffdec:characterId="98" height="80.6" transform="matrix(1.0, 0.0, 0.0, 1.0, 434.1, 256.2)" width="74.6" xlink:href="#sprite35"/>
    <use ffdec:characterId="98" height="80.6" transform="matrix(1.0, 0.0, 0.0, 1.0, 497.45, 268.0)" width="74.6" xlink:href="#sprite36"/>
    <use ffdec:characterId="98" height="80.6" transform="matrix(1.0, 0.0, 0.0, 1.0, 466.1, 320.4)" width="74.6" xlink:href="#sprite37"/>
    <use ffdec:characterId="98" height="80.6" transform="matrix(1.0, 0.0, 0.0, 1.0, 537.8, 317.6)" width="74.6" xlink:href="#sprite38"/>
    <use ffdec:characterId="33" height="222.05" transform="matrix(0.846, 0.0, 0.0, 0.846, 240.8, 160.9)" width="102.35" xlink:href="#sprite39"/>
    <use ffdec:characterId="34" height="215.85" transform="matrix(1.0, 0.0, 0.0, 1.0, 195.1, 157.8)" width="12.15" xlink:href="#shape40"/>
    <use ffdec:characterId="35" height="215.85" transform="matrix(1.0, 0.0, 0.0, 1.0, 278.45, 157.3)" width="12.15" xlink:href="#shape41"/>
    <use ffdec:characterId="36" height="8.25" transform="matrix(0.0058, -1.9999, 1.0612, 0.0109, 276.7, 191.15)" width="3.5" xlink:href="#shape42"/>
    <use ffdec:characterId="36" height="8.25" transform="matrix(0.0056, -1.9999, 1.025, 0.0109, 196.9, 191.15)" width="3.5" xlink:href="#shape42"/>
    <use ffdec:characterId="36" height="8.25" transform="matrix(0.006, -1.2539, 1.0975, 0.0068, 193.95, 262.65)" width="3.5" xlink:href="#shape42"/>
    <use ffdec:characterId="36" height="8.25" transform="matrix(0.006, -1.2539, 1.0975, 0.0068, 279.4, 262.7)" width="3.5" xlink:href="#shape42"/>
    <use ffdec:characterId="34" height="215.85" transform="matrix(0.0, -1.0, 0.4576, 0.0, 235.2, 255.75)" width="12.15" xlink:href="#shape40"/>
    <use ffdec:characterId="36" height="8.25" transform="matrix(0.0054, -1.0, 1.0, 0.0054, 194.2, 70.45)" width="3.5" xlink:href="#shape42"/>
    <use ffdec:characterId="36" height="8.25" transform="matrix(0.0054, -1.0, 1.0, 0.0054, 279.4, 71.45)" width="3.5" xlink:href="#shape42"/>
    <use ffdec:characterId="35" height="215.85" transform="matrix(-0.0053, -1.0, 0.4858, -0.0023, 236.0, 65.2)" width="12.15" xlink:href="#shape41"/>
    <use ffdec:characterId="36" height="8.25" transform="matrix(1.0, 0.0, 0.0, 1.0, 229.6, 67.05)" width="3.5" xlink:href="#shape42"/>
    <use ffdec:characterId="36" height="8.25" transform="matrix(0.0059, -1.1428, 1.0843, 0.0062, 277.8, 228.8)" width="3.5" xlink:href="#shape42"/>
    <use ffdec:characterId="36" height="8.25" transform="matrix(0.0059, -1.1428, 1.0843, 0.0062, 195.9, 227.2)" width="3.5" xlink:href="#shape42"/>
    <use ffdec:characterId="34" height="215.85" transform="matrix(0.0, -1.0, 0.4576, 0.0, 233.0, 220.35)" width="12.15" xlink:href="#shape40"/>
    <use ffdec:characterId="36" height="8.25" transform="matrix(0.0054, -1.0, 1.0, 0.0054, 196.2, 110.05)" width="3.5" xlink:href="#shape42"/>
    <use ffdec:characterId="36" height="8.25" transform="matrix(0.0054, -1.0, 1.0, 0.0054, 277.6, 111.05)" width="3.5" xlink:href="#shape42"/>
    <use ffdec:characterId="35" height="215.85" transform="matrix(-0.0053, -1.0, 0.4858, -0.0023, 235.95, 104.2)" width="12.15" xlink:href="#shape41"/>
    <use ffdec:characterId="36" height="8.25" transform="matrix(0.0054, -1.0, 1.0, 0.0054, 197.2, 147.55)" width="3.5" xlink:href="#shape42"/>
    <use ffdec:characterId="36" height="8.25" transform="matrix(0.0054, -1.0, 1.0, 0.0054, 276.6, 148.15)" width="3.5" xlink:href="#shape42"/>
    <use ffdec:characterId="35" height="215.85" transform="matrix(-0.0053, -1.0, 0.4858, -0.0023, 235.95, 141.6)" width="12.15" xlink:href="#shape41"/>
    <use ffdec:characterId="34" height="215.85" transform="matrix(0.0, -1.0, 0.4576, 0.0, 235.85, 183.05)" width="12.15" xlink:href="#shape40"/>
    <use ffdec:characterId="36" height="8.25" transform="matrix(1.0, 0.0, 0.0, 1.0, 227.8, 106.05)" width="3.5" xlink:href="#shape42"/>
    <use ffdec:characterId="36" height="8.25" transform="matrix(1.0, 0.0, 0.0, 1.0, 227.4, 143.35)" width="3.5" xlink:href="#shape42"/>
    <use ffdec:characterId="36" height="8.25" transform="matrix(1.0, 0.0, 0.0, 1.0, 227.4, 181.35)" width="3.5" xlink:href="#shape42"/>
    <use ffdec:characterId="36" height="8.25" transform="matrix(1.0, 0.0, 0.0, 1.0, 227.9, 218.55)" width="3.5" xlink:href="#shape42"/>
    <use ffdec:characterId="35" height="215.85" transform="matrix(0.995, 0.0934, 0.0114, 0.9746, 235.5, 158.45)" width="12.15" xlink:href="#shape41"/>
    <use ffdec:characterId="37" height="13.8" transform="matrix(-0.783, 0.0, 0.0, 0.783, 235.4, 67.1)" width="11.4" xlink:href="#shape43"/>
    <use ffdec:characterId="37" height="13.8" transform="matrix(0.7703, 0.0, 0.0, 0.7703, 235.65, 66.6)" width="11.4" xlink:href="#shape43"/>
    <use ffdec:characterId="37" height="13.8" transform="matrix(-0.783, 0.0, 0.0, 0.783, 233.75, 107.25)" width="11.4" xlink:href="#shape43"/>
    <use ffdec:characterId="37" height="13.8" transform="matrix(0.7703, 0.0, 0.0, 0.7703, 234.0, 106.75)" width="11.4" xlink:href="#shape43"/>
    <use ffdec:characterId="37" height="13.8" transform="matrix(-0.783, 0.0, 0.0, 0.783, 233.2, 144.1)" width="11.4" xlink:href="#shape43"/>
    <use ffdec:characterId="37" height="13.8" transform="matrix(0.7703, 0.0, 0.0, 0.7703, 233.45, 143.6)" width="11.4" xlink:href="#shape43"/>
    <use ffdec:characterId="37" height="13.8" transform="matrix(0.783, 0.0, 0.0, 0.783, 233.95, 181.9)" width="11.4" xlink:href="#shape43"/>
    <use ffdec:characterId="37" height="13.8" transform="matrix(-0.7703, 0.0, 0.0, 0.7703, 233.7, 181.4)" width="11.4" xlink:href="#shape43"/>
    <use ffdec:characterId="37" height="13.8" transform="matrix(-0.9933, 0.0, 0.0, 0.825, 234.1, 218.95)" width="11.4" xlink:href="#shape43"/>
    <use ffdec:characterId="37" height="13.8" transform="matrix(0.9772, 0.0, 0.0, 0.8115, 234.45, 218.4)" width="11.4" xlink:href="#shape43"/>
    <use ffdec:characterId="37" height="13.8" transform="matrix(-0.783, 0.0, 0.0, 0.783, 193.05, 64.8)" width="11.4" xlink:href="#shape43"/>
    <use ffdec:characterId="37" height="13.8" transform="matrix(1.0, 0.0, 0.0, 1.0, 194.1, 64.7)" width="11.4" xlink:href="#shape43"/>
    <use ffdec:characterId="37" height="13.8" transform="matrix(-0.783, 0.0, 0.0, 0.783, 195.25, 104.95)" width="11.4" xlink:href="#shape43"/>
    <use ffdec:characterId="37" height="13.8" transform="matrix(1.0, 0.0, 0.0, 1.0, 196.3, 104.85)" width="11.4" xlink:href="#shape43"/>
    <use ffdec:characterId="37" height="13.8" transform="matrix(-0.783, 0.0, 0.0, 0.783, 196.35, 142.35)" width="11.4" xlink:href="#shape43"/>
    <use ffdec:characterId="37" height="13.8" transform="matrix(1.0, 0.0, 0.0, 1.0, 197.4, 142.25)" width="11.4" xlink:href="#shape43"/>
    <use ffdec:characterId="37" height="13.8" transform="matrix(0.783, 0.0, 0.0, 0.783, 197.35, 184.05)" width="11.4" xlink:href="#shape43"/>
    <use ffdec:characterId="37" height="13.8" transform="matrix(-1.0, 0.0, 0.0, 1.0, 196.3, 183.95)" width="11.4" xlink:href="#shape43"/>
    <use ffdec:characterId="37" height="13.8" transform="matrix(0.783, 0.0, 0.0, 0.783, 196.2, 221.85)" width="11.4" xlink:href="#shape43"/>
    <use ffdec:characterId="37" height="13.8" transform="matrix(-1.0, 0.0, 0.0, 1.0, 195.15, 221.75)" width="11.4" xlink:href="#shape43"/>
    <use ffdec:characterId="37" height="13.8" transform="matrix(0.783, 0.0, 0.0, 0.783, 194.15, 257.15)" width="11.4" xlink:href="#shape43"/>
    <use ffdec:characterId="37" height="13.8" transform="matrix(-1.0, 0.0, 0.0, 1.0, 193.1, 257.05)" width="11.4" xlink:href="#shape43"/>
    <use ffdec:characterId="36" height="8.25" transform="matrix(1.0, 0.0, 0.0, 1.0, 230.4, 253.85)" width="3.5" xlink:href="#shape42"/>
    <use ffdec:characterId="37" height="13.8" transform="matrix(-0.9933, 0.0, 0.0, 0.825, 237.15, 255.05)" width="11.4" xlink:href="#shape43"/>
    <use ffdec:characterId="37" height="13.8" transform="matrix(0.9772, 0.0, 0.0, 0.8115, 237.5, 254.5)" width="11.4" xlink:href="#shape43"/>
    <use ffdec:characterId="37" height="13.8" transform="matrix(0.783, 0.0, 0.0, 0.783, 280.15, 64.8)" width="11.4" xlink:href="#shape43"/>
    <use ffdec:characterId="37" height="13.8" transform="matrix(-1.0, 0.0, 0.0, 1.0, 279.1, 64.7)" width="11.4" xlink:href="#shape43"/>
    <use ffdec:characterId="37" height="13.8" transform="matrix(0.783, 0.0, 0.0, 0.783, 277.95, 104.95)" width="11.4" xlink:href="#shape43"/>
    <use ffdec:characterId="37" height="13.8" transform="matrix(-1.0, 0.0, 0.0, 1.0, 276.9, 104.85)" width="11.4" xlink:href="#shape43"/>
    <use ffdec:characterId="37" height="13.8" transform="matrix(0.783, 0.0, 0.0, 0.783, 276.85, 142.35)" width="11.4" xlink:href="#shape43"/>
    <use ffdec:characterId="37" height="13.8" transform="matrix(-1.0, 0.0, 0.0, 1.0, 275.8, 142.25)" width="11.4" xlink:href="#shape43"/>
    <use ffdec:characterId="37" height="13.8" transform="matrix(-0.783, 0.0, 0.0, 0.783, 276.2, 184.2)" width="11.4" xlink:href="#shape43"/>
    <use ffdec:characterId="37" height="13.8" transform="matrix(1.0, 0.0, 0.0, 1.0, 277.25, 184.1)" width="11.4" xlink:href="#shape43"/>
    <use ffdec:characterId="37" height="13.8" transform="matrix(-0.783, 0.0, 0.0, 0.783, 277.15, 221.6)" width="11.4" xlink:href="#shape43"/>
    <use ffdec:characterId="37" height="13.8" transform="matrix(1.0, 0.0, 0.0, 1.0, 278.2, 221.5)" width="11.4" xlink:href="#shape43"/>
    <use ffdec:characterId="37" height="13.8" transform="matrix(-0.8792, 0.0, 0.0, 0.6468, 278.65, 256.85)" width="11.4" xlink:href="#shape43"/>
    <use ffdec:characterId="37" height="13.8" transform="matrix(1.1228, 0.0, 0.0, 0.8261, 279.85, 256.75)" width="11.4" xlink:href="#shape43"/>
    <use ffdec:characterId="33" height="222.05" transform="matrix(-0.8398, -0.0997, 0.0997, -0.8398, 356.9, 164.55)" width="102.35" xlink:href="#sprite39"/>
    <use ffdec:characterId="34" height="215.85" transform="matrix(0.9926, 0.1179, -0.1179, 0.9926, 320.55, 158.1)" width="12.15" xlink:href="#shape40"/>
    <use ffdec:characterId="35" height="215.85" transform="matrix(0.9926, 0.1179, -0.1179, 0.9926, 403.35, 167.45)" width="12.15" xlink:href="#shape41"/>
    <use ffdec:characterId="36" height="8.25" transform="matrix(0.2415, -1.9845, 1.0521, 0.1359, 397.65, 200.85)" width="3.5" xlink:href="#shape42"/>
    <use ffdec:characterId="36" height="8.25" transform="matrix(0.2413, -1.9845, 1.0162, 0.1316, 318.45, 191.45)" width="3.5" xlink:href="#shape42"/>
    <use ffdec:characterId="36" height="8.25" transform="matrix(0.1537, -1.244, 1.0886, 0.1361, 307.05, 262.05)" width="3.5" xlink:href="#shape42"/>
    <use ffdec:characterId="36" height="8.25" transform="matrix(0.1537, -1.244, 1.0886, 0.1361, 391.9, 272.15)" width="3.5" xlink:href="#shape42"/>
    <use ffdec:characterId="34" height="215.85" transform="matrix(0.1179, -0.9926, 0.4543, 0.0539, 348.8, 260.05)" width="12.15" xlink:href="#shape40"/>
    <use ffdec:characterId="36" height="8.25" transform="matrix(0.1233, -0.992, 0.992, 0.1233, 329.95, 71.25)" width="3.5" xlink:href="#shape42"/>
    <use ffdec:characterId="36" height="8.25" transform="matrix(0.1233, -0.992, 0.992, 0.1233, 414.45, 82.3)" width="3.5" xlink:href="#shape42"/>
    <use ffdec:characterId="35" height="215.85" transform="matrix(0.1126, -0.9932, 0.4825, 0.055, 372.1, 71.0)" width="12.15" xlink:href="#shape41"/>
    <use ffdec:characterId="36" height="8.25" transform="matrix(0.9926, 0.1179, -0.1179, 0.9926, 365.5, 72.1)" width="3.5" xlink:href="#shape42"/>
    <use ffdec:characterId="36" height="8.25" transform="matrix(0.1405, -1.1337, 1.0756, 0.134, 394.3, 238.35)" width="3.5" xlink:href="#shape42"/>
    <use ffdec:characterId="36" height="8.25" transform="matrix(0.1405, -1.1337, 1.0756, 0.134, 313.2, 227.05)" width="3.5" xlink:href="#shape42"/>
    <use ffdec:characterId="34" height="215.85" transform="matrix(0.1179, -0.9926, 0.4543, 0.0539, 350.8, 224.65)" width="12.15" xlink:href="#shape40"/>
    <use ffdec:characterId="36" height="8.25" transform="matrix(0.1233, -0.992, 0.992, 0.1233, 327.3, 110.8)" width="3.5" xlink:href="#shape42"/>
    <use ffdec:characterId="36" height="8.25" transform="matrix(0.1233, -0.992, 0.992, 0.1233, 407.95, 121.4)" width="3.5" xlink:href="#shape42"/>
    <use ffdec:characterId="35" height="215.85" transform="matrix(0.1126, -0.9932, 0.4825, 0.055, 367.45, 109.7)" width="12.15" xlink:href="#shape41"/>
    <use ffdec:characterId="36" height="8.25" transform="matrix(0.1233, -0.992, 0.992, 0.1233, 323.85, 148.2)" width="3.5" xlink:href="#shape42"/>
    <use ffdec:characterId="36" height="8.25" transform="matrix(0.1233, -0.992, 0.992, 0.1233, 402.6, 158.15)" width="3.5" xlink:href="#shape42"/>
    <use ffdec:characterId="35" height="215.85" transform="matrix(0.1126, -0.9932, 0.4825, 0.055, 363.0, 146.85)" width="12.15" xlink:href="#shape41"/>
    <use ffdec:characterId="34" height="215.85" transform="matrix(0.1179, -0.9926, 0.4543, 0.0539, 358.05, 188.0)" width="12.15" xlink:href="#shape40"/>
    <use ffdec:characterId="36" height="8.25" transform="matrix(0.9926, 0.1179, -0.1179, 0.9926, 359.1, 110.6)" width="3.5" xlink:href="#shape42"/>
    <use ffdec:characterId="36" height="8.25" transform="matrix(0.9926, 0.1179, -0.1179, 0.9926, 354.3, 147.6)" width="3.5" xlink:href="#shape42"/>
    <use ffdec:characterId="36" height="8.25" transform="matrix(0.9926, 0.1179, -0.1179, 0.9926, 349.85, 185.3)" width="3.5" xlink:href="#shape42"/>
    <use ffdec:characterId="36" height="8.25" transform="matrix(0.9926, 0.1179, -0.1179, 0.9926, 345.95, 222.25)" width="3.5" xlink:href="#shape42"/>
    <use ffdec:characterId="35" height="215.85" transform="matrix(0.9767, 0.2101, -0.1035, 0.9688, 360.6, 163.5)" width="12.15" xlink:href="#shape41"/>
    <use ffdec:characterId="37" height="13.8" transform="matrix(-0.7773, -0.0923, -0.0923, 0.7773, 371.25, 72.85)" width="11.4" xlink:href="#shape43"/>
    <use ffdec:characterId="37" height="13.8" transform="matrix(0.7646, 0.0908, -0.0908, 0.7646, 371.55, 72.35)" width="11.4" xlink:href="#shape43"/>
    <use ffdec:characterId="37" height="13.8" transform="matrix(-0.7773, -0.0923, -0.0923, 0.7773, 364.9, 112.5)" width="11.4" xlink:href="#shape43"/>
    <use ffdec:characterId="37" height="13.8" transform="matrix(0.7646, 0.0908, -0.0908, 0.7646, 365.2, 112.0)" width="11.4" xlink:href="#shape43"/>
    <use ffdec:characterId="37" height="13.8" transform="matrix(-0.7773, -0.0923, -0.0923, 0.7773, 360.0, 149.05)" width="11.4" xlink:href="#shape43"/>
    <use ffdec:characterId="37" height="13.8" transform="matrix(0.7646, 0.0908, -0.0908, 0.7646, 360.3, 148.55)" width="11.4" xlink:href="#shape43"/>
    <use ffdec:characterId="37" height="13.8" transform="matrix(0.7773, 0.0923, -0.0923, 0.7773, 356.3, 186.6)" width="11.4" xlink:href="#shape43"/>
    <use ffdec:characterId="37" height="13.8" transform="matrix(-0.7646, -0.0908, -0.0908, 0.7646, 356.1, 186.1)" width="11.4" xlink:href="#shape43"/>
    <use ffdec:characterId="37" height="13.8" transform="matrix(-0.986, -0.1171, -0.0972, 0.8189, 352.1, 223.45)" width="11.4" xlink:href="#shape43"/>
    <use ffdec:characterId="37" height="13.8" transform="matrix(0.97, 0.1152, -0.0957, 0.8055, 352.5, 222.9)" width="11.4" xlink:href="#shape43"/>
    <use ffdec:characterId="37" height="13.8" transform="matrix(-0.7773, -0.0923, -0.0923, 0.7773, 329.5, 65.5)" width="11.4" xlink:href="#shape43"/>
    <use ffdec:characterId="37" height="13.8" transform="matrix(0.9926, 0.1179, -0.1179, 0.9926, 330.55, 65.55)" width="11.4" xlink:href="#shape43"/>
    <use ffdec:characterId="37" height="13.8" transform="matrix(-0.7773, -0.0923, -0.0923, 0.7773, 326.95, 105.6)" width="11.4" xlink:href="#shape43"/>
    <use ffdec:characterId="37" height="13.8" transform="matrix(0.9926, 0.1179, -0.1179, 0.9926, 328.0, 105.65)" width="11.4" xlink:href="#shape43"/>
    <use ffdec:characterId="37" height="13.8" transform="matrix(-0.7773, -0.0923, -0.0923, 0.7773, 323.65, 142.9)" width="11.4" xlink:href="#shape43"/>
    <use ffdec:characterId="37" height="13.8" transform="matrix(0.9926, 0.1179, -0.1179, 0.9926, 324.7, 142.95)" width="11.4" xlink:href="#shape43"/>
    <use ffdec:characterId="37" height="13.8" transform="matrix(0.7773, 0.0923, -0.0923, 0.7773, 319.75, 184.45)" width="11.4" xlink:href="#shape43"/>
    <use ffdec:characterId="37" height="13.8" transform="matrix(-0.9926, -0.1179, -0.1179, 0.9926, 318.7, 184.2)" width="11.4" xlink:href="#shape43"/>
    <use ffdec:characterId="37" height="13.8" transform="matrix(0.7773, 0.0923, -0.0923, 0.7773, 314.15, 221.85)" width="11.4" xlink:href="#shape43"/>
    <use ffdec:characterId="37" height="13.8" transform="matrix(-0.9926, -0.1179, -0.1179, 0.9926, 313.1, 221.6)" width="11.4" xlink:href="#shape43"/>
    <use ffdec:characterId="37" height="13.8" transform="matrix(0.7773, 0.0923, -0.0923, 0.7773, 307.9, 256.65)" width="11.4" xlink:href="#shape43"/>
    <use ffdec:characterId="37" height="13.8" transform="matrix(-0.9926, -0.1179, -0.1179, 0.9926, 306.85, 256.4)" width="11.4" xlink:href="#shape43"/>
    <use ffdec:characterId="36" height="8.25" transform="matrix(0.9926, 0.1179, -0.1179, 0.9926, 344.3, 257.6)" width="3.5" xlink:href="#shape42"/>
    <use ffdec:characterId="37" height="13.8" transform="matrix(-0.986, -0.1171, -0.0972, 0.8189, 350.9, 259.6)" width="11.4" xlink:href="#shape43"/>
    <use ffdec:characterId="37" height="13.8" transform="matrix(0.97, 0.1152, -0.0957, 0.8055, 351.3, 259.05)" width="11.4" xlink:href="#shape43"/>
    <use ffdec:characterId="37" height="13.8" transform="matrix(0.7773, 0.0923, -0.0923, 0.7773, 416.0, 75.85)" width="11.4" xlink:href="#shape43"/>
    <use ffdec:characterId="37" height="13.8" transform="matrix(-0.9926, -0.1179, -0.1179, 0.9926, 414.95, 75.6)" width="11.4" xlink:href="#shape43"/>
    <use ffdec:characterId="37" height="13.8" transform="matrix(0.7773, 0.0923, -0.0923, 0.7773, 409.05, 115.4)" width="11.4" xlink:href="#shape43"/>
    <use ffdec:characterId="37" height="13.8" transform="matrix(-0.9926, -0.1179, -0.1179, 0.9926, 408.0, 115.15)" width="11.4" xlink:href="#shape43"/>
    <use ffdec:characterId="37" height="13.8" transform="matrix(0.7773, 0.0923, -0.0923, 0.7773, 403.55, 152.45)" width="11.4" xlink:href="#shape43"/>
    <use ffdec:characterId="37" height="13.8" transform="matrix(-0.9926, -0.1179, -0.1179, 0.9926, 402.5, 152.2)" width="11.4" xlink:href="#shape43"/>
    <use ffdec:characterId="37" height="13.8" transform="matrix(-0.7773, -0.0923, -0.0923, 0.7773, 397.95, 193.85)" width="11.4" xlink:href="#shape43"/>
    <use ffdec:characterId="37" height="13.8" transform="matrix(0.9926, 0.1179, -0.1179, 0.9926, 399.0, 193.9)" width="11.4" xlink:href="#shape43"/>
    <use ffdec:characterId="37" height="13.8" transform="matrix(-0.7773, -0.0923, -0.0923, 0.7773, 394.5, 231.1)" width="11.4" xlink:href="#shape43"/>
    <use ffdec:characterId="37" height="13.8" transform="matrix(0.9926, 0.1179, -0.1179, 0.9926, 395.55, 231.15)" width="11.4" xlink:href="#shape43"/>
    <use ffdec:characterId="37" height="13.8" transform="matrix(-0.8727, -0.1036, -0.0762, 0.6421, 391.9, 266.25)" width="11.4" xlink:href="#shape43"/>
    <use ffdec:characterId="37" height="13.8" transform="matrix(1.1145, 0.1324, -0.0974, 0.82, 393.05, 266.3)" width="11.4" xlink:href="#shape43"/>
    <use ffdec:characterId="117" height="0.2" transform="matrix(1.0, 0.0, 0.0, 1.0, 0.0, 0.0)" width="0.0" xlink:href="#shape44"/>
    <use ffdec:characterId="100" height="52.55" transform="matrix(1.0, 0.0, 0.0, 1.0, 477.4, 87.6)" width="59.25" xlink:href="#sprite40"/>
    <use ffdec:characterId="101" height="52.55" transform="matrix(1.0, 0.0, 0.0, 1.0, 549.15, 87.75)" width="59.25" xlink:href="#sprite41"/>
    <use ffdec:characterId="102" height="52.55" transform="matrix(1.0, 0.0, 0.0, 1.0, 448.35, 143.2)" width="59.25" xlink:href="#sprite42"/>
    <use ffdec:characterId="103" height="52.55" transform="matrix(1.0, 0.0, 0.0, 1.0, 522.1, 143.0)" width="59.25" xlink:href="#sprite43"/>
    <use ffdec:characterId="104" height="50.35" transform="matrix(1.0, 0.0, 0.0, 1.0, 466.15, 196.0)" width="59.25" xlink:href="#sprite44"/>
    <use ffdec:characterId="105" height="52.55" transform="matrix(1.0, 0.0, 0.0, 1.0, 552.2, 205.0)" width="59.25" xlink:href="#sprite45"/>
    <use ffdec:characterId="106" height="52.55" transform="matrix(1.0, 0.0, 0.0, 1.0, 434.1, 256.2)" width="59.25" xlink:href="#sprite46"/>
    <use ffdec:characterId="107" height="52.55" transform="matrix(1.0, 0.0, 0.0, 1.0, 497.25, 268.0)" width="59.25" xlink:href="#sprite47"/>
    <use ffdec:characterId="108" height="52.55" transform="matrix(1.0, 0.0, 0.0, 1.0, 465.45, 320.45)" width="59.25" xlink:href="#sprite48"/>
    <use ffdec:characterId="109" height="52.55" transform="matrix(1.0, 0.0, 0.0, 1.0, 537.8, 317.6)" width="59.25" xlink:href="#sprite49"/>
    <use ffdec:characterId="64" height="40.3" transform="matrix(1.0, 0.0, 0.0, 1.0, 335.45, 203.35)" width="40.3" xlink:href="#sprite50"/>
    <use ffdec:characterId="64" height="40.3" transform="matrix(1.0, 0.0, 0.0, 1.0, 332.5, 239.15)" width="40.3" xlink:href="#sprite50"/>
    <use ffdec:characterId="64" height="40.3" transform="matrix(1.0, 0.0, 0.0, 1.0, 339.05, 164.8)" width="40.3" xlink:href="#sprite50"/>
    <use ffdec:characterId="64" height="40.3" transform="matrix(1.0, 0.0, 0.0, 1.0, 215.0, 125.1)" width="40.3" xlink:href="#sprite50"/>
    <use ffdec:characterId="64" height="40.3" transform="matrix(1.0, 0.0, 0.0, 1.0, 215.0, 86.1)" width="40.3" xlink:href="#sprite50"/>
    <use ffdec:characterId="64" height="40.3" transform="matrix(1.0, 0.0, 0.0, 1.0, 255.1, 124.85)" width="40.3" xlink:href="#sprite50"/>
    <use ffdec:characterId="64" height="40.3" transform="matrix(1.0, 0.0, 0.0, 1.0, 254.6, 85.6)" width="40.3" xlink:href="#sprite50"/>
    <use ffdec:characterId="64" height="40.3" transform="matrix(1.0, 0.0, 0.0, 1.0, 215.0, 200.1)" width="40.3" xlink:href="#sprite50"/>
    <use ffdec:characterId="64" height="40.3" transform="matrix(1.0, 0.0, 0.0, 1.0, 215.0, 162.35)" width="40.3" xlink:href="#sprite50"/>
    <use ffdec:characterId="64" height="40.3" transform="matrix(1.0, 0.0, 0.0, 1.0, 254.35, 200.35)" width="40.3" xlink:href="#sprite50"/>
    <use ffdec:characterId="64" height="40.3" transform="matrix(1.0, 0.0, 0.0, 1.0, 253.85, 162.6)" width="40.3" xlink:href="#sprite51"/>
    <use ffdec:characterId="64" height="40.3" transform="matrix(1.0, 0.0, 0.0, 1.0, 214.75, 237.6)" width="40.3" xlink:href="#sprite51"/>
    <use ffdec:characterId="64" height="40.3" transform="matrix(1.0, 0.0, 0.0, 1.0, 255.6, 237.35)" width="40.3" xlink:href="#sprite51"/>
    <use ffdec:characterId="39" height="19.6" transform="matrix(1.0, 0.0, 0.0, 1.0, 214.95, 84.95)" width="19.5" xlink:href="#sprite52"/>
    <use ffdec:characterId="39" height="19.6" transform="matrix(1.0, 0.0, 0.0, 1.0, 254.95, 84.95)" width="19.5" xlink:href="#sprite52"/>
    <use ffdec:characterId="39" height="19.6" transform="matrix(1.0, 0.0, 0.0, 1.0, 254.95, 123.95)" width="19.5" xlink:href="#sprite52"/>
    <use ffdec:characterId="39" height="19.6" transform="matrix(1.0, 0.0, 0.0, 1.0, 214.75, 123.95)" width="19.5" xlink:href="#sprite52"/>
    <use ffdec:characterId="39" height="19.6" transform="matrix(1.0, 0.0, 0.0, 1.0, 214.75, 162.35)" width="19.5" xlink:href="#sprite52"/>
    <use ffdec:characterId="39" height="19.6" transform="matrix(1.0, 0.0, 0.0, 1.0, 254.35, 162.35)" width="19.5" xlink:href="#sprite52"/>
    <use ffdec:characterId="39" height="19.6" transform="matrix(1.0, 0.0, 0.0, 1.0, 254.35, 199.55)" width="19.5" xlink:href="#sprite52"/>
    <use ffdec:characterId="39" height="19.6" transform="matrix(1.0, 0.0, 0.0, 1.0, 214.75, 199.55)" width="19.5" xlink:href="#sprite52"/>
    <use ffdec:characterId="39" height="19.6" transform="matrix(1.0, 0.0, 0.0, 1.0, 214.75, 236.9)" width="19.5" xlink:href="#sprite52"/>
    <use ffdec:characterId="39" height="19.6" transform="matrix(1.0, 0.0, 0.0, 1.0, 255.55, 236.9)" width="19.5" xlink:href="#sprite52"/>
    <use ffdec:characterId="39" height="19.6" transform="matrix(1.0, 0.0, 0.0, 1.0, 332.35, 239.15)" width="19.5" xlink:href="#sprite52"/>
    <use ffdec:characterId="39" height="19.6" transform="matrix(1.0, 0.0, 0.0, 1.0, 335.95, 203.15)" width="19.5" xlink:href="#sprite52"/>
    <use ffdec:characterId="39" height="19.6" transform="matrix(1.0, 0.0, 0.0, 1.0, 339.55, 164.75)" width="19.5" xlink:href="#sprite53"/>
    <use ffdec:characterId="6" height="40.5" transform="matrix(0.9987, 0.0, 0.0, 0.9987, 489.55, 388.0)" width="54.45" xlink:href="#sprite0"/>
  </g>
  <defs>
    <g id="sprite0">
      <use ffdec:characterId="2" height="149.45" transform="matrix(0.2262, 0.0, 0.0, 0.2262, -4.95, 11.6)" width="240.7" xlink:href="#sprite1"/>
      <use ffdec:characterId="3" height="140.2" transform="matrix(0.2262, 0.0, 0.0, 0.2262, 2.45, -6.85)" width="221.4" xlink:href="#shape1"/>
      <use ffdec:characterId="5" height="12.4" transform="matrix(0.2262, 0.0, 0.0, 0.2262, -17.5, -2.65)" width="7.05" xlink:href="#sprite2"/>
      <use ffdec:characterId="5" height="12.4" transform="matrix(0.2262, 0.0, 0.0, 0.2262, -17.0, -4.0)" width="7.05" xlink:href="#sprite2"/>
      <use ffdec:characterId="5" height="12.4" transform="matrix(0.2262, 0.0, 0.0, 0.2262, -16.4, -5.45)" width="7.05" xlink:href="#sprite2"/>
    </g>
    <g id="sprite1">
      <use ffdec:characterId="1" height="149.45" transform="matrix(1.0, 0.0, 0.0, 1.0, 0.0, 0.0)" width="240.7" xlink:href="#shape0"/>
    </g>
    <g id="shape0">
      <path d="M-75.55 -39.5 L-27.0 -60.35 114.05 -7.9 Q17.25 50.7 -48.45 35.35 -132.4 -1.6 -75.55 -39.5" fill="#000000" fill-opacity="0.3019608" fill-rule="evenodd" stroke="none"/>
      <path d="M22.2 -109.55 L28.65 -108.35 Q52.05 -104.15 70.7 -99.35 133.9 -82.95 142.05 -59.45 143.0 -57.2 138.4 -42.35 133.7 -27.3 130.4 -22.7 117.8 -16.05 111.25 -27.1 105.2 -39.45 104.0 -49.55 102.75 -59.7 100.5 -46.35 98.25 -33.0 93.55 -18.95 89.5 -6.9 84.1 -0.7 73.6 2.9 66.25 0.15 56.45 0.4 47.55 -29.6 38.6 -59.65 31.8 -42.8 25.0 -26.0 24.25 -21.6 23.5 -17.25 20.9 -12.9 14.2 -1.7 5.75 -2.05 -2.5 -2.35 -10.3 -13.35 -19.25 -29.25 -23.9 -43.65 -26.35 -50.75 -27.75 -50.6 -28.75 -50.55 -31.6 -45.55 -32.7 -43.65 -33.95 -39.45 -35.2 -35.45 -36.3 -33.75 -41.0 -26.6 -43.2 -24.25 -46.45 -20.75 -49.7 -20.7 L-49.6 -24.25 Q-47.65 -24.85 -46.45 -26.05 -39.2 -31.8 -36.45 -42.0 -30.4 -55.15 -25.85 -52.3 -24.3 -51.6 -22.85 -49.3 L-20.5 -44.1 -16.4 -33.4 Q-6.65 -8.75 2.15 -5.95 L5.35 -5.7 Q14.55 -8.0 19.55 -17.3 22.25 -22.45 23.3 -28.85 24.7 -35.35 28.25 -43.9 31.75 -52.5 36.6 -52.35 38.65 -52.3 42.4 -48.7 46.15 -45.15 54.15 -22.15 58.6 -7.25 66.0 -3.8 68.25 -2.75 70.8 -2.75 88.15 -1.65 95.2 -43.7 97.85 -59.65 99.25 -59.95 103.7 -60.6 105.8 -56.45 107.9 -52.3 109.7 -44.4 111.5 -36.5 115.2 -29.15 117.25 -24.95 119.45 -23.75 L119.5 -23.75 Q120.55 -23.2 121.7 -23.35 129.3 -24.3 137.4 -51.15 L137.5 -51.55 Q148.3 -73.9 74.65 -95.65 53.7 -101.85 25.85 -108.0 24.1 -108.55 22.2 -109.55" fill="#fffff3" fill-rule="evenodd" stroke="none"/>
      <path d="M22.2 -109.55 Q24.1 -108.55 25.85 -108.0 53.7 -101.85 74.65 -95.65 148.3 -73.9 137.5 -51.55 L137.4 -51.15 137.25 -51.35 Q118.95 -80.65 59.35 -96.3 34.2 -102.9 -4.6 -103.8 -17.35 -104.1 -29.15 -103.7 L-39.2 -103.1 -39.25 -103.05 Q-50.2 -95.55 -60.05 -74.15 -73.65 -42.2 -67.85 -36.7 -68.3 -35.7 -69.65 -34.5 L-70.9 -33.5 Q-72.3 -35.75 -72.9 -38.5 -73.9 -42.7 -73.15 -48.05 -72.0 -56.6 -56.65 -82.75 -49.0 -95.8 -41.55 -107.2 L-39.8 -109.5 -39.75 -109.55 Q-8.35 -112.25 22.2 -109.55" fill="#000000" fill-rule="evenodd" stroke="none"/>
      <path d="M-49.6 -24.25 L-49.7 -20.7 Q-46.45 -20.75 -43.2 -24.25 -41.0 -26.6 -36.3 -33.75 -35.2 -35.45 -33.95 -39.45 -32.7 -43.65 -31.6 -45.55 -28.75 -50.55 -27.75 -50.6 -26.35 -50.75 -23.9 -43.65 -19.25 -29.25 -10.3 -13.35 -2.5 -2.35 5.75 -2.05 14.2 -1.7 20.9 -12.9 23.5 -17.25 24.25 -21.6 25.0 -26.0 31.8 -42.8 38.6 -59.65 47.55 -29.6 56.45 0.4 66.25 0.15 73.6 2.9 84.1 -0.7 76.75 15.0 67.2 19.25 38.8 10.05 36.8 -6.65 34.8 -23.35 25.75 5.15 24.2 15.4 16.45 18.35 8.2 21.5 -3.0 14.3 -5.05 13.0 -7.6 9.15 -10.95 4.15 -11.8 -1.05 -21.05 -20.3 -25.7 -40.1 -18.55 4.8 -29.85 5.75 -32.6 5.05 -35.5 3.5 -45.5 -4.9 -49.7 -20.7 -54.0 -19.15 -56.5 -22.45 -59.05 -44.2 -66.75 -40.7 -63.4 -45.6 -61.1 -45.75 -57.75 -46.0 -56.65 -36.25 -55.1 -22.8 -49.6 -24.25 M93.55 -18.95 Q98.25 -33.0 100.5 -46.35 102.75 -59.7 104.0 -49.55 105.2 -39.45 111.25 -27.1 117.8 -16.05 130.4 -22.7 128.1 -19.55 122.8 -14.9 95.4 -6.35 93.55 -18.95 M-73.7 -31.8 Q-86.05 -52.0 -44.95 -106.65 L-39.8 -109.5 -41.55 -107.2 Q-49.0 -95.8 -56.65 -82.75 -72.0 -56.6 -73.15 -48.05 -73.9 -42.7 -72.9 -38.5 -72.3 -35.75 -70.9 -33.5 -72.2 -33.0 -73.7 -31.8" fill="#ffcfb7" fill-rule="evenodd" stroke="none"/>
      <path d="M19.55 -17.3 Q14.55 -8.0 5.35 -5.7 L2.15 -5.95 Q-4.55 -11.6 -12.4 -26.35 3.4 -19.0 19.55 -17.3 M-36.45 -42.0 Q-39.2 -31.8 -46.45 -26.05 -55.95 -46.5 -61.1 -45.75 -63.4 -45.6 -66.75 -40.7 -67.1 -38.35 -67.85 -36.7 -73.65 -42.2 -60.05 -74.15 -56.75 -48.55 -36.45 -42.0" fill="#cc5840" fill-rule="evenodd" stroke="none"/>
      <path d="M119.5 -23.75 L119.45 -23.75 Q117.25 -24.95 115.2 -29.15 120.8 -29.25 128.1 -34.4 124.3 -29.0 119.5 -23.75 M66.0 -3.8 Q58.6 -7.25 54.15 -22.15 63.0 -19.5 72.3 -19.75 L66.0 -3.8 M23.3 -28.85 Q22.25 -22.45 19.55 -17.3 3.4 -19.0 -12.4 -26.35 L-20.5 -44.1 -22.85 -49.3 Q-24.3 -51.6 -25.85 -52.3 -30.4 -55.15 -36.45 -42.0 -56.75 -48.55 -60.05 -74.15 -50.2 -95.55 -39.25 -103.05 -58.4 -88.2 -31.05 -64.95 -3.7 -41.75 23.3 -28.85" fill="#d26f59" fill-rule="evenodd" stroke="none"/>
      <path d="M115.2 -29.15 Q111.5 -36.5 109.7 -44.4 107.9 -52.3 105.8 -56.45 103.7 -60.6 99.25 -59.95 93.05 -60.1 82.7 -39.85 L72.3 -19.75 Q63.0 -19.5 54.15 -22.15 46.15 -45.15 42.4 -48.7 38.65 -52.3 36.6 -52.35 31.75 -52.5 28.25 -43.9 24.7 -35.35 23.3 -28.85 -3.7 -41.75 -31.05 -64.95 -58.4 -88.2 -39.25 -103.05 L-39.2 -103.1 -29.15 -103.7 Q-17.35 -104.1 -4.6 -103.8 34.2 -102.9 59.35 -96.3 118.95 -80.65 137.25 -51.35 L137.4 -51.15 137.2 -51.2 Q135.85 -47.7 131.9 -40.75 L128.1 -34.4 Q120.8 -29.25 115.2 -29.15" fill="#dc8d7c" fill-rule="evenodd" stroke="none"/>
      <path d="M137.4 -51.15 Q129.3 -24.3 121.7 -23.35 120.55 -23.2 119.5 -23.75 124.3 -29.0 128.1 -34.4 L131.9 -40.75 Q135.85 -47.7 137.2 -51.2 L137.4 -51.15 M99.25 -59.95 Q97.85 -59.65 95.2 -43.7 88.15 -1.65 70.8 -2.75 68.25 -2.75 66.0 -3.8 L72.3 -19.75 82.7 -39.85 Q93.05 -60.1 99.25 -59.95" fill="#c2453a" fill-rule="evenodd" stroke="none"/>
      <path d="M84.1 -0.7 Q89.5 -6.9 93.55 -18.95 95.4 -6.35 122.8 -14.9 105.35 -0.75 84.1 -0.7 M67.2 19.25 Q52.6 25.7 32.85 5.15 29.3 1.4 25.75 5.15 34.8 -23.35 36.8 -6.65 38.8 10.05 67.2 19.25 M-11.8 -1.05 Q-19.85 8.15 -29.85 5.75 -18.55 4.8 -25.7 -40.1 -21.05 -20.3 -11.8 -1.05" fill="#d3705a" fill-rule="evenodd" stroke="none"/>
      <path d="M-56.5 -22.45 Q-67.45 -31.0 -73.7 -31.8 -72.2 -33.0 -70.9 -33.5 L-69.65 -34.5 Q-68.3 -35.7 -67.85 -36.7 -67.1 -38.35 -66.75 -40.7 -59.05 -44.2 -56.5 -22.45" fill="#e49d87" fill-rule="evenodd" stroke="none"/>
      <path d="M2.15 -5.95 Q-6.65 -8.75 -16.4 -33.4 L-20.5 -44.1 -12.4 -26.35 Q-4.55 -11.6 2.15 -5.95 M-46.45 -26.05 Q-47.65 -24.85 -49.6 -24.25 -55.1 -22.8 -56.65 -36.25 -57.75 -46.0 -61.1 -45.75 -55.95 -46.5 -46.45 -26.05" fill="#732900" fill-rule="evenodd" stroke="none"/>
    </g>
    <g id="shape1">
      <path d="M76.8 -5.25 Q73.5 -14.7 77.5 -15.65 L67.75 -21.25 76.8 -5.25 M-16.7 -57.55 Q-6.25 -62.25 4.75 -53.45 11.95 -43.9 14.65 -49.3 39.75 -70.3 68.3 -25.35 102.75 -7.55 107.1 4.8 L106.9 5.4 106.9 5.45 Q89.55 80.65 76.9 9.05 66.6 -10.15 60.05 12.6 60.25 22.8 53.85 37.8 39.6 64.25 33.2 49.75 L23.3 19.2 Q21.1 1.65 8.85 -3.05 -2.75 -9.95 -9.7 18.8 -14.85 56.35 -27.85 59.25 -38.65 58.0 -43.55 28.7 -54.45 -9.75 -68.3 22.5 -80.0 55.2 -89.05 36.95 -90.85 25.45 -95.1 24.15 -100.45 6.6 -76.7 -38.0 -73.0 -40.5 -68.4 -39.15 -65.5 -27.2 -69.0 -10.1 -74.2 -5.7 -73.85 6.85 -72.3 9.15 -78.4 26.1 -72.3 20.05 -69.7 9.4 -69.95 -6.5 -66.9 -8.0 -63.95 -16.25 -62.6 -36.2 L-62.6 -36.25 Q-59.25 -55.5 -40.65 -45.6 -26.85 -35.75 -24.25 -40.75 -18.45 5.75 -17.15 33.75 -12.8 0.65 -2.9 -6.6 -15.8 -32.1 -16.7 -57.55 M86.9 14.25 L91.4 29.9 96.3 19.15 Q91.6 26.05 86.9 14.25 M55.85 17.9 Q56.4 7.25 60.4 3.25 L41.95 -20.75 55.85 17.9 M48.6 37.55 Q38.95 57.35 33.3 34.45 36.6 51.35 39.9 50.45 44.25 50.8 48.6 37.55 M-39.1 -4.2 Q-44.05 -34.25 -58.55 -21.95 -44.2 -27.9 -39.1 -4.2 M-23.4 51.5 Q-35.6 52.05 -41.15 7.3 -49.95 -15.3 -63.45 -2.8 -45.85 -12.2 -42.2 14.95 L-35.25 46.6 Q-30.15 59.95 -23.4 51.5" fill="#fffff3" fill-rule="evenodd" stroke="none"/>
      <path d="M76.8 -5.25 L67.75 -21.25 77.5 -15.65 Q73.5 -14.7 76.8 -5.25 M-16.7 -57.55 Q-15.8 -32.1 -2.9 -6.6 -12.8 0.65 -17.15 33.75 -18.45 5.75 -24.25 -40.75 -23.95 -41.3 -21.85 -49.0 -19.3 -56.6 -16.7 -57.55 M-62.6 -36.2 Q-63.95 -16.25 -66.9 -8.0 -69.95 -6.5 -69.7 9.4 -72.3 20.05 -78.4 26.1 -72.3 9.15 -73.85 6.85 -74.2 -5.7 -69.0 -10.1 -65.5 -27.2 -68.4 -39.15 -65.65 -38.35 -62.6 -36.2 M-76.7 -38.0 Q-100.45 6.6 -95.1 24.15 -99.3 22.85 -107.05 31.15 L-107.05 31.3 Q-111.7 38.2 -106.4 50.2 -111.85 46.65 -111.55 36.1 -111.45 31.8 -110.35 26.35 -108.65 18.25 -93.45 -9.7 -79.0 -36.4 -76.7 -38.0 M86.9 14.25 Q91.6 26.05 96.3 19.15 L91.4 29.9 86.9 14.25 M55.85 17.9 L41.95 -20.75 60.4 3.25 Q56.4 7.25 55.85 17.9 M48.6 37.55 Q44.25 50.8 39.9 50.45 36.6 51.35 33.3 34.45 38.95 57.35 48.6 37.55 M-39.1 -4.2 Q-44.2 -27.9 -58.55 -21.95 -44.05 -34.25 -39.1 -4.2 M-23.4 51.5 Q-30.15 59.95 -35.25 46.6 L-42.2 14.95 Q-45.85 -12.2 -63.45 -2.8 -49.95 -15.3 -41.15 7.3 -35.6 52.05 -23.4 51.5" fill="#ffcfb7" fill-rule="evenodd" stroke="none"/>
      <path d="M-95.1 24.15 Q-90.85 25.45 -89.05 36.95 -80.0 55.2 -68.3 22.5 -54.45 -9.75 -43.55 28.7 -38.65 58.0 -27.85 59.25 -14.85 56.35 -9.7 18.8 -2.75 -9.95 8.85 -3.05 21.1 1.65 23.3 19.2 L33.2 49.75 Q39.6 64.25 53.85 37.8 60.25 22.8 60.05 12.6 66.6 -10.15 76.9 9.05 89.55 80.65 106.9 5.45 107.25 22.85 109.85 24.4 102.7 43.3 96.35 55.15 85.35 70.5 78.6 44.45 74.95 24.3 72.0 18.9 68.75 14.55 63.65 31.85 58.85 62.4 52.7 72.65 27.25 97.2 18.45 49.75 13.9 24.05 10.35 21.0 0.25 13.95 -7.3 46.0 -9.7 69.5 -20.35 76.05 -35.7 87.3 -55.35 39.8 -62.2 23.65 -67.05 35.9 -69.15 44.8 -72.65 51.0 -87.95 71.85 -89.75 43.5 -92.5 32.55 -99.15 42.95 -100.75 47.5 -106.4 50.2 -111.7 38.2 -107.05 31.3 L-107.05 31.15 Q-99.3 22.85 -95.1 24.15" fill="#000000" fill-rule="evenodd" stroke="none"/>
    </g>
    <g id="sprite2">
      <use ffdec:characterId="4" height="12.4" transform="matrix(1.0, 0.0, 0.0, 1.0, 0.0, 0.0)" width="7.05" xlink:href="#shape2"/>
    </g>
    <g id="shape2">
      <path d="M3.55 6.2 Q0.15 -7.2 -3.5 -4.4 2.4 -10.9 3.55 6.2" fill="#ffcfb7" fill-rule="evenodd" stroke="none"/>
    </g>
    <g id="sprite3">
      <use ffdec:characterId="7" height="13.45" transform="matrix(1.1606, 0.0, 0.0, 1.1593, 0.0, 0.05)" width="20.55" xlink:href="#shape3"/>
    </g>
    <g id="shape3">
      <path d="M7.25 -5.3 Q10.25 -3.6 10.3 -0.8 10.25 1.95 7.25 4.15 4.25 6.35 0.0 6.7 -4.25 7.05 -7.25 5.3 -10.25 3.6 -10.25 0.85 -10.25 -1.9 -7.25 -4.15 -4.25 -6.35 0.0 -6.65 4.25 -7.0 7.25 -5.3" fill="#000000" fill-opacity="0.3019608" fill-rule="evenodd" stroke="none"/>
    </g>
    <g id="sprite4">
      <use ffdec:characterId="12" height="81.2" transform="matrix(1.0, 0.0, 0.0, 1.0, 0.0, 0.0)" width="64.4" xlink:href="#morphshape0"/>
      <use ffdec:characterId="11" height="13.4" transform="matrix(-0.8354, 0.4333, 0.4333, 0.8354, -20.45, -46.05)" width="13.4" xlink:href="#sprite5"/>
      <use ffdec:characterId="11" height="13.4" transform="matrix(-0.8354, 0.4333, 0.4333, 0.8354, 31.4, -53.6)" width="13.4" xlink:href="#sprite5"/>
    </g>
    <g id="morphshape0">
      <path d="M-20.45 -46.05 Q1.65 -23.15 7.7 1.3 13.75 25.7 18.15 25.6 22.5 25.5 29.45 1.35 36.35 -22.85 31.4 -53.6" fill="none" stroke="#ff0000" stroke-linecap="round" stroke-linejoin="round" stroke-width="2.0"/>
    </g>
    <g id="sprite5">
      <use ffdec:characterId="10" height="13.4" transform="matrix(1.0, 0.0, 0.0, 1.0, 0.0, 0.0)" width="13.4" xlink:href="#shape4"/>
    </g>
    <g id="shape4">
      <path d="M4.75 -4.75 Q6.7 -2.8 6.7 0.0 6.7 2.8 4.75 4.75 2.8 6.7 0.0 6.7 -2.8 6.7 -4.75 4.75 -6.7 2.8 -6.7 0.0 -6.7 -2.8 -4.75 -4.75 -2.8 -6.7 0.0 -6.7 2.8 -6.7 4.75 -4.75" fill="url(#gradient0)" fill-rule="evenodd" stroke="none"/>
    </g>
    <radialGradient cx="0" cy="0" gradientTransform="matrix(0.0105, 0.0, 0.0, 0.0105, -1.1, -1.5)" gradientUnits="userSpaceOnUse" id="gradient0" r="819.2" spreadMethod="pad">
      <stop offset="0.0" stop-color="#fbf6e7"/>
      <stop offset="0.4588235294117647" stop-color="#ffa737"/>
      <stop offset="1.0" stop-color="#b54200"/>
    </radialGradient>
    <g id="sprite6">
      <use ffdec:characterId="15" height="110.0" transform="matrix(-1.2943, 0.2125, 0.2125, 1.2943, -7.75, 24.9)" width="79.15" xlink:href="#shape5"/>
    </g>
    <g id="shape5">
      <path d="M7.3 -41.8 Q9.95 -34.4 9.35 -28.3 -0.5 -29.9 -15.6 -23.95 L-6.95 -50.9 Q-1.0 -59.45 4.05 -49.65 L7.3 -41.8 M-33.45 41.1 Q-34.85 39.15 -36.65 35.0 -38.95 29.85 -39.0 26.9 4.25 37.5 24.75 30.5 22.0 36.6 16.2 43.0 -1.1 61.9 -33.45 41.1 M-35.25 8.75 L-31.4 1.45 Q-28.85 -3.05 -25.0 -7.15 -11.8 -11.25 -0.3 -12.55 9.05 -10.85 24.85 9.45 8.35 17.8 -35.25 8.75" fill="#ef0000" fill-rule="evenodd" stroke="none"/>
      <path d="M7.3 -41.8 Q10.8 -33.4 13.65 -27.15 11.8 -27.9 9.35 -28.3 9.95 -34.4 7.3 -41.8 M24.4 -11.55 Q31.4 -4.0 33.7 -0.25 L33.55 0.1 Q31.4 6.15 24.85 9.45 9.05 -10.85 -0.3 -12.55 13.15 -14.05 24.4 -11.55 M39.75 18.65 Q41.05 22.95 37.95 31.2 34.85 39.45 25.7 46.75 16.55 54.0 7.9 54.75 -5.65 56.15 -18.6 51.9 -27.95 48.85 -33.45 41.1 -1.1 61.9 16.2 43.0 22.0 36.6 24.75 30.5 27.45 29.6 33.1 25.1 38.65 20.65 39.75 18.65" fill="#970000" fill-rule="evenodd" stroke="none"/>
      <path d="M9.35 -28.3 Q11.8 -27.9 13.65 -27.15 18.15 -19.4 24.4 -11.55 13.15 -14.05 -0.3 -12.55 L-0.35 -12.65 Q8.4 -19.05 9.35 -28.3 M34.0 0.3 Q39.1 12.2 39.75 18.65 38.65 20.65 33.1 25.1 27.45 29.6 24.75 30.5 29.55 19.6 24.85 9.45 31.4 6.15 33.55 0.1 L34.0 0.3" fill="#000066" fill-rule="evenodd" stroke="none"/>
      <path d="M33.7 -0.25 L34.0 0.3 33.55 0.1 33.7 -0.25 M-39.0 26.9 Q-39.15 15.65 -35.25 8.75 8.35 17.8 24.85 9.45 29.55 19.6 24.75 30.5 4.25 37.5 -39.0 26.9 M-25.0 -7.15 Q-19.95 -12.55 -15.6 -23.95 -0.5 -29.9 9.35 -28.3 8.4 -19.05 -0.35 -12.65 L-0.3 -12.55 Q-11.8 -11.25 -25.0 -7.15" fill="#0000db" fill-rule="evenodd" stroke="none"/>
      <path d="M-16.55 -8.35 Q-29.85 7.95 -28.5 24.3 -27.6 35.25 -21.9 41.45 -51.3 21.8 -23.3 -6.6 -11.85 -18.15 -9.9 -28.0 -8.35 -18.35 -16.55 -8.35" fill="#ffffff" fill-opacity="0.4117647" fill-rule="evenodd" stroke="none"/>
    </g>
    <g id="sprite7">
      <use ffdec:characterId="16" height="21.8" transform="matrix(1.0, 0.0, 0.0, 1.0, 0.0, 0.0)" width="21.85" xlink:href="#shape6"/>
    </g>
    <g id="shape6">
      <path d="M6.75 -8.5 Q10.3 -5.7 10.85 -1.25 11.35 3.2 8.55 6.75 5.75 10.3 1.25 10.8 -3.2 11.3 -6.7 8.55 -10.25 5.7 -10.8 1.25 -11.3 -3.2 -8.5 -6.75 -5.7 -10.3 -1.2 -10.8 3.2 -11.35 6.75 -8.5" fill="url(#gradient1)" fill-rule="evenodd" stroke="none"/>
    </g>
    <radialGradient cx="0" cy="0" gradientTransform="matrix(0.0187, 0.0, 0.0, 0.0187, -3.75, -2.45)" gradientUnits="userSpaceOnUse" id="gradient1" r="819.2" spreadMethod="pad">
      <stop offset="0.25098039215686274" stop-color="#ffffff"/>
      <stop offset="0.8549019607843137" stop-color="#8eb5f8"/>
      <stop offset="0.996078431372549" stop-color="#0859d4"/>
    </radialGradient>
    <g id="sprite8">
      <use ffdec:characterId="18" height="5.7" transform="matrix(1.0, 0.0, 0.0, 1.0, 0.0, 0.0)" width="5.8" xlink:href="#shape7"/>
    </g>
    <g id="shape7">
      <path d="M0.0 -2.3 Q-0.45 -2.25 -0.7 -1.9 L-0.9 -1.1 Q-0.85 -0.65 -0.45 -0.35 -0.1 -0.05 0.35 -0.1 0.8 -0.15 1.05 -0.45 1.35 -0.85 1.3 -1.3 L0.85 -2.05 0.0 -2.3 M1.65 -2.2 Q2.65 -1.45 2.85 -0.25 3.0 0.95 2.3 1.85 1.6 2.75 0.45 2.85 -0.75 2.95 -1.7 2.25 -2.7 1.45 -2.85 0.25 -3.05 -0.95 -2.3 -1.85 -1.65 -2.75 -0.45 -2.85 0.7 -2.95 1.65 -2.2" fill="#000000" fill-rule="evenodd" stroke="none"/>
      <path d="M0.0 -2.3 L0.85 -2.05 1.3 -1.3 Q1.35 -0.85 1.05 -0.45 0.8 -0.15 0.35 -0.1 -0.1 -0.05 -0.45 -0.35 -0.85 -0.65 -0.9 -1.1 L-0.7 -1.9 Q-0.45 -2.25 0.0 -2.3" fill="#ffffff" fill-rule="evenodd" stroke="none"/>
    </g>
    <g id="sprite9">
      <use ffdec:characterId="21" height="26.3" transform="matrix(1.0, 0.0, 0.0, 1.0, 0.0, 0.0)" width="55.25" xlink:href="#shape8"/>
    </g>
    <g id="shape8">
      <path d="M8.1 7.15 Q6.5 8.8 3.5 9.15 -1.25 9.85 -3.4 2.0 -4.55 -2.4 -8.55 -2.25 -11.55 -1.8 -12.5 0.8 -11.5 -2.45 -7.7 -2.95 -3.7 -3.05 -2.6 1.3 -0.4 9.15 4.3 8.45 6.6 8.2 8.1 7.15 M-15.35 9.85 Q-16.65 11.2 -18.5 11.3 -27.45 12.05 -26.15 -1.2 -26.0 -3.7 -23.65 -5.45 -25.25 -3.9 -25.35 -1.9 -26.65 11.35 -17.7 10.65 -16.4 10.55 -15.35 9.85" fill="#9f9f9f" fill-rule="evenodd" stroke="none"/>
      <path d="M-24.8 -6.4 Q-20.55 -9.7 -10.0 -10.7 2.0 -11.9 6.8 -9.55 L8.05 -8.8 9.2 -7.85 Q9.95 -7.05 10.55 -5.4 11.8 -1.9 11.7 3.35 L11.75 3.35 11.2 6.15 Q10.45 8.3 8.15 9.8 6.4 10.95 2.45 11.05 -2.05 11.05 -4.15 4.4 -5.35 -0.4 -8.3 -0.1 -11.25 0.2 -11.55 5.15 -12.5 12.1 -16.95 12.75 -29.2 15.7 -27.75 -1.35 -27.6 -3.2 -24.8 -6.4 M21.3 6.45 Q15.75 6.8 15.35 0.55 L16.5 -1.4 16.45 -4.1 Q19.65 0.05 25.6 1.45 L21.3 6.45 M15.05 -6.75 L15.3 -5.8 Q15.8 -3.5 15.7 -1.1 L15.4 -0.65 15.2 -0.4 14.8 0.15 13.85 1.15 Q13.95 -1.9 13.15 -5.0 L14.2 -5.75 14.5 -6.0 14.9 -6.55 15.05 -6.75 M-12.5 0.8 Q-11.55 -1.8 -8.55 -2.25 -4.55 -2.4 -3.4 2.0 -1.25 9.85 3.5 9.15 6.5 8.8 8.1 7.15 11.25 3.85 8.85 -4.65 7.2 -11.05 -8.65 -9.5 L-9.8 -9.4 Q-19.75 -8.4 -23.65 -5.45 -26.0 -3.7 -26.15 -1.2 -27.45 12.05 -18.5 11.3 -16.65 11.2 -15.35 9.85 -13.45 7.8 -12.95 2.9 -12.9 1.7 -12.5 0.8" fill="#333333" fill-rule="evenodd" stroke="none"/>
      <path d="M9.7 -11.7 L6.8 -9.55 Q2.0 -11.9 -10.0 -10.7 -20.55 -9.7 -24.8 -6.4 -22.2 -8.55 -19.05 -9.9 -14.65 -11.9 -6.75 -12.7 4.9 -13.85 9.7 -11.7" fill="#ffb871" fill-rule="evenodd" stroke="none"/>
      <path d="M6.8 -9.55 L9.7 -11.7 11.05 -11.0 8.05 -8.8 6.8 -9.55" fill="#ffa851" fill-rule="evenodd" stroke="none"/>
      <path d="M8.05 -8.8 L11.05 -11.0 12.2 -10.05 9.2 -7.85 8.05 -8.8" fill="#ff9933" fill-rule="evenodd" stroke="none"/>
      <path d="M14.65 1.4 Q14.45 2.95 13.9 4.25 L11.2 6.15 11.75 3.35 12.85 3.35 14.65 1.4" fill="#f27900" fill-rule="evenodd" stroke="none"/>
      <path d="M13.6 -7.95 Q12.3 -6.5 10.55 -5.4 9.95 -7.05 9.2 -7.85 L12.2 -10.05 Q13.1 -9.15 13.6 -7.95" fill="#ff8d1c" fill-rule="evenodd" stroke="none"/>
      <path d="M13.9 4.25 Q12.35 7.95 8.15 9.8 10.45 8.3 11.2 6.15 L13.9 4.25" fill="#df7000" fill-rule="evenodd" stroke="none"/>
      <path d="M16.1 -6.4 Q19.4 -0.7 27.35 1.25 L23.1 6.2 21.3 6.45 25.6 1.45 Q19.65 0.05 16.45 -4.1 L16.1 -6.4" fill="#666666" fill-rule="evenodd" stroke="none"/>
      <path d="M13.6 -7.95 L14.0 -8.5 15.45 -8.75 15.45 -8.7 Q13.3 -6.0 11.95 -5.25 L10.55 -5.4 Q12.3 -6.5 13.6 -7.95" fill="#ffff99" fill-rule="evenodd" stroke="none"/>
      <path d="M10.55 -5.4 L11.95 -5.25 Q13.4 -1.0 12.85 3.35 L11.75 3.35 11.7 3.35 Q11.8 -1.9 10.55 -5.4" fill="#cc9900" fill-rule="evenodd" stroke="none"/>
      <path d="M11.95 -5.25 Q13.3 -6.0 15.45 -8.7 L16.1 -6.4 16.45 -4.1 16.5 -1.4 15.35 0.55 14.65 1.4 12.85 3.35 Q13.4 -1.0 11.95 -5.25 M15.05 -6.75 L14.9 -6.55 14.5 -6.0 14.2 -5.75 13.15 -5.0 Q13.95 -1.9 13.85 1.15 L14.8 0.15 15.2 -0.4 15.4 -0.65 15.7 -1.1 Q15.8 -3.5 15.3 -5.8 L15.05 -6.75" fill="#ffcc00" fill-rule="evenodd" stroke="none"/>
    </g>
    <g id="sprite10">
      <use ffdec:characterId="22" height="31.55" transform="matrix(1.0, 0.0, 0.0, 1.0, 0.0, 0.0)" width="45.95" xlink:href="#shape9"/>
      <use ffdec:characterId="23" height="10.05" transform="matrix(-0.88, 0.0, 0.0, 0.88, 18.4, 7.4)" width="9.95" xlink:href="#shape10"/>
    </g>
    <g id="shape9">
      <path d="M-14.25 8.55 L-15.25 10.85 -16.6 12.95 -17.6 13.85 Q-18.7 14.65 -19.6 14.55 -20.85 14.4 -21.8 12.85 L-23.0 9.15 -23.4 5.35 -23.05 -0.65 Q-22.7 -3.8 -22.05 -5.8 L-20.8 -9.45 -18.45 -13.15 Q-17.2 -14.55 -15.8 -14.4 -15.45 -14.35 -14.4 -13.7 -12.35 -12.45 -12.05 -6.3 -17.65 0.85 -14.25 8.55" fill="#7a1d05" fill-rule="evenodd" stroke="none"/>
      <path d="M-17.3 15.5 L-17.35 15.5 -17.5 15.55 Q-19.55 16.2 -21.3 15.1 L-22.2 14.35 Q-25.15 10.55 -24.75 1.15 -24.3 -3.9 -23.05 -7.25 L-21.25 -11.55 Q-20.5 -13.2 -19.25 -14.15 -15.85 -16.95 -13.6 -14.9 L-12.2 -13.15 -12.15 -13.1 Q-10.75 -10.6 -10.5 -6.8 -10.15 0.45 -11.05 4.35 -11.8 7.35 -12.8 10.0 -13.6 12.15 -14.3 12.95 L-16.25 14.9 -16.45 15.05 -16.5 15.1 -17.3 15.5 M-12.05 -6.3 Q-12.35 -12.45 -14.4 -13.7 -15.45 -14.35 -15.8 -14.4 -17.2 -14.55 -18.45 -13.15 L-20.8 -9.45 -22.05 -5.8 Q-22.7 -3.8 -23.05 -0.65 L-23.4 5.35 -23.0 9.15 -21.8 12.85 Q-20.85 14.4 -19.6 14.55 -18.7 14.65 -17.6 13.85 L-16.6 12.95 -15.25 10.85 -14.25 8.55 Q-13.65 7.2 -12.9 3.0 -11.85 -2.45 -12.05 -6.3" fill="#fe9a03" fill-rule="evenodd" stroke="none"/>
      <path d="M-12.15 -13.1 Q-10.05 -9.6 -6.95 -6.45 L-6.65 -6.1 Q-2.15 -0.35 16.35 4.05 L16.35 4.1 19.6 4.3 21.0 5.85 Q21.3 7.55 21.0 9.05 18.75 9.75 17.05 5.75 3.35 7.25 -11.05 4.3 L-11.05 4.35 Q-10.15 0.45 -10.5 -6.8 -10.75 -10.6 -12.15 -13.1 M8.1 3.25 Q-7.8 -2.7 -9.6 -7.25 -8.85 -4.15 -9.55 1.9 -3.3 -0.35 8.1 3.25" fill="#fcd35a" fill-rule="evenodd" stroke="none"/>
      <path d="M-12.05 -6.3 Q-11.85 -2.45 -12.9 3.0 -13.65 7.2 -14.25 8.55 -17.65 0.85 -12.05 -6.3" fill="#4b1203" fill-rule="evenodd" stroke="none"/>
      <path d="M21.0 9.05 L20.55 10.45 20.15 10.5 Q17.1 10.55 15.55 7.2 -1.0 6.3 -12.8 10.0 -11.8 7.35 -11.05 4.35 L-11.05 4.3 Q3.35 7.25 17.05 5.75 18.75 9.75 21.0 9.05" fill="#fbc115" fill-rule="evenodd" stroke="none"/>
      <path d="M20.55 10.45 L19.75 11.8 19.5 11.8 Q17.05 11.9 16.35 10.35 L15.6 9.25 3.15 9.75 Q-7.25 11.1 -12.9 13.85 L-16.45 15.15 -16.5 15.1 -16.45 15.05 -16.25 14.9 -14.3 12.95 Q-13.6 12.15 -12.8 10.0 -1.0 6.3 15.55 7.2 17.1 10.55 20.15 10.5 L20.55 10.45" fill="#e98c01" fill-rule="evenodd" stroke="none"/>
      <path d="M-16.45 15.15 L-17.3 15.5 -16.5 15.1 -16.45 15.15" fill="#dc8501" fill-rule="evenodd" stroke="none"/>
      <path d="M8.1 3.25 Q-3.3 -0.35 -9.55 1.9 -8.85 -4.15 -9.6 -7.25 -7.8 -2.7 8.1 3.25" fill="#ffffff" fill-rule="evenodd" stroke="none"/>
    </g>
    <g id="shape10">
      <path d="M6.9 -5.0 L6.9 1.9 3.3 2.1 2.15 3.95 Q1.4 5.25 -1.5 5.0 -2.95 3.3 -3.05 0.6 -3.15 -2.3 -1.3 -3.6 L2.4 -3.85 6.9 -5.0" fill="url(#gradient2)" fill-rule="evenodd" stroke="none"/>
    </g>
    <linearGradient gradientTransform="matrix(0.0084, 0.0, 0.0, 0.0061, 0.0, 0.0)" gradientUnits="userSpaceOnUse" id="gradient2" spreadMethod="pad" x1="-819.2" x2="819.2">
      <stop offset="0.0" stop-color="#ef0000"/>
      <stop offset="1.0" stop-color="#ff871b" stop-opacity="0.023529412"/>
    </linearGradient>
    <g id="sprite11">
      <use ffdec:characterId="1" height="149.45" transform="matrix(1.0, 0.0, 0.0, 1.0, 0.0, 0.0)" width="240.7" xlink:href="#shape0"/>
    </g>
    <g id="sprite12">
      <use ffdec:characterId="3" height="140.2" transform="matrix(1.0, 0.0, 0.0, 1.0, 0.0, 0.0)" width="221.4" xlink:href="#shape1"/>
      <use ffdec:characterId="5" height="12.4" transform="matrix(1.0, 0.0, 0.0, 1.0, -88.2, 18.5)" width="7.05" xlink:href="#sprite2"/>
      <use ffdec:characterId="5" height="12.4" transform="matrix(1.0, 0.0, 0.0, 1.0, -86.1, 12.55)" width="7.05" xlink:href="#sprite2"/>
      <use ffdec:characterId="5" height="12.4" transform="matrix(1.0, 0.0, 0.0, 1.0, -83.45, 6.15)" width="7.05" xlink:href="#sprite2"/>
    </g>
    <g id="sprite13">
      <use ffdec:characterId="110" height="26.95" transform="matrix(1.0, 0.0, 0.0, 1.0, 0.0, 0.0)" width="17.45" xlink:href="#shape11"/>
    </g>
    <g id="shape11">
      <path d="M-3.55 1.55 Q-4.5 1.25 -4.8 3.05 -5.1 1.5 -5.9 0.8 -6.7 0.1 -7.1 -0.85 -7.55 -1.85 -7.2 -2.1 L-6.6 -2.1 Q-6.1 -0.2 -3.55 1.55 M4.5 -9.7 Q2.3 -9.45 3.2 -6.4 4.1 -3.35 2.6 -3.3 L2.0 -3.4 Q0.55 -4.05 -1.6 -7.7 -4.25 -12.15 -6.3 -13.4 -5.6 -13.7 -3.45 -11.2 -1.35 -8.75 2.0 -3.6 3.35 -3.4 2.8 -4.75 2.25 -6.1 2.4 -7.9 2.55 -9.7 4.5 -9.7 M-1.75 -1.45 Q-2.3 -1.6 -2.4 -0.2 -5.45 -3.4 -5.7 -5.3 L-4.55 -5.45 Q-3.1 -3.0 -1.75 -1.45" fill="#ff6262" fill-rule="evenodd" stroke="none"/>
      <path d="M-7.2 -2.1 Q-7.55 -1.85 -7.1 -0.85 -6.7 0.1 -5.9 0.8 -5.1 1.5 -4.8 3.05 -4.5 1.25 -3.55 1.55 L-3.55 0.75 Q-5.85 -0.65 -6.55 -3.0 -6.8 -4.85 -5.7 -5.3 -5.45 -3.4 -2.4 -0.2 -2.3 -1.6 -1.75 -1.45 -1.4 -2.2 -0.65 -2.0 -5.8 -7.45 -7.55 -12.15 -7.45 -13.35 -6.3 -13.4 -4.25 -12.15 -1.6 -7.7 0.55 -4.05 2.0 -3.4 L2.6 -3.3 Q4.1 -3.35 3.2 -6.4 2.3 -9.45 4.5 -9.7 5.1 -9.8 6.0 -9.25 5.7 -6.95 6.95 -3.15 8.2 0.6 7.8 2.3 L6.8 5.3 Q6.2 6.65 7.65 8.0 L7.65 12.25 Q-0.5 9.3 -3.45 6.8 -6.45 4.3 -7.6 2.8 -8.8 1.25 -8.55 -0.15 -8.2 -1.5 -7.2 -2.1" fill="#ef0000" fill-rule="evenodd" stroke="none"/>
      <path d="M-8.55 -0.15 Q-8.8 1.25 -7.6 2.8 -6.45 4.3 -3.45 6.8 -0.5 9.3 7.65 12.25 L6.65 13.5 Q-2.85 8.5 -5.6 5.75 -8.35 2.95 -8.6 1.65 -8.85 0.3 -8.55 -0.15 M7.65 8.0 Q6.2 6.65 6.8 5.3 L7.8 2.3 Q8.2 0.6 6.95 -3.15 5.7 -6.95 6.0 -9.25 L7.85 -2.5 Q8.85 1.1 8.75 3.95 8.6 6.75 7.65 8.0 M-7.55 -12.15 Q-5.8 -7.45 -0.65 -2.0 -1.4 -2.2 -1.75 -1.45 -3.1 -3.0 -4.55 -5.45 -7.75 -10.25 -7.55 -12.15 M-6.55 -3.0 Q-5.85 -0.65 -3.55 0.75 L-3.55 1.55 Q-6.1 -0.2 -6.6 -2.1 L-6.55 -2.1 -6.55 -3.0" fill="#970000" fill-rule="evenodd" stroke="none"/>
    </g>
    <g id="sprite14">
      <use ffdec:characterId="44" height="21.45" transform="matrix(1.0, 0.0, 0.0, 1.0, 0.0, 0.0)" width="24.3" xlink:href="#shape12"/>
    </g>
    <g id="shape12">
      <path d="M5.7 -5.4 L7.05 -7.45 12.15 -6.05 6.4 2.25 Q3.55 6.3 -0.25 9.05 -4.05 11.75 -5.55 5.9 -7.05 0.05 -11.7 -8.9 L-10.05 -10.35 Q-8.8 -11.0 -7.2 -10.35 -3.4 -5.5 -1.55 1.3 -3.25 2.6 -3.45 4.3 -3.1 5.15 -1.4 3.5 L3.45 -1.7 Q6.5 -5.3 5.7 -5.4" fill="#ef0000" fill-rule="evenodd" stroke="none"/>
      <path d="M5.7 -5.4 Q6.5 -5.3 3.45 -1.7 L-1.4 3.5 Q-3.1 5.15 -3.45 4.3 L-0.3 1.45 Q-1.1 0.6 -1.55 1.3 -3.4 -5.5 -7.2 -10.35 L-5.8 -9.6 Q-3.1 -5.25 -0.3 1.45 3.05 -1.7 5.7 -5.4 M-0.3 1.45 L-0.3 1.5 -0.3 1.45" fill="#ff6262" fill-rule="evenodd" stroke="none"/>
      <path d="M-3.45 4.3 Q-3.25 2.6 -1.55 1.3 -1.1 0.6 -0.3 1.45 L-3.45 4.3 M-11.7 -8.9 Q-7.05 0.05 -5.55 5.9 -4.05 11.75 -0.25 9.05 3.55 6.3 6.4 2.25 2.55 8.5 -0.5 10.25 -3.6 11.95 -5.15 7.9 L-11.4 -5.6 Q-12.75 -8.5 -11.7 -8.9" fill="#970000" fill-rule="evenodd" stroke="none"/>
      <path d="M-0.3 1.45 L-0.3 1.5 -0.3 1.45" fill="#d70000" fill-rule="evenodd" stroke="none"/>
    </g>
    <g id="sprite15">
      <use ffdec:characterId="71" height="265.0" transform="matrix(1.0, 0.0, 0.0, 1.0, 0.0, 0.0)" width="159.95" xlink:href="#shape13"/>
      <use ffdec:characterId="72" height="362.0" transform="matrix(1.0, 0.0, 0.0, 1.0, -49.6, -85.45)" width="264.3" xlink:href="#sprite16"/>
    </g>
    <g id="shape13">
      <path d="M44.95 -86.8 L80.0 -120.8 80.0 144.2 44.95 125.2 44.95 -86.8" fill="url(#gradient3)" fill-rule="evenodd" stroke="none"/>
      <path d="M80.0 -120.8 L44.95 -86.8 -35.0 -86.8 -79.95 -120.8 80.0 -120.8" fill="url(#gradient4)" fill-rule="evenodd" stroke="none"/>
      <path d="M-79.95 -120.8 L-35.0 -86.8 -35.0 125.2 -79.95 143.2 -79.95 -120.8" fill="url(#gradient5)" fill-rule="evenodd" stroke="none"/>
    </g>
    <linearGradient gradientTransform="matrix(0.0214, 0.0, 0.0, 0.1501, 62.5, 2.2)" gradientUnits="userSpaceOnUse" id="gradient3" spreadMethod="pad" x1="-819.2" x2="819.2">
      <stop offset="0.0" stop-color="#ffffff"/>
      <stop offset="1.0" stop-color="#ffffff" stop-opacity="0.0"/>
    </linearGradient>
    <linearGradient gradientTransform="matrix(0.0, -0.0208, 0.0208, 0.0, 0.05, -103.8)" gradientUnits="userSpaceOnUse" id="gradient4" spreadMethod="pad" x1="-819.2" x2="819.2">
      <stop offset="0.0" stop-color="#ffffff"/>
      <stop offset="1.0" stop-color="#ffffff" stop-opacity="0.0"/>
    </linearGradient>
    <linearGradient gradientTransform="matrix(-0.0274, 0.0, 0.0, -0.1501, -57.5, 2.2)" gradientUnits="userSpaceOnUse" id="gradient5" spreadMethod="pad" x1="-819.2" x2="819.2">
      <stop offset="0.0" stop-color="#ffffff"/>
      <stop offset="1.0" stop-color="#ffffff" stop-opacity="0.0"/>
    </linearGradient>
    <g id="sprite16">
      <use ffdec:characterId="58" height="140.7" transform="matrix(0.4975, 0.0, 0.0, 0.4975, 0.75, -14.8)" width="140.8" xlink:href="#sprite17"/>
    </g>
    <g id="sprite17">
      <use ffdec:characterId="52" height="100.0" transform="matrix(-0.9386, 0.342, -0.342, -0.9386, 0.0, 0.0)" width="100.0" xlink:href="#sprite18"/>
    </g>
    <g id="sprite18">
      <use ffdec:characterId="50" height="100.0" transform="matrix(0.3687, 0.0487, -0.0954, 0.7214, -0.15, -0.15)" width="8.55" xlink:href="#shape14"/>
      <use ffdec:characterId="50" height="100.0" transform="matrix(-0.0228, 0.1786, -0.5485, -0.07, 0.0, 0.05)" width="8.55" xlink:href="#shape15"/>
      <use ffdec:characterId="51" height="48.6" transform="matrix(1.0, 0.0, 0.0, 1.0, 0.1, 0.1)" width="48.6" xlink:href="#shape16"/>
    </g>
    <g id="shape14">
      <path d="M-4.25 -0.25 Q-1.0 -6.5 0.0 -50.0 1.05 -6.5 4.3 -0.25 1.05 6.5 0.0 50.0 -1.0 6.5 -4.25 -0.25" fill="#f2f2f2" fill-rule="evenodd" stroke="none"/>
    </g>
    <g id="shape15">
      <path d="M-4.25 -0.25 Q-1.0 -6.5 0.0 -50.0 1.05 -6.5 4.3 -0.25 1.05 6.5 0.0 50.0 -1.0 6.5 -4.25 -0.25" fill="#ffffff" fill-rule="evenodd" stroke="none"/>
    </g>
    <g id="shape16">
      <path d="M17.2 -17.2 Q24.3 -10.15 24.3 0.0 24.3 10.1 17.2 17.2 10.1 24.25 0.0 24.3 -10.1 24.25 -17.2 17.2 -24.3 10.1 -24.3 0.0 -24.3 -10.15 -17.2 -17.2 -10.1 -24.3 0.0 -24.3 10.1 -24.3 17.2 -17.2" fill="url(#gradient6)" fill-rule="evenodd" stroke="none"/>
    </g>
    <radialGradient cx="0" cy="0" gradientTransform="matrix(0.0312, 0.0, 0.0, 0.0312, 0.35, -0.35)" gradientUnits="userSpaceOnUse" id="gradient6" r="819.2" spreadMethod="pad">
      <stop offset="0.0" stop-color="#ffffff"/>
      <stop offset="1.0" stop-color="#ffffff" stop-opacity="0.0"/>
    </radialGradient>
    <g id="sprite19">
      <use ffdec:characterId="71" height="265.0" transform="matrix(1.0, 0.0, 0.0, 1.0, 0.0, 0.0)" width="159.95" xlink:href="#shape17"/>
      <use ffdec:characterId="72" height="362.0" transform="matrix(1.0, 0.0, 0.0, 1.0, -49.6, -85.45)" width="264.3" xlink:href="#sprite20"/>
    </g>
    <g id="shape17">
      <path d="M44.95 -86.8 L80.0 -120.8 80.0 144.2 44.95 125.2 44.95 -86.8" fill="url(#gradient7)" fill-rule="evenodd" stroke="none"/>
      <path d="M80.0 -120.8 L44.95 -86.8 -35.0 -86.8 -79.95 -120.8 80.0 -120.8" fill="url(#gradient8)" fill-rule="evenodd" stroke="none"/>
      <path d="M-79.95 -120.8 L-35.0 -86.8 -35.0 125.2 -79.95 143.2 -79.95 -120.8" fill="url(#gradient9)" fill-rule="evenodd" stroke="none"/>
    </g>
    <linearGradient gradientTransform="matrix(0.0214, 0.0, 0.0, 0.1501, 62.5, 2.2)" gradientUnits="userSpaceOnUse" id="gradient7" spreadMethod="pad" x1="-819.2" x2="819.2">
      <stop offset="0.0" stop-color="#ffffff"/>
      <stop offset="1.0" stop-color="#ffffff" stop-opacity="0.0"/>
    </linearGradient>
    <linearGradient gradientTransform="matrix(0.0, -0.0208, 0.0208, 0.0, 0.05, -103.8)" gradientUnits="userSpaceOnUse" id="gradient8" spreadMethod="pad" x1="-819.2" x2="819.2">
      <stop offset="0.0" stop-color="#ffffff"/>
      <stop offset="1.0" stop-color="#ffffff" stop-opacity="0.0"/>
    </linearGradient>
    <linearGradient gradientTransform="matrix(-0.0274, 0.0, 0.0, -0.1501, -57.5, 2.2)" gradientUnits="userSpaceOnUse" id="gradient9" spreadMethod="pad" x1="-819.2" x2="819.2">
      <stop offset="0.0" stop-color="#ffffff"/>
      <stop offset="1.0" stop-color="#ffffff" stop-opacity="0.0"/>
    </linearGradient>
    <g id="sprite20">
      <use ffdec:characterId="58" height="140.7" transform="matrix(0.8814, 0.0, 0.0, 0.8814, 45.2, 201.3)" width="140.8" xlink:href="#sprite21"/>
    </g>
    <g id="sprite21">
      <use ffdec:characterId="52" height="100.0" transform="matrix(0.1704, 0.9848, -0.9848, 0.1704, 0.0, 0.0)" width="100.0" xlink:href="#sprite22"/>
    </g>
    <g id="sprite22">
      <use ffdec:characterId="50" height="100.0" transform="matrix(0.3687, 0.0487, -0.0954, 0.7214, -0.15, -0.15)" width="8.55" xlink:href="#shape18"/>
      <use ffdec:characterId="50" height="100.0" transform="matrix(-0.0228, 0.1786, -0.5485, -0.07, 0.0, 0.05)" width="8.55" xlink:href="#shape19"/>
      <use ffdec:characterId="51" height="48.6" transform="matrix(1.0, 0.0, 0.0, 1.0, 0.1, 0.1)" width="48.6" xlink:href="#shape20"/>
    </g>
    <g id="shape18">
      <path d="M-4.25 -0.25 Q-1.0 -6.5 0.0 -50.0 1.05 -6.5 4.3 -0.25 1.05 6.5 0.0 50.0 -1.0 6.5 -4.25 -0.25" fill="#f2f2f2" fill-rule="evenodd" stroke="none"/>
    </g>
    <g id="shape19">
      <path d="M-4.25 -0.25 Q-1.0 -6.5 0.0 -50.0 1.05 -6.5 4.3 -0.25 1.05 6.5 0.0 50.0 -1.0 6.5 -4.25 -0.25" fill="#ffffff" fill-rule="evenodd" stroke="none"/>
    </g>
    <g id="shape20">
      <path d="M17.2 -17.2 Q24.3 -10.15 24.3 0.0 24.3 10.1 17.2 17.2 10.1 24.25 0.0 24.3 -10.1 24.25 -17.2 17.2 -24.3 10.1 -24.3 0.0 -24.3 -10.15 -17.2 -17.2 -10.1 -24.3 0.0 -24.3 10.1 -24.3 17.2 -17.2" fill="url(#gradient10)" fill-rule="evenodd" stroke="none"/>
    </g>
    <radialGradient cx="0" cy="0" gradientTransform="matrix(0.0312, 0.0, 0.0, 0.0312, 0.35, -0.35)" gradientUnits="userSpaceOnUse" id="gradient10" r="819.2" spreadMethod="pad">
      <stop offset="0.0" stop-color="#ffffff"/>
      <stop offset="1.0" stop-color="#ffffff" stop-opacity="0.0"/>
    </radialGradient>
    <g id="sprite23">
      <use ffdec:characterId="29" height="59.55" transform="matrix(1.0, 0.0, 0.0, 1.0, 0.0, 0.0)" width="91.0" xlink:href="#shape21"/>
      <use ffdec:characterId="30" height="8.5" transform="matrix(1.1329, 0.0, 0.0, 0.7952, 0.2, 1.7)" width="76.7" xlink:href="#shape22"/>
      <use ffdec:characterId="30" height="8.5" transform="matrix(-1.1199, 0.0, 0.0, -0.7952, 0.55, -11.95)" width="76.7" xlink:href="#shape22"/>
      <use ffdec:characterId="30" height="8.5" transform="matrix(-1.1199, 0.0, 0.0, -0.7952, 1.6, 6.1)" width="76.7" xlink:href="#shape22"/>
      <use ffdec:characterId="30" height="8.5" transform="matrix(1.1199, 0.0, 0.0, 0.7952, 0.9, 28.85)" width="76.7" xlink:href="#shape22"/>
      <use ffdec:characterId="30" height="8.5" transform="matrix(-1.1484, 0.0, 0.0, -0.7952, 1.0, -36.2)" width="76.7" xlink:href="#shape22"/>
      <use ffdec:characterId="30" height="8.5" transform="matrix(1.1484, 0.0, 0.0, 0.7952, 0.3, -14.65)" width="76.7" xlink:href="#shape22"/>
    </g>
    <g id="shape21">
      <path d="M-43.2 -33.85 L-43.25 -7.95 -16.45 -6.05 -43.55 -5.8 Q-39.95 1.5 -42.7 7.75 L-32.8 9.55 Q-35.8 10.65 -43.0 9.55 -41.3 16.25 -44.0 23.0 L-45.5 22.75 Q-44.2 16.55 -44.0 9.55 -43.65 2.85 -44.3 -7.5 -44.85 -15.6 -44.7 -33.85 L-43.2 -33.85" fill="#d28a10" fill-rule="evenodd" stroke="none"/>
      <path d="M-44.0 23.0 Q-41.3 16.25 -43.0 9.55 -35.8 10.65 -32.8 9.55 L-42.7 7.75 Q-39.95 1.5 -43.55 -5.8 L-16.45 -6.05 -43.25 -7.95 -43.2 -33.85 Q13.7 -39.6 45.5 -33.05 43.5 -5.65 43.6 5.2 38.7 7.5 32.15 8.0 L43.65 8.0 Q42.95 16.55 44.95 23.0 L-44.0 23.0" fill="#edab3c" fill-rule="evenodd" stroke="none"/>
    </g>
    <g id="shape22">
      <path d="M5.85 -14.1 Q-19.5 -19.25 -38.35 -18.6 L-38.35 -20.3 Q7.75 -19.75 38.35 -15.15 L38.35 -11.85 Q24.6 -11.4 5.85 -14.1" fill="#d28a10" fill-opacity="0.4392157" fill-rule="evenodd" stroke="none"/>
    </g>
    <g id="sprite24">
      <use ffdec:characterId="112" height="112.4" transform="matrix(1.0, 0.0, 0.0, 1.0, 0.0, 0.0)" width="124.45" xlink:href="#shape23"/>
    </g>
    <g id="shape23">
      <path d="M-29.5 -35.95 L9.25 -64.95 Q-9.2 -7.45 7.8 43.3 L-29.5 10.0 -29.5 -35.95" fill="url(#gradient11)" fill-rule="evenodd" stroke="none"/>
      <path d="M-115.0 -68.6 L-115.2 -69.1 9.25 -64.95 -29.5 -35.95 -86.6 -37.35 Q-112.65 -62.9 -115.0 -68.6" fill="url(#gradient12)" fill-rule="evenodd" stroke="none"/>
      <path d="M7.8 43.3 L-115.2 33.8 -86.6 7.85 -29.5 10.0 7.8 43.3" fill="url(#gradient13)" fill-rule="evenodd" stroke="none"/>
      <path d="M-115.0 -68.6 Q-112.65 -62.9 -86.6 -37.35 -83.9 -16.0 -86.6 7.85 L-115.2 33.8 Q-97.1 -15.05 -115.0 -68.6" fill="url(#gradient14)" fill-rule="evenodd" stroke="none"/>
    </g>
    <linearGradient gradientTransform="matrix(0.0141, -4.0E-4, 0.0, 0.1046, -10.75, -21.1)" gradientUnits="userSpaceOnUse" id="gradient11" spreadMethod="pad" x1="-819.2" x2="819.2">
      <stop offset="0.0" stop-color="#ffffff"/>
      <stop offset="1.0" stop-color="#ffffff" stop-opacity="0.0"/>
    </linearGradient>
    <linearGradient gradientTransform="matrix(4.0E-4, -0.019, 0.0119, 5.0E-4, -52.75, -50.4)" gradientUnits="userSpaceOnUse" id="gradient12" spreadMethod="pad" x1="-819.2" x2="819.2">
      <stop offset="0.0" stop-color="#ffffff"/>
      <stop offset="1.0" stop-color="#ffffff" stop-opacity="0.0"/>
    </linearGradient>
    <linearGradient gradientTransform="matrix(-5.0E-4, 0.0213, -0.0741, -0.0036, -60.8, 20.95)" gradientUnits="userSpaceOnUse" id="gradient13" spreadMethod="pad" x1="-819.2" x2="819.2">
      <stop offset="0.0" stop-color="#ffffff"/>
      <stop offset="1.0" stop-color="#ffffff" stop-opacity="0.0"/>
    </linearGradient>
    <linearGradient gradientTransform="matrix(-0.0144, 0.0015, 5.0E-4, -0.0224, -99.2, 9.15)" gradientUnits="userSpaceOnUse" id="gradient14" spreadMethod="pad" x1="-819.2" x2="819.2">
      <stop offset="0.0" stop-color="#ffffff"/>
      <stop offset="1.0" stop-color="#ffffff" stop-opacity="0.0"/>
    </linearGradient>
    <g id="sprite25">
      <use ffdec:characterId="112" height="112.4" transform="matrix(1.0, 0.0, 0.0, 1.0, 0.0, 0.0)" width="124.45" xlink:href="#shape24"/>
    </g>
    <g id="shape24">
      <path d="M-29.5 -35.95 L9.25 -64.95 Q-9.2 -7.45 7.8 43.3 L-29.5 10.0 -29.5 -35.95" fill="url(#gradient15)" fill-rule="evenodd" stroke="none"/>
      <path d="M-115.0 -68.6 L-115.2 -69.1 9.25 -64.95 -29.5 -35.95 -86.6 -37.35 Q-112.65 -62.9 -115.0 -68.6" fill="url(#gradient16)" fill-rule="evenodd" stroke="none"/>
      <path d="M7.8 43.3 L-115.2 33.8 -86.6 7.85 -29.5 10.0 7.8 43.3" fill="url(#gradient17)" fill-rule="evenodd" stroke="none"/>
      <path d="M-115.0 -68.6 Q-112.65 -62.9 -86.6 -37.35 -83.9 -16.0 -86.6 7.85 L-115.2 33.8 Q-97.1 -15.05 -115.0 -68.6" fill="url(#gradient18)" fill-rule="evenodd" stroke="none"/>
    </g>
    <linearGradient gradientTransform="matrix(0.0141, -4.0E-4, 0.0, 0.1046, -10.75, -21.1)" gradientUnits="userSpaceOnUse" id="gradient15" spreadMethod="pad" x1="-819.2" x2="819.2">
      <stop offset="0.0" stop-color="#ffffff"/>
      <stop offset="1.0" stop-color="#ffffff" stop-opacity="0.0"/>
    </linearGradient>
    <linearGradient gradientTransform="matrix(4.0E-4, -0.019, 0.0119, 5.0E-4, -52.75, -50.4)" gradientUnits="userSpaceOnUse" id="gradient16" spreadMethod="pad" x1="-819.2" x2="819.2">
      <stop offset="0.0" stop-color="#ffffff"/>
      <stop offset="1.0" stop-color="#ffffff" stop-opacity="0.0"/>
    </linearGradient>
    <linearGradient gradientTransform="matrix(-5.0E-4, 0.0213, -0.0741, -0.0036, -60.8, 20.95)" gradientUnits="userSpaceOnUse" id="gradient17" spreadMethod="pad" x1="-819.2" x2="819.2">
      <stop offset="0.0" stop-color="#ffffff"/>
      <stop offset="1.0" stop-color="#ffffff" stop-opacity="0.0"/>
    </linearGradient>
    <linearGradient gradientTransform="matrix(-0.0144, 0.0015, 5.0E-4, -0.0224, -99.2, 9.15)" gradientUnits="userSpaceOnUse" id="gradient18" spreadMethod="pad" x1="-819.2" x2="819.2">
      <stop offset="0.0" stop-color="#ffffff"/>
      <stop offset="1.0" stop-color="#ffffff" stop-opacity="0.0"/>
    </linearGradient>
    <g id="sprite26">
      <use ffdec:characterId="114" height="46.55" transform="matrix(1.0, 0.0, 0.0, 1.0, 0.0, 0.0)" width="59.15" xlink:href="#shape25"/>
    </g>
    <g id="shape25">
      <path d="M24.35 -18.45 L24.75 17.5 -24.1 17.4 -23.55 -18.75 24.35 -18.45" fill="#d28a10" fill-rule="evenodd" stroke="none"/>
      <path d="M29.45 -22.65 L24.35 -18.45 -23.55 -18.75 -24.1 17.4 -29.7 23.1 Q-26.95 1.45 -29.55 -22.35 L-29.6 -22.55 -29.65 -23.05 29.45 -22.65" fill="#774b0b" fill-rule="evenodd" stroke="none"/>
      <path d="M24.35 -18.45 L29.45 -22.65 Q27.45 0.55 29.35 23.5 1.1 21.85 -29.7 23.1 L-24.1 17.4 24.75 17.5 24.35 -18.45" fill="#f7be66" fill-rule="evenodd" stroke="none"/>
    </g>
    <g id="sprite27">
      <use ffdec:characterId="114" height="46.55" transform="matrix(1.0, 0.0, 0.0, 1.0, 0.0, 0.0)" width="59.15" xlink:href="#shape26"/>
    </g>
    <g id="shape26">
      <path d="M24.35 -18.45 L24.75 17.5 -24.1 17.4 -23.55 -18.75 24.35 -18.45" fill="#d28a10" fill-rule="evenodd" stroke="none"/>
      <path d="M29.45 -22.65 L24.35 -18.45 -23.55 -18.75 -24.1 17.4 -29.7 23.1 Q-26.95 1.45 -29.55 -22.35 L-29.6 -22.55 -29.65 -23.05 29.45 -22.65" fill="#774b0b" fill-rule="evenodd" stroke="none"/>
      <path d="M24.35 -18.45 L29.45 -22.65 Q27.45 0.55 29.35 23.5 1.1 21.85 -29.7 23.1 L-24.1 17.4 24.75 17.5 24.35 -18.45" fill="#f7be66" fill-rule="evenodd" stroke="none"/>
    </g>
    <g id="sprite28">
      <use ffdec:characterId="48" height="14.15" transform="matrix(-1.4654, 0.0, 0.0, 1.4654, -3.55, -130.35)" width="14.15" xlink:href="#shape27"/>
      <use ffdec:characterId="48" height="14.15" transform="matrix(-1.4654, 0.0, 0.0, 1.4654, 60.65, -129.35)" width="14.15" xlink:href="#shape27"/>
      <use ffdec:characterId="48" height="14.15" transform="matrix(-1.4654, 0.0, 0.0, 1.4654, 21.9, -158.4)" width="14.15" xlink:href="#shape27"/>
      <use ffdec:characterId="48" height="14.15" transform="matrix(-1.4654, 0.0, 0.0, 1.4654, -11.5, -130.35)" width="14.15" xlink:href="#shape27"/>
    </g>
    <g id="shape27">
      <path d="M-4.7 -2.85 Q-3.05 -5.5 0.1 -5.3 -4.45 -2.9 -4.8 2.75 -6.35 -0.3 -4.7 -2.85" fill="#dbe8fb" fill-rule="evenodd" stroke="none"/>
      <path d="M4.45 -4.55 Q6.35 -2.65 6.35 0.05 6.35 2.8 4.45 4.7 2.5 6.6 -0.2 6.65 -1.75 6.65 -3.0 6.05 L-4.85 4.7 Q-6.8 2.8 -6.8 0.05 -6.8 -2.65 -4.85 -4.55 -2.95 -6.5 -0.2 -6.5 L2.2 -6.05 Q3.4 -5.6 4.45 -4.55 Z" fill="none" stroke="#dbe8fb" stroke-linecap="round" stroke-linejoin="round" stroke-width="1.0"/>
    </g>
    <g id="shape28">
      <path d="M492.7 166.05 L492.7 165.85 492.7 166.05" fill="#fffbf0" fill-rule="evenodd" stroke="none"/>
    </g>
    <g id="sprite29">
      <use ffdec:characterId="74" height="83.0" transform="matrix(0.9, 0.0, 0.0, 0.9, 0.0, 4.8)" width="83.0" xlink:href="#shape29"/>
    </g>
    <g id="shape29">
      <path d="M0.0 -41.5 Q-17.2 -41.5 -29.35 -29.35 -41.5 -17.2 -41.5 0.0 -41.5 17.2 -29.35 29.35 -17.2 41.5 0.0 41.5 17.2 41.5 29.35 29.35 41.5 17.2 41.5 0.0 41.5 -17.2 29.35 -29.35 17.2 -41.5 0.0 -41.5 Z" ffdec:has-small-stroke="true" ffdec:original-stroke-width="0.05" fill="none" stroke="#c6f3ff" stroke-linecap="round" stroke-linejoin="round" stroke-width="1.1111186463666882"/>
      <path d="M24.05 -24.55 Q34.95 -13.65 34.95 1.85 34.95 17.35 24.05 28.3 L23.3 28.95 Q29.55 19.85 29.55 8.15 29.55 -7.35 18.65 -18.25 7.7 -29.2 -7.8 -29.2 -22.75 -29.2 -33.5 -18.95 -31.5 -21.9 -28.8 -24.55 -17.9 -35.5 -2.4 -35.5 13.1 -35.5 24.05 -24.55" fill="#cef5ff" fill-rule="evenodd" stroke="none"/>
    </g>
    <g id="sprite30">
      <use ffdec:characterId="74" height="83.0" transform="matrix(0.9, 0.0, 0.0, 0.9, 0.0, 4.8)" width="83.0" xlink:href="#shape30"/>
    </g>
    <g id="shape30">
      <path d="M0.0 -41.5 Q-17.2 -41.5 -29.35 -29.35 -41.5 -17.2 -41.5 0.0 -41.5 17.2 -29.35 29.35 -17.2 41.5 0.0 41.5 17.2 41.5 29.35 29.35 41.5 17.2 41.5 0.0 41.5 -17.2 29.35 -29.35 17.2 -41.5 0.0 -41.5 Z" ffdec:has-small-stroke="true" ffdec:original-stroke-width="0.05" fill="none" stroke="#c6f3ff" stroke-linecap="round" stroke-linejoin="round" stroke-width="1.1111186463666882"/>
      <path d="M24.05 -24.55 Q34.95 -13.65 34.95 1.85 34.95 17.35 24.05 28.3 L23.3 28.95 Q29.55 19.85 29.55 8.15 29.55 -7.35 18.65 -18.25 7.7 -29.2 -7.8 -29.2 -22.75 -29.2 -33.5 -18.95 -31.5 -21.9 -28.8 -24.55 -17.9 -35.5 -2.4 -35.5 13.1 -35.5 24.05 -24.55" fill="#cef5ff" fill-rule="evenodd" stroke="none"/>
    </g>
    <g id="sprite31">
      <use ffdec:characterId="74" height="83.0" transform="matrix(0.9, 0.0, 0.0, 0.9, 0.0, 4.8)" width="83.0" xlink:href="#shape31"/>
    </g>
    <g id="shape31">
      <path d="M0.0 -41.5 Q-17.2 -41.5 -29.35 -29.35 -41.5 -17.2 -41.5 0.0 -41.5 17.2 -29.35 29.35 -17.2 41.5 0.0 41.5 17.2 41.5 29.35 29.35 41.5 17.2 41.5 0.0 41.5 -17.2 29.35 -29.35 17.2 -41.5 0.0 -41.5 Z" ffdec:has-small-stroke="true" ffdec:original-stroke-width="0.05" fill="none" stroke="#c6f3ff" stroke-linecap="round" stroke-linejoin="round" stroke-width="1.1111186463666882"/>
      <path d="M24.05 -24.55 Q34.95 -13.65 34.95 1.85 34.95 17.35 24.05 28.3 L23.3 28.95 Q29.55 19.85 29.55 8.15 29.55 -7.35 18.65 -18.25 7.7 -29.2 -7.8 -29.2 -22.75 -29.2 -33.5 -18.95 -31.5 -21.9 -28.8 -24.55 -17.9 -35.5 -2.4 -35.5 13.1 -35.5 24.05 -24.55" fill="#cef5ff" fill-rule="evenodd" stroke="none"/>
    </g>
    <g id="sprite32">
      <use ffdec:characterId="74" height="83.0" transform="matrix(0.9, 0.0, 0.0, 0.9, 0.0, 4.8)" width="83.0" xlink:href="#shape32"/>
    </g>
    <g id="shape32">
      <path d="M0.0 -41.5 Q-17.2 -41.5 -29.35 -29.35 -41.5 -17.2 -41.5 0.0 -41.5 17.2 -29.35 29.35 -17.2 41.5 0.0 41.5 17.2 41.5 29.35 29.35 41.5 17.2 41.5 0.0 41.5 -17.2 29.35 -29.35 17.2 -41.5 0.0 -41.5 Z" ffdec:has-small-stroke="true" ffdec:original-stroke-width="0.05" fill="none" stroke="#c6f3ff" stroke-linecap="round" stroke-linejoin="round" stroke-width="1.1111186463666882"/>
      <path d="M24.05 -24.55 Q34.95 -13.65 34.95 1.85 34.95 17.35 24.05 28.3 L23.3 28.95 Q29.55 19.85 29.55 8.15 29.55 -7.35 18.65 -18.25 7.7 -29.2 -7.8 -29.2 -22.75 -29.2 -33.5 -18.95 -31.5 -21.9 -28.8 -24.55 -17.9 -35.5 -2.4 -35.5 13.1 -35.5 24.05 -24.55" fill="#cef5ff" fill-rule="evenodd" stroke="none"/>
    </g>
    <g id="sprite33">
      <use ffdec:characterId="74" height="83.0" transform="matrix(0.9, 0.0, 0.0, 0.9, 0.0, 4.8)" width="83.0" xlink:href="#shape33"/>
    </g>
    <g id="shape33">
      <path d="M0.0 -41.5 Q-17.2 -41.5 -29.35 -29.35 -41.5 -17.2 -41.5 0.0 -41.5 17.2 -29.35 29.35 -17.2 41.5 0.0 41.5 17.2 41.5 29.35 29.35 41.5 17.2 41.5 0.0 41.5 -17.2 29.35 -29.35 17.2 -41.5 0.0 -41.5 Z" ffdec:has-small-stroke="true" ffdec:original-stroke-width="0.05" fill="none" stroke="#c6f3ff" stroke-linecap="round" stroke-linejoin="round" stroke-width="1.1111186463666882"/>
      <path d="M24.05 -24.55 Q34.95 -13.65 34.95 1.85 34.95 17.35 24.05 28.3 L23.3 28.95 Q29.55 19.85 29.55 8.15 29.55 -7.35 18.65 -18.25 7.7 -29.2 -7.8 -29.2 -22.75 -29.2 -33.5 -18.95 -31.5 -21.9 -28.8 -24.55 -17.9 -35.5 -2.4 -35.5 13.1 -35.5 24.05 -24.55" fill="#cef5ff" fill-rule="evenodd" stroke="none"/>
    </g>
    <g id="sprite34">
      <use ffdec:characterId="74" height="83.0" transform="matrix(0.9, 0.0, 0.0, 0.9, 0.0, 4.8)" width="83.0" xlink:href="#shape34"/>
    </g>
    <g id="shape34">
      <path d="M0.0 -41.5 Q-17.2 -41.5 -29.35 -29.35 -41.5 -17.2 -41.5 0.0 -41.5 17.2 -29.35 29.35 -17.2 41.5 0.0 41.5 17.2 41.5 29.35 29.35 41.5 17.2 41.5 0.0 41.5 -17.2 29.35 -29.35 17.2 -41.5 0.0 -41.5 Z" ffdec:has-small-stroke="true" ffdec:original-stroke-width="0.05" fill="none" stroke="#c6f3ff" stroke-linecap="round" stroke-linejoin="round" stroke-width="1.1111186463666882"/>
      <path d="M24.05 -24.55 Q34.95 -13.65 34.95 1.85 34.95 17.35 24.05 28.3 L23.3 28.95 Q29.55 19.85 29.55 8.15 29.55 -7.35 18.65 -18.25 7.7 -29.2 -7.8 -29.2 -22.75 -29.2 -33.5 -18.95 -31.5 -21.9 -28.8 -24.55 -17.9 -35.5 -2.4 -35.5 13.1 -35.5 24.05 -24.55" fill="#cef5ff" fill-rule="evenodd" stroke="none"/>
    </g>
    <g id="sprite35">
      <use ffdec:characterId="74" height="83.0" transform="matrix(0.9, 0.0, 0.0, 0.9, 0.0, 4.8)" width="83.0" xlink:href="#shape35"/>
    </g>
    <g id="shape35">
      <path d="M0.0 -41.5 Q-17.2 -41.5 -29.35 -29.35 -41.5 -17.2 -41.5 0.0 -41.5 17.2 -29.35 29.35 -17.2 41.5 0.0 41.5 17.2 41.5 29.35 29.35 41.5 17.2 41.5 0.0 41.5 -17.2 29.35 -29.35 17.2 -41.5 0.0 -41.5 Z" ffdec:has-small-stroke="true" ffdec:original-stroke-width="0.05" fill="none" stroke="#c6f3ff" stroke-linecap="round" stroke-linejoin="round" stroke-width="1.1111186463666882"/>
      <path d="M24.05 -24.55 Q34.95 -13.65 34.95 1.85 34.95 17.35 24.05 28.3 L23.3 28.95 Q29.55 19.85 29.55 8.15 29.55 -7.35 18.65 -18.25 7.7 -29.2 -7.8 -29.2 -22.75 -29.2 -33.5 -18.95 -31.5 -21.9 -28.8 -24.55 -17.9 -35.5 -2.4 -35.5 13.1 -35.5 24.05 -24.55" fill="#cef5ff" fill-rule="evenodd" stroke="none"/>
    </g>
    <g id="sprite36">
      <use ffdec:characterId="74" height="83.0" transform="matrix(0.9, 0.0, 0.0, 0.9, 0.0, 4.8)" width="83.0" xlink:href="#shape36"/>
    </g>
    <g id="shape36">
      <path d="M0.0 -41.5 Q-17.2 -41.5 -29.35 -29.35 -41.5 -17.2 -41.5 0.0 -41.5 17.2 -29.35 29.35 -17.2 41.5 0.0 41.5 17.2 41.5 29.35 29.35 41.5 17.2 41.5 0.0 41.5 -17.2 29.35 -29.35 17.2 -41.5 0.0 -41.5 Z" ffdec:has-small-stroke="true" ffdec:original-stroke-width="0.05" fill="none" stroke="#c6f3ff" stroke-linecap="round" stroke-linejoin="round" stroke-width="1.1111186463666882"/>
      <path d="M24.05 -24.55 Q34.95 -13.65 34.95 1.85 34.95 17.35 24.05 28.3 L23.3 28.95 Q29.55 19.85 29.55 8.15 29.55 -7.35 18.65 -18.25 7.7 -29.2 -7.8 -29.2 -22.75 -29.2 -33.5 -18.95 -31.5 -21.9 -28.8 -24.55 -17.9 -35.5 -2.4 -35.5 13.1 -35.5 24.05 -24.55" fill="#cef5ff" fill-rule="evenodd" stroke="none"/>
    </g>
    <g id="sprite37">
      <use ffdec:characterId="74" height="83.0" transform="matrix(0.9, 0.0, 0.0, 0.9, 0.0, 4.8)" width="83.0" xlink:href="#shape37"/>
    </g>
    <g id="shape37">
      <path d="M0.0 -41.5 Q-17.2 -41.5 -29.35 -29.35 -41.5 -17.2 -41.5 0.0 -41.5 17.2 -29.35 29.35 -17.2 41.5 0.0 41.5 17.2 41.5 29.35 29.35 41.5 17.2 41.5 0.0 41.5 -17.2 29.35 -29.35 17.2 -41.5 0.0 -41.5 Z" ffdec:has-small-stroke="true" ffdec:original-stroke-width="0.05" fill="none" stroke="#c6f3ff" stroke-linecap="round" stroke-linejoin="round" stroke-width="1.1111186463666882"/>
      <path d="M24.05 -24.55 Q34.95 -13.65 34.95 1.85 34.95 17.35 24.05 28.3 L23.3 28.95 Q29.55 19.85 29.55 8.15 29.55 -7.35 18.65 -18.25 7.7 -29.2 -7.8 -29.2 -22.75 -29.2 -33.5 -18.95 -31.5 -21.9 -28.8 -24.55 -17.9 -35.5 -2.4 -35.5 13.1 -35.5 24.05 -24.55" fill="#cef5ff" fill-rule="evenodd" stroke="none"/>
    </g>
    <g id="sprite38">
      <use ffdec:characterId="74" height="83.0" transform="matrix(0.9, 0.0, 0.0, 0.9, 0.0, 4.8)" width="83.0" xlink:href="#shape38"/>
    </g>
    <g id="shape38">
      <path d="M0.0 -41.5 Q-17.2 -41.5 -29.35 -29.35 -41.5 -17.2 -41.5 0.0 -41.5 17.2 -29.35 29.35 -17.2 41.5 0.0 41.5 17.2 41.5 29.35 29.35 41.5 17.2 41.5 0.0 41.5 -17.2 29.35 -29.35 17.2 -41.5 0.0 -41.5 Z" ffdec:has-small-stroke="true" ffdec:original-stroke-width="0.05" fill="none" stroke="#c6f3ff" stroke-linecap="round" stroke-linejoin="round" stroke-width="1.1111186463666882"/>
      <path d="M24.05 -24.55 Q34.95 -13.65 34.95 1.85 34.95 17.35 24.05 28.3 L23.3 28.95 Q29.55 19.85 29.55 8.15 29.55 -7.35 18.65 -18.25 7.7 -29.2 -7.8 -29.2 -22.75 -29.2 -33.5 -18.95 -31.5 -21.9 -28.8 -24.55 -17.9 -35.5 -2.4 -35.5 13.1 -35.5 24.05 -24.55" fill="#cef5ff" fill-rule="evenodd" stroke="none"/>
    </g>
    <g id="sprite39">
      <use ffdec:characterId="32" height="222.05" transform="matrix(1.0, 0.0, 0.0, 1.0, 0.0, 0.0)" width="102.35" xlink:href="#shape39"/>
    </g>
    <g id="shape39">
      <path d="M-52.45 -111.15 Q-28.3 -106.8 48.15 -110.2 40.5 -2.1 46.55 110.9 -3.95 106.25 -54.2 110.15 -46.3 6.7 -52.45 -111.15" fill="#0000ab" fill-rule="evenodd" stroke="none"/>
    </g>
    <g id="shape40">
      <path d="M-2.65 -107.9 L-2.1 -107.9 Q1.25 -107.85 1.7 -105.3 9.55 8.8 3.4 104.05 2.95 107.0 -1.6 107.95 8.15 89.2 -2.65 -107.9" fill="#f7be66" fill-rule="evenodd" stroke="none"/>
      <path d="M-1.6 107.95 Q-6.5 107.4 -6.0 104.15 1.85 8.8 -6.0 -105.3 -5.5 -107.8 -2.65 -107.9 8.15 89.2 -1.6 107.95" fill="#d28a10" fill-rule="evenodd" stroke="none"/>
    </g>
    <g id="shape41">
      <path d="M2.7 -107.9 Q5.55 -107.8 6.05 -105.3 -1.8 8.8 6.05 104.15 6.55 107.4 1.65 107.95 -8.1 89.2 2.7 -107.9" fill="#f7be66" fill-rule="evenodd" stroke="none"/>
      <path d="M1.65 107.95 Q-2.9 107.0 -3.35 104.05 -9.5 8.8 -1.65 -105.3 -1.2 -107.85 2.15 -107.9 L2.7 -107.9 Q-8.1 89.2 1.65 107.95" fill="#d28a10" fill-rule="evenodd" stroke="none"/>
    </g>
    <g id="shape42">
      <path d="M0.2 -4.15 L2.45 -4.15 Q3.8 0.05 2.55 4.0 L-0.35 4.1 Q0.8 2.1 0.2 -4.15" fill="#000000" fill-opacity="0.3019608" fill-rule="evenodd" stroke="none"/>
    </g>
    <g id="shape43">
      <path d="M-4.5 -7.25 Q-0.3 -2.9 5.3 5.1 5.35 6.8 3.85 6.3 -1.05 -1.1 -5.95 -5.8 -6.65 -7.95 -4.5 -7.25" fill="#391000" fill-rule="evenodd" stroke="none"/>
    </g>
    <g id="shape44">
      <path d="M492.7 166.05 L492.7 165.85 492.7 166.05" fill="#fffbf0" fill-rule="evenodd" stroke="none"/>
    </g>
    <g id="sprite40">
      <use ffdec:characterId="75" height="46.55" transform="matrix(1.0, 0.0, 0.0, 1.0, 0.0, 4.65)" width="59.25" xlink:href="#shape45"/>
      <use ffdec:characterId="93" height="105.95" transform="matrix(0.329, 0.0, 0.0, 0.329, 0.0, 4.65)" width="71.05" xlink:href="#shape46"/>
    </g>
    <g id="shape45">
      <path d="M29.65 -22.7 Q27.45 1.0 29.45 23.3 L29.05 23.3 28.75 23.3 Q0.9 21.9 -29.6 23.05 L-29.6 22.85 -24.05 17.35 24.8 17.35 24.8 -19.0 25.1 -19.0 29.65 -22.7" fill="#85550c" fill-rule="evenodd" stroke="none"/>
      <path d="M24.8 -19.0 L24.8 17.35 -24.05 17.35 -24.0 17.35 -24.15 -19.0 24.8 -19.0" fill="#fffbf0" fill-rule="evenodd" stroke="none"/>
      <path d="M29.65 -22.7 L25.1 -19.0 24.8 -19.0 -24.15 -19.0 -24.0 17.35 -24.05 17.35 -29.6 22.85 Q-26.9 0.95 -29.5 -23.25 L29.65 -22.7" fill="#f7be66" fill-rule="evenodd" stroke="none"/>
    </g>
    <g id="shape46">
      <path d="M2.3 -30.15 Q-3.2 -30.95 -7.45 -27.7 -11.7 -24.55 -12.55 -19.5 L-12.55 -19.2 Q-13.3 -14.15 -10.0 -9.9 -7.15 -5.7 -1.95 -4.8 L-1.7 -4.75 Q3.5 -4.0 7.95 -7.5 9.4 -8.65 10.45 -9.95 12.0 -11.9 12.7 -14.3 L12.8 -14.75 13.1 -16.05 13.15 -16.3 Q13.35 -19.75 12.1 -22.7 10.85 -25.65 8.2 -27.7 5.55 -29.6 2.3 -30.15 M31.75 -1.4 Q18.85 26.3 4.5 53.0 L-19.05 44.05 -3.95 17.85 -5.85 17.55 Q-20.35 15.1 -28.85 3.15 -36.95 -8.2 -35.2 -21.75 L-35.0 -23.25 Q-32.6 -37.75 -20.6 -46.3 -8.6 -54.85 5.9 -52.4 20.35 -50.0 28.9 -38.0 37.45 -26.05 35.0 -11.55 L34.7 -10.1 Q33.95 -6.35 32.5 -3.0 L31.75 -1.4" fill="#d70000" fill-rule="evenodd" stroke="none"/>
    </g>
    <g id="sprite41">
      <use ffdec:characterId="75" height="46.55" transform="matrix(1.0, 0.0, 0.0, 1.0, 0.0, 4.35)" width="59.25" xlink:href="#shape45"/>
      <use ffdec:characterId="76" height="112.05" transform="matrix(0.3048, 0.0, 0.0, 0.3048, -12.2, 2.45)" width="42.15" xlink:href="#shape47"/>
      <use ffdec:characterId="89" height="99.1" transform="matrix(0.3295, 0.0, 0.0, 0.3295, 9.0, 2.85)" width="72.85" xlink:href="#shape48"/>
    </g>
    <g id="shape47">
      <path d="M-12.05 -12.6 L-21.05 -30.05 21.1 -56.0 21.1 53.8 -5.6 56.05 -5.6 -15.95 -12.05 -12.6" fill="#e30000" fill-rule="evenodd" stroke="none"/>
    </g>
    <g id="shape48">
      <path d="M0.35 -49.55 Q18.75 -49.45 27.5 -35.6 36.3 -21.6 36.45 2.35 L36.45 3.8 Q36.4 10.9 34.45 18.65 32.25 27.2 27.6 34.0 23.05 40.95 15.95 45.25 8.8 49.4 -0.1 49.55 -11.65 49.5 -20.0 42.9 -28.2 36.3 -32.25 25.5 -36.2 14.7 -36.4 1.85 L-36.2 0.35 Q-35.85 -21.5 -26.75 -35.6 -17.7 -49.6 0.1 -49.55 L0.35 -49.55 M9.8 -19.5 Q6.85 -27.75 -0.1 -27.75 -7.5 -27.75 -10.15 -19.25 -12.75 -11.45 -12.75 -1.1 L-12.75 0.6 Q-12.75 27.6 -0.1 27.85 L0.1 27.85 Q12.75 27.85 12.75 -0.35 12.75 -11.15 9.8 -19.5" fill="#d70000" fill-rule="evenodd" stroke="none"/>
    </g>
    <g id="sprite42">
      <use ffdec:characterId="75" height="46.55" transform="matrix(1.0, 0.0, 0.0, 1.0, 0.0, 4.65)" width="59.25" xlink:href="#shape45"/>
      <use ffdec:characterId="95" height="100.2" transform="matrix(0.329, 0.0, 0.0, 0.329, 0.0, 4.65)" width="71.55" xlink:href="#shape49"/>
    </g>
    <g id="shape49">
      <path d="M28.45 -35.5 Q32.1 -29.75 32.1 -23.0 L31.85 -19.4 Q31.2 -14.3 29.15 -10.6 27.05 -6.8 24.85 -4.85 L22.45 -2.75 Q28.3 0.05 32.0 6.95 35.8 13.7 35.8 20.55 35.8 25.45 34.2 29.5 32.6 33.65 30.15 37.0 27.6 40.3 25.15 42.4 16.3 50.1 -0.5 50.1 -10.85 50.1 -19.8 46.3 -28.9 42.4 -35.75 34.65 L-19.4 19.2 -15.95 22.75 Q-13.65 24.95 -10.35 26.55 -5.8 28.5 -1.85 28.9 2.8 28.4 6.6 25.7 10.15 23.0 10.15 18.45 10.15 15.0 8.8 12.45 7.35 9.9 4.75 9.05 0.45 7.9 -7.0 7.9 L-10.45 7.9 -12.05 8.2 -12.05 -9.75 -10.2 -9.75 -7.25 -9.5 Q-0.9 -9.5 3.75 -11.45 8.15 -13.2 8.2 -18.7 8.15 -23.25 5.0 -25.95 1.8 -28.65 -2.85 -28.65 -7.25 -28.65 -11.3 -26.45 -15.6 -24.1 -16.85 -20.4 L-34.1 -31.95 Q-33.4 -33.55 -30.45 -37.25 -27.65 -40.9 -24.35 -43.1 -14.5 -50.1 -1.1 -50.1 7.3 -50.1 15.55 -46.3 23.5 -42.4 28.45 -35.5" fill="#d70000" fill-rule="evenodd" stroke="none"/>
    </g>
    <g id="sprite43">
      <use ffdec:characterId="75" height="46.55" transform="matrix(1.0, 0.0, 0.0, 1.0, 0.0, 4.35)" width="59.25" xlink:href="#shape45"/>
      <use ffdec:characterId="87" height="35.45" transform="matrix(0.9274, 0.0, 0.0, 0.9274, 0.6, 3.8)" width="24.75" xlink:href="#shape50"/>
    </g>
    <g id="shape50">
      <path d="M8.2 -15.25 Q11.25 -12.9 11.5 -8.3 L11.5 -7.8 Q11.5 -5.85 10.8 -4.35 9.85 -2.65 8.75 -1.75 L7.5 -0.7 Q8.8 -0.05 10.75 2.0 12.4 3.9 12.4 7.05 L12.4 7.65 Q12.25 12.6 8.85 15.15 5.5 17.6 0.4 17.75 L-0.1 17.75 Q-5.35 17.75 -8.65 15.25 -12.2 12.7 -12.35 8.0 L-12.35 7.75 Q-12.35 5.4 -11.3 3.55 -10.35 1.65 -9.0 0.5 L-7.55 -0.7 -8.65 -1.75 Q-9.75 -2.75 -10.5 -4.45 -11.2 -5.8 -11.2 -7.6 L-11.15 -8.45 Q-10.9 -11.55 -9.2 -13.7 -7.6 -15.85 -5.0 -16.8 -2.7 -17.7 -0.05 -17.7 L0.5 -17.7 Q5.1 -17.6 8.2 -15.25 M0.15 11.65 Q2.0 11.6 3.35 10.3 4.65 8.95 4.7 7.1 4.65 5.2 3.35 3.85 2.0 2.55 0.15 2.55 -1.75 2.55 -3.1 3.85 -4.4 5.2 -4.4 7.1 -4.4 8.95 -3.1 10.3 -1.75 11.6 0.15 11.65 M0.1 -4.15 Q1.6 -4.15 2.7 -5.25 3.75 -6.3 3.75 -7.8 3.75 -9.35 2.7 -10.4 1.6 -11.5 0.1 -11.45 -1.45 -11.5 -2.5 -10.4 -3.6 -9.35 -3.55 -7.8 -3.6 -6.3 -2.5 -5.25 -1.45 -4.15 0.1 -4.15" fill="#d70000" fill-rule="evenodd" stroke="none"/>
    </g>
    <g id="sprite44">
      <use ffdec:characterId="75" height="46.55" transform="matrix(1.0, 0.0, 0.0, 1.0, 0.0, 2.95)" width="59.25" xlink:href="#shape45"/>
      <use ffdec:characterId="91" height="34.8" transform="matrix(0.935, 0.0, 0.0, 0.935, 1.15, 1.85)" width="24.6" xlink:href="#shape51"/>
    </g>
    <g id="shape51">
      <path d="M8.6 -9.7 L-0.45 -9.7 -0.45 -6.55 -0.05 -6.7 0.35 -6.75 0.75 -6.8 1.25 -6.8 Q4.55 -6.8 7.15 -5.0 9.6 -3.25 11.0 -0.35 12.3 2.45 12.3 5.5 L12.3 5.65 Q12.15 9.0 10.4 11.6 8.6 14.3 5.75 15.8 2.85 17.3 -0.35 17.4 L-0.7 17.4 Q-4.5 17.4 -8.05 15.45 -11.75 13.4 -12.3 12.5 L-6.45 6.4 -5.9 6.95 -4.85 7.9 -3.3 8.65 -0.95 9.1 Q1.05 9.1 2.65 7.55 3.9 6.3 3.9 4.8 L3.85 4.2 Q3.65 2.55 2.75 1.6 1.85 0.65 0.6 0.3 L-1.95 -0.15 -6.1 0.45 Q-8.15 1.15 -8.65 1.5 L-8.65 -17.4 10.65 -17.4 8.6 -9.7" fill="#d70000" fill-rule="evenodd" stroke="none"/>
    </g>
    <g id="sprite45">
      <use ffdec:characterId="75" height="46.55" transform="matrix(1.0, 0.0, 0.0, 1.0, 0.0, 4.35)" width="59.25" xlink:href="#shape45"/>
      <use ffdec:characterId="82" height="36.55" transform="matrix(0.9538, 0.0, 0.0, 0.9538, -0.2, 3.4)" width="25.95" xlink:href="#shape52"/>
    </g>
    <g id="shape52">
      <path d="M9.8 -2.3 Q12.8 1.0 13.0 5.65 L13.0 6.2 Q13.0 9.75 11.25 12.45 9.35 15.3 6.25 16.8 3.1 18.3 -0.05 18.3 -5.85 18.3 -9.55 14.55 -12.95 11.05 -12.95 5.65 L-12.95 4.75 Q-12.85 2.55 -12.2 0.7 L-10.8 -2.85 -8.8 -6.3 -6.95 -9.2 Q-5.55 -11.6 0.75 -18.25 L9.75 -14.9 Q9.4 -14.85 7.15 -12.8 L3.95 -9.85 Q2.0 -8.0 -0.1 -5.3 L0.55 -5.35 1.45 -5.5 2.1 -5.55 Q6.7 -5.55 9.8 -2.3 M4.75 5.85 L4.75 5.55 Q4.65 3.65 3.25 2.3 1.9 1.15 0.25 1.15 L-0.1 1.15 Q-2.05 1.2 -3.35 2.6 -4.5 3.95 -4.5 5.65 L-4.5 6.0 Q-4.4 7.8 -3.05 9.1 -1.7 10.35 0.15 10.35 2.0 10.35 3.4 8.95 4.7 7.55 4.75 5.85" fill="#e30000" fill-rule="evenodd" stroke="none"/>
    </g>
    <g id="sprite46">
      <use ffdec:characterId="75" height="46.55" transform="matrix(1.0, 0.0, 0.0, 1.0, 0.0, 4.35)" width="59.25" xlink:href="#shape45"/>
      <use ffdec:characterId="80" height="100.95" transform="matrix(0.329, 0.0, 0.0, 0.329, 0.0, 3.35)" width="74.85" xlink:href="#shape53"/>
    </g>
    <g id="shape53">
      <path d="M23.6 -23.4 L23.6 4.75 37.45 4.75 34.0 25.75 23.8 25.75 23.8 48.4 0.15 50.5 0.15 25.75 -37.4 26.3 -24.35 -38.0 -1.1 -50.45 -11.6 5.75 1.75 5.75 1.75 -17.9 23.6 -23.4" fill="#d70000" fill-rule="evenodd" stroke="none"/>
    </g>
    <g id="sprite47">
      <use ffdec:characterId="75" height="46.55" transform="matrix(1.0, 0.0, 0.0, 1.0, 0.0, 5.25)" width="59.25" xlink:href="#shape45"/>
      <use ffdec:characterId="84" height="35.45" transform="matrix(0.9553, 0.0, 0.0, 0.9553, 0.85, 4.3)" width="24.55" xlink:href="#shape54"/>
    </g>
    <g id="shape54">
      <path d="M-12.25 -9.55 L-10.0 -17.7 12.3 -17.7 1.6 16.35 -8.1 17.75 1.4 -9.55 -12.25 -9.55" fill="#d70000" fill-rule="evenodd" stroke="none"/>
    </g>
    <g id="sprite48">
      <use ffdec:characterId="75" height="46.55" transform="matrix(1.0, 0.0, 0.0, 1.0, 0.0, 4.65)" width="59.25" xlink:href="#shape45"/>
      <use ffdec:characterId="76" height="112.05" transform="matrix(0.329, 0.0, 0.0, 0.3022, 0.0, 3.65)" width="42.15" xlink:href="#shape47"/>
    </g>
    <g id="sprite49">
      <use ffdec:characterId="75" height="46.55" transform="matrix(1.0, 0.0, 0.0, 1.0, 0.0, 4.35)" width="59.25" xlink:href="#shape45"/>
      <use ffdec:characterId="78" height="98.25" transform="matrix(0.329, 0.0, 0.0, 0.329, 0.0, 4.35)" width="75.0" xlink:href="#shape55"/>
    </g>
    <g id="shape55">
      <path d="M34.5 -19.15 L34.5 -17.8 Q34.5 -10.45 30.25 -1.4 25.55 8.65 18.85 16.05 L8.9 26.95 37.5 26.95 31.7 49.15 -37.5 49.15 -1.8 6.5 Q9.85 -8.6 9.9 -15.0 L9.9 -15.7 Q9.15 -22.0 5.85 -25.05 2.75 -27.85 -1.5 -27.85 L-2.25 -27.85 Q-6.95 -27.75 -10.1 -24.45 -13.05 -21.15 -13.3 -16.35 L-13.3 -15.95 -13.25 -15.25 -35.6 -8.0 Q-36.5 -11.85 -36.45 -16.1 L-36.45 -17.9 Q-36.1 -26.9 -31.45 -34.25 -26.95 -41.35 -18.6 -45.3 -10.75 -49.1 -1.15 -49.1 L-0.8 -49.1 Q8.4 -49.1 16.35 -45.5 24.2 -42.0 29.15 -35.35 33.9 -28.6 34.5 -19.15" fill="#d70000" fill-rule="evenodd" stroke="none"/>
    </g>
    <g id="sprite50">
      <use ffdec:characterId="63" height="40.3" transform="matrix(1.0, 0.0, 0.0, 1.0, 0.0, 0.0)" width="40.3" xlink:href="#shape56"/>
    </g>
    <g id="shape56">
      <path d="M14.25 -14.25 Q20.15 -8.35 20.15 0.0 20.15 8.35 14.25 14.25 8.35 20.15 0.0 20.15 -8.35 20.15 -14.25 14.25 -20.15 8.35 -20.15 0.0 -20.15 -8.35 -14.25 -14.25 -8.35 -20.15 0.0 -20.15 8.35 -20.15 14.25 -14.25" fill="url(#gradient19)" fill-rule="evenodd" stroke="none"/>
    </g>
    <radialGradient cx="0" cy="0" gradientTransform="matrix(0.025, 0.0, 0.0, 0.025, 0.0, 0.0)" gradientUnits="userSpaceOnUse" id="gradient19" r="819.2" spreadMethod="pad">
      <stop offset="0.5098039215686274" stop-color="#ffff00"/>
      <stop offset="1.0" stop-color="#ffffff" stop-opacity="0.0"/>
    </radialGradient>
    <g id="sprite51">
      <use ffdec:characterId="63" height="40.3" transform="matrix(1.0, 0.0, 0.0, 1.0, 0.0, 0.0)" width="40.3" xlink:href="#shape57"/>
    </g>
    <g id="shape57">
      <path d="M14.25 -14.25 Q20.15 -8.35 20.15 0.0 20.15 8.35 14.25 14.25 8.35 20.15 0.0 20.15 -8.35 20.15 -14.25 14.25 -20.15 8.35 -20.15 0.0 -20.15 -8.35 -14.25 -14.25 -8.35 -20.15 0.0 -20.15 8.35 -20.15 14.25 -14.25" fill="url(#gradient20)" fill-rule="evenodd" stroke="none"/>
    </g>
    <radialGradient cx="0" cy="0" gradientTransform="matrix(0.025, 0.0, 0.0, 0.025, 0.0, 0.0)" gradientUnits="userSpaceOnUse" id="gradient20" r="819.2" spreadMethod="pad">
      <stop offset="0.5098039215686274" stop-color="#ffff00"/>
      <stop offset="1.0" stop-color="#ffffff" stop-opacity="0.0"/>
    </radialGradient>
    <g id="sprite52">
      <use ffdec:characterId="38" height="19.6" transform="matrix(1.0, 0.0, 0.0, 1.0, 0.0, 0.0)" width="19.5" xlink:href="#shape58"/>
    </g>
    <g id="shape58">
      <path d="M9.7 0.5 Q9.65 4.55 6.85 7.4 4.0 10.2 -0.05 10.3 -4.15 10.2 -6.95 7.4 -9.8 4.55 -9.8 0.5 -9.8 -3.6 -6.95 -6.4 -4.15 -9.25 -0.05 -9.25 4.0 -9.25 6.85 -6.4 9.65 -3.6 9.7 0.5" fill="url(#gradient21)" fill-rule="evenodd" stroke="none"/>
      <path d="M6.85 -6.25 Q9.7 -3.4 9.7 0.65 9.7 4.65 6.85 7.5 4.0 10.35 0.0 10.35 -4.0 10.35 -6.9 7.5 -9.75 4.65 -9.7 0.65 -9.75 -3.4 -6.9 -6.25 -4.0 -9.1 0.0 -9.1 4.0 -9.1 6.85 -6.25" fill="url(#gradient22)" fill-rule="evenodd" stroke="none"/>
    </g>
    <radialGradient cx="0" cy="0" gradientTransform="matrix(0.0126, 0.0, 0.0, 0.0126, 0.3, 0.15)" gradientUnits="userSpaceOnUse" id="gradient21" r="819.2" spreadMethod="pad">
      <stop offset="0.0" stop-color="#ffffff"/>
      <stop offset="1.0" stop-color="#999999"/>
    </radialGradient>
    <linearGradient gradientTransform="matrix(0.0, -0.01, 0.0119, 0.0, -0.05, 0.6)" gradientUnits="userSpaceOnUse" id="gradient22" spreadMethod="pad" x1="-819.2" x2="819.2">
      <stop offset="0.01568627450980392" stop-color="#ffffff" stop-opacity="0.84313726"/>
      <stop offset="0.2549019607843137" stop-color="#aecbf8" stop-opacity="0.6901961"/>
      <stop offset="0.7372549019607844" stop-color="#8eb5f8" stop-opacity="0.0"/>
    </linearGradient>
    <g id="sprite53">
      <use ffdec:characterId="38" height="19.6" transform="matrix(1.0, 0.0, 0.0, 1.0, 0.0, 0.0)" width="19.5" xlink:href="#shape59"/>
    </g>
    <g id="shape59">
      <path d="M9.7 0.5 Q9.65 4.55 6.85 7.4 4.0 10.2 -0.05 10.3 -4.15 10.2 -6.95 7.4 -9.8 4.55 -9.8 0.5 -9.8 -3.6 -6.95 -6.4 -4.15 -9.25 -0.05 -9.25 4.0 -9.25 6.85 -6.4 9.65 -3.6 9.7 0.5" fill="url(#gradient23)" fill-rule="evenodd" stroke="none"/>
      <path d="M6.85 -6.25 Q9.7 -3.4 9.7 0.65 9.7 4.65 6.85 7.5 4.0 10.35 0.0 10.35 -4.0 10.35 -6.9 7.5 -9.75 4.65 -9.7 0.65 -9.75 -3.4 -6.9 -6.25 -4.0 -9.1 0.0 -9.1 4.0 -9.1 6.85 -6.25" fill="url(#gradient24)" fill-rule="evenodd" stroke="none"/>
    </g>
    <radialGradient cx="0" cy="0" gradientTransform="matrix(0.0126, 0.0, 0.0, 0.0126, 0.3, 0.15)" gradientUnits="userSpaceOnUse" id="gradient23" r="819.2" spreadMethod="pad">
      <stop offset="0.0" stop-color="#ffffff"/>
      <stop offset="1.0" stop-color="#999999"/>
    </radialGradient>
    <linearGradient gradientTransform="matrix(0.0, -0.01, 0.0119, 0.0, -0.05, 0.6)" gradientUnits="userSpaceOnUse" id="gradient24" spreadMethod="pad" x1="-819.2" x2="819.2">
      <stop offset="0.01568627450980392" stop-color="#ffffff" stop-opacity="0.84313726"/>
      <stop offset="0.2549019607843137" stop-color="#aecbf8" stop-opacity="0.6901961"/>
      <stop offset="0.7372549019607844" stop-color="#8eb5f8" stop-opacity="0.0"/>
    </linearGradient>
  </defs>
</svg>
