<?xml version="1.0" encoding="UTF-8" standalone="no"?>
<svg xmlns:ffdec="https://www.free-decompiler.com/flash" xmlns:xlink="http://www.w3.org/1999/xlink" ffdec:objectType="frame" height="74.6px" width="74.6px" xmlns="http://www.w3.org/2000/svg">
  <g transform="matrix(1.0, 0.0, 0.0, 1.0, 37.3, 37.3)">
    <use ffdec:characterId="74" height="83.0" transform="matrix(0.9, 0.0, 0.0, 0.9, 0.0, 0.0)" width="83.0" xlink:href="#shape0"/>
    <use ffdec:characterId="75" height="46.55" transform="matrix(1.0, 0.0, 0.0, 1.0, -0.2, 0.0)" width="59.25" xlink:href="#shape1"/>
    <use ffdec:characterId="76" height="112.05" transform="matrix(0.3048, 0.0, 0.0, 0.3048, -12.4, -1.9)" width="42.15" xlink:href="#shape2"/>
    <use ffdec:characterId="89" height="99.1" transform="matrix(0.3295, 0.0, 0.0, 0.3295, 8.8, -1.5)" width="72.85" xlink:href="#shape3"/>
  </g>
  <defs>
    <g id="shape0">
      <path d="M0.0 -41.5 Q-17.2 -41.5 -29.35 -29.35 -41.5 -17.2 -41.5 0.0 -41.5 17.2 -29.35 29.35 -17.2 41.5 0.0 41.5 17.2 41.5 29.35 29.35 41.5 17.2 41.5 0.0 41.5 -17.2 29.35 -29.35 17.2 -41.5 0.0 -41.5 Z" ffdec:has-small-stroke="true" ffdec:original-stroke-width="0.05" fill="none" stroke="#c6f3ff" stroke-linecap="round" stroke-linejoin="round" stroke-width="1.1111186463666882"/>
      <path d="M24.05 -24.55 Q34.95 -13.65 34.95 1.85 34.95 17.35 24.05 28.3 L23.3 28.95 Q29.55 19.85 29.55 8.15 29.55 -7.35 18.65 -18.25 7.7 -29.2 -7.8 -29.2 -22.75 -29.2 -33.5 -18.95 -31.5 -21.9 -28.8 -24.55 -17.9 -35.5 -2.4 -35.5 13.1 -35.5 24.05 -24.55" fill="#cef5ff" fill-rule="evenodd" stroke="none"/>
    </g>
    <g id="shape1">
      <path d="M29.65 -22.7 Q27.45 1.0 29.45 23.3 L29.05 23.3 28.75 23.3 Q0.9 21.9 -29.6 23.05 L-29.6 22.85 -24.05 17.35 24.8 17.35 24.8 -19.0 25.1 -19.0 29.65 -22.7" fill="#85550c" fill-rule="evenodd" stroke="none"/>
      <path d="M24.8 -19.0 L24.8 17.35 -24.05 17.35 -24.0 17.35 -24.15 -19.0 24.8 -19.0" fill="#fffbf0" fill-rule="evenodd" stroke="none"/>
      <path d="M29.65 -22.7 L25.1 -19.0 24.8 -19.0 -24.15 -19.0 -24.0 17.35 -24.05 17.35 -29.6 22.85 Q-26.9 0.95 -29.5 -23.25 L29.65 -22.7" fill="#f7be66" fill-rule="evenodd" stroke="none"/>
    </g>
    <g id="shape2">
      <path d="M-12.05 -12.6 L-21.05 -30.05 21.1 -56.0 21.1 53.8 -5.6 56.05 -5.6 -15.95 -12.05 -12.6" fill="#e30000" fill-rule="evenodd" stroke="none"/>
    </g>
    <g id="shape3">
      <path d="M0.35 -49.55 Q18.75 -49.45 27.5 -35.6 36.3 -21.6 36.45 2.35 L36.45 3.8 Q36.4 10.9 34.45 18.65 32.25 27.2 27.6 34.0 23.05 40.95 15.95 45.25 8.8 49.4 -0.1 49.55 -11.65 49.5 -20.0 42.9 -28.2 36.3 -32.25 25.5 -36.2 14.7 -36.4 1.85 L-36.2 0.35 Q-35.85 -21.5 -26.75 -35.6 -17.7 -49.6 0.1 -49.55 L0.35 -49.55 M9.8 -19.5 Q6.85 -27.75 -0.1 -27.75 -7.5 -27.75 -10.15 -19.25 -12.75 -11.45 -12.75 -1.1 L-12.75 0.6 Q-12.75 27.6 -0.1 27.85 L0.1 27.85 Q12.75 27.85 12.75 -0.35 12.75 -11.15 9.8 -19.5" fill="#d70000" fill-rule="evenodd" stroke="none"/>
    </g>
  </defs>
</svg>
