<?xml version="1.0" encoding="utf-8"?>
<svg version="1.1" id="Layer_1"
xmlns="http://www.w3.org/2000/svg"
xmlns:xlink="http://www.w3.org/1999/xlink"
width="47px" height="11px"
xml:space="preserve">
<g id="15" transform="matrix(1, 0, 0, 1, 23.4, 5.4)">
<path style="fill:#679DF0;fill-opacity:1" d="M2.6,-1.25Q0.3 -1.2 0.2 0.7L0.1 3.1Q-2.8 4.35 -3.6 2.4Q-8.1 0.95 -10.4 3.65Q-10.85 -0.15 -6 -1.05Q-4.4 -1.3 -5.7 -2.6Q-7.3 -4.15 -9.5 -3.55Q-10.2 -3.35 -9.9 -2.45Q-12.9 -4.9 -14.2 -2.35Q-14.65 -1.5 -15.15 -1.25Q-16.35 -0.65 -17.15 0L-17.85 1.1Q-19.4 -0.7 -20.7 -0.9Q-22.45 -1.2 -23.4 -2.3Q-20.95 -4.15 -18.5 -2.55Q-16.8 -1.5 -16.2 -3.75Q-13.3 -5.45 -10.5 -4.85L-9.15 -5.05Q-7.35 -5.9 -6.6 -4.6Q-5.8 -5.15 -3.55 -4L-1.55 -3.25Q-0.45 -3 0.05 -2.35Q2.6 -3.75 3.8 -2.9Q6.15 -1.3 8 -3.2Q8.7 -3.95 10 -3.35L10.9 -2.3Q11.75 0.05 14.2 -1.65L15.45 -1.8L18.1 -1.6L20.5 -2.15L23.45 0.2L17.95 0.55Q14.65 2.7 11.8 0.4Q10.75 -0.45 9.05 -0.75Q7.95 -0.95 6.7 -0.15Q10 0.3 11.85 2.55Q12.3 3.1 11.95 3.75Q10 7.3 9.4 3.15Q9.2 1.85 7.1 2.5L4.3 3.2Q4.6 0.75 3.85 -0.75Q3.55 -1.3 2.6 -1.25" />
</g>
</svg>
