<?xml version="1.0" encoding="utf-8"?>
<svg version="1.1" id="Layer_1"
xmlns="http://www.w3.org/2000/svg"
xmlns:xlink="http://www.w3.org/1999/xlink"
width="162px" height="75px"
xml:space="preserve">
<g id="22" transform="matrix(1, 0, 0, 1, 80.9, 37.2)">
<radialGradient
id="RadialGradID_18" gradientUnits="userSpaceOnUse" gradientTransform="matrix(0.10202, -0.0273438, 0.0210114, 0.0784149, 40.55, -36.8)" spreadMethod ="pad" cx="0" cy="0" r="819.2" fx="0" fy="0" >
<stop  offset="0.0156863"  style="stop-color:#FFFFCC;stop-opacity:1" />
<stop  offset="0.384314"  style="stop-color:#F6DA9F;stop-opacity:1" />
<stop  offset="0.709804"  style="stop-color:#F6DA9F;stop-opacity:1" />
<stop  offset="0.992157"  style="stop-color:#F6DA9F;stop-opacity:0" />
</radialGradient>
<path style="fill:url(#RadialGradID_18) " d="M80.45,-28.45L80.6 -28.3L80.7 -28.1L80.45 -28.45M-80.65,13.85L-80.85 13.7L-80.9 13.45L-80.75 13.2L-80.5 13.15L-80.65 13.85" />
<radialGradient
id="RadialGradID_19" gradientUnits="userSpaceOnUse" gradientTransform="matrix(0.10202, -0.0273438, 0.0210114, 0.0784149, 40.55, -36.8)" spreadMethod ="pad" cx="0" cy="0" r="819.2" fx="0" fy="0" >
<stop  offset="0.0156863"  style="stop-color:#FFDB73;stop-opacity:1" />
<stop  offset="0.384314"  style="stop-color:#FFC357;stop-opacity:1" />
<stop  offset="0.709804"  style="stop-color:#FFC357;stop-opacity:1" />
<stop  offset="0.992157"  style="stop-color:#F6DA9F;stop-opacity:0" />
</radialGradient>
<path style="fill:url(#RadialGradID_19) " d="M-80.5,13.15Q-15.7 17.25 14.95 -21.9Q35.8 -48.75 80.45 -28.45L80.7 -28.1Q84.5 9.9 34.15 31Q-7 47.6 -63.8 19.9L-63.85 19.9L-75.55 15.6L-80.65 13.85L-80.5 13.15" />
</g>
</svg>
