<?xml version="1.0" encoding="UTF-8" standalone="no"?>
<svg xmlns:ffdec="https://www.free-decompiler.com/flash" xmlns:xlink="http://www.w3.org/1999/xlink" ffdec:objectType="frame" height="410.0px" width="590.0px" xmlns="http://www.w3.org/2000/svg">
  <g transform="matrix(1.0, 0.0, 0.0, 1.0, 0.0, 0.0)">
    <rect fill="#000000" height="410.0px" width="590.0px"/>
    <use ffdec:characterId="60" height="18.85" transform="matrix(1.0, 0.0, 0.0, 1.0, 0.0, 0.0)" width="39.75" xlink:href="#shape0"/>
    <use ffdec:characterId="8" height="88.7" transform="matrix(1.0, 0.0, 0.0, 1.0, 133.0, 93.15)" width="79.2" xlink:href="#sprite0"/>
    <use ffdec:characterId="10" height="159.1" transform="matrix(1.1967, 0.054, -0.054, 1.1967, 161.7, 181.6)" width="125.75" xlink:href="#sprite2"/>
    <use ffdec:characterId="12" height="21.8" transform="matrix(0.9944, -0.3152, 0.3152, 0.9944, 159.3, 124.4)" width="21.85" xlink:href="#sprite3"/>
    <use ffdec:characterId="12" height="21.8" transform="matrix(0.8685, 0.7934, -0.7934, 0.8685, 140.35, 119.6)" width="21.85" xlink:href="#sprite3"/>
    <use ffdec:characterId="20" height="14.5" transform="matrix(1.0, 0.0, 0.0, 1.0, 151.5, 126.25)" width="28.35" xlink:href="#sprite4"/>
    <use ffdec:characterId="14" height="26.3" transform="matrix(-1.17, -0.2575, -0.2575, 1.17, 140.6, 121.35)" width="55.25" xlink:href="#sprite6"/>
    <use ffdec:characterId="15" height="9.65" transform="matrix(3.3921, 0.0, 0.0, 3.3921, 147.6, 139.8)" width="9.35" xlink:href="#shape6"/>
    <use ffdec:characterId="16" height="13.0" transform="matrix(3.3921, 0.0, 0.0, 3.3921, 147.45, 171.9)" width="18.45" xlink:href="#shape7"/>
    <use ffdec:characterId="17" height="22.0" transform="matrix(1.052, 0.0, 0.0, 1.052, 149.5, 134.35)" width="15.1" xlink:href="#shape8"/>
    <use ffdec:characterId="48" height="298.6" transform="matrix(1.0, 0.0, 0.0, 1.0, 148.1, 167.45)" width="6.6" xlink:href="#sprite7"/>
    <use ffdec:characterId="80" height="362.0" transform="matrix(0.9926, 0.1145, -0.1145, 0.9926, 357.95, 157.8)" width="264.3" xlink:href="#sprite10"/>
    <use ffdec:characterId="23" height="59.55" transform="matrix(1.0, 0.0, 0.0, 1.0, 235.25, 293.95)" width="91.0" xlink:href="#sprite14"/>
    <use ffdec:characterId="23" height="59.55" transform="matrix(0.9926, 0.1179, -0.1179, 0.9926, 344.35, 297.95)" width="91.0" xlink:href="#sprite14"/>
    <use ffdec:characterId="25" height="58.65" transform="matrix(0.9883, -0.1494, 0.1494, 0.9883, 236.4, 286.6)" width="71.1" xlink:href="#sprite15"/>
    <use ffdec:characterId="27" height="222.05" transform="matrix(0.846, 0.0, 0.0, 0.846, 240.8, 160.9)" width="102.35" xlink:href="#sprite16"/>
    <use ffdec:characterId="28" height="215.85" transform="matrix(1.0, 0.0, 0.0, 1.0, 195.1, 157.8)" width="12.15" xlink:href="#shape18"/>
    <use ffdec:characterId="29" height="215.85" transform="matrix(1.0, 0.0, 0.0, 1.0, 278.45, 157.3)" width="12.15" xlink:href="#shape19"/>
    <use ffdec:characterId="30" height="8.25" transform="matrix(0.0058, -1.9999, 1.0612, 0.0109, 276.7, 191.15)" width="3.5" xlink:href="#shape20"/>
    <use ffdec:characterId="30" height="8.25" transform="matrix(0.0056, -1.9999, 1.025, 0.0109, 196.9, 191.15)" width="3.5" xlink:href="#shape20"/>
    <use ffdec:characterId="30" height="8.25" transform="matrix(0.006, -1.2539, 1.0975, 0.0068, 193.95, 262.65)" width="3.5" xlink:href="#shape20"/>
    <use ffdec:characterId="30" height="8.25" transform="matrix(0.006, -1.2539, 1.0975, 0.0068, 279.4, 262.7)" width="3.5" xlink:href="#shape20"/>
    <use ffdec:characterId="28" height="215.85" transform="matrix(0.0, -1.0, 0.4576, 0.0, 235.2, 255.75)" width="12.15" xlink:href="#shape18"/>
    <use ffdec:characterId="30" height="8.25" transform="matrix(0.0054, -1.0, 1.0, 0.0054, 194.2, 70.45)" width="3.5" xlink:href="#shape20"/>
    <use ffdec:characterId="30" height="8.25" transform="matrix(0.0054, -1.0, 1.0, 0.0054, 279.4, 71.45)" width="3.5" xlink:href="#shape20"/>
    <use ffdec:characterId="29" height="215.85" transform="matrix(-0.0053, -1.0, 0.4858, -0.0023, 236.0, 65.2)" width="12.15" xlink:href="#shape19"/>
    <use ffdec:characterId="30" height="8.25" transform="matrix(1.0, 0.0, 0.0, 1.0, 229.6, 67.05)" width="3.5" xlink:href="#shape20"/>
    <use ffdec:characterId="30" height="8.25" transform="matrix(0.0059, -1.1428, 1.0843, 0.0062, 277.8, 228.8)" width="3.5" xlink:href="#shape20"/>
    <use ffdec:characterId="30" height="8.25" transform="matrix(0.0059, -1.1428, 1.0843, 0.0062, 195.9, 227.2)" width="3.5" xlink:href="#shape20"/>
    <use ffdec:characterId="28" height="215.85" transform="matrix(0.0, -1.0, 0.4576, 0.0, 233.0, 220.35)" width="12.15" xlink:href="#shape18"/>
    <use ffdec:characterId="30" height="8.25" transform="matrix(0.0054, -1.0, 1.0, 0.0054, 196.2, 110.05)" width="3.5" xlink:href="#shape20"/>
    <use ffdec:characterId="30" height="8.25" transform="matrix(0.0054, -1.0, 1.0, 0.0054, 277.6, 111.05)" width="3.5" xlink:href="#shape20"/>
    <use ffdec:characterId="29" height="215.85" transform="matrix(-0.0053, -1.0, 0.4858, -0.0023, 235.95, 104.2)" width="12.15" xlink:href="#shape19"/>
    <use ffdec:characterId="30" height="8.25" transform="matrix(0.0054, -1.0, 1.0, 0.0054, 197.2, 147.55)" width="3.5" xlink:href="#shape20"/>
    <use ffdec:characterId="30" height="8.25" transform="matrix(0.0054, -1.0, 1.0, 0.0054, 276.6, 148.15)" width="3.5" xlink:href="#shape20"/>
    <use ffdec:characterId="29" height="215.85" transform="matrix(-0.0053, -1.0, 0.4858, -0.0023, 235.95, 141.6)" width="12.15" xlink:href="#shape19"/>
    <use ffdec:characterId="28" height="215.85" transform="matrix(0.0, -1.0, 0.4576, 0.0, 235.85, 183.05)" width="12.15" xlink:href="#shape18"/>
    <use ffdec:characterId="30" height="8.25" transform="matrix(1.0, 0.0, 0.0, 1.0, 227.8, 106.05)" width="3.5" xlink:href="#shape20"/>
    <use ffdec:characterId="30" height="8.25" transform="matrix(1.0, 0.0, 0.0, 1.0, 227.4, 143.35)" width="3.5" xlink:href="#shape20"/>
    <use ffdec:characterId="30" height="8.25" transform="matrix(1.0, 0.0, 0.0, 1.0, 227.4, 181.35)" width="3.5" xlink:href="#shape20"/>
    <use ffdec:characterId="30" height="8.25" transform="matrix(1.0, 0.0, 0.0, 1.0, 227.9, 218.55)" width="3.5" xlink:href="#shape20"/>
    <use ffdec:characterId="29" height="215.85" transform="matrix(0.995, 0.0934, 0.0114, 0.9746, 235.5, 158.45)" width="12.15" xlink:href="#shape19"/>
    <use ffdec:characterId="31" height="13.8" transform="matrix(-0.783, 0.0, 0.0, 0.783, 235.4, 67.1)" width="11.4" xlink:href="#shape21"/>
    <use ffdec:characterId="31" height="13.8" transform="matrix(0.7703, 0.0, 0.0, 0.7703, 235.65, 66.6)" width="11.4" xlink:href="#shape21"/>
    <use ffdec:characterId="31" height="13.8" transform="matrix(-0.783, 0.0, 0.0, 0.783, 233.75, 107.25)" width="11.4" xlink:href="#shape21"/>
    <use ffdec:characterId="31" height="13.8" transform="matrix(0.7703, 0.0, 0.0, 0.7703, 234.0, 106.75)" width="11.4" xlink:href="#shape21"/>
    <use ffdec:characterId="31" height="13.8" transform="matrix(-0.783, 0.0, 0.0, 0.783, 233.2, 144.1)" width="11.4" xlink:href="#shape21"/>
    <use ffdec:characterId="31" height="13.8" transform="matrix(0.7703, 0.0, 0.0, 0.7703, 233.45, 143.6)" width="11.4" xlink:href="#shape21"/>
    <use ffdec:characterId="31" height="13.8" transform="matrix(0.783, 0.0, 0.0, 0.783, 233.95, 181.9)" width="11.4" xlink:href="#shape21"/>
    <use ffdec:characterId="31" height="13.8" transform="matrix(-0.7703, 0.0, 0.0, 0.7703, 233.7, 181.4)" width="11.4" xlink:href="#shape21"/>
    <use ffdec:characterId="31" height="13.8" transform="matrix(-0.9933, 0.0, 0.0, 0.825, 234.1, 218.95)" width="11.4" xlink:href="#shape21"/>
    <use ffdec:characterId="31" height="13.8" transform="matrix(0.9772, 0.0, 0.0, 0.8115, 234.45, 218.4)" width="11.4" xlink:href="#shape21"/>
    <use ffdec:characterId="31" height="13.8" transform="matrix(-0.783, 0.0, 0.0, 0.783, 193.05, 64.8)" width="11.4" xlink:href="#shape21"/>
    <use ffdec:characterId="31" height="13.8" transform="matrix(1.0, 0.0, 0.0, 1.0, 194.1, 64.7)" width="11.4" xlink:href="#shape21"/>
    <use ffdec:characterId="31" height="13.8" transform="matrix(-0.783, 0.0, 0.0, 0.783, 195.25, 104.95)" width="11.4" xlink:href="#shape21"/>
    <use ffdec:characterId="31" height="13.8" transform="matrix(1.0, 0.0, 0.0, 1.0, 196.3, 104.85)" width="11.4" xlink:href="#shape21"/>
    <use ffdec:characterId="31" height="13.8" transform="matrix(-0.783, 0.0, 0.0, 0.783, 196.35, 142.35)" width="11.4" xlink:href="#shape21"/>
    <use ffdec:characterId="31" height="13.8" transform="matrix(1.0, 0.0, 0.0, 1.0, 197.4, 142.25)" width="11.4" xlink:href="#shape21"/>
    <use ffdec:characterId="31" height="13.8" transform="matrix(0.783, 0.0, 0.0, 0.783, 197.35, 184.05)" width="11.4" xlink:href="#shape21"/>
    <use ffdec:characterId="31" height="13.8" transform="matrix(-1.0, 0.0, 0.0, 1.0, 196.3, 183.95)" width="11.4" xlink:href="#shape21"/>
    <use ffdec:characterId="31" height="13.8" transform="matrix(0.783, 0.0, 0.0, 0.783, 196.2, 221.85)" width="11.4" xlink:href="#shape21"/>
    <use ffdec:characterId="31" height="13.8" transform="matrix(-1.0, 0.0, 0.0, 1.0, 195.15, 221.75)" width="11.4" xlink:href="#shape21"/>
    <use ffdec:characterId="31" height="13.8" transform="matrix(0.783, 0.0, 0.0, 0.783, 194.15, 257.15)" width="11.4" xlink:href="#shape21"/>
    <use ffdec:characterId="31" height="13.8" transform="matrix(-1.0, 0.0, 0.0, 1.0, 193.1, 257.05)" width="11.4" xlink:href="#shape21"/>
    <use ffdec:characterId="30" height="8.25" transform="matrix(1.0, 0.0, 0.0, 1.0, 230.4, 253.85)" width="3.5" xlink:href="#shape20"/>
    <use ffdec:characterId="31" height="13.8" transform="matrix(-0.9933, 0.0, 0.0, 0.825, 237.15, 255.05)" width="11.4" xlink:href="#shape21"/>
    <use ffdec:characterId="31" height="13.8" transform="matrix(0.9772, 0.0, 0.0, 0.8115, 237.5, 254.5)" width="11.4" xlink:href="#shape21"/>
    <use ffdec:characterId="31" height="13.8" transform="matrix(0.783, 0.0, 0.0, 0.783, 280.15, 64.8)" width="11.4" xlink:href="#shape21"/>
    <use ffdec:characterId="31" height="13.8" transform="matrix(-1.0, 0.0, 0.0, 1.0, 279.1, 64.7)" width="11.4" xlink:href="#shape21"/>
    <use ffdec:characterId="31" height="13.8" transform="matrix(0.783, 0.0, 0.0, 0.783, 277.95, 104.95)" width="11.4" xlink:href="#shape21"/>
    <use ffdec:characterId="31" height="13.8" transform="matrix(-1.0, 0.0, 0.0, 1.0, 276.9, 104.85)" width="11.4" xlink:href="#shape21"/>
    <use ffdec:characterId="31" height="13.8" transform="matrix(0.783, 0.0, 0.0, 0.783, 276.85, 142.35)" width="11.4" xlink:href="#shape21"/>
    <use ffdec:characterId="31" height="13.8" transform="matrix(-1.0, 0.0, 0.0, 1.0, 275.8, 142.25)" width="11.4" xlink:href="#shape21"/>
    <use ffdec:characterId="31" height="13.8" transform="matrix(-0.783, 0.0, 0.0, 0.783, 276.2, 184.2)" width="11.4" xlink:href="#shape21"/>
    <use ffdec:characterId="31" height="13.8" transform="matrix(1.0, 0.0, 0.0, 1.0, 277.25, 184.1)" width="11.4" xlink:href="#shape21"/>
    <use ffdec:characterId="31" height="13.8" transform="matrix(-0.783, 0.0, 0.0, 0.783, 277.15, 221.6)" width="11.4" xlink:href="#shape21"/>
    <use ffdec:characterId="31" height="13.8" transform="matrix(1.0, 0.0, 0.0, 1.0, 278.2, 221.5)" width="11.4" xlink:href="#shape21"/>
    <use ffdec:characterId="31" height="13.8" transform="matrix(-0.8792, 0.0, 0.0, 0.6468, 278.65, 256.85)" width="11.4" xlink:href="#shape21"/>
    <use ffdec:characterId="31" height="13.8" transform="matrix(1.1228, 0.0, 0.0, 0.8261, 279.85, 256.75)" width="11.4" xlink:href="#shape21"/>
    <use ffdec:characterId="27" height="222.05" transform="matrix(-0.8398, -0.0997, 0.0997, -0.8398, 356.9, 164.55)" width="102.35" xlink:href="#sprite16"/>
    <use ffdec:characterId="28" height="215.85" transform="matrix(0.9926, 0.1179, -0.1179, 0.9926, 320.55, 158.1)" width="12.15" xlink:href="#shape18"/>
    <use ffdec:characterId="29" height="215.85" transform="matrix(0.9926, 0.1179, -0.1179, 0.9926, 403.35, 167.45)" width="12.15" xlink:href="#shape19"/>
    <use ffdec:characterId="30" height="8.25" transform="matrix(0.2415, -1.9845, 1.0521, 0.1359, 397.65, 200.85)" width="3.5" xlink:href="#shape20"/>
    <use ffdec:characterId="30" height="8.25" transform="matrix(0.2413, -1.9845, 1.0162, 0.1316, 318.45, 191.45)" width="3.5" xlink:href="#shape20"/>
    <use ffdec:characterId="30" height="8.25" transform="matrix(0.1537, -1.244, 1.0886, 0.1361, 307.05, 262.05)" width="3.5" xlink:href="#shape20"/>
    <use ffdec:characterId="30" height="8.25" transform="matrix(0.1537, -1.244, 1.0886, 0.1361, 391.9, 272.15)" width="3.5" xlink:href="#shape20"/>
    <use ffdec:characterId="28" height="215.85" transform="matrix(0.1179, -0.9926, 0.4543, 0.0539, 348.8, 260.05)" width="12.15" xlink:href="#shape18"/>
    <use ffdec:characterId="30" height="8.25" transform="matrix(0.1233, -0.992, 0.992, 0.1233, 329.95, 71.25)" width="3.5" xlink:href="#shape20"/>
    <use ffdec:characterId="30" height="8.25" transform="matrix(0.1233, -0.992, 0.992, 0.1233, 414.45, 82.3)" width="3.5" xlink:href="#shape20"/>
    <use ffdec:characterId="29" height="215.85" transform="matrix(0.1126, -0.9932, 0.4825, 0.055, 372.1, 71.0)" width="12.15" xlink:href="#shape19"/>
    <use ffdec:characterId="30" height="8.25" transform="matrix(0.9926, 0.1179, -0.1179, 0.9926, 365.5, 72.1)" width="3.5" xlink:href="#shape20"/>
    <use ffdec:characterId="30" height="8.25" transform="matrix(0.1405, -1.1337, 1.0756, 0.134, 394.3, 238.35)" width="3.5" xlink:href="#shape20"/>
    <use ffdec:characterId="30" height="8.25" transform="matrix(0.1405, -1.1337, 1.0756, 0.134, 313.2, 227.05)" width="3.5" xlink:href="#shape20"/>
    <use ffdec:characterId="28" height="215.85" transform="matrix(0.1179, -0.9926, 0.4543, 0.0539, 350.8, 224.65)" width="12.15" xlink:href="#shape18"/>
    <use ffdec:characterId="30" height="8.25" transform="matrix(0.1233, -0.992, 0.992, 0.1233, 327.3, 110.8)" width="3.5" xlink:href="#shape20"/>
    <use ffdec:characterId="30" height="8.25" transform="matrix(0.1233, -0.992, 0.992, 0.1233, 407.95, 121.4)" width="3.5" xlink:href="#shape20"/>
    <use ffdec:characterId="29" height="215.85" transform="matrix(0.1126, -0.9932, 0.4825, 0.055, 367.45, 109.7)" width="12.15" xlink:href="#shape19"/>
    <use ffdec:characterId="30" height="8.25" transform="matrix(0.1233, -0.992, 0.992, 0.1233, 323.85, 148.2)" width="3.5" xlink:href="#shape20"/>
    <use ffdec:characterId="30" height="8.25" transform="matrix(0.1233, -0.992, 0.992, 0.1233, 402.6, 158.15)" width="3.5" xlink:href="#shape20"/>
    <use ffdec:characterId="29" height="215.85" transform="matrix(0.1126, -0.9932, 0.4825, 0.055, 363.0, 146.85)" width="12.15" xlink:href="#shape19"/>
    <use ffdec:characterId="28" height="215.85" transform="matrix(0.1179, -0.9926, 0.4543, 0.0539, 358.05, 188.0)" width="12.15" xlink:href="#shape18"/>
    <use ffdec:characterId="30" height="8.25" transform="matrix(0.9926, 0.1179, -0.1179, 0.9926, 359.1, 110.6)" width="3.5" xlink:href="#shape20"/>
    <use ffdec:characterId="30" height="8.25" transform="matrix(0.9926, 0.1179, -0.1179, 0.9926, 354.3, 147.6)" width="3.5" xlink:href="#shape20"/>
    <use ffdec:characterId="30" height="8.25" transform="matrix(0.9926, 0.1179, -0.1179, 0.9926, 349.85, 185.3)" width="3.5" xlink:href="#shape20"/>
    <use ffdec:characterId="30" height="8.25" transform="matrix(0.9926, 0.1179, -0.1179, 0.9926, 345.95, 222.25)" width="3.5" xlink:href="#shape20"/>
    <use ffdec:characterId="29" height="215.85" transform="matrix(0.9767, 0.2101, -0.1035, 0.9688, 360.6, 163.5)" width="12.15" xlink:href="#shape19"/>
    <use ffdec:characterId="31" height="13.8" transform="matrix(-0.7773, -0.0923, -0.0923, 0.7773, 371.25, 72.85)" width="11.4" xlink:href="#shape21"/>
    <use ffdec:characterId="31" height="13.8" transform="matrix(0.7646, 0.0908, -0.0908, 0.7646, 371.55, 72.35)" width="11.4" xlink:href="#shape21"/>
    <use ffdec:characterId="31" height="13.8" transform="matrix(-0.7773, -0.0923, -0.0923, 0.7773, 364.9, 112.5)" width="11.4" xlink:href="#shape21"/>
    <use ffdec:characterId="31" height="13.8" transform="matrix(0.7646, 0.0908, -0.0908, 0.7646, 365.2, 112.0)" width="11.4" xlink:href="#shape21"/>
    <use ffdec:characterId="31" height="13.8" transform="matrix(-0.7773, -0.0923, -0.0923, 0.7773, 360.0, 149.05)" width="11.4" xlink:href="#shape21"/>
    <use ffdec:characterId="31" height="13.8" transform="matrix(0.7646, 0.0908, -0.0908, 0.7646, 360.3, 148.55)" width="11.4" xlink:href="#shape21"/>
    <use ffdec:characterId="31" height="13.8" transform="matrix(0.7773, 0.0923, -0.0923, 0.7773, 356.3, 186.6)" width="11.4" xlink:href="#shape21"/>
    <use ffdec:characterId="31" height="13.8" transform="matrix(-0.7646, -0.0908, -0.0908, 0.7646, 356.1, 186.1)" width="11.4" xlink:href="#shape21"/>
    <use ffdec:characterId="31" height="13.8" transform="matrix(-0.986, -0.1171, -0.0972, 0.8189, 352.1, 223.45)" width="11.4" xlink:href="#shape21"/>
    <use ffdec:characterId="31" height="13.8" transform="matrix(0.97, 0.1152, -0.0957, 0.8055, 352.5, 222.9)" width="11.4" xlink:href="#shape21"/>
    <use ffdec:characterId="31" height="13.8" transform="matrix(-0.7773, -0.0923, -0.0923, 0.7773, 329.5, 65.5)" width="11.4" xlink:href="#shape21"/>
    <use ffdec:characterId="31" height="13.8" transform="matrix(0.9926, 0.1179, -0.1179, 0.9926, 330.55, 65.55)" width="11.4" xlink:href="#shape21"/>
    <use ffdec:characterId="31" height="13.8" transform="matrix(-0.7773, -0.0923, -0.0923, 0.7773, 326.95, 105.6)" width="11.4" xlink:href="#shape21"/>
    <use ffdec:characterId="31" height="13.8" transform="matrix(0.9926, 0.1179, -0.1179, 0.9926, 328.0, 105.65)" width="11.4" xlink:href="#shape21"/>
    <use ffdec:characterId="31" height="13.8" transform="matrix(-0.7773, -0.0923, -0.0923, 0.7773, 323.65, 142.9)" width="11.4" xlink:href="#shape21"/>
    <use ffdec:characterId="31" height="13.8" transform="matrix(0.9926, 0.1179, -0.1179, 0.9926, 324.7, 142.95)" width="11.4" xlink:href="#shape21"/>
    <use ffdec:characterId="31" height="13.8" transform="matrix(0.7773, 0.0923, -0.0923, 0.7773, 319.75, 184.45)" width="11.4" xlink:href="#shape21"/>
    <use ffdec:characterId="31" height="13.8" transform="matrix(-0.9926, -0.1179, -0.1179, 0.9926, 318.7, 184.2)" width="11.4" xlink:href="#shape21"/>
    <use ffdec:characterId="31" height="13.8" transform="matrix(0.7773, 0.0923, -0.0923, 0.7773, 314.15, 221.85)" width="11.4" xlink:href="#shape21"/>
    <use ffdec:characterId="31" height="13.8" transform="matrix(-0.9926, -0.1179, -0.1179, 0.9926, 313.1, 221.6)" width="11.4" xlink:href="#shape21"/>
    <use ffdec:characterId="31" height="13.8" transform="matrix(0.7773, 0.0923, -0.0923, 0.7773, 307.9, 256.65)" width="11.4" xlink:href="#shape21"/>
    <use ffdec:characterId="31" height="13.8" transform="matrix(-0.9926, -0.1179, -0.1179, 0.9926, 306.85, 256.4)" width="11.4" xlink:href="#shape21"/>
    <use ffdec:characterId="30" height="8.25" transform="matrix(0.9926, 0.1179, -0.1179, 0.9926, 344.3, 257.6)" width="3.5" xlink:href="#shape20"/>
    <use ffdec:characterId="31" height="13.8" transform="matrix(-0.986, -0.1171, -0.0972, 0.8189, 350.9, 259.6)" width="11.4" xlink:href="#shape21"/>
    <use ffdec:characterId="31" height="13.8" transform="matrix(0.97, 0.1152, -0.0957, 0.8055, 351.3, 259.05)" width="11.4" xlink:href="#shape21"/>
    <use ffdec:characterId="31" height="13.8" transform="matrix(0.7773, 0.0923, -0.0923, 0.7773, 416.0, 75.85)" width="11.4" xlink:href="#shape21"/>
    <use ffdec:characterId="31" height="13.8" transform="matrix(-0.9926, -0.1179, -0.1179, 0.9926, 414.95, 75.6)" width="11.4" xlink:href="#shape21"/>
    <use ffdec:characterId="31" height="13.8" transform="matrix(0.7773, 0.0923, -0.0923, 0.7773, 409.05, 115.4)" width="11.4" xlink:href="#shape21"/>
    <use ffdec:characterId="31" height="13.8" transform="matrix(-0.9926, -0.1179, -0.1179, 0.9926, 408.0, 115.15)" width="11.4" xlink:href="#shape21"/>
    <use ffdec:characterId="31" height="13.8" transform="matrix(0.7773, 0.0923, -0.0923, 0.7773, 403.55, 152.45)" width="11.4" xlink:href="#shape21"/>
    <use ffdec:characterId="31" height="13.8" transform="matrix(-0.9926, -0.1179, -0.1179, 0.9926, 402.5, 152.2)" width="11.4" xlink:href="#shape21"/>
    <use ffdec:characterId="31" height="13.8" transform="matrix(-0.7773, -0.0923, -0.0923, 0.7773, 397.95, 193.85)" width="11.4" xlink:href="#shape21"/>
    <use ffdec:characterId="31" height="13.8" transform="matrix(0.9926, 0.1179, -0.1179, 0.9926, 399.0, 193.9)" width="11.4" xlink:href="#shape21"/>
    <use ffdec:characterId="31" height="13.8" transform="matrix(-0.7773, -0.0923, -0.0923, 0.7773, 394.5, 231.1)" width="11.4" xlink:href="#shape21"/>
    <use ffdec:characterId="31" height="13.8" transform="matrix(0.9926, 0.1179, -0.1179, 0.9926, 395.55, 231.15)" width="11.4" xlink:href="#shape21"/>
    <use ffdec:characterId="31" height="13.8" transform="matrix(-0.8727, -0.1036, -0.0762, 0.6421, 391.9, 266.25)" width="11.4" xlink:href="#shape21"/>
    <use ffdec:characterId="31" height="13.8" transform="matrix(1.1145, 0.1324, -0.0974, 0.82, 393.05, 266.3)" width="11.4" xlink:href="#shape21"/>
    <use ffdec:characterId="72" height="40.3" transform="matrix(1.0, 0.0, 0.0, 1.0, 335.45, 203.35)" width="40.3" xlink:href="#sprite17"/>
    <use ffdec:characterId="72" height="40.3" transform="matrix(1.0, 0.0, 0.0, 1.0, 332.5, 239.15)" width="40.3" xlink:href="#sprite17"/>
    <use ffdec:characterId="72" height="40.3" transform="matrix(1.0, 0.0, 0.0, 1.0, 339.55, 164.75)" width="40.3" xlink:href="#sprite17"/>
    <use ffdec:characterId="72" height="40.3" transform="matrix(1.0, 0.0, 0.0, 1.0, 344.55, 126.95)" width="40.3" xlink:href="#sprite17"/>
    <use ffdec:characterId="72" height="40.3" transform="matrix(1.0, 0.0, 0.0, 1.0, 348.75, 86.35)" width="40.3" xlink:href="#sprite17"/>
    <use ffdec:characterId="33" height="19.6" transform="matrix(1.0, 0.0, 0.0, 1.0, 214.95, 84.95)" width="19.5" xlink:href="#sprite18"/>
    <use ffdec:characterId="33" height="19.6" transform="matrix(1.0, 0.0, 0.0, 1.0, 254.95, 84.95)" width="19.5" xlink:href="#sprite18"/>
    <use ffdec:characterId="33" height="19.6" transform="matrix(1.0, 0.0, 0.0, 1.0, 254.95, 123.95)" width="19.5" xlink:href="#sprite18"/>
    <use ffdec:characterId="33" height="19.6" transform="matrix(1.0, 0.0, 0.0, 1.0, 214.75, 123.95)" width="19.5" xlink:href="#sprite18"/>
    <use ffdec:characterId="33" height="19.6" transform="matrix(1.0, 0.0, 0.0, 1.0, 214.75, 162.35)" width="19.5" xlink:href="#sprite18"/>
    <use ffdec:characterId="33" height="19.6" transform="matrix(1.0, 0.0, 0.0, 1.0, 254.35, 162.35)" width="19.5" xlink:href="#sprite18"/>
    <use ffdec:characterId="33" height="19.6" transform="matrix(1.0, 0.0, 0.0, 1.0, 254.35, 199.55)" width="19.5" xlink:href="#sprite18"/>
    <use ffdec:characterId="33" height="19.6" transform="matrix(1.0, 0.0, 0.0, 1.0, 214.75, 199.55)" width="19.5" xlink:href="#sprite18"/>
    <use ffdec:characterId="33" height="19.6" transform="matrix(1.0, 0.0, 0.0, 1.0, 214.75, 236.9)" width="19.5" xlink:href="#sprite18"/>
    <use ffdec:characterId="33" height="19.6" transform="matrix(1.0, 0.0, 0.0, 1.0, 255.55, 236.9)" width="19.5" xlink:href="#sprite18"/>
    <use ffdec:characterId="33" height="19.6" transform="matrix(1.0, 0.0, 0.0, 1.0, 332.35, 239.15)" width="19.5" xlink:href="#sprite18"/>
    <use ffdec:characterId="33" height="19.6" transform="matrix(1.0, 0.0, 0.0, 1.0, 335.95, 203.15)" width="19.5" xlink:href="#sprite18"/>
    <use ffdec:characterId="33" height="19.6" transform="matrix(1.0, 0.0, 0.0, 1.0, 339.55, 164.75)" width="19.5" xlink:href="#sprite18"/>
    <use ffdec:characterId="33" height="19.6" transform="matrix(1.0, 0.0, 0.0, 1.0, 344.8, 126.6)" width="19.5" xlink:href="#sprite18"/>
    <use ffdec:characterId="33" height="19.6" transform="matrix(1.0, 0.0, 0.0, 1.0, 348.75, 85.7)" width="19.5" xlink:href="#sprite19"/>
    <use ffdec:characterId="36" height="45.05" transform="matrix(1.0, 0.0, 0.0, 1.0, 238.0, 286.55)" width="53.25" xlink:href="#sprite20"/>
    <use ffdec:characterId="44" height="140.2" transform="matrix(0.1927, 0.0, 0.0, 0.1927, 126.15, 299.9)" width="221.4" xlink:href="#sprite21"/>
    <use ffdec:characterId="42" height="40.5" transform="matrix(0.9987, 0.0, 0.0, 0.9987, 489.55, 388.0)" width="54.45" xlink:href="#sprite22"/>
    <use ffdec:characterId="43" height="30.25" transform="matrix(1.0, 0.0, 0.0, 1.0, 0.0, 0.0)" width="46.35" xlink:href="#shape32"/>
    <use ffdec:characterId="44" height="140.2" transform="matrix(0.1927, 0.0, 0.0, 0.1927, 549.15, 349.9)" width="221.4" xlink:href="#sprite23"/>
    <use ffdec:characterId="45" height="157.25" transform="matrix(0.1927, 0.0, 0.0, 0.1927, 55.75, 280.6)" width="240.7" xlink:href="#sprite24"/>
    <use ffdec:characterId="44" height="140.2" transform="matrix(0.1927, 0.0, 0.0, 0.1927, 62.05, 264.85)" width="221.4" xlink:href="#sprite23"/>
    <use ffdec:characterId="45" height="157.25" transform="matrix(0.1927, 0.0, 0.0, 0.1927, 406.5, 351.7)" width="240.7" xlink:href="#sprite24"/>
    <use ffdec:characterId="44" height="140.2" transform="matrix(0.1927, 0.0, 0.0, 0.1927, 412.8, 335.95)" width="221.4" xlink:href="#sprite23"/>
    <use ffdec:characterId="101" height="0.2" transform="matrix(1.0, 0.0, 0.0, 1.0, 0.0, 0.0)" width="0.0" xlink:href="#shape33"/>
    <use ffdec:characterId="75" height="80.6" transform="matrix(1.0, 0.0, 0.0, 1.0, 477.4, 87.6)" width="74.6" xlink:href="#sprite25"/>
    <use ffdec:characterId="75" height="80.6" transform="matrix(1.0, 0.0, 0.0, 1.0, 549.35, 87.75)" width="74.6" xlink:href="#sprite26"/>
    <use ffdec:characterId="75" height="80.6" transform="matrix(1.0, 0.0, 0.0, 1.0, 522.3, 143.0)" width="74.6" xlink:href="#sprite27"/>
    <use ffdec:characterId="75" height="80.6" transform="matrix(1.0, 0.0, 0.0, 1.0, 448.35, 143.2)" width="74.6" xlink:href="#sprite28"/>
    <use ffdec:characterId="75" height="80.6" transform="matrix(1.0, 0.0, 0.0, 1.0, 466.35, 196.0)" width="74.6" xlink:href="#sprite29"/>
    <use ffdec:characterId="75" height="80.6" transform="matrix(1.0, 0.0, 0.0, 1.0, 552.4, 205.0)" width="74.6" xlink:href="#sprite30"/>
    <use ffdec:characterId="75" height="80.6" transform="matrix(1.0, 0.0, 0.0, 1.0, 434.1, 256.2)" width="74.6" xlink:href="#sprite31"/>
    <use ffdec:characterId="75" height="80.6" transform="matrix(1.0, 0.0, 0.0, 1.0, 497.45, 268.0)" width="74.6" xlink:href="#sprite32"/>
    <use ffdec:characterId="75" height="80.6" transform="matrix(1.0, 0.0, 0.0, 1.0, 466.1, 320.4)" width="74.6" xlink:href="#sprite33"/>
    <use ffdec:characterId="75" height="80.6" transform="matrix(1.0, 0.0, 0.0, 1.0, 537.8, 317.6)" width="74.6" xlink:href="#sprite34"/>
    <use ffdec:characterId="102" height="0.2" transform="matrix(1.0, 0.0, 0.0, 1.0, 0.0, 0.0)" width="0.0" xlink:href="#shape44"/>
    <use ffdec:characterId="103" height="52.55" transform="matrix(1.0, 0.0, 0.0, 1.0, 477.4, 87.6)" width="59.25" xlink:href="#sprite35"/>
    <use ffdec:characterId="104" height="52.55" transform="matrix(1.0, 0.0, 0.0, 1.0, 549.15, 87.75)" width="59.25" xlink:href="#sprite36"/>
    <use ffdec:characterId="105" height="52.55" transform="matrix(1.0, 0.0, 0.0, 1.0, 448.35, 143.2)" width="59.25" xlink:href="#sprite37"/>
    <use ffdec:characterId="106" height="52.55" transform="matrix(1.0, 0.0, 0.0, 1.0, 522.1, 143.0)" width="59.25" xlink:href="#sprite38"/>
    <use ffdec:characterId="107" height="52.35" transform="matrix(1.0, 0.0, 0.0, 1.0, 466.15, 196.0)" width="59.25" xlink:href="#sprite39"/>
    <use ffdec:characterId="108" height="52.55" transform="matrix(1.0, 0.0, 0.0, 1.0, 552.2, 205.0)" width="59.25" xlink:href="#sprite40"/>
    <use ffdec:characterId="109" height="52.55" transform="matrix(1.0, 0.0, 0.0, 1.0, 434.1, 256.2)" width="59.25" xlink:href="#sprite41"/>
    <use ffdec:characterId="110" height="52.55" transform="matrix(1.0, 0.0, 0.0, 1.0, 497.25, 268.0)" width="59.25" xlink:href="#sprite42"/>
    <use ffdec:characterId="111" height="52.55" transform="matrix(1.0, 0.0, 0.0, 1.0, 465.45, 320.45)" width="59.25" xlink:href="#sprite43"/>
    <use ffdec:characterId="112" height="52.55" transform="matrix(1.0, 0.0, 0.0, 1.0, 537.8, 317.6)" width="59.25" xlink:href="#sprite44"/>
  </g>
  <defs>
    <g id="shape0">
      <path d="M108.3 307.6 L116.3 301.35 145.2 304.05 Q130.1 319.8 117.1 320.2 99.65 317.5 108.3 307.6" fill="#000000" fill-opacity="0.3019608" fill-rule="evenodd" stroke="none"/>
    </g>
    <g id="sprite0">
      <use ffdec:characterId="6" height="81.2" transform="matrix(1.0, 0.0, 0.0, 1.0, 0.0, 0.0)" width="64.4" xlink:href="#morphshape0"/>
      <use ffdec:characterId="5" height="13.4" transform="matrix(-0.8349, 0.4315, 0.4315, 0.8349, -22.4, -42.55)" width="13.4" xlink:href="#sprite1"/>
      <use ffdec:characterId="5" height="13.4" transform="matrix(-0.8349, 0.4315, 0.4315, 0.8349, 36.4, -52.85)" width="13.4" xlink:href="#sprite1"/>
    </g>
    <g id="morphshape0">
      <path d="M-22.4 -42.5 Q1.85 -28.5 8.05 -2.1 14.25 24.25 18.65 24.7 23.0 25.15 31.0 0.15 38.95 -24.9 36.35 -52.7" fill="none" stroke="#ff0000" stroke-linecap="round" stroke-linejoin="round" stroke-width="2.0"/>
    </g>
    <g id="sprite1">
      <use ffdec:characterId="4" height="13.4" transform="matrix(1.0, 0.0, 0.0, 1.0, 0.0, 0.0)" width="13.4" xlink:href="#shape1"/>
    </g>
    <g id="shape1">
      <path d="M4.75 -4.75 Q6.7 -2.8 6.7 0.0 6.7 2.8 4.75 4.75 2.8 6.7 0.0 6.7 -2.8 6.7 -4.75 4.75 -6.7 2.8 -6.7 0.0 -6.7 -2.8 -4.75 -4.75 -2.8 -6.7 0.0 -6.7 2.8 -6.7 4.75 -4.75" fill="url(#gradient0)" fill-rule="evenodd" stroke="none"/>
    </g>
    <radialGradient cx="0" cy="0" gradientTransform="matrix(0.0105, 0.0, 0.0, 0.0105, -1.1, -1.5)" gradientUnits="userSpaceOnUse" id="gradient0" r="819.2" spreadMethod="pad">
      <stop offset="0.0" stop-color="#fbf6e7"/>
      <stop offset="0.4588235294117647" stop-color="#ffa737"/>
      <stop offset="1.0" stop-color="#b54200"/>
    </radialGradient>
    <g id="sprite2">
      <use ffdec:characterId="9" height="110.0" transform="matrix(-1.2943, 0.2125, 0.2125, 1.2943, -7.75, 24.9)" width="79.15" xlink:href="#shape2"/>
    </g>
    <g id="shape2">
      <path d="M-33.45 41.1 Q-34.85 39.15 -36.65 35.0 -38.95 29.85 -39.0 26.9 4.25 37.5 24.75 30.5 22.0 36.6 16.2 43.0 -1.1 61.9 -33.45 41.1 M-35.25 8.75 L-31.4 1.45 Q-28.85 -3.05 -25.0 -7.15 -11.8 -11.25 -0.3 -12.55 9.05 -10.85 24.85 9.45 8.35 17.8 -35.25 8.75 M-15.6 -23.95 L-6.95 -50.9 Q-1.0 -59.45 4.05 -49.65 L7.3 -41.8 Q9.95 -34.4 9.35 -28.3 -0.5 -29.9 -15.6 -23.95" fill="#ef0000" fill-rule="evenodd" stroke="none"/>
      <path d="M13.65 -27.15 Q11.8 -27.9 9.35 -28.3 9.95 -34.4 7.3 -41.8 10.8 -33.4 13.65 -27.15 M-0.3 -12.55 Q13.15 -14.05 24.4 -11.55 31.4 -4.0 33.7 -0.25 L33.55 0.1 Q31.4 6.15 24.85 9.45 9.05 -10.85 -0.3 -12.55 M39.75 18.65 Q41.05 22.95 37.95 31.2 34.85 39.45 25.7 46.75 16.55 54.0 7.9 54.75 -5.65 56.15 -18.6 51.9 -27.95 48.85 -33.45 41.1 -1.1 61.9 16.2 43.0 22.0 36.6 24.75 30.5 27.45 29.6 33.1 25.1 38.65 20.65 39.75 18.65" fill="#970000" fill-rule="evenodd" stroke="none"/>
      <path d="M13.65 -27.15 Q18.15 -19.4 24.4 -11.55 13.15 -14.05 -0.3 -12.55 L-0.35 -12.65 Q8.4 -19.05 9.35 -28.3 11.8 -27.9 13.65 -27.15 M34.0 0.3 Q39.1 12.2 39.75 18.65 38.65 20.65 33.1 25.1 27.45 29.6 24.75 30.5 29.55 19.6 24.85 9.45 31.4 6.15 33.55 0.1 L34.0 0.3" fill="#000066" fill-rule="evenodd" stroke="none"/>
      <path d="M9.35 -28.3 Q8.4 -19.05 -0.35 -12.65 L-0.3 -12.55 Q-11.8 -11.25 -25.0 -7.15 -19.95 -12.55 -15.6 -23.95 -0.5 -29.9 9.35 -28.3 M33.7 -0.25 L34.0 0.3 33.55 0.1 33.7 -0.25 M-39.0 26.9 Q-39.15 15.65 -35.25 8.75 8.35 17.8 24.85 9.45 29.55 19.6 24.75 30.5 4.25 37.5 -39.0 26.9" fill="#0000db" fill-rule="evenodd" stroke="none"/>
      <path d="M-16.55 -8.35 Q-29.85 7.95 -28.5 24.3 -27.6 35.25 -21.9 41.45 -51.3 21.8 -23.3 -6.6 -11.85 -18.15 -9.9 -28.0 -8.35 -18.35 -16.55 -8.35" fill="#ffffff" fill-opacity="0.4117647" fill-rule="evenodd" stroke="none"/>
    </g>
    <g id="sprite3">
      <use ffdec:characterId="11" height="21.8" transform="matrix(1.0, 0.0, 0.0, 1.0, 0.0, 0.0)" width="21.85" xlink:href="#shape3"/>
    </g>
    <g id="shape3">
      <path d="M6.75 -8.5 Q10.3 -5.7 10.85 -1.25 11.35 3.2 8.55 6.75 5.75 10.3 1.25 10.8 -3.2 11.3 -6.7 8.55 -10.25 5.7 -10.8 1.25 -11.3 -3.2 -8.5 -6.75 -5.7 -10.3 -1.2 -10.8 3.2 -11.35 6.75 -8.5" fill="url(#gradient1)" fill-rule="evenodd" stroke="none"/>
    </g>
    <radialGradient cx="0" cy="0" gradientTransform="matrix(0.0187, 0.0, 0.0, 0.0187, -3.75, -2.45)" gradientUnits="userSpaceOnUse" id="gradient1" r="819.2" spreadMethod="pad">
      <stop offset="0.25098039215686274" stop-color="#ffffff"/>
      <stop offset="0.8549019607843137" stop-color="#8eb5f8"/>
      <stop offset="0.996078431372549" stop-color="#0859d4"/>
    </radialGradient>
    <g id="sprite4">
      <use ffdec:characterId="19" height="5.7" transform="matrix(1.0482, -0.3322, 0.3322, 1.0482, 10.2, 3.35)" width="5.8" xlink:href="#sprite5"/>
      <use ffdec:characterId="19" height="5.7" transform="matrix(0.8685, 0.7934, -0.7934, 0.8685, -9.45, -2.45)" width="5.8" xlink:href="#sprite5"/>
    </g>
    <g id="sprite5">
      <use ffdec:characterId="18" height="5.7" transform="matrix(1.0, 0.0, 0.0, 1.0, 0.0, 0.0)" width="5.8" xlink:href="#shape4"/>
    </g>
    <g id="shape4">
      <path d="M1.65 -2.2 Q2.65 -1.45 2.85 -0.25 3.0 0.95 2.3 1.85 1.6 2.75 0.45 2.85 -0.75 2.95 -1.7 2.25 -2.7 1.45 -2.85 0.25 -3.05 -0.95 -2.3 -1.85 -1.65 -2.75 -0.45 -2.85 0.7 -2.95 1.65 -2.2 M0.85 -2.05 L0.0 -2.3 Q-0.45 -2.25 -0.7 -1.9 L-0.9 -1.1 Q-0.85 -0.65 -0.45 -0.35 -0.1 -0.05 0.35 -0.1 0.8 -0.15 1.05 -0.45 1.35 -0.85 1.3 -1.3 L0.85 -2.05" fill="#000000" fill-rule="evenodd" stroke="none"/>
      <path d="M0.85 -2.05 L1.3 -1.3 Q1.35 -0.85 1.05 -0.45 0.8 -0.15 0.35 -0.1 -0.1 -0.05 -0.45 -0.35 -0.85 -0.65 -0.9 -1.1 L-0.7 -1.9 Q-0.45 -2.25 0.0 -2.3 L0.85 -2.05" fill="#ffffff" fill-rule="evenodd" stroke="none"/>
    </g>
    <g id="sprite6">
      <use ffdec:characterId="13" height="26.3" transform="matrix(1.0, 0.0, 0.0, 1.0, 0.0, 0.0)" width="55.25" xlink:href="#shape5"/>
    </g>
    <g id="shape5">
      <path d="M-12.5 0.8 Q-11.5 -2.45 -7.7 -2.95 -3.7 -3.05 -2.6 1.3 -0.4 9.15 4.3 8.45 6.6 8.2 8.1 7.15 6.5 8.8 3.5 9.15 -1.25 9.85 -3.4 2.0 -4.55 -2.4 -8.55 -2.25 -11.55 -1.8 -12.5 0.8 M-23.65 -5.45 Q-25.25 -3.9 -25.35 -1.9 -26.65 11.35 -17.7 10.65 -16.4 10.55 -15.35 9.85 -16.65 11.2 -18.5 11.3 -27.45 12.05 -26.15 -1.2 -26.0 -3.7 -23.65 -5.45" fill="#9f9f9f" fill-rule="evenodd" stroke="none"/>
      <path d="M8.05 -8.8 L9.2 -7.85 Q9.95 -7.05 10.55 -5.4 11.8 -1.9 11.7 3.35 L11.75 3.35 11.2 6.15 Q10.45 8.3 8.15 9.8 6.4 10.95 2.45 11.05 -2.05 11.05 -4.15 4.4 -5.35 -0.4 -8.3 -0.1 -11.25 0.2 -11.55 5.15 -12.5 12.1 -16.95 12.75 -29.2 15.7 -27.75 -1.35 -27.6 -3.2 -24.8 -6.4 -20.55 -9.7 -10.0 -10.7 2.0 -11.9 6.8 -9.55 L8.05 -8.8 M21.3 6.45 Q15.75 6.8 15.35 0.55 L16.5 -1.4 16.45 -4.1 Q19.65 0.05 25.6 1.45 L21.3 6.45 M15.05 -6.75 L15.3 -5.8 Q15.8 -3.5 15.7 -1.1 L15.4 -0.65 15.2 -0.4 14.8 0.15 13.85 1.15 Q13.95 -1.9 13.15 -5.0 L14.2 -5.75 14.5 -6.0 14.9 -6.55 15.05 -6.75 M-12.5 0.8 Q-11.55 -1.8 -8.55 -2.25 -4.55 -2.4 -3.4 2.0 -1.25 9.85 3.5 9.15 6.5 8.8 8.1 7.15 11.25 3.85 8.85 -4.65 7.2 -11.05 -8.65 -9.5 L-9.8 -9.4 Q-19.75 -8.4 -23.65 -5.45 -26.0 -3.7 -26.15 -1.2 -27.45 12.05 -18.5 11.3 -16.65 11.2 -15.35 9.85 -13.45 7.8 -12.95 2.9 -12.9 1.7 -12.5 0.8" fill="#333333" fill-rule="evenodd" stroke="none"/>
      <path d="M6.8 -9.55 Q2.0 -11.9 -10.0 -10.7 -20.55 -9.7 -24.8 -6.4 -22.2 -8.55 -19.05 -9.9 -14.65 -11.9 -6.75 -12.7 4.9 -13.85 9.7 -11.7 L6.8 -9.55" fill="#ffb871" fill-rule="evenodd" stroke="none"/>
      <path d="M8.05 -8.8 L6.8 -9.55 9.7 -11.7 11.05 -11.0 8.05 -8.8" fill="#ffa851" fill-rule="evenodd" stroke="none"/>
      <path d="M9.2 -7.85 L8.05 -8.8 11.05 -11.0 12.2 -10.05 9.2 -7.85" fill="#ff9933" fill-rule="evenodd" stroke="none"/>
      <path d="M11.2 6.15 L11.75 3.35 12.85 3.35 14.65 1.4 Q14.45 2.95 13.9 4.25 L11.2 6.15" fill="#f27900" fill-rule="evenodd" stroke="none"/>
      <path d="M10.55 -5.4 Q9.95 -7.05 9.2 -7.85 L12.2 -10.05 Q13.1 -9.15 13.6 -7.95 12.3 -6.5 10.55 -5.4" fill="#ff8d1c" fill-rule="evenodd" stroke="none"/>
      <path d="M8.15 9.8 Q10.45 8.3 11.2 6.15 L13.9 4.25 Q12.35 7.95 8.15 9.8" fill="#df7000" fill-rule="evenodd" stroke="none"/>
      <path d="M16.1 -6.4 Q19.4 -0.7 27.35 1.25 L23.1 6.2 21.3 6.45 25.6 1.45 Q19.65 0.05 16.45 -4.1 L16.1 -6.4" fill="#666666" fill-rule="evenodd" stroke="none"/>
      <path d="M13.6 -7.95 L14.0 -8.5 15.45 -8.75 15.45 -8.7 Q13.3 -6.0 11.95 -5.25 L10.55 -5.4 Q12.3 -6.5 13.6 -7.95" fill="#ffff99" fill-rule="evenodd" stroke="none"/>
      <path d="M11.75 3.35 L11.7 3.35 Q11.8 -1.9 10.55 -5.4 L11.95 -5.25 Q13.4 -1.0 12.85 3.35 L11.75 3.35" fill="#cc9900" fill-rule="evenodd" stroke="none"/>
      <path d="M11.95 -5.25 Q13.3 -6.0 15.45 -8.7 L16.1 -6.4 16.45 -4.1 16.5 -1.4 15.35 0.55 14.65 1.4 12.85 3.35 Q13.4 -1.0 11.95 -5.25 M15.05 -6.75 L14.9 -6.55 14.5 -6.0 14.2 -5.75 13.15 -5.0 Q13.95 -1.9 13.85 1.15 L14.8 0.15 15.2 -0.4 15.4 -0.65 15.7 -1.1 Q15.8 -3.5 15.3 -5.8 L15.05 -6.75" fill="#ffcc00" fill-rule="evenodd" stroke="none"/>
    </g>
    <g id="shape6">
      <path d="M-0.05 -4.8 Q0.7 -4.85 0.75 -4.25 0.2 1.05 2.75 4.1 L0.3 3.85 -0.15 3.9 -3.25 4.3 Q0.3 0.5 -0.5 -4.2 L-0.55 -4.45 -0.05 -4.8" fill="#fbc115" fill-rule="evenodd" stroke="none"/>
      <path d="M-0.05 -4.8 L0.4 -4.85 Q1.4 -4.9 1.4 -4.2 1.05 1.5 4.65 4.7 L3.75 4.35 2.75 4.1 Q0.2 1.05 0.75 -4.25 0.7 -4.85 -0.05 -4.8" fill="#e98c01" fill-rule="evenodd" stroke="none"/>
      <path d="M-3.25 4.3 L-4.7 4.8 Q-0.25 0.45 -0.6 -4.2 L-0.55 -4.45 -0.5 -4.2 Q0.3 0.5 -3.25 4.3" fill="#ffffff" fill-rule="evenodd" stroke="none"/>
    </g>
    <g id="shape7">
      <path d="M0.6 -4.7 Q2.95 -4.55 4.65 -3.45 L5.25 -3.0 Q7.1 -1.45 6.85 0.55 6.55 2.55 4.35 3.9 L2.55 4.7 -0.7 5.05 Q-3.55 4.9 -5.4 3.4 -7.2 1.85 -6.95 -0.2 -6.7 -2.2 -4.5 -3.5 -2.3 -4.85 0.6 -4.7" fill="url(#gradient2)" fill-rule="evenodd" stroke="none"/>
      <path d="M5.4 -5.3 L5.9 -5.05 5.4 -5.3" fill="#ffc357" fill-rule="evenodd" stroke="none"/>
      <path d="M0.6 -4.7 Q-2.3 -4.85 -4.5 -3.5 -6.7 -2.2 -6.95 -0.2 -7.2 1.85 -5.4 3.4 -3.55 4.9 -0.7 5.05 L2.55 4.7 4.35 3.9 Q6.55 2.55 6.85 0.55 7.1 -1.45 5.25 -3.0 L4.65 -3.45 Q2.95 -4.55 0.6 -4.7 M5.9 -5.05 Q6.95 -4.5 7.9 -3.4 L8.55 -2.5 9.0 -1.55 9.2 0.1 9.15 0.5 Q8.75 3.15 5.85 4.95 3.1 6.55 -0.4 6.5 L-0.85 6.45 -0.9 6.45 Q-4.05 6.1 -6.25 4.4 -8.75 2.35 -8.5 -0.25 -8.25 -2.9 -5.4 -4.6 -2.9 -6.15 0.3 -6.2 L1.3 -6.15 Q3.55 -6.05 5.4 -5.3 L5.9 -5.05" fill="#fbc115" fill-rule="evenodd" stroke="none"/>
      <path d="M-0.9 6.45 Q-4.7 6.3 -7.15 4.25 -9.6 2.2 -9.2 -0.45 -8.9 -3.15 -5.95 -4.9 -3.4 -6.45 -0.2 -6.5 L1.85 -6.4 Q3.8 -6.15 5.4 -5.3 3.55 -6.05 1.3 -6.15 L0.3 -6.2 Q-2.9 -6.15 -5.4 -4.6 -8.25 -2.9 -8.5 -0.25 -8.75 2.35 -6.25 4.4 -4.05 6.1 -0.9 6.45" fill="#ffffff" fill-rule="evenodd" stroke="none"/>
    </g>
    <radialGradient cx="0" cy="0" gradientTransform="matrix(-3.0E-4, 0.0104, 0.0158, 5.0E-4, 0.65, -4.15)" gradientUnits="userSpaceOnUse" id="gradient2" r="819.2" spreadMethod="pad">
      <stop offset="0.0" stop-color="#000000"/>
      <stop offset="0.5254901960784314" stop-color="#ab280e"/>
      <stop offset="1.0" stop-color="#ff871b"/>
    </radialGradient>
    <g id="shape8">
      <path d="M1.4 -10.35 L2.9 -9.3 Q1.75 0.55 5.75 11.05 L-9.35 11.05 Q-2.55 1.05 -4.1 -9.5 L-1.9 -10.75 Q-1.2 -11.1 0.2 -10.75 L1.4 -10.35" fill="url(#gradient3)" fill-rule="evenodd" stroke="none"/>
    </g>
    <linearGradient gradientTransform="matrix(0.0, 0.0085, -0.0094, -1.0E-4, 0.2, -1.0)" gradientUnits="userSpaceOnUse" id="gradient3" spreadMethod="pad" x1="-819.2" x2="819.2">
      <stop offset="0.0" stop-color="#ff0000"/>
      <stop offset="1.0" stop-color="#ef0000" stop-opacity="0.0"/>
    </linearGradient>
    <g id="sprite7">
      <use ffdec:characterId="47" height="298.6" transform="matrix(1.0, 0.0, 0.0, 1.0, 0.1, 0.05)" width="6.6" xlink:href="#sprite8"/>
      <use ffdec:characterId="47" height="298.6" transform="matrix(1.0, 0.0, 0.0, 1.0, 0.1, 0.05)" width="6.6" xlink:href="#sprite9"/>
    </g>
    <g id="sprite8">
      <use ffdec:characterId="46" height="14.15" transform="matrix(-0.2205, 0.0, 0.0, 0.2205, 0.0, -118.0)" width="14.15" xlink:href="#shape9"/>
    </g>
    <g id="shape9">
      <path d="M-4.7 -2.85 Q-3.05 -5.5 0.1 -5.3 -4.45 -2.9 -4.8 2.75 -6.35 -0.3 -4.7 -2.85" fill="#dbe8fb" fill-rule="evenodd" stroke="none"/>
      <path d="M4.45 -4.55 Q6.35 -2.65 6.35 0.05 6.35 2.8 4.45 4.7 2.5 6.6 -0.2 6.65 -1.75 6.65 -3.0 6.05 L-4.85 4.7 Q-6.8 2.8 -6.8 0.05 -6.8 -2.65 -4.85 -4.55 -2.95 -6.5 -0.2 -6.5 L2.2 -6.05 Q3.4 -5.6 4.45 -4.55 Z" ffdec:has-small-stroke="true" ffdec:original-stroke-width="1.0" fill="none" stroke="#dbe8fb" stroke-linecap="round" stroke-linejoin="round" stroke-width="4.535363321799308"/>
    </g>
    <g id="sprite9">
      <use ffdec:characterId="46" height="14.15" transform="matrix(-0.0898, 0.0, 0.0, 0.0898, 0.0, -25.3)" width="14.15" xlink:href="#shape10"/>
    </g>
    <g id="shape10">
      <path d="M-4.7 -2.85 Q-3.05 -5.5 0.1 -5.3 -4.45 -2.9 -4.8 2.75 -6.35 -0.3 -4.7 -2.85" fill="#dbe8fb" fill-rule="evenodd" stroke="none"/>
      <path d="M4.45 -4.55 Q6.35 -2.65 6.35 0.05 6.35 2.8 4.45 4.7 2.5 6.6 -0.2 6.65 -1.75 6.65 -3.0 6.05 L-4.85 4.7 Q-6.8 2.8 -6.8 0.05 -6.8 -2.65 -4.85 -4.55 -2.95 -6.5 -0.2 -6.5 L2.2 -6.05 Q3.4 -5.6 4.45 -4.55 Z" ffdec:has-small-stroke="true" ffdec:original-stroke-width="1.0" fill="none" stroke="#dbe8fb" stroke-linecap="round" stroke-linejoin="round" stroke-width="11.130434782608695"/>
    </g>
    <g id="sprite10">
      <use ffdec:characterId="78" height="265.0" transform="matrix(1.0, 0.0, 0.0, 1.0, 0.0, 0.0)" width="159.95" xlink:href="#shape11"/>
      <use ffdec:characterId="79" height="362.0" transform="matrix(1.0, 0.0, 0.0, 1.0, -49.6, -85.45)" width="264.3" xlink:href="#sprite11"/>
    </g>
    <g id="shape11">
      <path d="M44.95 -86.8 L80.0 -120.8 80.0 144.2 44.95 125.2 44.95 -86.8" fill="url(#gradient4)" fill-rule="evenodd" stroke="none"/>
      <path d="M80.0 -120.8 L44.95 -86.8 -35.0 -86.8 -79.95 -120.8 80.0 -120.8" fill="url(#gradient5)" fill-rule="evenodd" stroke="none"/>
      <path d="M-79.95 -120.8 L-35.0 -86.8 -35.0 125.2 -79.95 143.2 -79.95 -120.8" fill="url(#gradient6)" fill-rule="evenodd" stroke="none"/>
    </g>
    <linearGradient gradientTransform="matrix(0.0214, 0.0, 0.0, 0.1501, 62.5, 2.2)" gradientUnits="userSpaceOnUse" id="gradient4" spreadMethod="pad" x1="-819.2" x2="819.2">
      <stop offset="0.0" stop-color="#ffffff"/>
      <stop offset="1.0" stop-color="#ffffff" stop-opacity="0.0"/>
    </linearGradient>
    <linearGradient gradientTransform="matrix(0.0, -0.0208, 0.0208, 0.0, 0.05, -103.8)" gradientUnits="userSpaceOnUse" id="gradient5" spreadMethod="pad" x1="-819.2" x2="819.2">
      <stop offset="0.0" stop-color="#ffffff"/>
      <stop offset="1.0" stop-color="#ffffff" stop-opacity="0.0"/>
    </linearGradient>
    <linearGradient gradientTransform="matrix(-0.0274, 0.0, 0.0, -0.1501, -57.5, 2.2)" gradientUnits="userSpaceOnUse" id="gradient6" spreadMethod="pad" x1="-819.2" x2="819.2">
      <stop offset="0.0" stop-color="#ffffff"/>
      <stop offset="1.0" stop-color="#ffffff" stop-opacity="0.0"/>
    </linearGradient>
    <g id="sprite11">
      <use ffdec:characterId="68" height="140.7" transform="matrix(0.7645, 0.0, 0.0, 0.7645, 43.45, -17.65)" width="140.8" xlink:href="#sprite12"/>
    </g>
    <g id="sprite12">
      <use ffdec:characterId="65" height="100.0" transform="matrix(0.1704, -0.9848, 0.9848, 0.1704, 0.0, 0.0)" width="100.0" xlink:href="#sprite13"/>
    </g>
    <g id="sprite13">
      <use ffdec:characterId="63" height="100.0" transform="matrix(0.6588, 0.0, 0.0, 1.0, -0.15, -0.15)" width="8.55" xlink:href="#shape12"/>
      <use ffdec:characterId="63" height="100.0" transform="matrix(-0.0024, -0.4651, 1.0, -0.0052, -0.05, 0.1)" width="8.55" xlink:href="#shape12"/>
      <use ffdec:characterId="64" height="48.6" transform="matrix(1.0, 0.0, 0.0, 1.0, 0.1, 0.1)" width="48.6" xlink:href="#shape13"/>
    </g>
    <g id="shape12">
      <path d="M-4.25 -0.25 Q-1.0 -6.5 0.0 -50.0 1.05 -6.5 4.3 -0.25 1.05 6.5 0.0 50.0 -1.0 6.5 -4.25 -0.25" fill="#ffffff" fill-rule="evenodd" stroke="none"/>
    </g>
    <g id="shape13">
      <path d="M17.2 -17.2 Q24.3 -10.15 24.3 0.0 24.3 10.1 17.2 17.2 10.1 24.25 0.0 24.3 -10.1 24.25 -17.2 17.2 -24.3 10.1 -24.3 0.0 -24.3 -10.15 -17.2 -17.2 -10.1 -24.3 0.0 -24.3 10.1 -24.3 17.2 -17.2" fill="url(#gradient7)" fill-rule="evenodd" stroke="none"/>
    </g>
    <radialGradient cx="0" cy="0" gradientTransform="matrix(0.0312, 0.0, 0.0, 0.0312, 0.35, -0.35)" gradientUnits="userSpaceOnUse" id="gradient7" r="819.2" spreadMethod="pad">
      <stop offset="0.0" stop-color="#ffffff"/>
      <stop offset="1.0" stop-color="#ffffff" stop-opacity="0.0"/>
    </radialGradient>
    <g id="sprite14">
      <use ffdec:characterId="21" height="59.55" transform="matrix(1.0, 0.0, 0.0, 1.0, 0.0, 0.0)" width="91.0" xlink:href="#shape14"/>
      <use ffdec:characterId="22" height="8.5" transform="matrix(1.1329, 0.0, 0.0, 0.7952, 0.2, 1.7)" width="76.7" xlink:href="#shape15"/>
      <use ffdec:characterId="22" height="8.5" transform="matrix(-1.1199, 0.0, 0.0, -0.7952, 0.55, -11.95)" width="76.7" xlink:href="#shape15"/>
      <use ffdec:characterId="22" height="8.5" transform="matrix(-1.1199, 0.0, 0.0, -0.7952, 1.6, 6.1)" width="76.7" xlink:href="#shape15"/>
      <use ffdec:characterId="22" height="8.5" transform="matrix(1.1199, 0.0, 0.0, 0.7952, 0.9, 28.85)" width="76.7" xlink:href="#shape15"/>
      <use ffdec:characterId="22" height="8.5" transform="matrix(-1.1484, 0.0, 0.0, -0.7952, 1.0, -36.2)" width="76.7" xlink:href="#shape15"/>
      <use ffdec:characterId="22" height="8.5" transform="matrix(1.1484, 0.0, 0.0, 0.7952, 0.3, -14.65)" width="76.7" xlink:href="#shape15"/>
    </g>
    <g id="shape14">
      <path d="M-44.0 23.0 L-45.5 22.75 Q-44.2 16.55 -44.0 9.55 -43.65 2.85 -44.3 -7.5 -44.85 -15.6 -44.7 -33.85 L-43.2 -33.85 -43.25 -7.95 -16.45 -6.05 -43.55 -5.8 Q-39.95 1.5 -42.7 7.75 L-32.8 9.55 Q-35.8 10.65 -43.0 9.55 -41.3 16.25 -44.0 23.0" fill="#d28a10" fill-rule="evenodd" stroke="none"/>
      <path d="M-44.0 23.0 Q-41.3 16.25 -43.0 9.55 -35.8 10.65 -32.8 9.55 L-42.7 7.75 Q-39.95 1.5 -43.55 -5.8 L-16.45 -6.05 -43.25 -7.95 -43.2 -33.85 Q13.7 -39.6 45.5 -33.05 43.5 -5.65 43.6 5.2 38.7 7.5 32.15 8.0 L43.65 8.0 Q42.95 16.55 44.95 23.0 L-44.0 23.0" fill="#edab3c" fill-rule="evenodd" stroke="none"/>
    </g>
    <g id="shape15">
      <path d="M5.85 -14.1 Q-19.5 -19.25 -38.35 -18.6 L-38.35 -20.3 Q7.75 -19.75 38.35 -15.15 L38.35 -11.85 Q24.6 -11.4 5.85 -14.1" fill="#d28a10" fill-opacity="0.4392157" fill-rule="evenodd" stroke="none"/>
    </g>
    <g id="sprite15">
      <use ffdec:characterId="24" height="58.65" transform="matrix(1.0, 0.0, 0.0, 1.0, 0.0, 0.0)" width="71.1" xlink:href="#shape16"/>
    </g>
    <g id="shape16">
      <path d="M29.7 29.35 Q-1.25 24.3 -35.55 21.85 -29.85 -2.1 -29.75 -29.3 L35.55 -21.45 Q30.2 4.2 29.7 29.35" fill="#fffbf0" fill-rule="evenodd" stroke="none"/>
    </g>
    <g id="sprite16">
      <use ffdec:characterId="26" height="222.05" transform="matrix(1.0, 0.0, 0.0, 1.0, 0.0, 0.0)" width="102.35" xlink:href="#shape17"/>
    </g>
    <g id="shape17">
      <path d="M-52.45 -111.15 Q-28.3 -106.8 48.15 -110.2 40.5 -2.1 46.55 110.9 -3.95 106.25 -54.2 110.15 -46.3 6.7 -52.45 -111.15" fill="#0000ab" fill-rule="evenodd" stroke="none"/>
    </g>
    <g id="shape18">
      <path d="M-2.65 -107.9 L-2.1 -107.9 Q1.25 -107.85 1.7 -105.3 9.55 8.8 3.4 104.05 2.95 107.0 -1.6 107.95 8.15 89.2 -2.65 -107.9" fill="#f7be66" fill-rule="evenodd" stroke="none"/>
      <path d="M-1.6 107.95 Q-6.5 107.4 -6.0 104.15 1.85 8.8 -6.0 -105.3 -5.5 -107.8 -2.65 -107.9 8.15 89.2 -1.6 107.95" fill="#d28a10" fill-rule="evenodd" stroke="none"/>
    </g>
    <g id="shape19">
      <path d="M2.7 -107.9 Q5.55 -107.8 6.05 -105.3 -1.8 8.8 6.05 104.15 6.55 107.4 1.65 107.95 -8.1 89.2 2.7 -107.9" fill="#f7be66" fill-rule="evenodd" stroke="none"/>
      <path d="M1.65 107.95 Q-2.9 107.0 -3.35 104.05 -9.5 8.8 -1.65 -105.3 -1.2 -107.85 2.15 -107.9 L2.7 -107.9 Q-8.1 89.2 1.65 107.95" fill="#d28a10" fill-rule="evenodd" stroke="none"/>
    </g>
    <g id="shape20">
      <path d="M0.2 -4.15 L2.45 -4.15 Q3.8 0.05 2.55 4.0 L-0.35 4.1 Q0.8 2.1 0.2 -4.15" fill="#000000" fill-opacity="0.3019608" fill-rule="evenodd" stroke="none"/>
    </g>
    <g id="shape21">
      <path d="M-4.5 -7.25 Q-0.3 -2.9 5.3 5.1 5.35 6.8 3.85 6.3 -1.05 -1.1 -5.95 -5.8 -6.65 -7.95 -4.5 -7.25" fill="#391000" fill-rule="evenodd" stroke="none"/>
    </g>
    <g id="sprite17">
      <use ffdec:characterId="71" height="40.3" transform="matrix(1.0, 0.0, 0.0, 1.0, 0.0, 0.0)" width="40.3" xlink:href="#shape22"/>
    </g>
    <g id="shape22">
      <path d="M14.25 -14.25 Q20.15 -8.35 20.15 0.0 20.15 8.35 14.25 14.25 8.35 20.15 0.0 20.15 -8.35 20.15 -14.25 14.25 -20.15 8.35 -20.15 0.0 -20.15 -8.35 -14.25 -14.25 -8.35 -20.15 0.0 -20.15 8.35 -20.15 14.25 -14.25" fill="url(#gradient8)" fill-rule="evenodd" stroke="none"/>
    </g>
    <radialGradient cx="0" cy="0" gradientTransform="matrix(0.025, 0.0, 0.0, 0.025, 0.0, 0.0)" gradientUnits="userSpaceOnUse" id="gradient8" r="819.2" spreadMethod="pad">
      <stop offset="0.5098039215686274" stop-color="#ffff00"/>
      <stop offset="1.0" stop-color="#ffffff" stop-opacity="0.0"/>
    </radialGradient>
    <g id="sprite18">
      <use ffdec:characterId="32" height="19.6" transform="matrix(1.0, 0.0, 0.0, 1.0, 0.0, 0.0)" width="19.5" xlink:href="#shape23"/>
    </g>
    <g id="shape23">
      <path d="M9.7 0.5 Q9.65 4.55 6.85 7.4 4.0 10.2 -0.05 10.3 -4.15 10.2 -6.95 7.4 -9.8 4.55 -9.8 0.5 -9.8 -3.6 -6.95 -6.4 -4.15 -9.25 -0.05 -9.25 4.0 -9.25 6.85 -6.4 9.65 -3.6 9.7 0.5" fill="url(#gradient9)" fill-rule="evenodd" stroke="none"/>
      <path d="M6.85 -6.25 Q9.7 -3.4 9.7 0.65 9.7 4.65 6.85 7.5 4.0 10.35 0.0 10.35 -4.0 10.35 -6.9 7.5 -9.75 4.65 -9.7 0.65 -9.75 -3.4 -6.9 -6.25 -4.0 -9.1 0.0 -9.1 4.0 -9.1 6.85 -6.25" fill="url(#gradient10)" fill-rule="evenodd" stroke="none"/>
    </g>
    <radialGradient cx="0" cy="0" gradientTransform="matrix(0.0126, 0.0, 0.0, 0.0126, 0.3, 0.15)" gradientUnits="userSpaceOnUse" id="gradient9" r="819.2" spreadMethod="pad">
      <stop offset="0.0" stop-color="#ffffff"/>
      <stop offset="1.0" stop-color="#999999"/>
    </radialGradient>
    <linearGradient gradientTransform="matrix(0.0, -0.01, 0.0119, 0.0, -0.05, 0.6)" gradientUnits="userSpaceOnUse" id="gradient10" spreadMethod="pad" x1="-819.2" x2="819.2">
      <stop offset="0.01568627450980392" stop-color="#ffffff" stop-opacity="0.84313726"/>
      <stop offset="0.2549019607843137" stop-color="#aecbf8" stop-opacity="0.6901961"/>
      <stop offset="0.7372549019607844" stop-color="#8eb5f8" stop-opacity="0.0"/>
    </linearGradient>
    <g id="sprite19">
      <use ffdec:characterId="32" height="19.6" transform="matrix(1.0, 0.0, 0.0, 1.0, 0.0, 0.0)" width="19.5" xlink:href="#shape24"/>
    </g>
    <g id="shape24">
      <path d="M9.7 0.5 Q9.65 4.55 6.85 7.4 4.0 10.2 -0.05 10.3 -4.15 10.2 -6.95 7.4 -9.8 4.55 -9.8 0.5 -9.8 -3.6 -6.95 -6.4 -4.15 -9.25 -0.05 -9.25 4.0 -9.25 6.85 -6.4 9.65 -3.6 9.7 0.5" fill="url(#gradient11)" fill-rule="evenodd" stroke="none"/>
      <path d="M6.85 -6.25 Q9.7 -3.4 9.7 0.65 9.7 4.65 6.85 7.5 4.0 10.35 0.0 10.35 -4.0 10.35 -6.9 7.5 -9.75 4.65 -9.7 0.65 -9.75 -3.4 -6.9 -6.25 -4.0 -9.1 0.0 -9.1 4.0 -9.1 6.85 -6.25" fill="url(#gradient12)" fill-rule="evenodd" stroke="none"/>
    </g>
    <radialGradient cx="0" cy="0" gradientTransform="matrix(0.0126, 0.0, 0.0, 0.0126, 0.3, 0.15)" gradientUnits="userSpaceOnUse" id="gradient11" r="819.2" spreadMethod="pad">
      <stop offset="0.0" stop-color="#ffffff"/>
      <stop offset="1.0" stop-color="#999999"/>
    </radialGradient>
    <linearGradient gradientTransform="matrix(0.0, -0.01, 0.0119, 0.0, -0.05, 0.6)" gradientUnits="userSpaceOnUse" id="gradient12" spreadMethod="pad" x1="-819.2" x2="819.2">
      <stop offset="0.01568627450980392" stop-color="#ffffff" stop-opacity="0.84313726"/>
      <stop offset="0.2549019607843137" stop-color="#aecbf8" stop-opacity="0.6901961"/>
      <stop offset="0.7372549019607844" stop-color="#8eb5f8" stop-opacity="0.0"/>
    </linearGradient>
    <g id="sprite20">
      <use ffdec:characterId="34" height="112.05" transform="matrix(0.4, 0.0, 0.0, 0.4, -18.2, -0.15)" width="42.15" xlink:href="#shape25"/>
      <use ffdec:characterId="35" height="99.1" transform="matrix(0.45, 0.0, 0.0, 0.45, 10.25, 0.3)" width="72.85" xlink:href="#shape26"/>
    </g>
    <g id="shape25">
      <path d="M-12.05 -12.6 L-21.05 -30.05 21.1 -56.0 21.1 53.8 -5.6 56.05 -5.6 -15.95 -12.05 -12.6" fill="#e30000" fill-rule="evenodd" stroke="none"/>
    </g>
    <g id="shape26">
      <path d="M0.35 -49.55 Q18.75 -49.45 27.5 -35.6 36.3 -21.6 36.45 2.35 L36.45 3.8 Q36.4 10.9 34.45 18.65 32.25 27.2 27.6 34.0 23.05 40.95 15.95 45.25 8.8 49.4 -0.1 49.55 -11.65 49.5 -20.0 42.9 -28.2 36.3 -32.25 25.5 -36.2 14.7 -36.4 1.85 L-36.2 0.35 Q-35.85 -21.5 -26.75 -35.6 -17.7 -49.6 0.1 -49.55 L0.35 -49.55 M9.8 -19.5 Q6.85 -27.75 -0.1 -27.75 -7.5 -27.75 -10.15 -19.25 -12.75 -11.45 -12.75 -1.1 L-12.75 0.6 Q-12.75 27.6 -0.1 27.85 L0.1 27.85 Q12.75 27.85 12.75 -0.35 12.75 -11.15 9.8 -19.5" fill="#d70000" fill-rule="evenodd" stroke="none"/>
    </g>
    <g id="sprite21">
      <use ffdec:characterId="38" height="140.2" transform="matrix(1.0, 0.0, 0.0, 1.0, 0.0, 0.0)" width="221.4" xlink:href="#shape27"/>
      <use ffdec:characterId="39" height="12.4" transform="matrix(1.0, 0.0, 0.0, 1.0, -88.2, 18.5)" width="7.05" xlink:href="#shape28"/>
      <use ffdec:characterId="39" height="12.4" transform="matrix(1.0, 0.0, 0.0, 1.0, -86.1, 12.55)" width="7.05" xlink:href="#shape28"/>
      <use ffdec:characterId="39" height="12.4" transform="matrix(1.0, 0.0, 0.0, 1.0, -83.45, 6.15)" width="7.05" xlink:href="#shape28"/>
    </g>
    <g id="shape27">
      <path d="M76.8 -5.25 Q73.5 -14.7 77.5 -15.65 L67.75 -21.25 76.8 -5.25 M-16.7 -57.55 Q-6.25 -62.25 4.75 -53.45 11.95 -43.9 14.65 -49.3 39.75 -70.3 68.3 -25.35 102.75 -7.55 107.1 4.8 L106.9 5.4 106.9 5.45 Q89.55 80.65 76.9 9.05 66.6 -10.15 60.05 12.6 60.25 22.8 53.85 37.8 39.6 64.25 33.2 49.75 L23.3 19.2 Q21.1 1.65 8.85 -3.05 -2.75 -9.95 -9.7 18.8 -14.85 56.35 -27.85 59.25 -38.65 58.0 -43.55 28.7 -54.45 -9.75 -68.3 22.5 -80.0 55.2 -89.05 36.95 -90.85 25.45 -95.1 24.15 -100.45 6.6 -76.7 -38.0 -73.0 -40.5 -68.4 -39.15 -65.5 -27.2 -69.0 -10.1 -74.2 -5.7 -73.85 6.85 -72.3 9.15 -78.4 26.1 -72.3 20.05 -69.7 9.4 -69.95 -6.5 -66.9 -8.0 -63.95 -16.25 -62.6 -36.2 L-62.6 -36.25 Q-59.25 -55.5 -40.65 -45.6 -26.85 -35.75 -24.25 -40.75 -18.45 5.75 -17.15 33.75 -12.8 0.65 -2.9 -6.6 -15.8 -32.1 -16.7 -57.55 M86.9 14.25 L91.4 29.9 96.3 19.15 Q91.6 26.05 86.9 14.25 M55.85 17.9 Q56.4 7.25 60.4 3.25 L41.95 -20.75 55.85 17.9 M48.6 37.55 Q38.95 57.35 33.3 34.45 36.6 51.35 39.9 50.45 44.25 50.8 48.6 37.55 M-39.1 -4.2 Q-44.05 -34.25 -58.55 -21.95 -44.2 -27.9 -39.1 -4.2 M-23.4 51.5 Q-35.6 52.05 -41.15 7.3 -49.95 -15.3 -63.45 -2.8 -45.85 -12.2 -42.2 14.95 L-35.25 46.6 Q-30.15 59.95 -23.4 51.5" fill="#fffff3" fill-rule="evenodd" stroke="none"/>
      <path d="M76.8 -5.25 L67.75 -21.25 77.5 -15.65 Q73.5 -14.7 76.8 -5.25 M-16.7 -57.55 Q-15.8 -32.1 -2.9 -6.6 -12.8 0.65 -17.15 33.75 -18.45 5.75 -24.25 -40.75 -23.95 -41.3 -21.85 -49.0 -19.3 -56.6 -16.7 -57.55 M-62.6 -36.2 Q-63.95 -16.25 -66.9 -8.0 -69.95 -6.5 -69.7 9.4 -72.3 20.05 -78.4 26.1 -72.3 9.15 -73.85 6.85 -74.2 -5.7 -69.0 -10.1 -65.5 -27.2 -68.4 -39.15 -65.65 -38.35 -62.6 -36.2 M-76.7 -38.0 Q-100.45 6.6 -95.1 24.15 -99.3 22.85 -107.05 31.15 L-107.05 31.3 Q-111.7 38.2 -106.4 50.2 -111.85 46.65 -111.55 36.1 -111.45 31.8 -110.35 26.35 -108.65 18.25 -93.45 -9.7 -79.0 -36.4 -76.7 -38.0 M86.9 14.25 Q91.6 26.05 96.3 19.15 L91.4 29.9 86.9 14.25 M55.85 17.9 L41.95 -20.75 60.4 3.25 Q56.4 7.25 55.85 17.9 M48.6 37.55 Q44.25 50.8 39.9 50.45 36.6 51.35 33.3 34.45 38.95 57.35 48.6 37.55 M-39.1 -4.2 Q-44.2 -27.9 -58.55 -21.95 -44.05 -34.25 -39.1 -4.2 M-23.4 51.5 Q-30.15 59.95 -35.25 46.6 L-42.2 14.95 Q-45.85 -12.2 -63.45 -2.8 -49.95 -15.3 -41.15 7.3 -35.6 52.05 -23.4 51.5" fill="#ffcfb7" fill-rule="evenodd" stroke="none"/>
      <path d="M-95.1 24.15 Q-90.85 25.45 -89.05 36.95 -80.0 55.2 -68.3 22.5 -54.45 -9.75 -43.55 28.7 -38.65 58.0 -27.85 59.25 -14.85 56.35 -9.7 18.8 -2.75 -9.95 8.85 -3.05 21.1 1.65 23.3 19.2 L33.2 49.75 Q39.6 64.25 53.85 37.8 60.25 22.8 60.05 12.6 66.6 -10.15 76.9 9.05 89.55 80.65 106.9 5.45 107.25 22.85 109.85 24.4 102.7 43.3 96.35 55.15 85.35 70.5 78.6 44.45 74.95 24.3 72.0 18.9 68.75 14.55 63.65 31.85 58.85 62.4 52.7 72.65 27.25 97.2 18.45 49.75 13.9 24.05 10.35 21.0 0.25 13.95 -7.3 46.0 -9.7 69.5 -20.35 76.05 -35.7 87.3 -55.35 39.8 -62.2 23.65 -67.05 35.9 -69.15 44.8 -72.65 51.0 -87.95 71.85 -89.75 43.5 -92.5 32.55 -99.15 42.95 -100.75 47.5 -106.4 50.2 -111.7 38.2 -107.05 31.3 L-107.05 31.15 Q-99.3 22.85 -95.1 24.15" fill="#000000" fill-rule="evenodd" stroke="none"/>
    </g>
    <g id="shape28">
      <path d="M3.55 6.2 Q0.15 -7.2 -3.5 -4.4 2.4 -10.9 3.55 6.2" fill="#ffcfb7" fill-rule="evenodd" stroke="none"/>
    </g>
    <g id="sprite22">
      <use ffdec:characterId="41" height="157.25" transform="matrix(0.2262, 0.0, 0.0, 0.2262, -4.95, 11.6)" width="240.7" xlink:href="#shape29"/>
      <use ffdec:characterId="38" height="140.2" transform="matrix(0.2262, 0.0, 0.0, 0.2262, 2.45, -6.85)" width="221.4" xlink:href="#shape30"/>
      <use ffdec:characterId="39" height="12.4" transform="matrix(0.2262, 0.0, 0.0, 0.2262, -17.5, -2.65)" width="7.05" xlink:href="#shape31"/>
      <use ffdec:characterId="39" height="12.4" transform="matrix(0.2262, 0.0, 0.0, 0.2262, -17.0, -4.0)" width="7.05" xlink:href="#shape31"/>
      <use ffdec:characterId="39" height="12.4" transform="matrix(0.2262, 0.0, 0.0, 0.2262, -16.4, -5.45)" width="7.05" xlink:href="#shape31"/>
    </g>
    <g id="shape29">
      <path d="M-75.55 -39.5 L-27.0 -60.35 114.05 -7.9 Q17.25 50.7 -48.45 35.35 -132.4 -1.6 -75.55 -39.5" fill="#000000" fill-opacity="0.3019608" fill-rule="evenodd" stroke="none"/>
      <path d="M137.4 -51.15 L137.5 -51.55 Q148.3 -73.9 74.65 -95.65 53.7 -101.85 25.85 -108.0 20.3 -109.75 13.35 -115.85 L15.4 -118.7 Q15.9 -116.8 16.35 -115.9 18.5 -111.55 28.65 -108.35 52.05 -104.15 70.7 -99.35 133.9 -82.95 142.05 -59.45 143.0 -57.2 138.4 -42.35 133.7 -27.3 130.4 -22.7 117.8 -16.05 111.25 -27.1 105.2 -39.45 104.0 -49.55 102.75 -59.7 100.5 -46.35 98.25 -33.0 93.55 -18.95 89.5 -6.9 84.1 -0.7 73.6 2.9 66.25 0.15 56.45 0.4 47.55 -29.6 38.6 -59.65 31.8 -42.8 25.0 -26.0 24.25 -21.6 23.5 -17.25 20.9 -12.9 14.2 -1.7 5.75 -2.05 -2.5 -2.35 -10.3 -13.35 -19.25 -29.25 -23.9 -43.65 -26.35 -50.75 -27.75 -50.6 -28.75 -50.55 -31.6 -45.55 -32.7 -43.65 -33.95 -39.45 -35.2 -35.45 -36.3 -33.75 -41.0 -26.6 -43.2 -24.25 -46.45 -20.75 -49.7 -20.7 L-49.6 -24.25 Q-47.65 -24.85 -46.45 -26.05 -39.2 -31.8 -36.45 -42.0 -30.4 -55.15 -25.85 -52.3 -24.3 -51.6 -22.85 -49.3 L-21.1 -45.7 -16.4 -33.4 Q-6.65 -8.75 2.15 -5.95 L5.35 -5.7 Q14.55 -8.0 19.55 -17.3 22.25 -22.45 23.3 -28.85 24.7 -35.35 28.25 -43.9 31.75 -52.5 36.6 -52.35 38.65 -52.3 42.4 -48.7 46.15 -45.15 54.15 -22.15 58.6 -7.25 66.0 -3.8 68.25 -2.75 70.8 -2.75 88.15 -1.65 95.2 -43.7 97.85 -59.65 99.25 -59.95 103.7 -60.6 105.8 -56.45 107.9 -52.3 109.7 -44.4 111.5 -36.5 115.2 -29.15 117.25 -24.95 119.45 -23.75 L119.5 -23.75 Q120.55 -23.2 121.7 -23.35 129.3 -24.3 137.4 -51.15" fill="#fffff3" fill-rule="evenodd" stroke="none"/>
      <path d="M13.35 -115.85 Q20.3 -109.75 25.85 -108.0 53.7 -101.85 74.65 -95.65 148.3 -73.9 137.5 -51.55 L137.4 -51.15 137.25 -51.35 Q118.95 -80.65 59.35 -96.3 34.2 -102.9 -4.6 -103.8 -17.35 -104.1 -29.15 -103.7 L-39.2 -103.1 -39.25 -103.05 Q-50.2 -95.55 -60.05 -74.15 -73.65 -42.2 -67.85 -36.7 -68.3 -35.7 -69.65 -34.5 L-70.9 -33.5 Q-72.3 -35.75 -72.9 -38.5 -73.9 -42.7 -73.15 -48.05 -72.0 -56.6 -56.65 -82.75 -49.0 -95.8 -41.55 -107.2 -37.45 -111.85 -38.25 -115.9 L13.35 -115.9 13.35 -115.85" fill="#000000" fill-rule="evenodd" stroke="none"/>
      <path d="M-49.6 -24.25 L-49.7 -20.7 Q-46.45 -20.75 -43.2 -24.25 -41.0 -26.6 -36.3 -33.75 -35.2 -35.45 -33.95 -39.45 -32.7 -43.65 -31.6 -45.55 -28.75 -50.55 -27.75 -50.6 -26.35 -50.75 -23.9 -43.65 -19.25 -29.25 -10.3 -13.35 -2.5 -2.35 5.75 -2.05 14.2 -1.7 20.9 -12.9 23.5 -17.25 24.25 -21.6 25.0 -26.0 31.8 -42.8 38.6 -59.65 47.55 -29.6 56.45 0.4 66.25 0.15 73.6 2.9 84.1 -0.7 76.75 15.0 67.2 19.25 38.8 10.05 36.8 -6.65 34.8 -23.35 25.75 5.15 24.2 15.4 16.45 18.35 8.2 21.5 -3.0 14.3 -5.05 13.0 -7.6 9.15 -10.95 4.15 -11.8 -1.05 -21.05 -20.3 -25.7 -40.1 -18.55 4.8 -29.85 5.75 -32.6 5.05 -35.5 3.5 -45.5 -4.9 -49.7 -20.7 -54.0 -19.15 -56.5 -22.45 -59.05 -44.2 -66.75 -40.7 -63.4 -45.6 -61.1 -45.75 -57.75 -46.0 -56.65 -36.25 -55.1 -22.8 -49.6 -24.25 M93.55 -18.95 Q98.25 -33.0 100.5 -46.35 102.75 -59.7 104.0 -49.55 105.2 -39.45 111.25 -27.1 117.8 -16.05 130.4 -22.7 128.1 -19.55 122.8 -14.9 95.4 -6.35 93.55 -18.95 M15.4 -118.7 L13.35 -115.85 13.35 -115.9 -38.25 -115.9 Q-37.45 -111.85 -41.55 -107.2 -49.0 -95.8 -56.65 -82.75 -72.0 -56.6 -73.15 -48.05 -73.9 -42.7 -72.9 -38.5 -72.3 -35.75 -70.9 -33.5 -72.2 -33.0 -73.7 -31.8 -86.05 -52.0 -44.95 -106.65 L-42.95 -110.25 Q-41.05 -114.2 -41.4 -115.9 -41.75 -117.3 -42.6 -118.65 L-42.55 -118.7 15.4 -118.7" fill="#ffcfb7" fill-rule="evenodd" stroke="none"/>
      <path d="M-39.25 -103.05 L-39.2 -103.1 -39.25 -103.05" fill="#c2453a" fill-rule="evenodd" stroke="none"/>
      <path d="M84.1 -0.7 Q89.5 -6.9 93.55 -18.95 95.4 -6.35 122.8 -14.9 105.35 -0.75 84.1 -0.7 M67.2 19.25 Q52.6 25.7 32.85 5.15 29.3 1.4 25.75 5.15 34.8 -23.35 36.8 -6.65 38.8 10.05 67.2 19.25 M-11.8 -1.05 Q-19.85 8.15 -29.85 5.75 -18.55 4.8 -25.7 -40.1 -21.05 -20.3 -11.8 -1.05" fill="#d3705a" fill-rule="evenodd" stroke="none"/>
      <path d="M-42.6 -118.65 L-42.65 -118.7 -42.55 -118.7 -42.6 -118.65" fill="#aecbf8" fill-rule="evenodd" stroke="none"/>
      <path d="M-70.9 -33.5 L-69.65 -34.5 Q-68.3 -35.7 -67.85 -36.7 -67.1 -38.35 -66.75 -40.7 -59.05 -44.2 -56.5 -22.45 -67.45 -31.0 -73.7 -31.8 -72.2 -33.0 -70.9 -33.5" fill="#e49d87" fill-rule="evenodd" stroke="none"/>
      <path d="M2.15 -5.95 Q-6.65 -8.75 -16.4 -33.4 L-21.1 -45.7 -12.4 -26.35 Q-4.55 -11.6 2.15 -5.95" fill="#732900" fill-rule="evenodd" stroke="none"/>
      <path d="M19.55 -17.3 Q14.55 -8.0 5.35 -5.7 L2.15 -5.95 Q-4.55 -11.6 -12.4 -26.35 3.4 -19.0 19.55 -17.3 M-36.45 -42.0 Q-39.2 -31.8 -46.45 -26.05 -55.95 -46.5 -61.1 -45.75 -63.4 -45.6 -66.75 -40.7 -67.1 -38.35 -67.85 -36.7 -73.65 -42.2 -60.05 -74.15 -56.75 -48.55 -36.45 -42.0" fill="#cc5840" fill-rule="evenodd" stroke="none"/>
      <path d="M23.3 -28.85 Q22.25 -22.45 19.55 -17.3 3.4 -19.0 -12.4 -26.35 L-22.85 -49.3 Q-24.3 -51.6 -25.85 -52.3 -30.4 -55.15 -36.45 -42.0 -56.75 -48.55 -60.05 -74.15 -50.2 -95.55 -39.25 -103.05 -58.4 -88.2 -31.05 -64.95 -3.7 -41.75 23.3 -28.85 M119.5 -23.75 L119.45 -23.75 Q117.25 -24.95 115.2 -29.15 120.8 -29.25 128.1 -34.4 124.3 -29.0 119.5 -23.75 M66.0 -3.8 Q58.6 -7.25 54.15 -22.15 63.0 -19.5 72.3 -19.75 L66.0 -3.8" fill="#d26f59" fill-rule="evenodd" stroke="none"/>
      <path d="M-39.25 -103.05 L-39.2 -103.1 -29.15 -103.7 Q-17.35 -104.1 -4.6 -103.8 34.2 -102.9 59.35 -96.3 118.95 -80.65 137.25 -51.35 L137.4 -51.15 137.2 -51.2 Q135.85 -47.7 131.9 -40.75 L128.1 -34.4 Q120.8 -29.25 115.2 -29.15 111.5 -36.5 109.7 -44.4 107.9 -52.3 105.8 -56.45 103.7 -60.6 99.25 -59.95 93.05 -60.1 82.7 -39.85 L72.3 -19.75 Q63.0 -19.5 54.15 -22.15 46.15 -45.15 42.4 -48.7 38.65 -52.3 36.6 -52.35 31.75 -52.5 28.25 -43.9 24.7 -35.35 23.3 -28.85 -3.7 -41.75 -31.05 -64.95 -58.4 -88.2 -39.25 -103.05" fill="#dc8d7c" fill-rule="evenodd" stroke="none"/>
      <path d="M137.4 -51.15 Q129.3 -24.3 121.7 -23.35 120.55 -23.2 119.5 -23.75 124.3 -29.0 128.1 -34.4 L131.9 -40.75 Q135.85 -47.7 137.2 -51.2 L137.4 -51.15 M99.25 -59.95 Q97.85 -59.65 95.2 -43.7 88.15 -1.65 70.8 -2.75 68.25 -2.75 66.0 -3.8 L72.3 -19.75 82.7 -39.85 Q93.05 -60.1 99.25 -59.95" fill="#c2453a" fill-rule="evenodd" stroke="none"/>
      <path d="M-46.45 -26.05 Q-47.65 -24.85 -49.6 -24.25 -55.1 -22.8 -56.65 -36.25 -57.75 -46.0 -61.1 -45.75 -55.95 -46.5 -46.45 -26.05" fill="#732900" fill-rule="evenodd" stroke="none"/>
    </g>
    <g id="shape30">
      <path d="M76.8 -5.25 Q73.5 -14.7 77.5 -15.65 L67.75 -21.25 76.8 -5.25 M-16.7 -57.55 Q-6.25 -62.25 4.75 -53.45 11.95 -43.9 14.65 -49.3 39.75 -70.3 68.3 -25.35 102.75 -7.55 107.1 4.8 L106.9 5.4 106.9 5.45 Q89.55 80.65 76.9 9.05 66.6 -10.15 60.05 12.6 60.25 22.8 53.85 37.8 39.6 64.25 33.2 49.75 L23.3 19.2 Q21.1 1.65 8.85 -3.05 -2.75 -9.95 -9.7 18.8 -14.85 56.35 -27.85 59.25 -38.65 58.0 -43.55 28.7 -54.45 -9.75 -68.3 22.5 -80.0 55.2 -89.05 36.95 -90.85 25.45 -95.1 24.15 -100.45 6.6 -76.7 -38.0 -73.0 -40.5 -68.4 -39.15 -65.5 -27.2 -69.0 -10.1 -74.2 -5.7 -73.85 6.85 -72.3 9.15 -78.4 26.1 -72.3 20.05 -69.7 9.4 -69.95 -6.5 -66.9 -8.0 -63.95 -16.25 -62.6 -36.2 L-62.6 -36.25 Q-59.25 -55.5 -40.65 -45.6 -26.85 -35.75 -24.25 -40.75 -18.45 5.75 -17.15 33.75 -12.8 0.65 -2.9 -6.6 -15.8 -32.1 -16.7 -57.55 M86.9 14.25 L91.4 29.9 96.3 19.15 Q91.6 26.05 86.9 14.25 M55.85 17.9 Q56.4 7.25 60.4 3.25 L41.95 -20.75 55.85 17.9 M48.6 37.55 Q38.95 57.35 33.3 34.45 36.6 51.35 39.9 50.45 44.25 50.8 48.6 37.55 M-39.1 -4.2 Q-44.05 -34.25 -58.55 -21.95 -44.2 -27.9 -39.1 -4.2 M-23.4 51.5 Q-35.6 52.05 -41.15 7.3 -49.95 -15.3 -63.45 -2.8 -45.85 -12.2 -42.2 14.95 L-35.25 46.6 Q-30.15 59.95 -23.4 51.5" fill="#fffff3" fill-rule="evenodd" stroke="none"/>
      <path d="M76.8 -5.25 L67.75 -21.25 77.5 -15.65 Q73.5 -14.7 76.8 -5.25 M-16.7 -57.55 Q-15.8 -32.1 -2.9 -6.6 -12.8 0.65 -17.15 33.75 -18.45 5.75 -24.25 -40.75 -23.95 -41.3 -21.85 -49.0 -19.3 -56.6 -16.7 -57.55 M-62.6 -36.2 Q-63.95 -16.25 -66.9 -8.0 -69.95 -6.5 -69.7 9.4 -72.3 20.05 -78.4 26.1 -72.3 9.15 -73.85 6.85 -74.2 -5.7 -69.0 -10.1 -65.5 -27.2 -68.4 -39.15 -65.65 -38.35 -62.6 -36.2 M-76.7 -38.0 Q-100.45 6.6 -95.1 24.15 -99.3 22.85 -107.05 31.15 L-107.05 31.3 Q-111.7 38.2 -106.4 50.2 -111.85 46.65 -111.55 36.1 -111.45 31.8 -110.35 26.35 -108.65 18.25 -93.45 -9.7 -79.0 -36.4 -76.7 -38.0 M86.9 14.25 Q91.6 26.05 96.3 19.15 L91.4 29.9 86.9 14.25 M55.85 17.9 L41.95 -20.75 60.4 3.25 Q56.4 7.25 55.85 17.9 M48.6 37.55 Q44.25 50.8 39.9 50.45 36.6 51.35 33.3 34.45 38.95 57.35 48.6 37.55 M-39.1 -4.2 Q-44.2 -27.9 -58.55 -21.95 -44.05 -34.25 -39.1 -4.2 M-23.4 51.5 Q-30.15 59.95 -35.25 46.6 L-42.2 14.95 Q-45.85 -12.2 -63.45 -2.8 -49.95 -15.3 -41.15 7.3 -35.6 52.05 -23.4 51.5" fill="#ffcfb7" fill-rule="evenodd" stroke="none"/>
      <path d="M-95.1 24.15 Q-90.85 25.45 -89.05 36.95 -80.0 55.2 -68.3 22.5 -54.45 -9.75 -43.55 28.7 -38.65 58.0 -27.85 59.25 -14.85 56.35 -9.7 18.8 -2.75 -9.95 8.85 -3.05 21.1 1.65 23.3 19.2 L33.2 49.75 Q39.6 64.25 53.85 37.8 60.25 22.8 60.05 12.6 66.6 -10.15 76.9 9.05 89.55 80.65 106.9 5.45 107.25 22.85 109.85 24.4 102.7 43.3 96.35 55.15 85.35 70.5 78.6 44.45 74.95 24.3 72.0 18.9 68.75 14.55 63.65 31.85 58.85 62.4 52.7 72.65 27.25 97.2 18.45 49.75 13.9 24.05 10.35 21.0 0.25 13.95 -7.3 46.0 -9.7 69.5 -20.35 76.05 -35.7 87.3 -55.35 39.8 -62.2 23.65 -67.05 35.9 -69.15 44.8 -72.65 51.0 -87.95 71.85 -89.75 43.5 -92.5 32.55 -99.15 42.95 -100.75 47.5 -106.4 50.2 -111.7 38.2 -107.05 31.3 L-107.05 31.15 Q-99.3 22.85 -95.1 24.15" fill="#000000" fill-rule="evenodd" stroke="none"/>
    </g>
    <g id="shape31">
      <path d="M3.55 6.2 Q0.15 -7.2 -3.5 -4.4 2.4 -10.9 3.55 6.2" fill="#ffcfb7" fill-rule="evenodd" stroke="none"/>
    </g>
    <g id="shape32">
      <path d="M528.3 358.05 L537.65 354.0 564.85 364.15 Q546.2 375.4 533.5 372.45 517.35 365.35 528.3 358.05" fill="#000000" fill-opacity="0.3019608" fill-rule="evenodd" stroke="none"/>
      <path d="M569.3 355.8 L569.35 355.7 Q571.4 351.4 557.25 347.2 553.2 346.05 547.85 344.85 546.75 344.5 545.4 343.35 L545.8 342.8 546.0 343.3 Q546.4 344.15 548.35 344.8 L556.45 346.5 Q568.65 349.65 570.2 354.2 570.4 354.65 569.5 357.5 568.6 360.4 567.95 361.3 565.55 362.55 564.3 360.45 563.1 358.05 562.9 356.1 562.65 354.15 562.2 356.7 561.8 359.3 560.85 362.0 560.1 364.3 559.05 365.5 L555.6 365.7 Q553.75 365.75 552.0 359.95 550.3 354.15 549.0 357.4 L547.5 361.5 Q547.4 362.35 546.9 363.15 545.6 365.3 543.95 365.25 542.35 365.2 540.85 363.1 539.15 360.0 538.25 357.25 537.75 355.85 537.5 355.9 537.3 355.9 536.75 356.85 L536.3 358.05 535.85 359.15 534.55 361.0 Q533.9 361.65 533.25 361.65 L533.3 361.0 533.9 360.65 Q535.3 359.5 535.85 357.55 537.0 355.0 537.85 355.55 L538.45 356.15 538.8 356.85 539.7 359.2 Q541.55 363.95 543.25 364.5 L543.9 364.55 Q545.65 364.1 546.6 362.3 547.15 361.3 547.35 360.1 547.6 358.85 548.3 357.2 548.95 355.55 549.9 355.55 550.3 355.55 551.0 356.25 551.75 356.95 553.3 361.4 554.15 364.25 555.55 364.9 L556.5 365.1 Q559.85 365.35 561.2 357.25 561.7 354.15 561.95 354.1 562.85 353.95 563.25 354.75 L564.0 357.1 Q564.35 358.6 565.05 360.05 L565.85 361.05 566.3 361.15 Q567.75 360.95 569.3 355.8" fill="#fffff3" fill-rule="evenodd" stroke="none"/>
      <path d="M545.4 343.35 Q546.75 344.5 547.85 344.85 553.2 346.05 557.25 347.2 571.4 351.4 569.35 355.7 L569.3 355.8 569.3 355.75 Q565.75 350.1 554.3 347.1 549.45 345.85 541.95 345.65 L537.25 345.65 535.3 345.8 Q533.2 347.25 531.3 351.35 528.65 357.5 529.8 358.6 L529.45 359.0 529.2 359.2 528.8 358.25 Q528.6 357.4 528.75 356.4 529.0 354.75 531.95 349.7 L534.85 345.0 Q535.65 344.1 535.5 343.3 L545.4 343.3 545.4 343.35" fill="#000000" fill-rule="evenodd" stroke="none"/>
      <path d="M533.3 361.0 L533.25 361.65 Q533.9 361.65 534.55 361.0 L535.85 359.15 536.3 358.05 536.75 356.85 Q537.3 355.9 537.5 355.9 537.75 355.85 538.25 357.25 539.15 360.0 540.85 363.1 542.35 365.2 543.95 365.25 545.6 365.3 546.9 363.15 547.4 362.35 547.5 361.5 L549.0 357.4 Q550.3 354.15 552.0 359.95 553.75 365.75 555.6 365.7 L559.05 365.5 Q557.65 368.55 555.8 369.35 550.35 367.6 549.95 364.35 549.55 361.15 547.8 366.65 547.5 368.6 546.0 369.2 544.45 369.8 542.25 368.4 L541.4 367.4 Q540.75 366.45 540.6 365.45 538.8 361.75 537.9 357.9 539.3 366.55 537.1 366.75 L536.0 366.3 Q534.1 364.7 533.25 361.65 532.45 361.95 531.95 361.3 531.45 357.15 530.0 357.8 530.65 356.85 531.1 356.85 531.7 356.8 531.95 358.65 532.25 361.25 533.3 361.0 M560.85 362.0 Q561.8 359.3 562.2 356.7 562.65 354.15 562.9 356.1 563.1 358.05 564.3 360.45 565.55 362.55 567.95 361.3 L566.5 362.8 Q561.25 364.45 560.85 362.0 M545.8 342.8 L545.4 343.35 545.4 343.3 535.5 343.3 Q535.65 344.1 534.85 345.0 L531.95 349.7 Q529.0 354.75 528.75 356.4 528.6 357.4 528.8 358.25 L529.2 359.2 Q528.95 359.3 528.65 359.5 526.25 355.65 534.2 345.1 L534.6 344.4 534.85 343.3 534.65 342.8 545.8 342.8" fill="#ffcfb7" fill-rule="evenodd" stroke="none"/>
      <path d="M559.05 365.5 Q560.1 364.3 560.85 362.0 561.25 364.45 566.5 362.8 563.15 365.5 559.05 365.5 M555.8 369.35 Q553.0 370.6 549.2 366.65 548.5 365.9 547.8 366.65 549.55 361.15 549.95 364.35 550.35 367.6 555.8 369.35 M540.6 365.45 Q539.05 367.2 537.1 366.75 539.3 366.55 537.9 357.9 538.8 361.75 540.6 365.45" fill="#d3705a" fill-rule="evenodd" stroke="none"/>
      <path d="M529.2 359.2 L529.45 359.0 529.8 358.6 530.0 357.8 Q531.45 357.15 531.95 361.3 529.85 359.7 528.65 359.5 528.95 359.3 529.2 359.2" fill="#e49d87" fill-rule="evenodd" stroke="none"/>
      <path d="M543.25 364.5 Q541.55 363.95 539.7 359.2 L538.8 356.85 540.45 360.55 Q541.95 363.4 543.25 364.5" fill="#732900" fill-rule="evenodd" stroke="none"/>
      <path d="M546.6 362.3 Q545.65 364.1 543.9 364.55 L543.25 364.5 Q541.95 363.4 540.45 360.55 543.5 362.0 546.6 362.3 M535.85 357.55 Q535.3 359.5 533.9 360.65 532.05 356.7 531.1 356.85 530.65 356.85 530.0 357.8 L529.8 358.6 Q528.65 357.5 531.3 351.35 531.9 356.3 535.85 357.55" fill="#cc5840" fill-rule="evenodd" stroke="none"/>
      <path d="M547.35 360.1 Q547.15 361.3 546.6 362.3 543.5 362.0 540.45 360.55 L538.45 356.15 537.85 355.55 Q537.0 355.0 535.85 357.55 531.9 356.3 531.3 351.35 533.2 347.25 535.3 345.8 531.6 348.65 536.85 353.15 542.15 357.6 547.35 360.1 M565.85 361.05 L565.05 360.05 Q566.1 360.0 567.55 359.0 L565.85 361.05 M555.55 364.9 Q554.15 364.25 553.3 361.4 L556.8 361.85 555.55 364.9" fill="#d26f59" fill-rule="evenodd" stroke="none"/>
      <path d="M535.3 345.8 L537.25 345.65 541.95 345.65 Q549.45 345.85 554.3 347.1 565.75 350.1 569.3 355.75 L569.3 355.8 568.25 357.8 567.55 359.0 Q566.1 360.0 565.05 360.05 564.35 358.6 564.0 357.1 L563.25 354.75 Q562.85 353.95 561.95 354.1 560.8 354.05 558.8 357.95 L556.8 361.85 553.3 361.4 Q551.75 356.95 551.0 356.25 550.3 355.55 549.9 355.55 548.95 355.55 548.3 357.2 547.6 358.85 547.35 360.1 542.15 357.6 536.85 353.15 531.6 348.65 535.3 345.8" fill="#dc8d7c" fill-rule="evenodd" stroke="none"/>
      <path d="M569.3 355.8 Q567.75 360.95 566.3 361.15 L565.85 361.05 567.55 359.0 568.25 357.8 569.3 355.8 M561.95 354.1 Q561.7 354.15 561.2 357.25 559.85 365.35 556.5 365.1 L555.55 364.9 556.8 361.85 558.8 357.95 Q560.8 354.05 561.95 354.1" fill="#c2453a" fill-rule="evenodd" stroke="none"/>
      <path d="M533.9 360.65 L533.3 361.0 Q532.25 361.25 531.95 358.65 531.7 356.8 531.1 356.85 532.05 356.7 533.9 360.65" fill="#732900" fill-rule="evenodd" stroke="none"/>
    </g>
    <g id="sprite23">
      <use ffdec:characterId="38" height="140.2" transform="matrix(1.0, 0.0, 0.0, 1.0, 0.0, 0.0)" width="221.4" xlink:href="#shape30"/>
      <use ffdec:characterId="39" height="12.4" transform="matrix(1.0, 0.0, 0.0, 1.0, -88.2, 18.5)" width="7.05" xlink:href="#shape31"/>
      <use ffdec:characterId="39" height="12.4" transform="matrix(1.0, 0.0, 0.0, 1.0, -86.1, 12.55)" width="7.05" xlink:href="#shape31"/>
      <use ffdec:characterId="39" height="12.4" transform="matrix(1.0, 0.0, 0.0, 1.0, -83.45, 6.15)" width="7.05" xlink:href="#shape31"/>
    </g>
    <g id="sprite24">
      <use ffdec:characterId="41" height="157.25" transform="matrix(1.0, 0.0, 0.0, 1.0, 0.0, 0.0)" width="240.7" xlink:href="#shape29"/>
    </g>
    <g id="shape33">
      <path d="M492.7 166.05 L492.7 165.85 492.7 166.05" fill="#fffbf0" fill-rule="evenodd" stroke="none"/>
    </g>
    <g id="sprite25">
      <use ffdec:characterId="74" height="83.0" transform="matrix(0.9, 0.0, 0.0, 0.9, 0.0, 2.65)" width="83.0" xlink:href="#shape34"/>
    </g>
    <g id="shape34">
      <path d="M0.0 -41.5 Q-17.2 -41.5 -29.35 -29.35 -41.5 -17.2 -41.5 0.0 -41.5 17.2 -29.35 29.35 -17.2 41.5 0.0 41.5 17.2 41.5 29.35 29.35 41.5 17.2 41.5 0.0 41.5 -17.2 29.35 -29.35 17.2 -41.5 0.0 -41.5 Z" ffdec:has-small-stroke="true" ffdec:original-stroke-width="0.05" fill="none" stroke="#c6f3ff" stroke-linecap="round" stroke-linejoin="round" stroke-width="1.1111186463666882"/>
      <path d="M24.05 -24.55 Q34.95 -13.65 34.95 1.85 34.95 17.35 24.05 28.3 L23.3 28.95 Q29.55 19.85 29.55 8.15 29.55 -7.35 18.65 -18.25 7.7 -29.2 -7.8 -29.2 -22.75 -29.2 -33.5 -18.95 -31.5 -21.9 -28.8 -24.55 -17.9 -35.5 -2.4 -35.5 13.1 -35.5 24.05 -24.55" fill="#cef5ff" fill-rule="evenodd" stroke="none"/>
    </g>
    <g id="sprite26">
      <use ffdec:characterId="74" height="83.0" transform="matrix(0.9, 0.0, 0.0, 0.9, 0.0, 2.65)" width="83.0" xlink:href="#shape35"/>
    </g>
    <g id="shape35">
      <path d="M0.0 -41.5 Q-17.2 -41.5 -29.35 -29.35 -41.5 -17.2 -41.5 0.0 -41.5 17.2 -29.35 29.35 -17.2 41.5 0.0 41.5 17.2 41.5 29.35 29.35 41.5 17.2 41.5 0.0 41.5 -17.2 29.35 -29.35 17.2 -41.5 0.0 -41.5 Z" ffdec:has-small-stroke="true" ffdec:original-stroke-width="0.05" fill="none" stroke="#c6f3ff" stroke-linecap="round" stroke-linejoin="round" stroke-width="1.1111186463666882"/>
      <path d="M24.05 -24.55 Q34.95 -13.65 34.95 1.85 34.95 17.35 24.05 28.3 L23.3 28.95 Q29.55 19.85 29.55 8.15 29.55 -7.35 18.65 -18.25 7.7 -29.2 -7.8 -29.2 -22.75 -29.2 -33.5 -18.95 -31.5 -21.9 -28.8 -24.55 -17.9 -35.5 -2.4 -35.5 13.1 -35.5 24.05 -24.55" fill="#cef5ff" fill-rule="evenodd" stroke="none"/>
    </g>
    <g id="sprite27">
      <use ffdec:characterId="74" height="83.0" transform="matrix(0.9, 0.0, 0.0, 0.9, 0.0, 2.65)" width="83.0" xlink:href="#shape36"/>
    </g>
    <g id="shape36">
      <path d="M0.0 -41.5 Q-17.2 -41.5 -29.35 -29.35 -41.5 -17.2 -41.5 0.0 -41.5 17.2 -29.35 29.35 -17.2 41.5 0.0 41.5 17.2 41.5 29.35 29.35 41.5 17.2 41.5 0.0 41.5 -17.2 29.35 -29.35 17.2 -41.5 0.0 -41.5 Z" ffdec:has-small-stroke="true" ffdec:original-stroke-width="0.05" fill="none" stroke="#c6f3ff" stroke-linecap="round" stroke-linejoin="round" stroke-width="1.1111186463666882"/>
      <path d="M24.05 -24.55 Q34.95 -13.65 34.95 1.85 34.95 17.35 24.05 28.3 L23.3 28.95 Q29.55 19.85 29.55 8.15 29.55 -7.35 18.65 -18.25 7.7 -29.2 -7.8 -29.2 -22.75 -29.2 -33.5 -18.95 -31.5 -21.9 -28.8 -24.55 -17.9 -35.5 -2.4 -35.5 13.1 -35.5 24.05 -24.55" fill="#cef5ff" fill-rule="evenodd" stroke="none"/>
    </g>
    <g id="sprite28">
      <use ffdec:characterId="74" height="83.0" transform="matrix(0.9, 0.0, 0.0, 0.9, 0.0, 2.65)" width="83.0" xlink:href="#shape37"/>
    </g>
    <g id="shape37">
      <path d="M0.0 -41.5 Q-17.2 -41.5 -29.35 -29.35 -41.5 -17.2 -41.5 0.0 -41.5 17.2 -29.35 29.35 -17.2 41.5 0.0 41.5 17.2 41.5 29.35 29.35 41.5 17.2 41.5 0.0 41.5 -17.2 29.35 -29.35 17.2 -41.5 0.0 -41.5 Z" ffdec:has-small-stroke="true" ffdec:original-stroke-width="0.05" fill="none" stroke="#c6f3ff" stroke-linecap="round" stroke-linejoin="round" stroke-width="1.1111186463666882"/>
      <path d="M24.05 -24.55 Q34.95 -13.65 34.95 1.85 34.95 17.35 24.05 28.3 L23.3 28.95 Q29.55 19.85 29.55 8.15 29.55 -7.35 18.65 -18.25 7.7 -29.2 -7.8 -29.2 -22.75 -29.2 -33.5 -18.95 -31.5 -21.9 -28.8 -24.55 -17.9 -35.5 -2.4 -35.5 13.1 -35.5 24.05 -24.55" fill="#cef5ff" fill-rule="evenodd" stroke="none"/>
    </g>
    <g id="sprite29">
      <use ffdec:characterId="74" height="83.0" transform="matrix(0.9, 0.0, 0.0, 0.9, 0.0, 2.65)" width="83.0" xlink:href="#shape38"/>
    </g>
    <g id="shape38">
      <path d="M0.0 -41.5 Q-17.2 -41.5 -29.35 -29.35 -41.5 -17.2 -41.5 0.0 -41.5 17.2 -29.35 29.35 -17.2 41.5 0.0 41.5 17.2 41.5 29.35 29.35 41.5 17.2 41.5 0.0 41.5 -17.2 29.35 -29.35 17.2 -41.5 0.0 -41.5 Z" ffdec:has-small-stroke="true" ffdec:original-stroke-width="0.05" fill="none" stroke="#c6f3ff" stroke-linecap="round" stroke-linejoin="round" stroke-width="1.1111186463666882"/>
      <path d="M24.05 -24.55 Q34.95 -13.65 34.95 1.85 34.95 17.35 24.05 28.3 L23.3 28.95 Q29.55 19.85 29.55 8.15 29.55 -7.35 18.65 -18.25 7.7 -29.2 -7.8 -29.2 -22.75 -29.2 -33.5 -18.95 -31.5 -21.9 -28.8 -24.55 -17.9 -35.5 -2.4 -35.5 13.1 -35.5 24.05 -24.55" fill="#cef5ff" fill-rule="evenodd" stroke="none"/>
    </g>
    <g id="sprite30">
      <use ffdec:characterId="74" height="83.0" transform="matrix(0.9, 0.0, 0.0, 0.9, 0.0, 2.65)" width="83.0" xlink:href="#shape39"/>
    </g>
    <g id="shape39">
      <path d="M0.0 -41.5 Q-17.2 -41.5 -29.35 -29.35 -41.5 -17.2 -41.5 0.0 -41.5 17.2 -29.35 29.35 -17.2 41.5 0.0 41.5 17.2 41.5 29.35 29.35 41.5 17.2 41.5 0.0 41.5 -17.2 29.35 -29.35 17.2 -41.5 0.0 -41.5 Z" ffdec:has-small-stroke="true" ffdec:original-stroke-width="0.05" fill="none" stroke="#c6f3ff" stroke-linecap="round" stroke-linejoin="round" stroke-width="1.1111186463666882"/>
      <path d="M24.05 -24.55 Q34.95 -13.65 34.95 1.85 34.95 17.35 24.05 28.3 L23.3 28.95 Q29.55 19.85 29.55 8.15 29.55 -7.35 18.65 -18.25 7.7 -29.2 -7.8 -29.2 -22.75 -29.2 -33.5 -18.95 -31.5 -21.9 -28.8 -24.55 -17.9 -35.5 -2.4 -35.5 13.1 -35.5 24.05 -24.55" fill="#cef5ff" fill-rule="evenodd" stroke="none"/>
    </g>
    <g id="sprite31">
      <use ffdec:characterId="74" height="83.0" transform="matrix(0.9, 0.0, 0.0, 0.9, 0.0, 2.65)" width="83.0" xlink:href="#shape40"/>
    </g>
    <g id="shape40">
      <path d="M0.0 -41.5 Q-17.2 -41.5 -29.35 -29.35 -41.5 -17.2 -41.5 0.0 -41.5 17.2 -29.35 29.35 -17.2 41.5 0.0 41.5 17.2 41.5 29.35 29.35 41.5 17.2 41.5 0.0 41.5 -17.2 29.35 -29.35 17.2 -41.5 0.0 -41.5 Z" ffdec:has-small-stroke="true" ffdec:original-stroke-width="0.05" fill="none" stroke="#c6f3ff" stroke-linecap="round" stroke-linejoin="round" stroke-width="1.1111186463666882"/>
      <path d="M24.05 -24.55 Q34.95 -13.65 34.95 1.85 34.95 17.35 24.05 28.3 L23.3 28.95 Q29.55 19.85 29.55 8.15 29.55 -7.35 18.65 -18.25 7.7 -29.2 -7.8 -29.2 -22.75 -29.2 -33.5 -18.95 -31.5 -21.9 -28.8 -24.55 -17.9 -35.5 -2.4 -35.5 13.1 -35.5 24.05 -24.55" fill="#cef5ff" fill-rule="evenodd" stroke="none"/>
    </g>
    <g id="sprite32">
      <use ffdec:characterId="74" height="83.0" transform="matrix(0.9, 0.0, 0.0, 0.9, 0.0, 2.65)" width="83.0" xlink:href="#shape41"/>
    </g>
    <g id="shape41">
      <path d="M0.0 -41.5 Q-17.2 -41.5 -29.35 -29.35 -41.5 -17.2 -41.5 0.0 -41.5 17.2 -29.35 29.35 -17.2 41.5 0.0 41.5 17.2 41.5 29.35 29.35 41.5 17.2 41.5 0.0 41.5 -17.2 29.35 -29.35 17.2 -41.5 0.0 -41.5 Z" ffdec:has-small-stroke="true" ffdec:original-stroke-width="0.05" fill="none" stroke="#c6f3ff" stroke-linecap="round" stroke-linejoin="round" stroke-width="1.1111186463666882"/>
      <path d="M24.05 -24.55 Q34.95 -13.65 34.95 1.85 34.95 17.35 24.05 28.3 L23.3 28.95 Q29.55 19.85 29.55 8.15 29.55 -7.35 18.65 -18.25 7.7 -29.2 -7.8 -29.2 -22.75 -29.2 -33.5 -18.95 -31.5 -21.9 -28.8 -24.55 -17.9 -35.5 -2.4 -35.5 13.1 -35.5 24.05 -24.55" fill="#cef5ff" fill-rule="evenodd" stroke="none"/>
    </g>
    <g id="sprite33">
      <use ffdec:characterId="74" height="83.0" transform="matrix(0.9, 0.0, 0.0, 0.9, 0.0, 2.65)" width="83.0" xlink:href="#shape42"/>
    </g>
    <g id="shape42">
      <path d="M0.0 -41.5 Q-17.2 -41.5 -29.35 -29.35 -41.5 -17.2 -41.5 0.0 -41.5 17.2 -29.35 29.35 -17.2 41.5 0.0 41.5 17.2 41.5 29.35 29.35 41.5 17.2 41.5 0.0 41.5 -17.2 29.35 -29.35 17.2 -41.5 0.0 -41.5 Z" ffdec:has-small-stroke="true" ffdec:original-stroke-width="0.05" fill="none" stroke="#c6f3ff" stroke-linecap="round" stroke-linejoin="round" stroke-width="1.1111186463666882"/>
      <path d="M24.05 -24.55 Q34.95 -13.65 34.95 1.85 34.95 17.35 24.05 28.3 L23.3 28.95 Q29.55 19.85 29.55 8.15 29.55 -7.35 18.65 -18.25 7.7 -29.2 -7.8 -29.2 -22.75 -29.2 -33.5 -18.95 -31.5 -21.9 -28.8 -24.55 -17.9 -35.5 -2.4 -35.5 13.1 -35.5 24.05 -24.55" fill="#cef5ff" fill-rule="evenodd" stroke="none"/>
    </g>
    <g id="sprite34">
      <use ffdec:characterId="74" height="83.0" transform="matrix(0.9, 0.0, 0.0, 0.9, 0.0, 2.65)" width="83.0" xlink:href="#shape43"/>
    </g>
    <g id="shape43">
      <path d="M0.0 -41.5 Q-17.2 -41.5 -29.35 -29.35 -41.5 -17.2 -41.5 0.0 -41.5 17.2 -29.35 29.35 -17.2 41.5 0.0 41.5 17.2 41.5 29.35 29.35 41.5 17.2 41.5 0.0 41.5 -17.2 29.35 -29.35 17.2 -41.5 0.0 -41.5 Z" ffdec:has-small-stroke="true" ffdec:original-stroke-width="0.05" fill="none" stroke="#c6f3ff" stroke-linecap="round" stroke-linejoin="round" stroke-width="1.1111186463666882"/>
      <path d="M24.05 -24.55 Q34.95 -13.65 34.95 1.85 34.95 17.35 24.05 28.3 L23.3 28.95 Q29.55 19.85 29.55 8.15 29.55 -7.35 18.65 -18.25 7.7 -29.2 -7.8 -29.2 -22.75 -29.2 -33.5 -18.95 -31.5 -21.9 -28.8 -24.55 -17.9 -35.5 -2.4 -35.5 13.1 -35.5 24.05 -24.55" fill="#cef5ff" fill-rule="evenodd" stroke="none"/>
    </g>
    <g id="shape44">
      <path d="M492.7 166.05 L492.7 165.85 492.7 166.05" fill="#fffbf0" fill-rule="evenodd" stroke="none"/>
    </g>
    <g id="sprite35">
      <use ffdec:characterId="81" height="46.55" transform="matrix(1.0, 0.0, 0.0, 1.0, 0.0, 2.65)" width="59.25" xlink:href="#shape45"/>
      <use ffdec:characterId="97" height="105.95" transform="matrix(0.329, 0.0, 0.0, 0.329, 0.0, 2.65)" width="71.05" xlink:href="#shape46"/>
    </g>
    <g id="shape45">
      <path d="M-24.05 17.35 L24.8 17.35 24.8 -19.0 25.1 -19.0 29.65 -22.7 Q27.45 1.0 29.45 23.3 L29.05 23.3 28.75 23.3 Q0.9 21.9 -29.6 23.05 L-29.6 22.85 -24.05 17.35" fill="#85550c" fill-rule="evenodd" stroke="none"/>
      <path d="M24.8 -19.0 L24.8 17.35 -24.05 17.35 -24.0 17.35 -24.15 -19.0 24.8 -19.0" fill="#fffbf0" fill-rule="evenodd" stroke="none"/>
      <path d="M-24.05 17.35 L-29.6 22.85 Q-26.9 0.95 -29.5 -23.25 L29.65 -22.7 25.1 -19.0 24.8 -19.0 -24.15 -19.0 -24.0 17.35 -24.05 17.35" fill="#f7be66" fill-rule="evenodd" stroke="none"/>
    </g>
    <g id="shape46">
      <path d="M2.3 -30.15 Q-3.2 -30.95 -7.45 -27.7 -11.7 -24.55 -12.55 -19.5 L-12.55 -19.2 Q-13.3 -14.15 -10.0 -9.9 -7.15 -5.7 -1.95 -4.8 L-1.7 -4.75 Q3.5 -4.0 7.95 -7.5 9.4 -8.65 10.45 -9.95 12.0 -11.9 12.7 -14.3 L12.8 -14.75 13.1 -16.05 13.15 -16.3 Q13.35 -19.75 12.1 -22.7 10.85 -25.65 8.2 -27.7 5.55 -29.6 2.3 -30.15 M34.7 -10.1 Q33.95 -6.35 32.5 -3.0 L31.75 -1.4 Q18.85 26.3 4.5 53.0 L-19.05 44.05 -3.95 17.85 -5.85 17.55 Q-20.35 15.1 -28.85 3.15 -36.95 -8.2 -35.2 -21.75 L-35.0 -23.25 Q-32.6 -37.75 -20.6 -46.3 -8.6 -54.85 5.9 -52.4 20.35 -50.0 28.9 -38.0 37.45 -26.05 35.0 -11.55 L34.7 -10.1" fill="#e30000" fill-rule="evenodd" stroke="none"/>
    </g>
    <g id="sprite36">
      <use ffdec:characterId="81" height="46.55" transform="matrix(1.0, 0.0, 0.0, 1.0, 0.0, 3.0)" width="59.25" xlink:href="#shape45"/>
      <use ffdec:characterId="34" height="112.05" transform="matrix(0.3048, 0.0, 0.0, 0.3048, -12.2, 1.1)" width="42.15" xlink:href="#shape47"/>
      <use ffdec:characterId="35" height="99.1" transform="matrix(0.3295, 0.0, 0.0, 0.3295, 9.0, 1.5)" width="72.85" xlink:href="#shape48"/>
    </g>
    <g id="shape47">
      <path d="M-12.05 -12.6 L-21.05 -30.05 21.1 -56.0 21.1 53.8 -5.6 56.05 -5.6 -15.95 -12.05 -12.6" fill="#e30000" fill-rule="evenodd" stroke="none"/>
    </g>
    <g id="shape48">
      <path d="M0.35 -49.55 Q18.75 -49.45 27.5 -35.6 36.3 -21.6 36.45 2.35 L36.45 3.8 Q36.4 10.9 34.45 18.65 32.25 27.2 27.6 34.0 23.05 40.95 15.95 45.25 8.8 49.4 -0.1 49.55 -11.65 49.5 -20.0 42.9 -28.2 36.3 -32.25 25.5 -36.2 14.7 -36.4 1.85 L-36.2 0.35 Q-35.85 -21.5 -26.75 -35.6 -17.7 -49.6 0.1 -49.55 L0.35 -49.55 M9.8 -19.5 Q6.85 -27.75 -0.1 -27.75 -7.5 -27.75 -10.15 -19.25 -12.75 -11.45 -12.75 -1.1 L-12.75 0.6 Q-12.75 27.6 -0.1 27.85 L0.1 27.85 Q12.75 27.85 12.75 -0.35 12.75 -11.15 9.8 -19.5" fill="#d70000" fill-rule="evenodd" stroke="none"/>
    </g>
    <g id="sprite37">
      <use ffdec:characterId="81" height="46.55" transform="matrix(1.0, 0.0, 0.0, 1.0, 0.0, 2.65)" width="59.25" xlink:href="#shape45"/>
      <use ffdec:characterId="99" height="100.2" transform="matrix(0.329, 0.0, 0.0, 0.329, 0.0, 2.65)" width="71.55" xlink:href="#shape49"/>
    </g>
    <g id="shape49">
      <path d="M28.45 -35.5 Q32.1 -29.75 32.1 -23.0 L31.85 -19.4 Q31.2 -14.3 29.15 -10.6 27.05 -6.8 24.85 -4.85 L22.45 -2.75 Q28.3 0.05 32.0 6.95 35.8 13.7 35.8 20.55 35.8 25.45 34.2 29.5 32.6 33.65 30.15 37.0 27.6 40.3 25.15 42.4 16.3 50.1 -0.5 50.1 -10.85 50.1 -19.8 46.3 -28.9 42.4 -35.75 34.65 L-19.4 19.2 -15.95 22.75 Q-13.65 24.95 -10.35 26.55 -5.8 28.5 -1.85 28.9 2.8 28.4 6.6 25.7 10.15 23.0 10.15 18.45 10.15 15.0 8.8 12.45 7.35 9.9 4.75 9.05 0.45 7.9 -7.0 7.9 L-10.45 7.9 -12.05 8.2 -12.05 -9.75 -10.2 -9.75 -7.25 -9.5 Q-0.9 -9.5 3.75 -11.45 8.15 -13.2 8.2 -18.7 8.15 -23.25 5.0 -25.95 1.8 -28.65 -2.85 -28.65 -7.25 -28.65 -11.3 -26.45 -15.6 -24.1 -16.85 -20.4 L-34.1 -31.95 Q-33.4 -33.55 -30.45 -37.25 -27.65 -40.9 -24.35 -43.1 -14.5 -50.1 -1.1 -50.1 7.3 -50.1 15.55 -46.3 23.5 -42.4 28.45 -35.5" fill="#e30000" fill-rule="evenodd" stroke="none"/>
    </g>
    <g id="sprite38">
      <use ffdec:characterId="81" height="46.55" transform="matrix(1.0, 0.0, 0.0, 1.0, 0.0, 3.0)" width="59.25" xlink:href="#shape45"/>
      <use ffdec:characterId="92" height="35.45" transform="matrix(0.9274, 0.0, 0.0, 0.9274, 0.6, 2.45)" width="24.75" xlink:href="#shape50"/>
    </g>
    <g id="shape50">
      <path d="M8.2 -15.25 Q11.25 -12.9 11.5 -8.3 L11.5 -7.8 Q11.5 -5.85 10.8 -4.35 9.85 -2.65 8.75 -1.75 L7.5 -0.7 Q8.8 -0.05 10.75 2.0 12.4 3.9 12.4 7.05 L12.4 7.65 Q12.25 12.6 8.85 15.15 5.5 17.6 0.4 17.75 L-0.1 17.75 Q-5.35 17.75 -8.65 15.25 -12.2 12.7 -12.35 8.0 L-12.35 7.75 Q-12.35 5.4 -11.3 3.55 -10.35 1.65 -9.0 0.5 L-7.55 -0.7 -8.65 -1.75 Q-9.75 -2.75 -10.5 -4.45 -11.2 -5.8 -11.2 -7.6 L-11.15 -8.45 Q-10.9 -11.55 -9.2 -13.7 -7.6 -15.85 -5.0 -16.8 -2.7 -17.7 -0.05 -17.7 L0.5 -17.7 Q5.1 -17.6 8.2 -15.25 M0.15 11.65 Q2.0 11.6 3.35 10.3 4.65 8.95 4.7 7.1 4.65 5.2 3.35 3.85 2.0 2.55 0.15 2.55 -1.75 2.55 -3.1 3.85 -4.4 5.2 -4.4 7.1 -4.4 8.95 -3.1 10.3 -1.75 11.6 0.15 11.65 M0.1 -4.15 Q1.6 -4.15 2.7 -5.25 3.75 -6.3 3.75 -7.8 3.75 -9.35 2.7 -10.4 1.6 -11.5 0.1 -11.45 -1.45 -11.5 -2.5 -10.4 -3.6 -9.35 -3.55 -7.8 -3.6 -6.3 -2.5 -5.25 -1.45 -4.15 0.1 -4.15" fill="#e30000" fill-rule="evenodd" stroke="none"/>
    </g>
    <g id="sprite39">
      <use ffdec:characterId="81" height="46.55" transform="matrix(1.0, 0.0, 0.0, 1.0, 0.0, 2.6)" width="59.25" xlink:href="#shape45"/>
      <use ffdec:characterId="95" height="34.8" transform="matrix(0.935, 0.0, 0.0, 0.935, 1.15, 1.5)" width="24.6" xlink:href="#shape51"/>
    </g>
    <g id="shape51">
      <path d="M7.15 -5.0 Q9.6 -3.25 11.0 -0.35 12.3 2.45 12.3 5.5 L12.3 5.65 Q12.15 9.0 10.4 11.6 8.6 14.3 5.75 15.8 2.85 17.3 -0.35 17.4 L-0.7 17.4 Q-4.5 17.4 -8.05 15.45 -11.75 13.4 -12.3 12.5 L-6.45 6.4 -5.9 6.95 -4.85 7.9 -3.3 8.65 -0.95 9.1 Q1.05 9.1 2.65 7.55 3.9 6.3 3.9 4.8 L3.85 4.2 Q3.65 2.55 2.75 1.6 1.85 0.65 0.6 0.3 L-1.95 -0.15 -6.1 0.45 Q-8.15 1.15 -8.65 1.5 L-8.65 -17.4 10.65 -17.4 8.6 -9.7 -0.45 -9.7 -0.45 -6.55 -0.05 -6.7 0.35 -6.75 0.75 -6.8 1.25 -6.8 Q4.55 -6.8 7.15 -5.0" fill="#e30000" fill-rule="evenodd" stroke="none"/>
    </g>
    <g id="sprite40">
      <use ffdec:characterId="81" height="46.55" transform="matrix(1.0, 0.0, 0.0, 1.0, 0.0, 3.0)" width="59.25" xlink:href="#shape45"/>
      <use ffdec:characterId="87" height="36.55" transform="matrix(0.9538, 0.0, 0.0, 0.9538, -0.2, 2.05)" width="25.95" xlink:href="#shape52"/>
    </g>
    <g id="shape52">
      <path d="M9.8 -2.3 Q12.8 1.0 13.0 5.65 L13.0 6.2 Q13.0 9.75 11.25 12.45 9.35 15.3 6.25 16.8 3.1 18.3 -0.05 18.3 -5.85 18.3 -9.55 14.55 -12.95 11.05 -12.95 5.65 L-12.95 4.75 Q-12.85 2.55 -12.2 0.7 L-10.8 -2.85 -8.8 -6.3 -6.95 -9.2 Q-5.55 -11.6 0.75 -18.25 L9.75 -14.9 Q9.4 -14.85 7.15 -12.8 L3.95 -9.85 Q2.0 -8.0 -0.1 -5.3 L0.55 -5.35 1.45 -5.5 2.1 -5.55 Q6.7 -5.55 9.8 -2.3 M4.75 5.85 L4.75 5.55 Q4.65 3.65 3.25 2.3 1.9 1.15 0.25 1.15 L-0.1 1.15 Q-2.05 1.2 -3.35 2.6 -4.5 3.95 -4.5 5.65 L-4.5 6.0 Q-4.4 7.8 -3.05 9.1 -1.7 10.35 0.15 10.35 2.0 10.35 3.4 8.95 4.7 7.55 4.75 5.85" fill="#e30000" fill-rule="evenodd" stroke="none"/>
    </g>
    <g id="sprite41">
      <use ffdec:characterId="81" height="46.55" transform="matrix(1.0, 0.0, 0.0, 1.0, 0.0, 3.0)" width="59.25" xlink:href="#shape45"/>
      <use ffdec:characterId="85" height="100.95" transform="matrix(0.329, 0.0, 0.0, 0.329, 0.0, 2.0)" width="74.85" xlink:href="#shape53"/>
    </g>
    <g id="shape53">
      <path d="M23.6 -23.4 L23.6 4.75 37.45 4.75 34.0 25.75 23.8 25.75 23.8 48.4 0.15 50.5 0.15 25.75 -37.4 26.3 -24.35 -38.0 -1.1 -50.45 -11.6 5.75 1.75 5.75 1.75 -17.9 23.6 -23.4" fill="#e30000" fill-rule="evenodd" stroke="none"/>
    </g>
    <g id="sprite42">
      <use ffdec:characterId="81" height="46.55" transform="matrix(1.0, 0.0, 0.0, 1.0, 0.0, 2.4)" width="59.25" xlink:href="#shape45"/>
      <use ffdec:characterId="89" height="35.45" transform="matrix(0.9553, 0.0, 0.0, 0.9553, 0.85, 1.45)" width="24.55" xlink:href="#shape54"/>
    </g>
    <g id="shape54">
      <path d="M-10.0 -17.7 L12.3 -17.7 1.6 16.35 -8.1 17.75 1.4 -9.55 -12.25 -9.55 -10.0 -17.7" fill="#e30000" fill-rule="evenodd" stroke="none"/>
    </g>
    <g id="sprite43">
      <use ffdec:characterId="81" height="46.55" transform="matrix(1.0, 0.0, 0.0, 1.0, 0.0, 2.65)" width="59.25" xlink:href="#shape45"/>
      <use ffdec:characterId="34" height="112.05" transform="matrix(0.329, 0.0, 0.0, 0.3022, 0.0, 1.65)" width="42.15" xlink:href="#shape47"/>
    </g>
    <g id="sprite44">
      <use ffdec:characterId="81" height="46.55" transform="matrix(1.0, 0.0, 0.0, 1.0, 0.0, 3.0)" width="59.25" xlink:href="#shape45"/>
      <use ffdec:characterId="83" height="98.25" transform="matrix(0.329, 0.0, 0.0, 0.329, 0.0, 3.0)" width="75.0" xlink:href="#shape55"/>
    </g>
    <g id="shape55">
      <path d="M34.5 -19.15 L34.5 -17.8 Q34.5 -10.45 30.25 -1.4 25.55 8.65 18.85 16.05 L8.9 26.95 37.5 26.95 31.7 49.15 -37.5 49.15 -1.8 6.5 Q9.85 -8.6 9.9 -15.0 L9.9 -15.7 Q9.15 -22.0 5.85 -25.05 2.75 -27.85 -1.5 -27.85 L-2.25 -27.85 Q-6.95 -27.75 -10.1 -24.45 -13.05 -21.15 -13.3 -16.35 L-13.3 -15.95 -13.25 -15.25 -35.6 -8.0 Q-36.5 -11.85 -36.45 -16.1 L-36.45 -17.9 Q-36.1 -26.9 -31.45 -34.25 -26.95 -41.35 -18.6 -45.3 -10.75 -49.1 -1.15 -49.1 L-0.8 -49.1 Q8.4 -49.1 16.35 -45.5 24.2 -42.0 29.15 -35.35 33.9 -28.6 34.5 -19.15" fill="#e30000" fill-rule="evenodd" stroke="none"/>
    </g>
  </defs>
</svg>
