<?xml version="1.0" encoding="UTF-8" standalone="no"?>
<svg xmlns:ffdec="https://www.free-decompiler.com/flash" xmlns:xlink="http://www.w3.org/1999/xlink" ffdec:objectType="frame" height="410.0px" width="590.0px" xmlns="http://www.w3.org/2000/svg">
  <g transform="matrix(1.0, 0.0, 0.0, 1.0, 0.0, 0.0)">
    <rect fill="#000000" height="410.0px" width="590.0px"/>
    <use ffdec:characterId="1" height="40.55" transform="matrix(0.8519, 0.0, 0.0, 0.8519, 59.95, 270.75)" width="54.35" xlink:href="#shape0"/>
    <use ffdec:characterId="1" height="40.55" transform="matrix(0.9987, 0.0, 0.0, 0.9987, 489.55, 388.0)" width="54.35" xlink:href="#shape0"/>
    <use ffdec:characterId="1" height="40.55" transform="matrix(0.8519, 0.0, 0.0, 0.8519, 547.05, 355.75)" width="54.35" xlink:href="#shape0"/>
    <use ffdec:characterId="1" height="40.55" transform="matrix(0.9987, 0.0, 0.0, 0.9987, 426.65, 349.8)" width="54.35" xlink:href="#shape0"/>
    <use ffdec:characterId="7" height="88.7" transform="matrix(1.0, 0.0, 0.0, 1.0, 104.0, 149.15)" width="79.2" xlink:href="#sprite0"/>
    <use ffdec:characterId="8" height="186.4" transform="matrix(1.0, 0.0, 0.0, 1.0, 236.0, 452.15)" width="86.6" xlink:href="#shape2"/>
    <use ffdec:characterId="9" height="59.55" transform="matrix(1.0, 0.0, 0.0, 1.0, 235.25, 562.95)" width="91.0" xlink:href="#shape3"/>
    <use ffdec:characterId="10" height="215.85" transform="matrix(1.0, 0.0, 0.0, 1.0, 195.1, 426.8)" width="12.15" xlink:href="#shape4"/>
    <use ffdec:characterId="11" height="215.85" transform="matrix(1.0, 0.0, 0.0, 1.0, 278.45, 426.3)" width="12.15" xlink:href="#shape5"/>
    <use ffdec:characterId="12" height="8.25" transform="matrix(0.0058, -1.9999, 1.0612, 0.0109, 276.7, 460.15)" width="3.5" xlink:href="#shape6"/>
    <use ffdec:characterId="12" height="8.25" transform="matrix(0.0056, -1.9999, 1.025, 0.0109, 196.9, 460.15)" width="3.5" xlink:href="#shape6"/>
    <use ffdec:characterId="12" height="8.25" transform="matrix(0.006, -1.2539, 1.0975, 0.0068, 193.95, 531.65)" width="3.5" xlink:href="#shape6"/>
    <use ffdec:characterId="12" height="8.25" transform="matrix(0.006, -1.2539, 1.0975, 0.0068, 279.4, 531.7)" width="3.5" xlink:href="#shape6"/>
    <use ffdec:characterId="10" height="215.85" transform="matrix(0.0, -1.0, 0.4576, 0.0, 235.2, 524.75)" width="12.15" xlink:href="#shape4"/>
    <use ffdec:characterId="12" height="8.25" transform="matrix(0.0054, -1.0, 1.0, 0.0054, 194.2, 339.45)" width="3.5" xlink:href="#shape6"/>
    <use ffdec:characterId="12" height="8.25" transform="matrix(0.0054, -1.0, 1.0, 0.0054, 279.4, 340.45)" width="3.5" xlink:href="#shape6"/>
    <use ffdec:characterId="11" height="215.85" transform="matrix(-0.0053, -1.0, 0.4858, -0.0023, 236.0, 334.2)" width="12.15" xlink:href="#shape5"/>
    <use ffdec:characterId="12" height="8.25" transform="matrix(1.0, 0.0, 0.0, 1.0, 229.6, 336.05)" width="3.5" xlink:href="#shape6"/>
    <use ffdec:characterId="12" height="8.25" transform="matrix(0.0059, -1.1428, 1.0843, 0.0062, 277.8, 497.8)" width="3.5" xlink:href="#shape6"/>
    <use ffdec:characterId="12" height="8.25" transform="matrix(0.0059, -1.1428, 1.0843, 0.0062, 195.9, 496.2)" width="3.5" xlink:href="#shape6"/>
    <use ffdec:characterId="10" height="215.85" transform="matrix(0.0, -1.0, 0.4576, 0.0, 233.0, 489.35)" width="12.15" xlink:href="#shape4"/>
    <use ffdec:characterId="12" height="8.25" transform="matrix(0.0054, -1.0, 1.0, 0.0054, 196.2, 379.05)" width="3.5" xlink:href="#shape6"/>
    <use ffdec:characterId="12" height="8.25" transform="matrix(0.0054, -1.0, 1.0, 0.0054, 277.6, 380.05)" width="3.5" xlink:href="#shape6"/>
    <use ffdec:characterId="11" height="215.85" transform="matrix(-0.0053, -1.0, 0.4858, -0.0023, 235.95, 373.2)" width="12.15" xlink:href="#shape5"/>
    <use ffdec:characterId="12" height="8.25" transform="matrix(0.0054, -1.0, 1.0, 0.0054, 197.2, 416.55)" width="3.5" xlink:href="#shape6"/>
    <use ffdec:characterId="12" height="8.25" transform="matrix(0.0054, -1.0, 1.0, 0.0054, 276.6, 417.15)" width="3.5" xlink:href="#shape6"/>
    <use ffdec:characterId="11" height="215.85" transform="matrix(-0.0053, -1.0, 0.4858, -0.0023, 235.95, 410.6)" width="12.15" xlink:href="#shape5"/>
    <use ffdec:characterId="10" height="215.85" transform="matrix(0.0, -1.0, 0.4576, 0.0, 235.85, 452.05)" width="12.15" xlink:href="#shape4"/>
    <use ffdec:characterId="12" height="8.25" transform="matrix(1.0, 0.0, 0.0, 1.0, 227.8, 375.05)" width="3.5" xlink:href="#shape6"/>
    <use ffdec:characterId="12" height="8.25" transform="matrix(1.0, 0.0, 0.0, 1.0, 227.4, 412.35)" width="3.5" xlink:href="#shape6"/>
    <use ffdec:characterId="12" height="8.25" transform="matrix(1.0, 0.0, 0.0, 1.0, 227.4, 450.35)" width="3.5" xlink:href="#shape6"/>
    <use ffdec:characterId="12" height="8.25" transform="matrix(1.0, 0.0, 0.0, 1.0, 227.9, 487.55)" width="3.5" xlink:href="#shape6"/>
    <use ffdec:characterId="11" height="215.85" transform="matrix(0.995, 0.0934, 0.0114, 0.9746, 235.5, 427.45)" width="12.15" xlink:href="#shape5"/>
    <use ffdec:characterId="13" height="11.3" transform="matrix(1.0, 0.0, 0.0, 1.0, 235.55, 335.5)" width="9.35" xlink:href="#shape7"/>
    <use ffdec:characterId="13" height="11.3" transform="matrix(1.0, 0.0, 0.0, 1.0, 233.9, 375.65)" width="9.35" xlink:href="#shape7"/>
    <use ffdec:characterId="13" height="11.3" transform="matrix(1.0, 0.0, 0.0, 1.0, 233.35, 412.5)" width="9.35" xlink:href="#shape7"/>
    <use ffdec:characterId="13" height="11.3" transform="matrix(-1.0, 0.0, 0.0, 1.0, 233.8, 450.3)" width="9.35" xlink:href="#shape7"/>
    <use ffdec:characterId="13" height="11.3" transform="matrix(1.2686, 0.0, 0.0, 1.0536, 234.3, 487.3)" width="9.35" xlink:href="#shape7"/>
    <use ffdec:characterId="14" height="13.8" transform="matrix(-0.783, 0.0, 0.0, 0.783, 193.05, 333.8)" width="11.4" xlink:href="#shape8"/>
    <use ffdec:characterId="14" height="13.8" transform="matrix(1.0, 0.0, 0.0, 1.0, 194.1, 333.7)" width="11.4" xlink:href="#shape8"/>
    <use ffdec:characterId="14" height="13.8" transform="matrix(-0.783, 0.0, 0.0, 0.783, 195.25, 373.95)" width="11.4" xlink:href="#shape8"/>
    <use ffdec:characterId="14" height="13.8" transform="matrix(1.0, 0.0, 0.0, 1.0, 196.3, 373.85)" width="11.4" xlink:href="#shape8"/>
    <use ffdec:characterId="14" height="13.8" transform="matrix(-0.783, 0.0, 0.0, 0.783, 196.35, 411.35)" width="11.4" xlink:href="#shape8"/>
    <use ffdec:characterId="14" height="13.8" transform="matrix(1.0, 0.0, 0.0, 1.0, 197.4, 411.25)" width="11.4" xlink:href="#shape8"/>
    <use ffdec:characterId="14" height="13.8" transform="matrix(0.783, 0.0, 0.0, 0.783, 197.35, 453.05)" width="11.4" xlink:href="#shape8"/>
    <use ffdec:characterId="14" height="13.8" transform="matrix(-1.0, 0.0, 0.0, 1.0, 196.3, 452.95)" width="11.4" xlink:href="#shape8"/>
    <use ffdec:characterId="14" height="13.8" transform="matrix(0.783, 0.0, 0.0, 0.783, 196.2, 490.85)" width="11.4" xlink:href="#shape8"/>
    <use ffdec:characterId="14" height="13.8" transform="matrix(-1.0, 0.0, 0.0, 1.0, 195.15, 490.75)" width="11.4" xlink:href="#shape8"/>
    <use ffdec:characterId="14" height="13.8" transform="matrix(0.783, 0.0, 0.0, 0.783, 194.15, 526.15)" width="11.4" xlink:href="#shape8"/>
    <use ffdec:characterId="14" height="13.8" transform="matrix(-1.0, 0.0, 0.0, 1.0, 193.1, 526.05)" width="11.4" xlink:href="#shape8"/>
    <use ffdec:characterId="12" height="8.25" transform="matrix(1.0, 0.0, 0.0, 1.0, 230.4, 522.85)" width="3.5" xlink:href="#shape6"/>
    <use ffdec:characterId="13" height="11.3" transform="matrix(1.2686, 0.0, 0.0, 1.0536, 237.35, 523.4)" width="9.35" xlink:href="#shape7"/>
    <use ffdec:characterId="14" height="13.8" transform="matrix(0.783, 0.0, 0.0, 0.783, 280.15, 333.8)" width="11.4" xlink:href="#shape8"/>
    <use ffdec:characterId="14" height="13.8" transform="matrix(-1.0, 0.0, 0.0, 1.0, 279.1, 333.7)" width="11.4" xlink:href="#shape8"/>
    <use ffdec:characterId="14" height="13.8" transform="matrix(0.783, 0.0, 0.0, 0.783, 277.95, 373.95)" width="11.4" xlink:href="#shape8"/>
    <use ffdec:characterId="14" height="13.8" transform="matrix(-1.0, 0.0, 0.0, 1.0, 276.9, 373.85)" width="11.4" xlink:href="#shape8"/>
    <use ffdec:characterId="14" height="13.8" transform="matrix(0.783, 0.0, 0.0, 0.783, 276.85, 411.35)" width="11.4" xlink:href="#shape8"/>
    <use ffdec:characterId="14" height="13.8" transform="matrix(-1.0, 0.0, 0.0, 1.0, 275.8, 411.25)" width="11.4" xlink:href="#shape8"/>
    <use ffdec:characterId="14" height="13.8" transform="matrix(-0.783, 0.0, 0.0, 0.783, 276.2, 453.2)" width="11.4" xlink:href="#shape8"/>
    <use ffdec:characterId="14" height="13.8" transform="matrix(1.0, 0.0, 0.0, 1.0, 277.25, 453.1)" width="11.4" xlink:href="#shape8"/>
    <use ffdec:characterId="14" height="13.8" transform="matrix(-0.783, 0.0, 0.0, 0.783, 277.15, 490.6)" width="11.4" xlink:href="#shape8"/>
    <use ffdec:characterId="14" height="13.8" transform="matrix(1.0, 0.0, 0.0, 1.0, 278.2, 490.5)" width="11.4" xlink:href="#shape8"/>
    <use ffdec:characterId="14" height="13.8" transform="matrix(-0.8792, 0.0, 0.0, 0.6468, 278.65, 525.85)" width="11.4" xlink:href="#shape8"/>
    <use ffdec:characterId="14" height="13.8" transform="matrix(1.1228, 0.0, 0.0, 0.8261, 279.85, 525.75)" width="11.4" xlink:href="#shape8"/>
    <use ffdec:characterId="15" height="110.0" transform="matrix(1.3727, 3.6952, 3.6952, -1.3727, 436.15, 107.1)" width="79.15" xlink:href="#shape9"/>
    <use ffdec:characterId="16" height="159.5" transform="matrix(1.0, 0.0, 0.0, 1.0, 356.15, 129.2)" width="217.05" xlink:href="#shape10"/>
    <use ffdec:characterId="4" height="13.4" transform="matrix(-1.7803, 1.5507, 1.5507, 1.7803, 40.7, 168.35)" width="13.4" xlink:href="#sprite2"/>
    <use ffdec:characterId="4" height="13.4" transform="matrix(-1.7803, 1.5507, 1.5507, 1.7803, 259.65, 21.85)" width="13.4" xlink:href="#sprite2"/>
    <use ffdec:characterId="18" height="21.8" transform="matrix(-2.752, -0.1897, -0.1897, 2.7521, 205.45, 175.7)" width="21.85" xlink:href="#sprite3"/>
    <use ffdec:characterId="20" height="5.7" transform="matrix(-2.752, -0.1897, -0.1897, 2.7521, 197.55, 193.1)" width="5.8" xlink:href="#sprite4"/>
    <use ffdec:characterId="21" height="11.1" transform="matrix(-2.1833, 0.8256, 1.5359, 2.5374, 215.4, 218.3)" width="25.15" xlink:href="#shape14"/>
    <use ffdec:characterId="21" height="11.1" transform="matrix(2.2663, -1.974, 1.974, 2.2663, 287.65, 177.05)" width="25.15" xlink:href="#shape14"/>
    <use ffdec:characterId="22" height="16.45" transform="matrix(2.5026, -1.6579, 1.6579, 2.5026, 302.45, 132.7)" width="12.35" xlink:href="#shape15"/>
    <use ffdec:characterId="23" height="14.4" transform="matrix(2.2663, -1.974, 1.974, 2.2663, 245.4, 205.3)" width="16.75" xlink:href="#shape16"/>
    <use ffdec:characterId="18" height="21.8" transform="matrix(-1.6479, 2.4483, 2.4483, 1.6479, 246.25, 147.85)" width="21.85" xlink:href="#sprite3"/>
    <use ffdec:characterId="20" height="5.7" transform="matrix(-1.6479, 2.4483, 2.4483, 1.6479, 236.5, 163.4)" width="5.8" xlink:href="#sprite4"/>
    <use ffdec:characterId="24" height="26.3" transform="matrix(3.0083, -1.324, 1.324, 3.0083, 241.85, 161.95)" width="55.25" xlink:href="#shape17"/>
    <use ffdec:characterId="25" height="20.8" transform="matrix(9.5198, 1.7254, -1.9355, 8.9008, 199.6, 264.4)" width="18.45" xlink:href="#shape18"/>
    <use ffdec:characterId="26" height="11.7" transform="matrix(4.6036, 0.8344, -0.936, 4.3044, 227.9, 194.55)" width="7.4" xlink:href="#shape19"/>
    <use ffdec:characterId="27" height="323.4" transform="matrix(-1.0, 0.0, 0.0, -1.0, 286.95, 420.9)" width="761.95" xlink:href="#shape20"/>
    <use ffdec:characterId="30" height="89.55" transform="matrix(1.0, 0.0, 0.0, 1.0, 294.45, 469.1)" width="597.7" xlink:href="#shape21"/>
    <use ffdec:characterId="31" height="18.3" transform="matrix(6.2669, 0.0, 0.0, 6.2669, 243.85, 350.35)" width="25.0" xlink:href="#shape22"/>
    <clipPath id="clipPath0">
      <path d="M 215.5 284.9 L 215.2 284.9 L 213.67 285.11 L 212.16 285.35 L 210.66 285.61 L 209.19 285.88 L 207.74 286.18 L 206.3 286.51 L 204.89 286.85 L 203.49 287.21 L 202.11 287.6 L 200.75 288.01 L 199.42 288.44 L 198.1 288.89 L 196.8 289.36 L 195.51 289.85 L 194.25 290.37 L 193.01 290.91 L 191.79 291.46 L 190.58 292.04 L 189.4 292.65 L 188.23 293.27 L 187.08 293.91 L 185.96 294.58 L 184.85 295.27 L 183.76 295.98 L 182.69 296.71 L 181.64 297.46 L 180.61 298.23 L 179.59 299.03 L 178.6 299.85 L 177.63 300.68 L 176.67 301.54 L 175.74 302.42 L 174.82 303.33 L 173.92 304.25 L 173.05 305.2 L 172.19 306.17 L 171.35 307.16 L 170.53 308.17 L 169.73 309.2 L 168.95 310.25 L 168.18 311.33 L 167.44 312.42 L 166.72 313.54 L 166.01 314.68 L 165.33 315.84 L 164.66 317.03 L 164.01 318.23 L 163.38 319.46 L 162.78 320.7 L 162.19 321.97 L 161.62 323.26 L 161.06 324.58 L 160.53 325.91 L 160.02 327.26 L 159.53 328.64 L 159.05 330.04 L 158.6 331.46 L 158.16 332.9 L 157.74 334.36 L 157.35 335.85 L 156.97 337.35 L 156.61 338.88 L 156.27 340.43 L 155.95 342 L 152.09 342.26 L 148.21 342.54 L 144.32 342.83 L 140.43 343.14 L 136.52 343.46 L 132.6 343.79 L 128.67 344.14 L 124.73 344.51 L 120.78 344.89 L 116.82 345.29 L 112.85 345.7 L 108.87 346.12 L 104.88 346.56 L 100.87 347.01 L 96.86 347.48 L 92.83 347.97 L 88.8 348.46 L 84.75 348.98 L 80.7 349.51 L 76.63 350.05 L 72.55 350.61 L 68.46 351.18 L 64.36 351.76 L 60.25 352.37 L 56.13 352.98 L 52 353.61 L 47.86 354.26 L 43.71 354.92 L 39.54 355.6 L 35.37 356.29 L 31.18 356.99 L 26.99 357.71 L 22.78 358.45 L 18.56 359.2 L 14.34 359.96 L 10.1 360.74 L 5.85 361.53 L 1.59 362.34 L -2.68 363.17 L -6.96 364 L -11.25 364.86 L -15.55 365.72 L -19.87 366.61 L -24.19 367.5 L -28.52 368.42 L -32.87 369.34 L -37.22 370.28 L -41.59 371.24 L -45.97 372.21 L -50.35 373.2 L -54.75 374.2 L -59.16 375.21 L -63.58 376.24 L -68.01 377.29 L -72.45 378.35 L -76.9 379.42 L -81.37 380.51 L -85.84 381.62 L -90.32 382.73 L -94.82 383.87 L -99.32 385.02 L -103.84 386.18 L -108.36 387.36 L -112.9 388.55 L -112.9 475 L 643.95 475 L 643.95 373.85 L 637.66 372.76 L 631.4 371.68 L 625.15 370.62 L 618.94 369.57 L 612.74 368.55 L 606.58 367.54 L 600.43 366.55 L 594.31 365.57 L 588.22 364.62 L 582.15 363.68 L 576.1 362.75 L 570.08 361.85 L 564.08 360.96 L 558.1 360.09 L 552.15 359.24 L 546.23 358.4 L 540.32 357.58 L 534.45 356.78 L 528.59 355.99 L 522.77 355.23 L 516.96 354.48 L 511.18 353.74 L 505.42 353.03 L 499.69 352.33 L 493.99 351.65 L 488.3 350.98 L 482.64 350.34 L 477.01 349.71 L 471.4 349.1 L 465.81 348.5 L 460.25 347.92 L 454.71 347.36 L 449.2 346.82 L 443.71 346.29 L 438.24 345.79 L 432.8 345.29 L 427.39 344.82 L 421.99 344.36 L 416.62 343.92 L 411.28 343.5 L 405.96 343.1 L 400.67 342.71 L 395.39 342.34 L 390.15 341.98 L 384.93 341.65 L 379.73 341.33 L 374.55 341.03 L 369.4 340.74 L 364.28 340.47 L 359.18 340.22 L 354.1 339.99 L 349.05 339.78 L 344.02 339.58 L 339.01 339.4 L 334.03 339.23 L 329.08 339.09 L 324.15 338.96 L 319.24 338.85 L 314.35 338.75 L 309.5 338.67 L 304.66 338.61 L 299.85 338.57 L 295.06 338.54 L 290.3 338.53 L 284 338.55 L 283.55 336.89 L 283.08 335.25 L 282.59 333.64 L 282.08 332.05 L 281.55 330.49 L 281 328.96 L 280.43 327.46 L 279.84 325.98 L 279.23 324.52 L 278.61 323.09 L 277.96 321.69 L 277.29 320.32 L 276.61 318.97 L 275.9 317.65 L 275.17 316.35 L 274.43 315.08 L 273.66 313.83 L 272.88 312.62 L 272.07 311.42 L 271.25 310.26 L 270.4 309.12 L 269.54 308 L 268.66 306.92 L 267.75 305.86 L 266.83 304.82 L 265.89 303.81 L 264.93 302.83 L 263.94 301.87 L 262.94 300.94 L 261.92 300.04 L 260.88 299.16 L 259.82 298.31 L 258.74 297.49 L 257.64 296.69 L 256.52 295.92 L 255.38 295.17 L 254.22 294.45 L 253.05 293.75 L 251.85 293.09 L 250.63 292.44 L 249.39 291.83 L 248.13 291.24 L 246.86 290.68 L 245.56 290.14 L 244.25 289.63 L 242.91 289.14 L 241.55 288.68 L 240.18 288.25 L 238.78 287.85 L 237.37 287.47 L 235.94 287.11 L 234.48 286.79 L 233.01 286.48 L 231.52 286.21 L 230 285.96 L 228.47 285.74 L 226.92 285.54 L 225.35 285.37 L 223.76 285.23 L 222.14 285.11 L 220.51 285.02 L 218.86 284.95 L 217.19 284.91 L 215.5 284.9 Z"/>
    </clipPath>
    <g clip-path="url(#clipPath0)">
      <use ffdec:characterId="29" height="549.15" transform="matrix(1.0, 0.0, 0.0, 1.0, 280.45, 747.0)" width="784.95" xlink:href="#shape23"/>
    </g>
    <use ffdec:characterId="27" height="323.4" transform="matrix(1.0, 0.0, 0.0, 1.0, 285.95, -98.1)" width="761.95" xlink:href="#shape20"/>
    <use ffdec:characterId="33" height="16.25" transform="matrix(1.1852, 0.0, 0.0, 1.1852, 196.75, 193.15)" width="16.25" xlink:href="#shape24"/>
    <use ffdec:characterId="33" height="16.25" transform="matrix(0.3501, -1.3228, 1.3228, 0.3501, 238.65, 161.1)" width="16.25" xlink:href="#shape24"/>
    <use ffdec:characterId="32" height="37.0" transform="matrix(-1.5238, 1.9084, -1.9084, -1.5238, 395.4, 111.85)" width="26.7" xlink:href="#shape25"/>
  </g>
  <defs>
    <g id="shape0">
      <path d="M-1.3 -19.85 Q1.05 -20.95 3.55 -18.95 5.15 -16.8 5.8 -18.0 11.45 -22.75 17.9 -12.55 25.7 -8.55 26.7 -5.75 L25.4 -1.0 Q22.25 8.8 19.85 -4.8 L18.8 -6.3 17.9 -6.75 Q16.85 -6.8 16.05 -4.0 L15.75 -1.55 14.65 1.7 Q13.3 4.15 12.3 5.05 10.8 6.35 9.95 4.4 L7.75 -2.5 Q7.25 -6.5 4.45 -7.55 1.8 -9.1 0.25 -2.6 -0.35 1.75 -1.4 4.05 -2.4 6.25 -3.85 6.55 -6.1 6.3 -7.95 0.85 -10.45 -6.4 -12.2 -3.3 L-13.0 -1.75 Q-13.75 0.4 -14.45 1.55 -16.25 4.45 -17.7 1.5 -18.1 -1.1 -19.05 -1.4 L-19.25 -3.35 -19.1 -4.75 -18.25 -8.05 Q-17.15 -11.2 -14.9 -15.45 L-13.0 -15.7 Q-12.9 -15.2 -12.95 -12.5 -13.0 -9.8 -13.15 -9.1 -13.9 -8.45 -14.25 -5.3 -13.9 -4.8 -15.25 -0.95 L-13.3 -4.7 Q-13.4 -8.3 -12.65 -8.65 -12.4 -9.4 -11.7 -15.0 L-11.7 -15.05 Q-10.95 -19.4 -6.75 -17.15 -3.65 -14.95 -3.05 -16.05 -1.55 -2.55 -1.4 0.8 -0.45 -6.7 1.8 -8.35 1.3 -9.3 0.05 -13.7 -1.25 -18.4 -1.3 -19.85 M27.15 -0.85 L26.35 2.05 Q25.3 5.4 24.55 6.45 21.7 7.95 20.2 5.5 18.9 2.35 18.65 -1.8 18.25 -1.8 17.95 -0.8 17.3 4.15 16.2 7.3 15.75 9.55 14.1 11.45 L10.05 11.65 Q8.05 11.65 6.35 4.45 L5.95 2.65 Q4.05 -6.35 2.1 1.3 L-0.2 8.7 Q-1.75 11.2 -3.65 11.15 -5.5 11.05 -7.25 8.6 -8.6 6.2 -10.55 1.15 -4.5 12.05 -2.15 10.35 0.25 8.85 0.8 3.55 2.5 -3.7 4.8 -2.1 5.6 -1.4 6.65 4.4 8.6 15.15 14.4 9.6 15.75 7.25 16.85 0.35 18.0 -3.55 18.75 -2.55 19.4 -1.35 20.25 3.2 21.75 9.1 24.25 5.65 25.6 3.1 27.15 -0.85 M15.1 -2.8 Q15.2 -5.2 16.1 -6.1 L11.95 -11.55 15.1 -2.8 M20.0 -10.4 L17.8 -11.65 19.85 -8.0 Q19.1 -10.15 20.0 -10.4 M24.2 -2.45 Q23.15 -1.05 22.1 -3.6 L23.15 -0.1 24.2 -2.45 M13.45 1.65 Q11.25 6.15 10.0 0.95 10.75 4.75 11.5 4.55 12.45 4.65 13.45 1.65 M-16.2 -2.6 Q-16.45 -6.45 -17.8 -5.0 -16.95 -5.65 -16.2 -2.6 M-16.7 -1.25 Q-16.95 -5.1 -18.3 -3.65 -17.45 -4.3 -16.7 -1.25 M-15.6 -4.05 Q-15.85 -7.9 -17.2 -6.45 -16.35 -7.1 -15.6 -4.05 M-6.4 -7.8 Q-6.9 -10.7 -7.75 -11.85 L-10.8 -11.8 -8.6 -11.85 Q-7.1 -11.1 -6.4 -7.8 M-7.1 -3.45 L-5.5 3.7 Q-4.35 6.7 -2.85 4.8 -4.4 4.85 -5.45 1.75 -6.3 -0.75 -6.85 -5.2 -8.85 -10.3 -11.9 -7.45 -7.95 -9.6 -7.1 -3.45 M-16.2 6.7 L-14.4 4.25 Q-12.8 1.8 -12.7 1.3 L-12.1 0.6 Q-11.5 0.05 -11.3 0.2 -15.85 7.85 -16.2 6.95 L-16.2 6.7" fill="#fffff3" fill-rule="evenodd" stroke="none"/>
      <path d="M-1.3 -19.85 Q-1.25 -18.4 0.05 -13.7 1.3 -9.3 1.8 -8.35 -0.45 -6.7 -1.4 0.8 -1.55 -2.55 -3.05 -16.05 -1.7 -19.7 -1.3 -19.85 M-11.7 -15.0 Q-12.4 -9.4 -12.65 -8.65 -13.4 -8.3 -13.3 -4.7 L-15.25 -0.95 Q-13.9 -4.8 -14.25 -5.3 -13.9 -8.45 -13.15 -9.1 -13.0 -9.8 -12.95 -12.5 -12.9 -15.2 -13.0 -15.7 -12.4 -15.5 -11.7 -15.0 M-14.9 -15.45 Q-17.15 -11.2 -18.25 -8.05 L-19.1 -4.75 -19.25 -3.35 -19.05 -1.4 Q-19.9 -1.55 -21.75 0.25 -22.75 1.7 -21.75 4.25 -22.35 4.0 -22.6 3.05 L-22.75 1.3 -22.5 -0.9 Q-22.1 -2.75 -18.65 -9.05 L-14.9 -15.45 M24.55 6.45 L22.85 8.25 18.7 9.0 Q17.2 9.0 16.6 8.25 L16.2 7.3 Q17.3 4.15 17.95 -0.8 18.25 -1.8 18.65 -1.8 18.9 2.35 20.2 5.5 21.7 7.95 24.55 6.45 M12.1 14.6 Q11.2 15.55 10.25 15.95 3.65 12.5 3.4 10.1 2.9 6.35 0.9 12.8 0.55 15.1 -1.2 15.75 -3.1 16.45 -5.6 14.85 L-6.65 13.7 Q-7.45 12.55 -7.6 11.4 -9.7 7.0 -10.75 2.55 -9.15 12.7 -11.7 12.9 L-12.95 12.4 Q-15.25 10.5 -16.2 6.95 -17.15 7.25 -17.7 6.55 -18.2 2.35 -19.55 2.3 -18.4 0.9 -17.85 3.0 -17.6 6.95 -16.2 6.7 L-16.2 6.95 Q-15.85 7.85 -11.3 0.2 L-10.55 1.15 Q-8.6 6.2 -7.25 8.6 -5.5 11.05 -3.65 11.15 -1.75 11.2 -0.2 8.7 L2.1 1.3 Q4.05 -6.35 5.95 2.65 L6.35 4.45 Q8.05 11.65 10.05 11.65 L14.1 11.45 Q13.15 13.45 12.1 14.6 M20.0 -10.4 Q19.1 -10.15 19.85 -8.0 L17.8 -11.65 20.0 -10.4 M15.1 -2.8 L11.95 -11.55 16.1 -6.1 Q15.2 -5.2 15.1 -2.8 M13.45 1.65 Q12.45 4.65 11.5 4.55 10.75 4.75 10.0 0.95 11.25 6.15 13.45 1.65 M24.2 -2.45 L23.15 -0.1 22.1 -3.6 Q23.15 -1.05 24.2 -2.45 M-15.6 -4.05 Q-16.35 -7.1 -17.2 -6.45 -15.85 -7.9 -15.6 -4.05 M-16.7 -1.25 Q-17.45 -4.3 -18.3 -3.65 -16.95 -5.1 -16.7 -1.25 M-16.2 -2.6 Q-16.95 -5.65 -17.8 -5.0 -16.45 -6.45 -16.2 -2.6 M-6.4 -7.8 Q-7.1 -11.1 -8.6 -11.85 L-10.8 -11.8 -7.75 -11.85 Q-6.9 -10.7 -6.4 -7.8 M-7.1 -3.45 Q-7.95 -9.6 -11.9 -7.45 -8.85 -10.3 -6.85 -5.2 -6.3 -0.75 -5.45 1.75 -4.4 4.85 -2.85 4.8 -4.35 6.7 -5.5 3.7 L-7.1 -3.45" fill="#ffcfb7" fill-rule="evenodd" stroke="none"/>
      <path d="M-19.05 -1.4 Q-18.1 -1.1 -17.7 1.5 -16.25 4.45 -14.45 1.55 -13.75 0.4 -13.0 -1.75 L-12.2 -3.3 Q-10.45 -6.4 -7.95 0.85 -6.1 6.3 -3.85 6.55 -2.4 6.25 -1.4 4.05 -0.35 1.75 0.25 -2.6 1.8 -9.1 4.45 -7.55 7.25 -6.5 7.75 -2.5 L9.95 4.4 Q10.8 6.35 12.3 5.05 13.3 4.15 14.65 1.7 L15.75 -1.55 16.05 -4.0 Q16.85 -6.8 17.9 -6.75 L18.8 -6.3 19.85 -4.8 Q22.25 8.8 25.4 -1.0 L26.7 -5.75 Q26.65 -4.4 27.15 -0.85 25.6 3.1 24.25 5.65 21.75 9.1 20.25 3.2 19.4 -1.35 18.75 -2.55 18.0 -3.55 16.85 0.35 15.75 7.25 14.4 9.6 8.6 15.15 6.65 4.4 5.6 -1.4 4.8 -2.1 2.5 -3.7 0.8 3.55 0.25 8.85 -2.15 10.35 -4.5 12.05 -10.55 1.15 L-11.3 0.2 Q-11.5 0.05 -12.1 0.6 L-12.7 1.3 Q-12.8 1.8 -14.4 4.25 L-16.2 6.7 Q-17.6 6.95 -17.85 3.0 -18.4 0.9 -19.55 2.3 -19.6 3.3 -21.75 4.25 -22.75 1.7 -21.75 0.25 -19.9 -1.55 -19.05 -1.4" fill="#000000" fill-rule="evenodd" stroke="none"/>
      <path d="M20.65 9.75 L20.85 9.85 12.1 14.6 Q13.15 13.45 14.1 11.45 17.6 11.45 20.65 9.75 M8.3 16.3 Q-5.55 22.0 -15.9 19.6 -34.45 11.45 -22.6 3.05 -22.35 4.0 -21.75 4.25 -20.1 4.7 -17.7 6.55 -17.15 7.25 -16.2 6.95 -15.25 10.5 -12.95 12.4 L-11.7 12.9 Q-9.45 13.45 -7.6 11.4 -7.45 12.55 -6.65 13.7 L-5.6 14.85 Q-3.1 16.45 -1.2 15.75 0.55 15.1 0.9 12.8 1.7 11.95 2.5 12.8 5.65 16.1 8.3 16.3" fill="#000000" fill-opacity="0.3019608" fill-rule="evenodd" stroke="none"/>
      <path d="M22.85 8.25 L20.65 9.75 Q17.6 11.45 14.1 11.45 15.75 9.55 16.2 7.3 L16.6 8.25 Q17.2 9.0 18.7 9.0 L22.85 8.25 M10.25 15.95 L8.3 16.3 Q5.65 16.1 2.5 12.8 1.7 11.95 0.9 12.8 2.9 6.35 3.4 10.1 3.65 12.5 10.25 15.95 M-7.6 11.4 Q-9.45 13.45 -11.7 12.9 -9.15 12.7 -10.75 2.55 -9.7 7.0 -7.6 11.4" fill="#d3705a" fill-rule="evenodd" stroke="none"/>
      <path d="M-17.7 6.55 Q-20.1 4.7 -21.75 4.25 -19.6 3.3 -19.55 2.3 -18.2 2.35 -17.7 6.55" fill="#e49d87" fill-rule="evenodd" stroke="none"/>
    </g>
    <g id="sprite0">
      <use ffdec:characterId="2" height="81.2" transform="matrix(1.0, 0.0, 0.0, 1.0, 0.0, 0.0)" width="64.4" xlink:href="#morphshape0"/>
      <use ffdec:characterId="4" height="13.4" transform="matrix(-0.8349, 0.4315, 0.4315, 0.8349, -21.9, -43.4)" width="13.4" xlink:href="#sprite1"/>
      <use ffdec:characterId="4" height="13.4" transform="matrix(-0.8349, 0.4315, 0.4315, 0.8349, 35.1, -53.05)" width="13.4" xlink:href="#sprite1"/>
    </g>
    <g id="morphshape0">
      <path d="M-21.9 -43.4 Q1.8 -27.15 7.95 -1.25 14.1 24.6 18.5 24.9 22.85 25.2 30.55 0.4 38.2 -24.45 35.0 -53.0" fill="none" stroke="#ff0000" stroke-linecap="round" stroke-linejoin="round" stroke-opacity="0.0" stroke-width="2.0"/>
    </g>
    <g id="sprite1">
      <use ffdec:characterId="3" height="13.4" transform="matrix(1.0, 0.0, 0.0, 1.0, 0.0, 0.0)" width="13.4" xlink:href="#shape1"/>
    </g>
    <g id="shape1">
      <path d="M4.75 -4.75 Q6.7 -2.8 6.7 0.0 6.7 2.8 4.75 4.75 2.8 6.7 0.0 6.7 -2.8 6.7 -4.75 4.75 -6.7 2.8 -6.7 0.0 -6.7 -2.8 -4.75 -4.75 -2.8 -6.7 0.0 -6.7 2.8 -6.7 4.75 -4.75" fill="url(#gradient0)" fill-rule="evenodd" stroke="none"/>
    </g>
    <radialGradient cx="0" cy="0" gradientTransform="matrix(0.0105, 0.0, 0.0, 0.0105, -1.1, -1.5)" gradientUnits="userSpaceOnUse" id="gradient0" r="819.2" spreadMethod="pad">
      <stop offset="0.0" stop-color="#fbf6e7" stop-opacity="0.0"/>
      <stop offset="0.4588235294117647" stop-color="#ffa737" stop-opacity="0.0"/>
      <stop offset="1.0" stop-color="#b54200" stop-opacity="0.0"/>
    </radialGradient>
    <g id="shape2">
      <path d="M-38.3 -114.75 Q-19.15 -112.6 45.55 -115.45 39.05 -24.05 44.05 70.0 1.45 67.65 -41.05 70.95 -34.4 -16.55 -38.3 -114.75" fill="#0000ab" fill-opacity="0.0" fill-rule="evenodd" stroke="none"/>
    </g>
    <g id="shape3">
      <path d="M-43.2 -33.85 L-43.25 -7.95 -16.45 -6.05 -43.55 -5.8 Q-39.95 1.5 -42.7 7.75 L-32.8 9.55 Q-35.8 10.65 -43.0 9.55 -41.3 16.25 -44.0 23.0 L-45.5 22.75 Q-44.2 16.55 -44.0 9.55 -43.65 2.85 -44.3 -7.5 -44.85 -15.6 -44.7 -33.85 L-43.2 -33.85" fill="#d28a10" fill-opacity="0.0" fill-rule="evenodd" stroke="none"/>
      <path d="M-44.0 23.0 Q-41.3 16.25 -43.0 9.55 -35.8 10.65 -32.8 9.55 L-42.7 7.75 Q-39.95 1.5 -43.55 -5.8 L-16.45 -6.05 -43.25 -7.95 -43.2 -33.85 Q13.7 -39.6 45.5 -33.05 43.5 -5.65 43.6 5.2 38.7 7.5 32.15 8.0 L43.65 8.0 Q42.95 16.55 44.95 23.0 L-44.0 23.0" fill="#edab3c" fill-opacity="0.0" fill-rule="evenodd" stroke="none"/>
      <path d="M43.65 -7.7 Q28.05 -7.35 6.85 -9.5 -21.9 -13.6 -43.25 -13.1 L-43.25 -14.45 Q9.0 -14.0 43.65 -10.35 L43.65 -7.7" fill="#d28a10" fill-opacity="0.0" fill-rule="evenodd" stroke="none"/>
      <path d="M-6.0 -0.7 Q22.4 3.35 43.55 2.85 L43.55 4.2 Q-8.1 3.75 -42.4 0.15 L-42.4 -2.5 Q-27.0 -2.9 -6.0 -0.7" fill="#d28a10" fill-opacity="0.0" fill-rule="evenodd" stroke="none"/>
      <path d="M-41.35 15.5 Q-25.95 15.15 -4.95 17.3 23.45 21.4 44.55 20.9 L44.55 22.25 Q-7.1 21.8 -41.35 18.15 L-41.35 15.5" fill="#d28a10" fill-opacity="0.0" fill-rule="evenodd" stroke="none"/>
      <path d="M43.85 19.4 Q28.45 19.8 7.45 17.65 -20.95 13.55 -42.05 14.05 L-42.05 12.7 Q9.55 13.15 43.85 16.8 L43.85 19.4" fill="#d28a10" fill-opacity="0.0" fill-rule="evenodd" stroke="none"/>
      <path d="M-43.05 -26.8 L-5.7 -25.0 Q23.4 -20.9 45.05 -21.4 L45.05 -20.05 Q-7.9 -20.5 -43.05 -24.15 L-43.05 -26.8" fill="#d28a10" fill-opacity="0.0" fill-rule="evenodd" stroke="none"/>
      <path d="M44.35 -24.05 Q28.55 -23.7 7.0 -25.85 -22.1 -29.95 -43.75 -29.45 L-43.75 -30.8 Q9.2 -30.35 44.35 -26.7 L44.35 -24.05" fill="#d28a10" fill-opacity="0.0" fill-rule="evenodd" stroke="none"/>
    </g>
    <g id="shape4">
      <path d="M-1.6 107.95 Q-6.5 107.4 -6.0 104.15 1.85 8.8 -6.0 -105.3 -5.5 -107.8 -2.65 -107.9 8.15 89.2 -1.6 107.95" fill="#d28a10" fill-opacity="0.0" fill-rule="evenodd" stroke="none"/>
      <path d="M-2.65 -107.9 L-2.1 -107.9 Q1.25 -107.85 1.7 -105.3 9.55 8.8 3.4 104.05 2.95 107.0 -1.6 107.95 8.15 89.2 -2.65 -107.9" fill="#f7be66" fill-opacity="0.0" fill-rule="evenodd" stroke="none"/>
    </g>
    <g id="shape5">
      <path d="M2.7 -107.9 L2.55 -105.1 Q-8.05 89.35 1.65 107.95 -2.9 107.0 -3.35 104.05 -9.5 9.05 -1.7 -104.7 L-1.65 -105.3 Q-1.35 -107.0 2.7 -107.9" fill="#d28a10" fill-opacity="0.0" fill-rule="evenodd" stroke="none"/>
      <path d="M1.65 107.95 Q-8.05 89.35 2.55 -105.1 L2.7 -107.9 Q5.5 -107.8 6.05 -105.35 L6.05 -105.3 Q-1.8 8.8 6.05 104.15 6.55 107.4 1.65 107.95" fill="#f7be66" fill-opacity="0.0" fill-rule="evenodd" stroke="none"/>
    </g>
    <g id="shape6">
      <path d="M2.45 -4.15 Q3.8 0.05 2.55 4.0 L-0.35 4.1 Q0.8 2.1 0.2 -4.15 L2.45 -4.15" fill="#000000" fill-opacity="0.0" fill-rule="evenodd" stroke="none"/>
    </g>
    <g id="shape7">
      <path d="M0.2 -1.4 L3.4 -5.1 Q5.1 -5.65 4.55 -3.95 L1.1 -0.2 4.2 4.05 Q4.2 5.35 3.1 4.95 L0.2 0.9 -3.15 5.55 Q-4.35 5.95 -4.3 4.6 L-0.7 -0.25 -4.5 -4.35 Q-5.05 -6.05 -3.35 -5.5 L0.2 -1.4" fill="#391000" fill-opacity="0.0" fill-rule="evenodd" stroke="none"/>
    </g>
    <g id="shape8">
      <path d="M-4.5 -7.25 Q-0.3 -2.9 5.3 5.1 5.35 6.8 3.85 6.3 -1.05 -1.1 -5.95 -5.8 -6.65 -7.95 -4.5 -7.25" fill="#391000" fill-opacity="0.0" fill-rule="evenodd" stroke="none"/>
    </g>
    <g id="shape9">
      <path d="M7.3 -41.8 Q9.95 -34.4 9.35 -28.3 -0.5 -29.9 -15.6 -23.95 L-6.95 -50.9 Q-1.0 -59.45 4.05 -49.65 L7.3 -41.8 M-33.45 41.1 Q-34.85 39.15 -36.65 35.0 -38.95 29.85 -39.0 26.9 4.25 37.5 24.75 30.5 22.0 36.6 16.2 43.0 -1.1 61.9 -33.45 41.1 M-35.25 8.75 L-31.4 1.45 Q-28.85 -3.05 -25.0 -7.15 -11.8 -11.25 -0.3 -12.55 9.05 -10.85 24.05 9.9 8.35 17.8 -35.25 8.75" fill="#ef0000" fill-rule="evenodd" stroke="none"/>
      <path d="M9.35 -28.3 Q9.95 -34.4 7.3 -41.8 10.8 -33.4 13.65 -27.15 11.8 -27.9 9.35 -28.3 M-0.3 -12.55 Q13.15 -14.05 24.4 -11.55 31.4 -4.0 33.6 0.65 31.4 6.15 24.05 9.9 9.05 -10.85 -0.3 -12.55 M39.75 18.65 Q41.05 22.95 37.95 31.2 34.85 39.45 25.7 46.75 16.55 54.0 7.9 54.75 -5.65 56.15 -18.6 51.9 -27.95 48.85 -33.45 41.1 -1.1 61.9 16.2 43.0 22.0 36.6 24.75 30.5 27.45 29.6 33.1 25.1 38.65 20.65 39.75 18.65" fill="#970000" fill-rule="evenodd" stroke="none"/>
      <path d="M9.35 -28.3 Q11.8 -27.9 13.65 -27.15 18.15 -19.4 24.4 -11.55 13.15 -14.05 -0.3 -12.55 L-0.35 -12.65 Q8.4 -19.05 9.35 -28.3 M33.6 0.65 Q39.1 12.2 39.75 18.65 38.65 20.65 33.1 25.1 27.45 29.6 24.75 30.5 29.55 19.6 24.05 9.9 31.4 6.15 33.6 0.65" fill="#000066" fill-rule="evenodd" stroke="none"/>
      <path d="M-15.6 -23.95 Q-0.5 -29.9 9.35 -28.3 8.4 -19.05 -0.35 -12.65 L-0.3 -12.55 Q-11.8 -11.25 -25.0 -7.15 -19.95 -12.55 -15.6 -23.95 M-39.0 26.9 Q-39.15 15.65 -35.25 8.75 8.35 17.8 24.05 9.9 29.55 19.6 24.75 30.5 4.25 37.5 -39.0 26.9" fill="#0000db" fill-rule="evenodd" stroke="none"/>
      <path d="M-16.55 -8.35 Q-29.85 7.95 -28.5 24.3 -27.6 35.25 -21.9 41.45 -51.3 21.8 -23.3 -6.6 -11.85 -18.15 -9.9 -28.0 -8.35 -18.35 -16.55 -8.35" fill="#ffffff" fill-opacity="0.4117647" fill-rule="evenodd" stroke="none"/>
    </g>
    <g id="shape10">
      <path d="M-99.7 -110.9 Q-197.45 -145.3 -150.05 -1.05 L-143.8 16.0 -156.75 4.75 Q-239.6 -63.95 -314.75 40.0" fill="none" stroke="#ff0000" stroke-linecap="round" stroke-linejoin="round" stroke-width="2.0"/>
    </g>
    <g id="sprite2">
      <use ffdec:characterId="3" height="13.4" transform="matrix(1.0, 0.0, 0.0, 1.0, 0.0, 0.0)" width="13.4" xlink:href="#shape11"/>
    </g>
    <g id="shape11">
      <path d="M4.75 -4.75 Q6.7 -2.8 6.7 0.0 6.7 2.8 4.75 4.75 2.8 6.7 0.0 6.7 -2.8 6.7 -4.75 4.75 -6.7 2.8 -6.7 0.0 -6.7 -2.8 -4.75 -4.75 -2.8 -6.7 0.0 -6.7 2.8 -6.7 4.75 -4.75" fill="url(#gradient1)" fill-rule="evenodd" stroke="none"/>
    </g>
    <radialGradient cx="0" cy="0" gradientTransform="matrix(0.0105, 0.0, 0.0, 0.0105, -1.1, -1.5)" gradientUnits="userSpaceOnUse" id="gradient1" r="819.2" spreadMethod="pad">
      <stop offset="0.0" stop-color="#fbf6e7"/>
      <stop offset="0.4588235294117647" stop-color="#ffa737"/>
      <stop offset="1.0" stop-color="#b54200"/>
    </radialGradient>
    <g id="sprite3">
      <use ffdec:characterId="17" height="21.8" transform="matrix(1.0, 0.0, 0.0, 1.0, 0.0, 0.0)" width="21.85" xlink:href="#shape12"/>
    </g>
    <g id="shape12">
      <path d="M6.75 -8.5 Q10.3 -5.7 10.85 -1.25 11.35 3.2 8.55 6.75 5.75 10.3 1.25 10.8 -3.2 11.3 -6.7 8.55 -10.25 5.7 -10.8 1.25 -11.3 -3.2 -8.5 -6.75 -5.7 -10.3 -1.2 -10.8 3.2 -11.35 6.75 -8.5" fill="url(#gradient2)" fill-rule="evenodd" stroke="none"/>
    </g>
    <radialGradient cx="0" cy="0" gradientTransform="matrix(0.0187, 0.0, 0.0, 0.0187, -3.75, -2.45)" gradientUnits="userSpaceOnUse" id="gradient2" r="819.2" spreadMethod="pad">
      <stop offset="0.25098039215686274" stop-color="#ffffff"/>
      <stop offset="0.8549019607843137" stop-color="#8eb5f8"/>
      <stop offset="0.996078431372549" stop-color="#0859d4"/>
    </radialGradient>
    <g id="sprite4">
      <use ffdec:characterId="19" height="5.7" transform="matrix(1.0, 0.0, 0.0, 1.0, 0.0, 0.0)" width="5.8" xlink:href="#shape13"/>
    </g>
    <g id="shape13">
      <path d="M0.0 -2.3 Q-0.45 -2.25 -0.7 -1.9 L-0.9 -1.1 Q-0.85 -0.65 -0.45 -0.35 -0.1 -0.05 0.35 -0.1 0.8 -0.15 1.05 -0.45 1.35 -0.85 1.3 -1.3 L0.85 -2.05 0.0 -2.3 M1.65 -2.2 Q2.65 -1.45 2.85 -0.25 3.0 0.95 2.3 1.85 1.6 2.75 0.45 2.85 -0.75 2.95 -1.7 2.25 -2.7 1.45 -2.85 0.25 -3.05 -0.95 -2.3 -1.85 -1.65 -2.75 -0.45 -2.85 0.7 -2.95 1.65 -2.2" fill="#000000" fill-rule="evenodd" stroke="none"/>
      <path d="M0.0 -2.3 L0.85 -2.05 1.3 -1.3 Q1.35 -0.85 1.05 -0.45 0.8 -0.15 0.35 -0.1 -0.1 -0.05 -0.45 -0.35 -0.85 -0.65 -0.9 -1.1 L-0.7 -1.9 Q-0.45 -2.25 0.0 -2.3" fill="#ffffff" fill-rule="evenodd" stroke="none"/>
    </g>
    <g id="shape14">
      <path d="M-0.4 5.1 Q-2.0 4.25 -2.55 3.6 -3.4 2.7 -3.4 1.1 -3.4 -0.5 -2.65 -1.55 -1.9 -2.65 -0.85 -2.6 L0.35 -2.5 Q-0.3 -0.3 -0.1 1.0 0.2 2.95 1.35 4.2 L2.55 5.05 -0.4 5.1 M5.2 -2.7 L7.55 -2.95 9.1 -2.75 Q10.0 -2.65 10.45 -1.55 10.9 -0.5 10.7 0.85 10.45 2.2 9.55 2.9 L7.45 3.85 Q6.4 4.25 5.5 4.7 L5.5 4.65 5.5 4.7 3.2 3.5 Q2.2 2.7 1.95 1.2 1.7 -0.3 2.3 -1.4 2.9 -2.55 3.95 -2.6 L5.2 -2.7 M-8.3 -4.05 L-8.85 -3.4 Q-9.85 -2.0 -9.8 0.0 L-9.6 1.75 Q-13.35 -1.3 -12.35 -5.55 -10.4 -4.65 -8.3 -4.05 M-4.8 4.3 L-6.95 2.9 Q-7.8 2.0 -7.8 0.45 -7.8 -1.1 -7.05 -2.15 -6.3 -3.2 -5.25 -3.15 L-4.3 -3.05 Q-5.45 -0.7 -5.4 0.65 -5.45 2.0 -4.15 4.5 L-4.8 4.3" fill="#ffffff" fill-opacity="0.84313726" fill-rule="evenodd" stroke="none"/>
      <path d="M-1.15 -4.1 Q-0.4 -3.8 0.25 -2.85 L0.35 -2.5 -0.85 -2.6 Q-1.9 -2.65 -2.65 -1.55 -3.4 -0.5 -3.4 1.1 -3.4 2.7 -2.55 3.6 -2.0 4.25 -0.4 5.1 L-2.35 5.55 -3.8 4.3 Q-4.75 2.85 -4.5 -0.05 -4.3 -3.0 -1.15 -4.1 M3.45 -4.0 Q4.0 -3.85 5.2 -2.7 L3.95 -2.6 Q2.9 -2.55 2.3 -1.4 1.7 -0.3 1.95 1.2 2.2 2.7 3.2 3.5 L5.5 4.7 Q4.6 5.3 3.65 5.3 L2.95 5.0 2.05 4.25 Q0.85 3.0 0.6 1.1 0.3 -0.9 1.05 -2.35 2.15 -4.1 3.45 -4.0 M7.55 -2.95 Q8.25 -3.75 9.65 -3.8 10.85 -3.65 11.5 -2.35 12.15 -1.0 11.9 0.75 L11.7 1.6 Q11.35 2.8 10.6 3.6 L9.4 4.35 Q8.15 4.45 7.45 3.85 L9.55 2.9 Q10.45 2.2 10.7 0.85 10.9 -0.5 10.45 -1.55 10.0 -2.65 9.1 -2.75 L7.55 -2.95 M-5.55 -4.6 Q-4.15 -3.85 -4.1 -3.3 L-4.3 -3.05 -5.25 -3.15 Q-6.3 -3.2 -7.05 -2.15 -7.8 -1.1 -7.8 0.45 -7.8 2.0 -6.95 2.9 L-4.8 4.3 -4.8 4.35 -6.75 4.75 Q-7.55 4.45 -8.2 3.55 L-8.8 2.35 Q-9.15 1.35 -9.15 0.15 -9.15 -1.85 -8.2 -3.25 L-7.65 -3.85 -5.55 -4.6" fill="#d3d3d3" fill-rule="evenodd" stroke="none"/>
      <path d="M-1.15 -4.1 Q-4.3 -3.0 -4.5 -0.05 -4.75 2.85 -3.8 4.3 L-2.35 5.55 Q-3.35 5.45 -4.15 4.5 -5.45 2.0 -5.4 0.65 -5.45 -0.7 -4.3 -3.05 L-4.1 -3.3 Q-3.25 -4.3 -2.1 -4.3 L-1.15 -4.1 M0.35 -2.5 Q1.2 -3.95 2.5 -4.1 L3.45 -4.0 Q2.15 -4.1 1.05 -2.35 0.3 -0.9 0.6 1.1 0.85 3.0 2.05 4.25 L2.95 5.0 3.65 5.3 2.55 5.05 1.35 4.2 Q0.2 2.95 -0.1 1.0 -0.3 -0.3 0.35 -2.5 M9.65 -3.8 L10.2 -3.95 Q11.4 -3.75 12.15 -2.4 12.8 -1.05 12.55 0.7 12.25 2.45 11.2 3.55 10.2 4.55 9.4 4.35 L10.6 3.6 Q11.35 2.8 11.7 1.6 L11.9 0.75 Q12.15 -1.0 11.5 -2.35 10.85 -3.65 9.65 -3.8 M-8.3 -4.05 Q-7.5 -4.8 -6.5 -4.8 L-5.55 -4.6 -7.65 -3.85 -8.2 -3.25 Q-9.15 -1.85 -9.15 0.15 -9.15 1.35 -8.8 2.35 L-8.2 3.55 Q-7.55 4.45 -6.75 4.75 -8.0 4.65 -8.85 3.35 L-9.6 1.75 -9.8 0.0 Q-9.85 -2.0 -8.85 -3.4 L-8.3 -4.05" fill="#ffffff" fill-rule="evenodd" stroke="none"/>
    </g>
    <g id="shape15">
      <path d="M-6.1 -7.75 L-5.2 -8.2 Q-3.2 0.05 6.2 3.7 L1.15 8.25 -0.75 8.25 4.4 3.7 Q-4.1 0.5 -6.1 -7.75" fill="#666666" fill-rule="evenodd" stroke="none"/>
      <path d="M-6.1 -7.75 Q-4.1 0.5 4.4 3.7 L-0.75 8.25 Q-6.5 7.9 -6.1 1.35 L-6.1 -7.75" fill="#333333" fill-rule="evenodd" stroke="none"/>
    </g>
    <g id="shape16">
      <path d="M-1.5 7.15 Q1.5 6.65 2.95 5.05 4.95 2.9 4.95 -0.05 4.95 -2.95 2.95 -5.1 1.6 -6.55 -0.8 -7.2 2.2 -7.05 4.95 -6.3 11.9 -0.1 4.8 6.45 2.05 7.4 -1.5 7.15" fill="#333333" fill-rule="evenodd" stroke="none"/>
      <path d="M-0.8 -7.2 Q1.6 -6.55 2.95 -5.1 4.95 -2.95 4.95 -0.05 4.95 2.9 2.95 5.05 1.5 6.65 -1.5 7.15 L-1.7 7.15 Q-4.45 7.15 -6.45 5.05 -8.35 2.9 -8.35 -0.05 -8.35 -2.95 -6.45 -5.1 -4.8 -6.9 -2.5 -7.15 L-1.7 -7.2 -0.8 -7.2" fill="#666666" fill-rule="evenodd" stroke="none"/>
    </g>
    <g id="shape17">
      <path d="M-12.5 0.8 Q-11.5 -2.45 -7.7 -2.95 -3.7 -3.05 -2.6 1.3 -0.4 9.15 4.3 8.45 6.6 8.2 8.1 7.15 6.5 8.8 3.5 9.15 -1.25 9.85 -3.4 2.0 -4.55 -2.4 -8.55 -2.25 -11.55 -1.8 -12.5 0.8 M-23.65 -5.45 Q-25.25 -3.9 -25.35 -1.9 -26.65 11.35 -17.7 10.65 -16.4 10.55 -15.35 9.85 -16.65 11.2 -18.5 11.3 -27.45 12.05 -26.15 -1.2 -26.0 -3.7 -23.65 -5.45" fill="#9f9f9f" fill-rule="evenodd" stroke="none"/>
      <path d="M6.8 -9.55 L8.05 -8.8 9.2 -7.85 Q9.95 -7.05 10.55 -5.4 11.8 -1.9 11.7 3.35 L11.75 3.35 11.2 6.15 Q10.45 8.3 8.15 9.8 6.4 10.95 2.45 11.05 -2.05 11.05 -4.15 4.4 -5.35 -0.4 -8.3 -0.1 -11.25 0.2 -11.55 5.15 -12.5 12.1 -16.95 12.75 -29.2 15.7 -27.75 -1.35 -27.6 -3.2 -24.8 -6.4 -20.55 -9.7 -10.0 -10.7 2.0 -11.9 6.8 -9.55 M21.3 6.45 Q15.75 6.8 15.35 0.55 L16.5 -1.4 16.45 -4.1 Q19.65 0.05 25.6 1.45 L21.3 6.45 M15.05 -6.75 L15.3 -5.8 Q15.8 -3.5 15.7 -1.1 L15.4 -0.65 15.2 -0.4 14.8 0.15 13.85 1.15 Q13.95 -1.9 13.15 -5.0 L14.2 -5.75 14.5 -6.0 14.9 -6.55 15.05 -6.75 M-12.5 0.8 Q-11.55 -1.8 -8.55 -2.25 -4.55 -2.4 -3.4 2.0 -1.25 9.85 3.5 9.15 6.5 8.8 8.1 7.15 11.25 3.85 8.85 -4.65 7.2 -11.05 -8.65 -9.5 L-9.8 -9.4 Q-19.75 -8.4 -23.65 -5.45 -26.0 -3.7 -26.15 -1.2 -27.45 12.05 -18.5 11.3 -16.65 11.2 -15.35 9.85 -13.45 7.8 -12.95 2.9 -12.9 1.7 -12.5 0.8" fill="#333333" fill-rule="evenodd" stroke="none"/>
      <path d="M6.8 -9.55 Q2.0 -11.9 -10.0 -10.7 -20.55 -9.7 -24.8 -6.4 -22.2 -8.55 -19.05 -9.9 -14.65 -11.9 -6.75 -12.7 4.9 -13.85 9.7 -11.7 L6.8 -9.55" fill="#ffb871" fill-rule="evenodd" stroke="none"/>
      <path d="M8.05 -8.8 L6.8 -9.55 9.7 -11.7 11.05 -11.0 8.05 -8.8" fill="#ffa851" fill-rule="evenodd" stroke="none"/>
      <path d="M9.2 -7.85 L8.05 -8.8 11.05 -11.0 12.2 -10.05 9.2 -7.85" fill="#ff9933" fill-rule="evenodd" stroke="none"/>
      <path d="M11.2 6.15 L11.75 3.35 12.85 3.35 14.65 1.4 Q14.45 2.95 13.9 4.25 L11.2 6.15" fill="#f27900" fill-rule="evenodd" stroke="none"/>
      <path d="M10.55 -5.4 Q9.95 -7.05 9.2 -7.85 L12.2 -10.05 Q13.1 -9.15 13.6 -7.95 12.3 -6.5 10.55 -5.4" fill="#ff8d1c" fill-rule="evenodd" stroke="none"/>
      <path d="M8.15 9.8 Q10.45 8.3 11.2 6.15 L13.9 4.25 Q12.35 7.95 8.15 9.8" fill="#df7000" fill-rule="evenodd" stroke="none"/>
      <path d="M16.1 -6.4 Q19.4 -0.7 27.35 1.25 L23.1 6.2 21.3 6.45 25.6 1.45 Q19.65 0.05 16.45 -4.1 L16.1 -6.4" fill="#666666" fill-rule="evenodd" stroke="none"/>
      <path d="M13.6 -7.95 L14.0 -8.5 15.45 -8.75 15.45 -8.7 Q13.3 -6.0 11.95 -5.25 L10.55 -5.4 Q12.3 -6.5 13.6 -7.95" fill="#ffff99" fill-rule="evenodd" stroke="none"/>
      <path d="M11.75 3.35 L11.7 3.35 Q11.8 -1.9 10.55 -5.4 L11.95 -5.25 Q13.4 -1.0 12.85 3.35 L11.75 3.35" fill="#cc9900" fill-rule="evenodd" stroke="none"/>
      <path d="M15.45 -8.7 L16.1 -6.4 16.45 -4.1 16.5 -1.4 15.35 0.55 14.65 1.4 12.85 3.35 Q13.4 -1.0 11.95 -5.25 13.3 -6.0 15.45 -8.7 M15.05 -6.75 L14.9 -6.55 14.5 -6.0 14.2 -5.75 13.15 -5.0 Q13.95 -1.9 13.85 1.15 L14.8 0.15 15.2 -0.4 15.4 -0.65 15.7 -1.1 Q15.8 -3.5 15.3 -5.8 L15.05 -6.75" fill="#ffcc00" fill-rule="evenodd" stroke="none"/>
    </g>
    <g id="shape18">
      <path d="M0.0 -10.35 L0.45 -10.4 Q1.45 -10.45 1.45 -9.75 1.2 -5.15 3.45 -2.2 L2.05 -2.5 Q0.35 -5.35 0.8 -9.8 0.75 -10.4 0.0 -10.35" fill="#e98c01" fill-rule="evenodd" stroke="none"/>
      <path d="M0.0 -10.35 Q0.75 -10.4 0.8 -9.8 0.35 -5.35 2.05 -2.5 L-0.2 -2.6 -2.25 -2.4 Q0.25 -5.75 -0.45 -9.75 L-0.5 -10.0 0.0 -10.35 M5.9 -1.15 Q6.95 -0.6 7.9 0.5 L8.55 1.4 9.0 2.35 9.2 4.0 9.15 4.4 Q8.75 7.05 5.85 8.85 3.1 10.45 -0.4 10.4 L-0.85 10.35 -0.9 10.35 Q-4.05 10.0 -6.25 8.3 -8.75 6.25 -8.5 3.65 -8.25 1.0 -5.4 -0.7 L-4.0 -1.4 -2.65 -1.85 0.3 -2.3 2.25 -2.2 3.65 -1.95 5.4 -1.4 5.9 -1.15 M5.25 0.9 L4.65 0.45 Q2.95 -0.65 0.6 -0.8 -2.3 -0.95 -4.5 0.4 -6.7 1.7 -6.95 3.7 -7.2 5.75 -5.4 7.3 -3.55 8.8 -0.7 8.95 L2.55 8.6 4.35 7.8 Q6.55 6.45 6.85 4.45 7.1 2.45 5.25 0.9" fill="#fbc115" fill-rule="evenodd" stroke="none"/>
      <path d="M2.05 -2.5 L3.45 -2.2 Q4.5 -1.9 5.4 -1.4 L3.65 -1.95 2.25 -2.2 0.3 -2.3 -2.65 -1.85 -4.0 -1.4 -5.4 -0.7 Q-8.25 1.0 -8.5 3.65 -8.75 6.25 -6.25 8.3 -4.05 10.0 -0.9 10.35 -4.7 10.2 -7.15 8.15 -9.6 6.1 -9.2 3.45 -8.9 0.75 -5.95 -1.0 -4.7 -1.75 -3.35 -2.15 -0.25 -5.85 -0.55 -9.75 L-0.5 -10.0 -0.45 -9.75 Q0.25 -5.75 -2.25 -2.4 L-0.2 -2.6 2.05 -2.5" fill="#ffffff" fill-rule="evenodd" stroke="none"/>
      <path d="M5.4 -1.4 L5.9 -1.15 5.4 -1.4" fill="#ffc357" fill-rule="evenodd" stroke="none"/>
      <path d="M5.25 0.9 Q7.1 2.45 6.85 4.45 6.55 6.45 4.35 7.8 L2.55 8.6 -0.7 8.95 Q-3.55 8.8 -5.4 7.3 -7.2 5.75 -6.95 3.7 -6.7 1.7 -4.5 0.4 -2.3 -0.95 0.6 -0.8 2.95 -0.65 4.65 0.45 L5.25 0.9" fill="url(#gradient3)" fill-rule="evenodd" stroke="none"/>
    </g>
    <radialGradient cx="0" cy="0" gradientTransform="matrix(-3.0E-4, 0.0104, 0.0158, 5.0E-4, 0.65, -0.25)" gradientUnits="userSpaceOnUse" id="gradient3" r="819.2" spreadMethod="pad">
      <stop offset="0.0" stop-color="#000000"/>
      <stop offset="0.5254901960784314" stop-color="#ab280e"/>
      <stop offset="1.0" stop-color="#ff871b"/>
    </radialGradient>
    <g id="shape19">
      <path d="M-3.8 -3.9 L-3.75 -3.8 -2.75 -4.35 -1.35 -4.75 -0.05 -4.45 0.45 -3.75 Q-0.15 0.35 1.45 6.7 L-5.95 6.7 Q-3.2 -0.45 -3.75 -3.7 L-3.8 -3.9" fill="url(#gradient4)" fill-rule="evenodd" stroke="none"/>
      <path d="M-0.05 -4.45 L-1.35 -4.75 -2.75 -4.35 -3.75 -3.8 -3.8 -3.9 Q-4.05 -4.2 -2.85 -4.7 L-0.85 -4.85 -0.05 -4.45" fill="url(#gradient5)" fill-rule="evenodd" stroke="none"/>
    </g>
    <linearGradient gradientTransform="matrix(0.0, 0.0055, -0.0083, 0.0, -1.95, -1.0)" gradientUnits="userSpaceOnUse" id="gradient4" spreadMethod="pad" x1="-819.2" x2="819.2">
      <stop offset="0.0" stop-color="#ff0000"/>
      <stop offset="1.0" stop-color="#ef0000" stop-opacity="0.0"/>
    </linearGradient>
    <linearGradient gradientTransform="matrix(0.0, 0.0055, -0.0083, 0.0, -2.05, -1.35)" gradientUnits="userSpaceOnUse" id="gradient5" spreadMethod="pad" x1="-819.2" x2="819.2">
      <stop offset="0.0" stop-color="#ff0000"/>
      <stop offset="1.0" stop-color="#ef0000" stop-opacity="0.0"/>
    </linearGradient>
    <g id="shape20">
      <path d="M381.0 144.15 Q364.4 143.3 349.0 130.2 316.2 102.3 301.9 104.2 286.95 103.05 248.9 130.7 210.8 158.3 178.05 130.45 145.25 102.55 130.95 104.45 116.0 103.3 77.95 130.95 39.85 158.55 7.1 130.7 -25.7 102.8 -40.0 104.7 -54.95 103.55 -93.0 131.2 -131.1 158.8 -163.85 130.95 -196.65 103.05 -210.95 104.95 -225.9 103.8 -263.95 131.45 -302.05 159.05 -334.8 131.2 -366.55 104.2 -380.95 105.1 L-380.95 -178.2 381.0 -178.2 381.0 144.15" fill="#000000" fill-rule="evenodd" stroke="none"/>
    </g>
    <g id="shape21">
      <path d="M303.25 -71.4 Q239.35 -81.6 177.95 -88.0 78.95 -98.35 -13.45 -98.8 -162.45 -99.65 -294.45 -74.85 L-294.45 -106.85 Q-29.85 -156.5 303.25 -103.4 L303.25 -71.4" fill="url(#gradient6)" fill-rule="evenodd" stroke="none"/>
      <path d="M303.25 -71.4 L303.25 -41.3 -67.2 -41.3 Q-50.9 -55.55 -14.05 -65.6 50.45 -83.2 177.95 -88.0 239.35 -81.6 303.25 -71.4" fill="#dc7e63" fill-rule="evenodd" stroke="none"/>
      <path d="M-206.15 -41.3 L-294.45 -41.3 -294.45 -74.85 Q-162.45 -99.65 -13.45 -98.8 L-13.45 -98.1 Q-90.6 -83.6 -145.45 -65.6 -180.3 -54.15 -206.15 -41.3" fill="#ebb6a7" fill-rule="evenodd" stroke="none"/>
      <path d="M177.95 -88.0 Q50.45 -83.2 -14.05 -65.6 -50.9 -55.55 -67.2 -41.3 L-206.15 -41.3 Q-180.3 -54.15 -145.45 -65.6 -90.6 -83.6 -13.45 -98.1 L-13.45 -98.8 Q78.95 -98.35 177.95 -88.0" fill="#e49d87" fill-rule="evenodd" stroke="none"/>
    </g>
    <linearGradient gradientTransform="matrix(0.4974, 0.0, 0.0, 0.0505, 0.0, -89.5)" gradientUnits="userSpaceOnUse" id="gradient6" spreadMethod="pad" x1="-819.2" x2="819.2">
      <stop offset="0.0" stop-color="#679df0"/>
      <stop offset="1.0" stop-color="#ffffff"/>
    </linearGradient>
    <g id="shape22">
      <path d="M2.1 -4.05 Q6.35 -4.4 9.35 -2.7 12.35 -1.0 12.4 1.8 12.35 4.55 9.35 6.75 6.35 8.95 2.1 9.3 -2.15 9.65 -5.15 7.9 -8.15 6.2 -8.15 3.45 -8.15 0.7 -5.15 -1.55 -2.15 -3.75 2.1 -4.05" fill="#000000" fill-opacity="0.3019608" fill-rule="evenodd" stroke="none"/>
      <path d="M5.15 -0.1 Q5.1 3.6 2.55 6.2 -0.05 8.75 -3.75 8.8 -7.45 8.75 -10.0 6.2 -12.6 3.6 -12.6 -0.1 -12.6 -3.8 -10.0 -6.35 -7.45 -8.95 -3.75 -8.95 -0.05 -8.95 2.55 -6.35 5.1 -3.8 5.15 -0.1" fill="url(#gradient7)" fill-rule="evenodd" stroke="none"/>
      <path d="M-3.7 -8.8 Q-0.05 -8.8 2.5 -6.25 5.1 -3.65 5.1 0.05 5.1 3.7 2.5 6.25 -0.05 8.85 -3.7 8.85 -7.35 8.85 -9.95 6.25 -12.55 3.7 -12.55 0.05 -12.55 -3.65 -9.95 -6.25 -7.35 -8.8 -3.7 -8.8" fill="url(#gradient8)" fill-rule="evenodd" stroke="none"/>
    </g>
    <radialGradient cx="0" cy="0" gradientTransform="matrix(0.0114, 0.0, 0.0, 0.0114, -3.4, -0.4)" gradientUnits="userSpaceOnUse" id="gradient7" r="819.2" spreadMethod="pad">
      <stop offset="0.0" stop-color="#ffffff"/>
      <stop offset="1.0" stop-color="#999999"/>
    </radialGradient>
    <linearGradient gradientTransform="matrix(0.0, -0.0091, 0.0108, 0.0, -3.75, 0.0)" gradientUnits="userSpaceOnUse" id="gradient8" spreadMethod="pad" x1="-819.2" x2="819.2">
      <stop offset="0.01568627450980392" stop-color="#ffffff" stop-opacity="0.84313726"/>
      <stop offset="0.2549019607843137" stop-color="#aecbf8" stop-opacity="0.6901961"/>
      <stop offset="0.7372549019607844" stop-color="#8eb5f8" stop-opacity="0.0"/>
    </linearGradient>
    <g id="shape23">
      <path d="M-391.45 376.15 L-391.45 -173.0 393.5 -173.0 393.5 376.15 -391.45 376.15" fill="url(#gradient9)" fill-rule="evenodd" stroke="none"/>
    </g>
    <linearGradient gradientTransform="matrix(0.0, 0.1138, -0.4791, 0.0, -173.9, -58.0)" gradientUnits="userSpaceOnUse" id="gradient9" spreadMethod="pad" x1="-819.2" x2="819.2">
      <stop offset="0.0" stop-color="#000000" stop-opacity="0.0"/>
      <stop offset="1.0" stop-color="#000000"/>
    </linearGradient>
    <g id="shape24">
      <path d="M-5.75 -5.75 Q-3.35 -8.1 0.05 -8.1 3.4 -8.1 5.75 -5.75 8.15 -3.35 8.15 0.05 8.15 3.4 5.75 5.75 3.4 8.15 0.05 8.15 -3.35 8.15 -5.75 5.75 -8.1 3.4 -8.1 0.05 -8.1 -3.35 -5.75 -5.75 M1.85 -1.2 Q2.75 -2.1 2.75 -3.35 2.75 -4.65 1.85 -5.55 1.0 -6.4 -0.3 -6.4 -1.55 -6.4 -2.45 -5.55 -3.35 -4.65 -3.35 -3.35 -3.35 -2.1 -2.45 -1.2 -1.55 -0.3 -0.3 -0.3 1.0 -0.3 1.85 -1.2" fill="#000000" fill-rule="evenodd" stroke="none"/>
      <path d="M1.85 -1.2 Q1.0 -0.3 -0.3 -0.3 -1.55 -0.3 -2.45 -1.2 -3.35 -2.1 -3.35 -3.35 -3.35 -4.65 -2.45 -5.55 -1.55 -6.4 -0.3 -6.4 1.0 -6.4 1.85 -5.55 2.75 -4.65 2.75 -3.35 2.75 -2.1 1.85 -1.2" fill="#ffffff" fill-rule="evenodd" stroke="none"/>
    </g>
    <g id="shape25">
      <path d="M-3.15 43.95 Q4.0 33.2 3.8 27.8 3.6 22.35 1.25 21.35 L2.8 21.8 Q4.4 22.25 7.0 24.65 13.3 34.7 -0.6 49.1 -3.6 47.1 -3.15 43.95 M8.85 54.0 L6.4 55.4 Q2.2 56.95 1.1 54.1 16.2 40.05 10.15 32.25 10.7 32.2 12.8 35.0 L13.15 35.5 Q19.75 44.7 8.85 54.0 M-9.55 36.95 Q-4.8 27.4 -6.7 19.65 -5.2 18.6 -3.55 19.15 5.8 26.15 -6.4 41.1 -8.35 40.7 -9.55 36.95" fill="#ef0000" fill-rule="evenodd" stroke="none"/>
      <path d="M1.25 21.35 Q3.6 22.35 3.8 27.8 4.0 33.2 -3.15 43.95 -3.1 41.4 -2.15 38.55 5.8 25.6 -0.3 21.0 L1.25 21.35 M1.1 54.1 Q0.4 52.0 1.4 49.3 8.85 41.1 10.15 32.25 16.2 40.05 1.1 54.1 M-6.7 19.65 Q-4.8 27.4 -9.55 36.95 -11.15 22.25 -6.7 19.65" fill="#970000" fill-rule="evenodd" stroke="none"/>
      <path d="M-0.6 49.1 Q13.3 34.7 7.0 24.65 10.05 27.2 10.15 32.25 8.85 41.1 1.4 49.3 L-0.6 49.1 M-0.3 21.0 Q5.8 25.6 -2.15 38.55 -3.9 40.95 -6.4 41.1 5.8 26.15 -3.55 19.15 -2.1 19.6 -0.3 21.0 M13.15 35.5 Q18.95 43.15 15.4 47.35 11.7 51.6 8.85 54.0 19.75 44.7 13.15 35.5" fill="#ff6262" fill-rule="evenodd" stroke="none"/>
    </g>
  </defs>
</svg>
