<?xml version="1.0" encoding="UTF-8" standalone="no"?>
<svg xmlns:ffdec="https://www.free-decompiler.com/flash" xmlns:xlink="http://www.w3.org/1999/xlink" ffdec:objectType="frame" height="74.6px" width="74.6px" xmlns="http://www.w3.org/2000/svg">
  <g transform="matrix(1.0, 0.0, 0.0, 1.0, 37.3, 37.3)">
    <use ffdec:characterId="86" height="0.2" transform="matrix(1.0, 0.0, 0.0, 1.0, 0.0, 0.0)" width="0.0" xlink:href="#shape0"/>
    <use ffdec:characterId="74" height="83.0" transform="matrix(0.9, 0.0, 0.0, 0.9, 0.0, 0.0)" width="83.0" xlink:href="#shape1"/>
    <use ffdec:characterId="75" height="46.55" transform="matrix(1.0, 0.0, 0.0, 1.0, -0.2, 0.0)" width="59.25" xlink:href="#shape2"/>
    <use ffdec:characterId="87" height="35.45" transform="matrix(0.9274, 0.0, 0.0, 0.9274, 0.4, -0.55)" width="24.75" xlink:href="#shape3"/>
  </g>
  <defs>
    <g id="shape0">
      <path d="M-29.6 23.05 L-29.6 22.85 -29.6 23.05" fill="#fffbf0" fill-rule="evenodd" stroke="none"/>
    </g>
    <g id="shape1">
      <path d="M0.0 -41.5 Q-17.2 -41.5 -29.35 -29.35 -41.5 -17.2 -41.5 0.0 -41.5 17.2 -29.35 29.35 -17.2 41.5 0.0 41.5 17.2 41.5 29.35 29.35 41.5 17.2 41.5 0.0 41.5 -17.2 29.35 -29.35 17.2 -41.5 0.0 -41.5 Z" ffdec:has-small-stroke="true" ffdec:original-stroke-width="0.05" fill="none" stroke="#c6f3ff" stroke-linecap="round" stroke-linejoin="round" stroke-width="1.1111186463666882"/>
      <path d="M24.05 -24.55 Q34.95 -13.65 34.95 1.85 34.95 17.35 24.05 28.3 L23.3 28.95 Q29.55 19.85 29.55 8.15 29.55 -7.35 18.65 -18.25 7.7 -29.2 -7.8 -29.2 -22.75 -29.2 -33.5 -18.95 -31.5 -21.9 -28.8 -24.55 -17.9 -35.5 -2.4 -35.5 13.1 -35.5 24.05 -24.55" fill="#cef5ff" fill-rule="evenodd" stroke="none"/>
    </g>
    <g id="shape2">
      <path d="M29.65 -22.7 Q27.45 1.0 29.45 23.3 L29.05 23.3 28.75 23.3 Q0.9 21.9 -29.6 23.05 L-29.6 22.85 -24.05 17.35 24.8 17.35 24.8 -19.0 25.1 -19.0 29.65 -22.7" fill="#85550c" fill-rule="evenodd" stroke="none"/>
      <path d="M24.8 -19.0 L24.8 17.35 -24.05 17.35 -24.0 17.35 -24.15 -19.0 24.8 -19.0" fill="#fffbf0" fill-rule="evenodd" stroke="none"/>
      <path d="M29.65 -22.7 L25.1 -19.0 24.8 -19.0 -24.15 -19.0 -24.0 17.35 -24.05 17.35 -29.6 22.85 Q-26.9 0.95 -29.5 -23.25 L29.65 -22.7" fill="#f7be66" fill-rule="evenodd" stroke="none"/>
    </g>
    <g id="shape3">
      <path d="M8.2 -15.25 Q11.25 -12.9 11.5 -8.3 L11.5 -7.8 Q11.5 -5.85 10.8 -4.35 9.85 -2.65 8.75 -1.75 L7.5 -0.7 Q8.8 -0.05 10.75 2.0 12.4 3.9 12.4 7.05 L12.4 7.65 Q12.25 12.6 8.85 15.15 5.5 17.6 0.4 17.75 L-0.1 17.75 Q-5.35 17.75 -8.65 15.25 -12.2 12.7 -12.35 8.0 L-12.35 7.75 Q-12.35 5.4 -11.3 3.55 -10.35 1.65 -9.0 0.5 L-7.55 -0.7 -8.65 -1.75 Q-9.75 -2.75 -10.5 -4.45 -11.2 -5.8 -11.2 -7.6 L-11.15 -8.45 Q-10.9 -11.55 -9.2 -13.7 -7.6 -15.85 -5.0 -16.8 -2.7 -17.7 -0.05 -17.7 L0.5 -17.7 Q5.1 -17.6 8.2 -15.25 M0.15 11.65 Q2.0 11.6 3.35 10.3 4.65 8.95 4.7 7.1 4.65 5.2 3.35 3.85 2.0 2.55 0.15 2.55 -1.75 2.55 -3.1 3.85 -4.4 5.2 -4.4 7.1 -4.4 8.95 -3.1 10.3 -1.75 11.6 0.15 11.65 M0.1 -4.15 Q1.6 -4.15 2.7 -5.25 3.75 -6.3 3.75 -7.8 3.75 -9.35 2.7 -10.4 1.6 -11.5 0.1 -11.45 -1.45 -11.5 -2.5 -10.4 -3.6 -9.35 -3.55 -7.8 -3.6 -6.3 -2.5 -5.25 -1.45 -4.15 0.1 -4.15" fill="#d70000" fill-rule="evenodd" stroke="none"/>
    </g>
  </defs>
</svg>
