<?xml version="1.0" encoding="UTF-8" standalone="no"?>
<svg xmlns:ffdec="https://www.free-decompiler.com/flash" xmlns:xlink="http://www.w3.org/1999/xlink" ffdec:objectType="frame" height="410.0px" width="590.0px" xmlns="http://www.w3.org/2000/svg">
  <g transform="matrix(1.0, 0.0, 0.0, 1.0, 0.0, 0.0)">
    <rect fill="#000000" height="410.0px" width="590.0px"/>
    <use ffdec:characterId="11" height="29.0" transform="matrix(0.7241, 0.0, 0.0, 0.7241, 290.0, 380.5)" width="168.0" xlink:href="#shape0"/>
    <use ffdec:characterId="19" height="88.7" transform="matrix(1.0, 0.0, 0.0, 1.0, 250.0, 160.15)" width="79.2" xlink:href="#sprite0"/>
    <use ffdec:characterId="42" height="36.25" transform="matrix(-0.94, 0.338, 0.338, 0.94, 312.85, 234.35)" width="41.6" xlink:href="#shape2"/>
    <use ffdec:characterId="44" height="77.9" transform="matrix(-0.3975, -0.7027, 0.7027, -0.3975, 248.65, 227.45)" width="28.7" xlink:href="#shape3"/>
    <use ffdec:characterId="45" height="22.7" transform="matrix(1.1033, -0.9637, 0.9637, 1.1033, 204.9, 259.4)" width="26.95" xlink:href="#shape4"/>
    <use ffdec:characterId="20" height="110.15" transform="matrix(-1.2943, 0.2125, 0.2125, 1.2943, 280.1, 264.75)" width="78.95" xlink:href="#shape5"/>
    <use ffdec:characterId="22" height="21.8" transform="matrix(-0.7541, -0.4354, -0.4354, 0.7541, 262.45, 189.8)" width="21.85" xlink:href="#sprite2"/>
    <use ffdec:characterId="22" height="21.8" transform="matrix(-0.8504, 0.491, 0.491, 0.8504, 278.7, 189.3)" width="21.85" xlink:href="#sprite2"/>
    <use ffdec:characterId="1" height="72.6" transform="matrix(0.9659, 0.2588, -0.2588, 0.9659, 160.75, 340.95)" width="163.95" xlink:href="#shape7"/>
    <use ffdec:characterId="2" height="45.75" transform="matrix(-0.9994, 0.0318, 0.0318, 0.9994, 127.4, 366.3)" width="118.4" xlink:href="#shape8"/>
    <use ffdec:characterId="2" height="45.75" transform="matrix(-0.9995, 0.0283, 0.0283, 0.9995, 127.4, 357.3)" width="118.4" xlink:href="#shape9"/>
    <use ffdec:characterId="2" height="45.75" transform="matrix(-0.9998, 0.0134, 0.0134, 0.9998, 127.4, 349.2)" width="118.4" xlink:href="#shape8"/>
    <use ffdec:characterId="2" height="45.75" transform="matrix(-0.9999, 0.0099, 0.0099, 0.9999, 127.4, 341.55)" width="118.4" xlink:href="#shape9"/>
    <use ffdec:characterId="2" height="45.75" transform="matrix(-0.9999, -0.0042, -0.0042, 0.9999, 127.4, 333.45)" width="118.4" xlink:href="#shape8"/>
    <use ffdec:characterId="3" height="52.15" transform="matrix(-1.0, 0.0, 0.0, 1.0, 181.15, 333.7)" width="12.15" xlink:href="#shape10"/>
    <use ffdec:characterId="4" height="112.9" transform="matrix(1.0, 0.0, 0.0, 1.0, 0.0, 0.0)" width="125.95" xlink:href="#shape11"/>
    <use ffdec:characterId="5" height="8.6" transform="matrix(-0.3388, -0.0708, -0.1042, 0.4987, 186.2, 305.95)" width="8.6" xlink:href="#shape12"/>
    <use ffdec:characterId="5" height="8.6" transform="matrix(-0.3388, -0.0708, -0.1042, 0.4987, 186.2, 353.65)" width="8.6" xlink:href="#shape12"/>
    <use ffdec:characterId="5" height="8.6" transform="matrix(-0.5349, -0.0876, -0.1646, 0.6169, 68.95, 339.55)" width="8.6" xlink:href="#shape12"/>
    <use ffdec:characterId="5" height="8.6" transform="matrix(-0.5838, -0.1098, -0.1796, 0.7736, 68.95, 394.4)" width="8.6" xlink:href="#shape12"/>
    <use ffdec:characterId="6" height="122.05" transform="matrix(1.0, 0.0, 0.0, 1.0, 0.0, 0.0)" width="164.05" xlink:href="#shape13"/>
    <use ffdec:characterId="7" height="77.25" transform="matrix(1.0, 0.0, 0.0, 1.0, 107.55, 296.7)" width="164.35" xlink:href="#shape14"/>
    <use ffdec:characterId="8" height="86.75" transform="matrix(1.0, 0.0, 0.0, 1.0, 0.0, 0.0)" width="217.5" xlink:href="#shape15"/>
    <use ffdec:characterId="1" height="72.6" transform="matrix(0.9959, 0.0824, -0.0824, 0.9959, 161.15, 356.5)" width="163.95" xlink:href="#shape7"/>
    <use ffdec:characterId="9" height="33.65" transform="matrix(1.0, 0.0, 0.0, 1.0, 69.55, 376.2)" width="102.25" xlink:href="#shape16"/>
    <use ffdec:characterId="46" height="116.45" transform="matrix(1.05, 0.0, 0.0, 1.05, 106.25, 330.35)" width="170.2" xlink:href="#shape17"/>
    <use ffdec:characterId="43" height="18.25" transform="matrix(-1.6822, 0.0, 0.0, 1.6822, 317.25, 256.2)" width="13.15" xlink:href="#shape18"/>
    <use ffdec:characterId="24" height="5.7" transform="matrix(-0.7949, -0.4589, -0.4589, 0.7949, 258.8, 191.85)" width="5.8" xlink:href="#sprite3"/>
    <use ffdec:characterId="24" height="5.7" transform="matrix(-0.8504, 0.491, 0.491, 0.8504, 278.0, 191.75)" width="5.8" xlink:href="#sprite3"/>
    <use ffdec:characterId="39" height="9.65" transform="matrix(3.0684, 0.0, 0.0, 3.0683, 269.55, 201.55)" width="9.35" xlink:href="#shape20"/>
    <use ffdec:characterId="40" height="13.0" transform="matrix(3.0684, 0.0, 0.0, 3.0683, 269.4, 230.55)" width="18.45" xlink:href="#shape21"/>
    <use ffdec:characterId="41" height="22.0" transform="matrix(0.9516, 0.0, 0.0, 0.9516, 271.25, 196.65)" width="15.1" xlink:href="#shape22"/>
    <use ffdec:characterId="25" height="26.35" transform="matrix(0.9942, 0.1046, -0.1046, 0.9942, 279.4, 189.55)" width="42.7" xlink:href="#shape23"/>
    <use ffdec:characterId="26" height="16.45" transform="matrix(0.9589, -0.0245, 0.0245, 0.9589, 300.4, 190.2)" width="12.35" xlink:href="#shape24"/>
    <use ffdec:characterId="27" height="14.35" transform="matrix(0.5314, -0.3003, 0.0095, 0.7137, 293.85, 187.6)" width="10.6" xlink:href="#shape25"/>
  </g>
  <defs>
    <g id="shape0">
      <path d="M-59.4 -10.25 Q-34.8 -14.5 0.0 -14.5 34.8 -14.5 59.4 -10.25 84.0 -6.0 84.0 0.0 84.0 6.0 59.4 10.25 34.8 14.5 0.0 14.5 -34.8 14.5 -59.4 10.25 -84.0 6.0 -84.0 0.0 -84.0 -6.0 -59.4 -10.25" fill="#333333" fill-opacity="0.21568628" fill-rule="evenodd" stroke="none"/>
    </g>
    <g id="sprite0">
      <use ffdec:characterId="14" height="81.2" transform="matrix(1.0, 0.0, 0.0, 1.0, 0.0, 0.0)" width="64.4" xlink:href="#morphshape0"/>
      <use ffdec:characterId="16" height="13.4" transform="matrix(-0.8349, 0.4315, 0.4315, 0.8349, -21.2, -44.7)" width="13.4" xlink:href="#sprite1"/>
      <use ffdec:characterId="16" height="13.4" transform="matrix(-0.8349, 0.4315, 0.4315, 0.8349, 33.25, -53.35)" width="13.4" xlink:href="#sprite1"/>
    </g>
    <g id="morphshape0">
      <path d="M-21.2 -44.75 Q1.7 -25.2 7.8 -0.05 13.9 25.05 18.3 25.15 22.65 25.25 30.0 0.8 37.3 -23.7 33.25 -53.35" fill="none" stroke="#ff0000" stroke-linecap="round" stroke-linejoin="round" stroke-width="2.0"/>
    </g>
    <g id="sprite1">
      <use ffdec:characterId="15" height="13.4" transform="matrix(1.0, 0.0, 0.0, 1.0, 0.0, 0.0)" width="13.4" xlink:href="#shape1"/>
    </g>
    <g id="shape1">
      <path d="M4.75 -4.75 Q6.7 -2.8 6.7 0.0 6.7 2.8 4.75 4.75 2.8 6.7 0.0 6.7 -2.8 6.7 -4.75 4.75 -6.7 2.8 -6.7 0.0 -6.7 -2.8 -4.75 -4.75 -2.8 -6.7 0.0 -6.7 2.8 -6.7 4.75 -4.75" fill="url(#gradient0)" fill-rule="evenodd" stroke="none"/>
    </g>
    <radialGradient cx="0" cy="0" gradientTransform="matrix(0.0105, 0.0, 0.0, 0.0105, -1.1, -1.5)" gradientUnits="userSpaceOnUse" id="gradient0" r="819.2" spreadMethod="pad">
      <stop offset="0.0" stop-color="#fbf6e7"/>
      <stop offset="0.4588235294117647" stop-color="#ffa737"/>
      <stop offset="1.0" stop-color="#b54200"/>
    </radialGradient>
    <g id="shape2">
      <path d="M16.0 -8.15 Q9.05 -10.7 1.05 -10.0 -6.95 -9.45 -11.3 -4.65 -15.65 0.15 -7.85 5.8 -0.05 11.4 0.5 11.35 L0.5 12.35 Q-0.9 15.4 -2.55 18.15 -32.25 -0.6 -19.7 -10.0 L-16.6 -12.1 Q-5.35 -19.2 9.2 -17.9 L14.25 -17.25 18.15 -16.45 16.0 -8.15" fill="#ef0000" fill-rule="evenodd" stroke="none"/>
    </g>
    <g id="shape3">
      <path d="M-5.2 -55.35 Q-27.95 -11.85 3.5 22.55 L-9.15 22.55 Q-12.95 22.25 -21.8 3.75 -30.7 -14.8 -16.35 -55.35 L-5.2 -55.35" fill="#ef0000" fill-rule="evenodd" stroke="none"/>
    </g>
    <g id="shape4">
      <path d="M11.7 5.65 L11.5 5.85 11.65 5.65 11.7 5.65" fill="#fe0000" fill-rule="evenodd" stroke="none"/>
      <path d="M-7.9 6.1 L-7.85 5.95 -7.8 6.0 -7.9 6.1 M-1.5 4.3 L-0.7 4.4 -0.75 4.55 -1.5 4.3" fill="#78018c" fill-rule="evenodd" stroke="none"/>
      <path d="M5.55 -11.2 Q7.6 -10.65 7.0 -8.05 6.35 -5.5 9.25 -3.6 12.15 -1.7 12.7 -0.85 L13.35 0.5 13.5 2.2 Q13.5 3.35 11.7 5.65 L11.65 5.65 Q14.0 -0.25 10.7 -1.85 7.4 -3.45 6.2 -6.35 4.95 -9.25 5.55 -11.2 M9.9 8.05 Q7.95 11.7 3.4 11.3 L-1.0 10.75 -3.45 10.0 -4.65 9.35 -5.25 8.95 -5.55 8.75 -5.65 8.7 Q-7.7 7.35 -7.9 6.1 L-7.8 6.0 Q-7.45 7.35 -4.25 8.35 -0.65 9.45 0.0 6.55 0.35 5.2 -0.2 4.85 L-0.75 4.55 -0.7 4.4 Q2.0 4.5 1.75 2.1 L1.35 1.1 2.95 1.45 Q8.0 2.15 5.8 7.3 7.4 8.65 9.9 8.05" fill="#970000" fill-rule="evenodd" stroke="none"/>
      <path d="M-7.7 4.65 Q-7.25 3.15 -6.35 3.35 L-6.3 3.35 Q-3.6 3.55 -1.5 4.3 L-0.75 4.55 -0.2 4.85 Q0.35 5.2 0.0 6.55 -4.5 4.3 -7.7 4.65 M-7.4 -0.15 L-7.0 -0.55 -5.1 -0.85 Q-2.5 -0.5 1.35 1.1 L1.75 2.1 -7.4 -0.15 M-12.9 -6.15 Q-12.5 -6.55 -11.45 -6.6 -6.1 -5.85 3.3 -2.05 1.7 -12.1 5.1 -11.3 2.75 -9.55 4.35 -4.3 5.9 0.9 0.05 -2.0 -5.85 -4.95 -12.9 -6.15" fill="#ff6262" fill-rule="evenodd" stroke="none"/>
      <path d="M11.5 5.85 L10.5 6.6 9.9 8.05 Q7.4 8.65 5.8 7.3 8.0 2.15 2.95 1.45 L1.35 1.1 Q-2.5 -0.5 -5.1 -0.85 -10.75 -1.9 -13.25 -3.95 -13.8 -5.2 -12.9 -6.15 -5.85 -4.95 0.05 -2.0 5.9 0.9 4.35 -4.3 2.75 -9.55 5.1 -11.3 L5.55 -11.2 Q4.95 -9.25 6.2 -6.35 7.4 -3.45 10.7 -1.85 14.0 -0.25 11.65 5.65 L11.5 5.85 M-7.85 5.95 L-7.7 4.65 Q-4.5 4.3 0.0 6.55 -0.65 9.45 -4.25 8.35 -7.45 7.35 -7.8 6.0 L-7.85 5.95 M-6.35 3.35 Q-8.65 1.9 -7.4 -0.15 L1.75 2.1 Q2.0 4.5 -0.7 4.4 L-1.5 4.3 Q-3.6 3.55 -6.3 3.35 L-6.35 3.35" fill="#ef0000" fill-rule="evenodd" stroke="none"/>
    </g>
    <g id="shape5">
      <path d="M7.0 -41.8 Q10.05 -34.45 13.35 -27.15 11.35 -27.95 9.05 -28.3 9.65 -34.45 7.0 -41.8 M24.1 -11.55 L24.65 -10.8 25.3 -10.2 Q30.05 -5.75 33.4 -0.25 L33.25 0.1 Q31.05 6.15 24.55 9.45 L23.3 7.0 Q13.4 -10.0 -0.6 -12.55 12.95 -14.05 24.1 -11.55 M39.45 18.65 Q39.7 22.85 39.05 27.3 38.0 34.7 33.7 40.55 L31.55 43.15 Q22.05 53.45 7.6 54.75 -5.95 56.15 -18.9 51.9 -28.3 48.8 -33.75 41.1 -1.4 61.9 15.9 43.0 21.7 36.65 24.45 30.5 29.9 28.65 33.7 25.55 37.3 22.65 39.45 18.65" fill="#970000" fill-rule="evenodd" stroke="none"/>
      <path d="M9.05 -28.3 Q11.35 -27.95 13.35 -27.15 17.95 -19.25 24.1 -11.55 12.95 -14.05 -0.6 -12.55 L-0.65 -12.65 Q8.05 -19.0 9.05 -28.3 M33.7 0.3 L34.6 1.9 Q38.95 9.9 39.45 18.65 37.3 22.65 33.7 25.55 29.9 28.65 24.45 30.5 29.25 19.65 24.55 9.45 31.05 6.15 33.25 0.1 L33.7 0.3" fill="#000066" fill-rule="evenodd" stroke="none"/>
      <path d="M7.0 -41.8 Q9.65 -34.45 9.05 -28.3 -0.8 -29.9 -15.9 -23.95 -14.95 -26.5 -14.15 -29.15 -11.05 -40.1 -7.25 -50.9 -6.7 -52.55 -5.35 -53.5 0.45 -57.95 3.75 -49.65 L6.7 -42.55 7.0 -41.8 M-33.75 41.1 Q-35.65 38.45 -37.05 35.25 -38.9 31.15 -39.3 26.9 4.0 37.45 24.45 30.5 21.7 36.65 15.9 43.0 -1.4 61.9 -33.75 41.1 M-35.55 8.75 Q-32.25 1.15 -26.7 -5.45 L-25.3 -7.15 Q-12.1 -11.3 -0.6 -12.55 13.4 -10.0 23.3 7.0 L24.55 9.45 Q8.15 17.8 -35.55 8.75" fill="#ef0000" fill-rule="evenodd" stroke="none"/>
      <path d="M33.4 -0.25 L33.7 0.3 33.25 0.1 33.4 -0.25 M-39.3 26.9 Q-39.8 22.05 -38.45 17.05 -37.3 12.75 -35.55 8.75 8.15 17.8 24.55 9.45 29.25 19.65 24.45 30.5 4.0 37.45 -39.3 26.9 M-25.3 -7.15 Q-19.35 -14.85 -15.9 -23.95 -0.8 -29.9 9.05 -28.3 8.05 -19.0 -0.65 -12.65 L-0.6 -12.55 Q-12.1 -11.3 -25.3 -7.15" fill="#0000db" fill-rule="evenodd" stroke="none"/>
      <path d="M24.65 -10.8 L24.95 -10.5 25.3 -10.2 24.65 -10.8" fill="#a803c6" fill-rule="evenodd" stroke="none"/>
      <path d="M-27.3 12.35 Q-29.9 22.3 -29.0 28.5 -28.1 34.7 -21.9 41.45 -51.3 21.8 -23.3 -6.6 -11.85 -18.15 -9.9 -28.0 -8.45 -19.15 -16.55 -8.35 -24.7 2.4 -27.3 12.35" fill="#ffffff" fill-opacity="0.4117647" fill-rule="evenodd" stroke="none"/>
    </g>
    <g id="sprite2">
      <use ffdec:characterId="21" height="21.8" transform="matrix(1.0, 0.0, 0.0, 1.0, 0.0, 0.0)" width="21.85" xlink:href="#shape6"/>
    </g>
    <g id="shape6">
      <path d="M10.85 -1.25 Q11.35 3.2 8.55 6.75 5.75 10.3 1.25 10.8 -3.2 11.3 -6.7 8.55 -10.25 5.7 -10.8 1.25 -11.3 -3.2 -8.5 -6.75 -5.7 -10.3 -1.2 -10.8 3.2 -11.35 6.75 -8.5 10.3 -5.7 10.85 -1.25" fill="url(#gradient1)" fill-rule="evenodd" stroke="none"/>
    </g>
    <radialGradient cx="0" cy="0" gradientTransform="matrix(0.0187, 0.0, 0.0, 0.0187, -3.75, -2.45)" gradientUnits="userSpaceOnUse" id="gradient1" r="819.2" spreadMethod="pad">
      <stop offset="0.25098039215686274" stop-color="#ffffff"/>
      <stop offset="0.8549019607843137" stop-color="#8eb5f8"/>
      <stop offset="0.996078431372549" stop-color="#0859d4"/>
    </radialGradient>
    <g id="shape7">
      <path d="M14.85 -22.0 Q35.75 -48.9 83.25 -21.25 77.5 12.95 34.2 31.1 L34.2 31.15 Q-7.05 47.75 -63.85 20.05 L-63.9 20.0 -75.6 15.75 -80.7 14.0 -80.5 13.0 Q-15.75 17.15 14.85 -22.0" fill="url(#gradient2)" fill-rule="evenodd" stroke="none"/>
    </g>
    <linearGradient gradientTransform="matrix(0.0125, 0.0468, -0.0482, 0.0129, -17.3, 14.1)" gradientUnits="userSpaceOnUse" id="gradient2" spreadMethod="pad" x1="-819.2" x2="819.2">
      <stop offset="0.0" stop-color="#ffffcd"/>
      <stop offset="1.0" stop-color="#ef9f18"/>
    </linearGradient>
    <g id="shape8">
      <path d="M-58.95 -26.8 Q-2.2 -3.5 59.45 7.75 L59.45 18.95 Q-6.4 5.65 -58.95 -16.8 L-58.95 -26.8" fill="#bb6d0f" fill-rule="evenodd" stroke="none"/>
    </g>
    <g id="shape9">
      <path d="M-58.95 -26.8 Q-2.2 -3.5 59.45 7.75 L59.45 18.95 Q-6.4 5.65 -58.95 -16.8 L-58.95 -26.8" fill="#95570c" fill-rule="evenodd" stroke="none"/>
    </g>
    <g id="shape10">
      <path d="M6.35 -22.35 Q7.45 2.9 5.7 25.75 L-5.4 21.05 -5.4 -26.4 6.35 -22.35" fill="#491f05" fill-opacity="0.39607844" fill-rule="evenodd" stroke="none"/>
    </g>
    <g id="shape11">
      <path d="M73.0 385.0 L73.35 389.75 Q144.4 367.7 183.35 350.75 L183.35 350.7 Q183.15 350.45 179.2 348.35 127.0 368.75 73.0 385.0" fill="#f2bd51" fill-rule="evenodd" stroke="none"/>
      <path d="M64.3 344.85 Q63.35 367.6 64.35 392.4 L64.8 401.05 Q105.85 389.55 189.8 356.6 187.05 329.0 189.8 300.0 162.4 311.4 133.25 319.8 100.15 329.3 64.8 335.0 L64.3 344.85 M183.35 350.7 L183.35 350.75 Q144.4 367.7 73.35 389.75 L73.0 385.0 Q71.45 361.65 73.35 342.75 103.45 336.25 133.25 327.3 156.1 320.45 178.75 312.1 L179.3 311.9 183.3 310.45 Q181.6 329.9 183.35 350.7" fill="#ca8c0f" fill-rule="evenodd" stroke="none"/>
      <path d="M79.7 288.15 L79.7 288.5 81.4 288.15 79.7 288.15" fill="#9d670d" fill-rule="evenodd" stroke="none"/>
      <path d="M183.35 350.7 Q181.6 329.9 183.3 310.45 L179.3 311.9 Q178.25 328.8 179.2 348.35 183.15 350.45 183.35 350.7" fill="#664309" fill-rule="evenodd" stroke="none"/>
    </g>
    <g id="shape12">
      <path d="M3.05 -3.05 Q4.3 -1.8 4.3 0.0 4.3 1.8 3.05 3.05 1.8 4.3 0.0 4.3 -1.8 4.3 -3.05 3.05 -4.3 1.8 -4.3 0.0 -4.3 -1.8 -3.05 -3.05 -1.8 -4.3 0.0 -4.3 1.8 -4.3 3.05 -3.05" fill="url(#gradient3)" fill-rule="evenodd" stroke="none"/>
    </g>
    <radialGradient cx="0" cy="0" gradientTransform="matrix(0.0088, 0.0, 0.0, 0.0088, -1.15, -1.0)" gradientUnits="userSpaceOnUse" id="gradient3" r="819.2" spreadMethod="pad">
      <stop offset="0.0" stop-color="#ffffff"/>
      <stop offset="1.0" stop-color="#000000"/>
    </radialGradient>
    <g id="shape13">
      <path d="M133.25 281.7 Q90.15 292.8 34.2 302.55 L39.05 307.25 Q52.2 319.7 67.75 329.7 102.3 324.05 133.25 315.0 152.0 309.5 169.4 302.8 L171.7 301.9 178.1 299.3 Q154.95 292.7 133.25 281.7 M64.8 335.0 Q44.2 319.95 25.75 300.65 59.75 296.0 134.8 279.0 156.7 289.55 189.8 300.0 162.4 311.4 133.25 319.8 100.15 329.3 64.8 335.0" fill="#f2bd51" fill-rule="evenodd" stroke="none"/>
      <path d="M39.05 307.25 L34.2 302.55 Q90.15 292.8 133.25 281.7 L133.25 287.35 Q92.0 297.9 39.05 307.25" fill="#ca8c0f" fill-rule="evenodd" stroke="none"/>
      <path d="M133.25 281.7 Q154.95 292.7 178.1 299.3 L171.7 301.9 169.4 302.8 Q150.25 297.7 133.25 287.35 L133.25 281.7 M33.4 315.5 L32.75 314.8 30.15 311.95 Q31.7 329.55 30.85 352.15 43.9 364.0 59.05 382.6 L58.7 375.75 58.65 375.35 Q57.85 356.95 59.3 340.0 45.55 328.5 33.4 315.5 M64.8 335.0 L64.3 344.85 Q63.35 367.6 64.4 392.4 L64.8 401.05 52.6 384.75 Q42.85 371.95 26.85 355.7 L27.05 345.0 Q27.6 325.7 26.4 308.2 L25.75 300.65 Q44.2 319.95 64.8 335.0" fill="#664309" fill-rule="evenodd" stroke="none"/>
      <path d="M169.4 302.8 Q152.0 309.5 133.25 315.0 L133.25 287.35 Q150.25 297.7 169.4 302.8 M30.85 352.15 Q31.7 329.55 30.15 311.95 L32.75 314.8 33.4 315.5 Q34.65 334.95 33.8 351.5 L30.85 352.15" fill="#402904" fill-rule="evenodd" stroke="none"/>
      <path d="M30.85 352.15 L33.8 351.5 Q47.0 362.4 58.5 375.55 L58.7 375.75 59.05 382.6 Q43.9 364.0 30.85 352.15" fill="#94600c" fill-rule="evenodd" stroke="none"/>
      <path d="M33.8 351.5 Q34.65 334.95 33.4 315.5 45.55 328.5 59.3 340.0 57.85 356.95 58.65 375.35 L58.5 375.55 Q47.0 362.4 33.8 351.5" fill="#6c2e09" fill-rule="evenodd" stroke="none"/>
      <path d="M133.25 315.0 Q102.3 324.05 67.75 329.7 52.2 319.7 39.05 307.25 92.0 297.9 133.25 287.35 L133.25 315.0" fill="#83560c" fill-rule="evenodd" stroke="none"/>
    </g>
    <g id="shape14">
      <path d="M-42.1 21.9 Q19.55 14.65 75.65 -8.9 L74.85 -11.25 81.45 -9.0 82.1 -8.75 82.2 -8.7 Q22.7 17.5 -42.8 25.45 -65.45 10.8 -82.15 -6.05 L-79.25 -6.4 -78.55 -6.65 Q-63.0 8.7 -42.1 21.9" fill="#f2bd51" fill-rule="evenodd" stroke="none"/>
      <path d="M74.85 -11.25 L75.65 -8.9 Q19.55 14.65 -42.1 21.9 -50.0 -3.95 -58.75 -11.4 -62.75 -14.8 -66.95 -14.35 -7.1 -22.65 51.6 -38.6 66.0 -35.9 74.8 -11.5 L74.85 -11.25" fill="#bb6d0f" fill-rule="evenodd" stroke="none"/>
      <path d="M-42.1 21.9 Q-63.0 8.7 -78.55 -6.65 -73.35 -12.85 -68.45 -14.05 L-66.95 -14.35 Q-62.75 -14.8 -58.75 -11.4 -50.0 -3.95 -42.1 21.9" fill="#6c2e09" fill-rule="evenodd" stroke="none"/>
      <path d="M-82.15 -6.05 Q-65.45 10.8 -42.8 25.45 L-42.8 38.65 Q-65.55 22.1 -82.15 3.75 L-82.15 -6.05" fill="#664309" fill-rule="evenodd" stroke="none"/>
      <path d="M-42.8 25.45 Q22.7 17.5 82.2 -8.7 L82.2 3.25 Q62.05 11.8 40.95 18.7 27.7 23.0 14.05 26.65 -13.55 34.0 -42.8 38.65 L-42.8 25.45" fill="#ca8c0f" fill-rule="evenodd" stroke="none"/>
      <path d="M33.0 12.7 L33.0 20.6 Q26.0 23.35 18.45 25.35 19.3 21.85 18.45 16.95 26.1 15.5 33.0 12.7" fill="#cccccc" fill-rule="evenodd" stroke="none"/>
      <path d="M16.9 16.25 Q23.9 14.8 30.4 12.4 L31.45 12.0 33.0 12.7 Q26.1 15.5 18.45 16.95 L16.9 16.25" fill="#999999" fill-rule="evenodd" stroke="none"/>
      <path d="M18.45 25.35 L17.15 24.35 Q18.5 20.8 16.9 16.25 L18.45 16.95 Q19.3 21.85 18.45 25.35" fill="#666666" fill-rule="evenodd" stroke="none"/>
    </g>
    <g id="shape15">
      <path d="M-39.2 333.35 L-38.65 332.85 Q8.5 334.75 52.95 350.75 L53.0 350.75 Q87.65 367.35 125.7 372.7 147.15 375.8 167.15 367.9 L167.65 368.0 Q182.0 382.25 177.05 392.6 172.25 402.85 148.4 409.15 53.3 434.0 -38.85 399.8 L-39.2 399.3 -39.2 333.35" fill="url(#gradient4)" fill-rule="evenodd" stroke="none"/>
    </g>
    <linearGradient gradientTransform="matrix(2.0E-4, 0.0605, -0.0401, 1.0E-4, 92.35, 377.75)" gradientUnits="userSpaceOnUse" id="gradient4" spreadMethod="pad" x1="-819.2" x2="819.2">
      <stop offset="0.0" stop-color="#ffffcc"/>
      <stop offset="1.0" stop-color="#ef9c11"/>
    </linearGradient>
    <g id="shape16">
      <path d="M-107.55 -9.7 L-108.55 -9.7 -108.75 -42.85 -108.2 -43.35 Q-61.05 -41.45 -16.6 -25.45 L-16.55 -25.45 -6.5 -20.9 Q-53.85 -27.0 -107.55 -9.7" fill="#333333" fill-opacity="0.31764707" fill-rule="evenodd" stroke="none"/>
    </g>
    <g id="shape17">
      <path d="M50.95 -75.4 L50.8 -75.35 -74.75 -52.9 Q-75.3 -52.85 -75.7 -52.5 -83.0 -46.75 -82.75 -37.8 L-82.8 -37.6 -83.05 -35.85 -83.05 -35.8 -82.55 16.2 -82.1 17.4 Q-81.7 17.95 -81.05 18.15 -48.2 28.05 -14.65 37.75 L-14.7 37.75 Q-4.0 40.9 7.25 40.1 L7.3 40.1 10.3 39.8 10.4 39.8 16.7 38.6 16.75 38.6 Q55.15 30.1 85.55 4.45 L86.1 3.75 86.3 2.85 86.45 -42.8 86.15 -43.9 85.25 -44.7 78.65 -47.85 78.15 -49.85 Q73.4 -71.15 52.05 -75.45 L50.95 -75.4 M52.1 -75.8 Q73.7 -71.45 78.5 -49.9 L78.5 -49.95 78.9 -48.1 85.4 -45.0 86.45 -44.1 86.8 -42.8 86.65 2.85 86.45 3.9 85.8 4.75 Q55.3 30.4 16.8 38.95 L10.45 40.15 10.35 40.15 7.35 40.45 7.3 40.45 Q-4.0 41.25 -14.8 38.05 L-14.75 38.05 -81.15 18.5 Q-81.9 18.25 -82.4 17.65 -82.9 17.0 -82.9 16.2 L-83.4 -35.8 -83.4 -35.85 -83.15 -37.7 -83.2 -37.5 -83.1 -37.85 Q-83.35 -46.95 -75.9 -52.75 L-74.8 -53.25 50.6 -75.65 50.85 -75.7 52.1 -75.8 M62.9 -52.0 Q58.05 -60.8 48.9 -63.6 15.55 -55.65 -10.95 -50.55 L-11.0 -50.55 Q-40.2 -44.95 -61.25 -43.1 -69.7 -40.2 -70.4 -35.95 L-70.4 -35.75 -70.5 -35.3 -70.45 5.85 Q-49.75 10.6 -30.75 20.1 L-30.75 20.15 Q-17.6 26.75 -2.8 25.9 L-2.7 25.9 Q12.8 25.5 27.4 20.7 52.75 12.35 73.75 -4.45 L74.75 -36.75 69.6 -38.7 68.7 -39.3 68.15 -40.2 Q66.1 -46.3 62.9 -52.0 M63.2 -52.15 L63.25 -52.15 Q66.4 -46.45 68.45 -40.3 L68.95 -39.55 69.75 -39.0 75.1 -37.0 74.1 -4.25 Q53.05 12.6 27.5 21.0 12.85 25.85 -2.7 26.25 L-2.75 26.25 Q-17.65 27.1 -30.9 20.45 -50.0 10.9 -70.8 6.15 L-70.85 -35.35 -70.75 -35.8 -70.75 -35.95 Q-70.1 -40.45 -61.3 -43.45 -40.25 -45.3 -11.05 -50.85 L-11.05 -50.9 Q15.55 -56.0 48.9 -63.95 58.25 -61.1 63.2 -52.15" fill="#ffff00" fill-opacity="0.13725491" fill-rule="evenodd" stroke="none"/>
      <path d="M50.95 -75.4 L52.05 -75.45 Q73.4 -71.15 78.15 -49.85 L78.65 -47.85 85.25 -44.7 86.15 -43.9 86.45 -42.8 86.3 2.85 86.1 3.75 85.55 4.45 Q55.15 30.1 16.75 38.6 L16.7 38.6 10.4 39.8 10.3 39.8 7.3 40.1 7.25 40.1 Q-4.0 40.9 -14.7 37.75 L-14.65 37.75 Q-48.2 28.05 -81.05 18.15 -81.7 17.95 -82.1 17.4 L-82.55 16.2 -83.05 -35.8 -83.05 -35.85 -82.8 -37.6 -82.75 -37.8 Q-83.0 -46.75 -75.7 -52.5 -75.3 -52.85 -74.75 -52.9 L50.8 -75.35 50.95 -75.4 M51.05 -75.05 L50.95 -75.0 -74.7 -52.55 -75.45 -52.2 Q-82.65 -46.55 -82.4 -37.8 L-82.5 -37.5 -82.5 -37.4 -82.7 -35.85 -82.7 -35.8 -82.2 16.2 -81.85 17.2 -80.95 17.85 -14.55 37.4 -14.6 37.4 Q-3.95 40.5 7.25 39.75 L7.3 39.75 10.3 39.45 10.35 39.45 16.65 38.25 Q55.0 29.75 85.35 4.2 L85.8 3.6 85.95 2.85 86.1 -42.8 85.85 -43.7 85.1 -44.35 78.3 -47.6 77.8 -49.75 77.8 -49.8 Q73.1 -70.85 51.95 -75.1 L51.05 -75.05 M63.2 -52.15 Q58.25 -61.1 48.9 -63.95 15.55 -56.0 -11.05 -50.9 L-11.05 -50.85 Q-40.25 -45.3 -61.3 -43.45 -70.1 -40.45 -70.75 -35.95 L-70.75 -35.8 -70.85 -35.35 -70.8 6.15 Q-50.0 10.9 -30.9 20.45 -17.65 27.1 -2.75 26.25 L-2.7 26.25 Q12.85 25.85 27.5 21.0 53.05 12.6 74.1 -4.25 L75.1 -37.0 69.75 -39.0 68.95 -39.55 68.45 -40.3 Q66.4 -46.45 63.25 -52.15 L63.2 -52.15 M48.95 -64.35 Q58.5 -61.45 63.55 -52.35 66.75 -46.6 68.8 -40.45 L69.2 -39.8 Q69.45 -39.5 69.85 -39.35 L75.45 -37.2 74.45 -4.1 Q53.25 12.9 27.6 21.35 12.9 26.2 -2.7 26.6 L-2.75 26.6 Q-17.7 27.5 -31.05 20.75 -50.25 11.15 -71.15 6.4 L-71.2 -35.4 -71.1 -35.85 -71.1 -36.0 Q-70.45 -40.7 -61.45 -43.8 -40.4 -45.6 -11.1 -51.2 15.5 -56.35 48.95 -64.35" fill="#ffff00" fill-opacity="0.28235295" fill-rule="evenodd" stroke="none"/>
      <path d="M50.95 -74.65 L-74.65 -52.2 -75.25 -51.95 Q-82.35 -46.4 -82.05 -37.75 L-82.15 -37.4 -82.15 -37.3 -82.35 -35.85 -82.35 -35.8 -81.85 16.15 -81.55 17.0 -80.85 17.5 -14.45 37.05 -14.5 37.05 Q-3.9 40.15 7.2 39.4 L7.25 39.4 10.25 39.1 10.3 39.1 16.55 37.95 16.6 37.95 Q54.85 29.45 85.1 3.95 L85.5 3.45 85.6 2.85 85.75 -42.8 85.55 -43.55 84.95 -44.05 78.05 -47.35 77.5 -49.7 Q72.8 -70.55 51.9 -74.75 L51.15 -74.7 50.95 -74.65 M51.05 -75.05 L51.95 -75.1 Q73.1 -70.85 77.8 -49.8 L77.8 -49.75 78.3 -47.6 85.1 -44.35 85.85 -43.7 86.1 -42.8 85.95 2.85 85.8 3.6 85.35 4.2 Q55.0 29.75 16.65 38.25 L10.35 39.45 10.3 39.45 7.3 39.75 7.25 39.75 Q-3.95 40.5 -14.6 37.4 L-14.55 37.4 -80.95 17.85 -81.85 17.2 -82.2 16.2 -82.7 -35.8 -82.7 -35.85 -82.5 -37.4 -82.5 -37.5 -82.4 -37.8 Q-82.65 -46.55 -75.45 -52.2 L-74.7 -52.55 50.95 -75.0 51.05 -75.05 M48.9 -64.7 Q58.7 -61.8 63.85 -52.5 67.05 -46.75 69.15 -40.55 L69.45 -40.0 69.95 -39.7 75.85 -37.5 74.8 -3.9 Q53.5 13.2 27.75 21.7 L27.7 21.7 Q12.95 26.55 -2.65 26.95 L-2.7 26.95 Q-17.8 27.85 -31.2 21.05 -50.5 11.4 -71.5 6.7 L-71.55 -35.5 -71.45 -35.9 -71.45 -36.05 Q-70.85 -40.95 -61.45 -44.15 -40.4 -45.95 -11.15 -51.55 15.45 -56.7 48.9 -64.7 M48.95 -64.35 Q15.5 -56.35 -11.1 -51.2 -40.4 -45.6 -61.45 -43.8 -70.45 -40.7 -71.1 -36.0 L-71.1 -35.85 -71.2 -35.4 -71.15 6.4 Q-50.25 11.15 -31.05 20.75 -17.7 27.5 -2.75 26.6 L-2.7 26.6 Q12.9 26.2 27.6 21.35 53.25 12.9 74.45 -4.1 L75.45 -37.2 69.85 -39.35 Q69.45 -39.5 69.2 -39.8 L68.8 -40.45 Q66.75 -46.6 63.55 -52.35 58.5 -61.45 48.95 -64.35" fill="#ffff00" fill-opacity="0.42352942" fill-rule="evenodd" stroke="none"/>
      <path d="M50.95 -74.65 L51.15 -74.7 51.9 -74.75 Q72.8 -70.55 77.5 -49.7 L78.05 -47.35 84.95 -44.05 85.55 -43.55 85.75 -42.8 85.6 2.85 85.5 3.45 85.1 3.95 Q54.85 29.45 16.6 37.95 L16.55 37.95 10.3 39.1 10.25 39.1 7.25 39.4 7.2 39.4 Q-3.9 40.15 -14.5 37.05 L-14.45 37.05 -80.85 17.5 -81.55 17.0 -81.85 16.15 -82.35 -35.8 -82.35 -35.85 -82.15 -37.3 -82.15 -37.4 -82.05 -37.75 Q-82.35 -46.4 -75.25 -51.95 L-74.65 -52.2 50.95 -74.65 M51.3 -74.4 L51.0 -74.3 -74.55 -51.85 -75.05 -51.65 Q-82.0 -46.2 -81.7 -37.7 L-81.8 -37.25 -81.8 -37.3 -82.0 -35.85 -81.5 16.15 -81.3 16.8 -80.75 17.15 -14.4 36.7 Q-3.85 39.8 7.2 39.05 L10.2 38.75 10.25 38.75 16.5 37.6 Q54.7 29.1 84.9 3.65 L85.15 3.3 85.25 2.85 85.4 -42.8 85.25 -43.35 84.8 -43.75 77.75 -47.1 77.15 -49.6 77.15 -49.65 Q72.5 -70.25 51.8 -74.4 L51.3 -74.4 M64.15 -52.7 L64.15 -52.65 Q67.4 -46.85 69.45 -40.65 L69.7 -40.25 70.1 -40.0 76.2 -37.7 75.15 -3.75 Q53.75 13.5 27.85 22.0 13.0 26.9 -2.65 27.3 L-2.7 27.3 Q-17.85 28.2 -31.35 21.4 L-31.35 21.35 Q-50.7 11.7 -71.85 6.95 L-71.9 -35.35 -71.8 -35.95 -71.8 -36.05 Q-71.25 -41.2 -61.55 -44.5 -40.5 -46.3 -11.25 -51.9 15.45 -57.05 48.95 -65.05 58.9 -62.15 64.15 -52.7 M48.9 -64.7 Q15.45 -56.7 -11.15 -51.55 -40.4 -45.95 -61.45 -44.15 -70.85 -40.95 -71.45 -36.05 L-71.45 -35.9 -71.55 -35.5 -71.5 6.7 Q-50.5 11.4 -31.2 21.05 -17.8 27.85 -2.7 26.95 L-2.65 26.95 Q12.95 26.55 27.7 21.7 L27.75 21.7 Q53.5 13.2 74.8 -3.9 L75.85 -37.5 69.95 -39.7 69.45 -40.0 69.15 -40.55 Q67.05 -46.75 63.85 -52.5 58.7 -61.8 48.9 -64.7" fill="#ffff00" fill-opacity="0.5686275" fill-rule="evenodd" stroke="none"/>
      <path d="M51.3 -74.4 L51.8 -74.4 Q72.5 -70.25 77.15 -49.65 L77.15 -49.6 77.75 -47.1 84.8 -43.75 85.25 -43.35 85.4 -42.8 85.25 2.85 85.15 3.3 84.9 3.65 Q54.7 29.1 16.5 37.6 L10.25 38.75 10.2 38.75 7.2 39.05 Q-3.85 39.8 -14.4 36.7 L-80.75 17.15 -81.3 16.8 -81.5 16.15 -82.0 -35.85 -81.8 -37.3 -81.8 -37.25 -81.7 -37.7 Q-82.0 -46.2 -75.05 -51.65 L-74.55 -51.85 51.0 -74.3 51.3 -74.4 M51.75 -74.05 L51.4 -74.05 51.15 -74.0 -74.5 -51.55 -74.8 -51.4 Q-81.65 -46.0 -81.35 -37.65 L-81.45 -37.15 -81.45 -37.2 -81.65 -35.85 -81.15 16.15 -81.0 16.6 -80.65 16.85 -14.3 36.4 Q-3.85 39.45 7.15 38.7 L7.2 38.7 10.2 38.4 16.4 37.25 Q54.5 28.8 84.65 3.4 L84.85 3.15 84.9 2.85 85.05 -42.8 84.95 -43.15 84.65 -43.4 77.4 -46.85 76.8 -49.55 Q72.25 -69.95 51.75 -74.05 M64.15 -52.7 Q58.9 -62.15 48.95 -65.05 15.45 -57.05 -11.25 -51.9 -40.5 -46.3 -61.55 -44.5 -71.25 -41.2 -71.8 -36.05 L-71.8 -35.95 -71.9 -35.35 -71.85 6.95 Q-50.7 11.7 -31.35 21.35 L-31.35 21.4 Q-17.85 28.2 -2.7 27.3 L-2.65 27.3 Q13.0 26.9 27.85 22.0 53.75 13.5 75.15 -3.75 L76.2 -37.7 70.1 -40.0 69.7 -40.25 69.45 -40.65 Q67.4 -46.85 64.15 -52.65 L64.15 -52.7 M64.45 -52.85 Q67.7 -47.0 69.8 -40.75 L69.95 -40.5 70.2 -40.35 76.55 -37.95 75.45 -3.6 Q54.0 13.75 27.95 22.35 13.05 27.25 -2.65 27.65 L-2.7 27.65 Q-17.95 28.55 -31.5 21.7 -50.95 11.95 -72.2 7.25 L-72.25 -35.4 -72.15 -36.0 -72.15 -36.1 Q-71.6 -41.45 -61.55 -44.85 -40.5 -46.7 -11.3 -52.25 15.35 -57.4 48.95 -65.4 59.1 -62.45 64.45 -52.85" fill="#ffff00" fill-opacity="0.70980394" fill-rule="evenodd" stroke="none"/>
      <path d="M51.5 -73.7 L51.2 -73.6 51.25 -73.65 -74.45 -51.2 -74.6 -51.1 Q-81.35 -45.85 -81.0 -37.6 L-81.15 -37.15 -81.3 -35.85 -80.8 16.15 -80.7 16.35 -80.55 16.5 -14.2 36.05 Q-3.8 39.1 7.15 38.35 L10.15 38.05 16.35 36.9 Q54.35 28.5 84.45 3.15 L84.55 3.0 84.55 2.85 84.7 -42.8 84.65 -42.95 84.5 -43.1 77.1 -46.65 76.45 -49.45 Q71.95 -69.65 51.7 -73.75 L51.5 -73.7 M51.75 -74.05 Q72.25 -69.95 76.8 -49.55 L77.4 -46.85 84.65 -43.4 84.95 -43.15 85.05 -42.8 84.9 2.85 84.85 3.15 84.65 3.4 Q54.5 28.8 16.4 37.25 L10.2 38.4 7.2 38.7 7.15 38.7 Q-3.85 39.45 -14.3 36.4 L-80.65 16.85 -81.0 16.6 -81.15 16.15 -81.65 -35.85 -81.45 -37.2 -81.45 -37.15 -81.35 -37.65 Q-81.65 -46.0 -74.8 -51.4 L-74.5 -51.55 51.15 -74.0 51.4 -74.05 51.75 -74.05 M64.45 -52.85 Q59.1 -62.45 48.95 -65.4 15.35 -57.4 -11.3 -52.25 -40.5 -46.7 -61.55 -44.85 -71.6 -41.45 -72.15 -36.1 L-72.15 -36.0 -72.25 -35.4 -72.2 7.25 Q-50.95 11.95 -31.5 21.7 -17.95 28.55 -2.7 27.65 L-2.65 27.65 Q13.05 27.25 27.95 22.35 54.0 13.75 75.45 -3.6 L76.55 -37.95 70.2 -40.35 69.95 -40.5 69.8 -40.75 Q67.7 -47.0 64.45 -52.85 M49.0 -65.8 Q59.35 -62.8 64.75 -53.0 68.05 -47.15 70.15 -40.9 L70.2 -40.75 70.35 -40.65 76.9 -38.2 75.8 -3.4 Q54.25 14.05 28.05 22.7 13.15 27.6 -2.65 28.0 -18.05 28.9 -31.7 22.0 -51.2 12.2 -72.55 7.5 L-72.6 -35.45 -72.5 -36.1 Q-72.0 -41.7 -61.7 -45.2 -40.65 -47.0 -11.35 -52.6 15.35 -57.75 49.0 -65.8" fill="#ffff00" fill-opacity="0.85490197" fill-rule="evenodd" stroke="none"/>
      <path d="M51.5 -73.7 L51.7 -73.75 Q71.95 -69.65 76.45 -49.45 L77.1 -46.65 84.5 -43.1 84.65 -42.95 84.7 -42.8 84.55 2.85 84.55 3.0 84.45 3.15 Q54.35 28.5 16.35 36.9 L10.15 38.05 7.15 38.35 Q-3.8 39.1 -14.2 36.05 L-80.55 16.5 -80.7 16.35 -80.8 16.15 -81.3 -35.85 -81.15 -37.15 -81.0 -37.6 Q-81.35 -45.85 -74.6 -51.1 L-74.45 -51.2 51.25 -73.65 51.2 -73.6 51.5 -73.7 M49.0 -65.8 Q15.35 -57.75 -11.35 -52.6 -40.65 -47.0 -61.7 -45.2 -72.0 -41.7 -72.5 -36.1 L-72.6 -35.45 -72.55 7.5 Q-51.2 12.2 -31.7 22.0 -18.05 28.9 -2.65 28.0 13.15 27.6 28.05 22.7 54.25 14.05 75.8 -3.4 L76.9 -38.2 70.35 -40.65 70.2 -40.75 70.15 -40.9 Q68.05 -47.15 64.75 -53.0 59.35 -62.8 49.0 -65.8" fill="#ffff00" fill-rule="evenodd" stroke="none"/>
    </g>
    <g id="shape18">
      <path d="M5.0 -8.75 Q7.2 -7.45 6.4 -0.25 4.05 -4.95 5.0 -8.75 M2.75 0.55 Q3.2 1.95 3.25 3.2 -0.3 -2.1 -0.15 -4.75 -0.05 -7.4 1.1 -7.9 L1.85 -8.1 Q-1.15 -5.85 2.75 0.55 M1.0 5.85 Q1.5 7.2 1.15 8.2 -6.3 1.3 -3.3 -2.55 -2.65 1.8 1.0 5.85" fill="#970000" fill-rule="evenodd" stroke="none"/>
      <path d="M5.0 -8.75 Q4.05 -4.95 6.4 -0.25 5.8 1.6 4.85 1.8 -1.15 -5.55 3.45 -9.0 4.25 -9.25 5.0 -8.75 M3.25 3.2 Q3.45 4.75 2.0 5.75 -4.85 -1.35 -1.75 -6.3 -0.5 -7.45 0.35 -7.7 L1.1 -7.9 Q-0.05 -7.4 -0.15 -4.75 -0.3 -2.1 3.25 3.2 M1.15 8.2 Q0.6 9.65 -1.45 8.85 L-2.65 8.15 Q-8.05 3.6 -4.75 -0.95 L-4.6 -1.2 -3.3 -2.55 Q-6.3 1.3 1.15 8.2" fill="#ef0000" fill-rule="evenodd" stroke="none"/>
      <path d="M4.85 1.8 Q3.6 1.75 2.75 0.55 -1.15 -5.85 1.85 -8.1 2.75 -8.8 3.45 -9.0 -1.15 -5.55 4.85 1.8 M2.0 5.75 L1.0 5.85 Q-2.65 1.8 -3.3 -2.55 -3.25 -5.05 -1.75 -6.3 -4.85 -1.35 2.0 5.75 M-2.65 8.15 L-5.85 4.9 Q-7.65 2.85 -4.75 -0.95 -8.05 3.6 -2.65 8.15" fill="#ff6262" fill-rule="evenodd" stroke="none"/>
    </g>
    <g id="sprite3">
      <use ffdec:characterId="23" height="5.7" transform="matrix(1.0, 0.0, 0.0, 1.0, 0.0, 0.0)" width="5.8" xlink:href="#shape19"/>
    </g>
    <g id="shape19">
      <path d="M0.0 -2.3 Q-0.45 -2.25 -0.7 -1.9 L-0.9 -1.1 Q-0.85 -0.65 -0.45 -0.35 -0.1 -0.05 0.35 -0.1 0.8 -0.15 1.05 -0.45 1.35 -0.85 1.3 -1.3 L0.85 -2.05 0.0 -2.3 M1.65 -2.2 Q2.65 -1.45 2.85 -0.25 3.0 0.95 2.3 1.85 1.6 2.75 0.45 2.85 -0.75 2.95 -1.7 2.25 -2.7 1.45 -2.85 0.25 -3.05 -0.95 -2.3 -1.85 -1.65 -2.75 -0.45 -2.85 0.7 -2.95 1.65 -2.2" fill="#000000" fill-rule="evenodd" stroke="none"/>
      <path d="M0.0 -2.3 L0.85 -2.05 1.3 -1.3 Q1.35 -0.85 1.05 -0.45 0.8 -0.15 0.35 -0.1 -0.1 -0.05 -0.45 -0.35 -0.85 -0.65 -0.9 -1.1 L-0.7 -1.9 Q-0.45 -2.25 0.0 -2.3" fill="#ffffff" fill-rule="evenodd" stroke="none"/>
    </g>
    <g id="shape20">
      <path d="M-0.05 -4.8 Q0.7 -4.85 0.75 -4.25 0.2 1.05 2.75 4.1 L0.3 3.85 -0.15 3.9 -3.25 4.3 Q0.3 0.5 -0.5 -4.2 L-0.55 -4.45 -0.05 -4.8" fill="#fbc115" fill-rule="evenodd" stroke="none"/>
      <path d="M-0.05 -4.8 L0.4 -4.85 Q1.4 -4.9 1.4 -4.2 1.05 1.5 4.65 4.7 L3.75 4.35 2.75 4.1 Q0.2 1.05 0.75 -4.25 0.7 -4.85 -0.05 -4.8" fill="#e98c01" fill-rule="evenodd" stroke="none"/>
      <path d="M-3.25 4.3 L-4.7 4.8 Q-0.25 0.45 -0.6 -4.2 L-0.55 -4.45 -0.5 -4.2 Q0.3 0.5 -3.25 4.3" fill="#ffffff" fill-rule="evenodd" stroke="none"/>
    </g>
    <g id="shape21">
      <path d="M0.6 -4.7 Q2.95 -4.55 4.65 -3.45 L5.25 -3.0 Q7.1 -1.45 6.85 0.55 6.55 2.55 4.35 3.9 L2.55 4.7 -0.7 5.05 Q-3.55 4.9 -5.4 3.4 -7.2 1.85 -6.95 -0.2 -6.7 -2.2 -4.5 -3.5 -2.3 -4.85 0.6 -4.7" fill="url(#gradient5)" fill-rule="evenodd" stroke="none"/>
      <path d="M5.4 -5.3 L5.9 -5.05 5.4 -5.3" fill="#ffc357" fill-rule="evenodd" stroke="none"/>
      <path d="M0.6 -4.7 Q-2.3 -4.85 -4.5 -3.5 -6.7 -2.2 -6.95 -0.2 -7.2 1.85 -5.4 3.4 -3.55 4.9 -0.7 5.05 L2.55 4.7 4.35 3.9 Q6.55 2.55 6.85 0.55 7.1 -1.45 5.25 -3.0 L4.65 -3.45 Q2.95 -4.55 0.6 -4.7 M5.9 -5.05 Q6.95 -4.5 7.9 -3.4 L8.55 -2.5 9.0 -1.55 9.2 0.1 9.15 0.5 Q8.75 3.15 5.85 4.95 3.1 6.55 -0.4 6.5 L-0.85 6.45 -0.9 6.45 Q-4.05 6.1 -6.25 4.4 -8.75 2.35 -8.5 -0.25 -8.25 -2.9 -5.4 -4.6 -2.9 -6.15 0.3 -6.2 L1.3 -6.15 Q3.55 -6.05 5.4 -5.3 L5.9 -5.05" fill="#fbc115" fill-rule="evenodd" stroke="none"/>
      <path d="M-0.9 6.45 Q-4.7 6.3 -7.15 4.25 -9.6 2.2 -9.2 -0.45 -8.9 -3.15 -5.95 -4.9 -3.4 -6.45 -0.2 -6.5 L1.85 -6.4 Q3.8 -6.15 5.4 -5.3 3.55 -6.05 1.3 -6.15 L0.3 -6.2 Q-2.9 -6.15 -5.4 -4.6 -8.25 -2.9 -8.5 -0.25 -8.75 2.35 -6.25 4.4 -4.05 6.1 -0.9 6.45" fill="#ffffff" fill-rule="evenodd" stroke="none"/>
    </g>
    <radialGradient cx="0" cy="0" gradientTransform="matrix(-3.0E-4, 0.0104, 0.0158, 5.0E-4, 0.65, -4.15)" gradientUnits="userSpaceOnUse" id="gradient5" r="819.2" spreadMethod="pad">
      <stop offset="0.0" stop-color="#000000"/>
      <stop offset="0.5254901960784314" stop-color="#ab280e"/>
      <stop offset="1.0" stop-color="#ff871b"/>
    </radialGradient>
    <g id="shape22">
      <path d="M1.4 -10.35 L2.9 -9.3 Q1.75 0.55 5.75 11.05 L-9.35 11.05 Q-2.55 1.05 -4.1 -9.5 L-1.9 -10.75 Q-1.2 -11.1 0.2 -10.75 L1.4 -10.35" fill="url(#gradient6)" fill-rule="evenodd" stroke="none"/>
    </g>
    <linearGradient gradientTransform="matrix(0.0, 0.0085, -0.0094, -1.0E-4, 0.2, -1.0)" gradientUnits="userSpaceOnUse" id="gradient6" spreadMethod="pad" x1="-819.2" x2="819.2">
      <stop offset="0.0" stop-color="#ff0000"/>
      <stop offset="1.0" stop-color="#ef0000" stop-opacity="0.0"/>
    </linearGradient>
    <g id="shape23">
      <path d="M-23.65 -5.4 Q-26.0 -3.7 -26.15 -1.2 -27.5 12.05 -18.5 11.35 -16.6 11.25 -15.35 9.85 -13.45 7.8 -12.95 2.95 -12.9 1.7 -12.5 0.8 -11.55 -1.75 -8.55 -2.25 -4.5 -2.4 -3.4 1.95 -1.25 9.8 3.5 9.15 6.45 8.8 8.05 7.15 11.2 3.85 8.85 -4.65 7.25 -11.05 -8.65 -9.5 L-9.25 -9.45 -9.8 -9.4 Q-19.75 -8.4 -23.65 -5.4 M8.15 9.8 L7.65 10.05 Q5.55 11.0 2.45 11.05 -2.05 11.1 -4.2 4.4 -5.35 -0.4 -8.3 -0.05 -11.25 0.2 -11.55 5.1 -12.5 12.1 -16.95 12.75 -29.2 15.7 -27.75 -1.35 -27.6 -4.15 -25.15 -6.15 L-24.8 -6.4 Q-20.55 -9.7 -10.0 -10.7 L-9.2 -10.75 -9.15 -10.75 -8.45 -10.85 Q2.0 -11.9 6.8 -9.55 L8.05 -8.85 9.2 -7.85 Q10.2 -6.75 10.6 -5.2 L10.6 -5.1 Q12.55 2.15 11.2 6.15 10.3 8.65 8.15 9.8" fill="#333333" fill-rule="evenodd" stroke="none"/>
      <path d="M11.05 -10.95 L12.25 -10.05 9.2 -7.85 8.05 -8.85 11.05 -10.95" fill="#ff9933" fill-rule="evenodd" stroke="none"/>
      <path d="M-23.65 -5.4 Q-25.25 -3.9 -25.4 -1.9 -26.65 11.35 -17.7 10.6 -16.35 10.55 -15.35 9.85 -16.6 11.25 -18.5 11.35 -27.5 12.05 -26.15 -1.2 -26.0 -3.7 -23.65 -5.4 M-12.5 0.8 Q-11.5 -2.4 -7.7 -3.0 -3.7 -3.1 -2.6 1.3 -0.4 9.15 4.3 8.5 6.6 8.2 8.05 7.15 6.45 8.8 3.5 9.15 -1.25 9.8 -3.4 1.95 -4.5 -2.4 -8.55 -2.25 -11.55 -1.75 -12.5 0.8" fill="#9f9f9f" fill-rule="evenodd" stroke="none"/>
      <path d="M-24.8 -6.4 Q-22.2 -8.55 -19.05 -9.9 -14.65 -11.95 -6.75 -12.7 L-6.0 -12.75 -5.95 -12.75 -5.2 -12.85 Q4.9 -13.85 9.75 -11.7 L6.8 -9.55 Q2.0 -11.9 -8.45 -10.85 L-9.15 -10.75 -9.2 -10.75 -10.0 -10.7 Q-20.55 -9.7 -24.8 -6.4" fill="#ffb871" fill-rule="evenodd" stroke="none"/>
      <path d="M9.75 -11.7 L11.05 -10.95 8.05 -8.85 6.8 -9.55 9.75 -11.7" fill="#ffa851" fill-rule="evenodd" stroke="none"/>
      <path d="M12.25 -10.05 Q13.3 -8.95 13.75 -7.45 L10.6 -5.2 Q10.2 -6.75 9.2 -7.85 L12.25 -10.05" fill="#ff8d1c" fill-rule="evenodd" stroke="none"/>
      <path d="M13.75 -7.45 L13.85 -7.1 Q15.7 -0.2 13.9 4.25 12.5 5.15 11.2 6.15 12.55 2.15 10.6 -5.1 L10.6 -5.2 13.75 -7.45" fill="#f27900" fill-rule="evenodd" stroke="none"/>
      <path d="M13.9 4.25 Q12.35 7.95 8.15 9.8 10.3 8.65 11.2 6.15 12.5 5.15 13.9 4.25" fill="#df7000" fill-rule="evenodd" stroke="none"/>
    </g>
    <g id="shape24">
      <path d="M-6.1 -7.75 L-5.2 -8.2 Q-3.2 0.05 6.2 3.7 L1.15 8.25 -0.75 8.25 4.4 3.7 Q-4.1 0.5 -6.1 -7.75" fill="#666666" fill-rule="evenodd" stroke="none"/>
      <path d="M-6.1 -7.75 Q-4.1 0.5 4.4 3.7 L-0.75 8.25 Q-6.5 7.9 -6.1 1.35 L-6.1 -7.75" fill="#333333" fill-rule="evenodd" stroke="none"/>
    </g>
    <g id="shape25">
      <path d="M-6.35 -5.95 Q-2.5 -5.7 0.45 -6.65 L0.75 -6.75 3.45 -5.75 3.5 -5.7 3.45 -5.7 Q-0.2 -4.2 -3.8 -4.45 L-6.35 -5.95" fill="#ffff99" fill-rule="evenodd" stroke="none"/>
      <path d="M-4.0 7.6 L-6.05 6.65 Q-4.9 0.9 -6.35 -5.95 L-3.8 -4.45 Q-2.05 2.45 -4.0 7.6" fill="#cc9900" fill-rule="evenodd" stroke="none"/>
      <path d="M3.45 -5.7 Q4.9 0.1 3.8 4.75 1.0 6.8 -4.0 7.6 -2.05 2.45 -3.8 -4.45 -0.2 -4.2 3.45 -5.7 M1.6 4.75 L2.2 4.4 Q3.15 0.8 2.25 -3.55 1.05 -2.8 -1.65 -3.0 -0.8 1.8 -1.7 5.6 -0.65 5.65 1.6 4.75" fill="#ffcc00" fill-rule="evenodd" stroke="none"/>
      <path d="M1.6 4.75 Q-0.65 5.65 -1.7 5.6 -0.8 1.8 -1.65 -3.0 1.05 -2.8 2.25 -3.55 3.15 0.8 2.2 4.4 L1.6 4.75" fill="#333333" fill-rule="evenodd" stroke="none"/>
    </g>
  </defs>
</svg>
