<?xml version="1.0" encoding="UTF-8" standalone="no"?>
<svg xmlns:ffdec="https://www.free-decompiler.com/flash" xmlns:xlink="http://www.w3.org/1999/xlink" ffdec:objectType="frame" height="410.0px" width="590.0px" xmlns="http://www.w3.org/2000/svg">
  <g transform="matrix(1.0, 0.0, 0.0, 1.0, 0.0, 0.0)">
    <rect fill="#000000" height="410.0px" width="590.0px"/>
    <use ffdec:characterId="11" height="29.0" transform="matrix(1.0, 0.0, 0.0, 1.0, 186.55, 398.1)" width="168.0" xlink:href="#shape0"/>
    <use ffdec:characterId="10" height="123.0" transform="matrix(-1.0, 0.0, 0.0, 1.0, 252.45, 218.05)" width="207.65" xlink:href="#shape1"/>
    <use ffdec:characterId="1" height="72.6" transform="matrix(0.9659, 0.2588, -0.2588, 0.9659, 160.75, 340.95)" width="163.95" xlink:href="#shape2"/>
    <use ffdec:characterId="2" height="45.75" transform="matrix(-0.9994, 0.0318, 0.0318, 0.9994, 127.4, 366.3)" width="118.4" xlink:href="#shape3"/>
    <use ffdec:characterId="2" height="45.75" transform="matrix(-0.9995, 0.0283, 0.0283, 0.9995, 127.4, 357.3)" width="118.4" xlink:href="#shape4"/>
    <use ffdec:characterId="2" height="45.75" transform="matrix(-0.9998, 0.0134, 0.0134, 0.9998, 127.4, 349.2)" width="118.4" xlink:href="#shape3"/>
    <use ffdec:characterId="2" height="45.75" transform="matrix(-0.9999, 0.0099, 0.0099, 0.9999, 127.4, 341.55)" width="118.4" xlink:href="#shape4"/>
    <use ffdec:characterId="2" height="45.75" transform="matrix(-0.9999, -0.0042, -0.0042, 0.9999, 127.4, 333.45)" width="118.4" xlink:href="#shape3"/>
    <use ffdec:characterId="3" height="52.15" transform="matrix(-1.0, 0.0, 0.0, 1.0, 181.15, 333.7)" width="12.15" xlink:href="#shape5"/>
    <use ffdec:characterId="4" height="112.9" transform="matrix(1.0, 0.0, 0.0, 1.0, 0.0, 0.0)" width="125.95" xlink:href="#shape6"/>
    <use ffdec:characterId="5" height="8.6" transform="matrix(-0.3388, -0.0708, -0.1042, 0.4987, 186.2, 305.95)" width="8.6" xlink:href="#shape7"/>
    <use ffdec:characterId="5" height="8.6" transform="matrix(-0.3388, -0.0708, -0.1042, 0.4987, 186.2, 353.65)" width="8.6" xlink:href="#shape7"/>
    <use ffdec:characterId="5" height="8.6" transform="matrix(-0.5349, -0.0876, -0.1646, 0.6169, 68.95, 339.55)" width="8.6" xlink:href="#shape7"/>
    <use ffdec:characterId="5" height="8.6" transform="matrix(-0.5838, -0.1098, -0.1796, 0.7736, 68.95, 394.4)" width="8.6" xlink:href="#shape7"/>
    <use ffdec:characterId="6" height="122.05" transform="matrix(1.0, 0.0, 0.0, 1.0, 0.0, 0.0)" width="164.05" xlink:href="#shape8"/>
    <use ffdec:characterId="7" height="77.25" transform="matrix(1.0, 0.0, 0.0, 1.0, 107.55, 296.7)" width="164.35" xlink:href="#shape9"/>
    <use ffdec:characterId="13" height="106.9" transform="matrix(1.0, 0.0, 0.0, 1.0, 167.0, 204.95)" width="109.85" xlink:href="#sprite0"/>
    <use ffdec:characterId="8" height="86.75" transform="matrix(1.0, 0.0, 0.0, 1.0, 0.0, 0.0)" width="217.5" xlink:href="#shape11"/>
    <use ffdec:characterId="1" height="72.6" transform="matrix(0.9959, 0.0824, -0.0824, 0.9959, 161.15, 356.5)" width="163.95" xlink:href="#shape2"/>
    <use ffdec:characterId="9" height="33.65" transform="matrix(1.0, 0.0, 0.0, 1.0, 69.55, 376.2)" width="102.25" xlink:href="#shape12"/>
    <use ffdec:characterId="13" height="106.9" transform="matrix(1.0, 0.0, 0.0, 1.0, 159.0, 224.95)" width="109.85" xlink:href="#sprite1"/>
    <use ffdec:characterId="13" height="106.9" transform="matrix(1.0, 0.0, 0.0, 1.0, 132.0, 188.95)" width="109.85" xlink:href="#sprite2"/>
    <use ffdec:characterId="13" height="106.9" transform="matrix(1.0, 0.0, 0.0, 1.0, 172.0, 224.95)" width="109.85" xlink:href="#sprite3"/>
    <use ffdec:characterId="13" height="106.9" transform="matrix(1.0, 0.0, 0.0, 1.0, 164.0, 252.95)" width="109.85" xlink:href="#sprite4"/>
  </g>
  <defs>
    <g id="shape0">
      <path d="M-59.4 -10.25 Q-34.8 -14.5 0.0 -14.5 34.8 -14.5 59.4 -10.25 84.0 -6.0 84.0 0.0 84.0 6.0 59.4 10.25 34.8 14.5 0.0 14.5 -34.8 14.5 -59.4 10.25 -84.0 6.0 -84.0 0.0 -84.0 -6.0 -59.4 -10.25" fill="#333333" fill-opacity="0.21568628" fill-rule="evenodd" stroke="none"/>
    </g>
    <g id="shape1">
      <path d="M-17.65 -16.45 L-3.55 -19.45 3.4 -21.15 Q-6.0 -2.1 -4.95 11.0 -13.0 11.15 -22.35 6.8 -22.85 6.6 -23.3 6.35 -27.75 4.0 -32.25 1.75 -37.0 -0.6 -38.25 -3.35 L-36.7 -3.15 Q-35.6 -2.6 -34.25 -2.6 -31.15 -2.7 -29.05 -3.6 L-28.55 -3.85 Q-24.35 -5.7 -22.8 -9.4 -22.25 -10.7 -22.05 -12.25 L-21.35 -13.1 Q-20.95 -6.85 -15.4 -7.2 L-13.6 -7.45 -9.35 -12.4 Q-14.45 -13.65 -17.65 -16.45 M26.35 -31.65 L28.75 -33.25 Q37.95 -39.8 48.25 -43.3 55.4 14.75 42.7 35.3 L39.65 33.35 Q18.5 18.65 16.65 0.05 19.55 -14.85 26.35 -31.65 M72.4 -46.2 Q77.85 -45.2 83.05 -42.4 87.05 -40.25 90.35 -37.5 114.0 7.0 87.45 27.55 78.5 34.45 70.2 37.4 81.45 11.45 72.4 -46.2" fill="#ef0000" fill-rule="evenodd" stroke="none"/>
      <path d="M3.4 -21.15 Q15.65 -24.65 26.35 -31.65 19.55 -14.85 16.65 0.05 L16.55 -0.05 Q7.3 10.7 -4.95 11.0 -6.0 -2.1 3.4 -21.15 M48.25 -43.3 Q53.65 -45.15 59.4 -46.2 66.05 -47.4 72.4 -46.2 81.45 11.45 70.2 37.4 55.5 42.55 42.7 35.3 55.4 14.75 48.25 -43.3 M29.8 46.25 L29.1 45.8 29.55 45.65 29.8 46.25" fill="#0000db" fill-rule="evenodd" stroke="none"/>
      <path d="M90.35 -37.5 Q99.75 -29.5 102.85 -16.9 107.0 0.5 103.7 18.0 100.45 36.75 85.95 48.05 L82.3 50.6 Q74.25 55.55 64.45 56.15 L53.1 55.75 Q58.55 53.35 62.75 49.0 67.2 44.3 70.2 37.4 78.5 34.45 87.45 27.55 114.0 7.0 90.35 -37.5 M29.1 45.8 Q22.25 40.8 16.95 34.15 L16.6 33.65 16.25 33.2 15.35 32.4 Q13.25 17.6 16.65 0.05 18.5 18.65 39.65 33.35 L42.7 35.3 Q37.65 43.4 29.55 45.65 L29.1 45.8 M-3.9 16.7 L-22.35 6.8 Q-13.0 11.15 -4.95 11.0 -4.75 14.0 -3.9 16.7" fill="#970000" fill-rule="evenodd" stroke="none"/>
      <path d="M53.1 55.75 Q41.7 54.1 31.75 47.6 L29.8 46.25 29.55 45.65 Q37.65 43.4 42.7 35.3 55.5 42.55 70.2 37.4 67.2 44.3 62.75 49.0 58.55 53.35 53.1 55.75 M15.35 32.4 Q5.9 23.6 -3.9 16.7 -4.75 14.0 -4.95 11.0 7.3 10.7 16.55 -0.05 L16.65 0.05 Q13.25 17.6 15.35 32.4" fill="#000066" fill-rule="evenodd" stroke="none"/>
      <path d="M-47.2 -5.6 Q-48.2 -4.95 -49.3 -4.55 L-48.75 -6.05 -47.85 -6.15 -47.2 -5.6 M-54.55 -12.9 L-62.1 -13.2 Q-62.25 -16.4 -60.25 -19.05 L-60.05 -19.3 Q-56.9 -21.55 -50.15 -22.6 -48.5 -22.15 -47.0 -21.0 L-45.45 -19.6 -46.3 -17.8 -46.9 -15.8 Q-48.5 -14.9 -49.15 -13.0 L-51.3 -13.0 -50.75 -13.5 Q-50.1 -14.35 -50.2 -15.4 -50.35 -16.45 -51.2 -17.05 -52.1 -17.7 -53.2 -17.5 -54.35 -17.35 -55.05 -16.5 -55.75 -15.65 -55.6 -14.55 -55.45 -13.55 -54.55 -12.9 M-51.9 -3.95 Q-54.2 -3.75 -56.2 -4.6 L-52.0 -5.6 -52.0 -5.55 -50.8 -5.75 Q-51.3 -4.7 -51.9 -3.95" fill="url(#gradient0)" fill-rule="evenodd" stroke="none"/>
      <path d="M-38.25 -3.35 L-40.35 -3.95 -41.55 -4.5 Q-40.6 -6.6 -40.6 -8.45 -39.15 -4.45 -36.7 -3.15 L-38.25 -3.35 M-41.25 -23.4 Q-29.25 -23.85 -27.85 -18.3 -25.6 -10.3 -28.3 -6.9 L-28.6 -6.5 -28.65 -6.5 Q-30.1 -5.45 -32.4 -5.2 -37.1 -4.5 -39.3 -12.35 L-39.45 -13.0 -37.55 -13.15 Q-36.5 -13.6 -36.05 -14.7 -35.6 -15.85 -36.05 -16.95 -36.5 -18.05 -37.55 -18.5 L-39.6 -18.45 Q-40.65 -17.95 -41.1 -16.85 L-41.3 -15.75 Q-42.55 -16.65 -44.4 -16.6 -45.85 -16.4 -46.9 -15.8 L-46.3 -17.8 -45.45 -19.6 -44.75 -20.6 Q-43.35 -22.4 -41.25 -23.4" fill="url(#gradient1)" fill-rule="evenodd" stroke="none"/>
      <path d="M-82.1 -6.95 Q-83.3 -14.85 -85.3 -18.5 -81.95 -14.05 -64.6 -11.8 L-63.0 -11.6 -62.2 -11.5 -61.9 -11.5 -59.3 -11.2 -61.9 -11.3 -62.2 -11.3 -63.0 -11.3 -64.6 -11.3 Q-76.25 -11.05 -82.1 -6.95 M-51.85 -16.8 Q-51.55 -16.6 -51.5 -16.15 -51.45 -15.8 -51.7 -15.45 -51.95 -15.1 -52.4 -15.05 L-53.15 -15.2 Q-53.5 -15.45 -53.55 -15.85 L-53.35 -16.6 -52.65 -17.0 -51.85 -16.8 M-38.95 -17.75 L-38.35 -17.15 Q-38.2 -16.75 -38.35 -16.3 L-38.95 -15.7 -39.7 -15.65 -40.3 -16.25 Q-40.5 -16.7 -40.3 -17.1 L-39.7 -17.7 -38.95 -17.75" fill="#ffffff" fill-rule="evenodd" stroke="none"/>
      <path d="M-53.95 -12.9 L-54.55 -12.9 Q-55.45 -13.55 -55.6 -14.55 -55.75 -15.65 -55.05 -16.5 -54.35 -17.35 -53.2 -17.5 -52.1 -17.7 -51.2 -17.05 -50.35 -16.45 -50.2 -15.4 -50.1 -14.35 -50.75 -13.5 L-51.3 -13.0 -53.95 -12.9 M-41.3 -15.75 L-41.1 -16.85 Q-40.65 -17.95 -39.6 -18.45 L-37.55 -18.5 Q-36.5 -18.05 -36.05 -16.95 -35.6 -15.85 -36.05 -14.7 -36.5 -13.6 -37.55 -13.15 L-39.45 -13.0 Q-40.1 -14.85 -41.3 -15.75 M-51.85 -16.8 L-52.65 -17.0 -53.35 -16.6 -53.55 -15.85 Q-53.5 -15.45 -53.15 -15.2 L-52.4 -15.05 Q-51.95 -15.1 -51.7 -15.45 -51.45 -15.8 -51.5 -16.15 -51.55 -16.6 -51.85 -16.8 M-38.95 -17.75 L-39.7 -17.7 -40.3 -17.1 Q-40.5 -16.7 -40.3 -16.25 L-39.7 -15.65 -38.95 -15.7 -38.35 -16.3 Q-38.2 -16.75 -38.35 -17.15 L-38.95 -17.75" fill="#000000" fill-rule="evenodd" stroke="none"/>
      <path d="M-40.55 -26.6 L-40.25 -26.65 Q-31.4 -27.3 -27.0 -25.35 L-29.9 -23.2 Q-34.5 -25.45 -44.2 -24.6 L-45.1 -24.5 -45.9 -24.45 -45.95 -24.45 -46.7 -24.35 -48.45 -24.15 Q-57.6 -23.05 -61.5 -20.05 -58.9 -22.2 -55.75 -23.55 -54.2 -24.25 -52.15 -24.8 L-50.1 -25.3 -46.85 -25.9 -44.95 -26.2 -40.65 -26.6 -40.55 -26.6" fill="#ffb871" fill-rule="evenodd" stroke="none"/>
      <path d="M-49.3 -4.55 Q-50.7 -1.35 -53.65 -0.9 -59.35 0.45 -62.05 -2.45 L-61.8 -2.6 -59.95 -3.35 Q-58.15 -2.1 -55.2 -2.35 -53.35 -2.45 -52.05 -3.8 L-51.9 -3.95 Q-51.3 -4.7 -50.8 -5.75 L-48.75 -6.05 -49.3 -4.55 M-64.55 -13.35 L-64.45 -15.0 Q-64.25 -17.8 -61.85 -19.75 L-61.5 -20.05 Q-57.6 -23.05 -48.45 -24.15 L-46.7 -24.35 -45.95 -24.45 -45.9 -24.45 -45.1 -24.5 -44.2 -24.6 Q-34.5 -25.45 -29.9 -23.2 -29.2 -22.9 -28.65 -22.45 L-27.5 -21.5 Q-26.55 -20.45 -26.15 -19.05 L-26.1 -18.85 -26.05 -18.8 -25.2 -14.65 -24.95 -11.2 Q-24.95 -9.1 -25.5 -7.5 -26.4 -5.05 -28.55 -3.85 L-29.05 -3.6 Q-31.15 -2.7 -34.25 -2.6 -35.6 -2.6 -36.7 -3.15 -39.15 -4.45 -40.6 -8.45 -40.65 -10.35 -41.7 -12.0 L-42.05 -12.35 -42.1 -12.35 Q-43.2 -13.65 -43.7 -13.75 L-44.85 -14.05 Q-45.5 -14.3 -48.7 -13.05 L-48.7 -13.0 -49.15 -13.0 Q-48.45 -14.65 -47.0 -15.35 L-45.25 -15.9 Q-41.25 -16.05 -40.1 -11.65 -37.95 -3.8 -33.2 -4.5 -30.4 -4.85 -28.8 -6.3 L-28.65 -6.5 -28.6 -6.5 -28.3 -6.9 Q-25.6 -10.3 -27.85 -18.3 -29.25 -23.85 -41.25 -23.4 L-44.4 -23.2 -45.35 -23.15 -45.95 -23.1 -46.5 -23.05 -47.85 -22.9 -50.15 -22.6 Q-56.9 -21.55 -60.05 -19.3 L-60.35 -19.1 Q-62.7 -17.35 -62.85 -14.85 L-63.0 -13.25 -64.55 -13.35 M-21.65 -20.4 L-21.4 -19.4 Q-21.0 -17.55 -21.0 -15.65 L-21.0 -14.75 -21.3 -14.3 -21.5 -14.05 -21.9 -13.5 -22.85 -12.5 Q-22.75 -15.55 -23.55 -18.65 L-22.5 -19.4 -22.2 -19.65 -21.8 -20.15 -21.65 -20.4 M-21.35 -13.1 L-20.2 -15.05 -20.15 -15.85 -20.25 -17.7 -18.85 -16.15 Q-15.85 -13.3 -11.1 -12.2 L-15.4 -7.2 Q-20.95 -6.85 -21.35 -13.1" fill="#333333" fill-rule="evenodd" stroke="none"/>
      <path d="M-62.2 -13.2 L-63.0 -13.25 -62.85 -14.85 Q-62.7 -17.35 -60.35 -19.1 -61.95 -17.55 -62.05 -15.55 L-62.2 -13.2 M-28.65 -6.5 L-28.8 -6.3 Q-30.4 -4.85 -33.2 -4.5 -37.95 -3.8 -40.1 -11.65 -41.25 -16.05 -45.25 -15.9 L-47.0 -15.35 Q-48.45 -14.65 -49.15 -13.0 -48.5 -14.9 -46.9 -15.8 -45.85 -16.4 -44.4 -16.6 -42.55 -16.65 -41.3 -15.75 -40.1 -14.85 -39.45 -13.0 L-39.3 -12.35 Q-37.1 -4.5 -32.4 -5.2 -30.1 -5.45 -28.65 -6.5 M-58.75 -3.8 Q-57.0 -2.8 -54.4 -3.0 -53.1 -3.1 -52.05 -3.8 -53.35 -2.45 -55.2 -2.35 -58.15 -2.1 -59.95 -3.35 L-58.75 -3.8" fill="#9f9f9f" fill-rule="evenodd" stroke="none"/>
      <path d="M-24.5 -23.7 Q-23.6 -22.8 -23.1 -21.6 -24.4 -20.15 -26.15 -19.05 -26.55 -20.45 -27.5 -21.5 L-24.5 -23.7" fill="#ff8d1c" fill-rule="evenodd" stroke="none"/>
      <path d="M-25.5 -7.5 Q-24.95 -9.1 -24.95 -11.2 L-24.95 -10.25 -23.85 -10.3 -22.05 -12.25 Q-22.25 -10.7 -22.8 -9.4 L-25.5 -7.5" fill="#f27900" fill-rule="evenodd" stroke="none"/>
      <path d="M-27.0 -25.35 L-25.65 -24.65 -28.65 -22.45 Q-29.2 -22.9 -29.9 -23.2 L-27.0 -25.35" fill="#ffa851" fill-rule="evenodd" stroke="none"/>
      <path d="M-25.65 -24.65 L-24.5 -23.7 -27.5 -21.5 -28.65 -22.45 -25.65 -24.65" fill="#ff9933" fill-rule="evenodd" stroke="none"/>
      <path d="M-28.55 -3.85 Q-26.4 -5.05 -25.5 -7.5 L-22.8 -9.4 Q-24.35 -5.7 -28.55 -3.85" fill="#df7000" fill-rule="evenodd" stroke="none"/>
      <path d="M-23.1 -21.6 L-22.85 -21.95 -22.7 -22.15 -21.25 -22.4 -21.25 -22.35 -21.55 -21.95 -22.25 -21.1 -22.4 -20.9 -22.75 -20.5 -24.75 -18.9 -26.15 -19.05 Q-24.4 -20.15 -23.1 -21.6" fill="#ffff99" fill-rule="evenodd" stroke="none"/>
      <path d="M-21.25 -22.35 L-20.6 -20.05 -20.25 -17.7 -20.15 -15.85 -20.2 -15.05 -21.35 -13.1 -22.05 -12.25 -23.85 -10.3 Q-23.3 -14.65 -24.75 -18.9 L-22.75 -20.5 -22.4 -20.9 -22.25 -21.1 -21.55 -21.95 -21.25 -22.35 M-21.65 -20.4 L-21.8 -20.15 -22.2 -19.65 -22.5 -19.4 -23.55 -18.65 Q-22.75 -15.55 -22.85 -12.5 L-21.9 -13.5 -21.5 -14.05 -21.3 -14.3 -21.0 -14.75 -21.0 -15.65 Q-21.0 -17.55 -21.4 -19.4 L-21.65 -20.4" fill="#ffcc00" fill-rule="evenodd" stroke="none"/>
      <path d="M-20.6 -20.05 Q-19.45 -18.0 -17.65 -16.45 -14.45 -13.65 -9.35 -12.4 L-13.6 -7.45 -15.4 -7.2 -11.1 -12.2 Q-15.85 -13.3 -18.85 -16.15 L-20.25 -17.7 -20.6 -20.05" fill="#666666" fill-rule="evenodd" stroke="none"/>
      <path d="M-24.95 -11.2 L-25.2 -14.65 -26.05 -18.8 -26.1 -18.85 -26.15 -19.05 -24.75 -18.9 Q-23.3 -14.65 -23.85 -10.3 L-24.95 -10.25 -24.95 -11.2" fill="#cc9900" fill-rule="evenodd" stroke="none"/>
      <path d="M-87.3 12.95 L-87.4 12.95 -87.55 13.1 Q-89.95 14.6 -92.5 13.8 L-93.95 13.15 -93.9 13.15 Q-99.0 9.35 -101.65 -2.75 L-102.3 -7.0 Q-102.7 -10.25 -102.35 -14.0 L-101.55 -20.05 Q-101.15 -22.4 -99.85 -24.0 -96.5 -28.7 -92.95 -26.85 L-92.25 -26.45 -90.6 -25.15 -90.55 -25.05 Q-87.9 -22.4 -86.3 -17.65 -84.3 -11.55 -83.75 -8.3 -83.3 -5.5 -83.2 -3.35 L-83.2 -2.7 -83.45 3.7 -83.5 4.4 Q-83.8 7.9 -84.85 9.7 L-86.2 11.85 -86.4 12.1 -86.45 12.15 -87.3 12.95 M-88.1 -16.45 L-89.55 -19.95 -89.9 -20.6 Q-91.75 -24.05 -93.6 -25.1 -94.6 -25.65 -95.6 -25.5 -96.6 -25.4 -97.35 -24.65 -98.05 -24.05 -98.55 -23.0 -99.35 -21.55 -99.8 -19.6 L-100.25 -17.5 -100.45 -15.85 -100.6 -12.45 -100.55 -11.15 -100.15 -5.55 -99.9 -3.85 -98.5 2.15 -96.75 6.8 -96.3 7.6 Q-95.15 9.85 -93.95 11.1 -92.3 12.75 -90.6 12.5 -89.6 12.35 -88.8 11.6 -88.1 11.0 -87.55 9.95 L-87.35 9.45 Q-86.75 8.15 -86.3 6.35 L-86.15 5.6 -85.9 3.8 -85.8 3.05 Q-85.6 1.05 -85.55 -1.2 -85.6 -4.15 -86.05 -7.5 -86.7 -12.55 -88.1 -16.45" fill="#fe9a03" fill-rule="evenodd" stroke="none"/>
      <path d="M-85.8 3.05 L-85.9 3.8 -86.15 5.6 -86.3 6.35 Q-86.75 8.15 -87.35 9.45 L-87.55 9.95 Q-88.1 11.0 -88.8 11.6 -89.6 12.35 -90.6 12.5 -92.3 12.75 -93.95 11.1 -95.15 9.85 -96.3 7.6 L-96.75 6.8 -98.5 2.15 -99.9 -3.85 -100.15 -5.55 -100.55 -11.15 -100.6 -12.45 -100.45 -15.85 -100.25 -17.5 -99.8 -19.6 Q-99.35 -21.55 -98.55 -23.0 -98.05 -24.05 -97.35 -24.65 -96.6 -25.4 -95.6 -25.5 -94.6 -25.65 -93.6 -25.1 -91.75 -24.05 -89.9 -20.6 L-89.55 -19.95 -88.1 -16.45 Q-92.75 -5.55 -85.8 3.05" fill="#7a1d05" fill-rule="evenodd" stroke="none"/>
      <path d="M-90.55 -25.05 Q-86.65 -21.4 -81.65 -18.45 L-81.15 -18.05 Q-76.3 -14.45 -64.55 -13.35 L-63.0 -13.25 -62.2 -13.2 -62.1 -13.2 -54.55 -12.9 -53.95 -12.9 -52.95 -9.0 -59.7 -7.05 -61.25 -6.65 -62.25 -6.45 -63.95 -6.05 Q-73.25 -4.0 -83.2 -3.4 L-83.2 -3.35 Q-83.3 -5.5 -83.75 -8.3 -84.3 -11.55 -86.3 -17.65 -87.9 -22.4 -90.55 -25.05 M-82.1 -6.95 Q-76.25 -11.05 -64.6 -11.3 L-63.0 -11.3 -62.2 -11.3 -61.9 -11.3 -59.3 -11.2 -61.9 -11.5 -62.2 -11.5 -63.0 -11.6 -64.6 -11.8 Q-81.95 -14.05 -85.3 -18.5 -83.3 -14.85 -82.1 -6.95" fill="#fcd35a" fill-rule="evenodd" stroke="none"/>
      <path d="M-83.2 -3.35 L-83.2 -3.4 Q-73.25 -4.0 -63.95 -6.05 L-62.25 -6.45 -61.25 -6.65 -59.7 -7.05 -52.95 -9.0 -52.6 -7.8 -58.8 -6.2 -60.7 -5.65 -61.7 -5.3 -63.5 -4.75 Q-74.95 -0.95 -83.5 4.4 L-83.45 3.7 -83.2 -2.7 -83.2 -3.35" fill="#fbc115" fill-rule="evenodd" stroke="none"/>
      <path d="M-85.8 3.05 Q-92.75 -5.55 -88.1 -16.45 -86.7 -12.55 -86.05 -7.5 -85.6 -4.15 -85.55 -1.2 -85.6 1.05 -85.8 3.05" fill="#4b1203" fill-rule="evenodd" stroke="none"/>
      <path d="M-62.05 -2.45 Q-72.45 2.45 -82.35 9.35 L-83.4 10.1 -85.9 11.9 -86.0 11.95 -86.35 12.2 -86.45 12.15 -86.4 12.1 -86.2 11.85 -84.85 9.7 Q-83.8 7.9 -83.5 4.4 -74.95 -0.95 -63.5 -4.75 L-61.7 -5.3 -60.7 -5.65 -58.8 -6.2 -52.6 -7.8 -52.0 -5.6 -56.2 -4.6 -58.75 -3.8 -59.95 -3.35 -61.8 -2.6 -62.05 -2.45" fill="#e98c01" fill-rule="evenodd" stroke="none"/>
      <path d="M-86.35 12.2 L-87.3 12.95 -86.45 12.15 -86.35 12.2" fill="#dc8501" fill-rule="evenodd" stroke="none"/>
      <path d="M-87.5 13.15 L-87.7 13.35 -87.75 13.35 -87.5 13.15" fill="#a83a00" fill-rule="evenodd" stroke="none"/>
      <path d="M-41.55 -4.5 L-41.6 -4.35 -41.6 -4.3 -46.0 -4.4 -47.2 -5.6 -47.85 -6.15 -48.75 -6.05 -50.8 -5.75 -52.0 -5.55 -52.0 -5.6 -52.6 -7.8 -52.95 -9.0 -53.95 -12.9 -51.3 -13.0 -49.15 -13.0 -48.7 -13.0 -48.7 -13.05 Q-45.5 -14.3 -44.85 -14.05 L-43.7 -13.75 Q-43.2 -13.65 -42.1 -12.35 L-42.05 -12.35 -41.7 -12.0 Q-40.65 -10.35 -40.6 -8.45 -40.6 -6.6 -41.55 -4.5" fill="url(#gradient2)" fill-rule="evenodd" stroke="none"/>
      <path d="M1.2 -56.3 Q0.35 -57.25 0.05 -58.55 -0.55 -60.65 0.55 -62.55 1.05 -63.5 1.9 -64.1 2.7 -64.7 3.75 -64.95 5.85 -65.55 7.75 -64.45 9.6 -63.4 10.2 -61.25 10.75 -59.15 9.7 -57.25 8.6 -55.4 6.45 -54.8 4.55 -54.3 2.85 -55.1 L2.95 -55.75 2.6 -56.4 1.85 -56.65 Q1.45 -56.6 1.2 -56.3" fill="url(#gradient3)" fill-rule="evenodd" stroke="none"/>
      <path d="M-23.4 -58.6 L-24.05 -60.15 Q-24.65 -62.25 -23.55 -64.15 -22.5 -66.0 -20.35 -66.55 -18.25 -67.15 -16.35 -66.05 -14.8 -65.15 -14.1 -63.5 L-13.9 -62.85 Q-13.35 -60.75 -14.4 -58.85 -15.5 -57.0 -17.65 -56.4 -19.75 -55.85 -21.65 -56.9 L-22.0 -57.15 -21.95 -57.25 Q-21.75 -57.65 -21.8 -58.0 L-22.25 -58.65 -23.0 -58.75 -23.4 -58.6" fill="url(#gradient4)" fill-rule="evenodd" stroke="none"/>
      <path d="M1.2 -56.3 Q1.45 -56.6 1.85 -56.65 L2.6 -56.4 2.95 -55.75 2.85 -55.1 2.75 -55.0 Q-9.05 -39.9 -40.55 -26.6 L-40.65 -26.6 -44.95 -26.2 -46.85 -25.9 -50.1 -25.3 -52.15 -24.8 -49.85 -26.2 -49.7 -26.3 Q-39.25 -33.5 -23.65 -58.3 L-23.4 -58.6 -23.0 -58.75 -22.25 -58.65 -21.8 -58.0 Q-21.75 -57.65 -21.95 -57.25 L-22.0 -57.15 Q-36.05 -34.8 -46.05 -26.55 L-44.15 -27.3 Q-10.95 -40.85 1.2 -56.25 L1.2 -56.3" fill="#ff0000" fill-rule="evenodd" stroke="none"/>
      <path d="M60.25 -30.9 Q73.55 -33.25 81.55 -31.45 89.55 -29.55 97.65 -20.75 75.2 -61.25 35.1 -27.75 18.75 -14.05 5.7 -12.55 17.1 -9.7 32.05 -19.1 47.0 -28.6 60.25 -30.9" fill="#ffffff" fill-opacity="0.4117647" fill-rule="evenodd" stroke="none"/>
    </g>
    <radialGradient cx="0" cy="0" gradientTransform="matrix(-0.0141, -0.0082, -0.0082, 0.0141, -48.75, -13.6)" gradientUnits="userSpaceOnUse" id="gradient0" r="819.2" spreadMethod="pad">
      <stop offset="0.25098039215686274" stop-color="#ffffff"/>
      <stop offset="0.8549019607843137" stop-color="#8eb5f8"/>
      <stop offset="0.996078431372549" stop-color="#0859d4"/>
    </radialGradient>
    <radialGradient cx="0" cy="0" gradientTransform="matrix(-0.0159, 0.0092, 0.0092, 0.0159, -34.4, -17.85)" gradientUnits="userSpaceOnUse" id="gradient1" r="819.2" spreadMethod="pad">
      <stop offset="0.25098039215686274" stop-color="#ffffff"/>
      <stop offset="0.8549019607843137" stop-color="#8eb5f8"/>
      <stop offset="0.996078431372549" stop-color="#0859d4"/>
    </radialGradient>
    <linearGradient gradientTransform="matrix(-0.0094, 0.0025, 0.0018, 0.0069, -44.8, -9.45)" gradientUnits="userSpaceOnUse" id="gradient2" spreadMethod="pad" x1="-819.2" x2="819.2">
      <stop offset="0.0" stop-color="#ef0000"/>
      <stop offset="1.0" stop-color="#fcd35a"/>
    </linearGradient>
    <radialGradient cx="0" cy="0" gradientTransform="matrix(-0.008, 0.0021, 0.0021, 0.008, 5.65, -61.25)" gradientUnits="userSpaceOnUse" id="gradient3" r="819.2" spreadMethod="pad">
      <stop offset="0.0" stop-color="#fbf6e7"/>
      <stop offset="0.4588235294117647" stop-color="#ffa737"/>
      <stop offset="1.0" stop-color="#b54200"/>
    </radialGradient>
    <radialGradient cx="0" cy="0" gradientTransform="matrix(-0.008, 0.0021, 0.0021, 0.008, -18.45, -62.85)" gradientUnits="userSpaceOnUse" id="gradient4" r="819.2" spreadMethod="pad">
      <stop offset="0.0" stop-color="#fbf6e7"/>
      <stop offset="0.4588235294117647" stop-color="#ffa737"/>
      <stop offset="1.0" stop-color="#b54200"/>
    </radialGradient>
    <g id="shape2">
      <path d="M14.85 -22.0 Q35.75 -48.9 83.25 -21.25 77.5 12.95 34.2 31.1 L34.2 31.15 Q-7.05 47.75 -63.85 20.05 L-63.9 20.0 -75.6 15.75 -80.7 14.0 -80.5 13.0 Q-15.75 17.15 14.85 -22.0" fill="url(#gradient5)" fill-rule="evenodd" stroke="none"/>
    </g>
    <linearGradient gradientTransform="matrix(0.0125, 0.0468, -0.0482, 0.0129, -17.3, 14.1)" gradientUnits="userSpaceOnUse" id="gradient5" spreadMethod="pad" x1="-819.2" x2="819.2">
      <stop offset="0.0" stop-color="#ffffcd"/>
      <stop offset="1.0" stop-color="#ef9f18"/>
    </linearGradient>
    <g id="shape3">
      <path d="M-58.95 -26.8 Q-2.2 -3.5 59.45 7.75 L59.45 18.95 Q-6.4 5.65 -58.95 -16.8 L-58.95 -26.8" fill="#bb6d0f" fill-rule="evenodd" stroke="none"/>
    </g>
    <g id="shape4">
      <path d="M-58.95 -26.8 Q-2.2 -3.5 59.45 7.75 L59.45 18.95 Q-6.4 5.65 -58.95 -16.8 L-58.95 -26.8" fill="#95570c" fill-rule="evenodd" stroke="none"/>
    </g>
    <g id="shape5">
      <path d="M6.35 -22.35 Q7.45 2.9 5.7 25.75 L-5.4 21.05 -5.4 -26.4 6.35 -22.35" fill="#491f05" fill-opacity="0.39607844" fill-rule="evenodd" stroke="none"/>
    </g>
    <g id="shape6">
      <path d="M73.0 385.0 L73.35 389.75 Q144.4 367.7 183.35 350.75 L183.35 350.7 Q183.15 350.45 179.2 348.35 127.0 368.75 73.0 385.0" fill="#f2bd51" fill-rule="evenodd" stroke="none"/>
      <path d="M64.3 344.85 Q63.35 367.6 64.35 392.4 L64.8 401.05 Q105.85 389.55 189.8 356.6 187.05 329.0 189.8 300.0 162.4 311.4 133.25 319.8 100.15 329.3 64.8 335.0 L64.3 344.85 M183.35 350.7 L183.35 350.75 Q144.4 367.7 73.35 389.75 L73.0 385.0 Q71.45 361.65 73.35 342.75 103.45 336.25 133.25 327.3 156.1 320.45 178.75 312.1 L179.3 311.9 183.3 310.45 Q181.6 329.9 183.35 350.7" fill="#ca8c0f" fill-rule="evenodd" stroke="none"/>
      <path d="M79.7 288.15 L79.7 288.5 81.4 288.15 79.7 288.15" fill="#9d670d" fill-rule="evenodd" stroke="none"/>
      <path d="M183.35 350.7 Q181.6 329.9 183.3 310.45 L179.3 311.9 Q178.25 328.8 179.2 348.35 183.15 350.45 183.35 350.7" fill="#664309" fill-rule="evenodd" stroke="none"/>
    </g>
    <g id="shape7">
      <path d="M3.05 -3.05 Q4.3 -1.8 4.3 0.0 4.3 1.8 3.05 3.05 1.8 4.3 0.0 4.3 -1.8 4.3 -3.05 3.05 -4.3 1.8 -4.3 0.0 -4.3 -1.8 -3.05 -3.05 -1.8 -4.3 0.0 -4.3 1.8 -4.3 3.05 -3.05" fill="url(#gradient6)" fill-rule="evenodd" stroke="none"/>
    </g>
    <radialGradient cx="0" cy="0" gradientTransform="matrix(0.0088, 0.0, 0.0, 0.0088, -1.15, -1.0)" gradientUnits="userSpaceOnUse" id="gradient6" r="819.2" spreadMethod="pad">
      <stop offset="0.0" stop-color="#ffffff"/>
      <stop offset="1.0" stop-color="#000000"/>
    </radialGradient>
    <g id="shape8">
      <path d="M133.25 281.7 Q90.15 292.8 34.2 302.55 L39.05 307.25 Q52.2 319.7 67.75 329.7 102.3 324.05 133.25 315.0 152.0 309.5 169.4 302.8 L171.7 301.9 178.1 299.3 Q154.95 292.7 133.25 281.7 M64.8 335.0 Q44.2 319.95 25.75 300.65 59.75 296.0 134.8 279.0 156.7 289.55 189.8 300.0 162.4 311.4 133.25 319.8 100.15 329.3 64.8 335.0" fill="#f2bd51" fill-rule="evenodd" stroke="none"/>
      <path d="M39.05 307.25 L34.2 302.55 Q90.15 292.8 133.25 281.7 L133.25 287.35 Q92.0 297.9 39.05 307.25" fill="#ca8c0f" fill-rule="evenodd" stroke="none"/>
      <path d="M133.25 281.7 Q154.95 292.7 178.1 299.3 L171.7 301.9 169.4 302.8 Q150.25 297.7 133.25 287.35 L133.25 281.7 M33.4 315.5 L32.75 314.8 30.15 311.95 Q31.7 329.55 30.85 352.15 43.9 364.0 59.05 382.6 L58.7 375.75 58.65 375.35 Q57.85 356.95 59.3 340.0 45.55 328.5 33.4 315.5 M64.8 335.0 L64.3 344.85 Q63.35 367.6 64.4 392.4 L64.8 401.05 52.6 384.75 Q42.85 371.95 26.85 355.7 L27.05 345.0 Q27.6 325.7 26.4 308.2 L25.75 300.65 Q44.2 319.95 64.8 335.0" fill="#664309" fill-rule="evenodd" stroke="none"/>
      <path d="M169.4 302.8 Q152.0 309.5 133.25 315.0 L133.25 287.35 Q150.25 297.7 169.4 302.8 M30.85 352.15 Q31.7 329.55 30.15 311.95 L32.75 314.8 33.4 315.5 Q34.65 334.95 33.8 351.5 L30.85 352.15" fill="#402904" fill-rule="evenodd" stroke="none"/>
      <path d="M30.85 352.15 L33.8 351.5 Q47.0 362.4 58.5 375.55 L58.7 375.75 59.05 382.6 Q43.9 364.0 30.85 352.15" fill="#94600c" fill-rule="evenodd" stroke="none"/>
      <path d="M33.8 351.5 Q34.65 334.95 33.4 315.5 45.55 328.5 59.3 340.0 57.85 356.95 58.65 375.35 L58.5 375.55 Q47.0 362.4 33.8 351.5" fill="#6c2e09" fill-rule="evenodd" stroke="none"/>
      <path d="M133.25 315.0 Q102.3 324.05 67.75 329.7 52.2 319.7 39.05 307.25 92.0 297.9 133.25 287.35 L133.25 315.0" fill="#83560c" fill-rule="evenodd" stroke="none"/>
    </g>
    <g id="shape9">
      <path d="M-42.1 21.9 Q19.55 14.65 75.65 -8.9 L74.85 -11.25 81.45 -9.0 82.1 -8.75 82.2 -8.7 Q22.7 17.5 -42.8 25.45 -65.45 10.8 -82.15 -6.05 L-79.25 -6.4 -78.55 -6.65 Q-63.0 8.7 -42.1 21.9" fill="#f2bd51" fill-rule="evenodd" stroke="none"/>
      <path d="M74.85 -11.25 L75.65 -8.9 Q19.55 14.65 -42.1 21.9 -50.0 -3.95 -58.75 -11.4 -62.75 -14.8 -66.95 -14.35 -7.1 -22.65 51.6 -38.6 66.0 -35.9 74.8 -11.5 L74.85 -11.25" fill="#bb6d0f" fill-rule="evenodd" stroke="none"/>
      <path d="M-42.1 21.9 Q-63.0 8.7 -78.55 -6.65 -73.35 -12.85 -68.45 -14.05 L-66.95 -14.35 Q-62.75 -14.8 -58.75 -11.4 -50.0 -3.95 -42.1 21.9" fill="#6c2e09" fill-rule="evenodd" stroke="none"/>
      <path d="M-82.15 -6.05 Q-65.45 10.8 -42.8 25.45 L-42.8 38.65 Q-65.55 22.1 -82.15 3.75 L-82.15 -6.05" fill="#664309" fill-rule="evenodd" stroke="none"/>
      <path d="M-42.8 25.45 Q22.7 17.5 82.2 -8.7 L82.2 3.25 Q62.05 11.8 40.95 18.7 27.7 23.0 14.05 26.65 -13.55 34.0 -42.8 38.65 L-42.8 25.45" fill="#ca8c0f" fill-rule="evenodd" stroke="none"/>
      <path d="M33.0 12.7 L33.0 20.6 Q26.0 23.35 18.45 25.35 19.3 21.85 18.45 16.95 26.1 15.5 33.0 12.7" fill="#cccccc" fill-rule="evenodd" stroke="none"/>
      <path d="M16.9 16.25 Q23.9 14.8 30.4 12.4 L31.45 12.0 33.0 12.7 Q26.1 15.5 18.45 16.95 L16.9 16.25" fill="#999999" fill-rule="evenodd" stroke="none"/>
      <path d="M18.45 25.35 L17.15 24.35 Q18.5 20.8 16.9 16.25 L18.45 16.95 Q19.3 21.85 18.45 25.35" fill="#666666" fill-rule="evenodd" stroke="none"/>
    </g>
    <g id="sprite0">
      <use ffdec:characterId="12" height="14.15" transform="matrix(-0.503, 0.0, 0.0, 0.503, -41.1, -34.05)" width="14.15" xlink:href="#shape10"/>
    </g>
    <g id="shape10">
      <path d="M-4.7 -2.85 Q-3.05 -5.5 0.1 -5.3 -4.45 -2.9 -4.8 2.75 -6.35 -0.3 -4.7 -2.85" fill="#dbe8fb" fill-rule="evenodd" stroke="none"/>
      <path d="M4.45 -4.55 Q6.35 -2.65 6.35 0.05 6.35 2.8 4.45 4.7 2.5 6.6 -0.2 6.65 -1.75 6.65 -3.0 6.05 L-4.85 4.7 Q-6.8 2.8 -6.8 0.05 -6.8 -2.65 -4.85 -4.55 -2.95 -6.5 -0.2 -6.5 L2.2 -6.05 Q3.4 -5.6 4.45 -4.55 Z" ffdec:has-small-stroke="true" ffdec:original-stroke-width="1.0" fill="none" stroke="#dbe8fb" stroke-linecap="round" stroke-linejoin="round" stroke-width="1.988108239291348"/>
    </g>
    <g id="shape11">
      <path d="M-39.2 333.35 L-38.65 332.85 Q8.5 334.75 52.95 350.75 L53.0 350.75 Q87.65 367.35 125.7 372.7 147.15 375.8 167.15 367.9 L167.65 368.0 Q182.0 382.25 177.05 392.6 172.25 402.85 148.4 409.15 53.3 434.0 -38.85 399.8 L-39.2 399.3 -39.2 333.35" fill="url(#gradient7)" fill-rule="evenodd" stroke="none"/>
    </g>
    <linearGradient gradientTransform="matrix(2.0E-4, 0.0605, -0.0401, 1.0E-4, 92.35, 377.75)" gradientUnits="userSpaceOnUse" id="gradient7" spreadMethod="pad" x1="-819.2" x2="819.2">
      <stop offset="0.0" stop-color="#ffffcc"/>
      <stop offset="1.0" stop-color="#ef9c11"/>
    </linearGradient>
    <g id="shape12">
      <path d="M-107.55 -9.7 L-108.55 -9.7 -108.75 -42.85 -108.2 -43.35 Q-61.05 -41.45 -16.6 -25.45 L-16.55 -25.45 -6.5 -20.9 Q-53.85 -27.0 -107.55 -9.7" fill="#333333" fill-opacity="0.31764707" fill-rule="evenodd" stroke="none"/>
    </g>
    <g id="sprite1">
      <use ffdec:characterId="12" height="14.15" transform="matrix(-0.503, 0.0, 0.0, 0.503, -41.1, -34.05)" width="14.15" xlink:href="#shape13"/>
    </g>
    <g id="shape13">
      <path d="M-4.7 -2.85 Q-3.05 -5.5 0.1 -5.3 -4.45 -2.9 -4.8 2.75 -6.35 -0.3 -4.7 -2.85" fill="#dbe8fb" fill-rule="evenodd" stroke="none"/>
      <path d="M4.45 -4.55 Q6.35 -2.65 6.35 0.05 6.35 2.8 4.45 4.7 2.5 6.6 -0.2 6.65 -1.75 6.65 -3.0 6.05 L-4.85 4.7 Q-6.8 2.8 -6.8 0.05 -6.8 -2.65 -4.85 -4.55 -2.95 -6.5 -0.2 -6.5 L2.2 -6.05 Q3.4 -5.6 4.45 -4.55 Z" ffdec:has-small-stroke="true" ffdec:original-stroke-width="1.0" fill="none" stroke="#dbe8fb" stroke-linecap="round" stroke-linejoin="round" stroke-width="1.988108239291348"/>
    </g>
    <g id="sprite2">
      <use ffdec:characterId="12" height="14.15" transform="matrix(-0.503, 0.0, 0.0, 0.503, -41.1, -34.05)" width="14.15" xlink:href="#shape14"/>
    </g>
    <g id="shape14">
      <path d="M-4.7 -2.85 Q-3.05 -5.5 0.1 -5.3 -4.45 -2.9 -4.8 2.75 -6.35 -0.3 -4.7 -2.85" fill="#dbe8fb" fill-rule="evenodd" stroke="none"/>
      <path d="M4.45 -4.55 Q6.35 -2.65 6.35 0.05 6.35 2.8 4.45 4.7 2.5 6.6 -0.2 6.65 -1.75 6.65 -3.0 6.05 L-4.85 4.7 Q-6.8 2.8 -6.8 0.05 -6.8 -2.65 -4.85 -4.55 -2.95 -6.5 -0.2 -6.5 L2.2 -6.05 Q3.4 -5.6 4.45 -4.55 Z" ffdec:has-small-stroke="true" ffdec:original-stroke-width="1.0" fill="none" stroke="#dbe8fb" stroke-linecap="round" stroke-linejoin="round" stroke-width="1.988108239291348"/>
    </g>
    <g id="sprite3">
      <use ffdec:characterId="12" height="14.15" transform="matrix(-0.503, 0.0, 0.0, 0.503, -41.1, -34.05)" width="14.15" xlink:href="#shape15"/>
    </g>
    <g id="shape15">
      <path d="M-4.7 -2.85 Q-3.05 -5.5 0.1 -5.3 -4.45 -2.9 -4.8 2.75 -6.35 -0.3 -4.7 -2.85" fill="#dbe8fb" fill-rule="evenodd" stroke="none"/>
      <path d="M4.45 -4.55 Q6.35 -2.65 6.35 0.05 6.35 2.8 4.45 4.7 2.5 6.6 -0.2 6.65 -1.75 6.65 -3.0 6.05 L-4.85 4.7 Q-6.8 2.8 -6.8 0.05 -6.8 -2.65 -4.85 -4.55 -2.95 -6.5 -0.2 -6.5 L2.2 -6.05 Q3.4 -5.6 4.45 -4.55 Z" ffdec:has-small-stroke="true" ffdec:original-stroke-width="1.0" fill="none" stroke="#dbe8fb" stroke-linecap="round" stroke-linejoin="round" stroke-width="1.988108239291348"/>
    </g>
    <g id="sprite4">
      <use ffdec:characterId="12" height="14.15" transform="matrix(-0.503, 0.0, 0.0, 0.503, -41.1, -34.05)" width="14.15" xlink:href="#shape16"/>
    </g>
    <g id="shape16">
      <path d="M-4.7 -2.85 Q-3.05 -5.5 0.1 -5.3 -4.45 -2.9 -4.8 2.75 -6.35 -0.3 -4.7 -2.85" fill="#dbe8fb" fill-rule="evenodd" stroke="none"/>
      <path d="M4.45 -4.55 Q6.35 -2.65 6.35 0.05 6.35 2.8 4.45 4.7 2.5 6.6 -0.2 6.65 -1.75 6.65 -3.0 6.05 L-4.85 4.7 Q-6.8 2.8 -6.8 0.05 -6.8 -2.65 -4.85 -4.55 -2.95 -6.5 -0.2 -6.5 L2.2 -6.05 Q3.4 -5.6 4.45 -4.55 Z" ffdec:has-small-stroke="true" ffdec:original-stroke-width="1.0" fill="none" stroke="#dbe8fb" stroke-linecap="round" stroke-linejoin="round" stroke-width="1.988108239291348"/>
    </g>
  </defs>
</svg>
