<?xml version="1.0" encoding="UTF-8" standalone="no"?>
<svg xmlns:ffdec="https://www.free-decompiler.com/flash" xmlns:xlink="http://www.w3.org/1999/xlink" ffdec:objectType="frame" height="410.0px" width="590.0px" xmlns="http://www.w3.org/2000/svg">
  <g transform="matrix(1.0, 0.0, 0.0, 1.0, 0.0, 0.0)">
    <rect fill="#000000" height="410.0px" width="590.0px"/>
    <use ffdec:characterId="11" height="29.0" transform="matrix(0.7241, 0.0, 0.0, 0.7241, 290.0, 380.5)" width="168.0" xlink:href="#shape0"/>
    <use ffdec:characterId="19" height="88.7" transform="matrix(1.0, 0.0, 0.0, 1.0, 253.0, 167.15)" width="79.2" xlink:href="#sprite0"/>
    <use ffdec:characterId="64" height="16.7" transform="matrix(0.9415, 0.3504, -0.3386, 0.9319, 201.95, 222.35)" width="141.95" xlink:href="#shape2"/>
    <use ffdec:characterId="64" height="16.7" transform="matrix(-0.8539, 0.528, 0.5146, 0.8468, 354.95, 203.35)" width="141.95" xlink:href="#shape2"/>
    <use ffdec:characterId="20" height="110.15" transform="matrix(-1.2943, 0.2125, 0.2125, 1.2943, 280.1, 264.75)" width="78.95" xlink:href="#shape3"/>
    <use ffdec:characterId="22" height="21.8" transform="matrix(-0.7541, -0.4354, -0.4354, 0.7541, 262.45, 189.8)" width="21.85" xlink:href="#sprite2"/>
    <use ffdec:characterId="22" height="21.8" transform="matrix(-0.8504, 0.491, 0.491, 0.8504, 278.7, 189.3)" width="21.85" xlink:href="#sprite2"/>
    <use ffdec:characterId="1" height="72.6" transform="matrix(0.9659, 0.2588, -0.2588, 0.9659, 160.75, 340.95)" width="163.95" xlink:href="#shape5"/>
    <use ffdec:characterId="2" height="45.75" transform="matrix(-0.9994, 0.0318, 0.0318, 0.9994, 127.4, 366.3)" width="118.4" xlink:href="#shape6"/>
    <use ffdec:characterId="2" height="45.75" transform="matrix(-0.9995, 0.0283, 0.0283, 0.9995, 127.4, 357.3)" width="118.4" xlink:href="#shape7"/>
    <use ffdec:characterId="2" height="45.75" transform="matrix(-0.9998, 0.0134, 0.0134, 0.9998, 127.4, 349.2)" width="118.4" xlink:href="#shape6"/>
    <use ffdec:characterId="2" height="45.75" transform="matrix(-0.9999, 0.0099, 0.0099, 0.9999, 127.4, 341.55)" width="118.4" xlink:href="#shape7"/>
    <use ffdec:characterId="2" height="45.75" transform="matrix(-0.9999, -0.0042, -0.0042, 0.9999, 127.4, 333.45)" width="118.4" xlink:href="#shape6"/>
    <use ffdec:characterId="3" height="52.15" transform="matrix(-1.0, 0.0, 0.0, 1.0, 181.15, 333.7)" width="12.15" xlink:href="#shape8"/>
    <use ffdec:characterId="53" height="112.9" transform="matrix(1.0, 0.0, 0.0, 1.0, 0.0, 0.0)" width="125.95" xlink:href="#shape9"/>
    <use ffdec:characterId="5" height="8.6" transform="matrix(-0.3388, -0.0708, -0.1042, 0.4987, 186.2, 305.95)" width="8.6" xlink:href="#shape10"/>
    <use ffdec:characterId="5" height="8.6" transform="matrix(-0.3388, -0.0708, -0.1042, 0.4987, 186.2, 353.65)" width="8.6" xlink:href="#shape10"/>
    <use ffdec:characterId="5" height="8.6" transform="matrix(-0.5349, -0.0876, -0.1646, 0.6169, 68.95, 339.55)" width="8.6" xlink:href="#shape10"/>
    <use ffdec:characterId="5" height="8.6" transform="matrix(-0.5838, -0.1098, -0.1796, 0.7736, 68.95, 394.4)" width="8.6" xlink:href="#shape10"/>
    <use ffdec:characterId="6" height="122.05" transform="matrix(1.0, 0.0, 0.0, 1.0, 0.0, 0.0)" width="164.05" xlink:href="#shape11"/>
    <use ffdec:characterId="54" height="82.1" transform="matrix(1.0, 0.0, 0.0, 1.0, 89.4, 259.55)" width="138.4" xlink:href="#shape12"/>
    <use ffdec:characterId="8" height="86.75" transform="matrix(1.0, 0.0, 0.0, 1.0, 0.0, 0.0)" width="217.5" xlink:href="#shape13"/>
    <use ffdec:characterId="1" height="72.6" transform="matrix(0.9959, 0.0824, -0.0824, 0.9959, 161.15, 356.5)" width="163.95" xlink:href="#shape5"/>
    <use ffdec:characterId="9" height="33.65" transform="matrix(1.0, 0.0, 0.0, 1.0, 69.55, 376.2)" width="102.25" xlink:href="#shape14"/>
    <use ffdec:characterId="67" height="79.75" transform="matrix(0.4365, -0.223, 0.223, 0.4365, 399.2, 177.3)" width="71.9" xlink:href="#sprite3"/>
    <use ffdec:characterId="67" height="79.75" transform="matrix(0.4365, -0.223, 0.223, 0.4365, 385.5, 193.55)" width="71.9" xlink:href="#sprite3"/>
    <use ffdec:characterId="67" height="79.75" transform="matrix(0.4365, -0.223, 0.223, 0.4365, 373.8, 211.35)" width="71.9" xlink:href="#sprite3"/>
    <use ffdec:characterId="67" height="79.75" transform="matrix(0.4365, -0.223, 0.223, 0.4365, 358.6, 227.1)" width="71.9" xlink:href="#sprite3"/>
    <use ffdec:characterId="67" height="79.75" transform="matrix(0.4365, -0.223, 0.223, 0.4365, 342.9, 242.45)" width="71.9" xlink:href="#sprite3"/>
    <use ffdec:characterId="67" height="79.75" transform="matrix(0.4365, -0.223, 0.223, 0.4365, 327.3, 254.75)" width="71.9" xlink:href="#sprite3"/>
    <use ffdec:characterId="68" height="79.75" transform="matrix(0.4365, -0.223, 0.223, 0.4365, 307.65, 263.7)" width="71.9" xlink:href="#sprite4"/>
    <use ffdec:characterId="67" height="79.75" transform="matrix(0.4657, -0.1539, 0.1539, 0.4657, 287.9, 271.3)" width="71.9" xlink:href="#sprite3"/>
    <use ffdec:characterId="67" height="79.75" transform="matrix(0.4657, -0.1539, 0.1539, 0.4657, 263.75, 272.75)" width="71.9" xlink:href="#sprite3"/>
    <use ffdec:characterId="67" height="79.75" transform="matrix(0.4909, 0.0, 0.0, 0.4909, 240.6, 270.45)" width="71.9" xlink:href="#sprite3"/>
    <use ffdec:characterId="67" height="79.75" transform="matrix(0.4909, 0.0, 0.0, 0.4909, 220.0, 263.1)" width="71.9" xlink:href="#sprite3"/>
    <use ffdec:characterId="67" height="79.75" transform="matrix(0.4909, 0.0, 0.0, 0.4909, 199.9, 251.25)" width="71.9" xlink:href="#sprite3"/>
    <use ffdec:characterId="67" height="79.75" transform="matrix(0.4909, 0.0, 0.0, 0.4909, 182.25, 239.0)" width="71.9" xlink:href="#sprite3"/>
    <use ffdec:characterId="67" height="79.75" transform="matrix(0.4909, 0.0, 0.0, 0.4909, 165.5, 225.2)" width="71.9" xlink:href="#sprite3"/>
    <use ffdec:characterId="67" height="79.75" transform="matrix(0.4909, 0.0, 0.0, 0.4909, 150.25, 209.45)" width="71.9" xlink:href="#sprite3"/>
    <use ffdec:characterId="74" height="23.8" transform="matrix(1.2499, -0.3532, 0.3532, 1.2499, 164.65, 226.65)" width="19.05" xlink:href="#sprite5"/>
    <use ffdec:characterId="69" height="219.4" transform="matrix(0.4909, 0.0, 0.0, 0.4909, 278.15, 236.65)" width="519.8" xlink:href="#shape18"/>
    <use ffdec:characterId="70" height="18.95" transform="matrix(1.0305, 1.2574, -1.2574, 1.0305, 143.4, 186.4)" width="15.9" xlink:href="#shape19"/>
    <use ffdec:characterId="70" height="18.95" transform="matrix(-0.9623, 1.3096, 1.3096, 0.9623, 409.75, 152.4)" width="15.9" xlink:href="#shape19"/>
    <use ffdec:characterId="30" height="11.7" transform="matrix(1.0, 0.0, 0.0, 1.0, 280.0, 189.8)" width="11.8" xlink:href="#sprite6"/>
    <use ffdec:characterId="30" height="11.7" transform="matrix(1.0, 0.0, 0.0, 1.0, 262.0, 189.8)" width="11.8" xlink:href="#sprite6"/>
    <use ffdec:characterId="25" height="26.35" transform="matrix(0.9949, 0.087, -0.087, 0.9949, 278.4, 190.15)" width="42.7" xlink:href="#shape21"/>
    <use ffdec:characterId="26" height="16.45" transform="matrix(0.9574, -0.0413, 0.0413, 0.9574, 299.4, 190.4)" width="12.35" xlink:href="#shape22"/>
    <use ffdec:characterId="27" height="14.35" transform="matrix(0.5255, -0.3093, 0.0221, 0.7128, 292.85, 187.95)" width="10.6" xlink:href="#shape23"/>
    <use ffdec:characterId="39" height="9.65" transform="matrix(3.0634, 0.5552, -0.6228, 2.8643, 266.9, 203.45)" width="9.35" xlink:href="#shape24"/>
    <use ffdec:characterId="40" height="13.0" transform="matrix(3.0634, 0.5552, -0.6228, 2.8643, 260.85, 230.45)" width="18.45" xlink:href="#shape25"/>
    <use ffdec:characterId="71" height="13.15" transform="matrix(1.4814, 0.2685, -0.3012, 1.3851, 272.2, 196.95)" width="7.4" xlink:href="#shape26"/>
  </g>
  <defs>
    <g id="shape0">
      <path d="M-59.4 -10.25 Q-34.8 -14.5 0.0 -14.5 34.8 -14.5 59.4 -10.25 84.0 -6.0 84.0 0.0 84.0 6.0 59.4 10.25 34.8 14.5 0.0 14.5 -34.8 14.5 -59.4 10.25 -84.0 6.0 -84.0 0.0 -84.0 -6.0 -59.4 -10.25" fill="#333333" fill-opacity="0.21568628" fill-rule="evenodd" stroke="none"/>
    </g>
    <g id="sprite0">
      <use ffdec:characterId="14" height="81.2" transform="matrix(1.0, 0.0, 0.0, 1.0, 0.0, 0.0)" width="64.4" xlink:href="#morphshape0"/>
      <use ffdec:characterId="16" height="13.4" transform="matrix(-0.8354, 0.4333, 0.4333, 0.8354, -23.4, -40.75)" width="13.4" xlink:href="#sprite1"/>
      <use ffdec:characterId="16" height="13.4" transform="matrix(-0.8354, 0.4333, 0.4333, 0.8354, 38.8, -52.4)" width="13.4" xlink:href="#sprite1"/>
    </g>
    <g id="morphshape0">
      <path d="M-23.4 -40.75 Q1.95 -31.2 8.25 -3.85 14.5 23.45 18.9 24.15 23.25 24.85 31.75 -0.6 40.2 -26.1 38.8 -52.4" fill="none" stroke="#ff0000" stroke-linecap="round" stroke-linejoin="round" stroke-width="2.0"/>
    </g>
    <g id="sprite1">
      <use ffdec:characterId="15" height="13.4" transform="matrix(1.0, 0.0, 0.0, 1.0, 0.0, 0.0)" width="13.4" xlink:href="#shape1"/>
    </g>
    <g id="shape1">
      <path d="M4.75 -4.75 Q6.7 -2.8 6.7 0.0 6.7 2.8 4.75 4.75 2.8 6.7 0.0 6.7 -2.8 6.7 -4.75 4.75 -6.7 2.8 -6.7 0.0 -6.7 -2.8 -4.75 -4.75 -2.8 -6.7 0.0 -6.7 2.8 -6.7 4.75 -4.75" fill="url(#gradient0)" fill-rule="evenodd" stroke="none"/>
    </g>
    <radialGradient cx="0" cy="0" gradientTransform="matrix(0.0105, 0.0, 0.0, 0.0105, -1.1, -1.5)" gradientUnits="userSpaceOnUse" id="gradient0" r="819.2" spreadMethod="pad">
      <stop offset="0.0" stop-color="#fbf6e7"/>
      <stop offset="0.4588235294117647" stop-color="#ffa737"/>
      <stop offset="1.0" stop-color="#b54200"/>
    </radialGradient>
    <g id="shape2">
      <path d="M71.0 -8.35 L71.0 1.65 Q0.05 15.05 -70.95 1.65 L-70.95 -8.35 Q5.8 3.25 71.0 -8.35" fill="#ef0000" fill-rule="evenodd" stroke="none"/>
    </g>
    <g id="shape3">
      <path d="M7.0 -41.8 Q10.05 -34.45 13.35 -27.15 11.35 -27.95 9.05 -28.3 9.65 -34.45 7.0 -41.8 M24.1 -11.55 L24.65 -10.8 25.3 -10.2 Q30.05 -5.75 33.4 -0.25 L33.25 0.1 Q31.05 6.15 24.55 9.45 L23.3 7.0 Q13.4 -10.0 -0.6 -12.55 12.95 -14.05 24.1 -11.55 M39.45 18.65 Q39.7 22.85 39.05 27.3 38.0 34.7 33.7 40.55 L31.55 43.15 Q22.05 53.45 7.6 54.75 -5.95 56.15 -18.9 51.9 -28.3 48.8 -33.75 41.1 -1.4 61.9 15.9 43.0 21.7 36.65 24.45 30.5 29.9 28.65 33.7 25.55 37.3 22.65 39.45 18.65" fill="#970000" fill-rule="evenodd" stroke="none"/>
      <path d="M9.05 -28.3 Q11.35 -27.95 13.35 -27.15 17.95 -19.25 24.1 -11.55 12.95 -14.05 -0.6 -12.55 L-0.65 -12.65 Q8.05 -19.0 9.05 -28.3 M33.7 0.3 L34.6 1.9 Q38.95 9.9 39.45 18.65 37.3 22.65 33.7 25.55 29.9 28.65 24.45 30.5 29.25 19.65 24.55 9.45 31.05 6.15 33.25 0.1 L33.7 0.3" fill="#000066" fill-rule="evenodd" stroke="none"/>
      <path d="M7.0 -41.8 Q9.65 -34.45 9.05 -28.3 -0.8 -29.9 -15.9 -23.95 -14.95 -26.5 -14.15 -29.15 -11.05 -40.1 -7.25 -50.9 -6.7 -52.55 -5.35 -53.5 0.45 -57.95 3.75 -49.65 L6.7 -42.55 7.0 -41.8 M-33.75 41.1 Q-35.65 38.45 -37.05 35.25 -38.9 31.15 -39.3 26.9 4.0 37.45 24.45 30.5 21.7 36.65 15.9 43.0 -1.4 61.9 -33.75 41.1 M-35.55 8.75 Q-32.25 1.15 -26.7 -5.45 L-25.3 -7.15 Q-12.1 -11.3 -0.6 -12.55 13.4 -10.0 23.3 7.0 L24.55 9.45 Q8.15 17.8 -35.55 8.75" fill="#ef0000" fill-rule="evenodd" stroke="none"/>
      <path d="M33.4 -0.25 L33.7 0.3 33.25 0.1 33.4 -0.25 M-39.3 26.9 Q-39.8 22.05 -38.45 17.05 -37.3 12.75 -35.55 8.75 8.15 17.8 24.55 9.45 29.25 19.65 24.45 30.5 4.0 37.45 -39.3 26.9 M-25.3 -7.15 Q-19.35 -14.85 -15.9 -23.95 -0.8 -29.9 9.05 -28.3 8.05 -19.0 -0.65 -12.65 L-0.6 -12.55 Q-12.1 -11.3 -25.3 -7.15" fill="#0000db" fill-rule="evenodd" stroke="none"/>
      <path d="M24.65 -10.8 L24.95 -10.5 25.3 -10.2 24.65 -10.8" fill="#a803c6" fill-rule="evenodd" stroke="none"/>
      <path d="M-27.3 12.35 Q-29.9 22.3 -29.0 28.5 -28.1 34.7 -21.9 41.45 -51.3 21.8 -23.3 -6.6 -11.85 -18.15 -9.9 -28.0 -8.45 -19.15 -16.55 -8.35 -24.7 2.4 -27.3 12.35" fill="#ffffff" fill-opacity="0.4117647" fill-rule="evenodd" stroke="none"/>
    </g>
    <g id="sprite2">
      <use ffdec:characterId="21" height="21.8" transform="matrix(1.0, 0.0, 0.0, 1.0, 0.0, 0.0)" width="21.85" xlink:href="#shape4"/>
    </g>
    <g id="shape4">
      <path d="M10.85 -1.25 Q11.35 3.2 8.55 6.75 5.75 10.3 1.25 10.8 -3.2 11.3 -6.7 8.55 -10.25 5.7 -10.8 1.25 -11.3 -3.2 -8.5 -6.75 -5.7 -10.3 -1.2 -10.8 3.2 -11.35 6.75 -8.5 10.3 -5.7 10.85 -1.25" fill="url(#gradient1)" fill-rule="evenodd" stroke="none"/>
    </g>
    <radialGradient cx="0" cy="0" gradientTransform="matrix(0.0187, 0.0, 0.0, 0.0187, -3.75, -2.45)" gradientUnits="userSpaceOnUse" id="gradient1" r="819.2" spreadMethod="pad">
      <stop offset="0.25098039215686274" stop-color="#ffffff"/>
      <stop offset="0.8549019607843137" stop-color="#8eb5f8"/>
      <stop offset="0.996078431372549" stop-color="#0859d4"/>
    </radialGradient>
    <g id="shape5">
      <path d="M14.85 -22.0 Q35.75 -48.9 83.25 -21.25 77.5 12.95 34.2 31.1 L34.2 31.15 Q-7.05 47.75 -63.85 20.05 L-63.9 20.0 -75.6 15.75 -80.7 14.0 -80.5 13.0 Q-15.75 17.15 14.85 -22.0" fill="url(#gradient2)" fill-rule="evenodd" stroke="none"/>
    </g>
    <linearGradient gradientTransform="matrix(0.0125, 0.0468, -0.0482, 0.0129, -17.3, 14.1)" gradientUnits="userSpaceOnUse" id="gradient2" spreadMethod="pad" x1="-819.2" x2="819.2">
      <stop offset="0.0" stop-color="#ffffcd"/>
      <stop offset="1.0" stop-color="#ef9f18"/>
    </linearGradient>
    <g id="shape6">
      <path d="M-58.95 -26.8 Q-2.2 -3.5 59.45 7.75 L59.45 18.95 Q-6.4 5.65 -58.95 -16.8 L-58.95 -26.8" fill="#bb6d0f" fill-rule="evenodd" stroke="none"/>
    </g>
    <g id="shape7">
      <path d="M-58.95 -26.8 Q-2.2 -3.5 59.45 7.75 L59.45 18.95 Q-6.4 5.65 -58.95 -16.8 L-58.95 -26.8" fill="#95570c" fill-rule="evenodd" stroke="none"/>
    </g>
    <g id="shape8">
      <path d="M6.35 -22.35 Q7.45 2.9 5.7 25.75 L-5.4 21.05 -5.4 -26.4 6.35 -22.35" fill="#491f05" fill-opacity="0.39607844" fill-rule="evenodd" stroke="none"/>
    </g>
    <g id="shape9">
      <path d="M73.0 385.0 L73.35 389.75 Q144.4 367.7 183.35 350.75 L183.35 350.7 Q183.15 350.45 179.2 348.35 127.0 368.75 73.0 385.0" fill="#f2bd51" fill-rule="evenodd" stroke="none"/>
      <path d="M64.3 344.85 Q63.35 367.6 64.35 392.4 L64.8 401.05 Q105.85 389.55 189.8 356.6 187.05 329.0 189.8 300.0 162.4 311.4 133.25 319.8 100.15 329.3 64.8 335.0 L64.3 344.85 M183.35 350.7 L183.35 350.75 Q144.4 367.7 73.35 389.75 L73.0 385.0 Q71.45 361.65 73.35 342.75 103.45 336.25 133.25 327.3 156.1 320.45 178.75 312.1 L179.3 311.9 183.3 310.45 Q181.6 329.9 183.35 350.7" fill="#ca8c0f" fill-rule="evenodd" stroke="none"/>
      <path d="M79.7 288.15 L79.7 288.5 81.4 288.15 79.7 288.15" fill="#9d670d" fill-rule="evenodd" stroke="none"/>
      <path d="M183.35 350.7 Q181.6 329.9 183.3 310.45 L179.3 311.9 Q178.25 328.8 179.2 348.35 183.15 350.45 183.35 350.7" fill="#664309" fill-rule="evenodd" stroke="none"/>
    </g>
    <g id="shape10">
      <path d="M3.05 -3.05 Q4.3 -1.8 4.3 0.0 4.3 1.8 3.05 3.05 1.8 4.3 0.0 4.3 -1.8 4.3 -3.05 3.05 -4.3 1.8 -4.3 0.0 -4.3 -1.8 -3.05 -3.05 -1.8 -4.3 0.0 -4.3 1.8 -4.3 3.05 -3.05" fill="url(#gradient3)" fill-rule="evenodd" stroke="none"/>
    </g>
    <radialGradient cx="0" cy="0" gradientTransform="matrix(0.0088, 0.0, 0.0, 0.0088, -1.15, -1.0)" gradientUnits="userSpaceOnUse" id="gradient3" r="819.2" spreadMethod="pad">
      <stop offset="0.0" stop-color="#ffffff"/>
      <stop offset="1.0" stop-color="#000000"/>
    </radialGradient>
    <g id="shape11">
      <path d="M133.25 281.7 Q90.15 292.8 34.2 302.55 L39.05 307.25 Q52.2 319.7 67.75 329.7 102.3 324.05 133.25 315.0 152.0 309.5 169.4 302.8 L171.7 301.9 178.1 299.3 Q154.95 292.7 133.25 281.7 M64.8 335.0 Q44.2 319.95 25.75 300.65 59.75 296.0 134.8 279.0 156.7 289.55 189.8 300.0 162.4 311.4 133.25 319.8 100.15 329.3 64.8 335.0" fill="#f2bd51" fill-rule="evenodd" stroke="none"/>
      <path d="M39.05 307.25 L34.2 302.55 Q90.15 292.8 133.25 281.7 L133.25 287.35 Q92.0 297.9 39.05 307.25" fill="#ca8c0f" fill-rule="evenodd" stroke="none"/>
      <path d="M133.25 281.7 Q154.95 292.7 178.1 299.3 L171.7 301.9 169.4 302.8 Q150.25 297.7 133.25 287.35 L133.25 281.7 M33.4 315.5 L32.75 314.8 30.15 311.95 Q31.7 329.55 30.85 352.15 43.9 364.0 59.05 382.6 L58.7 375.75 58.65 375.35 Q57.85 356.95 59.3 340.0 45.55 328.5 33.4 315.5 M64.8 335.0 L64.3 344.85 Q63.35 367.6 64.4 392.4 L64.8 401.05 52.6 384.75 Q42.85 371.95 26.85 355.7 L27.05 345.0 Q27.6 325.7 26.4 308.2 L25.75 300.65 Q44.2 319.95 64.8 335.0" fill="#664309" fill-rule="evenodd" stroke="none"/>
      <path d="M169.4 302.8 Q152.0 309.5 133.25 315.0 L133.25 287.35 Q150.25 297.7 169.4 302.8 M30.85 352.15 Q31.7 329.55 30.15 311.95 L32.75 314.8 33.4 315.5 Q34.65 334.95 33.8 351.5 L30.85 352.15" fill="#402904" fill-rule="evenodd" stroke="none"/>
      <path d="M30.85 352.15 L33.8 351.5 Q47.0 362.4 58.5 375.55 L58.7 375.75 59.05 382.6 Q43.9 364.0 30.85 352.15" fill="#94600c" fill-rule="evenodd" stroke="none"/>
      <path d="M33.8 351.5 Q34.65 334.95 33.4 315.5 45.55 328.5 59.3 340.0 57.85 356.95 58.65 375.35 L58.5 375.55 Q47.0 362.4 33.8 351.5" fill="#6c2e09" fill-rule="evenodd" stroke="none"/>
      <path d="M133.25 315.0 Q102.3 324.05 67.75 329.7 52.2 319.7 39.05 307.25 92.0 297.9 133.25 287.35 L133.25 315.0" fill="#83560c" fill-rule="evenodd" stroke="none"/>
    </g>
    <g id="shape12">
      <path d="M8.65 -27.4 L4.7 -30.6 4.65 -30.6 5.0 -31.7 9.0 -28.45 9.05 -28.45 8.65 -27.4" fill="#454545" fill-rule="evenodd" stroke="none"/>
      <path d="M4.65 -30.6 L4.7 -30.6 8.65 -27.4 -6.9 -25.2 -38.7 -21.25 -42.8 -24.45 -6.9 -28.95 4.65 -30.6 M9.05 -28.45 L9.0 -28.45 9.05 -28.45 M23.9 -29.75 L24.35 -30.8 24.3 -30.8 21.3 -33.15 22.75 -33.4 25.65 -33.85 43.1 -36.85 64.65 -41.05 69.2 -37.95 43.1 -33.0 23.9 -29.75 M38.85 16.9 Q-9.8 28.45 -59.3 36.65 L-57.85 33.7 Q-15.8 26.95 34.3 15.3 L36.25 14.85 38.85 16.9" fill="#f2bd51" fill-rule="evenodd" stroke="none"/>
      <path d="M8.65 -27.4 L9.05 -28.45 24.3 -30.8 24.35 -30.8 23.9 -29.75 8.65 -27.4" fill="#8a8a8a" fill-rule="evenodd" stroke="none"/>
      <path d="M9.0 -28.45 L5.0 -31.7 20.35 -33.9 20.4 -33.9 21.3 -33.15 24.3 -30.8 9.05 -28.45 9.0 -28.45" fill="#c5c5c5" fill-rule="evenodd" stroke="none"/>
      <path d="M-38.7 -21.25 L-6.9 -25.2 8.65 -27.4 23.9 -29.75 43.1 -33.0 69.2 -37.95 Q57.25 -8.85 40.95 19.5 -11.8 32.6 -65.6 41.05 L-63.8 37.3 -62.55 34.65 Q-49.6 7.05 -38.7 -21.25 M48.85 -29.9 L43.1 -28.8 9.25 -23.1 Q-13.35 -19.65 -35.8 -17.35 -45.45 8.15 -57.85 33.7 L-59.3 36.65 Q-9.8 28.45 38.85 16.9 52.25 -7.45 63.7 -32.9 L60.1 -32.15 48.85 -29.9" fill="#9d670d" fill-rule="evenodd" stroke="none"/>
      <path d="M-42.8 -24.45 L-38.7 -21.25 Q-49.6 7.05 -62.55 34.65 L-63.8 37.3 -65.6 41.05 -68.8 38.0 -68.0 36.45 -67.6 35.6 -67.55 35.55 Q-55.0 10.25 -43.95 -21.15 L-43.7 -21.9 -42.8 -24.45 M60.1 -32.15 L63.7 -32.9 Q52.25 -7.45 38.85 16.9 L36.25 14.85 Q49.8 -8.05 60.1 -32.15" fill="#503305" fill-rule="evenodd" stroke="none"/>
      <path d="M-43.7 -21.9 L-43.95 -21.15 Q-55.0 10.25 -67.55 35.55 L-67.6 35.6 -68.0 36.45 -68.1 35.65 Q-71.2 15.3 -65.55 0.05 -59.8 -15.45 -43.7 -21.9" fill="#5a2905" fill-rule="evenodd" stroke="none"/>
      <path d="M-57.85 33.7 Q-45.45 8.15 -35.8 -17.35 -13.35 -19.65 9.25 -23.1 L43.1 -28.8 48.85 -29.9 Q45.6 -27.5 43.1 -24.35 L42.15 -23.1 Q39.8 -19.9 38.2 -16.05 32.6 -2.75 34.3 15.3 -15.8 26.95 -57.85 33.7" fill="url(#gradient4)" fill-rule="evenodd" stroke="none"/>
      <path d="M48.85 -29.9 L60.1 -32.15 Q49.8 -8.05 36.25 14.85 L34.3 15.3 Q32.6 -2.75 38.2 -16.05 39.8 -19.9 42.15 -23.1 L43.1 -24.35 Q45.6 -27.5 48.85 -29.9" fill="#401d04" fill-rule="evenodd" stroke="none"/>
    </g>
    <linearGradient gradientTransform="matrix(-0.0068, -0.0453, -0.0384, 0.0058, -5.05, -4.65)" gradientUnits="userSpaceOnUse" id="gradient4" spreadMethod="pad" x1="-819.2" x2="819.2">
      <stop offset="0.0" stop-color="#d38c16"/>
      <stop offset="1.0" stop-color="#000000"/>
    </linearGradient>
    <g id="shape13">
      <path d="M-39.2 333.35 L-38.65 332.85 Q8.5 334.75 52.95 350.75 L53.0 350.75 Q87.65 367.35 125.7 372.7 147.15 375.8 167.15 367.9 L167.65 368.0 Q182.0 382.25 177.05 392.6 172.25 402.85 148.4 409.15 53.3 434.0 -38.85 399.8 L-39.2 399.3 -39.2 333.35" fill="url(#gradient5)" fill-rule="evenodd" stroke="none"/>
    </g>
    <linearGradient gradientTransform="matrix(2.0E-4, 0.0605, -0.0401, 1.0E-4, 92.35, 377.75)" gradientUnits="userSpaceOnUse" id="gradient5" spreadMethod="pad" x1="-819.2" x2="819.2">
      <stop offset="0.0" stop-color="#ffffcc"/>
      <stop offset="1.0" stop-color="#ef9c11"/>
    </linearGradient>
    <g id="shape14">
      <path d="M-107.55 -9.7 L-108.55 -9.7 -108.75 -42.85 -108.2 -43.35 Q-61.05 -41.45 -16.6 -25.45 L-16.55 -25.45 -6.5 -20.9 Q-53.85 -27.0 -107.55 -9.7" fill="#333333" fill-opacity="0.31764707" fill-rule="evenodd" stroke="none"/>
    </g>
    <g id="sprite3">
      <use ffdec:characterId="65" height="13.15" transform="matrix(4.6943, 1.83, -1.83, 4.6943, -2.95, 4.65)" width="8.3" xlink:href="#shape15"/>
      <use ffdec:characterId="66" height="33.15" transform="matrix(0.9846, 0.3838, -0.4907, 1.2589, 4.85, 3.35)" width="31.8" xlink:href="#shape16"/>
    </g>
    <g id="shape15">
      <path d="M-3.75 -0.2 L-0.45 -7.15 1.35 -0.8 -3.75 -0.2" fill="#009900" fill-rule="evenodd" stroke="none"/>
      <path d="M-0.45 -7.15 L4.55 -1.8 1.35 -0.8 -0.45 -7.15 M1.35 -0.8 L1.4 -0.85 1.35 -0.8" fill="#00ff00" fill-rule="evenodd" stroke="none"/>
      <path d="M1.35 -0.8 L1.4 -0.85 1.35 -0.8" fill="#076317" fill-rule="evenodd" stroke="none"/>
      <path d="M4.55 -1.8 L1.1 6.0 1.35 -0.8 4.55 -1.8" fill="#00cc00" fill-rule="evenodd" stroke="none"/>
      <path d="M1.1 6.0 L-3.75 -0.2 1.35 -0.8 1.1 6.0" fill="#006600" fill-rule="evenodd" stroke="none"/>
    </g>
    <g id="shape16">
      <path d="M7.95 -16.55 L1.1 -0.25 15.9 7.65 0.4 1.6 -7.25 16.6 -1.1 0.85 -15.9 -8.05 -0.65 -0.9 7.95 -16.55" fill="#ffffff" fill-rule="evenodd" stroke="none"/>
    </g>
    <g id="sprite4">
      <use ffdec:characterId="65" height="13.15" transform="matrix(4.6943, 1.83, -1.83, 4.6943, -2.95, 4.65)" width="8.3" xlink:href="#shape15"/>
      <use ffdec:characterId="66" height="33.15" transform="matrix(0.9846, 0.3838, -0.4907, 1.2589, 4.85, 3.35)" width="31.8" xlink:href="#shape16"/>
    </g>
    <g id="sprite5">
      <use ffdec:characterId="73" height="23.8" transform="matrix(0.7977, 0.1587, -0.1587, 0.7977, 0.05, 0.0)" width="18.8" xlink:href="#shape17"/>
    </g>
    <g id="shape17">
      <path d="M0.35 -1.3 Q4.35 -5.95 7.35 -11.85 4.25 -2.35 2.45 0.05 L10.9 5.85 Q2.3 2.4 1.0 2.35 -0.35 2.3 -6.3 11.95 L-1.4 0.1 Q-3.4 -2.55 -7.9 -6.2 -3.35 -3.25 0.35 -1.3" fill="#ffffff" fill-opacity="0.8862745" fill-rule="evenodd" stroke="none"/>
    </g>
    <g id="shape18">
      <path d="M249.5 -167.8 Q246.85 -170.45 243.1 -170.45 239.35 -170.45 236.75 -167.8 234.1 -165.2 234.1 -161.45 234.1 -157.7 236.75 -155.05 239.35 -152.45 243.1 -152.45 246.85 -152.45 249.5 -155.05 252.1 -157.7 252.1 -161.45 252.1 -165.2 249.5 -167.8 M-261.85 -99.35 Q-264.7 -96.5 -264.7 -92.45 -264.7 -88.4 -261.85 -85.55 -259.0 -82.7 -254.95 -82.7 -251.75 -82.7 -249.25 -84.5 -248.65 -84.95 -248.05 -85.55 -245.2 -88.4 -245.2 -92.45 -245.2 -96.5 -248.05 -99.35 -250.9 -102.2 -254.95 -102.2 -259.0 -102.2 -261.85 -99.35 M-249.25 -84.5 Q4.4 206.25 239.85 -151.4" fill="none" stroke="#ffc357" stroke-linecap="round" stroke-linejoin="round" stroke-width="3.0"/>
    </g>
    <g id="shape19">
      <path d="M7.1 -7.45 Q6.45 -4.9 4.05 -3.0 L1.85 -3.15 -1.0 -3.1 3.55 -2.65 5.4 -2.45 8.85 -2.0 Q9.65 -0.5 8.85 1.0 3.8 1.5 -1.15 1.15 2.4 3.25 8.5 2.9 9.35 4.25 8.5 5.45 3.55 5.95 0.05 5.5 2.3 7.6 8.15 7.1 8.6 8.2 8.15 9.5 -0.5 11.65 -3.4 8.1 -7.2 3.45 -2.35 -3.0 L-2.3 -3.1 -2.25 -3.1 -2.2 -3.15 Q1.95 -4.75 5.35 -7.55 L5.4 -7.55 7.1 -7.45" fill="#ef0000" fill-rule="evenodd" stroke="none"/>
      <path d="M7.1 -7.45 L7.95 -6.85 Q8.45 -5.9 7.3 -4.3 L5.85 -2.8 4.05 -3.0 Q6.45 -4.9 7.1 -7.45 M8.85 1.0 Q8.6 1.65 7.65 2.1 3.25 2.5 -1.15 1.15 3.8 1.5 8.85 1.0 M8.5 5.45 L7.65 6.4 Q3.55 6.85 0.05 5.5 3.55 5.95 8.5 5.45 M8.15 9.5 Q6.7 10.85 5.6 11.05 -0.55 12.1 -5.1 9.35 -7.45 5.05 -6.2 -0.1 L-6.2 -0.15 Q-6.15 -0.8 -4.25 -2.25 L-3.4 -2.7 -2.3 -3.1 -2.35 -3.0 Q-7.2 3.45 -3.4 8.1 -0.5 11.65 8.15 9.5" fill="#970000" fill-rule="evenodd" stroke="none"/>
      <path d="M4.05 -3.0 L5.85 -2.8 7.35 -2.6 7.65 -2.55 Q8.15 -2.6 8.85 -2.0 L5.4 -2.45 3.55 -2.65 -1.0 -3.1 1.85 -3.15 4.05 -3.0 M7.65 2.1 Q8.15 2.1 8.5 2.9 2.4 3.25 -1.15 1.15 3.25 2.5 7.65 2.1 M7.65 6.4 L8.15 7.1 Q2.3 7.6 0.05 5.5 3.55 6.85 7.65 6.4" fill="#ff6262" fill-rule="evenodd" stroke="none"/>
    </g>
    <g id="sprite6">
      <use ffdec:characterId="24" height="5.7" transform="matrix(-0.9401, 0.5397, 0.5397, 0.9401, 0.0, 0.0)" width="5.8" xlink:href="#sprite7"/>
    </g>
    <g id="sprite7">
      <use ffdec:characterId="23" height="5.7" transform="matrix(1.0, 0.0, 0.0, 1.0, 0.0, 0.0)" width="5.8" xlink:href="#shape20"/>
    </g>
    <g id="shape20">
      <path d="M0.0 -2.3 Q-0.45 -2.25 -0.7 -1.9 L-0.9 -1.1 Q-0.85 -0.65 -0.45 -0.35 -0.1 -0.05 0.35 -0.1 0.8 -0.15 1.05 -0.45 1.35 -0.85 1.3 -1.3 L0.85 -2.05 0.0 -2.3 M1.65 -2.2 Q2.65 -1.45 2.85 -0.25 3.0 0.95 2.3 1.85 1.6 2.75 0.45 2.85 -0.75 2.95 -1.7 2.25 -2.7 1.45 -2.85 0.25 -3.05 -0.95 -2.3 -1.85 -1.65 -2.75 -0.45 -2.85 0.7 -2.95 1.65 -2.2" fill="#000000" fill-rule="evenodd" stroke="none"/>
      <path d="M0.0 -2.3 L0.85 -2.05 1.3 -1.3 Q1.35 -0.85 1.05 -0.45 0.8 -0.15 0.35 -0.1 -0.1 -0.05 -0.45 -0.35 -0.85 -0.65 -0.9 -1.1 L-0.7 -1.9 Q-0.45 -2.25 0.0 -2.3" fill="#ffffff" fill-rule="evenodd" stroke="none"/>
    </g>
    <g id="shape21">
      <path d="M-23.65 -5.4 Q-26.0 -3.7 -26.15 -1.2 -27.5 12.05 -18.5 11.35 -16.6 11.25 -15.35 9.85 -13.45 7.8 -12.95 2.95 -12.9 1.7 -12.5 0.8 -11.55 -1.75 -8.55 -2.25 -4.5 -2.4 -3.4 1.95 -1.25 9.8 3.5 9.15 6.45 8.8 8.05 7.15 11.2 3.85 8.85 -4.65 7.25 -11.05 -8.65 -9.5 L-9.25 -9.45 -9.8 -9.4 Q-19.75 -8.4 -23.65 -5.4 M8.15 9.8 L7.65 10.05 Q5.55 11.0 2.45 11.05 -2.05 11.1 -4.2 4.4 -5.35 -0.4 -8.3 -0.05 -11.25 0.2 -11.55 5.1 -12.5 12.1 -16.95 12.75 -29.2 15.7 -27.75 -1.35 -27.6 -4.15 -25.15 -6.15 L-24.8 -6.4 Q-20.55 -9.7 -10.0 -10.7 L-9.2 -10.75 -9.15 -10.75 -8.45 -10.85 Q2.0 -11.9 6.8 -9.55 L8.05 -8.85 9.2 -7.85 Q10.2 -6.75 10.6 -5.2 L10.6 -5.1 Q12.55 2.15 11.2 6.15 10.3 8.65 8.15 9.8" fill="#333333" fill-rule="evenodd" stroke="none"/>
      <path d="M11.05 -10.95 L12.25 -10.05 9.2 -7.85 8.05 -8.85 11.05 -10.95" fill="#ff9933" fill-rule="evenodd" stroke="none"/>
      <path d="M-23.65 -5.4 Q-25.25 -3.9 -25.4 -1.9 -26.65 11.35 -17.7 10.6 -16.35 10.55 -15.35 9.85 -16.6 11.25 -18.5 11.35 -27.5 12.05 -26.15 -1.2 -26.0 -3.7 -23.65 -5.4 M-12.5 0.8 Q-11.5 -2.4 -7.7 -3.0 -3.7 -3.1 -2.6 1.3 -0.4 9.15 4.3 8.5 6.6 8.2 8.05 7.15 6.45 8.8 3.5 9.15 -1.25 9.8 -3.4 1.95 -4.5 -2.4 -8.55 -2.25 -11.55 -1.75 -12.5 0.8" fill="#9f9f9f" fill-rule="evenodd" stroke="none"/>
      <path d="M-24.8 -6.4 Q-22.2 -8.55 -19.05 -9.9 -14.65 -11.95 -6.75 -12.7 L-6.0 -12.75 -5.95 -12.75 -5.2 -12.85 Q4.9 -13.85 9.75 -11.7 L6.8 -9.55 Q2.0 -11.9 -8.45 -10.85 L-9.15 -10.75 -9.2 -10.75 -10.0 -10.7 Q-20.55 -9.7 -24.8 -6.4" fill="#ffb871" fill-rule="evenodd" stroke="none"/>
      <path d="M9.75 -11.7 L11.05 -10.95 8.05 -8.85 6.8 -9.55 9.75 -11.7" fill="#ffa851" fill-rule="evenodd" stroke="none"/>
      <path d="M12.25 -10.05 Q13.3 -8.95 13.75 -7.45 L10.6 -5.2 Q10.2 -6.75 9.2 -7.85 L12.25 -10.05" fill="#ff8d1c" fill-rule="evenodd" stroke="none"/>
      <path d="M13.75 -7.45 L13.85 -7.1 Q15.7 -0.2 13.9 4.25 12.5 5.15 11.2 6.15 12.55 2.15 10.6 -5.1 L10.6 -5.2 13.75 -7.45" fill="#f27900" fill-rule="evenodd" stroke="none"/>
      <path d="M13.9 4.25 Q12.35 7.95 8.15 9.8 10.3 8.65 11.2 6.15 12.5 5.15 13.9 4.25" fill="#df7000" fill-rule="evenodd" stroke="none"/>
    </g>
    <g id="shape22">
      <path d="M-6.1 -7.75 L-5.2 -8.2 Q-3.2 0.05 6.2 3.7 L1.15 8.25 -0.75 8.25 4.4 3.7 Q-4.1 0.5 -6.1 -7.75" fill="#666666" fill-rule="evenodd" stroke="none"/>
      <path d="M-6.1 -7.75 Q-4.1 0.5 4.4 3.7 L-0.75 8.25 Q-6.5 7.9 -6.1 1.35 L-6.1 -7.75" fill="#333333" fill-rule="evenodd" stroke="none"/>
    </g>
    <g id="shape23">
      <path d="M-6.35 -5.95 Q-2.5 -5.7 0.45 -6.65 L0.75 -6.75 3.45 -5.75 3.5 -5.7 3.45 -5.7 Q-0.2 -4.2 -3.8 -4.45 L-6.35 -5.95" fill="#ffff99" fill-rule="evenodd" stroke="none"/>
      <path d="M-4.0 7.6 L-6.05 6.65 Q-4.9 0.9 -6.35 -5.95 L-3.8 -4.45 Q-2.05 2.45 -4.0 7.6" fill="#cc9900" fill-rule="evenodd" stroke="none"/>
      <path d="M3.45 -5.7 Q4.9 0.1 3.8 4.75 1.0 6.8 -4.0 7.6 -2.05 2.45 -3.8 -4.45 -0.2 -4.2 3.45 -5.7 M1.6 4.75 L2.2 4.4 Q3.15 0.8 2.25 -3.55 1.05 -2.8 -1.65 -3.0 -0.8 1.8 -1.7 5.6 -0.65 5.65 1.6 4.75" fill="#ffcc00" fill-rule="evenodd" stroke="none"/>
      <path d="M1.6 4.75 Q-0.65 5.65 -1.7 5.6 -0.8 1.8 -1.65 -3.0 1.05 -2.8 2.25 -3.55 3.15 0.8 2.2 4.4 L1.6 4.75" fill="#333333" fill-rule="evenodd" stroke="none"/>
    </g>
    <g id="shape24">
      <path d="M-0.05 -4.8 Q0.7 -4.85 0.75 -4.25 0.2 1.05 2.75 4.1 L0.3 3.85 -0.15 3.9 -3.25 4.3 Q0.3 0.5 -0.5 -4.2 L-0.55 -4.45 -0.05 -4.8" fill="#fbc115" fill-rule="evenodd" stroke="none"/>
      <path d="M-0.05 -4.8 L0.4 -4.85 Q1.4 -4.9 1.4 -4.2 1.05 1.5 4.65 4.7 L3.75 4.35 2.75 4.1 Q0.2 1.05 0.75 -4.25 0.7 -4.85 -0.05 -4.8" fill="#e98c01" fill-rule="evenodd" stroke="none"/>
      <path d="M-3.25 4.3 L-4.7 4.8 Q-0.25 0.45 -0.6 -4.2 L-0.55 -4.45 -0.5 -4.2 Q0.3 0.5 -3.25 4.3" fill="#ffffff" fill-rule="evenodd" stroke="none"/>
    </g>
    <g id="shape25">
      <path d="M0.6 -4.7 Q2.95 -4.55 4.65 -3.45 L5.25 -3.0 Q7.1 -1.45 6.85 0.55 6.55 2.55 4.35 3.9 L2.55 4.7 -0.7 5.05 Q-3.55 4.9 -5.4 3.4 -7.2 1.85 -6.95 -0.2 -6.7 -2.2 -4.5 -3.5 -2.3 -4.85 0.6 -4.7" fill="url(#gradient6)" fill-rule="evenodd" stroke="none"/>
      <path d="M5.4 -5.3 L5.9 -5.05 5.4 -5.3" fill="#ffc357" fill-rule="evenodd" stroke="none"/>
      <path d="M0.6 -4.7 Q-2.3 -4.85 -4.5 -3.5 -6.7 -2.2 -6.95 -0.2 -7.2 1.85 -5.4 3.4 -3.55 4.9 -0.7 5.05 L2.55 4.7 4.35 3.9 Q6.55 2.55 6.85 0.55 7.1 -1.45 5.25 -3.0 L4.65 -3.45 Q2.95 -4.55 0.6 -4.7 M5.9 -5.05 Q6.95 -4.5 7.9 -3.4 L8.55 -2.5 9.0 -1.55 9.2 0.1 9.15 0.5 Q8.75 3.15 5.85 4.95 3.1 6.55 -0.4 6.5 L-0.85 6.45 -0.9 6.45 Q-4.05 6.1 -6.25 4.4 -8.75 2.35 -8.5 -0.25 -8.25 -2.9 -5.4 -4.6 -2.9 -6.15 0.3 -6.2 L1.3 -6.15 Q3.55 -6.05 5.4 -5.3 L5.9 -5.05" fill="#fbc115" fill-rule="evenodd" stroke="none"/>
      <path d="M-0.9 6.45 Q-4.7 6.3 -7.15 4.25 -9.6 2.2 -9.2 -0.45 -8.9 -3.15 -5.95 -4.9 -3.4 -6.45 -0.2 -6.5 L1.85 -6.4 Q3.8 -6.15 5.4 -5.3 3.55 -6.05 1.3 -6.15 L0.3 -6.2 Q-2.9 -6.15 -5.4 -4.6 -8.25 -2.9 -8.5 -0.25 -8.75 2.35 -6.25 4.4 -4.05 6.1 -0.9 6.45" fill="#ffffff" fill-rule="evenodd" stroke="none"/>
    </g>
    <radialGradient cx="0" cy="0" gradientTransform="matrix(-3.0E-4, 0.0104, 0.0158, 5.0E-4, 0.65, -4.15)" gradientUnits="userSpaceOnUse" id="gradient6" r="819.2" spreadMethod="pad">
      <stop offset="0.0" stop-color="#000000"/>
      <stop offset="0.5254901960784314" stop-color="#ab280e"/>
      <stop offset="1.0" stop-color="#ff871b"/>
    </radialGradient>
    <g id="shape26">
      <path d="M-5.45 -6.4 L-5.45 -6.45 -5.35 -6.45 -5.45 -6.4" fill="#fcd35a" fill-rule="evenodd" stroke="none"/>
      <path d="M-0.05 -4.45 L0.45 -3.75 Q-0.15 0.35 1.45 6.7 L-5.95 6.7 Q-3.2 -0.45 -3.75 -3.7 L-3.8 -3.9 -3.75 -3.8 -2.75 -4.35 -1.35 -4.75 -0.05 -4.45" fill="url(#gradient7)" fill-rule="evenodd" stroke="none"/>
      <path d="M-3.8 -3.9 Q-4.05 -4.2 -2.85 -4.7 L-0.85 -4.85 -0.05 -4.45 -1.35 -4.75 -2.75 -4.35 -3.75 -3.8 -3.8 -3.9" fill="url(#gradient8)" fill-rule="evenodd" stroke="none"/>
    </g>
    <linearGradient gradientTransform="matrix(0.0, 0.0055, -0.0083, 0.0, -1.95, -1.0)" gradientUnits="userSpaceOnUse" id="gradient7" spreadMethod="pad" x1="-819.2" x2="819.2">
      <stop offset="0.0" stop-color="#ff0000"/>
      <stop offset="1.0" stop-color="#ef0000" stop-opacity="0.0"/>
    </linearGradient>
    <linearGradient gradientTransform="matrix(0.0, 0.0055, -0.0083, 0.0, -2.05, -1.35)" gradientUnits="userSpaceOnUse" id="gradient8" spreadMethod="pad" x1="-819.2" x2="819.2">
      <stop offset="0.0" stop-color="#ff0000"/>
      <stop offset="1.0" stop-color="#ef0000" stop-opacity="0.0"/>
    </linearGradient>
  </defs>
</svg>
