<?xml version="1.0" encoding="UTF-8" standalone="no"?>
<svg xmlns:ffdec="https://www.free-decompiler.com/flash" xmlns:xlink="http://www.w3.org/1999/xlink" ffdec:objectType="frame" height="410.0px" width="590.0px" xmlns="http://www.w3.org/2000/svg">
  <g transform="matrix(1.0, 0.0, 0.0, 1.0, 0.0, 0.0)">
    <rect fill="#000000" height="410.0px" width="590.0px"/>
    <use ffdec:characterId="1" height="72.6" transform="matrix(0.9659, 0.2588, -0.2588, 0.9659, 160.75, 340.95)" width="163.95" xlink:href="#shape0"/>
    <use ffdec:characterId="2" height="45.75" transform="matrix(-0.9994, 0.0318, 0.0318, 0.9994, 127.4, 366.3)" width="118.4" xlink:href="#shape1"/>
    <use ffdec:characterId="2" height="45.75" transform="matrix(-0.9995, 0.0283, 0.0283, 0.9995, 127.4, 357.3)" width="118.4" xlink:href="#shape2"/>
    <use ffdec:characterId="2" height="45.75" transform="matrix(-0.9998, 0.0134, 0.0134, 0.9998, 127.4, 349.2)" width="118.4" xlink:href="#shape1"/>
    <use ffdec:characterId="2" height="45.75" transform="matrix(-0.9999, 0.0099, 0.0099, 0.9999, 127.4, 341.55)" width="118.4" xlink:href="#shape2"/>
    <use ffdec:characterId="2" height="45.75" transform="matrix(-0.9999, -0.0042, -0.0042, 0.9999, 127.4, 333.45)" width="118.4" xlink:href="#shape1"/>
    <use ffdec:characterId="3" height="52.15" transform="matrix(-1.0, 0.0, 0.0, 1.0, 181.15, 333.7)" width="12.15" xlink:href="#shape3"/>
    <use ffdec:characterId="4" height="112.9" transform="matrix(1.0, 0.0, 0.0, 1.0, 0.0, 0.0)" width="125.95" xlink:href="#shape4"/>
    <use ffdec:characterId="5" height="8.6" transform="matrix(-0.3388, -0.0708, -0.1042, 0.4987, 186.2, 305.95)" width="8.6" xlink:href="#shape5"/>
    <use ffdec:characterId="5" height="8.6" transform="matrix(-0.3388, -0.0708, -0.1042, 0.4987, 186.2, 353.65)" width="8.6" xlink:href="#shape5"/>
    <use ffdec:characterId="5" height="8.6" transform="matrix(-0.5349, -0.0876, -0.1646, 0.6169, 68.95, 339.55)" width="8.6" xlink:href="#shape5"/>
    <use ffdec:characterId="5" height="8.6" transform="matrix(-0.5838, -0.1098, -0.1796, 0.7736, 68.95, 394.4)" width="8.6" xlink:href="#shape5"/>
    <use ffdec:characterId="6" height="122.05" transform="matrix(1.0, 0.0, 0.0, 1.0, 0.0, 0.0)" width="164.05" xlink:href="#shape6"/>
    <use ffdec:characterId="7" height="77.25" transform="matrix(1.0, 0.0, 0.0, 1.0, 107.55, 296.7)" width="164.35" xlink:href="#shape7"/>
    <use ffdec:characterId="8" height="86.75" transform="matrix(1.0, 0.0, 0.0, 1.0, 0.0, 0.0)" width="217.5" xlink:href="#shape8"/>
    <use ffdec:characterId="1" height="72.6" transform="matrix(0.9959, 0.0824, -0.0824, 0.9959, 161.15, 356.5)" width="163.95" xlink:href="#shape0"/>
    <use ffdec:characterId="9" height="33.65" transform="matrix(1.0, 0.0, 0.0, 1.0, 69.55, 376.2)" width="102.25" xlink:href="#shape9"/>
  </g>
  <defs>
    <g id="shape0">
      <path d="M14.85 -22.0 Q35.75 -48.9 83.25 -21.25 77.5 12.95 34.2 31.1 L34.2 31.15 Q-7.05 47.75 -63.85 20.05 L-63.9 20.0 -75.6 15.75 -80.7 14.0 -80.5 13.0 Q-15.75 17.15 14.85 -22.0" fill="url(#gradient0)" fill-rule="evenodd" stroke="none"/>
    </g>
    <linearGradient gradientTransform="matrix(0.0125, 0.0468, -0.0482, 0.0129, -17.3, 14.1)" gradientUnits="userSpaceOnUse" id="gradient0" spreadMethod="pad" x1="-819.2" x2="819.2">
      <stop offset="0.0" stop-color="#ffffcd"/>
      <stop offset="1.0" stop-color="#ef9f18"/>
    </linearGradient>
    <g id="shape1">
      <path d="M-58.95 -26.8 Q-2.2 -3.5 59.45 7.75 L59.45 18.95 Q-6.4 5.65 -58.95 -16.8 L-58.95 -26.8" fill="#bb6d0f" fill-rule="evenodd" stroke="none"/>
    </g>
    <g id="shape2">
      <path d="M-58.95 -26.8 Q-2.2 -3.5 59.45 7.75 L59.45 18.95 Q-6.4 5.65 -58.95 -16.8 L-58.95 -26.8" fill="#95570c" fill-rule="evenodd" stroke="none"/>
    </g>
    <g id="shape3">
      <path d="M6.35 -22.35 Q7.45 2.9 5.7 25.75 L-5.4 21.05 -5.4 -26.4 6.35 -22.35" fill="#491f05" fill-opacity="0.39607844" fill-rule="evenodd" stroke="none"/>
    </g>
    <g id="shape4">
      <path d="M73.0 385.0 L73.35 389.75 Q144.4 367.7 183.35 350.75 L183.35 350.7 Q183.15 350.45 179.2 348.35 127.0 368.75 73.0 385.0" fill="#f2bd51" fill-rule="evenodd" stroke="none"/>
      <path d="M64.3 344.85 Q63.35 367.6 64.35 392.4 L64.8 401.05 Q105.85 389.55 189.8 356.6 187.05 329.0 189.8 300.0 162.4 311.4 133.25 319.8 100.15 329.3 64.8 335.0 L64.3 344.85 M183.35 350.7 L183.35 350.75 Q144.4 367.7 73.35 389.75 L73.0 385.0 Q71.45 361.65 73.35 342.75 103.45 336.25 133.25 327.3 156.1 320.45 178.75 312.1 L179.3 311.9 183.3 310.45 Q181.6 329.9 183.35 350.7" fill="#ca8c0f" fill-rule="evenodd" stroke="none"/>
      <path d="M79.7 288.15 L79.7 288.5 81.4 288.15 79.7 288.15" fill="#9d670d" fill-rule="evenodd" stroke="none"/>
      <path d="M183.35 350.7 Q181.6 329.9 183.3 310.45 L179.3 311.9 Q178.25 328.8 179.2 348.35 183.15 350.45 183.35 350.7" fill="#664309" fill-rule="evenodd" stroke="none"/>
    </g>
    <g id="shape5">
      <path d="M3.05 -3.05 Q4.3 -1.8 4.3 0.0 4.3 1.8 3.05 3.05 1.8 4.3 0.0 4.3 -1.8 4.3 -3.05 3.05 -4.3 1.8 -4.3 0.0 -4.3 -1.8 -3.05 -3.05 -1.8 -4.3 0.0 -4.3 1.8 -4.3 3.05 -3.05" fill="url(#gradient1)" fill-rule="evenodd" stroke="none"/>
    </g>
    <radialGradient cx="0" cy="0" gradientTransform="matrix(0.0088, 0.0, 0.0, 0.0088, -1.15, -1.0)" gradientUnits="userSpaceOnUse" id="gradient1" r="819.2" spreadMethod="pad">
      <stop offset="0.0" stop-color="#ffffff"/>
      <stop offset="1.0" stop-color="#000000"/>
    </radialGradient>
    <g id="shape6">
      <path d="M133.25 281.7 Q90.15 292.8 34.2 302.55 L39.05 307.25 Q52.2 319.7 67.75 329.7 102.3 324.05 133.25 315.0 152.0 309.5 169.4 302.8 L171.7 301.9 178.1 299.3 Q154.95 292.7 133.25 281.7 M64.8 335.0 Q44.2 319.95 25.75 300.65 59.75 296.0 134.8 279.0 156.7 289.55 189.8 300.0 162.4 311.4 133.25 319.8 100.15 329.3 64.8 335.0" fill="#f2bd51" fill-rule="evenodd" stroke="none"/>
      <path d="M39.05 307.25 L34.2 302.55 Q90.15 292.8 133.25 281.7 L133.25 287.35 Q92.0 297.9 39.05 307.25" fill="#ca8c0f" fill-rule="evenodd" stroke="none"/>
      <path d="M133.25 281.7 Q154.95 292.7 178.1 299.3 L171.7 301.9 169.4 302.8 Q150.25 297.7 133.25 287.35 L133.25 281.7 M33.4 315.5 L32.75 314.8 30.15 311.95 Q31.7 329.55 30.85 352.15 43.9 364.0 59.05 382.6 L58.7 375.75 58.65 375.35 Q57.85 356.95 59.3 340.0 45.55 328.5 33.4 315.5 M64.8 335.0 L64.3 344.85 Q63.35 367.6 64.4 392.4 L64.8 401.05 52.6 384.75 Q42.85 371.95 26.85 355.7 L27.05 345.0 Q27.6 325.7 26.4 308.2 L25.75 300.65 Q44.2 319.95 64.8 335.0" fill="#664309" fill-rule="evenodd" stroke="none"/>
      <path d="M169.4 302.8 Q152.0 309.5 133.25 315.0 L133.25 287.35 Q150.25 297.7 169.4 302.8 M30.85 352.15 Q31.7 329.55 30.15 311.95 L32.75 314.8 33.4 315.5 Q34.65 334.95 33.8 351.5 L30.85 352.15" fill="#402904" fill-rule="evenodd" stroke="none"/>
      <path d="M30.85 352.15 L33.8 351.5 Q47.0 362.4 58.5 375.55 L58.7 375.75 59.05 382.6 Q43.9 364.0 30.85 352.15" fill="#94600c" fill-rule="evenodd" stroke="none"/>
      <path d="M33.8 351.5 Q34.65 334.95 33.4 315.5 45.55 328.5 59.3 340.0 57.85 356.95 58.65 375.35 L58.5 375.55 Q47.0 362.4 33.8 351.5" fill="#6c2e09" fill-rule="evenodd" stroke="none"/>
      <path d="M133.25 315.0 Q102.3 324.05 67.75 329.7 52.2 319.7 39.05 307.25 92.0 297.9 133.25 287.35 L133.25 315.0" fill="#83560c" fill-rule="evenodd" stroke="none"/>
    </g>
    <g id="shape7">
      <path d="M-42.1 21.9 Q19.55 14.65 75.65 -8.9 L74.85 -11.25 81.45 -9.0 82.1 -8.75 82.2 -8.7 Q22.7 17.5 -42.8 25.45 -65.45 10.8 -82.15 -6.05 L-79.25 -6.4 -78.55 -6.65 Q-63.0 8.7 -42.1 21.9" fill="#f2bd51" fill-rule="evenodd" stroke="none"/>
      <path d="M74.85 -11.25 L75.65 -8.9 Q19.55 14.65 -42.1 21.9 -50.0 -3.95 -58.75 -11.4 -62.75 -14.8 -66.95 -14.35 -7.1 -22.65 51.6 -38.6 66.0 -35.9 74.8 -11.5 L74.85 -11.25" fill="#bb6d0f" fill-rule="evenodd" stroke="none"/>
      <path d="M-42.1 21.9 Q-63.0 8.7 -78.55 -6.65 -73.35 -12.85 -68.45 -14.05 L-66.95 -14.35 Q-62.75 -14.8 -58.75 -11.4 -50.0 -3.95 -42.1 21.9" fill="#6c2e09" fill-rule="evenodd" stroke="none"/>
      <path d="M-82.15 -6.05 Q-65.45 10.8 -42.8 25.45 L-42.8 38.65 Q-65.55 22.1 -82.15 3.75 L-82.15 -6.05" fill="#664309" fill-rule="evenodd" stroke="none"/>
      <path d="M-42.8 25.45 Q22.7 17.5 82.2 -8.7 L82.2 3.25 Q62.05 11.8 40.95 18.7 27.7 23.0 14.05 26.65 -13.55 34.0 -42.8 38.65 L-42.8 25.45" fill="#ca8c0f" fill-rule="evenodd" stroke="none"/>
      <path d="M33.0 12.7 L33.0 20.6 Q26.0 23.35 18.45 25.35 19.3 21.85 18.45 16.95 26.1 15.5 33.0 12.7" fill="#cccccc" fill-rule="evenodd" stroke="none"/>
      <path d="M16.9 16.25 Q23.9 14.8 30.4 12.4 L31.45 12.0 33.0 12.7 Q26.1 15.5 18.45 16.95 L16.9 16.25" fill="#999999" fill-rule="evenodd" stroke="none"/>
      <path d="M18.45 25.35 L17.15 24.35 Q18.5 20.8 16.9 16.25 L18.45 16.95 Q19.3 21.85 18.45 25.35" fill="#666666" fill-rule="evenodd" stroke="none"/>
    </g>
    <g id="shape8">
      <path d="M-39.2 333.35 L-38.65 332.85 Q8.5 334.75 52.95 350.75 L53.0 350.75 Q87.65 367.35 125.7 372.7 147.15 375.8 167.15 367.9 L167.65 368.0 Q182.0 382.25 177.05 392.6 172.25 402.85 148.4 409.15 53.3 434.0 -38.85 399.8 L-39.2 399.3 -39.2 333.35" fill="url(#gradient2)" fill-rule="evenodd" stroke="none"/>
    </g>
    <linearGradient gradientTransform="matrix(2.0E-4, 0.0605, -0.0401, 1.0E-4, 92.35, 377.75)" gradientUnits="userSpaceOnUse" id="gradient2" spreadMethod="pad" x1="-819.2" x2="819.2">
      <stop offset="0.0" stop-color="#ffffcc"/>
      <stop offset="1.0" stop-color="#ef9c11"/>
    </linearGradient>
    <g id="shape9">
      <path d="M-107.55 -9.7 L-108.55 -9.7 -108.75 -42.85 -108.2 -43.35 Q-61.05 -41.45 -16.6 -25.45 L-16.55 -25.45 -6.5 -20.9 Q-53.85 -27.0 -107.55 -9.7" fill="#333333" fill-opacity="0.31764707" fill-rule="evenodd" stroke="none"/>
    </g>
  </defs>
</svg>
