<?xml version="1.0" encoding="UTF-8" standalone="no"?>
<svg xmlns:ffdec="https://www.free-decompiler.com/flash" xmlns:xlink="http://www.w3.org/1999/xlink" ffdec:objectType="frame" height="410.0px" width="590.0px" xmlns="http://www.w3.org/2000/svg">
  <g transform="matrix(1.0, 0.0, 0.0, 1.0, 0.0, 0.0)">
    <rect fill="#000000" height="410.0px" width="590.0px"/>
    <use ffdec:characterId="11" height="29.0" transform="matrix(0.7241, 0.0, 0.0, 0.7241, 290.0, 380.5)" width="168.0" xlink:href="#shape0"/>
    <use ffdec:characterId="19" height="88.7" transform="matrix(1.0, 0.0, 0.0, 1.0, 250.0, 160.15)" width="79.2" xlink:href="#sprite0"/>
    <use ffdec:characterId="20" height="110.15" transform="matrix(-1.2943, 0.2125, 0.2125, 1.2943, 280.1, 264.75)" width="78.95" xlink:href="#shape3"/>
    <use ffdec:characterId="22" height="21.8" transform="matrix(-0.7541, -0.4354, -0.4354, 0.7541, 262.45, 189.8)" width="21.85" xlink:href="#sprite2"/>
    <use ffdec:characterId="22" height="21.8" transform="matrix(-0.8504, 0.491, 0.491, 0.8504, 278.7, 189.3)" width="21.85" xlink:href="#sprite2"/>
    <use ffdec:characterId="1" height="72.6" transform="matrix(0.9659, 0.2588, -0.2588, 0.9659, 160.75, 340.95)" width="163.95" xlink:href="#shape5"/>
    <use ffdec:characterId="2" height="45.75" transform="matrix(-0.9994, 0.0318, 0.0318, 0.9994, 127.4, 366.3)" width="118.4" xlink:href="#shape6"/>
    <use ffdec:characterId="2" height="45.75" transform="matrix(-0.9995, 0.0283, 0.0283, 0.9995, 127.4, 357.3)" width="118.4" xlink:href="#shape7"/>
    <use ffdec:characterId="2" height="45.75" transform="matrix(-0.9998, 0.0134, 0.0134, 0.9998, 127.4, 349.2)" width="118.4" xlink:href="#shape6"/>
    <use ffdec:characterId="2" height="45.75" transform="matrix(-0.9999, 0.0099, 0.0099, 0.9999, 127.4, 341.55)" width="118.4" xlink:href="#shape7"/>
    <use ffdec:characterId="2" height="45.75" transform="matrix(-0.9999, -0.0042, -0.0042, 0.9999, 127.4, 333.45)" width="118.4" xlink:href="#shape6"/>
    <use ffdec:characterId="3" height="52.15" transform="matrix(-1.0, 0.0, 0.0, 1.0, 181.15, 333.7)" width="12.15" xlink:href="#shape8"/>
    <use ffdec:characterId="4" height="112.9" transform="matrix(1.0, 0.0, 0.0, 1.0, 0.0, 0.0)" width="125.95" xlink:href="#shape9"/>
    <use ffdec:characterId="5" height="8.6" transform="matrix(-0.3388, -0.0708, -0.1042, 0.4987, 186.2, 305.95)" width="8.6" xlink:href="#shape10"/>
    <use ffdec:characterId="5" height="8.6" transform="matrix(-0.3388, -0.0708, -0.1042, 0.4987, 186.2, 353.65)" width="8.6" xlink:href="#shape10"/>
    <use ffdec:characterId="5" height="8.6" transform="matrix(-0.5349, -0.0876, -0.1646, 0.6169, 68.95, 339.55)" width="8.6" xlink:href="#shape10"/>
    <use ffdec:characterId="5" height="8.6" transform="matrix(-0.5838, -0.1098, -0.1796, 0.7736, 68.95, 394.4)" width="8.6" xlink:href="#shape10"/>
    <use ffdec:characterId="6" height="122.05" transform="matrix(1.0, 0.0, 0.0, 1.0, 0.0, 0.0)" width="164.05" xlink:href="#shape11"/>
    <use ffdec:characterId="7" height="77.25" transform="matrix(1.0, 0.0, 0.0, 1.0, 107.55, 296.7)" width="164.35" xlink:href="#shape12"/>
    <use ffdec:characterId="8" height="86.75" transform="matrix(1.0, 0.0, 0.0, 1.0, 0.0, 0.0)" width="217.5" xlink:href="#shape13"/>
    <use ffdec:characterId="1" height="72.6" transform="matrix(0.9959, 0.0824, -0.0824, 0.9959, 161.15, 356.5)" width="163.95" xlink:href="#shape5"/>
    <use ffdec:characterId="9" height="33.65" transform="matrix(1.0, 0.0, 0.0, 1.0, 69.55, 376.2)" width="102.25" xlink:href="#shape14"/>
    <use ffdec:characterId="24" height="5.7" transform="matrix(-0.8504, 0.491, 0.491, 0.8504, 277.0, 190.8)" width="5.8" xlink:href="#sprite3"/>
    <use ffdec:characterId="24" height="5.7" transform="matrix(-0.8504, 0.491, 0.491, 0.8504, 257.0, 191.8)" width="5.8" xlink:href="#sprite3"/>
    <use ffdec:characterId="25" height="26.35" transform="matrix(1.0, 0.0, 0.0, 1.0, 278.4, 189.55)" width="42.7" xlink:href="#shape16"/>
    <use ffdec:characterId="26" height="16.45" transform="matrix(0.9514, -0.1247, 0.1247, 0.9514, 299.35, 188.0)" width="12.35" xlink:href="#shape17"/>
    <use ffdec:characterId="27" height="14.35" transform="matrix(0.4972, -0.3543, 0.0842, 0.709, 292.6, 186.1)" width="10.6" xlink:href="#shape18"/>
    <use ffdec:characterId="28" height="31.55" transform="matrix(1.1445, -0.6419, 0.6419, 1.1445, 244.45, 196.9)" width="45.95" xlink:href="#shape19"/>
    <use ffdec:characterId="29" height="10.05" transform="matrix(-1.0072, 0.5649, 0.5649, 1.0072, 270.25, 193.55)" width="10.35" xlink:href="#shape20"/>
  </g>
  <defs>
    <g id="shape0">
      <path d="M-59.4 -10.25 Q-34.8 -14.5 0.0 -14.5 34.8 -14.5 59.4 -10.25 84.0 -6.0 84.0 0.0 84.0 6.0 59.4 10.25 34.8 14.5 0.0 14.5 -34.8 14.5 -59.4 10.25 -84.0 6.0 -84.0 0.0 -84.0 -6.0 -59.4 -10.25" fill="#333333" fill-opacity="0.21568628" fill-rule="evenodd" stroke="none"/>
    </g>
    <g id="sprite0">
      <use ffdec:characterId="18" height="78.55" transform="matrix(1.0, 0.0, 0.0, 1.0, 0.0, 0.0)" width="64.4" xlink:href="#shape1"/>
      <use ffdec:characterId="16" height="13.4" transform="matrix(-0.8354, 0.4333, 0.4333, 0.8354, -23.4, -40.75)" width="13.4" xlink:href="#sprite1"/>
      <use ffdec:characterId="16" height="13.4" transform="matrix(-0.8354, 0.4333, 0.4333, 0.8354, 38.8, -52.4)" width="13.4" xlink:href="#sprite1"/>
    </g>
    <g id="shape1">
      <path d="M38.8 -52.4 Q40.2 -26.1 31.75 -0.6 23.25 24.85 18.9 24.15 14.5 23.45 8.25 -3.85 1.95 -31.2 -23.4 -40.75" fill="none" stroke="#ff0000" stroke-linecap="round" stroke-linejoin="round" stroke-width="2.0"/>
    </g>
    <g id="sprite1">
      <use ffdec:characterId="15" height="13.4" transform="matrix(1.0, 0.0, 0.0, 1.0, 0.0, 0.0)" width="13.4" xlink:href="#shape2"/>
    </g>
    <g id="shape2">
      <path d="M4.75 -4.75 Q6.7 -2.8 6.7 0.0 6.7 2.8 4.75 4.75 2.8 6.7 0.0 6.7 -2.8 6.7 -4.75 4.75 -6.7 2.8 -6.7 0.0 -6.7 -2.8 -4.75 -4.75 -2.8 -6.7 0.0 -6.7 2.8 -6.7 4.75 -4.75" fill="url(#gradient0)" fill-rule="evenodd" stroke="none"/>
    </g>
    <radialGradient cx="0" cy="0" gradientTransform="matrix(0.0105, 0.0, 0.0, 0.0105, -1.1, -1.5)" gradientUnits="userSpaceOnUse" id="gradient0" r="819.2" spreadMethod="pad">
      <stop offset="0.0" stop-color="#fbf6e7"/>
      <stop offset="0.4588235294117647" stop-color="#ffa737"/>
      <stop offset="1.0" stop-color="#b54200"/>
    </radialGradient>
    <g id="shape3">
      <path d="M7.0 -41.8 Q10.05 -34.45 13.35 -27.15 11.35 -27.95 9.05 -28.3 9.65 -34.45 7.0 -41.8 M24.1 -11.55 L24.65 -10.8 25.3 -10.2 Q30.05 -5.75 33.4 -0.25 L33.25 0.1 Q31.05 6.15 24.55 9.45 L23.3 7.0 Q13.4 -10.0 -0.6 -12.55 12.95 -14.05 24.1 -11.55 M39.45 18.65 Q39.7 22.85 39.05 27.3 38.0 34.7 33.7 40.55 L31.55 43.15 Q22.05 53.45 7.6 54.75 -5.95 56.15 -18.9 51.9 -28.3 48.8 -33.75 41.1 -1.4 61.9 15.9 43.0 21.7 36.65 24.45 30.5 29.9 28.65 33.7 25.55 37.3 22.65 39.45 18.65" fill="#970000" fill-rule="evenodd" stroke="none"/>
      <path d="M9.05 -28.3 Q11.35 -27.95 13.35 -27.15 17.95 -19.25 24.1 -11.55 12.95 -14.05 -0.6 -12.55 L-0.65 -12.65 Q8.05 -19.0 9.05 -28.3 M33.7 0.3 L34.6 1.9 Q38.95 9.9 39.45 18.65 37.3 22.65 33.7 25.55 29.9 28.65 24.45 30.5 29.25 19.65 24.55 9.45 31.05 6.15 33.25 0.1 L33.7 0.3" fill="#000066" fill-rule="evenodd" stroke="none"/>
      <path d="M7.0 -41.8 Q9.65 -34.45 9.05 -28.3 -0.8 -29.9 -15.9 -23.95 -14.95 -26.5 -14.15 -29.15 -11.05 -40.1 -7.25 -50.9 -6.7 -52.55 -5.35 -53.5 0.45 -57.95 3.75 -49.65 L6.7 -42.55 7.0 -41.8 M-33.75 41.1 Q-35.65 38.45 -37.05 35.25 -38.9 31.15 -39.3 26.9 4.0 37.45 24.45 30.5 21.7 36.65 15.9 43.0 -1.4 61.9 -33.75 41.1 M-35.55 8.75 Q-32.25 1.15 -26.7 -5.45 L-25.3 -7.15 Q-12.1 -11.3 -0.6 -12.55 13.4 -10.0 23.3 7.0 L24.55 9.45 Q8.15 17.8 -35.55 8.75" fill="#ef0000" fill-rule="evenodd" stroke="none"/>
      <path d="M33.4 -0.25 L33.7 0.3 33.25 0.1 33.4 -0.25 M-39.3 26.9 Q-39.8 22.05 -38.45 17.05 -37.3 12.75 -35.55 8.75 8.15 17.8 24.55 9.45 29.25 19.65 24.45 30.5 4.0 37.45 -39.3 26.9 M-25.3 -7.15 Q-19.35 -14.85 -15.9 -23.95 -0.8 -29.9 9.05 -28.3 8.05 -19.0 -0.65 -12.65 L-0.6 -12.55 Q-12.1 -11.3 -25.3 -7.15" fill="#0000db" fill-rule="evenodd" stroke="none"/>
      <path d="M24.65 -10.8 L24.95 -10.5 25.3 -10.2 24.65 -10.8" fill="#a803c6" fill-rule="evenodd" stroke="none"/>
      <path d="M-27.3 12.35 Q-29.9 22.3 -29.0 28.5 -28.1 34.7 -21.9 41.45 -51.3 21.8 -23.3 -6.6 -11.85 -18.15 -9.9 -28.0 -8.45 -19.15 -16.55 -8.35 -24.7 2.4 -27.3 12.35" fill="#ffffff" fill-opacity="0.4117647" fill-rule="evenodd" stroke="none"/>
    </g>
    <g id="sprite2">
      <use ffdec:characterId="21" height="21.8" transform="matrix(1.0, 0.0, 0.0, 1.0, 0.0, 0.0)" width="21.85" xlink:href="#shape4"/>
    </g>
    <g id="shape4">
      <path d="M10.85 -1.25 Q11.35 3.2 8.55 6.75 5.75 10.3 1.25 10.8 -3.2 11.3 -6.7 8.55 -10.25 5.7 -10.8 1.25 -11.3 -3.2 -8.5 -6.75 -5.7 -10.3 -1.2 -10.8 3.2 -11.35 6.75 -8.5 10.3 -5.7 10.85 -1.25" fill="url(#gradient1)" fill-rule="evenodd" stroke="none"/>
    </g>
    <radialGradient cx="0" cy="0" gradientTransform="matrix(0.0187, 0.0, 0.0, 0.0187, -3.75, -2.45)" gradientUnits="userSpaceOnUse" id="gradient1" r="819.2" spreadMethod="pad">
      <stop offset="0.25098039215686274" stop-color="#ffffff"/>
      <stop offset="0.8549019607843137" stop-color="#8eb5f8"/>
      <stop offset="0.996078431372549" stop-color="#0859d4"/>
    </radialGradient>
    <g id="shape5">
      <path d="M14.85 -22.0 Q35.75 -48.9 83.25 -21.25 77.5 12.95 34.2 31.1 L34.2 31.15 Q-7.05 47.75 -63.85 20.05 L-63.9 20.0 -75.6 15.75 -80.7 14.0 -80.5 13.0 Q-15.75 17.15 14.85 -22.0" fill="url(#gradient2)" fill-rule="evenodd" stroke="none"/>
    </g>
    <linearGradient gradientTransform="matrix(0.0125, 0.0468, -0.0482, 0.0129, -17.3, 14.1)" gradientUnits="userSpaceOnUse" id="gradient2" spreadMethod="pad" x1="-819.2" x2="819.2">
      <stop offset="0.0" stop-color="#ffffcd"/>
      <stop offset="1.0" stop-color="#ef9f18"/>
    </linearGradient>
    <g id="shape6">
      <path d="M-58.95 -26.8 Q-2.2 -3.5 59.45 7.75 L59.45 18.95 Q-6.4 5.65 -58.95 -16.8 L-58.95 -26.8" fill="#bb6d0f" fill-rule="evenodd" stroke="none"/>
    </g>
    <g id="shape7">
      <path d="M-58.95 -26.8 Q-2.2 -3.5 59.45 7.75 L59.45 18.95 Q-6.4 5.65 -58.95 -16.8 L-58.95 -26.8" fill="#95570c" fill-rule="evenodd" stroke="none"/>
    </g>
    <g id="shape8">
      <path d="M6.35 -22.35 Q7.45 2.9 5.7 25.75 L-5.4 21.05 -5.4 -26.4 6.35 -22.35" fill="#491f05" fill-opacity="0.39607844" fill-rule="evenodd" stroke="none"/>
    </g>
    <g id="shape9">
      <path d="M73.0 385.0 L73.35 389.75 Q144.4 367.7 183.35 350.75 L183.35 350.7 Q183.15 350.45 179.2 348.35 127.0 368.75 73.0 385.0" fill="#f2bd51" fill-rule="evenodd" stroke="none"/>
      <path d="M64.3 344.85 Q63.35 367.6 64.35 392.4 L64.8 401.05 Q105.85 389.55 189.8 356.6 187.05 329.0 189.8 300.0 162.4 311.4 133.25 319.8 100.15 329.3 64.8 335.0 L64.3 344.85 M183.35 350.7 L183.35 350.75 Q144.4 367.7 73.35 389.75 L73.0 385.0 Q71.45 361.65 73.35 342.75 103.45 336.25 133.25 327.3 156.1 320.45 178.75 312.1 L179.3 311.9 183.3 310.45 Q181.6 329.9 183.35 350.7" fill="#ca8c0f" fill-rule="evenodd" stroke="none"/>
      <path d="M79.7 288.15 L79.7 288.5 81.4 288.15 79.7 288.15" fill="#9d670d" fill-rule="evenodd" stroke="none"/>
      <path d="M183.35 350.7 Q181.6 329.9 183.3 310.45 L179.3 311.9 Q178.25 328.8 179.2 348.35 183.15 350.45 183.35 350.7" fill="#664309" fill-rule="evenodd" stroke="none"/>
    </g>
    <g id="shape10">
      <path d="M3.05 -3.05 Q4.3 -1.8 4.3 0.0 4.3 1.8 3.05 3.05 1.8 4.3 0.0 4.3 -1.8 4.3 -3.05 3.05 -4.3 1.8 -4.3 0.0 -4.3 -1.8 -3.05 -3.05 -1.8 -4.3 0.0 -4.3 1.8 -4.3 3.05 -3.05" fill="url(#gradient3)" fill-rule="evenodd" stroke="none"/>
    </g>
    <radialGradient cx="0" cy="0" gradientTransform="matrix(0.0088, 0.0, 0.0, 0.0088, -1.15, -1.0)" gradientUnits="userSpaceOnUse" id="gradient3" r="819.2" spreadMethod="pad">
      <stop offset="0.0" stop-color="#ffffff"/>
      <stop offset="1.0" stop-color="#000000"/>
    </radialGradient>
    <g id="shape11">
      <path d="M133.25 281.7 Q90.15 292.8 34.2 302.55 L39.05 307.25 Q52.2 319.7 67.75 329.7 102.3 324.05 133.25 315.0 152.0 309.5 169.4 302.8 L171.7 301.9 178.1 299.3 Q154.95 292.7 133.25 281.7 M64.8 335.0 Q44.2 319.95 25.75 300.65 59.75 296.0 134.8 279.0 156.7 289.55 189.8 300.0 162.4 311.4 133.25 319.8 100.15 329.3 64.8 335.0" fill="#f2bd51" fill-rule="evenodd" stroke="none"/>
      <path d="M39.05 307.25 L34.2 302.55 Q90.15 292.8 133.25 281.7 L133.25 287.35 Q92.0 297.9 39.05 307.25" fill="#ca8c0f" fill-rule="evenodd" stroke="none"/>
      <path d="M133.25 281.7 Q154.95 292.7 178.1 299.3 L171.7 301.9 169.4 302.8 Q150.25 297.7 133.25 287.35 L133.25 281.7 M33.4 315.5 L32.75 314.8 30.15 311.95 Q31.7 329.55 30.85 352.15 43.9 364.0 59.05 382.6 L58.7 375.75 58.65 375.35 Q57.85 356.95 59.3 340.0 45.55 328.5 33.4 315.5 M64.8 335.0 L64.3 344.85 Q63.35 367.6 64.4 392.4 L64.8 401.05 52.6 384.75 Q42.85 371.95 26.85 355.7 L27.05 345.0 Q27.6 325.7 26.4 308.2 L25.75 300.65 Q44.2 319.95 64.8 335.0" fill="#664309" fill-rule="evenodd" stroke="none"/>
      <path d="M169.4 302.8 Q152.0 309.5 133.25 315.0 L133.25 287.35 Q150.25 297.7 169.4 302.8 M30.85 352.15 Q31.7 329.55 30.15 311.95 L32.75 314.8 33.4 315.5 Q34.65 334.95 33.8 351.5 L30.85 352.15" fill="#402904" fill-rule="evenodd" stroke="none"/>
      <path d="M30.85 352.15 L33.8 351.5 Q47.0 362.4 58.5 375.55 L58.7 375.75 59.05 382.6 Q43.9 364.0 30.85 352.15" fill="#94600c" fill-rule="evenodd" stroke="none"/>
      <path d="M33.8 351.5 Q34.65 334.95 33.4 315.5 45.55 328.5 59.3 340.0 57.85 356.95 58.65 375.35 L58.5 375.55 Q47.0 362.4 33.8 351.5" fill="#6c2e09" fill-rule="evenodd" stroke="none"/>
      <path d="M133.25 315.0 Q102.3 324.05 67.75 329.7 52.2 319.7 39.05 307.25 92.0 297.9 133.25 287.35 L133.25 315.0" fill="#83560c" fill-rule="evenodd" stroke="none"/>
    </g>
    <g id="shape12">
      <path d="M-42.1 21.9 Q19.55 14.65 75.65 -8.9 L74.85 -11.25 81.45 -9.0 82.1 -8.75 82.2 -8.7 Q22.7 17.5 -42.8 25.45 -65.45 10.8 -82.15 -6.05 L-79.25 -6.4 -78.55 -6.65 Q-63.0 8.7 -42.1 21.9" fill="#f2bd51" fill-rule="evenodd" stroke="none"/>
      <path d="M74.85 -11.25 L75.65 -8.9 Q19.55 14.65 -42.1 21.9 -50.0 -3.95 -58.75 -11.4 -62.75 -14.8 -66.95 -14.35 -7.1 -22.65 51.6 -38.6 66.0 -35.9 74.8 -11.5 L74.85 -11.25" fill="#bb6d0f" fill-rule="evenodd" stroke="none"/>
      <path d="M-42.1 21.9 Q-63.0 8.7 -78.55 -6.65 -73.35 -12.85 -68.45 -14.05 L-66.95 -14.35 Q-62.75 -14.8 -58.75 -11.4 -50.0 -3.95 -42.1 21.9" fill="#6c2e09" fill-rule="evenodd" stroke="none"/>
      <path d="M-82.15 -6.05 Q-65.45 10.8 -42.8 25.45 L-42.8 38.65 Q-65.55 22.1 -82.15 3.75 L-82.15 -6.05" fill="#664309" fill-rule="evenodd" stroke="none"/>
      <path d="M-42.8 25.45 Q22.7 17.5 82.2 -8.7 L82.2 3.25 Q62.05 11.8 40.95 18.7 27.7 23.0 14.05 26.65 -13.55 34.0 -42.8 38.65 L-42.8 25.45" fill="#ca8c0f" fill-rule="evenodd" stroke="none"/>
      <path d="M33.0 12.7 L33.0 20.6 Q26.0 23.35 18.45 25.35 19.3 21.85 18.45 16.95 26.1 15.5 33.0 12.7" fill="#cccccc" fill-rule="evenodd" stroke="none"/>
      <path d="M16.9 16.25 Q23.9 14.8 30.4 12.4 L31.45 12.0 33.0 12.7 Q26.1 15.5 18.45 16.95 L16.9 16.25" fill="#999999" fill-rule="evenodd" stroke="none"/>
      <path d="M18.45 25.35 L17.15 24.35 Q18.5 20.8 16.9 16.25 L18.45 16.95 Q19.3 21.85 18.45 25.35" fill="#666666" fill-rule="evenodd" stroke="none"/>
    </g>
    <g id="shape13">
      <path d="M-39.2 333.35 L-38.65 332.85 Q8.5 334.75 52.95 350.75 L53.0 350.75 Q87.65 367.35 125.7 372.7 147.15 375.8 167.15 367.9 L167.65 368.0 Q182.0 382.25 177.05 392.6 172.25 402.85 148.4 409.15 53.3 434.0 -38.85 399.8 L-39.2 399.3 -39.2 333.35" fill="url(#gradient4)" fill-rule="evenodd" stroke="none"/>
    </g>
    <linearGradient gradientTransform="matrix(2.0E-4, 0.0605, -0.0401, 1.0E-4, 92.35, 377.75)" gradientUnits="userSpaceOnUse" id="gradient4" spreadMethod="pad" x1="-819.2" x2="819.2">
      <stop offset="0.0" stop-color="#ffffcc"/>
      <stop offset="1.0" stop-color="#ef9c11"/>
    </linearGradient>
    <g id="shape14">
      <path d="M-107.55 -9.7 L-108.55 -9.7 -108.75 -42.85 -108.2 -43.35 Q-61.05 -41.45 -16.6 -25.45 L-16.55 -25.45 -6.5 -20.9 Q-53.85 -27.0 -107.55 -9.7" fill="#333333" fill-opacity="0.31764707" fill-rule="evenodd" stroke="none"/>
    </g>
    <g id="sprite3">
      <use ffdec:characterId="23" height="5.7" transform="matrix(1.0, 0.0, 0.0, 1.0, 0.0, 0.0)" width="5.8" xlink:href="#shape15"/>
    </g>
    <g id="shape15">
      <path d="M0.0 -2.3 Q-0.45 -2.25 -0.7 -1.9 L-0.9 -1.1 Q-0.85 -0.65 -0.45 -0.35 -0.1 -0.05 0.35 -0.1 0.8 -0.15 1.05 -0.45 1.35 -0.85 1.3 -1.3 L0.85 -2.05 0.0 -2.3 M1.65 -2.2 Q2.65 -1.45 2.85 -0.25 3.0 0.95 2.3 1.85 1.6 2.75 0.45 2.85 -0.75 2.95 -1.7 2.25 -2.7 1.45 -2.85 0.25 -3.05 -0.95 -2.3 -1.85 -1.65 -2.75 -0.45 -2.85 0.7 -2.95 1.65 -2.2" fill="#000000" fill-rule="evenodd" stroke="none"/>
      <path d="M0.0 -2.3 L0.85 -2.05 1.3 -1.3 Q1.35 -0.85 1.05 -0.45 0.8 -0.15 0.35 -0.1 -0.1 -0.05 -0.45 -0.35 -0.85 -0.65 -0.9 -1.1 L-0.7 -1.9 Q-0.45 -2.25 0.0 -2.3" fill="#ffffff" fill-rule="evenodd" stroke="none"/>
    </g>
    <g id="shape16">
      <path d="M-23.65 -5.4 Q-26.0 -3.7 -26.15 -1.2 -27.5 12.05 -18.5 11.35 -16.6 11.25 -15.35 9.85 -13.45 7.8 -12.95 2.95 -12.9 1.7 -12.5 0.8 -11.55 -1.75 -8.55 -2.25 -4.5 -2.4 -3.4 1.95 -1.25 9.8 3.5 9.15 6.45 8.8 8.05 7.15 11.2 3.85 8.85 -4.65 7.25 -11.05 -8.65 -9.5 L-9.25 -9.45 -9.8 -9.4 Q-19.75 -8.4 -23.65 -5.4 M8.15 9.8 L7.65 10.05 Q5.55 11.0 2.45 11.05 -2.05 11.1 -4.2 4.4 -5.35 -0.4 -8.3 -0.05 -11.25 0.2 -11.55 5.1 -12.5 12.1 -16.95 12.75 -29.2 15.7 -27.75 -1.35 -27.6 -4.15 -25.15 -6.15 L-24.8 -6.4 Q-20.55 -9.7 -10.0 -10.7 L-9.2 -10.75 -9.15 -10.75 -8.45 -10.85 Q2.0 -11.9 6.8 -9.55 L8.05 -8.85 9.2 -7.85 Q10.2 -6.75 10.6 -5.2 L10.6 -5.1 Q12.55 2.15 11.2 6.15 10.3 8.65 8.15 9.8" fill="#333333" fill-rule="evenodd" stroke="none"/>
      <path d="M11.05 -10.95 L12.25 -10.05 9.2 -7.85 8.05 -8.85 11.05 -10.95" fill="#ff9933" fill-rule="evenodd" stroke="none"/>
      <path d="M-23.65 -5.4 Q-25.25 -3.9 -25.4 -1.9 -26.65 11.35 -17.7 10.6 -16.35 10.55 -15.35 9.85 -16.6 11.25 -18.5 11.35 -27.5 12.05 -26.15 -1.2 -26.0 -3.7 -23.65 -5.4 M-12.5 0.8 Q-11.5 -2.4 -7.7 -3.0 -3.7 -3.1 -2.6 1.3 -0.4 9.15 4.3 8.5 6.6 8.2 8.05 7.15 6.45 8.8 3.5 9.15 -1.25 9.8 -3.4 1.95 -4.5 -2.4 -8.55 -2.25 -11.55 -1.75 -12.5 0.8" fill="#9f9f9f" fill-rule="evenodd" stroke="none"/>
      <path d="M-24.8 -6.4 Q-22.2 -8.55 -19.05 -9.9 -14.65 -11.95 -6.75 -12.7 L-6.0 -12.75 -5.95 -12.75 -5.2 -12.85 Q4.9 -13.85 9.75 -11.7 L6.8 -9.55 Q2.0 -11.9 -8.45 -10.85 L-9.15 -10.75 -9.2 -10.75 -10.0 -10.7 Q-20.55 -9.7 -24.8 -6.4" fill="#ffb871" fill-rule="evenodd" stroke="none"/>
      <path d="M9.75 -11.7 L11.05 -10.95 8.05 -8.85 6.8 -9.55 9.75 -11.7" fill="#ffa851" fill-rule="evenodd" stroke="none"/>
      <path d="M12.25 -10.05 Q13.3 -8.95 13.75 -7.45 L10.6 -5.2 Q10.2 -6.75 9.2 -7.85 L12.25 -10.05" fill="#ff8d1c" fill-rule="evenodd" stroke="none"/>
      <path d="M13.75 -7.45 L13.85 -7.1 Q15.7 -0.2 13.9 4.25 12.5 5.15 11.2 6.15 12.55 2.15 10.6 -5.1 L10.6 -5.2 13.75 -7.45" fill="#f27900" fill-rule="evenodd" stroke="none"/>
      <path d="M13.9 4.25 Q12.35 7.95 8.15 9.8 10.3 8.65 11.2 6.15 12.5 5.15 13.9 4.25" fill="#df7000" fill-rule="evenodd" stroke="none"/>
    </g>
    <g id="shape17">
      <path d="M-6.1 -7.75 L-5.2 -8.2 Q-3.2 0.05 6.2 3.7 L1.15 8.25 -0.75 8.25 4.4 3.7 Q-4.1 0.5 -6.1 -7.75" fill="#666666" fill-rule="evenodd" stroke="none"/>
      <path d="M-6.1 -7.75 Q-4.1 0.5 4.4 3.7 L-0.75 8.25 Q-6.5 7.9 -6.1 1.35 L-6.1 -7.75" fill="#333333" fill-rule="evenodd" stroke="none"/>
    </g>
    <g id="shape18">
      <path d="M-6.35 -5.95 Q-2.5 -5.7 0.45 -6.65 L0.75 -6.75 3.45 -5.75 3.5 -5.7 3.45 -5.7 Q-0.2 -4.2 -3.8 -4.45 L-6.35 -5.95" fill="#ffff99" fill-rule="evenodd" stroke="none"/>
      <path d="M-4.0 7.6 L-6.05 6.65 Q-4.9 0.9 -6.35 -5.95 L-3.8 -4.45 Q-2.05 2.45 -4.0 7.6" fill="#cc9900" fill-rule="evenodd" stroke="none"/>
      <path d="M3.45 -5.7 Q4.9 0.1 3.8 4.75 1.0 6.8 -4.0 7.6 -2.05 2.45 -3.8 -4.45 -0.2 -4.2 3.45 -5.7 M1.6 4.75 L2.2 4.4 Q3.15 0.8 2.25 -3.55 1.05 -2.8 -1.65 -3.0 -0.8 1.8 -1.7 5.6 -0.65 5.65 1.6 4.75" fill="#ffcc00" fill-rule="evenodd" stroke="none"/>
      <path d="M1.6 4.75 Q-0.65 5.65 -1.7 5.6 -0.8 1.8 -1.65 -3.0 1.05 -2.8 2.25 -3.55 3.15 0.8 2.2 4.4 L1.6 4.75" fill="#333333" fill-rule="evenodd" stroke="none"/>
    </g>
    <g id="shape19">
      <path d="M-14.25 8.55 L-14.45 9.05 -15.0 10.3 -15.25 10.85 -16.6 12.95 -16.9 13.25 -18.1 14.25 -19.6 14.55 Q-20.9 14.35 -21.8 12.85 -22.45 11.7 -22.85 9.8 L-23.0 9.15 -23.4 5.35 Q-23.5 3.15 -23.2 0.65 L-23.05 -0.65 -22.3 -4.85 -22.05 -5.8 -21.25 -8.25 -20.8 -9.45 -20.05 -10.9 Q-19.35 -12.25 -18.45 -13.15 L-17.25 -14.15 -15.8 -14.4 Q-15.05 -14.35 -14.4 -13.7 -13.25 -12.6 -12.55 -9.65 L-12.45 -9.15 -12.05 -6.3 Q-17.65 0.85 -14.25 8.55" fill="#7a1d05" fill-rule="evenodd" stroke="none"/>
      <path d="M-17.3 15.5 L-17.35 15.5 -17.5 15.55 Q-19.55 16.2 -21.3 15.1 L-22.2 14.35 Q-25.15 10.55 -24.75 1.15 L-24.35 -2.1 Q-24.05 -4.6 -23.05 -7.25 L-21.25 -11.55 Q-20.5 -13.2 -19.25 -14.15 -15.85 -16.95 -13.6 -14.9 L-13.15 -14.45 -12.2 -13.15 -12.15 -13.1 Q-10.75 -10.6 -10.5 -6.8 -10.25 -1.9 -10.5 0.6 -10.7 2.7 -11.05 4.35 L-11.2 4.8 -12.6 9.45 -12.8 10.0 Q-13.7 12.5 -14.85 13.6 L-16.25 14.9 -16.45 15.05 -16.5 15.1 -17.3 15.5 M-12.05 -6.3 L-12.45 -9.15 -12.55 -9.65 Q-13.25 -12.6 -14.4 -13.7 -15.05 -14.35 -15.8 -14.4 L-17.25 -14.15 -18.45 -13.15 Q-19.35 -12.25 -20.05 -10.9 L-20.8 -9.45 -21.25 -8.25 -22.05 -5.8 -22.3 -4.85 -23.05 -0.65 -23.2 0.65 Q-23.5 3.15 -23.4 5.35 L-23.0 9.15 -22.85 9.8 Q-22.45 11.7 -21.8 12.85 -20.9 14.35 -19.6 14.55 L-18.1 14.25 -16.9 13.25 -16.6 12.95 -15.25 10.85 -15.0 10.3 -14.45 9.05 -14.25 8.55 -13.2 5.45 -12.3 0.75 Q-11.85 -3.1 -12.05 -6.3" fill="#fe9a03" fill-rule="evenodd" stroke="none"/>
      <path d="M-12.15 -13.1 Q-10.05 -9.6 -6.95 -6.45 L-6.65 -6.1 Q-2.15 -0.35 16.35 4.05 L16.35 4.1 19.6 4.3 21.0 5.85 Q21.3 7.55 21.0 9.05 18.75 9.75 17.05 5.75 3.35 7.25 -11.05 4.3 L-11.05 4.35 Q-10.7 2.7 -10.5 0.6 -10.25 -1.9 -10.5 -6.8 -10.75 -10.6 -12.15 -13.1 M8.1 3.25 Q-7.8 -2.7 -9.6 -7.25 -8.85 -4.15 -9.55 1.9 -3.3 -0.35 8.1 3.25" fill="#fcd35a" fill-rule="evenodd" stroke="none"/>
      <path d="M-14.25 8.55 Q-17.65 0.85 -12.05 -6.3 -11.85 -3.1 -12.3 0.75 L-13.2 5.45 -14.25 8.55" fill="#4b1203" fill-rule="evenodd" stroke="none"/>
      <path d="M21.0 9.05 L20.55 10.45 20.15 10.5 Q17.1 10.55 15.55 7.2 -1.0 6.3 -12.8 10.0 L-12.6 9.45 -11.2 4.8 -11.05 4.35 -11.05 4.3 Q3.35 7.25 17.05 5.75 18.75 9.75 21.0 9.05" fill="#fbc115" fill-rule="evenodd" stroke="none"/>
      <path d="M20.55 10.45 L19.75 11.8 19.5 11.8 Q17.05 11.9 16.35 10.35 L15.6 9.25 Q10.15 8.3 4.55 9.1 -4.15 10.7 -12.9 13.85 L-13.85 14.2 -16.05 15.0 -16.1 15.05 -16.45 15.15 -16.5 15.1 -16.45 15.05 -16.25 14.9 -14.85 13.6 Q-13.7 12.5 -12.8 10.0 -1.0 6.3 15.55 7.2 17.1 10.55 20.15 10.5 L20.55 10.45" fill="#e98c01" fill-rule="evenodd" stroke="none"/>
      <path d="M-16.45 15.15 L-17.3 15.5 -16.5 15.1 -16.45 15.15" fill="#dc8501" fill-rule="evenodd" stroke="none"/>
      <path d="M-17.65 15.7 L-17.7 15.7 -17.45 15.6 -17.65 15.7" fill="#a83a00" fill-rule="evenodd" stroke="none"/>
      <path d="M8.1 3.25 Q-3.3 -0.35 -9.55 1.9 -8.85 -4.15 -9.6 -7.25 -7.8 -2.7 8.1 3.25" fill="#ffffff" fill-rule="evenodd" stroke="none"/>
    </g>
    <g id="shape20">
      <path d="M2.5 -3.85 L6.9 -5.0 6.9 1.65 3.3 2.1 2.15 3.95 Q1.4 5.25 -1.5 5.0 -4.2 1.85 -3.15 -1.45 L-1.3 -3.6 2.45 -3.85 2.5 -3.85" fill="url(#gradient5)" fill-rule="evenodd" stroke="none"/>
    </g>
    <linearGradient gradientTransform="matrix(0.0084, 0.0, 0.0, 0.0061, 0.0, 0.0)" gradientUnits="userSpaceOnUse" id="gradient5" spreadMethod="pad" x1="-819.2" x2="819.2">
      <stop offset="0.0" stop-color="#ef0000"/>
      <stop offset="1.0" stop-color="#ff871b" stop-opacity="0.023529412"/>
    </linearGradient>
  </defs>
</svg>
