<?xml version="1.0" encoding="UTF-8" standalone="no"?>
<svg xmlns:ffdec="https://www.free-decompiler.com/flash" xmlns:xlink="http://www.w3.org/1999/xlink" ffdec:objectType="frame" height="46.55px" width="59.15px" xmlns="http://www.w3.org/2000/svg">
  <g transform="matrix(1.0, 0.0, 0.0, 1.0, 29.7, 23.05)">
    <use ffdec:characterId="114" height="46.55" transform="matrix(1.0, 0.0, 0.0, 1.0, 0.0, 0.0)" width="59.15" xlink:href="#shape0"/>
  </g>
  <defs>
    <g id="shape0">
      <path d="M24.35 -18.45 L24.75 17.5 -24.1 17.4 -23.55 -18.75 24.35 -18.45" fill="#d28a10" fill-rule="evenodd" stroke="none"/>
      <path d="M29.45 -22.65 L24.35 -18.45 -23.55 -18.75 -24.1 17.4 -29.7 23.1 Q-26.95 1.45 -29.55 -22.35 L-29.6 -22.55 -29.65 -23.05 29.45 -22.65" fill="#774b0b" fill-rule="evenodd" stroke="none"/>
      <path d="M24.35 -18.45 L29.45 -22.65 Q27.45 0.55 29.35 23.5 1.1 21.85 -29.7 23.1 L-24.1 17.4 24.75 17.5 24.35 -18.45" fill="#f7be66" fill-rule="evenodd" stroke="none"/>
    </g>
  </defs>
</svg>
