<?xml version="1.0" encoding="UTF-8" standalone="no"?>
<svg xmlns:ffdec="https://www.free-decompiler.com/flash" xmlns:xlink="http://www.w3.org/1999/xlink" ffdec:objectType="frame" height="410.0px" width="590.0px" xmlns="http://www.w3.org/2000/svg">
  <g transform="matrix(1.0, 0.0, 0.0, 1.0, 0.0, 0.0)">
    <rect fill="#000000" height="410.0px" width="590.0px"/>
    <use ffdec:characterId="1" height="98.9" transform="matrix(0.1927, 0.0, 0.0, 0.1927, 55.75, 280.6)" width="212.55" xlink:href="#shape0"/>
    <use ffdec:characterId="2" height="139.7" transform="matrix(0.1927, 0.0, 0.0, 0.1927, 62.05, 271.15)" width="218.9" xlink:href="#shape1"/>
    <use ffdec:characterId="3" height="140.4" transform="matrix(0.1927, 0.0, 0.0, 0.1927, 62.05, 264.85)" width="221.3" xlink:href="#shape2"/>
    <use ffdec:characterId="4" height="40.65" transform="matrix(0.9987, 0.0, 0.0, 0.9987, 489.55, 388.0)" width="54.5" xlink:href="#shape3"/>
    <use ffdec:characterId="4" height="40.65" transform="matrix(0.8519, 0.0, 0.0, 0.8519, 547.05, 355.75)" width="54.5" xlink:href="#shape3"/>
    <use ffdec:characterId="4" height="40.65" transform="matrix(0.9987, 0.0, 0.0, 0.9987, 426.65, 349.8)" width="54.5" xlink:href="#shape3"/>
    <use ffdec:characterId="5" height="15.65" transform="matrix(5.1799, 0.0, 0.0, 1.2564, 534.0, 313.35)" width="23.85" xlink:href="#shape4"/>
    <use ffdec:characterId="6" height="49.5" transform="matrix(1.0, 0.0, 0.0, 1.0, 0.0, 0.0)" width="39.35" xlink:href="#shape5"/>
    <use ffdec:characterId="13" height="88.7" transform="matrix(1.0, 0.0, 0.0, 1.0, 469.0, 104.15)" width="79.2" xlink:href="#sprite0"/>
    <use ffdec:characterId="14" height="144.1" transform="matrix(1.1967, 0.054, -0.054, 1.1967, 513.7, 192.6)" width="103.95" xlink:href="#shape7"/>
    <use ffdec:characterId="16" height="21.8" transform="matrix(0.9944, -0.3152, 0.3152, 0.9944, 476.4, 135.3)" width="21.85" xlink:href="#sprite2"/>
    <use ffdec:characterId="16" height="21.8" transform="matrix(0.8685, 0.7934, -0.7934, 0.8685, 495.35, 130.5)" width="21.85" xlink:href="#sprite2"/>
    <use ffdec:characterId="20" height="26.0" transform="matrix(1.0, 0.0, 0.0, 1.0, 170.5, 350.65)" width="250.65" xlink:href="#sprite3"/>
    <use ffdec:characterId="21" height="220.35" transform="matrix(0.846, 0.0, 0.0, 0.846, 240.8, 160.9)" width="102.35" xlink:href="#shape9"/>
    <clipPath id="clipPath0">
      <path d="M 182.2 43 L 182.2 321 L 183.65 320.52 L 185.14 320.05 L 186.67 319.59 L 188.25 319.16 L 189.87 318.73 L 191.53 318.33 L 193.24 317.93 L 194.99 317.56 L 196.79 317.2 L 198.62 316.85 L 200.51 316.52 L 202.43 316.2 L 204.4 315.9 L 206.41 315.62 L 208.47 315.35 L 210.57 315.1 L 212.71 314.86 L 214.9 314.64 L 217.13 314.43 L 219.41 314.24 L 221.72 314.06 L 224.09 313.9 L 226.49 313.75 L 228.94 313.62 L 231.43 313.51 L 233.97 313.41 L 236.55 313.32 L 239.17 313.25 L 241.84 313.2 L 244.55 313.16 L 247.3 313.14 L 250.1 313.13 L 252.75 313.14 L 255.45 313.16 L 258.18 313.19 L 260.95 313.24 L 263.75 313.3 L 266.6 313.37 L 269.48 313.46 L 272.4 313.56 L 275.36 313.67 L 278.36 313.8 L 281.4 313.94 L 284.47 314.1 L 287.58 314.27 L 290.74 314.45 L 293.92 314.64 L 297.15 314.85 L 297.15 43 Z"/>
    </clipPath>
    <g clip-path="url(#clipPath0)">
      <use ffdec:characterId="23" height="59.55" transform="matrix(1.0, 0.0, 0.0, 1.0, 235.25, 293.95)" width="91.0" xlink:href="#shape10"/>
      <use ffdec:characterId="24" height="8.5" transform="matrix(1.1329, 0.0, 0.0, 0.7952, 235.45, 295.65)" width="76.7" xlink:href="#shape11"/>
      <use ffdec:characterId="24" height="8.5" transform="matrix(-1.1199, 0.0, 0.0, -0.7952, 235.8, 282.0)" width="76.7" xlink:href="#shape11"/>
      <use ffdec:characterId="24" height="8.5" transform="matrix(-1.1199, 0.0, 0.0, -0.7952, 236.85, 300.05)" width="76.7" xlink:href="#shape11"/>
      <use ffdec:characterId="24" height="8.5" transform="matrix(1.1199, 0.0, 0.0, 0.7952, 236.15, 322.8)" width="76.7" xlink:href="#shape11"/>
      <use ffdec:characterId="24" height="8.5" transform="matrix(-1.1484, 0.0, 0.0, -0.7952, 236.25, 257.75)" width="76.7" xlink:href="#shape11"/>
      <use ffdec:characterId="24" height="8.5" transform="matrix(1.1484, 0.0, 0.0, 0.7952, 235.55, 279.3)" width="76.7" xlink:href="#shape11"/>
      <use ffdec:characterId="25" height="215.85" transform="matrix(1.0, 0.0, 0.0, 1.0, 195.1, 157.8)" width="12.15" xlink:href="#shape12"/>
      <use ffdec:characterId="26" height="215.85" transform="matrix(1.0, 0.0, 0.0, 1.0, 278.45, 157.3)" width="12.15" xlink:href="#shape13"/>
      <use ffdec:characterId="27" height="8.25" transform="matrix(0.0058, -1.9999, 1.0612, 0.0109, 276.7, 191.15)" width="3.5" xlink:href="#shape14"/>
      <use ffdec:characterId="27" height="8.25" transform="matrix(0.0056, -1.9999, 1.025, 0.0109, 196.9, 191.15)" width="3.5" xlink:href="#shape14"/>
      <use ffdec:characterId="27" height="8.25" transform="matrix(0.006, -1.2539, 1.0975, 0.0068, 193.95, 262.65)" width="3.5" xlink:href="#shape14"/>
      <use ffdec:characterId="27" height="8.25" transform="matrix(0.006, -1.2539, 1.0975, 0.0068, 279.4, 262.7)" width="3.5" xlink:href="#shape14"/>
      <use ffdec:characterId="25" height="215.85" transform="matrix(0.0, -1.0, 0.4576, 0.0, 235.2, 255.75)" width="12.15" xlink:href="#shape12"/>
      <use ffdec:characterId="27" height="8.25" transform="matrix(0.0054, -1.0, 1.0, 0.0054, 194.2, 70.45)" width="3.5" xlink:href="#shape14"/>
      <use ffdec:characterId="27" height="8.25" transform="matrix(0.0054, -1.0, 1.0, 0.0054, 279.4, 71.45)" width="3.5" xlink:href="#shape14"/>
      <use ffdec:characterId="26" height="215.85" transform="matrix(-0.0053, -1.0, 0.4858, -0.0023, 236.0, 65.2)" width="12.15" xlink:href="#shape13"/>
      <use ffdec:characterId="27" height="8.25" transform="matrix(1.0, 0.0, 0.0, 1.0, 229.6, 67.05)" width="3.5" xlink:href="#shape14"/>
      <use ffdec:characterId="27" height="8.25" transform="matrix(0.0059, -1.1428, 1.0843, 0.0062, 277.8, 228.8)" width="3.5" xlink:href="#shape14"/>
      <use ffdec:characterId="27" height="8.25" transform="matrix(0.0059, -1.1428, 1.0843, 0.0062, 195.9, 227.2)" width="3.5" xlink:href="#shape14"/>
      <use ffdec:characterId="25" height="215.85" transform="matrix(0.0, -1.0, 0.4576, 0.0, 233.0, 220.35)" width="12.15" xlink:href="#shape12"/>
      <use ffdec:characterId="27" height="8.25" transform="matrix(0.0054, -1.0, 1.0, 0.0054, 196.2, 110.05)" width="3.5" xlink:href="#shape14"/>
      <use ffdec:characterId="27" height="8.25" transform="matrix(0.0054, -1.0, 1.0, 0.0054, 277.6, 111.05)" width="3.5" xlink:href="#shape14"/>
      <use ffdec:characterId="26" height="215.85" transform="matrix(-0.0053, -1.0, 0.4858, -0.0023, 235.95, 104.2)" width="12.15" xlink:href="#shape13"/>
      <use ffdec:characterId="27" height="8.25" transform="matrix(0.0054, -1.0, 1.0, 0.0054, 197.2, 147.55)" width="3.5" xlink:href="#shape14"/>
      <use ffdec:characterId="27" height="8.25" transform="matrix(0.0054, -1.0, 1.0, 0.0054, 276.6, 148.15)" width="3.5" xlink:href="#shape14"/>
      <use ffdec:characterId="26" height="215.85" transform="matrix(-0.0053, -1.0, 0.4858, -0.0023, 235.95, 141.6)" width="12.15" xlink:href="#shape13"/>
      <use ffdec:characterId="25" height="215.85" transform="matrix(0.0, -1.0, 0.4576, 0.0, 235.85, 183.05)" width="12.15" xlink:href="#shape12"/>
      <use ffdec:characterId="27" height="8.25" transform="matrix(1.0, 0.0, 0.0, 1.0, 227.8, 106.05)" width="3.5" xlink:href="#shape14"/>
      <use ffdec:characterId="27" height="8.25" transform="matrix(1.0, 0.0, 0.0, 1.0, 227.4, 143.35)" width="3.5" xlink:href="#shape14"/>
      <use ffdec:characterId="27" height="8.25" transform="matrix(1.0, 0.0, 0.0, 1.0, 227.4, 181.35)" width="3.5" xlink:href="#shape14"/>
      <use ffdec:characterId="27" height="8.25" transform="matrix(1.0, 0.0, 0.0, 1.0, 227.9, 218.55)" width="3.5" xlink:href="#shape14"/>
      <use ffdec:characterId="26" height="215.85" transform="matrix(0.995, 0.0934, 0.0114, 0.9746, 235.5, 158.45)" width="12.15" xlink:href="#shape13"/>
      <use ffdec:characterId="28" height="13.8" transform="matrix(-0.783, 0.0, 0.0, 0.783, 235.4, 67.1)" width="11.4" xlink:href="#shape15"/>
      <use ffdec:characterId="28" height="13.8" transform="matrix(0.7703, 0.0, 0.0, 0.7703, 235.65, 66.6)" width="11.4" xlink:href="#shape15"/>
      <use ffdec:characterId="28" height="13.8" transform="matrix(-0.783, 0.0, 0.0, 0.783, 233.75, 107.25)" width="11.4" xlink:href="#shape15"/>
      <use ffdec:characterId="28" height="13.8" transform="matrix(0.7703, 0.0, 0.0, 0.7703, 234.0, 106.75)" width="11.4" xlink:href="#shape15"/>
      <use ffdec:characterId="28" height="13.8" transform="matrix(-0.783, 0.0, 0.0, 0.783, 233.2, 144.1)" width="11.4" xlink:href="#shape15"/>
      <use ffdec:characterId="28" height="13.8" transform="matrix(0.7703, 0.0, 0.0, 0.7703, 233.45, 143.6)" width="11.4" xlink:href="#shape15"/>
      <use ffdec:characterId="28" height="13.8" transform="matrix(0.783, 0.0, 0.0, 0.783, 233.95, 181.9)" width="11.4" xlink:href="#shape15"/>
      <use ffdec:characterId="28" height="13.8" transform="matrix(-0.7703, 0.0, 0.0, 0.7703, 233.7, 181.4)" width="11.4" xlink:href="#shape15"/>
      <use ffdec:characterId="28" height="13.8" transform="matrix(-0.9933, 0.0, 0.0, 0.825, 234.1, 218.95)" width="11.4" xlink:href="#shape15"/>
      <use ffdec:characterId="28" height="13.8" transform="matrix(0.9772, 0.0, 0.0, 0.8115, 234.45, 218.4)" width="11.4" xlink:href="#shape15"/>
      <use ffdec:characterId="28" height="13.8" transform="matrix(-0.783, 0.0, 0.0, 0.783, 193.05, 64.8)" width="11.4" xlink:href="#shape15"/>
      <use ffdec:characterId="28" height="13.8" transform="matrix(1.0, 0.0, 0.0, 1.0, 194.1, 64.7)" width="11.4" xlink:href="#shape15"/>
      <use ffdec:characterId="28" height="13.8" transform="matrix(-0.783, 0.0, 0.0, 0.783, 195.25, 104.95)" width="11.4" xlink:href="#shape15"/>
      <use ffdec:characterId="28" height="13.8" transform="matrix(1.0, 0.0, 0.0, 1.0, 196.3, 104.85)" width="11.4" xlink:href="#shape15"/>
      <use ffdec:characterId="28" height="13.8" transform="matrix(-0.783, 0.0, 0.0, 0.783, 196.35, 142.35)" width="11.4" xlink:href="#shape15"/>
      <use ffdec:characterId="28" height="13.8" transform="matrix(1.0, 0.0, 0.0, 1.0, 197.4, 142.25)" width="11.4" xlink:href="#shape15"/>
      <use ffdec:characterId="28" height="13.8" transform="matrix(0.783, 0.0, 0.0, 0.783, 197.35, 184.05)" width="11.4" xlink:href="#shape15"/>
      <use ffdec:characterId="28" height="13.8" transform="matrix(-1.0, 0.0, 0.0, 1.0, 196.3, 183.95)" width="11.4" xlink:href="#shape15"/>
      <use ffdec:characterId="28" height="13.8" transform="matrix(0.783, 0.0, 0.0, 0.783, 196.2, 221.85)" width="11.4" xlink:href="#shape15"/>
      <use ffdec:characterId="28" height="13.8" transform="matrix(-1.0, 0.0, 0.0, 1.0, 195.15, 221.75)" width="11.4" xlink:href="#shape15"/>
      <use ffdec:characterId="28" height="13.8" transform="matrix(0.783, 0.0, 0.0, 0.783, 194.15, 257.15)" width="11.4" xlink:href="#shape15"/>
      <use ffdec:characterId="28" height="13.8" transform="matrix(-1.0, 0.0, 0.0, 1.0, 193.1, 257.05)" width="11.4" xlink:href="#shape15"/>
      <use ffdec:characterId="27" height="8.25" transform="matrix(1.0, 0.0, 0.0, 1.0, 230.4, 253.85)" width="3.5" xlink:href="#shape14"/>
      <use ffdec:characterId="28" height="13.8" transform="matrix(-0.9933, 0.0, 0.0, 0.825, 237.15, 255.05)" width="11.4" xlink:href="#shape15"/>
      <use ffdec:characterId="28" height="13.8" transform="matrix(0.9772, 0.0, 0.0, 0.8115, 237.5, 254.5)" width="11.4" xlink:href="#shape15"/>
      <use ffdec:characterId="28" height="13.8" transform="matrix(0.783, 0.0, 0.0, 0.783, 280.15, 64.8)" width="11.4" xlink:href="#shape15"/>
      <use ffdec:characterId="28" height="13.8" transform="matrix(-1.0, 0.0, 0.0, 1.0, 279.1, 64.7)" width="11.4" xlink:href="#shape15"/>
      <use ffdec:characterId="28" height="13.8" transform="matrix(0.783, 0.0, 0.0, 0.783, 277.95, 104.95)" width="11.4" xlink:href="#shape15"/>
      <use ffdec:characterId="28" height="13.8" transform="matrix(-1.0, 0.0, 0.0, 1.0, 276.9, 104.85)" width="11.4" xlink:href="#shape15"/>
      <use ffdec:characterId="28" height="13.8" transform="matrix(0.783, 0.0, 0.0, 0.783, 276.85, 142.35)" width="11.4" xlink:href="#shape15"/>
      <use ffdec:characterId="28" height="13.8" transform="matrix(-1.0, 0.0, 0.0, 1.0, 275.8, 142.25)" width="11.4" xlink:href="#shape15"/>
      <use ffdec:characterId="28" height="13.8" transform="matrix(-0.783, 0.0, 0.0, 0.783, 276.2, 184.2)" width="11.4" xlink:href="#shape15"/>
      <use ffdec:characterId="28" height="13.8" transform="matrix(1.0, 0.0, 0.0, 1.0, 277.25, 184.1)" width="11.4" xlink:href="#shape15"/>
      <use ffdec:characterId="28" height="13.8" transform="matrix(-0.783, 0.0, 0.0, 0.783, 277.15, 221.6)" width="11.4" xlink:href="#shape15"/>
      <use ffdec:characterId="28" height="13.8" transform="matrix(1.0, 0.0, 0.0, 1.0, 278.2, 221.5)" width="11.4" xlink:href="#shape15"/>
      <use ffdec:characterId="28" height="13.8" transform="matrix(-0.8792, 0.0, 0.0, 0.6468, 278.65, 256.85)" width="11.4" xlink:href="#shape15"/>
      <use ffdec:characterId="28" height="13.8" transform="matrix(1.1228, 0.0, 0.0, 0.8261, 279.85, 256.75)" width="11.4" xlink:href="#shape15"/>
    </g>
    <use ffdec:characterId="20" height="26.0" transform="matrix(1.0, 0.0, 0.7563, 1.0, 307.25, 353.65)" width="250.65" xlink:href="#sprite3"/>
    <use ffdec:characterId="21" height="220.35" transform="matrix(0.841, 0.0892, -0.0892, 0.841, 364.3, 165.55)" width="102.35" xlink:href="#shape9"/>
    <clipPath id="clipPath1">
      <path d="M 318.48 42.16 L 289.18 318.52 L 290.76 318.17 L 292.4 317.84 L 294.08 317.54 L 295.81 317.25 L 297.59 316.99 L 299.41 316.76 L 301.28 316.54 L 303.2 316.35 L 305.17 316.18 L 307.18 316.04 L 309.24 315.91 L 311.35 315.81 L 313.51 315.73 L 315.71 315.67 L 317.96 315.64 L 320.26 315.63 L 322.31 315.64 L 324.4 315.66 L 326.53 315.71 L 328.7 315.77 L 330.9 315.85 L 333.13 315.94 L 335.41 316.05 L 337.72 316.18 L 340.06 316.33 L 342.44 316.5 L 344.86 316.68 L 347.32 316.88 L 349.81 317.1 L 352.34 317.33 L 354.9 317.58 L 357.5 317.85 L 360.14 318.14 L 362.82 318.44 L 365.53 318.76 L 368.27 319.1 L 371.06 319.46 L 373.88 319.83 L 376.74 320.22 L 379.63 320.63 L 382.56 321.06 L 385.53 321.5 L 388.53 321.96 L 391.57 322.44 L 394.65 322.93 L 397.76 323.44 L 400.91 323.97 L 404.09 324.52 L 432.75 54.28 L 318.48 42.16 Z"/>
    </clipPath>
    <g clip-path="url(#clipPath1)">
      <use ffdec:characterId="23" height="59.55" transform="matrix(0.9941, 0.1054, -0.1054, 0.9941, 344.75, 297.2)" width="91.0" xlink:href="#shape10"/>
      <use ffdec:characterId="24" height="8.5" transform="matrix(1.1262, 0.1194, -0.0838, 0.7904, 344.75, 298.9)" width="76.7" xlink:href="#shape11"/>
      <use ffdec:characterId="24" height="8.5" transform="matrix(-1.1133, -0.1181, 0.0838, -0.7904, 346.55, 285.35)" width="76.7" xlink:href="#shape11"/>
      <use ffdec:characterId="24" height="8.5" transform="matrix(-1.1133, -0.1181, 0.0838, -0.7904, 345.7, 303.4)" width="76.7" xlink:href="#shape11"/>
      <use ffdec:characterId="24" height="8.5" transform="matrix(1.1133, 0.1181, -0.0838, 0.7904, 342.6, 326.0)" width="76.7" xlink:href="#shape11"/>
      <use ffdec:characterId="24" height="8.5" transform="matrix(-1.1416, -0.1211, 0.0838, -0.7904, 349.55, 261.3)" width="76.7" xlink:href="#shape11"/>
      <use ffdec:characterId="24" height="8.5" transform="matrix(1.1416, 0.1211, -0.0838, 0.7904, 346.6, 282.7)" width="76.7" xlink:href="#shape11"/>
      <use ffdec:characterId="25" height="215.85" transform="matrix(0.9941, 0.1054, -0.1054, 0.9941, 319.2, 157.65)" width="12.15" xlink:href="#shape12"/>
      <use ffdec:characterId="26" height="215.85" transform="matrix(0.9941, 0.1054, -0.1054, 0.9941, 402.1, 165.95)" width="12.15" xlink:href="#shape13"/>
      <use ffdec:characterId="27" height="8.25" transform="matrix(0.2166, -1.9875, 1.0538, 0.1227, 396.8, 199.4)" width="3.5" xlink:href="#shape14"/>
      <use ffdec:characterId="27" height="8.25" transform="matrix(0.2164, -1.9875, 1.0178, 0.1189, 317.5, 191.0)" width="3.5" xlink:href="#shape14"/>
      <use ffdec:characterId="27" height="8.25" transform="matrix(0.1381, -1.2459, 1.0903, 0.1225, 307.0, 261.75)" width="3.5" xlink:href="#shape14"/>
      <use ffdec:characterId="27" height="8.25" transform="matrix(0.1381, -1.2459, 1.0903, 0.1225, 391.95, 270.85)" width="3.5" xlink:href="#shape14"/>
      <use ffdec:characterId="25" height="215.85" transform="matrix(0.1054, -0.9941, 0.4549, 0.0482, 348.75, 259.2)" width="12.15" xlink:href="#shape12"/>
      <use ffdec:characterId="27" height="8.25" transform="matrix(0.1108, -0.9935, 0.9935, 0.1108, 327.5, 70.7)" width="3.5" xlink:href="#shape14"/>
      <use ffdec:characterId="27" height="8.25" transform="matrix(0.1108, -0.9935, 0.9935, 0.1108, 412.1, 80.7)" width="3.5" xlink:href="#shape14"/>
      <use ffdec:characterId="26" height="215.85" transform="matrix(0.1001, -0.9946, 0.4832, 0.0489, 369.6, 69.9)" width="12.15" xlink:href="#shape13"/>
      <use ffdec:characterId="27" height="8.25" transform="matrix(0.9941, 0.1054, -0.1054, 0.9941, 363.05, 71.1)" width="3.5" xlink:href="#shape14"/>
      <use ffdec:characterId="27" height="8.25" transform="matrix(0.1263, -1.1354, 1.0772, 0.1205, 393.9, 236.95)" width="3.5" xlink:href="#shape14"/>
      <use ffdec:characterId="27" height="8.25" transform="matrix(0.1263, -1.1354, 1.0772, 0.1205, 312.7, 226.7)" width="3.5" xlink:href="#shape14"/>
      <use ffdec:characterId="25" height="215.85" transform="matrix(0.1054, -0.9941, 0.4549, 0.0482, 350.25, 223.85)" width="12.15" xlink:href="#shape12"/>
      <use ffdec:characterId="27" height="8.25" transform="matrix(0.1108, -0.9935, 0.9935, 0.1108, 325.35, 110.3)" width="3.5" xlink:href="#shape14"/>
      <use ffdec:characterId="27" height="8.25" transform="matrix(0.1108, -0.9935, 0.9935, 0.1108, 406.15, 119.9)" width="3.5" xlink:href="#shape14"/>
      <use ffdec:characterId="26" height="215.85" transform="matrix(0.1001, -0.9946, 0.4832, 0.0489, 365.45, 108.65)" width="12.15" xlink:href="#shape13"/>
      <use ffdec:characterId="27" height="8.25" transform="matrix(0.1108, -0.9935, 0.9935, 0.1108, 322.4, 147.65)" width="3.5" xlink:href="#shape14"/>
      <use ffdec:characterId="27" height="8.25" transform="matrix(0.1108, -0.9935, 0.9935, 0.1108, 401.2, 156.65)" width="3.5" xlink:href="#shape14"/>
      <use ffdec:characterId="26" height="215.85" transform="matrix(0.1001, -0.9946, 0.4832, 0.0489, 361.5, 145.85)" width="12.15" xlink:href="#shape13"/>
      <use ffdec:characterId="25" height="215.85" transform="matrix(0.1054, -0.9941, 0.4549, 0.0482, 357.05, 187.05)" width="12.15" xlink:href="#shape12"/>
      <use ffdec:characterId="27" height="8.25" transform="matrix(0.9941, 0.1054, -0.1054, 0.9941, 357.15, 109.65)" width="3.5" xlink:href="#shape14"/>
      <use ffdec:characterId="27" height="8.25" transform="matrix(0.9941, 0.1054, -0.1054, 0.9941, 352.85, 146.7)" width="3.5" xlink:href="#shape14"/>
      <use ffdec:characterId="27" height="8.25" transform="matrix(0.9941, 0.1054, -0.1054, 0.9941, 348.8, 184.45)" width="3.5" xlink:href="#shape14"/>
      <use ffdec:characterId="27" height="8.25" transform="matrix(0.9941, 0.1054, -0.1054, 0.9941, 345.4, 221.5)" width="3.5" xlink:href="#shape14"/>
      <use ffdec:characterId="26" height="215.85" transform="matrix(0.9793, 0.1978, -0.0914, 0.9701, 359.3, 162.55)" width="12.15" xlink:href="#shape13"/>
      <use ffdec:characterId="28" height="13.8" transform="matrix(-0.7784, -0.0826, -0.0826, 0.7784, 368.85, 71.75)" width="11.4" xlink:href="#shape15"/>
      <use ffdec:characterId="28" height="13.8" transform="matrix(0.7657, 0.0812, -0.0812, 0.7657, 369.15, 71.25)" width="11.4" xlink:href="#shape15"/>
      <use ffdec:characterId="28" height="13.8" transform="matrix(-0.7784, -0.0826, -0.0826, 0.7784, 362.95, 111.5)" width="11.4" xlink:href="#shape15"/>
      <use ffdec:characterId="28" height="13.8" transform="matrix(0.7657, 0.0812, -0.0812, 0.7657, 363.25, 111.0)" width="11.4" xlink:href="#shape15"/>
      <use ffdec:characterId="28" height="13.8" transform="matrix(-0.7784, -0.0826, -0.0826, 0.7784, 358.5, 148.05)" width="11.4" xlink:href="#shape15"/>
      <use ffdec:characterId="28" height="13.8" transform="matrix(0.7657, 0.0812, -0.0812, 0.7657, 358.8, 147.55)" width="11.4" xlink:href="#shape15"/>
      <use ffdec:characterId="28" height="13.8" transform="matrix(0.7784, 0.0826, -0.0826, 0.7784, 355.3, 185.65)" width="11.4" xlink:href="#shape15"/>
      <use ffdec:characterId="28" height="13.8" transform="matrix(-0.7657, -0.0812, -0.0812, 0.7657, 355.1, 185.15)" width="11.4" xlink:href="#shape15"/>
      <use ffdec:characterId="28" height="13.8" transform="matrix(-0.9875, -0.1047, -0.087, 0.8201, 351.55, 222.55)" width="11.4" xlink:href="#shape15"/>
      <use ffdec:characterId="28" height="13.8" transform="matrix(0.9714, 0.103, -0.0856, 0.8067, 351.95, 222.0)" width="11.4" xlink:href="#shape15"/>
      <use ffdec:characterId="28" height="13.8" transform="matrix(-0.7784, -0.0826, -0.0826, 0.7784, 326.95, 65.0)" width="11.4" xlink:href="#shape15"/>
      <use ffdec:characterId="28" height="13.8" transform="matrix(0.9941, 0.1054, -0.1054, 0.9941, 328.0, 65.0)" width="11.4" xlink:href="#shape15"/>
      <use ffdec:characterId="28" height="13.8" transform="matrix(-0.7784, -0.0826, -0.0826, 0.7784, 324.95, 105.1)" width="11.4" xlink:href="#shape15"/>
      <use ffdec:characterId="28" height="13.8" transform="matrix(0.9941, 0.1054, -0.1054, 0.9941, 326.0, 105.1)" width="11.4" xlink:href="#shape15"/>
      <use ffdec:characterId="28" height="13.8" transform="matrix(-0.7784, -0.0826, -0.0826, 0.7784, 322.1, 142.45)" width="11.4" xlink:href="#shape15"/>
      <use ffdec:characterId="28" height="13.8" transform="matrix(0.9941, 0.1054, -0.1054, 0.9941, 323.15, 142.45)" width="11.4" xlink:href="#shape15"/>
      <use ffdec:characterId="28" height="13.8" transform="matrix(0.7784, 0.0826, -0.0826, 0.7784, 318.7, 183.95)" width="11.4" xlink:href="#shape15"/>
      <use ffdec:characterId="28" height="13.8" transform="matrix(-0.9941, -0.1054, -0.1054, 0.9941, 317.65, 183.75)" width="11.4" xlink:href="#shape15"/>
      <use ffdec:characterId="28" height="13.8" transform="matrix(0.7784, 0.0826, -0.0826, 0.7784, 313.55, 221.4)" width="11.4" xlink:href="#shape15"/>
      <use ffdec:characterId="28" height="13.8" transform="matrix(-0.9941, -0.1054, -0.1054, 0.9941, 312.5, 221.2)" width="11.4" xlink:href="#shape15"/>
      <use ffdec:characterId="28" height="13.8" transform="matrix(0.7784, 0.0826, -0.0826, 0.7784, 307.8, 256.25)" width="11.4" xlink:href="#shape15"/>
      <use ffdec:characterId="28" height="13.8" transform="matrix(-0.9941, -0.1054, -0.1054, 0.9941, 306.75, 256.05)" width="11.4" xlink:href="#shape15"/>
      <use ffdec:characterId="27" height="8.25" transform="matrix(0.9941, 0.1054, -0.1054, 0.9941, 344.2, 256.85)" width="3.5" xlink:href="#shape14"/>
      <use ffdec:characterId="28" height="13.8" transform="matrix(-0.9875, -0.1047, -0.087, 0.8201, 350.75, 258.8)" width="11.4" xlink:href="#shape15"/>
      <use ffdec:characterId="28" height="13.8" transform="matrix(0.9714, 0.103, -0.0856, 0.8067, 351.15, 258.25)" width="11.4" xlink:href="#shape15"/>
      <use ffdec:characterId="28" height="13.8" transform="matrix(0.7784, 0.0826, -0.0826, 0.7784, 413.55, 74.15)" width="11.4" xlink:href="#shape15"/>
      <use ffdec:characterId="28" height="13.8" transform="matrix(-0.9941, -0.1054, -0.1054, 0.9941, 412.5, 73.95)" width="11.4" xlink:href="#shape15"/>
      <use ffdec:characterId="28" height="13.8" transform="matrix(0.7784, 0.0826, -0.0826, 0.7784, 407.15, 113.8)" width="11.4" xlink:href="#shape15"/>
      <use ffdec:characterId="28" height="13.8" transform="matrix(-0.9941, -0.1054, -0.1054, 0.9941, 406.1, 113.6)" width="11.4" xlink:href="#shape15"/>
      <use ffdec:characterId="28" height="13.8" transform="matrix(0.7784, 0.0826, -0.0826, 0.7784, 402.1, 150.9)" width="11.4" xlink:href="#shape15"/>
      <use ffdec:characterId="28" height="13.8" transform="matrix(-0.9941, -0.1054, -0.1054, 0.9941, 401.05, 150.7)" width="11.4" xlink:href="#shape15"/>
      <use ffdec:characterId="28" height="13.8" transform="matrix(-0.7784, -0.0826, -0.0826, 0.7784, 397.05, 192.45)" width="11.4" xlink:href="#shape15"/>
      <use ffdec:characterId="28" height="13.8" transform="matrix(0.9941, 0.1054, -0.1054, 0.9941, 398.1, 192.45)" width="11.4" xlink:href="#shape15"/>
      <use ffdec:characterId="28" height="13.8" transform="matrix(-0.7784, -0.0826, -0.0826, 0.7784, 394.05, 229.7)" width="11.4" xlink:href="#shape15"/>
      <use ffdec:characterId="28" height="13.8" transform="matrix(0.9941, 0.1054, -0.1054, 0.9941, 395.1, 229.7)" width="11.4" xlink:href="#shape15"/>
      <use ffdec:characterId="28" height="13.8" transform="matrix(-0.874, -0.0927, -0.0682, 0.643, 391.8, 264.9)" width="11.4" xlink:href="#shape15"/>
      <use ffdec:characterId="28" height="13.8" transform="matrix(1.1161, 0.1184, -0.0871, 0.8212, 393.0, 264.95)" width="11.4" xlink:href="#shape15"/>
    </g>
    <use ffdec:characterId="30" height="5.7" transform="matrix(-1.0482, -0.3322, -0.3322, 1.0482, 475.8, 141.2)" width="5.8" xlink:href="#sprite4"/>
    <use ffdec:characterId="30" height="5.7" transform="matrix(-0.8685, 0.7934, 0.7934, 0.8685, 495.45, 135.4)" width="5.8" xlink:href="#sprite4"/>
    <use ffdec:characterId="31" height="29.2" transform="matrix(1.0, 0.0, 0.0, 1.0, 489.35, 133.15)" width="43.35" xlink:href="#sprite5"/>
    <use ffdec:characterId="32" height="26.3" transform="matrix(1.17, -0.2575, 0.2575, 1.17, 495.2, 132.35)" width="55.25" xlink:href="#shape17"/>
    <use ffdec:characterId="33" height="9.65" transform="matrix(-3.3921, 0.0, 0.0, 3.3921, 488.2, 150.8)" width="9.35" xlink:href="#shape18"/>
    <use ffdec:characterId="34" height="13.0" transform="matrix(-3.3921, 0.0, 0.0, 3.3921, 488.35, 182.9)" width="18.45" xlink:href="#shape19"/>
    <use ffdec:characterId="35" height="22.0" transform="matrix(-1.052, 0.0, 0.0, 1.052, 486.3, 145.35)" width="15.1" xlink:href="#shape20"/>
    <use ffdec:characterId="7" height="22.65" transform="matrix(-1.9716, 0.2355, 0.2355, 1.9717, 547.2, 200.7)" width="25.1" xlink:href="#shape21"/>
    <use ffdec:characterId="39" height="42.7" id="chip1" transform="matrix(1.0, 0.0, 0.0, 1.0, 214.95, 84.95)" width="42.7" xlink:href="#sprite6"/>
    <use ffdec:characterId="40" height="42.7" id="chip6" transform="matrix(1.0, 0.0, 0.0, 1.0, 254.95, 84.95)" width="42.7" xlink:href="#sprite7"/>
    <use ffdec:characterId="39" height="42.7" id="chip2" transform="matrix(1.0, 0.0, 0.0, 1.0, 214.75, 123.95)" width="42.7" xlink:href="#sprite6"/>
    <use ffdec:characterId="40" height="42.7" id="chip7" transform="matrix(1.0, 0.0, 0.0, 1.0, 254.95, 123.95)" width="42.7" xlink:href="#sprite7"/>
    <use ffdec:characterId="39" height="42.7" id="chip3" transform="matrix(1.0, 0.0, 0.0, 1.0, 214.75, 162.35)" width="42.7" xlink:href="#sprite6"/>
    <use ffdec:characterId="40" height="42.7" id="chip8" transform="matrix(1.0, 0.0, 0.0, 1.0, 254.35, 162.35)" width="42.7" xlink:href="#sprite7"/>
    <use ffdec:characterId="40" height="42.7" id="chip4" transform="matrix(1.0, 0.0, 0.0, 1.0, 214.75, 199.55)" width="42.7" xlink:href="#sprite7"/>
    <use ffdec:characterId="40" height="42.7" id="chip9" transform="matrix(1.0, 0.0, 0.0, 1.0, 254.35, 199.55)" width="42.7" xlink:href="#sprite7"/>
    <use ffdec:characterId="40" height="42.7" id="chip5" transform="matrix(1.0, 0.0, 0.0, 1.0, 214.75, 236.9)" width="42.7" xlink:href="#sprite7"/>
    <use ffdec:characterId="40" height="42.7" id="chip10" transform="matrix(1.0, 0.0, 0.0, 1.0, 255.55, 236.9)" width="42.7" xlink:href="#sprite7"/>
    <use ffdec:characterId="39" height="42.7" id="chip11" transform="matrix(1.0, 0.0, 0.0, 1.0, 332.35, 239.15)" width="42.7" xlink:href="#sprite6"/>
    <use ffdec:characterId="41" height="58.65" transform="matrix(0.9709, -0.0894, 0.0894, 0.9709, 344.3, 288.3)" width="71.1" xlink:href="#shape22"/>
    <use ffdec:characterId="41" height="58.65" transform="matrix(0.9883, -0.1494, 0.1494, 0.9883, 236.4, 286.6)" width="71.1" xlink:href="#shape23"/>
    <use ffdec:characterId="42" height="112.05" transform="matrix(0.4, 0.0, 0.0, 0.4, 219.8, 286.4)" width="42.15" xlink:href="#shape24"/>
    <use ffdec:characterId="43" height="99.1" transform="matrix(0.45, 0.0, 0.0, 0.45, 248.25, 286.85)" width="72.85" xlink:href="#shape25"/>
    <use ffdec:characterId="39" height="42.7" id="chip12" transform="matrix(1.0, 0.0, 0.0, 1.0, 335.95, 203.15)" width="42.7" xlink:href="#sprite6"/>
    <use ffdec:characterId="62" height="98.25" transform="matrix(0.4492, 0.0, 0.0, 0.4492, 345.8, 287.45)" width="75.0" xlink:href="#shape26"/>
    <use ffdec:characterId="106" height="0.65" transform="matrix(1.0, 0.0, 0.0, 1.0, 307.95, 213.7)" width="0.2" xlink:href="#shape27"/>
    <use ffdec:characterId="107" height="131.65" transform="matrix(-0.9929, -0.1128, -0.1128, 0.9929, 433.35, 119.8)" width="13.7" xlink:href="#shape28"/>
    <use ffdec:characterId="108" height="27.25" transform="matrix(-0.9909, -0.0765, -0.1311, 0.9981, 368.85, 56.9)" width="140.8" xlink:href="#shape29"/>
    <use ffdec:characterId="109" height="164.6" transform="matrix(-0.9909, -0.1315, -0.1315, 0.9909, 371.8, 271.15)" width="121.9" xlink:href="#shape30"/>
    <use ffdec:characterId="109" height="164.6" transform="matrix(1.0, 0.0, 0.0, 1.0, 217.7, 265.05)" width="121.9" xlink:href="#shape30"/>
    <use ffdec:characterId="107" height="131.65" transform="matrix(1.0, 0.0, 0.0, 1.0, 175.95, 106.55)" width="13.7" xlink:href="#shape28"/>
    <use ffdec:characterId="108" height="27.25" transform="matrix(1.0, 0.0408, 0.0, 1.0, 249.3, 49.65)" width="140.8" xlink:href="#shape29"/>
    <use ffdec:characterId="110" height="11.85" transform="matrix(1.0, 0.0, 0.0, 1.0, 288.7, 324.3)" width="20.35" xlink:href="#shape31"/>
    <use ffdec:characterId="111" height="62.75" transform="matrix(0.0, 1.0, -1.0961, 0.0, 292.7, 390.05)" width="8.6" xlink:href="#shape32"/>
    <use ffdec:characterId="111" height="62.75" transform="matrix(1.0, 0.0, 0.0, 0.9861, 257.35, 361.9)" width="8.6" xlink:href="#shape32"/>
    <use ffdec:characterId="111" height="62.75" transform="matrix(0.0, 1.0, -1.1668, 0.0, 291.25, 332.7)" width="8.6" xlink:href="#shape32"/>
    <use ffdec:characterId="111" height="62.75" transform="matrix(-0.9981, 0.0565, 0.0557, 0.9842, 327.0, 361.55)" width="8.6" xlink:href="#shape32"/>
    <use ffdec:characterId="112" height="13.4" transform="matrix(1.0, 0.0, 0.0, 1.0, 327.25, 386.05)" width="8.4" xlink:href="#shape33"/>
    <use ffdec:characterId="112" height="13.4" transform="matrix(-1.0, 0.0, 0.0, 1.0, 259.0, 386.25)" width="8.4" xlink:href="#shape33"/>
    <use ffdec:characterId="112" height="13.4" transform="matrix(-1.0, 0.0, 0.0, -1.0, 257.65, 336.45)" width="8.4" xlink:href="#shape33"/>
    <use ffdec:characterId="112" height="13.4" transform="matrix(1.0, 0.0, 0.0, -1.0, 325.75, 335.4)" width="8.4" xlink:href="#shape33"/>
    <use ffdec:characterId="41" height="58.65" transform="matrix(0.9883, -0.1557, 0.1494, 1.0299, 290.9, 361.7)" width="71.1" xlink:href="#shape34"/>
    <use ffdec:characterId="42" height="112.05" transform="matrix(0.4, 0.0, 0.0, 0.4, 274.75, 361.15)" width="42.15" xlink:href="#shape35"/>
    <use ffdec:characterId="62" height="98.25" transform="matrix(0.4492, 0.0, 0.0, 0.4492, 303.75, 360.7)" width="75.0" xlink:href="#shape36"/>
    <use ffdec:characterId="99" height="415.9" id="MovieHook" transform="matrix(1.0, 0.0, 0.0, 1.0, 0.0, 0.0)" width="707.0" xlink:href="#sprite8"/>
  </g>
  <defs>
    <g id="shape0">
      <path d="M-75.55 -39.5 L-27.0 -60.35 114.05 -7.9 Q17.25 50.7 -48.45 35.35 -132.4 -1.6 -75.55 -39.5" fill="#000000" fill-opacity="0.3019608" fill-rule="evenodd" stroke="none"/>
    </g>
    <g id="shape1">
      <path d="M-17.4 -69.75 Q-15.9 -67.45 4.25 -60.6 22.75 -54.3 37.9 -50.4 103.3 -33.4 109.25 -10.5 110.3 -6.45 107.7 4.7 104.45 18.55 97.6 26.25 85.0 32.9 78.45 21.85 71.45 -14.95 68.4 -5.95 65.5 16.0 60.75 30.0 56.7 42.05 51.3 48.25 22.5 61.75 15.0 16.9 7.5 -27.95 0.5 -2.75 L-7.5 25.75 Q-9.3 31.7 -12.25 38.65 -15.2 45.55 -25.95 48.45 -36.65 51.3 -56.7 5.3 -57.55 2.8 -58.25 1.7 -58.95 0.55 -61.0 0.85 -63.05 1.15 -67.65 11.0 -72.25 20.8 -76.7 24.8 -80.55 28.2 -82.5 28.25 -86.8 29.8 -89.3 26.5 -91.85 4.75 -99.55 8.25 -96.2 3.35 -93.9 3.2 -90.55 2.95 -89.45 12.7 -87.9 26.15 -82.4 24.7 -80.45 24.1 -79.25 22.9 -72.0 17.15 -69.25 6.95 -63.2 -6.2 -59.4 -5.0 -55.65 -3.8 -42.75 27.6 -27.45 54.6 -13.25 31.65 -10.55 26.5 -9.1 19.2 -8.2 16.55 -5.9 4.4 -4.65 -2.4 -2.05 -7.75 0.95 -13.9 4.45 -15.1 9.05 -16.65 12.1 -10.9 15.4 -4.7 18.1 11.95 19.45 20.45 21.35 26.8 25.8 41.7 33.2 45.15 35.45 46.2 38.0 46.2 55.35 47.3 62.4 5.25 65.95 -16.0 69.25 -18.6 L70.05 -18.7 Q70.95 -18.6 72.9 -17.1 74.85 -15.65 76.85 -4.4 78.85 6.85 82.4 19.8 83.05 21.15 85.4 21.9 88.25 22.8 91.25 21.45 99.9 17.6 104.6 -2.2 L103.8 -8.1 Q102.9 -13.2 98.9 -17.85 86.35 -32.45 41.85 -46.7 21.9 -52.75 6.65 -57.7 -18.1 -65.75 -19.45 -66.9 L-17.4 -69.75" fill="#fffff3" fill-rule="evenodd" stroke="none"/>
      <path d="M82.4 19.8 Q78.85 6.85 76.85 -4.4 74.85 -15.65 72.9 -17.1 70.95 -18.6 70.05 -18.7 L69.25 -18.6 Q58.35 -16.7 39.5 29.15 L39.5 29.2 Q30.2 29.45 21.35 26.8 19.45 20.45 18.1 11.95 15.4 -4.7 12.1 -10.9 9.05 -16.65 4.45 -15.1 0.95 -13.9 -2.05 -7.75 -4.65 -2.4 -5.9 4.4 -8.2 16.55 -9.1 19.2 -19.8 14.4 -32.5 4.65 -45.05 -5.0 -55.25 -16.1 -66.0 -27.85 -70.6 -37.5 -75.75 -48.2 -72.05 -54.1 3.25 -54.25 26.2 -47.45 46.55 -41.4 74.85 -23.5 95.7 -10.25 104.6 -2.2 102.95 1.2 94.2 10.25 85.0 19.75 82.4 19.8" fill="#dc8d7c" fill-rule="evenodd" stroke="none"/>
      <path d="M-17.4 -69.75 L-19.45 -66.9 -19.45 -66.95 -71.05 -66.95 Q-72.5 -60.3 -79.2 -49.6 L-89.45 -33.8 Q-103.05 -10.7 -105.95 0.9 -106.7 3.85 -105.45 9.55 -104.45 14.3 -103.7 15.45 -105.0 15.95 -106.5 17.15 -118.9 -3.1 -77.7 -57.95 L-76.15 -63.2 Q-74.7 -68.65 -75.4 -69.7 L-75.5 -69.95 -17.4 -69.75 M-82.5 28.25 Q-80.55 28.2 -76.7 24.8 -72.25 20.8 -67.65 11.0 -63.05 1.15 -61.0 0.85 -58.95 0.55 -58.25 1.7 -57.55 2.8 -56.7 5.3 -36.65 51.3 -25.95 48.45 -15.2 45.55 -12.25 38.65 -9.3 31.7 -7.5 25.75 L0.5 -2.75 Q7.5 -27.95 15.0 16.9 22.5 61.75 51.3 48.25 43.95 63.95 34.4 68.2 6.0 59.0 4.0 42.3 2.0 25.6 -7.05 54.1 -8.95 66.65 -16.35 67.3 -28.45 68.35 -37.3 59.5 -40.45 56.4 -42.6 52.6 -44.35 49.6 -44.6 47.9 -53.85 28.65 -58.5 8.85 -51.05 55.95 -62.65 54.7 -68.95 54.0 -74.95 45.05 -80.05 37.5 -82.5 28.25 M60.75 30.0 Q65.5 16.0 68.4 -5.95 71.45 -14.95 78.45 21.85 85.0 32.9 97.6 26.25 93.35 31.15 90.0 34.05 62.6 42.6 60.75 30.0" fill="#ffcfb7" fill-rule="evenodd" stroke="none"/>
      <path d="M-19.45 -66.9 Q-18.1 -65.75 6.65 -57.7 21.9 -52.75 41.85 -46.7 86.35 -32.45 98.9 -17.85 102.9 -13.2 103.8 -8.1 L104.6 -2.2 Q95.7 -10.25 74.85 -23.5 46.55 -41.4 26.2 -47.45 3.25 -54.25 -72.05 -54.1 -82.05 -45.6 -92.85 -25.2 -106.45 6.75 -103.7 15.45 -104.45 14.3 -105.45 9.55 -106.7 3.85 -105.95 0.9 -103.05 -10.7 -89.45 -33.8 L-79.2 -49.6 Q-72.5 -60.3 -71.05 -66.95 L-19.45 -66.95 -19.45 -66.9" fill="#000000" fill-rule="evenodd" stroke="none"/>
      <path d="M69.25 -18.6 Q65.95 -16.0 62.4 5.25 55.35 47.3 38.0 46.2 35.45 46.2 33.2 45.15 25.8 41.7 21.35 26.8 30.2 29.45 39.5 29.2 L39.5 29.15 Q58.35 -16.7 69.25 -18.6" fill="#c2453a" fill-rule="evenodd" stroke="none"/>
      <path d="M-75.4 -69.7 L-75.45 -69.75 -75.5 -69.95 -75.4 -69.7" fill="#aecbf8" fill-rule="evenodd" stroke="none"/>
      <path d="M104.6 -2.2 Q99.9 17.6 91.25 21.45 88.25 22.8 85.4 21.9 83.05 21.15 82.4 19.8 85.0 19.75 94.2 10.25 102.95 1.2 104.6 -2.2 M-9.1 19.2 Q-10.55 26.5 -13.25 31.65 -24.4 35.25 -42.75 27.6 -55.65 -3.8 -59.4 -5.0 -63.2 -6.2 -69.25 6.95 -89.55 0.4 -92.85 -25.2 -82.05 -45.6 -72.05 -54.1 -75.75 -48.2 -70.6 -37.5 -66.0 -27.85 -55.25 -16.1 -45.05 -5.0 -32.5 4.65 -19.8 14.4 -9.1 19.2" fill="#d26f59" fill-rule="evenodd" stroke="none"/>
      <path d="M-13.25 31.65 Q-27.45 54.6 -42.75 27.6 -24.4 35.25 -13.25 31.65 M-69.25 6.95 Q-72.0 17.15 -79.25 22.9 -88.75 2.45 -93.9 3.2 -96.2 3.35 -99.55 8.25 -99.9 10.6 -103.7 15.45 -106.45 6.75 -92.85 -25.2 -89.55 0.4 -69.25 6.95" fill="#cc5840" fill-rule="evenodd" stroke="none"/>
      <path d="M51.3 48.25 Q56.7 42.05 60.75 30.0 62.6 42.6 90.0 34.05 72.55 48.2 51.3 48.25 M34.4 68.2 Q19.8 74.65 0.05 54.1 -3.5 50.35 -7.05 54.1 2.0 25.6 4.0 42.3 6.0 59.0 34.4 68.2 M-44.6 47.9 Q-52.65 57.1 -62.65 54.7 -51.05 55.95 -58.5 8.85 -53.85 28.65 -44.6 47.9" fill="#d3705a" fill-rule="evenodd" stroke="none"/>
      <path d="M-79.25 22.9 Q-80.45 24.1 -82.4 24.7 -87.9 26.15 -89.45 12.7 -90.55 2.95 -93.9 3.2 -88.75 2.45 -79.25 22.9" fill="#732900" fill-rule="evenodd" stroke="none"/>
      <path d="M-99.55 8.25 Q-91.85 4.75 -89.3 26.5 -100.25 17.95 -106.5 17.15 -105.0 15.95 -103.7 15.45 -99.9 10.6 -99.55 8.25" fill="#e49d87" fill-rule="evenodd" stroke="none"/>
    </g>
    <g id="shape2">
      <path d="M76.8 -5.25 Q73.5 -14.7 77.5 -15.65 L67.75 -21.25 76.8 -5.25 M-16.7 -57.55 Q-6.9 -62.7 4.75 -53.45 11.95 -43.9 14.65 -49.3 39.75 -70.3 68.3 -25.35 102.75 -7.55 107.1 4.8 L106.9 5.4 106.9 5.45 Q89.55 80.65 76.9 9.05 66.6 -10.15 60.05 12.6 60.25 22.8 53.85 37.8 39.6 64.25 33.2 49.75 L23.3 19.2 Q21.1 1.65 8.85 -3.05 -2.75 -9.95 -9.7 18.8 -14.85 56.35 -27.85 59.25 -38.65 58.0 -43.55 28.7 -54.45 -9.75 -68.3 22.5 -80.0 55.2 -89.05 36.95 -90.85 25.45 -95.1 24.15 -100.45 6.6 -76.7 -38.0 -73.0 -40.5 -68.4 -39.15 -65.5 -27.2 -69.0 -10.1 -74.2 -5.7 -73.85 6.85 -72.3 9.15 -78.4 26.1 -72.3 20.05 -69.7 9.4 -69.95 -6.5 -66.9 -8.0 -63.95 -16.25 -62.6 -36.2 L-62.6 -36.25 Q-59.25 -55.5 -40.65 -45.6 -26.85 -35.75 -24.25 -40.75 -18.45 5.75 -17.15 33.75 -12.8 0.65 -2.9 -6.6 -15.8 -32.1 -16.7 -57.55 M86.9 14.25 L91.4 29.9 96.3 19.15 Q91.6 26.05 86.9 14.25 M55.85 17.9 Q56.4 7.25 60.4 3.25 L41.95 -20.75 55.85 17.9 M48.6 37.55 Q38.95 57.35 33.3 34.45 36.6 51.35 39.9 50.45 44.25 50.8 48.6 37.55 M-39.1 -4.2 Q-44.05 -34.25 -58.55 -21.95 -44.2 -27.9 -39.1 -4.2 M-23.4 51.5 Q-35.6 52.05 -41.15 7.3 -49.95 -15.3 -63.45 -2.8 -45.85 -12.2 -42.2 14.95 L-35.25 46.6 Q-30.15 59.95 -23.4 51.5 M-89.6 8.15 Q-85.95 5.35 -82.55 18.75 -83.7 1.65 -89.6 8.15 M-91.7 14.1 Q-88.05 11.3 -84.65 24.7 -85.8 7.6 -91.7 14.1 M-79.9 12.35 Q-81.05 -4.75 -86.95 1.75 -83.3 -1.05 -79.9 12.35" fill="#fffff3" fill-rule="evenodd" stroke="none"/>
      <path d="M76.8 -5.25 L67.75 -21.25 77.5 -15.65 Q73.5 -14.7 76.8 -5.25 M-16.7 -57.55 Q-15.8 -32.1 -2.9 -6.6 -12.8 0.65 -17.15 33.75 -18.45 5.75 -24.25 -40.75 L-22.85 -48.0 Q-20.75 -55.45 -16.7 -57.55 M-62.6 -36.2 Q-63.95 -16.25 -66.9 -8.0 -69.95 -6.5 -69.7 9.4 -72.3 20.05 -78.4 26.1 -72.3 9.15 -73.85 6.85 -74.2 -5.7 -69.0 -10.1 -65.5 -27.2 -68.4 -39.15 -65.65 -38.35 -62.6 -36.2 M-76.7 -38.0 Q-100.45 6.6 -95.1 24.15 -105.05 23.0 -107.65 33.5 -109.85 42.45 -106.4 50.2 -109.55 48.15 -110.8 42.65 -112.3 35.95 -110.35 26.35 -108.7 18.25 -93.5 -9.7 -79.0 -36.4 -76.7 -38.0 M86.9 14.25 Q91.6 26.05 96.3 19.15 L91.4 29.9 86.9 14.25 M55.85 17.9 L41.95 -20.75 60.4 3.25 Q56.4 7.25 55.85 17.9 M48.6 37.55 Q44.25 50.8 39.9 50.45 36.6 51.35 33.3 34.45 38.95 57.35 48.6 37.55 M-39.1 -4.2 Q-44.2 -27.9 -58.55 -21.95 -44.05 -34.25 -39.1 -4.2 M-91.7 14.1 Q-85.8 7.6 -84.65 24.7 -88.05 11.3 -91.7 14.1 M-89.6 8.15 Q-83.7 1.65 -82.55 18.75 -85.95 5.35 -89.6 8.15 M-23.4 51.5 Q-30.15 59.95 -35.25 46.6 L-42.2 14.95 Q-45.85 -12.2 -63.45 -2.8 -49.95 -15.3 -41.15 7.3 -35.6 52.05 -23.4 51.5 M-79.9 12.35 Q-83.3 -1.05 -86.95 1.75 -81.05 -4.75 -79.9 12.35" fill="#ffcfb7" fill-rule="evenodd" stroke="none"/>
      <path d="M-95.1 24.15 Q-90.85 25.45 -89.05 36.95 -80.0 55.2 -68.3 22.5 -54.45 -9.75 -43.55 28.7 -38.65 58.0 -27.85 59.25 -14.85 56.35 -9.7 18.8 -2.75 -9.95 8.85 -3.05 21.1 1.65 23.3 19.2 L33.2 49.75 Q39.6 64.25 53.85 37.8 60.25 22.8 60.05 12.6 66.6 -10.15 76.9 9.05 89.55 80.65 106.9 5.45 107.25 22.85 109.85 24.4 102.7 43.3 96.35 55.15 85.35 70.5 78.6 44.45 74.95 24.3 72.0 18.9 68.75 14.55 63.65 31.85 58.85 62.4 52.7 72.65 27.25 97.2 18.45 49.75 13.9 24.05 10.35 21.0 0.25 13.95 -7.3 46.0 -9.7 69.5 -20.35 76.05 -35.7 87.3 -55.35 39.8 -62.2 23.65 -67.05 35.9 -69.15 44.8 -72.65 51.0 -87.95 71.85 -89.75 43.5 -92.5 32.55 -99.15 42.95 -100.75 47.5 -106.4 50.2 -109.85 42.45 -107.65 33.5 -105.05 23.0 -95.1 24.15" fill="#000000" fill-rule="evenodd" stroke="none"/>
    </g>
    <g id="shape3">
      <path d="M20.65 9.75 L20.9 9.85 Q16.3 12.6 12.05 14.65 L14.05 11.5 Q17.55 11.45 20.65 9.75 M8.35 16.35 Q-5.5 22.05 -15.85 19.65 -34.5 11.45 -22.5 3.05 -22.25 4.1 -21.6 4.5 L-21.5 4.45 Q-20.1 4.7 -17.75 6.55 -17.2 7.3 -16.2 6.95 -15.65 9.05 -14.5 10.75 -13.15 12.75 -11.7 12.95 -9.45 13.45 -7.6 11.4 L-7.15 12.45 -5.95 14.0 Q-4.0 16.0 -1.25 15.8 0.4 15.6 0.85 12.8 1.65 11.95 2.45 12.8 5.7 16.15 8.35 16.35" fill="#000000" fill-opacity="0.3019608" fill-rule="evenodd" stroke="none"/>
      <path d="M-1.3 -19.85 Q0.9 -21.05 3.55 -18.95 5.15 -16.8 5.8 -18.0 11.45 -22.75 17.9 -12.55 25.7 -8.55 26.7 -5.75 L26.65 -5.6 26.2 -3.75 25.7 -2.05 25.3 -0.65 Q22.25 8.4 19.95 -4.4 L19.85 -4.8 Q18.2 -7.85 17.0 -6.2 16.45 -5.55 16.05 -4.0 L15.75 -1.55 14.65 1.7 Q13.3 4.2 12.25 5.1 10.8 6.3 9.95 4.4 L7.75 -2.5 Q7.25 -6.5 4.45 -7.55 1.8 -9.1 0.25 -2.6 -0.35 1.7 -1.35 4.0 -2.4 6.25 -3.85 6.55 -6.3 6.25 -7.4 -0.35 L-7.45 -0.5 Q-9.2 -6.6 -11.3 -4.55 -12.15 -3.75 -13.0 -1.75 -13.75 0.4 -14.5 1.6 -16.25 4.45 -17.7 1.5 -18.1 -1.1 -19.05 -1.4 L-19.25 -3.4 -19.1 -4.7 -18.2 -8.1 Q-17.15 -11.25 -14.9 -15.45 L-13.0 -15.7 -12.9 -15.25 -12.8 -14.6 Q-12.65 -13.25 -12.75 -11.65 L-13.15 -9.1 -13.7 -8.35 Q-14.3 -7.3 -14.25 -5.3 -13.9 -4.8 -15.25 -0.95 -13.9 -2.3 -13.3 -4.7 L-13.2 -7.3 Q-13.05 -8.45 -12.65 -8.65 -12.3 -9.7 -12.0 -11.65 L-11.75 -14.6 -11.7 -15.0 -11.7 -15.05 -11.65 -15.25 Q-10.85 -19.35 -6.75 -17.15 -3.65 -14.95 -3.05 -16.05 L-2.95 -15.2 -2.85 -14.6 -2.5 -11.45 Q-1.65 -4.1 -1.4 0.8 -0.45 -6.7 1.8 -8.35 L0.5 -11.3 -0.4 -13.95 -0.6 -14.65 Q-1.25 -17.25 -1.3 -19.85 M26.85 -2.7 L27.15 -1.8 27.2 -1.4 Q26.95 -1.7 26.85 -2.7 M27.2 -1.05 L26.8 1.65 Q26.05 4.75 24.55 6.5 21.7 8.0 20.2 5.5 18.6 -2.85 17.95 -0.8 17.25 4.15 16.2 7.35 L15.95 8.0 Q15.1 10.25 14.05 11.5 7.55 14.5 5.85 4.4 L5.85 4.25 Q4.15 -5.75 2.6 -0.05 L1.8 2.75 0.75 6.4 -0.3 9.3 Q-1.0 10.85 -3.4 11.5 -5.85 12.15 -10.35 1.75 L-10.7 0.95 Q-10.9 0.65 -11.35 0.75 -11.8 0.8 -12.85 3.05 -13.9 5.25 -14.9 6.15 L-16.2 6.95 Q-17.2 7.3 -17.75 6.55 -18.25 2.4 -19.55 2.35 -18.4 0.85 -17.85 3.0 -17.45 9.4 -13.95 4.7 -13.2 3.3 -12.7 1.3 -11.65 -1.5 -10.05 2.15 -5.65 12.9 -2.15 10.35 0.25 8.85 0.8 3.55 2.5 -3.7 4.8 -2.1 5.6 -1.4 6.65 4.4 8.6 15.15 14.4 9.6 15.75 7.25 16.85 0.35 18.0 -3.55 18.75 -2.55 19.4 -1.35 20.25 3.2 21.75 9.1 24.25 5.65 L27.2 -1.05 M11.95 -11.55 L15.1 -2.8 Q15.2 -5.2 16.1 -6.1 L11.95 -11.55 M17.8 -11.65 L19.85 -8.0 Q19.1 -10.15 20.0 -10.4 L17.8 -11.65 M24.25 -2.5 L23.55 -1.95 22.55 -2.65 22.1 -3.6 23.15 -0.1 24.25 -2.5 M-16.2 -2.6 Q-16.5 -6.45 -17.8 -5.0 -17.0 -5.65 -16.2 -2.6 M-16.7 -1.25 Q-16.95 -5.1 -18.25 -3.65 -17.45 -4.25 -16.7 -1.25 M-15.6 -4.05 Q-15.9 -7.9 -17.2 -6.45 -16.4 -7.1 -15.6 -4.05 M-8.25 -11.6 Q-7.0 -10.7 -6.4 -7.8 -6.85 -10.45 -7.6 -11.6 -8.8 -13.55 -10.8 -11.8 -9.3 -12.45 -8.25 -11.6 M-11.9 -7.45 Q-7.95 -9.6 -7.1 -3.45 L-5.5 3.7 Q-4.35 6.7 -2.85 4.8 -4.55 4.85 -5.7 1.0 -6.4 -1.4 -6.85 -5.2 -8.85 -10.3 -11.9 -7.45 M13.45 1.65 Q11.25 6.15 10.0 0.95 10.75 4.75 11.5 4.55 12.45 4.65 13.45 1.65" fill="#fffff3" fill-rule="evenodd" stroke="none"/>
      <path d="M26.65 -5.6 L26.85 -2.7 Q26.95 -1.7 27.2 -1.4 L27.3 -1.3 27.2 -1.05 24.25 5.65 Q21.75 9.1 20.25 3.2 19.4 -1.35 18.75 -2.55 18.0 -3.55 16.85 0.35 15.75 7.25 14.4 9.6 8.6 15.15 6.65 4.4 5.6 -1.4 4.8 -2.1 2.5 -3.7 0.8 3.55 0.25 8.85 -2.15 10.35 -5.65 12.9 -10.05 2.15 -11.65 -1.5 -12.7 1.3 -13.2 3.3 -13.95 4.7 -17.45 9.4 -17.85 3.0 -18.4 0.85 -19.55 2.35 L-19.95 2.9 Q-20.3 3.85 -21.5 4.45 L-21.6 4.5 -21.7 4.25 Q-22.35 2.6 -21.9 0.75 -21.6 -0.4 -20.95 -0.95 L-20.0 -1.35 -19.05 -1.4 Q-18.1 -1.1 -17.7 1.5 -16.25 4.45 -14.5 1.6 -13.75 0.4 -13.0 -1.75 -12.15 -3.75 -11.3 -4.55 -9.2 -6.6 -7.45 -0.5 L-7.4 -0.35 Q-6.3 6.25 -3.85 6.55 -2.4 6.25 -1.35 4.0 -0.35 1.7 0.25 -2.6 1.8 -9.1 4.45 -7.55 7.25 -6.5 7.75 -2.5 L9.95 4.4 Q10.8 6.3 12.25 5.1 13.3 4.2 14.65 1.7 L15.75 -1.55 16.05 -4.0 Q16.45 -5.55 17.0 -6.2 18.2 -7.85 19.85 -4.8 L19.95 -4.4 Q22.25 8.4 25.3 -0.65 L25.7 -2.05 26.2 -3.75 26.65 -5.6" fill="#000000" fill-rule="evenodd" stroke="none"/>
      <path d="M24.55 6.5 L22.8 8.25 18.75 9.05 Q17.15 9.05 16.55 8.25 L16.2 7.35 Q17.25 4.15 17.95 -0.8 18.6 -2.85 20.2 5.5 21.7 8.0 24.55 6.5 M12.05 14.65 L10.25 16.0 9.6 15.8 Q3.8 13.7 3.35 10.15 2.9 6.35 0.85 12.8 0.4 15.6 -1.25 15.8 -4.0 16.0 -5.95 14.0 L-7.15 12.45 -7.6 11.4 Q-9.7 7.0 -10.75 2.55 -9.1 13.2 -11.7 12.95 -13.15 12.75 -14.5 10.75 -15.65 9.05 -16.2 6.95 L-14.9 6.15 Q-13.9 5.25 -12.85 3.05 -11.8 0.8 -11.35 0.75 -10.9 0.65 -10.7 0.95 L-10.35 1.75 Q-5.85 12.15 -3.4 11.5 -1.0 10.85 -0.3 9.3 L0.75 6.4 1.8 2.75 2.6 -0.05 Q4.15 -5.75 5.85 4.25 L5.85 4.4 Q7.55 14.5 14.05 11.5 L12.05 14.65 M-22.5 3.05 L-22.6 2.8 Q-22.95 1.3 -22.5 -0.9 -22.15 -2.75 -18.7 -9.05 -15.4 -15.1 -14.9 -15.45 -17.15 -11.25 -18.2 -8.1 L-19.1 -4.7 -19.25 -3.4 -19.05 -1.4 -20.0 -1.35 -20.95 -0.95 Q-21.6 -0.4 -21.9 0.75 -22.35 2.6 -21.7 4.25 L-21.6 4.5 Q-22.25 4.1 -22.5 3.05 M-13.0 -15.7 L-12.05 -15.25 -11.65 -15.25 -11.7 -15.05 -11.7 -15.0 -11.75 -14.6 -12.0 -11.65 Q-12.3 -9.7 -12.65 -8.65 -13.05 -8.45 -13.2 -7.3 L-13.3 -4.7 Q-13.9 -2.3 -15.25 -0.95 -13.9 -4.8 -14.25 -5.3 -14.3 -7.3 -13.7 -8.35 L-13.15 -9.1 -12.75 -11.65 Q-12.65 -13.25 -12.8 -14.6 L-12.9 -15.25 -13.0 -15.7 M-3.05 -16.05 L-2.7 -17.7 Q-2.25 -19.4 -1.3 -19.85 -1.25 -17.25 -0.6 -14.65 L-0.4 -13.95 0.5 -11.3 1.8 -8.35 Q-0.45 -6.7 -1.4 0.8 -1.65 -4.1 -2.5 -11.45 L-2.85 -14.6 -2.95 -15.2 -3.05 -16.05 M17.8 -11.65 L20.0 -10.4 Q19.1 -10.15 19.85 -8.0 L17.8 -11.65 M11.95 -11.55 L16.1 -6.1 Q15.2 -5.2 15.1 -2.8 L11.95 -11.55 M24.25 -2.5 L23.15 -0.1 22.1 -3.6 22.55 -2.65 23.55 -1.95 24.25 -2.5 M-16.7 -1.25 Q-17.45 -4.25 -18.25 -3.65 -16.95 -5.1 -16.7 -1.25 M-16.2 -2.6 Q-17.0 -5.65 -17.8 -5.0 -16.5 -6.45 -16.2 -2.6 M-15.6 -4.05 Q-16.4 -7.1 -17.2 -6.45 -15.9 -7.9 -15.6 -4.05 M-8.25 -11.6 Q-9.3 -12.45 -10.8 -11.8 -8.8 -13.55 -7.6 -11.6 -6.85 -10.45 -6.4 -7.8 -7.0 -10.7 -8.25 -11.6 M-11.9 -7.45 Q-8.85 -10.3 -6.85 -5.2 -6.4 -1.4 -5.7 1.0 -4.55 4.85 -2.85 4.8 -4.35 6.7 -5.5 3.7 L-7.1 -3.45 Q-7.95 -9.6 -11.9 -7.45 M13.45 1.65 Q12.45 4.65 11.5 4.55 10.75 4.75 10.0 0.95 11.25 6.15 13.45 1.65" fill="#ffcfb7" fill-rule="evenodd" stroke="none"/>
      <path d="M22.8 8.25 L20.65 9.75 Q17.55 11.45 14.05 11.5 15.1 10.25 15.95 8.0 L16.2 7.35 16.55 8.25 Q17.15 9.05 18.75 9.05 L22.8 8.25 M10.25 16.0 L8.35 16.35 Q5.7 16.15 2.45 12.8 1.65 11.95 0.85 12.8 2.9 6.35 3.35 10.15 3.8 13.7 9.6 15.8 L10.25 16.0 M-11.7 12.95 Q-9.1 13.2 -10.75 2.55 -9.7 7.0 -7.6 11.4 -9.45 13.45 -11.7 12.95" fill="#d3705a" fill-rule="evenodd" stroke="none"/>
      <path d="M-21.5 4.45 Q-20.3 3.85 -19.95 2.9 L-19.55 2.35 Q-18.25 2.4 -17.75 6.55 -20.1 4.7 -21.5 4.45" fill="#e49d87" fill-rule="evenodd" stroke="none"/>
    </g>
    <g id="shape4">
      <path d="M-8.45 6.2 Q-11.9 4.2 -11.9 1.0 -11.9 -2.2 -8.45 -4.75 -4.95 -7.3 0.0 -7.7 4.95 -8.15 8.4 -6.15 11.9 -4.15 11.95 -0.9 11.9 2.3 8.4 4.85 4.95 7.4 0.0 7.8 -4.95 8.2 -8.45 6.2" fill="#000000" fill-opacity="0.3019608" fill-rule="evenodd" stroke="none"/>
    </g>
    <g id="shape5">
      <path d="M441.45 209.5 Q437.15 215.65 452.85 220.85 456.85 222.0 461.1 222.7 L460.5 225.6 460.5 225.65 Q442.05 219.75 439.85 215.1 437.6 210.4 441.45 209.5" fill="#970000" fill-rule="evenodd" stroke="none"/>
      <path d="M458.85 189.75 Q461.65 194.8 466.85 198.5 462.5 198.7 458.85 199.85 444.6 204.9 441.45 209.5 437.6 210.4 439.85 215.1 442.05 219.75 460.5 225.65 L460.5 225.6 460.55 225.65 Q459.65 231.4 459.9 238.4 L459.8 238.4 449.75 232.95 Q419.25 220.85 430.6 206.3 L433.5 202.9 433.55 202.9 Q445.25 193.75 458.85 189.75" fill="#ef0000" fill-rule="evenodd" stroke="none"/>
      <path d="M433.5 202.9 Q443.35 192.25 458.6 188.9 L458.85 189.75 Q445.25 193.75 433.55 202.9 L433.5 202.9" fill="#ff6262" fill-rule="evenodd" stroke="none"/>
    </g>
    <g id="sprite0">
      <use ffdec:characterId="8" height="81.2" transform="matrix(1.0, 0.0, 0.0, 1.0, 0.0, 0.0)" width="64.4" xlink:href="#morphshape0"/>
      <use ffdec:characterId="10" height="13.4" transform="matrix(-0.8349, 0.4315, 0.4315, 0.8349, -22.65, -42.05)" width="13.4" xlink:href="#sprite1"/>
      <use ffdec:characterId="10" height="13.4" transform="matrix(-0.8349, 0.4315, 0.4315, 0.8349, 36.95, -52.75)" width="13.4" xlink:href="#sprite1"/>
    </g>
    <g id="morphshape0">
      <path d="M-22.65 -42.1 Q1.9 -29.2 8.15 -2.6 14.35 23.95 18.75 24.45 23.1 24.95 31.2 -0.15 39.25 -25.3 36.95 -52.7" fill="none" stroke="#ff0000" stroke-linecap="round" stroke-linejoin="round" stroke-width="2.0"/>
    </g>
    <g id="sprite1">
      <use ffdec:characterId="9" height="13.4" transform="matrix(1.0, 0.0, 0.0, 1.0, 0.0, 0.0)" width="13.4" xlink:href="#shape6"/>
    </g>
    <g id="shape6">
      <path d="M4.75 -4.75 Q6.7 -2.8 6.7 0.0 6.7 2.8 4.75 4.75 2.8 6.7 0.0 6.7 -2.8 6.7 -4.75 4.75 -6.7 2.8 -6.7 0.0 -6.7 -2.8 -4.75 -4.75 -2.8 -6.7 0.0 -6.7 2.8 -6.7 4.75 -4.75" fill="url(#gradient0)" fill-rule="evenodd" stroke="none"/>
    </g>
    <radialGradient cx="0" cy="0" gradientTransform="matrix(0.0105, 0.0, 0.0, 0.0105, -1.1, -1.5)" gradientUnits="userSpaceOnUse" id="gradient0" r="819.2" spreadMethod="pad">
      <stop offset="0.0" stop-color="#fbf6e7"/>
      <stop offset="0.4588235294117647" stop-color="#ffa737"/>
      <stop offset="1.0" stop-color="#b54200"/>
    </radialGradient>
    <g id="shape7">
      <path d="M44.3 71.0 Q45.65 68.15 47.15 62.4 49.0 55.25 48.45 51.4 -5.3 74.35 -33.3 69.65 -28.4 76.9 -19.55 84.0 6.8 104.75 44.3 71.0 M39.7 28.75 L33.2 20.15 Q28.95 14.8 23.1 10.35 5.1 7.85 -10.0 8.6 -21.75 12.75 -37.9 42.45 -14.75 49.7 39.7 28.75 M7.35 -9.4 Q6.15 -11.5 -9.55 -42.5 -19.1 -52.25 -23.55 -38.5 L-26.1 -27.65 Q-27.95 -17.5 -25.85 -9.75 -13.45 -13.9 7.35 -9.4" fill="#ef0000" fill-rule="evenodd" stroke="none"/>
      <path d="M-31.15 -7.35 Q-28.95 -8.7 -25.85 -9.75 -27.95 -17.5 -26.1 -27.65 -28.85 -16.05 -31.15 -7.35 M-10.0 8.6 Q-27.75 9.5 -41.8 15.15 -49.25 26.35 -51.4 31.75 L-51.15 32.2 Q-47.1 39.5 -37.9 42.45 -21.75 12.75 -10.0 8.6 M-55.25 57.5 Q-56.0 63.3 -50.2 73.35 -44.45 83.35 -31.05 90.85 -17.7 98.3 -6.3 97.45 11.5 96.35 27.35 88.1 38.85 82.2 44.3 71.0 6.8 104.75 -19.55 84.0 -28.4 76.9 -33.3 69.65 -37.0 69.05 -45.25 64.45 -53.35 59.85 -55.25 57.5" fill="#970000" fill-rule="evenodd" stroke="none"/>
      <path d="M-31.15 -7.35 Q-35.35 3.65 -41.8 15.15 -27.75 9.5 -10.0 8.6 L-10.0 8.5 Q-22.65 2.05 -25.85 -9.75 -28.95 -8.7 -31.15 -7.35 M-51.7 32.5 Q-55.75 49.0 -55.25 57.5 -53.35 59.85 -45.25 64.45 -37.0 69.05 -33.3 69.65 -41.85 56.55 -37.9 42.45 -47.1 39.5 -51.15 32.2 L-51.7 32.5" fill="#000066" fill-rule="evenodd" stroke="none"/>
      <path d="M-25.85 -9.75 Q-22.65 2.05 -10.0 8.5 L-10.0 8.6 Q5.1 7.85 23.1 10.35 15.4 4.4 7.35 -9.4 -13.45 -13.9 -25.85 -9.75 M-51.4 31.75 L-51.7 32.5 -51.15 32.2 -51.4 31.75 M48.45 51.4 Q46.25 36.85 39.7 28.75 -14.75 49.7 -37.9 42.45 -41.85 56.55 -33.3 69.65 -5.3 74.35 48.45 51.4" fill="#0000db" fill-rule="evenodd" stroke="none"/>
      <path d="M11.9 10.6 Q32.6 28.85 34.3 50.3 35.45 64.65 29.4 73.9 63.3 42.2 21.0 11.4 3.75 -1.1 -0.9 -13.45 -0.85 -0.6 11.9 10.6" fill="#ffffff" fill-opacity="0.4117647" fill-rule="evenodd" stroke="none"/>
    </g>
    <g id="sprite2">
      <use ffdec:characterId="15" height="21.8" transform="matrix(1.0, 0.0, 0.0, 1.0, 0.0, 0.0)" width="21.85" xlink:href="#shape8"/>
    </g>
    <g id="shape8">
      <path d="M6.75 -8.5 Q10.3 -5.7 10.85 -1.25 11.35 3.2 8.55 6.75 5.75 10.3 1.25 10.8 -3.2 11.3 -6.7 8.55 -10.25 5.7 -10.8 1.25 -11.3 -3.2 -8.5 -6.75 -5.7 -10.3 -1.2 -10.8 3.2 -11.35 6.75 -8.5" fill="url(#gradient1)" fill-rule="evenodd" stroke="none"/>
    </g>
    <radialGradient cx="0" cy="0" gradientTransform="matrix(0.0187, 0.0, 0.0, 0.0187, -3.75, -2.45)" gradientUnits="userSpaceOnUse" id="gradient1" r="819.2" spreadMethod="pad">
      <stop offset="0.25098039215686274" stop-color="#ffffff"/>
      <stop offset="0.8549019607843137" stop-color="#8eb5f8"/>
      <stop offset="0.996078431372549" stop-color="#0859d4"/>
    </radialGradient>
    <g id="sprite3">
      <use ffdec:characterId="17" height="26.0" transform="matrix(1.0, 0.0, 0.0, 1.0, 0.0, 0.0)" width="250.65" xlink:href="#morphshape1"/>
    </g>
    <g id="morphshape1">
      <path d="M-142.75 -12.95 L0.75 -12.95 Q39.1 -16.45 44.65 -23.2 45.7 -29.2 77.85 -31.05 108.2 -32.55 107.9 -38.95 L22.85 -38.95 Q16.6 -32.95 -14.6 -33.1 -69.95 -31.05 -77.55 -23.2 -82.5 -16.65 -142.7 -12.95" fill="#240000" fill-opacity="0.3019608" fill-rule="evenodd" stroke="none"/>
      <path d="M-142.7 -12.95 Q-82.5 -16.65 -77.55 -23.2 -69.95 -31.05 -14.6 -33.1 16.6 -32.95 22.85 -38.95 L107.9 -38.95 Q108.2 -32.55 77.85 -31.05 45.7 -29.2 44.65 -23.2 39.1 -16.45 0.75 -12.95 L-142.75 -12.95" ffdec:has-small-stroke="true" ffdec:original-stroke-width="0.0" fill="none" stroke="#000000" stroke-linecap="round" stroke-linejoin="round" stroke-opacity="0.0" stroke-width="1.0"/>
    </g>
    <g id="shape9">
      <path d="M46.4 109.05 Q-3.95 106.25 -54.2 110.15 -46.3 6.7 -50.95 -109.35 -28.3 -106.8 48.15 -110.2 40.5 -2.1 46.4 109.05" fill="#0000ab" fill-rule="evenodd" stroke="none"/>
    </g>
    <g id="shape10">
      <path d="M-43.2 -33.85 L-43.25 -7.95 -16.45 -6.05 -43.55 -5.8 Q-39.95 1.5 -42.7 7.75 L-32.8 9.55 Q-35.8 10.65 -43.0 9.55 -41.3 16.25 -44.0 23.0 L-45.5 22.75 Q-44.2 16.55 -44.0 9.55 -43.65 2.85 -44.3 -7.5 -44.85 -15.6 -44.7 -33.85 L-43.2 -33.85" fill="#d28a10" fill-rule="evenodd" stroke="none"/>
      <path d="M-44.0 23.0 Q-41.3 16.25 -43.0 9.55 -35.8 10.65 -32.8 9.55 L-42.7 7.75 Q-39.95 1.5 -43.55 -5.8 L-16.45 -6.05 -43.25 -7.95 -43.2 -33.85 Q13.7 -39.6 45.5 -33.05 43.5 -5.65 43.6 5.2 38.7 7.5 32.15 8.0 L43.65 8.0 Q42.95 16.55 44.95 23.0 L-44.0 23.0" fill="#edab3c" fill-rule="evenodd" stroke="none"/>
    </g>
    <g id="shape11">
      <path d="M5.85 -14.1 Q-19.5 -19.25 -38.35 -18.6 L-38.35 -20.3 Q7.75 -19.75 38.35 -15.15 L38.35 -11.85 Q24.6 -11.4 5.85 -14.1" fill="#d28a10" fill-opacity="0.4392157" fill-rule="evenodd" stroke="none"/>
    </g>
    <g id="shape12">
      <path d="M-2.65 -107.9 L-2.1 -107.9 Q1.25 -107.85 1.7 -105.3 9.55 8.8 3.4 104.05 2.95 107.0 -1.6 107.95 8.15 89.2 -2.65 -107.9" fill="#f7be66" fill-rule="evenodd" stroke="none"/>
      <path d="M-1.6 107.95 Q-6.5 107.4 -6.0 104.15 1.85 8.8 -6.0 -105.3 -5.5 -107.8 -2.65 -107.9 8.15 89.2 -1.6 107.95" fill="#d28a10" fill-rule="evenodd" stroke="none"/>
    </g>
    <g id="shape13">
      <path d="M2.7 -107.9 L2.55 -105.1 Q-8.05 89.35 1.65 107.95 -2.9 107.0 -3.35 104.05 -9.5 9.05 -1.7 -104.7 L-1.65 -105.3 Q-1.35 -107.0 2.7 -107.9" fill="#d28a10" fill-rule="evenodd" stroke="none"/>
      <path d="M1.65 107.95 Q-8.05 89.35 2.55 -105.1 L2.7 -107.9 Q5.5 -107.8 6.05 -105.35 L6.05 -105.3 Q-1.8 8.8 6.05 104.15 6.55 107.4 1.65 107.95" fill="#f7be66" fill-rule="evenodd" stroke="none"/>
    </g>
    <g id="shape14">
      <path d="M2.45 -4.15 Q3.8 0.05 2.55 4.0 L-0.35 4.1 Q0.8 2.1 0.2 -4.15 L2.45 -4.15" fill="#000000" fill-opacity="0.3019608" fill-rule="evenodd" stroke="none"/>
    </g>
    <g id="shape15">
      <path d="M-4.5 -7.25 Q-0.3 -2.9 5.3 5.1 5.35 6.8 3.85 6.3 -1.05 -1.1 -5.95 -5.8 -6.65 -7.95 -4.5 -7.25" fill="#391000" fill-rule="evenodd" stroke="none"/>
    </g>
    <g id="sprite4">
      <use ffdec:characterId="29" height="5.7" transform="matrix(1.0, 0.0, 0.0, 1.0, 0.0, 0.0)" width="5.8" xlink:href="#shape16"/>
    </g>
    <g id="shape16">
      <path d="M0.0 -2.3 Q-0.45 -2.25 -0.7 -1.9 L-0.9 -1.1 Q-0.85 -0.65 -0.45 -0.35 -0.1 -0.05 0.35 -0.1 0.8 -0.15 1.05 -0.45 1.35 -0.85 1.3 -1.3 L0.85 -2.05 0.0 -2.3 M1.65 -2.2 Q2.65 -1.45 2.85 -0.25 3.0 0.95 2.3 1.85 1.6 2.75 0.45 2.85 -0.75 2.95 -1.7 2.25 -2.7 1.45 -2.85 0.25 -3.05 -0.95 -2.3 -1.85 -1.65 -2.75 -0.45 -2.85 0.7 -2.95 1.65 -2.2" fill="#000000" fill-rule="evenodd" stroke="none"/>
      <path d="M0.0 -2.3 L0.85 -2.05 1.3 -1.3 Q1.35 -0.85 1.05 -0.45 0.8 -0.15 0.35 -0.1 -0.1 -0.05 -0.45 -0.35 -0.85 -0.65 -0.9 -1.1 L-0.7 -1.9 Q-0.45 -2.25 0.0 -2.3" fill="#ffffff" fill-rule="evenodd" stroke="none"/>
    </g>
    <g id="shape17">
      <path d="M8.1 7.15 Q6.5 8.8 3.5 9.15 -1.25 9.85 -3.4 2.0 -4.55 -2.4 -8.55 -2.25 -11.55 -1.8 -12.5 0.8 -11.5 -2.45 -7.7 -2.95 -3.7 -3.05 -2.6 1.3 -0.4 9.15 4.3 8.45 6.6 8.2 8.1 7.15 M-15.35 9.85 Q-16.65 11.2 -18.5 11.3 -27.45 12.05 -26.15 -1.2 -26.0 -3.7 -23.65 -5.45 -25.25 -3.9 -25.35 -1.9 -26.65 11.35 -17.7 10.65 -16.4 10.55 -15.35 9.85" fill="#9f9f9f" fill-rule="evenodd" stroke="none"/>
      <path d="M-24.8 -6.4 Q-20.55 -9.7 -10.0 -10.7 2.0 -11.9 6.8 -9.55 L8.05 -8.8 9.2 -7.85 Q9.95 -7.05 10.55 -5.4 11.8 -1.25 11.75 3.35 L11.2 6.15 Q10.45 8.3 8.15 9.8 6.4 10.95 2.45 11.05 -2.05 11.05 -4.15 4.4 -5.35 -0.4 -8.3 -0.1 -11.25 0.2 -11.55 5.15 -12.5 12.1 -16.95 12.75 -29.2 15.7 -27.75 -1.35 -27.6 -3.2 -24.8 -6.4 M15.35 0.55 L16.5 -1.4 16.45 -4.1 Q19.65 0.05 25.6 1.45 L21.3 6.45 Q15.75 6.8 15.35 0.55 M15.2 -6.9 Q16.05 -4.05 15.95 -1.5 L13.85 1.3 Q14.05 -2.1 13.15 -4.8 14.55 -5.8 15.2 -6.9 M-12.5 0.8 Q-11.55 -1.8 -8.55 -2.25 -4.55 -2.4 -3.4 2.0 -1.25 9.85 3.5 9.15 6.5 8.8 8.1 7.15 11.25 3.85 8.85 -4.65 7.2 -11.05 -8.65 -9.5 L-9.8 -9.4 Q-19.75 -8.4 -23.65 -5.45 -26.0 -3.7 -26.15 -1.2 -27.45 12.05 -18.5 11.3 -16.65 11.2 -15.35 9.85 -13.45 7.8 -12.95 2.9 -12.9 1.7 -12.5 0.8" fill="#333333" fill-rule="evenodd" stroke="none"/>
      <path d="M9.7 -11.7 L6.8 -9.55 Q2.0 -11.9 -10.0 -10.7 -20.55 -9.7 -24.8 -6.4 -22.2 -8.55 -19.05 -9.9 -14.65 -11.9 -6.75 -12.7 4.9 -13.85 9.7 -11.7" fill="#ffb871" fill-rule="evenodd" stroke="none"/>
      <path d="M6.8 -9.55 L9.7 -11.7 11.05 -11.0 8.05 -8.8 6.8 -9.55" fill="#ffa851" fill-rule="evenodd" stroke="none"/>
      <path d="M8.05 -8.8 L11.05 -11.0 12.2 -10.05 9.2 -7.85 8.05 -8.8" fill="#ff9933" fill-rule="evenodd" stroke="none"/>
      <path d="M12.85 3.35 L14.65 1.4 Q14.45 2.95 13.9 4.25 L11.2 6.15 11.75 3.35 12.85 3.35" fill="#f27900" fill-rule="evenodd" stroke="none"/>
      <path d="M13.6 -7.95 Q12.3 -6.5 10.55 -5.4 9.95 -7.05 9.2 -7.85 L12.2 -10.05 Q13.1 -9.15 13.6 -7.95" fill="#ff8d1c" fill-rule="evenodd" stroke="none"/>
      <path d="M13.9 4.25 Q12.35 7.95 8.15 9.8 10.45 8.3 11.2 6.15 L13.9 4.25" fill="#df7000" fill-rule="evenodd" stroke="none"/>
      <path d="M16.45 -4.1 L16.1 -6.4 Q19.4 -0.7 27.35 1.25 L23.1 6.2 21.3 6.45 25.6 1.45 Q19.65 0.05 16.45 -4.1" fill="#666666" fill-rule="evenodd" stroke="none"/>
      <path d="M15.45 -8.7 Q13.3 -6.0 11.95 -5.25 L10.55 -5.4 Q12.3 -6.5 13.6 -7.95 L14.0 -8.5 15.45 -8.75 15.45 -8.7" fill="#ffff99" fill-rule="evenodd" stroke="none"/>
      <path d="M11.95 -5.25 Q13.4 -1.0 12.85 3.35 L11.75 3.35 Q11.8 -1.25 10.55 -5.4 L11.95 -5.25" fill="#cc9900" fill-rule="evenodd" stroke="none"/>
      <path d="M15.45 -8.7 L16.1 -6.4 16.45 -4.1 16.5 -1.4 15.35 0.55 14.65 1.4 12.85 3.35 Q13.4 -1.0 11.95 -5.25 13.3 -6.0 15.45 -8.7 M15.2 -6.9 Q14.55 -5.8 13.15 -4.8 14.05 -2.1 13.85 1.3 L15.95 -1.5 Q16.05 -4.05 15.2 -6.9" fill="#ffcc00" fill-rule="evenodd" stroke="none"/>
    </g>
    <g id="shape18">
      <path d="M-0.05 -4.8 Q0.7 -4.85 0.75 -4.25 0.2 1.05 2.75 4.1 L0.3 3.85 -0.15 3.9 -3.25 4.3 Q0.3 0.5 -0.5 -4.2 L-0.55 -4.45 -0.05 -4.8" fill="#fbc115" fill-rule="evenodd" stroke="none"/>
      <path d="M-0.05 -4.8 L0.4 -4.85 Q1.4 -4.9 1.4 -4.2 1.05 1.5 4.65 4.7 L3.75 4.35 2.75 4.1 Q0.2 1.05 0.75 -4.25 0.7 -4.85 -0.05 -4.8" fill="#e98c01" fill-rule="evenodd" stroke="none"/>
      <path d="M-3.25 4.3 L-4.7 4.8 Q-0.25 0.45 -0.6 -4.2 L-0.55 -4.45 -0.5 -4.2 Q0.3 0.5 -3.25 4.3" fill="#ffffff" fill-rule="evenodd" stroke="none"/>
    </g>
    <g id="shape19">
      <path d="M0.6 -4.7 Q2.95 -4.55 4.65 -3.45 L5.25 -3.0 Q7.1 -1.45 6.85 0.55 6.55 2.55 4.35 3.9 L2.55 4.7 -0.7 5.05 Q-3.55 4.9 -5.4 3.4 -7.2 1.85 -6.95 -0.2 -6.7 -2.2 -4.5 -3.5 -2.3 -4.85 0.6 -4.7" fill="url(#gradient2)" fill-rule="evenodd" stroke="none"/>
      <path d="M5.4 -5.3 L5.9 -5.05 5.4 -5.3" fill="#ffc357" fill-rule="evenodd" stroke="none"/>
      <path d="M0.6 -4.7 Q-2.3 -4.85 -4.5 -3.5 -6.7 -2.2 -6.95 -0.2 -7.2 1.85 -5.4 3.4 -3.55 4.9 -0.7 5.05 L2.55 4.7 4.35 3.9 Q6.55 2.55 6.85 0.55 7.1 -1.45 5.25 -3.0 L4.65 -3.45 Q2.95 -4.55 0.6 -4.7 M5.9 -5.05 Q6.95 -4.5 7.9 -3.4 L8.55 -2.5 9.0 -1.55 9.2 0.1 9.15 0.5 Q8.75 3.15 5.85 4.95 3.1 6.55 -0.4 6.5 L-0.85 6.45 -0.9 6.45 Q-4.05 6.1 -6.25 4.4 -8.75 2.35 -8.5 -0.25 -8.25 -2.9 -5.4 -4.6 -2.9 -6.15 0.3 -6.2 L1.3 -6.15 Q3.55 -6.05 5.4 -5.3 L5.9 -5.05" fill="#fbc115" fill-rule="evenodd" stroke="none"/>
      <path d="M-0.9 6.45 Q-4.7 6.3 -7.15 4.25 -9.6 2.2 -9.2 -0.45 -8.9 -3.15 -5.95 -4.9 -3.4 -6.45 -0.2 -6.5 L1.85 -6.4 Q3.8 -6.15 5.4 -5.3 3.55 -6.05 1.3 -6.15 L0.3 -6.2 Q-2.9 -6.15 -5.4 -4.6 -8.25 -2.9 -8.5 -0.25 -8.75 2.35 -6.25 4.4 -4.05 6.1 -0.9 6.45" fill="#ffffff" fill-rule="evenodd" stroke="none"/>
    </g>
    <radialGradient cx="0" cy="0" gradientTransform="matrix(-3.0E-4, 0.0104, 0.0158, 5.0E-4, 0.65, -4.15)" gradientUnits="userSpaceOnUse" id="gradient2" r="819.2" spreadMethod="pad">
      <stop offset="0.0" stop-color="#000000"/>
      <stop offset="0.5254901960784314" stop-color="#ab280e"/>
      <stop offset="1.0" stop-color="#ff871b"/>
    </radialGradient>
    <g id="shape20">
      <path d="M1.4 -10.35 L2.9 -9.3 Q1.75 0.55 5.75 11.05 L-9.35 11.05 Q-2.55 1.05 -4.1 -9.5 L-1.9 -10.75 Q-1.2 -11.1 0.2 -10.75 L1.4 -10.35" fill="url(#gradient3)" fill-rule="evenodd" stroke="none"/>
    </g>
    <linearGradient gradientTransform="matrix(0.0, 0.0085, -0.0094, -1.0E-4, 0.2, -1.0)" gradientUnits="userSpaceOnUse" id="gradient3" spreadMethod="pad" x1="-819.2" x2="819.2">
      <stop offset="0.0" stop-color="#ff0000"/>
      <stop offset="1.0" stop-color="#ef0000" stop-opacity="0.0"/>
    </linearGradient>
    <g id="shape21">
      <path d="M-5.15 -4.3 Q-8.05 -1.9 -1.1 2.7 0.7 3.75 2.65 4.65 L2.0 6.0 Q-6.2 0.75 -6.65 -1.8 -7.15 -4.4 -5.15 -4.3" fill="#970000" fill-rule="evenodd" stroke="none"/>
      <path d="M-8.15 -8.55 Q0.65 -12.3 10.2 -11.5 L12.7 -11.2 Q10.2 -7.8 9.25 -6.2 L4.55 -6.75 Q-3.05 -6.15 -5.15 -4.3 -7.15 -4.4 -6.65 -1.8 -6.2 0.75 2.0 6.0 1.0 8.3 -1.95 10.55 -17.45 -1.7 -10.0 -7.3 L-8.15 -8.55" fill="#ef0000" fill-rule="evenodd" stroke="none"/>
      <path d="M-8.15 -8.55 Q-1.45 -12.75 7.2 -12.0 L10.2 -11.6 12.7 -11.2 10.2 -11.5 Q0.65 -12.3 -8.15 -8.55" fill="#ff6262" fill-rule="evenodd" stroke="none"/>
    </g>
    <g id="shape22">
      <path d="M29.7 29.35 Q-1.25 24.3 -35.55 21.85 -29.85 -2.1 -29.75 -29.3 L35.55 -21.45 Q30.2 4.2 29.7 29.35" fill="#fffbf0" fill-rule="evenodd" stroke="none"/>
    </g>
    <g id="shape23">
      <path d="M29.7 29.35 Q-1.25 24.3 -35.55 21.85 -29.85 -2.1 -29.75 -29.3 L35.55 -21.45 Q30.2 4.2 29.7 29.35" fill="#fffbf0" fill-rule="evenodd" stroke="none"/>
    </g>
    <g id="shape24">
      <path d="M-12.05 -12.6 L-21.05 -30.05 21.1 -56.0 21.1 53.8 -5.6 56.05 -5.6 -15.95 -12.05 -12.6" fill="#e30000" fill-rule="evenodd" stroke="none"/>
    </g>
    <g id="shape25">
      <path d="M0.35 -49.55 Q18.75 -49.45 27.5 -35.6 36.3 -21.6 36.45 2.35 L36.45 3.8 Q36.4 10.9 34.45 18.65 32.25 27.2 27.6 34.0 23.05 40.95 15.95 45.25 8.8 49.4 -0.1 49.55 -11.65 49.5 -20.0 42.9 -28.2 36.3 -32.25 25.5 -36.2 14.7 -36.4 1.85 L-36.2 0.35 Q-35.85 -21.5 -26.75 -35.6 -17.7 -49.6 0.1 -49.55 L0.35 -49.55 M9.8 -19.5 Q6.85 -27.75 -0.1 -27.75 -7.5 -27.75 -10.15 -19.25 -12.75 -11.45 -12.75 -1.1 L-12.75 0.6 Q-12.75 27.6 -0.1 27.85 L0.1 27.85 Q12.75 27.85 12.75 -0.35 12.75 -11.15 9.8 -19.5" fill="#d70000" fill-rule="evenodd" stroke="none"/>
    </g>
    <g id="shape26">
      <path d="M34.5 -19.15 L34.5 -17.8 Q34.5 -10.45 30.25 -1.4 25.55 8.65 18.85 16.05 L8.9 26.95 37.5 26.95 31.7 49.15 -37.5 49.15 -1.8 6.5 Q9.85 -8.6 9.9 -15.0 L9.9 -15.7 Q9.15 -22.0 5.85 -25.05 2.75 -27.85 -1.5 -27.85 L-2.25 -27.85 Q-6.95 -27.75 -10.1 -24.45 -13.05 -21.15 -13.3 -16.35 L-13.3 -15.95 -13.25 -15.25 -35.6 -8.0 Q-36.5 -11.85 -36.45 -16.1 L-36.45 -17.9 Q-36.1 -26.9 -31.45 -34.25 -26.95 -41.35 -18.6 -45.3 -10.75 -49.1 -1.15 -49.1 L-0.8 -49.1 Q8.4 -49.1 16.35 -45.5 24.2 -42.0 29.15 -35.35 33.9 -28.6 34.5 -19.15" fill="#d70000" fill-rule="evenodd" stroke="none"/>
    </g>
    <g id="shape27">
      <path d="M-108.85 27.05 L-108.85 26.6" ffdec:has-small-stroke="true" ffdec:original-stroke-width="0.25" fill="none" stroke="#aecbf8" stroke-linecap="round" stroke-linejoin="round" stroke-width="1.0"/>
    </g>
    <g id="shape28">
      <path d="M-2.75 3.65 L-2.8 3.75 -2.75 3.65" fill="#d07fff" fill-rule="evenodd" stroke="none"/>
      <path d="M-0.85 -50.8 Q1.65 -56.95 4.75 -59.4 4.75 -50.8 -0.4 -44.9 -1.05 -48.3 -0.85 -50.8 M-0.65 -43.5 Q2.35 -45.5 4.8 -50.35 L4.8 -50.3 Q4.6 -41.2 -0.4 -35.7 -2.4 -39.05 -0.65 -43.5 M-1.4 -31.7 L4.2 -40.3 Q3.8 -31.1 -0.95 -25.7 -1.55 -29.85 -1.4 -31.7 M-1.95 -21.65 Q1.5 -25.3 3.65 -30.3 3.25 -20.65 -1.6 -16.05 -2.3 -18.45 -1.95 -21.65 M-2.45 -12.4 L3.15 -21.05 Q2.4 -11.85 -1.95 -6.4 -2.8 -8.9 -2.45 -12.4 M-3.0 -2.4 Q0.45 -5.3 2.6 -11.0 1.9 -1.4 -2.75 3.65 -4.0 1.65 -3.0 -2.4 M-3.75 7.75 Q-0.8 4.45 1.85 -0.85 L1.85 -0.8 Q1.05 9.35 -3.25 13.75 L-3.6 12.6 Q-3.95 10.85 -3.85 9.05 L-3.85 8.5 -3.75 7.75 M-4.3 17.8 Q-1.3 14.35 1.3 9.15 -0.05 19.85 -3.85 23.65 -4.5 20.25 -4.3 17.8 M-4.3 26.85 Q-1.3 23.75 1.35 18.2 0.3 29.15 -3.85 32.85 -5.45 28.7 -4.3 26.85 M-4.85 36.85 L0.8 28.25 Q-0.55 38.65 -4.4 42.85 -5.65 38.95 -4.85 36.85 M-5.0 44.6 Q-1.8 43.7 0.2 38.25 -1.1 48.55 -5.0 52.5 -6.75 50.1 -5.0 44.6 M-5.9 56.15 Q-2.4 53.1 -0.3 47.5 -0.6 57.9 -6.05 64.25 -3.2 63.7 -0.85 57.55 -0.2 65.1 -6.4 68.95 L-6.45 68.8 Q-7.45 67.9 -6.05 64.25 -7.55 59.65 -5.9 56.15" fill="#ffff00" fill-rule="evenodd" stroke="none"/>
      <path d="M-0.4 -44.9 Q4.75 -50.8 4.75 -59.4 1.65 -56.95 -0.85 -50.8 -0.25 -58.6 6.85 -62.35 6.6 -57.4 5.9 -55.0 7.3 -49.5 5.5 -44.9 L5.65 -41.0 Q5.65 -36.8 4.95 -34.8 6.15 -29.5 4.45 -25.05 5.6 -20.0 3.9 -15.55 4.65 -12.0 3.0 -5.1 3.0 -2.95 2.65 -1.3 3.6 1.8 2.5 4.7 L3.1 8.45 3.1 9.05 Q3.1 11.4 2.45 13.55 3.85 19.05 2.05 23.65 L2.2 27.55 Q2.2 31.75 1.5 33.75 2.7 39.05 1.0 43.5 2.15 48.55 0.45 53.0 0.6 71.55 -6.4 69.0 L-6.45 69.0 -6.4 68.95 Q-0.2 65.1 -0.85 57.55 -3.2 63.7 -6.05 64.25 -0.6 57.9 -0.3 47.5 -2.4 53.1 -5.9 56.15 -5.65 54.35 -5.0 52.5 -1.1 48.55 0.2 38.25 -1.8 43.7 -5.0 44.6 L-4.4 42.85 Q-0.55 38.65 0.8 28.25 L-4.85 36.85 Q-4.6 34.9 -3.85 32.85 0.3 29.15 1.35 18.2 -1.3 23.75 -4.3 26.85 L-3.85 23.65 Q-0.05 19.85 1.3 9.15 -1.3 14.35 -4.3 17.8 -4.05 15.8 -3.25 13.75 1.05 9.35 1.85 -0.8 L1.85 -0.85 Q-0.8 4.45 -3.75 7.75 L-2.8 3.75 -2.75 3.65 Q1.9 -1.4 2.6 -11.0 0.45 -5.3 -3.0 -2.4 -2.75 -4.35 -1.95 -6.4 2.4 -11.85 3.15 -21.05 L-2.45 -12.4 -1.6 -16.05 Q3.25 -20.65 3.65 -30.3 1.5 -25.3 -1.95 -21.65 -1.7 -23.65 -0.95 -25.7 3.8 -31.1 4.2 -40.3 L-1.4 -31.7 Q-1.15 -33.65 -0.4 -35.7 4.6 -41.2 4.8 -50.3 L4.8 -50.35 Q2.35 -45.5 -0.65 -43.5 L-0.4 -44.9" fill="#ff871b" fill-rule="evenodd" stroke="none"/>
    </g>
    <g id="shape29">
      <path d="M-5.0 -6.55 Q0.05 -0.25 8.15 -2.5 4.05 -4.45 3.1 -7.5 L5.25 -7.25 Q9.65 -1.5 16.6 -4.0 13.35 -5.75 12.05 -8.25 L14.05 -8.05 Q20.15 -2.55 25.85 -4.5 23.0 -5.9 22.4 -8.9 L23.9 -9.0 Q26.4 -3.05 35.8 -6.0 33.1 -7.35 31.65 -10.3 L32.95 -10.35 Q37.5 -4.75 44.75 -7.5 L40.5 -11.95 42.7 -11.7 Q48.15 -6.5 53.05 -7.9 L47.8 -12.65 50.05 -12.35 Q55.6 -6.2 61.65 -7.95 58.15 -9.85 56.1 -13.05 L57.7 -13.3 Q59.7 -10.2 63.45 -7.55 L62.8 -6.45 54.6 -6.85 Q51.85 -5.1 45.85 -6.25 44.9 -4.4 37.75 -5.35 36.7 -4.55 33.35 -4.15 L29.75 -3.8 Q27.05 -2.2 17.8 -2.25 16.05 -0.6 8.95 -1.25 5.25 1.0 -1.1 -0.8 -6.75 1.7 -12.8 -0.35 -17.4 2.15 -23.3 -0.3 -27.4 1.9 -33.15 -0.75 -35.1 1.25 -42.4 -1.6 -45.25 0.5 -51.3 -2.7 -52.15 -0.6 -58.2 -4.2 -59.85 -1.3 -64.0 -2.8 -62.75 1.2 -67.4 4.9 -67.3 6.9 -69.05 10.15 -70.95 13.7 -72.75 13.75 -68.5 6.25 -73.3 3.65 -72.5 2.75 -72.6 1.5 -67.25 5.6 -65.6 -2.95 -67.9 -3.7 -69.2 -5.75 -68.3 -6.05 -68.25 -6.65 -62.6 -2.6 -59.1 -5.0 -60.45 -8.05 -60.25 -10.35 L-58.65 -10.55 Q-58.35 -3.95 -51.95 -4.35 -53.95 -6.75 -54.1 -10.25 -53.1 -10.05 -53.15 -9.9 -52.35 -3.4 -43.15 -2.75 -45.65 -5.45 -46.4 -8.15 L-44.5 -7.4 Q-41.4 -1.5 -34.2 -1.8 -36.9 -4.05 -37.75 -6.85 L-35.8 -6.35 Q-33.55 -0.3 -24.8 -1.5 -27.55 -3.85 -28.8 -6.4 L-27.15 -6.0 Q-24.4 -0.3 -14.4 -1.5 -17.7 -3.65 -19.15 -6.35 L-17.3 -6.05 Q-12.0 0.05 -2.25 -1.65 -6.1 -3.95 -7.75 -6.8 L-5.0 -6.55" fill="#fe9a03" fill-rule="evenodd" stroke="none"/>
      <path d="M3.1 -7.5 Q4.05 -4.45 8.15 -2.5 0.05 -0.25 -5.0 -6.55 -1.7 -8.75 3.1 -7.5 M-7.75 -6.8 Q-6.1 -3.95 -2.25 -1.65 -12.0 0.05 -17.3 -6.05 -13.15 -7.95 -7.75 -6.8 M-19.15 -6.35 Q-17.7 -3.65 -14.4 -1.5 -24.4 -0.3 -27.15 -6.0 L-19.15 -6.35 M-28.8 -6.4 Q-27.55 -3.85 -24.8 -1.5 -33.55 -0.3 -35.8 -6.35 -32.65 -7.15 -28.8 -6.4 M-37.75 -6.85 Q-36.9 -4.05 -34.2 -1.8 -41.4 -1.5 -44.5 -7.4 -41.35 -8.45 -37.75 -6.85 M-46.4 -8.15 Q-45.65 -5.45 -43.15 -2.75 -52.35 -3.4 -53.15 -9.9 -49.2 -10.65 -46.4 -8.15 M-54.1 -10.25 Q-53.95 -6.75 -51.95 -4.35 -58.35 -3.95 -58.65 -10.55 -55.25 -11.45 -54.1 -10.25 M-60.25 -10.35 Q-60.45 -8.05 -59.1 -5.0 -62.6 -2.6 -68.25 -6.65 -64.95 -10.7 -60.25 -10.35 M-69.2 -5.75 Q-67.9 -3.7 -65.6 -2.95 -67.25 5.6 -72.6 1.5 -72.35 -3.8 -69.2 -5.75 M-73.3 3.65 Q-68.5 6.25 -72.75 13.75 -75.5 10.3 -73.3 3.65 M63.45 -7.55 Q59.7 -10.2 57.7 -13.3 61.7 -13.95 66.5 -12.6 L63.45 -7.55 M56.1 -13.05 Q58.15 -9.85 61.65 -7.95 55.6 -6.2 50.05 -12.35 51.85 -13.65 56.1 -13.05 M47.8 -12.65 L53.05 -7.9 Q48.15 -6.5 42.7 -11.7 44.5 -12.95 47.8 -12.65 M40.5 -11.95 L44.75 -7.5 Q37.5 -4.75 32.95 -10.35 35.6 -12.25 40.5 -11.95 M31.65 -10.3 Q33.1 -7.35 35.8 -6.0 26.4 -3.05 23.9 -9.0 25.85 -11.65 31.65 -10.3 M22.4 -8.9 Q23.0 -5.9 25.85 -4.5 20.15 -2.55 14.05 -8.05 17.15 -10.05 22.4 -8.9 M12.05 -8.25 Q13.35 -5.75 16.6 -4.0 9.65 -1.5 5.25 -7.25 7.75 -9.5 12.05 -8.25" fill="#ffff00" fill-rule="evenodd" stroke="none"/>
    </g>
    <g id="shape30">
      <path d="M-44.0 -93.1 L-42.4 -95.4 Q-40.85 -91.35 -42.2 -85.2 -40.75 -81.85 -41.65 -76.05 L-41.2 -74.75 Q-40.35 -71.8 -40.8 -66.5 -39.2 -63.45 -39.75 -58.65 -38.2 -55.6 -38.05 -49.25 -35.8 -46.8 -35.95 -40.55 -34.1 -38.25 -33.8 -35.5 L-33.25 -31.8 Q-31.3 -29.4 -30.65 -22.8 -28.8 -19.95 -28.3 -13.5 -26.55 -10.7 -26.35 -4.25 -25.6 -2.7 -25.15 -0.85 -24.25 2.6 -24.35 6.95 -22.7 11.2 -22.85 18.4 -21.45 22.2 -21.95 28.15 -21.45 29.6 -21.05 31.4 L-20.55 34.55 Q-20.4 35.85 -21.1 37.95 L-21.85 40.25 Q-19.35 42.9 -20.35 46.15 -18.5 45.75 -14.0 47.55 L-11.25 48.75 Q-8.2 47.75 -5.95 48.0 L-3.45 48.35 -0.15 49.3 Q5.3 47.25 10.2 51.25 16.4 49.15 21.2 52.5 L21.35 52.6 Q26.7 50.75 32.2 53.25 37.55 51.4 43.2 53.35 48.45 51.4 53.4 53.15 55.6 52.5 58.7 52.1 61.8 51.65 64.6 53.0 71.05 53.1 72.1 59.6 74.0 61.45 71.6 66.15 72.9 62.65 70.8 61.0 68.0 60.15 65.2 64.3 65.2 63.5 65.45 62.8 68.55 58.45 65.0 54.15 64.3 57.05 61.6 59.35 L61.15 58.45 61.2 58.45 Q62.85 56.95 62.6 55.25 55.8 53.3 51.55 60.05 L50.35 59.85 Q52.45 57.45 52.4 55.1 44.7 53.45 40.35 60.75 L38.55 60.3 Q41.65 57.65 41.95 54.45 34.85 54.0 28.9 60.65 L26.55 60.05 Q29.5 57.45 30.35 54.35 23.05 52.25 16.9 59.55 L15.5 58.95 15.6 58.85 Q17.8 56.3 19.0 53.45 12.7 51.0 6.4 58.05 L5.6 57.3 5.6 57.2 Q9.15 54.75 8.35 51.8 2.45 48.95 -2.9 55.55 L-4.55 55.2 Q-1.95 53.3 -1.75 50.35 -11.8 49.2 -12.75 55.6 L-14.0 55.4 -15.0 55.2 Q-11.65 52.95 -12.3 50.5 -18.2 46.7 -22.55 53.15 -23.65 53.2 -23.9 51.95 -20.65 46.95 -23.45 42.75 -26.0 44.3 -28.55 44.4 L-28.7 42.9 Q-22.35 39.95 -23.15 31.35 -24.65 34.8 -27.7 35.55 L-27.45 33.55 Q-23.15 29.65 -24.05 22.0 -25.15 25.2 -28.35 26.6 L-28.2 24.9 Q-24.7 19.7 -25.35 11.7 -26.5 15.35 -29.6 17.0 L-29.5 15.15 Q-26.25 8.4 -27.05 -0.35 -28.45 3.5 -31.45 5.75 L-31.55 3.0 Q-27.15 -1.6 -29.25 -10.55 -30.7 -7.05 -33.55 -4.9 L-33.55 -7.05 Q-29.8 -11.9 -31.8 -18.75 L-35.4 -13.7 -35.65 -16.6 Q-32.25 -20.9 -33.45 -27.9 -34.85 -24.8 -37.55 -23.1 L-37.65 -25.35 Q-33.7 -29.45 -36.2 -37.55 -36.65 -33.7 -39.85 -31.75 L-40.25 -35.15 Q-36.65 -38.05 -38.85 -46.25 -39.75 -43.0 -42.7 -41.45 L-42.75 -43.65 Q-39.4 -46.4 -40.3 -54.45 L-44.35 -48.6 -44.3 -50.85 Q-40.2 -54.7 -42.15 -62.95 -42.95 -59.4 -45.8 -56.8 L-45.75 -59.05 -45.8 -59.55 Q-42.05 -63.1 -42.6 -72.8 -43.15 -69.1 -47.0 -65.35 L-46.85 -69.7 Q-43.2 -73.0 -43.3 -83.05 -45.35 -78.95 -47.85 -76.0 L-47.6 -79.15 Q-44.2 -83.65 -44.0 -93.1" fill="#ff871b" fill-rule="evenodd" stroke="none"/>
      <path d="M-44.0 -93.1 Q-44.2 -83.65 -47.6 -79.15 -51.55 -86.0 -44.0 -93.1 M-47.85 -76.0 Q-45.35 -78.95 -43.3 -83.05 -43.2 -73.0 -46.85 -69.7 -47.9 -71.25 -47.9 -74.75 L-47.85 -76.0 M-47.0 -65.35 Q-43.15 -69.1 -42.6 -72.8 -42.05 -63.1 -45.8 -59.55 L-45.85 -59.5 Q-46.85 -61.9 -47.0 -65.35 M-45.8 -56.8 Q-42.95 -59.4 -42.15 -62.95 -40.2 -54.7 -44.3 -50.85 -45.85 -52.5 -45.8 -56.8 M-44.35 -48.6 L-40.3 -54.45 Q-39.4 -46.4 -42.75 -43.65 -44.2 -45.35 -44.35 -48.6 M-42.7 -41.45 Q-39.75 -43.0 -38.85 -46.25 -36.65 -38.05 -40.25 -35.15 -42.3 -37.45 -42.7 -41.45 M-39.85 -31.75 Q-36.65 -33.7 -36.2 -37.55 -33.7 -29.45 -37.65 -25.35 -39.2 -27.65 -39.85 -31.75 M-37.55 -23.1 Q-34.85 -24.8 -33.45 -27.9 -32.25 -20.9 -35.65 -16.6 -37.25 -18.9 -37.55 -23.1 M-35.4 -13.7 L-31.8 -18.75 Q-29.8 -11.9 -33.55 -7.05 -34.9 -9.7 -35.4 -13.7 M-33.55 -4.9 Q-30.7 -7.05 -29.25 -10.55 -27.15 -1.6 -31.55 3.0 -32.7 0.7 -33.2 -1.9 L-33.55 -4.9 M-31.45 5.75 Q-28.45 3.5 -27.05 -0.35 -26.25 8.4 -29.5 15.15 -31.05 10.7 -31.45 5.75 M-29.6 17.0 Q-26.5 15.35 -25.35 11.7 -24.7 19.7 -28.2 24.9 -29.8 22.6 -29.6 17.0 M-28.35 26.6 Q-25.15 25.2 -24.05 22.0 -23.15 29.65 -27.45 33.55 L-28.1 31.35 Q-28.55 29.15 -28.35 26.6 M-27.7 35.55 Q-24.65 34.8 -23.15 31.35 -22.35 39.95 -28.7 42.9 -28.7 36.55 -27.7 35.55 M-28.55 44.4 Q-26.0 44.3 -23.45 42.75 -20.65 46.95 -23.9 51.95 -28.05 49.15 -28.55 44.4 M-22.55 53.15 Q-18.2 46.7 -12.3 50.5 -11.65 52.95 -15.0 55.2 -20.25 55.6 -22.55 53.15 M-12.75 55.6 Q-11.8 49.2 -1.75 50.35 -1.95 53.3 -4.55 55.2 L-12.75 55.6 M-2.9 55.55 Q2.45 48.95 8.35 51.8 9.15 54.75 5.6 57.2 L5.6 57.25 Q0.95 58.35 -2.9 55.55 M6.4 58.05 Q12.7 51.0 19.0 53.45 17.8 56.3 15.6 58.85 L15.5 58.95 Q9.85 61.0 6.4 58.05 M16.9 59.55 Q23.05 52.25 30.35 54.35 29.5 57.45 26.55 60.05 L20.15 60.4 16.9 59.55 M28.9 60.65 Q34.85 54.0 41.95 54.45 41.65 57.65 38.55 60.3 L38.5 60.35 28.9 60.65 M40.35 60.75 Q44.7 53.45 52.4 55.1 52.45 57.45 50.35 59.85 45.3 61.75 40.35 60.75 M51.55 60.05 Q55.8 53.3 62.6 55.25 62.85 56.95 61.2 58.45 L61.15 58.4 61.15 58.45 58.25 59.55 Q55.65 60.65 51.55 60.05 M61.6 59.35 Q64.3 57.05 65.0 54.15 68.55 58.45 65.45 62.8 62.65 61.3 61.9 59.9 L61.6 59.35 M65.2 64.3 Q68.0 60.15 70.8 61.0 72.9 62.65 71.6 66.15 67.4 73.1 65.2 64.3" fill="#ffff00" fill-rule="evenodd" stroke="none"/>
    </g>
    <g id="shape31">
      <path d="M-9.55 -0.9 Q-5.75 -1.1 -4.65 3.05 L-5.95 3.3 -7.35 3.6 Q-7.85 3.75 -8.05 4.4 -11.2 2.1 -9.55 -0.9 M-8.2 4.9 Q-5.45 5.8 -4.1 8.1 L-6.8 8.65 Q-8.4 8.0 -8.35 6.1 L-8.2 4.9 M-3.2 7.95 Q-5.8 5.95 -4.8 3.9 0.25 3.85 1.5 7.75 L-3.2 7.95 M2.7 7.85 Q1.05 5.55 1.9 3.45 5.3 3.95 6.9 8.5 L2.7 7.85 M7.65 8.65 Q5.15 4.3 8.65 4.7 L8.7 4.65 Q10.05 6.75 7.65 8.65 M8.45 4.25 Q9.15 1.55 6.75 -1.2 8.7 -1.3 10.0 -0.15 10.9 3.15 8.45 4.25 M7.75 3.65 L7.65 3.6 5.75 3.2 4.6 3.05 Q4.95 0.6 2.75 -1.35 7.35 -0.35 7.75 3.65 M-4.8 -1.15 Q-0.15 -1.95 3.2 2.85 0.15 2.4 -2.9 2.85 -3.15 0.65 -4.8 -1.15" fill="#ffff00" fill-rule="evenodd" stroke="none"/>
      <path d="M-9.55 -0.9 L-8.75 -1.85 -6.45 -2.4 -4.05 -2.8 -2.8 -3.0 1.3 -3.2 2.55 -3.1 6.8 -2.3 7.2 -2.15 7.85 -1.85 Q9.4 -1.35 10.0 -0.15 8.7 -1.3 6.75 -1.2 9.15 1.55 8.45 4.25 L8.45 4.3 8.7 4.65 8.65 4.7 Q5.15 4.3 7.65 8.65 L6.9 8.5 Q5.3 3.95 1.9 3.45 1.05 5.55 2.7 7.85 L1.5 7.75 Q0.25 3.85 -4.8 3.9 -5.8 5.95 -3.2 7.95 L-4.1 8.1 Q-5.45 5.8 -8.2 4.9 L-8.05 4.4 Q-7.85 3.75 -7.35 3.6 L-5.95 3.3 -4.65 3.05 Q-5.75 -1.1 -9.55 -0.9 M7.75 3.65 Q7.35 -0.35 2.75 -1.35 4.95 0.6 4.6 3.05 L5.75 3.2 7.65 3.6 7.75 3.65 M-4.8 -1.15 Q-3.15 0.65 -2.9 2.85 0.15 2.4 3.2 2.85 -0.15 -1.95 -4.8 -1.15" fill="#ff871b" fill-rule="evenodd" stroke="none"/>
    </g>
    <g id="shape32">
      <path d="M-0.5 30.3 Q-2.15 28.9 -2.3 26.0 0.85 23.35 3.0 18.75 2.65 27.9 -0.5 30.3 M-1.6 21.9 Q-2.6 19.45 -2.55 16.0 0.6 13.95 2.75 8.75 3.15 18.75 -1.6 21.9 M-1.95 12.25 Q-2.85 9.9 -2.75 6.7 0.55 3.8 2.5 -0.8 3.25 8.05 -1.95 12.25 M-2.1 2.6 Q-3.0 -1.45 -3.0 -3.35 0.3 -6.25 2.2 -10.9 2.15 -0.95 -2.1 2.6 M-2.3 -7.45 Q-4.4 -11.0 -3.25 -13.35 -0.4 -16.05 2.1 -20.55 1.65 -11.05 -2.3 -7.45 M-3.05 -16.55 Q-4.95 -19.25 -3.95 -22.4 -0.45 -25.4 1.1 -30.8 1.2 -20.85 -3.05 -16.55" fill="#ffff00" fill-rule="evenodd" stroke="none"/>
      <path d="M-3.95 -22.4 Q-4.5 -27.0 1.5 -32.0 4.55 -27.55 3.65 -21.6 2.7 -15.7 3.55 -9.55 4.35 -3.45 4.3 2.8 L4.15 15.45 Q4.05 22.05 2.75 28.3 2.05 31.75 -0.5 30.3 2.65 27.9 3.0 18.75 0.85 23.35 -2.3 26.0 -2.25 24.0 -1.6 21.9 3.15 18.75 2.75 8.75 0.6 13.95 -2.55 16.0 -2.45 14.15 -1.95 12.25 3.25 8.05 2.5 -0.8 0.55 3.8 -2.75 6.7 -2.7 4.7 -2.1 2.6 2.15 -0.95 2.2 -10.9 0.3 -6.25 -3.0 -3.35 -2.9 -5.35 -2.3 -7.45 1.65 -11.05 2.1 -20.55 -0.4 -16.05 -3.25 -13.35 L-3.05 -16.55 Q1.2 -20.85 1.1 -30.8 -0.45 -25.4 -3.95 -22.4" fill="#ff871b" fill-rule="evenodd" stroke="none"/>
    </g>
    <g id="shape33">
      <path d="M-0.25 6.5 Q-2.3 7.7 -4.1 1.35 -4.4 1.1 -3.85 -1.05 L-2.65 -6.7 3.2 -2.95 Q4.7 -0.2 4.0 -0.4 1.65 -1.6 -0.65 -0.1 -3.05 1.45 -0.25 6.5" fill="#ff871b" fill-rule="evenodd" stroke="none"/>
      <path d="M4.0 -0.4 Q5.2 4.85 -0.25 6.5 -3.05 1.45 -0.65 -0.1 1.65 -1.6 4.0 -0.4" fill="#ffff00" fill-rule="evenodd" stroke="none"/>
    </g>
    <g id="shape34">
      <path d="M29.7 29.35 Q-1.25 24.3 -35.55 21.85 -29.85 -2.1 -29.75 -29.3 L35.55 -21.45 Q30.2 4.2 29.7 29.35" fill="#fffbf0" fill-rule="evenodd" stroke="none"/>
    </g>
    <g id="shape35">
      <path d="M-12.05 -12.6 L-21.05 -30.05 21.1 -56.0 21.1 53.8 -5.6 56.05 -5.6 -15.95 -12.05 -12.6" fill="#e30000" fill-rule="evenodd" stroke="none"/>
    </g>
    <g id="shape36">
      <path d="M34.5 -19.15 L34.5 -17.8 Q34.5 -10.45 30.25 -1.4 25.55 8.65 18.85 16.05 L8.9 26.95 37.5 26.95 31.7 49.15 -37.5 49.15 -1.8 6.5 Q9.85 -8.6 9.9 -15.0 L9.9 -15.7 Q9.15 -22.0 5.85 -25.05 2.75 -27.85 -1.5 -27.85 L-2.25 -27.85 Q-6.95 -27.75 -10.1 -24.45 -13.05 -21.15 -13.3 -16.35 L-13.3 -15.95 -13.25 -15.25 -35.6 -8.0 Q-36.5 -11.85 -36.45 -16.1 L-36.45 -17.9 Q-36.1 -26.9 -31.45 -34.25 -26.95 -41.35 -18.6 -45.3 -10.75 -49.1 -1.15 -49.1 L-0.8 -49.1 Q8.4 -49.1 16.35 -45.5 24.2 -42.0 29.15 -35.35 33.9 -28.6 34.5 -19.15" fill="#d70000" fill-rule="evenodd" stroke="none"/>
    </g>
    <g id="sprite8">
      <use ffdec:characterId="98" height="415.95" transform="matrix(1.0, 0.0, 0.0, 0.9999, 188.5, 86.45)" width="707.0" xlink:href="#shape37"/>
    </g>
    <g id="shape37">
      <path d="M-188.5 329.5 L-188.5 -86.45 518.5 -86.45 518.5 329.5 -188.5 329.5" fill="#ff0000" fill-opacity="0.0" fill-rule="evenodd" stroke="none"/>
    </g>
  </defs>
</svg>
