<?xml version="1.0" encoding="utf-8"?>
<svg version="1.1" id="Layer_1"
xmlns="http://www.w3.org/2000/svg"
xmlns:xlink="http://www.w3.org/1999/xlink"
width="616px" height="186px"
xml:space="preserve">
<g id="14" transform="matrix(1, 0, 0, 1, 119.95, 130.7)">
<path style="fill:#0C3789;fill-opacity:1" d="M123.5,4.35Q129 5.85 156.3 3.3Q162.1 2.45 167.85 1L191.45 6.95L192.25 5.75Q201.8 -4.3 216.1 0.25L217.05 0.45Q218.15 -1.25 222.5 -1.45Q227.3 -1.7 230 -0.5Q236.9 2.6 248.8 4.05Q271.6 6.8 289.2 0.75Q298.85 -2.6 313.1 -3.5L320.7 -4.4Q350.05 -10.1 359.45 -1.15Q365.7 -3.5 372.6 -3.9Q377.6 -8.5 387.45 -8.45Q400.85 -8.3 399.95 -17.8Q399 -27.35 406.65 -32.3Q414.3 -37.25 419.55 -52.65Q409.95 -52 408.65 -58.2Q407.85 -62.1 404.8 -62.5Q401.75 -62.95 404.35 -67Q408.45 -73.4 418.15 -72.9Q427.85 -72.45 427.8 -81.6Q441.05 -82.45 447.8 -88.6Q459.6 -95.85 462.3 -99.7Q465 -103.6 467.2 -105.35Q472.75 -109.8 481.8 -114.3Q486.6 -116.7 494.3 -130.7L495.15 -8.75L494.2 54.5L-119.95 54.5L-119.9 -116.35L-119.05 -115.45Q-118.7 -115 -118.2 -114.95Q-92.7 -108.5 -90.45 -82.05Q-88.7 -61.8 -67.05 -56.95Q-66.45 -56.8 -63.05 -47.5Q-36.6 -36.05 -23.7 -5.75Q-14.35 -1.3 -5.45 -9L-4.9 -9.45Q5.25 -18.5 3.5 -31.35Q5.15 -49.3 -1.6 -54.7Q-10.75 -62.15 1.1 -70.8Q11.85 -84.1 19.1 -94.85Q20.8 -97.4 28.65 -94.2Q36.45 -91.05 38.15 -83.15Q39.8 -75.25 47.55 -69.25Q63.35 -57.25 57.15 -38.6Q50.9 -20.05 64.1 -14.6L75.65 -6.5Q80.3 -7.5 84.95 -6.5Q91.2 -5.3 91.95 1Q104.7 0.7 117.4 2.75L118 2.8L123.5 4.35M39.4,-27Q40.15 -22.5 44.1 -22.05Q47.95 -22 46.8 -25.9Q45.75 -29.95 47.2 -33.35Q51.7 -38.55 52.05 -48.7Q52.25 -55.1 45.65 -60.1Q34.6 -68.55 33.7 -42.9Q36.3 -41.6 37.5 -36.55L39.4 -27" />
<path style="fill:#1151C6;fill-opacity:1" d="M118,2.8Q125.6 -1.95 122.2 -16.2Q118.8 -30.5 125.8 -39.15Q132.8 -47.85 130.15 -66.65Q131.85 -69.1 136.25 -69.65Q140.65 -70.2 143.85 -60.55Q147.05 -50.9 152.95 -40.75Q159.45 -34.15 154.45 -28.45Q150.7 -24.3 151.65 -10.55Q150.95 -3.85 156.3 3.3Q129 5.85 123.5 4.35L118 2.8M140.4,-50Q140.7 -47.75 141.55 -44.6Q142.4 -41.45 141.25 -39.35Q140.05 -37.25 142.05 -37.25Q144.05 -37.25 145.45 -39.45Q146.9 -41.65 146.9 -44.75Q146.9 -47.85 145.45 -50.05Q144.05 -52.25 142.05 -52.25Q140.05 -52.25 140.4 -50M135.05,-19.4Q134.55 -39.05 128.5 -32.55Q124.9 -28.75 125 -23.85Q125.2 -16.1 127.65 -12.1Q128.45 -9.5 127.9 -6.4Q127.25 -3.4 129.35 -3.45Q131.5 -3.8 131.95 -7.25L133 -14.55Q133.6 -18.45 135.05 -19.4" />
</g>
</svg>
