<?xml version="1.0" encoding="UTF-8" standalone="no"?>
<svg xmlns:ffdec="https://www.free-decompiler.com/flash" xmlns:xlink="http://www.w3.org/1999/xlink" ffdec:objectType="frame" height="410.0px" width="590.0px" xmlns="http://www.w3.org/2000/svg">
  <g transform="matrix(1.0, 0.0, 0.0, 1.0, 0.0, 0.0)">
    <rect fill="#000000" height="410.0px" width="590.0px"/>
    <use ffdec:characterId="1" height="40.55" transform="matrix(0.8519, 0.0, 0.0, 0.8519, 59.95, 270.75)" width="54.35" xlink:href="#shape0"/>
    <use ffdec:characterId="1" height="40.55" transform="matrix(0.9987, 0.0, 0.0, 0.9987, 489.55, 388.0)" width="54.35" xlink:href="#shape0"/>
    <use ffdec:characterId="1" height="40.55" transform="matrix(0.8519, 0.0, 0.0, 0.8519, 547.05, 355.75)" width="54.35" xlink:href="#shape0"/>
    <use ffdec:characterId="1" height="40.55" transform="matrix(0.9987, 0.0, 0.0, 0.9987, 426.65, 349.8)" width="54.35" xlink:href="#shape0"/>
    <use ffdec:characterId="7" height="88.7" transform="matrix(1.0, 0.0, 0.0, 1.0, 104.0, 149.15)" width="79.2" xlink:href="#sprite0"/>
    <use ffdec:characterId="15" height="110.0" transform="matrix(-0.6205, 1.4435, 1.4435, 0.6205, 208.8, 213.45)" width="79.15" xlink:href="#shape2"/>
    <use ffdec:characterId="18" height="21.8" transform="matrix(-0.9944, -0.3152, -0.3152, 0.9944, 115.6, 180.4)" width="21.85" xlink:href="#sprite2"/>
    <use ffdec:characterId="18" height="21.8" transform="matrix(-0.8685, 0.7934, 0.7934, 0.8685, 134.55, 175.6)" width="21.85" xlink:href="#sprite2"/>
    <use ffdec:characterId="45" height="15.65" transform="matrix(5.1799, 0.0, 0.0, 1.2564, 221.0, 299.35)" width="23.85" xlink:href="#shape4"/>
    <use ffdec:characterId="44" height="5.7" transform="matrix(-1.0482, -0.3322, -0.3322, 1.0482, 117.6, 176.45)" width="5.8" xlink:href="#sprite3"/>
    <use ffdec:characterId="44" height="5.7" transform="matrix(-0.8685, 0.7934, 0.7934, 0.8685, 137.25, 170.65)" width="5.8" xlink:href="#sprite4"/>
    <use ffdec:characterId="50" height="29.2" transform="matrix(1.0, 0.0, 0.0, 1.0, 125.45, 178.15)" width="43.35" xlink:href="#sprite5"/>
    <use ffdec:characterId="24" height="26.3" transform="matrix(1.17, -0.2575, 0.2575, 1.17, 134.2, 176.1)" width="55.25" xlink:href="#shape7"/>
    <use ffdec:characterId="46" height="31.55" transform="matrix(1.3965, -0.7243, 0.7243, 1.3965, 94.8, 186.0)" width="45.95" xlink:href="#shape8"/>
    <use ffdec:characterId="47" height="10.05" transform="matrix(-1.2289, 0.6374, 0.6374, 1.2289, 125.85, 183.0)" width="9.95" xlink:href="#shape9"/>
    <use ffdec:characterId="61" height="26.0" transform="matrix(1.0, 0.0, 0.0, 1.0, 170.5, 350.65)" width="250.65" xlink:href="#sprite6"/>
    <clipPath id="clipPath0">
      <path d="M 168.9 36.65 L 168.9 320.1 L 171.65 319.67 L 174.48 319.26 L 177.39 318.86 L 180.38 318.46 L 183.44 318.08 L 186.59 317.71 L 189.81 317.35 L 193.11 317 L 196.49 316.66 L 199.95 316.33 L 203.48 316.02 L 207.1 315.71 L 210.79 315.42 L 214.56 315.13 L 218.41 314.86 L 222.34 314.6 L 226.34 314.35 L 230.43 314.11 L 234.59 313.88 L 238.83 313.66 L 243.15 313.46 L 247.55 313.26 L 252.03 313.07 L 256.58 312.9 L 261.22 312.74 L 265.93 312.58 L 270.72 312.44 L 275.59 312.31 L 280.54 312.19 L 285.56 312.08 L 290.67 311.99 L 295.85 311.9 L 295.85 36.65 Z"/>
    </clipPath>
    <g clip-path="url(#clipPath0)">
      <use ffdec:characterId="8" height="186.4" transform="matrix(1.0, 0.0, 0.0, 1.0, 236.0, 183.15)" width="86.6" xlink:href="#shape10"/>
      <use ffdec:characterId="9" height="59.55" transform="matrix(1.0, 0.0, 0.0, 1.0, 235.25, 293.95)" width="91.0" xlink:href="#shape11"/>
      <use ffdec:characterId="10" height="215.85" transform="matrix(1.0, 0.0, 0.0, 1.0, 195.1, 157.8)" width="12.15" xlink:href="#shape12"/>
      <use ffdec:characterId="11" height="215.85" transform="matrix(1.0, 0.0, 0.0, 1.0, 278.45, 157.3)" width="12.15" xlink:href="#shape13"/>
      <use ffdec:characterId="12" height="8.25" transform="matrix(0.0058, -1.9999, 1.0612, 0.0109, 276.7, 191.15)" width="3.5" xlink:href="#shape14"/>
      <use ffdec:characterId="12" height="8.25" transform="matrix(0.0056, -1.9999, 1.025, 0.0109, 196.9, 191.15)" width="3.5" xlink:href="#shape14"/>
      <use ffdec:characterId="12" height="8.25" transform="matrix(0.006, -1.2539, 1.0975, 0.0068, 193.95, 262.65)" width="3.5" xlink:href="#shape14"/>
      <use ffdec:characterId="12" height="8.25" transform="matrix(0.006, -1.2539, 1.0975, 0.0068, 279.4, 262.7)" width="3.5" xlink:href="#shape14"/>
      <use ffdec:characterId="10" height="215.85" transform="matrix(0.0, -1.0, 0.4576, 0.0, 235.2, 255.75)" width="12.15" xlink:href="#shape12"/>
      <use ffdec:characterId="12" height="8.25" transform="matrix(0.0054, -1.0, 1.0, 0.0054, 194.2, 70.45)" width="3.5" xlink:href="#shape14"/>
      <use ffdec:characterId="12" height="8.25" transform="matrix(0.0054, -1.0, 1.0, 0.0054, 279.4, 71.45)" width="3.5" xlink:href="#shape14"/>
      <use ffdec:characterId="11" height="215.85" transform="matrix(-0.0053, -1.0, 0.4858, -0.0023, 236.0, 65.2)" width="12.15" xlink:href="#shape13"/>
      <use ffdec:characterId="12" height="8.25" transform="matrix(1.0, 0.0, 0.0, 1.0, 229.6, 67.05)" width="3.5" xlink:href="#shape14"/>
      <use ffdec:characterId="12" height="8.25" transform="matrix(0.0059, -1.1428, 1.0843, 0.0062, 277.8, 228.8)" width="3.5" xlink:href="#shape14"/>
      <use ffdec:characterId="12" height="8.25" transform="matrix(0.0059, -1.1428, 1.0843, 0.0062, 195.9, 227.2)" width="3.5" xlink:href="#shape14"/>
      <use ffdec:characterId="10" height="215.85" transform="matrix(0.0, -1.0, 0.4576, 0.0, 233.0, 220.35)" width="12.15" xlink:href="#shape12"/>
      <use ffdec:characterId="12" height="8.25" transform="matrix(0.0054, -1.0, 1.0, 0.0054, 196.2, 110.05)" width="3.5" xlink:href="#shape14"/>
      <use ffdec:characterId="12" height="8.25" transform="matrix(0.0054, -1.0, 1.0, 0.0054, 277.6, 111.05)" width="3.5" xlink:href="#shape14"/>
      <use ffdec:characterId="11" height="215.85" transform="matrix(-0.0053, -1.0, 0.4858, -0.0023, 235.95, 104.2)" width="12.15" xlink:href="#shape13"/>
      <use ffdec:characterId="12" height="8.25" transform="matrix(0.0054, -1.0, 1.0, 0.0054, 197.2, 147.55)" width="3.5" xlink:href="#shape14"/>
      <use ffdec:characterId="12" height="8.25" transform="matrix(0.0054, -1.0, 1.0, 0.0054, 276.6, 148.15)" width="3.5" xlink:href="#shape14"/>
      <use ffdec:characterId="11" height="215.85" transform="matrix(-0.0053, -1.0, 0.4858, -0.0023, 235.95, 141.6)" width="12.15" xlink:href="#shape13"/>
      <use ffdec:characterId="10" height="215.85" transform="matrix(0.0, -1.0, 0.4576, 0.0, 235.85, 183.05)" width="12.15" xlink:href="#shape12"/>
      <use ffdec:characterId="12" height="8.25" transform="matrix(1.0, 0.0, 0.0, 1.0, 227.8, 106.05)" width="3.5" xlink:href="#shape14"/>
      <use ffdec:characterId="12" height="8.25" transform="matrix(1.0, 0.0, 0.0, 1.0, 227.4, 143.35)" width="3.5" xlink:href="#shape14"/>
      <use ffdec:characterId="12" height="8.25" transform="matrix(1.0, 0.0, 0.0, 1.0, 227.4, 181.35)" width="3.5" xlink:href="#shape14"/>
      <use ffdec:characterId="12" height="8.25" transform="matrix(1.0, 0.0, 0.0, 1.0, 227.9, 218.55)" width="3.5" xlink:href="#shape14"/>
      <use ffdec:characterId="11" height="215.85" transform="matrix(0.995, 0.0934, 0.0114, 0.9746, 235.5, 158.45)" width="12.15" xlink:href="#shape13"/>
      <use ffdec:characterId="13" height="11.3" transform="matrix(1.0, 0.0, 0.0, 1.0, 235.55, 66.5)" width="9.35" xlink:href="#shape15"/>
      <use ffdec:characterId="13" height="11.3" transform="matrix(1.0, 0.0, 0.0, 1.0, 233.9, 106.65)" width="9.35" xlink:href="#shape15"/>
      <use ffdec:characterId="13" height="11.3" transform="matrix(1.0, 0.0, 0.0, 1.0, 233.35, 143.5)" width="9.35" xlink:href="#shape15"/>
      <use ffdec:characterId="13" height="11.3" transform="matrix(-1.0, 0.0, 0.0, 1.0, 233.8, 181.3)" width="9.35" xlink:href="#shape15"/>
      <use ffdec:characterId="13" height="11.3" transform="matrix(1.2686, 0.0, 0.0, 1.0536, 234.3, 218.3)" width="9.35" xlink:href="#shape15"/>
      <use ffdec:characterId="14" height="13.8" transform="matrix(-0.783, 0.0, 0.0, 0.783, 193.05, 64.8)" width="11.4" xlink:href="#shape16"/>
      <use ffdec:characterId="14" height="13.8" transform="matrix(1.0, 0.0, 0.0, 1.0, 194.1, 64.7)" width="11.4" xlink:href="#shape16"/>
      <use ffdec:characterId="14" height="13.8" transform="matrix(-0.783, 0.0, 0.0, 0.783, 195.25, 104.95)" width="11.4" xlink:href="#shape16"/>
      <use ffdec:characterId="14" height="13.8" transform="matrix(1.0, 0.0, 0.0, 1.0, 196.3, 104.85)" width="11.4" xlink:href="#shape16"/>
      <use ffdec:characterId="14" height="13.8" transform="matrix(-0.783, 0.0, 0.0, 0.783, 196.35, 142.35)" width="11.4" xlink:href="#shape16"/>
      <use ffdec:characterId="14" height="13.8" transform="matrix(1.0, 0.0, 0.0, 1.0, 197.4, 142.25)" width="11.4" xlink:href="#shape16"/>
      <use ffdec:characterId="14" height="13.8" transform="matrix(0.783, 0.0, 0.0, 0.783, 197.35, 184.05)" width="11.4" xlink:href="#shape16"/>
      <use ffdec:characterId="14" height="13.8" transform="matrix(-1.0, 0.0, 0.0, 1.0, 196.3, 183.95)" width="11.4" xlink:href="#shape16"/>
      <use ffdec:characterId="14" height="13.8" transform="matrix(0.783, 0.0, 0.0, 0.783, 196.2, 221.85)" width="11.4" xlink:href="#shape16"/>
      <use ffdec:characterId="14" height="13.8" transform="matrix(-1.0, 0.0, 0.0, 1.0, 195.15, 221.75)" width="11.4" xlink:href="#shape16"/>
      <use ffdec:characterId="14" height="13.8" transform="matrix(0.783, 0.0, 0.0, 0.783, 194.15, 257.15)" width="11.4" xlink:href="#shape16"/>
      <use ffdec:characterId="14" height="13.8" transform="matrix(-1.0, 0.0, 0.0, 1.0, 193.1, 257.05)" width="11.4" xlink:href="#shape16"/>
      <use ffdec:characterId="12" height="8.25" transform="matrix(1.0, 0.0, 0.0, 1.0, 230.4, 253.85)" width="3.5" xlink:href="#shape14"/>
      <use ffdec:characterId="13" height="11.3" transform="matrix(1.2686, 0.0, 0.0, 1.0536, 237.35, 254.4)" width="9.35" xlink:href="#shape15"/>
      <use ffdec:characterId="14" height="13.8" transform="matrix(0.783, 0.0, 0.0, 0.783, 280.15, 64.8)" width="11.4" xlink:href="#shape16"/>
      <use ffdec:characterId="14" height="13.8" transform="matrix(-1.0, 0.0, 0.0, 1.0, 279.1, 64.7)" width="11.4" xlink:href="#shape16"/>
      <use ffdec:characterId="14" height="13.8" transform="matrix(0.783, 0.0, 0.0, 0.783, 277.95, 104.95)" width="11.4" xlink:href="#shape16"/>
      <use ffdec:characterId="14" height="13.8" transform="matrix(-1.0, 0.0, 0.0, 1.0, 276.9, 104.85)" width="11.4" xlink:href="#shape16"/>
      <use ffdec:characterId="14" height="13.8" transform="matrix(0.783, 0.0, 0.0, 0.783, 276.85, 142.35)" width="11.4" xlink:href="#shape16"/>
      <use ffdec:characterId="14" height="13.8" transform="matrix(-1.0, 0.0, 0.0, 1.0, 275.8, 142.25)" width="11.4" xlink:href="#shape16"/>
      <use ffdec:characterId="14" height="13.8" transform="matrix(-0.783, 0.0, 0.0, 0.783, 276.2, 184.2)" width="11.4" xlink:href="#shape16"/>
      <use ffdec:characterId="14" height="13.8" transform="matrix(1.0, 0.0, 0.0, 1.0, 277.25, 184.1)" width="11.4" xlink:href="#shape17"/>
      <use ffdec:characterId="14" height="13.8" transform="matrix(-0.783, 0.0, 0.0, 0.783, 277.15, 221.6)" width="11.4" xlink:href="#shape17"/>
      <use ffdec:characterId="14" height="13.8" transform="matrix(1.0, 0.0, 0.0, 1.0, 278.2, 221.5)" width="11.4" xlink:href="#shape17"/>
      <use ffdec:characterId="14" height="13.8" transform="matrix(-0.8792, 0.0, 0.0, 0.6468, 278.65, 256.85)" width="11.4" xlink:href="#shape17"/>
      <use ffdec:characterId="14" height="13.8" transform="matrix(1.1228, 0.0, 0.0, 0.8261, 279.85, 256.75)" width="11.4" xlink:href="#shape17"/>
    </g>
    <use ffdec:characterId="48" height="121.25" transform="matrix(1.0, 0.0, 0.0, 1.0, 86.8, 368.9)" width="190.6" xlink:href="#shape18"/>
    <use ffdec:characterId="52" height="62.1" transform="matrix(1.0, 0.0, 0.0, 1.0, 215.0, 85.5)" width="62.1" xlink:href="#sprite7"/>
    <use ffdec:characterId="52" height="62.1" transform="matrix(1.0, 0.0, 0.0, 1.0, 256.3, 87.2)" width="62.1" xlink:href="#sprite7"/>
    <use ffdec:characterId="52" height="62.1" transform="matrix(1.0, 0.0, 0.0, 1.0, 215.0, 125.1)" width="62.1" xlink:href="#sprite7"/>
    <use ffdec:characterId="52" height="62.1" transform="matrix(1.0, 0.0, 0.0, 1.0, 255.5, 125.6)" width="62.1" xlink:href="#sprite7"/>
    <use ffdec:characterId="52" height="62.1" transform="matrix(1.0, 0.0, 0.0, 1.0, 215.0, 163.1)" width="62.1" xlink:href="#sprite7"/>
    <use ffdec:characterId="52" height="62.1" transform="matrix(1.0, 0.0, 0.0, 1.0, 253.9, 163.2)" width="62.1" xlink:href="#sprite7"/>
    <use ffdec:characterId="52" height="62.1" transform="matrix(1.0, 0.0, 0.0, 1.0, 215.0, 200.3)" width="62.1" xlink:href="#sprite7"/>
    <use ffdec:characterId="52" height="62.1" transform="matrix(1.0, 0.0, 0.0, 1.0, 253.1, 198.8)" width="62.1" xlink:href="#sprite7"/>
    <use ffdec:characterId="52" height="62.1" transform="matrix(1.0, 0.0, 0.0, 1.0, 214.6, 236.7)" width="62.1" xlink:href="#sprite7"/>
    <use ffdec:characterId="52" height="62.1" transform="matrix(1.0, 0.0, 0.0, 1.0, 256.7, 235.6)" width="62.1" xlink:href="#sprite7"/>
    <use ffdec:characterId="56" height="21.35" transform="matrix(1.0, 0.0, 0.0, 1.0, 215.0, 85.5)" width="21.3" xlink:href="#sprite8"/>
    <use ffdec:characterId="56" height="21.35" transform="matrix(1.0, 0.0, 0.0, 1.0, 256.3, 87.2)" width="21.3" xlink:href="#sprite9"/>
    <use ffdec:characterId="55" height="21.35" transform="matrix(1.0, 0.0, 0.0, 1.0, 215.0, 125.1)" width="21.3" xlink:href="#sprite10"/>
    <use ffdec:characterId="55" height="21.35" transform="matrix(1.0, 0.0, 0.0, 1.0, 256.3, 125.8)" width="21.3" xlink:href="#sprite10"/>
    <use ffdec:characterId="55" height="21.35" transform="matrix(1.0, 0.0, 0.0, 1.0, 215.0, 163.1)" width="21.3" xlink:href="#sprite10"/>
    <use ffdec:characterId="56" height="21.35" transform="matrix(1.0, 0.0, 0.0, 1.0, 254.3, 163.3)" width="21.3" xlink:href="#sprite9"/>
    <use ffdec:characterId="55" height="21.35" transform="matrix(1.0, 0.0, 0.0, 1.0, 215.0, 200.3)" width="21.3" xlink:href="#sprite10"/>
    <use ffdec:characterId="55" height="21.35" transform="matrix(1.0, 0.0, 0.0, 1.0, 254.3, 199.5)" width="21.3" xlink:href="#sprite10"/>
    <use ffdec:characterId="55" height="21.35" transform="matrix(1.0, 0.0, 0.0, 1.0, 214.6, 236.7)" width="21.3" xlink:href="#sprite10"/>
    <use ffdec:characterId="55" height="21.35" transform="matrix(1.0, 0.0, 0.0, 1.0, 255.9, 235.9)" width="21.3" xlink:href="#sprite10"/>
  </g>
  <defs>
    <g id="shape0">
      <path d="M-1.3 -19.85 Q1.05 -20.95 3.55 -18.95 5.15 -16.8 5.8 -18.0 11.45 -22.75 17.9 -12.55 25.7 -8.55 26.7 -5.75 L25.4 -1.0 Q22.25 8.8 19.85 -4.8 L18.8 -6.3 17.9 -6.75 Q16.85 -6.8 16.05 -4.0 L15.75 -1.55 14.65 1.7 Q13.3 4.15 12.3 5.05 10.8 6.35 9.95 4.4 L7.75 -2.5 Q7.25 -6.5 4.45 -7.55 1.8 -9.1 0.25 -2.6 -0.35 1.75 -1.4 4.05 -2.4 6.25 -3.85 6.55 -6.1 6.3 -7.95 0.85 -10.45 -6.4 -12.2 -3.3 L-13.0 -1.75 Q-13.75 0.4 -14.45 1.55 -16.25 4.45 -17.7 1.5 -18.1 -1.1 -19.05 -1.4 L-19.25 -3.35 -19.1 -4.75 -18.25 -8.05 Q-17.15 -11.2 -14.9 -15.45 L-13.0 -15.7 Q-12.9 -15.2 -12.95 -12.5 -13.0 -9.8 -13.15 -9.1 -13.9 -8.45 -14.25 -5.3 -13.9 -4.8 -15.25 -0.95 L-13.3 -4.7 Q-13.4 -8.3 -12.65 -8.65 -12.4 -9.4 -11.7 -15.0 L-11.7 -15.05 Q-10.95 -19.4 -6.75 -17.15 -3.65 -14.95 -3.05 -16.05 -1.55 -2.55 -1.4 0.8 -0.45 -6.7 1.8 -8.35 1.3 -9.3 0.05 -13.7 -1.25 -18.4 -1.3 -19.85 M27.15 -0.85 L26.35 2.05 Q25.3 5.4 24.55 6.45 21.7 7.95 20.2 5.5 18.9 2.35 18.65 -1.8 18.25 -1.8 17.95 -0.8 17.3 4.15 16.2 7.3 15.75 9.55 14.1 11.45 L10.05 11.65 Q8.05 11.65 6.35 4.45 L5.95 2.65 Q4.05 -6.35 2.1 1.3 L-0.2 8.7 Q-1.75 11.2 -3.65 11.15 -5.5 11.05 -7.25 8.6 -8.6 6.2 -10.55 1.15 -4.5 12.05 -2.15 10.35 0.25 8.85 0.8 3.55 2.5 -3.7 4.8 -2.1 5.6 -1.4 6.65 4.4 8.6 15.15 14.4 9.6 15.75 7.25 16.85 0.35 18.0 -3.55 18.75 -2.55 19.4 -1.35 20.25 3.2 21.75 9.1 24.25 5.65 25.6 3.1 27.15 -0.85 M15.1 -2.8 Q15.2 -5.2 16.1 -6.1 L11.95 -11.55 15.1 -2.8 M20.0 -10.4 L17.8 -11.65 19.85 -8.0 Q19.1 -10.15 20.0 -10.4 M24.2 -2.45 Q23.15 -1.05 22.1 -3.6 L23.15 -0.1 24.2 -2.45 M13.45 1.65 Q11.25 6.15 10.0 0.95 10.75 4.75 11.5 4.55 12.45 4.65 13.45 1.65 M-16.2 -2.6 Q-16.45 -6.45 -17.8 -5.0 -16.95 -5.65 -16.2 -2.6 M-16.7 -1.25 Q-16.95 -5.1 -18.3 -3.65 -17.45 -4.3 -16.7 -1.25 M-15.6 -4.05 Q-15.85 -7.9 -17.2 -6.45 -16.35 -7.1 -15.6 -4.05 M-6.4 -7.8 Q-6.9 -10.7 -7.75 -11.85 L-10.8 -11.8 -8.6 -11.85 Q-7.1 -11.1 -6.4 -7.8 M-7.1 -3.45 L-5.5 3.7 Q-4.35 6.7 -2.85 4.8 -4.4 4.85 -5.45 1.75 -6.3 -0.75 -6.85 -5.2 -8.85 -10.3 -11.9 -7.45 -7.95 -9.6 -7.1 -3.45 M-16.2 6.7 L-14.4 4.25 Q-12.8 1.8 -12.7 1.3 L-12.1 0.6 Q-11.5 0.05 -11.3 0.2 -15.85 7.85 -16.2 6.95 L-16.2 6.7" fill="#fffff3" fill-rule="evenodd" stroke="none"/>
      <path d="M-1.3 -19.85 Q-1.25 -18.4 0.05 -13.7 1.3 -9.3 1.8 -8.35 -0.45 -6.7 -1.4 0.8 -1.55 -2.55 -3.05 -16.05 -1.7 -19.7 -1.3 -19.85 M-11.7 -15.0 Q-12.4 -9.4 -12.65 -8.65 -13.4 -8.3 -13.3 -4.7 L-15.25 -0.95 Q-13.9 -4.8 -14.25 -5.3 -13.9 -8.45 -13.15 -9.1 -13.0 -9.8 -12.95 -12.5 -12.9 -15.2 -13.0 -15.7 -12.4 -15.5 -11.7 -15.0 M-14.9 -15.45 Q-17.15 -11.2 -18.25 -8.05 L-19.1 -4.75 -19.25 -3.35 -19.05 -1.4 Q-19.9 -1.55 -21.75 0.25 -22.75 1.7 -21.75 4.25 -22.35 4.0 -22.6 3.05 L-22.75 1.3 -22.5 -0.9 Q-22.1 -2.75 -18.65 -9.05 L-14.9 -15.45 M24.55 6.45 L22.85 8.25 18.7 9.0 Q17.2 9.0 16.6 8.25 L16.2 7.3 Q17.3 4.15 17.95 -0.8 18.25 -1.8 18.65 -1.8 18.9 2.35 20.2 5.5 21.7 7.95 24.55 6.45 M12.1 14.6 Q11.2 15.55 10.25 15.95 3.65 12.5 3.4 10.1 2.9 6.35 0.9 12.8 0.55 15.1 -1.2 15.75 -3.1 16.45 -5.6 14.85 L-6.65 13.7 Q-7.45 12.55 -7.6 11.4 -9.7 7.0 -10.75 2.55 -9.15 12.7 -11.7 12.9 L-12.95 12.4 Q-15.25 10.5 -16.2 6.95 -17.15 7.25 -17.7 6.55 -18.2 2.35 -19.55 2.3 -18.4 0.9 -17.85 3.0 -17.6 6.95 -16.2 6.7 L-16.2 6.95 Q-15.85 7.85 -11.3 0.2 L-10.55 1.15 Q-8.6 6.2 -7.25 8.6 -5.5 11.05 -3.65 11.15 -1.75 11.2 -0.2 8.7 L2.1 1.3 Q4.05 -6.35 5.95 2.65 L6.35 4.45 Q8.05 11.65 10.05 11.65 L14.1 11.45 Q13.15 13.45 12.1 14.6 M20.0 -10.4 Q19.1 -10.15 19.85 -8.0 L17.8 -11.65 20.0 -10.4 M15.1 -2.8 L11.95 -11.55 16.1 -6.1 Q15.2 -5.2 15.1 -2.8 M13.45 1.65 Q12.45 4.65 11.5 4.55 10.75 4.75 10.0 0.95 11.25 6.15 13.45 1.65 M24.2 -2.45 L23.15 -0.1 22.1 -3.6 Q23.15 -1.05 24.2 -2.45 M-15.6 -4.05 Q-16.35 -7.1 -17.2 -6.45 -15.85 -7.9 -15.6 -4.05 M-16.7 -1.25 Q-17.45 -4.3 -18.3 -3.65 -16.95 -5.1 -16.7 -1.25 M-16.2 -2.6 Q-16.95 -5.65 -17.8 -5.0 -16.45 -6.45 -16.2 -2.6 M-6.4 -7.8 Q-7.1 -11.1 -8.6 -11.85 L-10.8 -11.8 -7.75 -11.85 Q-6.9 -10.7 -6.4 -7.8 M-7.1 -3.45 Q-7.95 -9.6 -11.9 -7.45 -8.85 -10.3 -6.85 -5.2 -6.3 -0.75 -5.45 1.75 -4.4 4.85 -2.85 4.8 -4.35 6.7 -5.5 3.7 L-7.1 -3.45" fill="#ffcfb7" fill-rule="evenodd" stroke="none"/>
      <path d="M-19.05 -1.4 Q-18.1 -1.1 -17.7 1.5 -16.25 4.45 -14.45 1.55 -13.75 0.4 -13.0 -1.75 L-12.2 -3.3 Q-10.45 -6.4 -7.95 0.85 -6.1 6.3 -3.85 6.55 -2.4 6.25 -1.4 4.05 -0.35 1.75 0.25 -2.6 1.8 -9.1 4.45 -7.55 7.25 -6.5 7.75 -2.5 L9.95 4.4 Q10.8 6.35 12.3 5.05 13.3 4.15 14.65 1.7 L15.75 -1.55 16.05 -4.0 Q16.85 -6.8 17.9 -6.75 L18.8 -6.3 19.85 -4.8 Q22.25 8.8 25.4 -1.0 L26.7 -5.75 Q26.65 -4.4 27.15 -0.85 25.6 3.1 24.25 5.65 21.75 9.1 20.25 3.2 19.4 -1.35 18.75 -2.55 18.0 -3.55 16.85 0.35 15.75 7.25 14.4 9.6 8.6 15.15 6.65 4.4 5.6 -1.4 4.8 -2.1 2.5 -3.7 0.8 3.55 0.25 8.85 -2.15 10.35 -4.5 12.05 -10.55 1.15 L-11.3 0.2 Q-11.5 0.05 -12.1 0.6 L-12.7 1.3 Q-12.8 1.8 -14.4 4.25 L-16.2 6.7 Q-17.6 6.95 -17.85 3.0 -18.4 0.9 -19.55 2.3 -19.6 3.3 -21.75 4.25 -22.75 1.7 -21.75 0.25 -19.9 -1.55 -19.05 -1.4" fill="#000000" fill-rule="evenodd" stroke="none"/>
      <path d="M20.65 9.75 L20.85 9.85 12.1 14.6 Q13.15 13.45 14.1 11.45 17.6 11.45 20.65 9.75 M8.3 16.3 Q-5.55 22.0 -15.9 19.6 -34.45 11.45 -22.6 3.05 -22.35 4.0 -21.75 4.25 -20.1 4.7 -17.7 6.55 -17.15 7.25 -16.2 6.95 -15.25 10.5 -12.95 12.4 L-11.7 12.9 Q-9.45 13.45 -7.6 11.4 -7.45 12.55 -6.65 13.7 L-5.6 14.85 Q-3.1 16.45 -1.2 15.75 0.55 15.1 0.9 12.8 1.7 11.95 2.5 12.8 5.65 16.1 8.3 16.3" fill="#000000" fill-opacity="0.3019608" fill-rule="evenodd" stroke="none"/>
      <path d="M22.85 8.25 L20.65 9.75 Q17.6 11.45 14.1 11.45 15.75 9.55 16.2 7.3 L16.6 8.25 Q17.2 9.0 18.7 9.0 L22.85 8.25 M10.25 15.95 L8.3 16.3 Q5.65 16.1 2.5 12.8 1.7 11.95 0.9 12.8 2.9 6.35 3.4 10.1 3.65 12.5 10.25 15.95 M-7.6 11.4 Q-9.45 13.45 -11.7 12.9 -9.15 12.7 -10.75 2.55 -9.7 7.0 -7.6 11.4" fill="#d3705a" fill-rule="evenodd" stroke="none"/>
      <path d="M-17.7 6.55 Q-20.1 4.7 -21.75 4.25 -19.6 3.3 -19.55 2.3 -18.2 2.35 -17.7 6.55" fill="#e49d87" fill-rule="evenodd" stroke="none"/>
    </g>
    <g id="sprite0">
      <use ffdec:characterId="5" height="81.2" transform="matrix(1.0, 0.0, 0.0, 1.0, 0.0, 0.0)" width="64.4" xlink:href="#morphshape0"/>
      <use ffdec:characterId="4" height="13.4" transform="matrix(-0.8349, 0.4315, 0.4315, 0.8349, -22.4, -42.55)" width="13.4" xlink:href="#sprite1"/>
      <use ffdec:characterId="4" height="13.4" transform="matrix(-0.8349, 0.4315, 0.4315, 0.8349, 36.4, -52.85)" width="13.4" xlink:href="#sprite1"/>
    </g>
    <g id="morphshape0">
      <path d="M-22.4 -42.5 Q1.85 -28.5 8.05 -2.1 14.25 24.25 18.65 24.7 23.0 25.15 31.0 0.15 38.95 -24.9 36.35 -52.7" fill="none" stroke="#ff0000" stroke-linecap="round" stroke-linejoin="round" stroke-width="2.0"/>
    </g>
    <g id="sprite1">
      <use ffdec:characterId="3" height="13.4" transform="matrix(1.0, 0.0, 0.0, 1.0, 0.0, 0.0)" width="13.4" xlink:href="#shape1"/>
    </g>
    <g id="shape1">
      <path d="M4.75 -4.75 Q6.7 -2.8 6.7 0.0 6.7 2.8 4.75 4.75 2.8 6.7 0.0 6.7 -2.8 6.7 -4.75 4.75 -6.7 2.8 -6.7 0.0 -6.7 -2.8 -4.75 -4.75 -2.8 -6.7 0.0 -6.7 2.8 -6.7 4.75 -4.75" fill="url(#gradient0)" fill-rule="evenodd" stroke="none"/>
    </g>
    <radialGradient cx="0" cy="0" gradientTransform="matrix(0.0105, 0.0, 0.0, 0.0105, -1.1, -1.5)" gradientUnits="userSpaceOnUse" id="gradient0" r="819.2" spreadMethod="pad">
      <stop offset="0.0" stop-color="#fbf6e7"/>
      <stop offset="0.4588235294117647" stop-color="#ffa737"/>
      <stop offset="1.0" stop-color="#b54200"/>
    </radialGradient>
    <g id="shape2">
      <path d="M7.3 -41.8 Q9.95 -34.4 9.35 -28.3 -0.5 -29.9 -15.6 -23.95 L-6.95 -50.9 Q-1.0 -59.45 4.05 -49.65 L7.3 -41.8 M-33.45 41.1 Q-34.85 39.15 -36.65 35.0 -38.95 29.85 -39.0 26.9 4.25 37.5 24.75 30.5 22.0 36.6 16.2 43.0 -1.1 61.9 -33.45 41.1 M-35.25 8.75 L-31.4 1.45 Q-28.85 -3.05 -25.0 -7.15 -11.8 -11.25 -0.3 -12.55 9.05 -10.85 24.05 9.9 8.35 17.8 -35.25 8.75" fill="#ef0000" fill-rule="evenodd" stroke="none"/>
      <path d="M9.35 -28.3 Q9.95 -34.4 7.3 -41.8 10.8 -33.4 13.65 -27.15 11.8 -27.9 9.35 -28.3 M-0.3 -12.55 Q13.15 -14.05 24.4 -11.55 31.4 -4.0 33.6 0.65 31.4 6.15 24.05 9.9 9.05 -10.85 -0.3 -12.55 M39.75 18.65 Q41.05 22.95 37.95 31.2 34.85 39.45 25.7 46.75 16.55 54.0 7.9 54.75 -5.65 56.15 -18.6 51.9 -27.95 48.85 -33.45 41.1 -1.1 61.9 16.2 43.0 22.0 36.6 24.75 30.5 27.45 29.6 33.1 25.1 38.65 20.65 39.75 18.65" fill="#970000" fill-rule="evenodd" stroke="none"/>
      <path d="M9.35 -28.3 Q11.8 -27.9 13.65 -27.15 18.15 -19.4 24.4 -11.55 13.15 -14.05 -0.3 -12.55 L-0.35 -12.65 Q8.4 -19.05 9.35 -28.3 M33.6 0.65 Q39.1 12.2 39.75 18.65 38.65 20.65 33.1 25.1 27.45 29.6 24.75 30.5 29.55 19.6 24.05 9.9 31.4 6.15 33.6 0.65" fill="#000066" fill-rule="evenodd" stroke="none"/>
      <path d="M-15.6 -23.95 Q-0.5 -29.9 9.35 -28.3 8.4 -19.05 -0.35 -12.65 L-0.3 -12.55 Q-11.8 -11.25 -25.0 -7.15 -19.95 -12.55 -15.6 -23.95 M-39.0 26.9 Q-39.15 15.65 -35.25 8.75 8.35 17.8 24.05 9.9 29.55 19.6 24.75 30.5 4.25 37.5 -39.0 26.9" fill="#0000db" fill-rule="evenodd" stroke="none"/>
      <path d="M-16.55 -8.35 Q-29.85 7.95 -28.5 24.3 -27.6 35.25 -21.9 41.45 -51.3 21.8 -23.3 -6.6 -11.85 -18.15 -9.9 -28.0 -8.35 -18.35 -16.55 -8.35" fill="#ffffff" fill-opacity="0.4117647" fill-rule="evenodd" stroke="none"/>
    </g>
    <g id="sprite2">
      <use ffdec:characterId="17" height="21.8" transform="matrix(1.0, 0.0, 0.0, 1.0, 0.0, 0.0)" width="21.85" xlink:href="#shape3"/>
    </g>
    <g id="shape3">
      <path d="M6.75 -8.5 Q10.3 -5.7 10.85 -1.25 11.35 3.2 8.55 6.75 5.75 10.3 1.25 10.8 -3.2 11.3 -6.7 8.55 -10.25 5.7 -10.8 1.25 -11.3 -3.2 -8.5 -6.75 -5.7 -10.3 -1.2 -10.8 3.2 -11.35 6.75 -8.5" fill="url(#gradient1)" fill-rule="evenodd" stroke="none"/>
    </g>
    <radialGradient cx="0" cy="0" gradientTransform="matrix(0.0187, 0.0, 0.0, 0.0187, -3.75, -2.45)" gradientUnits="userSpaceOnUse" id="gradient1" r="819.2" spreadMethod="pad">
      <stop offset="0.25098039215686274" stop-color="#ffffff"/>
      <stop offset="0.8549019607843137" stop-color="#8eb5f8"/>
      <stop offset="0.996078431372549" stop-color="#0859d4"/>
    </radialGradient>
    <g id="shape4">
      <path d="M-8.45 6.2 Q-11.9 4.2 -11.9 1.0 -11.9 -2.2 -8.45 -4.75 -4.95 -7.3 0.0 -7.7 4.95 -8.15 8.4 -6.15 11.9 -4.15 11.95 -0.9 11.9 2.3 8.4 4.85 4.95 7.4 0.0 7.8 -4.95 8.2 -8.45 6.2" fill="#000000" fill-opacity="0.3019608" fill-rule="evenodd" stroke="none"/>
    </g>
    <g id="sprite3">
      <use ffdec:characterId="19" height="5.7" transform="matrix(1.0, 0.0, 0.0, 1.0, 0.0, 0.0)" width="5.8" xlink:href="#shape5"/>
    </g>
    <g id="shape5">
      <path d="M0.0 -2.3 Q-0.45 -2.25 -0.7 -1.9 L-0.9 -1.1 Q-0.85 -0.65 -0.45 -0.35 -0.1 -0.05 0.35 -0.1 0.8 -0.15 1.05 -0.45 1.35 -0.85 1.3 -1.3 L0.85 -2.05 0.0 -2.3 M1.65 -2.2 Q2.65 -1.45 2.85 -0.25 3.0 0.95 2.3 1.85 1.6 2.75 0.45 2.85 -0.75 2.95 -1.7 2.25 -2.7 1.45 -2.85 0.25 -3.05 -0.95 -2.3 -1.85 -1.65 -2.75 -0.45 -2.85 0.7 -2.95 1.65 -2.2" fill="#000000" fill-rule="evenodd" stroke="none"/>
      <path d="M0.0 -2.3 L0.85 -2.05 1.3 -1.3 Q1.35 -0.85 1.05 -0.45 0.8 -0.15 0.35 -0.1 -0.1 -0.05 -0.45 -0.35 -0.85 -0.65 -0.9 -1.1 L-0.7 -1.9 Q-0.45 -2.25 0.0 -2.3" fill="#ffffff" fill-rule="evenodd" stroke="none"/>
    </g>
    <g id="sprite4">
      <use ffdec:characterId="19" height="5.7" transform="matrix(1.0, 0.0, 0.0, 1.0, 0.0, 0.0)" width="5.8" xlink:href="#shape6"/>
    </g>
    <g id="shape6">
      <path d="M0.0 -2.3 Q-0.45 -2.25 -0.7 -1.9 L-0.9 -1.1 Q-0.85 -0.65 -0.45 -0.35 -0.1 -0.05 0.35 -0.1 0.8 -0.15 1.05 -0.45 1.35 -0.85 1.3 -1.3 L0.85 -2.05 0.0 -2.3 M1.65 -2.2 Q2.65 -1.45 2.85 -0.25 3.0 0.95 2.3 1.85 1.6 2.75 0.45 2.85 -0.75 2.95 -1.7 2.25 -2.7 1.45 -2.85 0.25 -3.05 -0.95 -2.3 -1.85 -1.65 -2.75 -0.45 -2.85 0.7 -2.95 1.65 -2.2" fill="#000000" fill-rule="evenodd" stroke="none"/>
      <path d="M0.0 -2.3 L0.85 -2.05 1.3 -1.3 Q1.35 -0.85 1.05 -0.45 0.8 -0.15 0.35 -0.1 -0.1 -0.05 -0.45 -0.35 -0.85 -0.65 -0.9 -1.1 L-0.7 -1.9 Q-0.45 -2.25 0.0 -2.3" fill="#ffffff" fill-rule="evenodd" stroke="none"/>
    </g>
    <g id="shape7">
      <path d="M-12.5 0.8 Q-11.5 -2.45 -7.7 -2.95 -3.7 -3.05 -2.6 1.3 -0.4 9.15 4.3 8.45 6.6 8.2 8.1 7.15 6.5 8.8 3.5 9.15 -1.25 9.85 -3.4 2.0 -4.55 -2.4 -8.55 -2.25 -11.55 -1.8 -12.5 0.8 M-23.65 -5.45 Q-25.25 -3.9 -25.35 -1.9 -26.65 11.35 -17.7 10.65 -16.4 10.55 -15.35 9.85 -16.65 11.2 -18.5 11.3 -27.45 12.05 -26.15 -1.2 -26.0 -3.7 -23.65 -5.45" fill="#9f9f9f" fill-rule="evenodd" stroke="none"/>
      <path d="M6.8 -9.55 L8.05 -8.8 9.2 -7.85 Q9.95 -7.05 10.55 -5.4 11.8 -1.9 11.7 3.35 L11.75 3.35 11.2 6.15 Q10.45 8.3 8.15 9.8 6.4 10.95 2.45 11.05 -2.05 11.05 -4.15 4.4 -5.35 -0.4 -8.3 -0.1 -11.25 0.2 -11.55 5.15 -12.5 12.1 -16.95 12.75 -29.2 15.7 -27.75 -1.35 -27.6 -3.2 -24.8 -6.4 -20.55 -9.7 -10.0 -10.7 2.0 -11.9 6.8 -9.55 M21.3 6.45 Q15.75 6.8 15.35 0.55 L16.5 -1.4 16.45 -4.1 Q19.65 0.05 25.6 1.45 L21.3 6.45 M15.05 -6.75 L15.3 -5.8 Q15.8 -3.5 15.7 -1.1 L15.4 -0.65 15.2 -0.4 14.8 0.15 13.85 1.15 Q13.95 -1.9 13.15 -5.0 L14.2 -5.75 14.5 -6.0 14.9 -6.55 15.05 -6.75 M-12.5 0.8 Q-11.55 -1.8 -8.55 -2.25 -4.55 -2.4 -3.4 2.0 -1.25 9.85 3.5 9.15 6.5 8.8 8.1 7.15 11.25 3.85 8.85 -4.65 7.2 -11.05 -8.65 -9.5 L-9.8 -9.4 Q-19.75 -8.4 -23.65 -5.45 -26.0 -3.7 -26.15 -1.2 -27.45 12.05 -18.5 11.3 -16.65 11.2 -15.35 9.85 -13.45 7.8 -12.95 2.9 -12.9 1.7 -12.5 0.8" fill="#333333" fill-rule="evenodd" stroke="none"/>
      <path d="M6.8 -9.55 Q2.0 -11.9 -10.0 -10.7 -20.55 -9.7 -24.8 -6.4 -22.2 -8.55 -19.05 -9.9 -14.65 -11.9 -6.75 -12.7 4.9 -13.85 9.7 -11.7 L6.8 -9.55" fill="#ffb871" fill-rule="evenodd" stroke="none"/>
      <path d="M8.05 -8.8 L6.8 -9.55 9.7 -11.7 11.05 -11.0 8.05 -8.8" fill="#ffa851" fill-rule="evenodd" stroke="none"/>
      <path d="M9.2 -7.85 L8.05 -8.8 11.05 -11.0 12.2 -10.05 9.2 -7.85" fill="#ff9933" fill-rule="evenodd" stroke="none"/>
      <path d="M11.2 6.15 L11.75 3.35 12.85 3.35 14.65 1.4 Q14.45 2.95 13.9 4.25 L11.2 6.15" fill="#f27900" fill-rule="evenodd" stroke="none"/>
      <path d="M10.55 -5.4 Q9.95 -7.05 9.2 -7.85 L12.2 -10.05 Q13.1 -9.15 13.6 -7.95 12.3 -6.5 10.55 -5.4" fill="#ff8d1c" fill-rule="evenodd" stroke="none"/>
      <path d="M8.15 9.8 Q10.45 8.3 11.2 6.15 L13.9 4.25 Q12.35 7.95 8.15 9.8" fill="#df7000" fill-rule="evenodd" stroke="none"/>
      <path d="M16.1 -6.4 Q19.4 -0.7 27.35 1.25 L23.1 6.2 21.3 6.45 25.6 1.45 Q19.65 0.05 16.45 -4.1 L16.1 -6.4" fill="#666666" fill-rule="evenodd" stroke="none"/>
      <path d="M13.6 -7.95 L14.0 -8.5 15.45 -8.75 15.45 -8.7 Q13.3 -6.0 11.95 -5.25 L10.55 -5.4 Q12.3 -6.5 13.6 -7.95" fill="#ffff99" fill-rule="evenodd" stroke="none"/>
      <path d="M11.75 3.35 L11.7 3.35 Q11.8 -1.9 10.55 -5.4 L11.95 -5.25 Q13.4 -1.0 12.85 3.35 L11.75 3.35" fill="#cc9900" fill-rule="evenodd" stroke="none"/>
      <path d="M15.45 -8.7 L16.1 -6.4 16.45 -4.1 16.5 -1.4 15.35 0.55 14.65 1.4 12.85 3.35 Q13.4 -1.0 11.95 -5.25 13.3 -6.0 15.45 -8.7 M15.05 -6.75 L14.9 -6.55 14.5 -6.0 14.2 -5.75 13.15 -5.0 Q13.95 -1.9 13.85 1.15 L14.8 0.15 15.2 -0.4 15.4 -0.65 15.7 -1.1 Q15.8 -3.5 15.3 -5.8 L15.05 -6.75" fill="#ffcc00" fill-rule="evenodd" stroke="none"/>
    </g>
    <g id="shape8">
      <path d="M-17.3 15.5 L-17.35 15.5 -17.5 15.55 Q-19.55 16.2 -21.3 15.1 L-22.2 14.35 Q-25.15 10.55 -24.75 1.15 -24.3 -3.9 -23.05 -7.25 L-21.25 -11.55 Q-20.5 -13.2 -19.25 -14.15 -15.85 -16.95 -13.6 -14.9 L-12.2 -13.15 -12.15 -13.1 Q-10.75 -10.6 -10.5 -6.8 -10.15 0.45 -11.05 4.35 -11.8 7.35 -12.8 10.0 -13.6 12.15 -14.3 12.95 L-16.25 14.9 -16.45 15.05 -16.5 15.1 -17.3 15.5 M-12.05 -6.3 Q-12.35 -12.45 -14.4 -13.7 -15.45 -14.35 -15.8 -14.4 -17.2 -14.55 -18.45 -13.15 L-20.8 -9.45 -22.05 -5.8 Q-22.7 -3.8 -23.05 -0.65 L-23.4 5.35 -23.0 9.15 -21.8 12.85 Q-20.85 14.4 -19.6 14.55 -18.7 14.65 -17.6 13.85 L-16.6 12.95 -15.25 10.85 -14.25 8.55 Q-13.65 7.2 -12.9 3.0 -11.85 -2.45 -12.05 -6.3" fill="#fe9a03" fill-rule="evenodd" stroke="none"/>
      <path d="M-14.25 8.55 L-15.25 10.85 -16.6 12.95 -17.6 13.85 Q-18.7 14.65 -19.6 14.55 -20.85 14.4 -21.8 12.85 L-23.0 9.15 -23.4 5.35 -23.05 -0.65 Q-22.7 -3.8 -22.05 -5.8 L-20.8 -9.45 -18.45 -13.15 Q-17.2 -14.55 -15.8 -14.4 -15.45 -14.35 -14.4 -13.7 -12.35 -12.45 -12.05 -6.3 -17.65 0.85 -14.25 8.55" fill="#7a1d05" fill-rule="evenodd" stroke="none"/>
      <path d="M-12.15 -13.1 Q-10.05 -9.6 -6.95 -6.45 L-6.65 -6.1 Q-2.15 -0.35 16.35 4.05 L16.35 4.1 19.6 4.3 21.0 5.85 Q21.3 7.55 21.0 9.05 18.75 9.75 17.05 5.75 3.35 7.25 -11.05 4.3 L-11.05 4.35 Q-10.15 0.45 -10.5 -6.8 -10.75 -10.6 -12.15 -13.1 M8.1 3.25 Q-7.8 -2.7 -9.6 -7.25 -8.85 -4.15 -9.55 1.9 -3.3 -0.35 8.1 3.25" fill="#fcd35a" fill-rule="evenodd" stroke="none"/>
      <path d="M21.0 9.05 L20.55 10.45 20.15 10.5 Q17.1 10.55 15.55 7.2 -1.0 6.3 -12.8 10.0 -11.8 7.35 -11.05 4.35 L-11.05 4.3 Q3.35 7.25 17.05 5.75 18.75 9.75 21.0 9.05" fill="#fbc115" fill-rule="evenodd" stroke="none"/>
      <path d="M20.55 10.45 L19.75 11.8 19.5 11.8 Q17.05 11.9 16.35 10.35 L15.6 9.25 3.15 9.75 Q-7.25 11.1 -12.9 13.85 L-16.45 15.15 -16.5 15.1 -16.45 15.05 -16.25 14.9 -14.3 12.95 Q-13.6 12.15 -12.8 10.0 -1.0 6.3 15.55 7.2 17.1 10.55 20.15 10.5 L20.55 10.45" fill="#e98c01" fill-rule="evenodd" stroke="none"/>
      <path d="M-12.05 -6.3 Q-11.85 -2.45 -12.9 3.0 -13.65 7.2 -14.25 8.55 -17.65 0.85 -12.05 -6.3" fill="#4b1203" fill-rule="evenodd" stroke="none"/>
      <path d="M-16.45 15.15 L-17.3 15.5 -16.5 15.1 -16.45 15.15" fill="#dc8501" fill-rule="evenodd" stroke="none"/>
      <path d="M8.1 3.25 Q-3.3 -0.35 -9.55 1.9 -8.85 -4.15 -9.6 -7.25 -7.8 -2.7 8.1 3.25" fill="#ffffff" fill-rule="evenodd" stroke="none"/>
    </g>
    <g id="shape9">
      <path d="M6.9 -5.0 L6.9 1.9 3.3 2.1 2.15 3.95 Q1.4 5.25 -1.5 5.0 -2.95 3.3 -3.05 0.6 -3.15 -2.3 -1.3 -3.6 L2.4 -3.85 6.9 -5.0" fill="url(#gradient2)" fill-rule="evenodd" stroke="none"/>
    </g>
    <linearGradient gradientTransform="matrix(0.0084, 0.0, 0.0, 0.0061, 0.0, 0.0)" gradientUnits="userSpaceOnUse" id="gradient2" spreadMethod="pad" x1="-819.2" x2="819.2">
      <stop offset="0.0" stop-color="#ef0000"/>
      <stop offset="1.0" stop-color="#ff871b" stop-opacity="0.023529412"/>
    </linearGradient>
    <g id="sprite6">
      <use ffdec:characterId="59" height="26.0" transform="matrix(1.0, 0.0, 0.0, 1.0, 0.0, 0.0)" width="250.65" xlink:href="#morphshape1"/>
    </g>
    <g id="morphshape1">
      <path d="M-142.7 -12.95 L0.8 -12.95 Q40.35 -16.1 44.7 -23.2 44.05 -29.4 76.05 -30.65 108.05 -31.9 107.9 -38.95 L22.85 -38.95 Q17.0 -32.35 -14.6 -33.1 -71.45 -31.65 -77.55 -23.2 -81.1 -16.3 -142.7 -12.95" fill="#240000" fill-opacity="0.3019608" fill-rule="evenodd" stroke="none"/>
      <path d="M-142.7 -12.95 Q-81.1 -16.3 -77.55 -23.2 -71.45 -31.65 -14.6 -33.1 17.0 -32.35 22.85 -38.95 L107.9 -38.95 Q108.05 -31.9 76.05 -30.65 44.05 -29.4 44.7 -23.2 40.35 -16.1 0.8 -12.95 L-142.7 -12.95 Z" ffdec:has-small-stroke="true" ffdec:original-stroke-width="0.0" fill="none" stroke="#000000" stroke-linecap="round" stroke-linejoin="round" stroke-opacity="0.0" stroke-width="1.0"/>
    </g>
    <g id="shape10">
      <path d="M-38.3 -114.75 Q-19.15 -112.6 45.55 -115.45 39.05 -24.05 44.05 70.0 1.45 67.65 -41.05 70.95 -34.4 -16.55 -38.3 -114.75" fill="#0000ab" fill-rule="evenodd" stroke="none"/>
    </g>
    <g id="shape11">
      <path d="M-43.2 -33.85 L-43.25 -7.95 -16.45 -6.05 -43.55 -5.8 Q-39.95 1.5 -42.7 7.75 L-32.8 9.55 Q-35.8 10.65 -43.0 9.55 -41.3 16.25 -44.0 23.0 L-45.5 22.75 Q-44.2 16.55 -44.0 9.55 -43.65 2.85 -44.3 -7.5 -44.85 -15.6 -44.7 -33.85 L-43.2 -33.85" fill="#d28a10" fill-rule="evenodd" stroke="none"/>
      <path d="M-44.0 23.0 Q-41.3 16.25 -43.0 9.55 -35.8 10.65 -32.8 9.55 L-42.7 7.75 Q-39.95 1.5 -43.55 -5.8 L-16.45 -6.05 -43.25 -7.95 -43.2 -33.85 Q13.7 -39.6 45.5 -33.05 43.5 -5.65 43.6 5.2 38.7 7.5 32.15 8.0 L43.65 8.0 Q42.95 16.55 44.95 23.0 L-44.0 23.0" fill="#edab3c" fill-rule="evenodd" stroke="none"/>
      <path d="M43.65 -7.7 Q28.05 -7.35 6.85 -9.5 -21.9 -13.6 -43.25 -13.1 L-43.25 -14.45 Q9.0 -14.0 43.65 -10.35 L43.65 -7.7" fill="#d28a10" fill-rule="evenodd" stroke="none"/>
      <path d="M-6.0 -0.7 Q22.4 3.35 43.55 2.85 L43.55 4.2 Q-8.1 3.75 -42.4 0.15 L-42.4 -2.5 Q-27.0 -2.9 -6.0 -0.7" fill="#d28a10" fill-rule="evenodd" stroke="none"/>
      <path d="M-41.35 15.5 Q-25.95 15.15 -4.95 17.3 23.45 21.4 44.55 20.9 L44.55 22.25 Q-7.1 21.8 -41.35 18.15 L-41.35 15.5" fill="#d28a10" fill-rule="evenodd" stroke="none"/>
      <path d="M43.85 19.4 Q28.45 19.8 7.45 17.65 -20.95 13.55 -42.05 14.05 L-42.05 12.7 Q9.55 13.15 43.85 16.8 L43.85 19.4" fill="#d28a10" fill-rule="evenodd" stroke="none"/>
      <path d="M-43.05 -26.8 L-5.7 -25.0 Q23.4 -20.9 45.05 -21.4 L45.05 -20.05 Q-7.9 -20.5 -43.05 -24.15 L-43.05 -26.8" fill="#d28a10" fill-rule="evenodd" stroke="none"/>
      <path d="M44.35 -24.05 Q28.55 -23.7 7.0 -25.85 -22.1 -29.95 -43.75 -29.45 L-43.75 -30.8 Q9.2 -30.35 44.35 -26.7 L44.35 -24.05" fill="#d28a10" fill-rule="evenodd" stroke="none"/>
    </g>
    <g id="shape12">
      <path d="M-1.6 107.95 Q-6.5 107.4 -6.0 104.15 1.85 8.8 -6.0 -105.3 -5.5 -107.8 -2.65 -107.9 8.15 89.2 -1.6 107.95" fill="#d28a10" fill-rule="evenodd" stroke="none"/>
      <path d="M-2.65 -107.9 L-2.1 -107.9 Q1.25 -107.85 1.7 -105.3 9.55 8.8 3.4 104.05 2.95 107.0 -1.6 107.95 8.15 89.2 -2.65 -107.9" fill="#f7be66" fill-rule="evenodd" stroke="none"/>
    </g>
    <g id="shape13">
      <path d="M2.7 -107.9 L2.55 -105.1 Q-8.05 89.35 1.65 107.95 -2.9 107.0 -3.35 104.05 -9.5 9.05 -1.7 -104.7 L-1.65 -105.3 Q-1.35 -107.0 2.7 -107.9" fill="#d28a10" fill-rule="evenodd" stroke="none"/>
      <path d="M1.65 107.95 Q-8.05 89.35 2.55 -105.1 L2.7 -107.9 Q5.5 -107.8 6.05 -105.35 L6.05 -105.3 Q-1.8 8.8 6.05 104.15 6.55 107.4 1.65 107.95" fill="#f7be66" fill-rule="evenodd" stroke="none"/>
    </g>
    <g id="shape14">
      <path d="M2.45 -4.15 Q3.8 0.05 2.55 4.0 L-0.35 4.1 Q0.8 2.1 0.2 -4.15 L2.45 -4.15" fill="#000000" fill-opacity="0.3019608" fill-rule="evenodd" stroke="none"/>
    </g>
    <g id="shape15">
      <path d="M0.2 -1.4 L3.4 -5.1 Q5.1 -5.65 4.55 -3.95 L1.1 -0.2 4.2 4.05 Q4.2 5.35 3.1 4.95 L0.2 0.9 -3.15 5.55 Q-4.35 5.95 -4.3 4.6 L-0.7 -0.25 -4.5 -4.35 Q-5.05 -6.05 -3.35 -5.5 L0.2 -1.4" fill="#391000" fill-rule="evenodd" stroke="none"/>
    </g>
    <g id="shape16">
      <path d="M-4.5 -7.25 Q-0.3 -2.9 5.3 5.1 5.35 6.8 3.85 6.3 -1.05 -1.1 -5.95 -5.8 -6.65 -7.95 -4.5 -7.25" fill="#391000" fill-rule="evenodd" stroke="none"/>
    </g>
    <g id="shape17">
      <path d="M-4.5 -7.25 Q-0.3 -2.9 5.3 5.1 5.35 6.8 3.85 6.3 -1.05 -1.1 -5.95 -5.8 -6.65 -7.95 -4.5 -7.25" fill="#391000" fill-rule="evenodd" stroke="none"/>
    </g>
    <g id="shape18">
      <path d="M76.15 9.25 Q71.65 25.6 52.75 39.3 28.3 57.4 -6.35 60.2 -41.05 62.95 -65.8 48.8 -90.25 34.9 -90.25 12.4 -90.25 1.05 -84.1 -9.15 -82.8 -2.25 -78.35 1.65 L-75.15 4.55 -73.25 8.55 -73.2 8.65 Q-67.85 18.2 -53.55 25.85 -30.65 38.0 1.65 38.0 33.9 38.0 56.75 25.85 70.65 18.45 76.15 9.25" fill="#000000" fill-opacity="0.3019608" fill-rule="evenodd" stroke="none"/>
      <path d="M69.25 -38.95 L69.2 -38.9 70.85 -37.3 Q77.9 -31.0 80.25 -23.85 81.2 -20.9 81.4 -17.45 80.75 -8.35 79.6 -5.8 L79.55 -5.75 Q78.65 -15.65 69.75 -23.85 64.6 -28.6 56.75 -32.75 33.9 -44.9 1.65 -44.9 -30.65 -44.9 -53.55 -32.75 -76.4 -20.6 -76.35 -3.45 L-76.2 -0.75 Q-80.95 -6.1 -81.4 -16.75 L-79.95 -23.05 -79.95 -23.1 Q-78.1 -29.6 -72.55 -35.35 L-70.25 -37.5 Q-64.7 -42.5 -57.2 -46.5 -33.3 -59.15 0.25 -59.1 33.8 -59.15 57.65 -46.5 64.4 -42.95 69.25 -38.95" fill="url(#gradient3)" fill-rule="evenodd" stroke="none"/>
      <path d="M-76.2 -0.75 L-76.35 -3.45 Q-76.4 -20.6 -53.55 -32.75 -30.65 -44.9 1.65 -44.9 33.9 -44.9 56.75 -32.75 64.6 -28.6 69.75 -23.85 78.65 -15.65 79.55 -5.75 74.25 5.75 57.65 14.35 33.0 26.95 0.25 26.95 -33.4 26.95 -57.2 14.35 -62.2 11.7 -67.15 7.5 L-76.2 -0.75" fill="#9f680a" fill-rule="evenodd" stroke="none"/>
      <path d="M79.3 0.85 Q78.5 5.2 76.15 9.25 70.65 18.45 56.75 25.85 33.9 38.0 1.65 38.0 -30.65 38.0 -53.55 25.85 -67.85 18.2 -73.2 8.65 L-73.25 8.55 -75.15 4.55 -70.3 8.95 Q-65.15 13.3 -59.9 16.05 -35.05 29.2 0.05 29.2 34.2 29.2 59.9 16.05 72.95 9.3 79.3 0.85" fill="url(#gradient4)" fill-rule="evenodd" stroke="none"/>
      <path d="M70.85 -37.3 L76.3 -35.5 Q80.2 -31.35 82.3 -26.8 L80.25 -23.85 Q77.9 -31.0 70.85 -37.3 M70.5 -40.7 L69.25 -38.95 Q64.4 -42.95 57.65 -46.5 33.8 -59.15 0.25 -59.1 -33.3 -59.15 -57.2 -46.5 -64.7 -42.5 -70.25 -37.5 L-71.3 -40.05 Q-66.45 -43.9 -59.9 -47.4 -35.0 -60.6 0.05 -60.6 35.05 -60.6 59.9 -47.4 65.9 -44.2 70.5 -40.7 M-72.55 -35.35 Q-78.1 -29.6 -79.95 -23.1 L-82.4 -26.35 Q-80.6 -30.55 -77.25 -34.35 L-72.55 -35.35 M-81.4 -16.75 Q-80.95 -6.1 -76.2 -0.75 L-67.15 7.5 Q-62.2 11.7 -57.2 14.35 -33.4 26.95 0.25 26.95 33.0 26.95 57.65 14.35 74.25 5.75 79.55 -5.75 L79.6 -5.8 Q80.75 -8.35 81.4 -17.45 L84.8 -16.45 Q84.5 -8.75 82.8 -5.0 81.4 -2.0 79.3 0.85 72.95 9.3 59.9 16.05 34.2 29.2 0.05 29.2 -35.05 29.2 -59.9 16.05 -65.15 13.3 -70.3 8.95 L-75.15 4.55 -78.35 1.65 Q-82.8 -2.25 -84.1 -9.15 -84.5 -11.15 -84.65 -16.0 L-81.4 -16.75" fill="#fbe0b3" fill-rule="evenodd" stroke="none"/>
      <path d="M75.45 -43.6 L70.85 -37.3 69.2 -38.9 69.25 -38.95 70.5 -40.7 75.2 -47.25 Q81.5 -46.45 85.5 -43.8 L87.55 -42.15 Q91.05 -38.75 91.9 -33.1 L81.4 -17.45 Q81.2 -20.9 80.25 -23.85 L82.3 -26.8 86.8 -33.25 86.35 -35.6 85.75 -37.25 Q83.15 -43.65 75.45 -43.6 M-95.3 -30.55 Q-94.75 -37.1 -89.7 -40.45 L-85.5 -43.25 -87.45 -41.7 Q-91.1 -38.3 -91.95 -32.55 L-95.3 -30.55" fill="#85550c" fill-rule="evenodd" stroke="none"/>
      <path d="M75.45 -43.6 L80.2 -40.65 76.3 -35.5 70.85 -37.3 75.45 -43.6" fill="#ef9c11" fill-rule="evenodd" stroke="none"/>
      <path d="M80.2 -40.65 L75.45 -43.6 Q83.15 -43.65 85.75 -37.25 84.2 -40.6 80.2 -40.65" fill="#523407" fill-rule="evenodd" stroke="none"/>
      <path d="M91.9 -33.1 Q91.05 -38.75 87.55 -42.15 94.9 -35.4 95.3 -31.1 L91.9 -33.1" fill="#f7cf8c" fill-rule="evenodd" stroke="none"/>
      <path d="M81.4 -17.45 L91.9 -33.1 95.3 -31.1 84.8 -16.45 81.4 -17.45" fill="#edab3c" fill-rule="evenodd" stroke="none"/>
      <path d="M-70.25 -37.5 L-72.55 -35.35 -75.5 -43.05 Q-83.2 -43.1 -85.8 -36.7 -86.55 -35.2 -86.85 -32.7 L-82.4 -26.35 -79.95 -23.1 -79.95 -23.05 -81.4 -16.75 -91.95 -32.55 Q-91.1 -38.3 -87.45 -41.7 L-85.5 -43.25 Q-81.55 -45.9 -73.7 -46.1 L-71.3 -40.05 -70.25 -37.5" fill="#f7be66" fill-rule="evenodd" stroke="none"/>
      <path d="M-84.65 -16.0 L-95.3 -30.55 -91.95 -32.55 -81.4 -16.75 -84.65 -16.0 M-75.5 -43.05 L-72.55 -35.35 -77.25 -34.35 -80.2 -40.1 -75.5 -43.05" fill="#b67611" fill-rule="evenodd" stroke="none"/>
      <path d="M-85.8 -36.7 Q-83.2 -43.1 -75.5 -43.05 L-80.2 -40.1 Q-84.25 -40.05 -85.8 -36.7" fill="#774b0b" fill-rule="evenodd" stroke="none"/>
    </g>
    <linearGradient gradientTransform="matrix(-0.0865, 0.0, 0.0, -0.0369, 5.4, -26.7)" gradientUnits="userSpaceOnUse" id="gradient3" spreadMethod="pad" x1="-819.2" x2="819.2">
      <stop offset="0.00784313725490196" stop-color="#5e3c09"/>
      <stop offset="1.0" stop-color="#f7be66"/>
    </linearGradient>
    <linearGradient gradientTransform="matrix(0.0975, 0.0, 0.0, 0.0279, 0.85, 15.15)" gradientUnits="userSpaceOnUse" id="gradient4" spreadMethod="pad" x1="-819.2" x2="819.2">
      <stop offset="0.0" stop-color="#271803"/>
      <stop offset="1.0" stop-color="#edab3c"/>
    </linearGradient>
    <g id="sprite7">
      <use ffdec:characterId="51" height="44.8" transform="matrix(1.0971, 0.0, 0.0, 1.0971, 0.0, 0.0)" width="44.8" xlink:href="#shape19"/>
    </g>
    <g id="shape19">
      <path d="M15.85 -15.85 Q22.4 -9.3 22.4 0.0 22.4 9.3 15.85 15.85 9.3 22.4 0.0 22.4 -9.3 22.4 -15.85 15.85 -22.4 9.3 -22.4 0.0 -22.4 -9.3 -15.85 -15.85 -9.3 -22.4 0.0 -22.4 9.3 -22.4 15.85 -15.85" fill="url(#gradient5)" fill-rule="evenodd" stroke="none"/>
    </g>
    <radialGradient cx="0" cy="0" gradientTransform="matrix(0.0278, 0.0, 0.0, 0.0278, 0.0, 0.0)" gradientUnits="userSpaceOnUse" id="gradient5" r="819.2" spreadMethod="pad">
      <stop offset="0.5098039215686274" stop-color="#ffff00"/>
      <stop offset="1.0" stop-color="#ffffff" stop-opacity="0.0"/>
    </radialGradient>
    <g id="sprite8">
      <use ffdec:characterId="54" height="21.35" transform="matrix(1.0, 0.0, 0.0, 1.0, 0.0, 0.0)" width="21.3" xlink:href="#shape20"/>
    </g>
    <g id="shape20">
      <path d="M10.7 -0.05 Q10.6 4.35 7.55 7.5 4.45 10.55 0.0 10.6 -4.45 10.55 -7.5 7.5 -10.6 4.35 -10.6 -0.05 -10.6 -4.5 -7.5 -7.55 -4.45 -10.7 0.0 -10.7 4.45 -10.7 7.55 -7.55 10.6 -4.5 10.7 -0.05" fill="url(#gradient6)" fill-rule="evenodd" stroke="none"/>
      <path d="M0.1 -10.5 Q4.45 -10.5 7.5 -7.45 10.65 -4.35 10.65 0.1 10.65 4.5 7.5 7.55 4.45 10.65 0.1 10.65 -4.3 10.65 -7.4 7.55 -10.55 4.5 -10.55 0.1 -10.55 -4.35 -7.4 -7.45 -4.3 -10.5 0.1 -10.5" fill="url(#gradient7)" fill-rule="evenodd" stroke="none"/>
    </g>
    <radialGradient cx="0" cy="0" gradientTransform="matrix(0.0137, 0.0, 0.0, 0.0137, 0.4, -0.45)" gradientUnits="userSpaceOnUse" id="gradient6" r="819.2" spreadMethod="pad">
      <stop offset="0.0" stop-color="#ffffff"/>
      <stop offset="1.0" stop-color="#999999"/>
    </radialGradient>
    <linearGradient gradientTransform="matrix(0.0, -0.0109, 0.0129, 0.0, 0.0, 0.05)" gradientUnits="userSpaceOnUse" id="gradient7" spreadMethod="pad" x1="-819.2" x2="819.2">
      <stop offset="0.01568627450980392" stop-color="#ffffff" stop-opacity="0.84313726"/>
      <stop offset="0.2549019607843137" stop-color="#aecbf8" stop-opacity="0.6901961"/>
      <stop offset="0.7372549019607844" stop-color="#8eb5f8" stop-opacity="0.0"/>
    </linearGradient>
    <g id="sprite9">
      <use ffdec:characterId="54" height="21.35" transform="matrix(1.0, 0.0, 0.0, 1.0, 0.0, 0.0)" width="21.3" xlink:href="#shape21"/>
    </g>
    <g id="shape21">
      <path d="M10.7 -0.05 Q10.6 4.35 7.55 7.5 4.45 10.55 0.0 10.6 -4.45 10.55 -7.5 7.5 -10.6 4.35 -10.6 -0.05 -10.6 -4.5 -7.5 -7.55 -4.45 -10.7 0.0 -10.7 4.45 -10.7 7.55 -7.55 10.6 -4.5 10.7 -0.05" fill="url(#gradient8)" fill-rule="evenodd" stroke="none"/>
      <path d="M0.1 -10.5 Q4.45 -10.5 7.5 -7.45 10.65 -4.35 10.65 0.1 10.65 4.5 7.5 7.55 4.45 10.65 0.1 10.65 -4.3 10.65 -7.4 7.55 -10.55 4.5 -10.55 0.1 -10.55 -4.35 -7.4 -7.45 -4.3 -10.5 0.1 -10.5" fill="url(#gradient9)" fill-rule="evenodd" stroke="none"/>
    </g>
    <radialGradient cx="0" cy="0" gradientTransform="matrix(0.0137, 0.0, 0.0, 0.0137, 0.4, -0.45)" gradientUnits="userSpaceOnUse" id="gradient8" r="819.2" spreadMethod="pad">
      <stop offset="0.0" stop-color="#ffffff"/>
      <stop offset="1.0" stop-color="#999999"/>
    </radialGradient>
    <linearGradient gradientTransform="matrix(0.0, -0.0109, 0.0129, 0.0, 0.0, 0.05)" gradientUnits="userSpaceOnUse" id="gradient9" spreadMethod="pad" x1="-819.2" x2="819.2">
      <stop offset="0.01568627450980392" stop-color="#ffffff" stop-opacity="0.84313726"/>
      <stop offset="0.2549019607843137" stop-color="#aecbf8" stop-opacity="0.6901961"/>
      <stop offset="0.7372549019607844" stop-color="#8eb5f8" stop-opacity="0.0"/>
    </linearGradient>
    <g id="sprite10">
      <use ffdec:characterId="54" height="21.35" transform="matrix(1.0, 0.0, 0.0, 1.0, 0.0, 0.0)" width="21.3" xlink:href="#shape21"/>
    </g>
  </defs>
</svg>
