<?xml version="1.0" encoding="UTF-8" standalone="no"?>
<svg xmlns:ffdec="https://www.free-decompiler.com/flash" xmlns:xlink="http://www.w3.org/1999/xlink" ffdec:objectType="frame" height="410.0px" width="590.0px" xmlns="http://www.w3.org/2000/svg">
  <g transform="matrix(1.0, 0.0, 0.0, 1.0, 0.0, 0.0)">
    <rect fill="#000000" height="410.0px" width="590.0px"/>
    <use ffdec:characterId="1" height="40.55" transform="matrix(0.8519, 0.0, 0.0, 0.8519, 59.95, 270.75)" width="54.35" xlink:href="#shape0"/>
    <use ffdec:characterId="1" height="40.55" transform="matrix(0.9987, 0.0, 0.0, 0.9987, 489.55, 388.0)" width="54.35" xlink:href="#shape0"/>
    <use ffdec:characterId="1" height="40.55" transform="matrix(0.8519, 0.0, 0.0, 0.8519, 547.05, 355.75)" width="54.35" xlink:href="#shape0"/>
    <use ffdec:characterId="1" height="40.55" transform="matrix(0.9987, 0.0, 0.0, 0.9987, 426.65, 349.8)" width="54.35" xlink:href="#shape0"/>
    <use ffdec:characterId="7" height="88.7" transform="matrix(1.0, 0.0, 0.0, 1.0, 104.0, 149.15)" width="79.2" xlink:href="#sprite0"/>
    <use ffdec:characterId="8" height="186.4" transform="matrix(1.0, 0.0, 0.0, 1.0, 236.0, 452.15)" width="86.6" xlink:href="#shape2"/>
    <use ffdec:characterId="9" height="59.55" transform="matrix(1.0, 0.0, 0.0, 1.0, 235.25, 562.95)" width="91.0" xlink:href="#shape3"/>
    <use ffdec:characterId="10" height="215.85" transform="matrix(1.0, 0.0, 0.0, 1.0, 195.1, 426.8)" width="12.15" xlink:href="#shape4"/>
    <use ffdec:characterId="11" height="215.85" transform="matrix(1.0, 0.0, 0.0, 1.0, 278.45, 426.3)" width="12.15" xlink:href="#shape5"/>
    <use ffdec:characterId="12" height="8.25" transform="matrix(0.0058, -1.9999, 1.0612, 0.0109, 276.7, 460.15)" width="3.5" xlink:href="#shape6"/>
    <use ffdec:characterId="12" height="8.25" transform="matrix(0.0056, -1.9999, 1.025, 0.0109, 196.9, 460.15)" width="3.5" xlink:href="#shape6"/>
    <use ffdec:characterId="12" height="8.25" transform="matrix(0.006, -1.2539, 1.0975, 0.0068, 193.95, 531.65)" width="3.5" xlink:href="#shape6"/>
    <use ffdec:characterId="12" height="8.25" transform="matrix(0.006, -1.2539, 1.0975, 0.0068, 279.4, 531.7)" width="3.5" xlink:href="#shape6"/>
    <use ffdec:characterId="10" height="215.85" transform="matrix(0.0, -1.0, 0.4576, 0.0, 235.2, 524.75)" width="12.15" xlink:href="#shape4"/>
    <use ffdec:characterId="12" height="8.25" transform="matrix(0.0054, -1.0, 1.0, 0.0054, 194.2, 339.45)" width="3.5" xlink:href="#shape6"/>
    <use ffdec:characterId="12" height="8.25" transform="matrix(0.0054, -1.0, 1.0, 0.0054, 279.4, 340.45)" width="3.5" xlink:href="#shape6"/>
    <use ffdec:characterId="11" height="215.85" transform="matrix(-0.0053, -1.0, 0.4858, -0.0023, 236.0, 334.2)" width="12.15" xlink:href="#shape5"/>
    <use ffdec:characterId="12" height="8.25" transform="matrix(1.0, 0.0, 0.0, 1.0, 229.6, 336.05)" width="3.5" xlink:href="#shape6"/>
    <use ffdec:characterId="12" height="8.25" transform="matrix(0.0059, -1.1428, 1.0843, 0.0062, 277.8, 497.8)" width="3.5" xlink:href="#shape6"/>
    <use ffdec:characterId="12" height="8.25" transform="matrix(0.0059, -1.1428, 1.0843, 0.0062, 195.9, 496.2)" width="3.5" xlink:href="#shape6"/>
    <use ffdec:characterId="10" height="215.85" transform="matrix(0.0, -1.0, 0.4576, 0.0, 233.0, 489.35)" width="12.15" xlink:href="#shape4"/>
    <use ffdec:characterId="12" height="8.25" transform="matrix(0.0054, -1.0, 1.0, 0.0054, 196.2, 379.05)" width="3.5" xlink:href="#shape6"/>
    <use ffdec:characterId="12" height="8.25" transform="matrix(0.0054, -1.0, 1.0, 0.0054, 277.6, 380.05)" width="3.5" xlink:href="#shape6"/>
    <use ffdec:characterId="11" height="215.85" transform="matrix(-0.0053, -1.0, 0.4858, -0.0023, 235.95, 373.2)" width="12.15" xlink:href="#shape5"/>
    <use ffdec:characterId="12" height="8.25" transform="matrix(0.0054, -1.0, 1.0, 0.0054, 197.2, 416.55)" width="3.5" xlink:href="#shape6"/>
    <use ffdec:characterId="12" height="8.25" transform="matrix(0.0054, -1.0, 1.0, 0.0054, 276.6, 417.15)" width="3.5" xlink:href="#shape6"/>
    <use ffdec:characterId="11" height="215.85" transform="matrix(-0.0053, -1.0, 0.4858, -0.0023, 235.95, 410.6)" width="12.15" xlink:href="#shape5"/>
    <use ffdec:characterId="10" height="215.85" transform="matrix(0.0, -1.0, 0.4576, 0.0, 235.85, 452.05)" width="12.15" xlink:href="#shape4"/>
    <use ffdec:characterId="12" height="8.25" transform="matrix(1.0, 0.0, 0.0, 1.0, 227.8, 375.05)" width="3.5" xlink:href="#shape6"/>
    <use ffdec:characterId="12" height="8.25" transform="matrix(1.0, 0.0, 0.0, 1.0, 227.4, 412.35)" width="3.5" xlink:href="#shape6"/>
    <use ffdec:characterId="12" height="8.25" transform="matrix(1.0, 0.0, 0.0, 1.0, 227.4, 450.35)" width="3.5" xlink:href="#shape6"/>
    <use ffdec:characterId="12" height="8.25" transform="matrix(1.0, 0.0, 0.0, 1.0, 227.9, 487.55)" width="3.5" xlink:href="#shape6"/>
    <use ffdec:characterId="11" height="215.85" transform="matrix(0.995, 0.0934, 0.0114, 0.9746, 235.5, 427.45)" width="12.15" xlink:href="#shape5"/>
    <use ffdec:characterId="13" height="11.3" transform="matrix(1.0, 0.0, 0.0, 1.0, 235.55, 335.5)" width="9.35" xlink:href="#shape7"/>
    <use ffdec:characterId="13" height="11.3" transform="matrix(1.0, 0.0, 0.0, 1.0, 233.9, 375.65)" width="9.35" xlink:href="#shape7"/>
    <use ffdec:characterId="13" height="11.3" transform="matrix(1.0, 0.0, 0.0, 1.0, 233.35, 412.5)" width="9.35" xlink:href="#shape7"/>
    <use ffdec:characterId="13" height="11.3" transform="matrix(-1.0, 0.0, 0.0, 1.0, 233.8, 450.3)" width="9.35" xlink:href="#shape7"/>
    <use ffdec:characterId="13" height="11.3" transform="matrix(1.2686, 0.0, 0.0, 1.0536, 234.3, 487.3)" width="9.35" xlink:href="#shape7"/>
    <use ffdec:characterId="14" height="13.8" transform="matrix(-0.783, 0.0, 0.0, 0.783, 193.05, 333.8)" width="11.4" xlink:href="#shape8"/>
    <use ffdec:characterId="14" height="13.8" transform="matrix(1.0, 0.0, 0.0, 1.0, 194.1, 333.7)" width="11.4" xlink:href="#shape8"/>
    <use ffdec:characterId="14" height="13.8" transform="matrix(-0.783, 0.0, 0.0, 0.783, 195.25, 373.95)" width="11.4" xlink:href="#shape8"/>
    <use ffdec:characterId="14" height="13.8" transform="matrix(1.0, 0.0, 0.0, 1.0, 196.3, 373.85)" width="11.4" xlink:href="#shape8"/>
    <use ffdec:characterId="14" height="13.8" transform="matrix(-0.783, 0.0, 0.0, 0.783, 196.35, 411.35)" width="11.4" xlink:href="#shape8"/>
    <use ffdec:characterId="14" height="13.8" transform="matrix(1.0, 0.0, 0.0, 1.0, 197.4, 411.25)" width="11.4" xlink:href="#shape8"/>
    <use ffdec:characterId="14" height="13.8" transform="matrix(0.783, 0.0, 0.0, 0.783, 197.35, 453.05)" width="11.4" xlink:href="#shape8"/>
    <use ffdec:characterId="14" height="13.8" transform="matrix(-1.0, 0.0, 0.0, 1.0, 196.3, 452.95)" width="11.4" xlink:href="#shape8"/>
    <use ffdec:characterId="14" height="13.8" transform="matrix(0.783, 0.0, 0.0, 0.783, 196.2, 490.85)" width="11.4" xlink:href="#shape8"/>
    <use ffdec:characterId="14" height="13.8" transform="matrix(-1.0, 0.0, 0.0, 1.0, 195.15, 490.75)" width="11.4" xlink:href="#shape8"/>
    <use ffdec:characterId="14" height="13.8" transform="matrix(0.783, 0.0, 0.0, 0.783, 194.15, 526.15)" width="11.4" xlink:href="#shape8"/>
    <use ffdec:characterId="14" height="13.8" transform="matrix(-1.0, 0.0, 0.0, 1.0, 193.1, 526.05)" width="11.4" xlink:href="#shape8"/>
    <use ffdec:characterId="12" height="8.25" transform="matrix(1.0, 0.0, 0.0, 1.0, 230.4, 522.85)" width="3.5" xlink:href="#shape6"/>
    <use ffdec:characterId="13" height="11.3" transform="matrix(1.2686, 0.0, 0.0, 1.0536, 237.35, 523.4)" width="9.35" xlink:href="#shape7"/>
    <use ffdec:characterId="14" height="13.8" transform="matrix(0.783, 0.0, 0.0, 0.783, 280.15, 333.8)" width="11.4" xlink:href="#shape8"/>
    <use ffdec:characterId="14" height="13.8" transform="matrix(-1.0, 0.0, 0.0, 1.0, 279.1, 333.7)" width="11.4" xlink:href="#shape8"/>
    <use ffdec:characterId="14" height="13.8" transform="matrix(0.783, 0.0, 0.0, 0.783, 277.95, 373.95)" width="11.4" xlink:href="#shape8"/>
    <use ffdec:characterId="14" height="13.8" transform="matrix(-1.0, 0.0, 0.0, 1.0, 276.9, 373.85)" width="11.4" xlink:href="#shape8"/>
    <use ffdec:characterId="14" height="13.8" transform="matrix(0.783, 0.0, 0.0, 0.783, 276.85, 411.35)" width="11.4" xlink:href="#shape8"/>
    <use ffdec:characterId="14" height="13.8" transform="matrix(-1.0, 0.0, 0.0, 1.0, 275.8, 411.25)" width="11.4" xlink:href="#shape8"/>
    <use ffdec:characterId="14" height="13.8" transform="matrix(-0.783, 0.0, 0.0, 0.783, 276.2, 453.2)" width="11.4" xlink:href="#shape8"/>
    <use ffdec:characterId="14" height="13.8" transform="matrix(1.0, 0.0, 0.0, 1.0, 277.25, 453.1)" width="11.4" xlink:href="#shape8"/>
    <use ffdec:characterId="14" height="13.8" transform="matrix(-0.783, 0.0, 0.0, 0.783, 277.15, 490.6)" width="11.4" xlink:href="#shape8"/>
    <use ffdec:characterId="14" height="13.8" transform="matrix(1.0, 0.0, 0.0, 1.0, 278.2, 490.5)" width="11.4" xlink:href="#shape8"/>
    <use ffdec:characterId="14" height="13.8" transform="matrix(-0.8792, 0.0, 0.0, 0.6468, 278.65, 525.85)" width="11.4" xlink:href="#shape8"/>
    <use ffdec:characterId="14" height="13.8" transform="matrix(1.1228, 0.0, 0.0, 0.8261, 279.85, 525.75)" width="11.4" xlink:href="#shape8"/>
    <use ffdec:characterId="27" height="323.4" transform="matrix(-1.0, 0.0, 0.0, -1.0, 286.95, 420.9)" width="761.95" xlink:href="#shape9"/>
    <use ffdec:characterId="43" height="423.4" transform="matrix(0.9963, 0.0, 0.0, 0.9897, 299.3, 209.5)" width="600.8" xlink:href="#shape10"/>
    <use ffdec:characterId="29" height="549.15" transform="matrix(1.0, 0.0, 0.0, 1.0, 280.45, 447.8)" width="784.95" xlink:href="#shape11"/>
    <use ffdec:characterId="27" height="323.4" transform="matrix(1.0, 0.0, 0.0, 1.0, 285.95, 83.9)" width="761.95" xlink:href="#shape9"/>
  </g>
  <defs>
    <g id="shape0">
      <path d="M-1.3 -19.85 Q1.05 -20.95 3.55 -18.95 5.15 -16.8 5.8 -18.0 11.45 -22.75 17.9 -12.55 25.7 -8.55 26.7 -5.75 L25.4 -1.0 Q22.25 8.8 19.85 -4.8 L18.8 -6.3 17.9 -6.75 Q16.85 -6.8 16.05 -4.0 L15.75 -1.55 14.65 1.7 Q13.3 4.15 12.3 5.05 10.8 6.35 9.95 4.4 L7.75 -2.5 Q7.25 -6.5 4.45 -7.55 1.8 -9.1 0.25 -2.6 -0.35 1.75 -1.4 4.05 -2.4 6.25 -3.85 6.55 -6.1 6.3 -7.95 0.85 -10.45 -6.4 -12.2 -3.3 L-13.0 -1.75 Q-13.75 0.4 -14.45 1.55 -16.25 4.45 -17.7 1.5 -18.1 -1.1 -19.05 -1.4 L-19.25 -3.35 -19.1 -4.75 -18.25 -8.05 Q-17.15 -11.2 -14.9 -15.45 L-13.0 -15.7 Q-12.9 -15.2 -12.95 -12.5 -13.0 -9.8 -13.15 -9.1 -13.9 -8.45 -14.25 -5.3 -13.9 -4.8 -15.25 -0.95 L-13.3 -4.7 Q-13.4 -8.3 -12.65 -8.65 -12.4 -9.4 -11.7 -15.0 L-11.7 -15.05 Q-10.95 -19.4 -6.75 -17.15 -3.65 -14.95 -3.05 -16.05 -1.55 -2.55 -1.4 0.8 -0.45 -6.7 1.8 -8.35 1.3 -9.3 0.05 -13.7 -1.25 -18.4 -1.3 -19.85 M27.15 -0.85 L26.35 2.05 Q25.3 5.4 24.55 6.45 21.7 7.95 20.2 5.5 18.9 2.35 18.65 -1.8 18.25 -1.8 17.95 -0.8 17.3 4.15 16.2 7.3 15.75 9.55 14.1 11.45 L10.05 11.65 Q8.05 11.65 6.35 4.45 L5.95 2.65 Q4.05 -6.35 2.1 1.3 L-0.2 8.7 Q-1.75 11.2 -3.65 11.15 -5.5 11.05 -7.25 8.6 -8.6 6.2 -10.55 1.15 -4.5 12.05 -2.15 10.35 0.25 8.85 0.8 3.55 2.5 -3.7 4.8 -2.1 5.6 -1.4 6.65 4.4 8.6 15.15 14.4 9.6 15.75 7.25 16.85 0.35 18.0 -3.55 18.75 -2.55 19.4 -1.35 20.25 3.2 21.75 9.1 24.25 5.65 25.6 3.1 27.15 -0.85 M15.1 -2.8 Q15.2 -5.2 16.1 -6.1 L11.95 -11.55 15.1 -2.8 M20.0 -10.4 L17.8 -11.65 19.85 -8.0 Q19.1 -10.15 20.0 -10.4 M24.2 -2.45 Q23.15 -1.05 22.1 -3.6 L23.15 -0.1 24.2 -2.45 M13.45 1.65 Q11.25 6.15 10.0 0.95 10.75 4.75 11.5 4.55 12.45 4.65 13.45 1.65 M-16.2 -2.6 Q-16.45 -6.45 -17.8 -5.0 -16.95 -5.65 -16.2 -2.6 M-16.7 -1.25 Q-16.95 -5.1 -18.3 -3.65 -17.45 -4.3 -16.7 -1.25 M-15.6 -4.05 Q-15.85 -7.9 -17.2 -6.45 -16.35 -7.1 -15.6 -4.05 M-6.4 -7.8 Q-6.9 -10.7 -7.75 -11.85 L-10.8 -11.8 -8.6 -11.85 Q-7.1 -11.1 -6.4 -7.8 M-7.1 -3.45 L-5.5 3.7 Q-4.35 6.7 -2.85 4.8 -4.4 4.85 -5.45 1.75 -6.3 -0.75 -6.85 -5.2 -8.85 -10.3 -11.9 -7.45 -7.95 -9.6 -7.1 -3.45 M-16.2 6.7 L-14.4 4.25 Q-12.8 1.8 -12.7 1.3 L-12.1 0.6 Q-11.5 0.05 -11.3 0.2 -15.85 7.85 -16.2 6.95 L-16.2 6.7" fill="#fffff3" fill-rule="evenodd" stroke="none"/>
      <path d="M-1.3 -19.85 Q-1.25 -18.4 0.05 -13.7 1.3 -9.3 1.8 -8.35 -0.45 -6.7 -1.4 0.8 -1.55 -2.55 -3.05 -16.05 -1.7 -19.7 -1.3 -19.85 M-11.7 -15.0 Q-12.4 -9.4 -12.65 -8.65 -13.4 -8.3 -13.3 -4.7 L-15.25 -0.95 Q-13.9 -4.8 -14.25 -5.3 -13.9 -8.45 -13.15 -9.1 -13.0 -9.8 -12.95 -12.5 -12.9 -15.2 -13.0 -15.7 -12.4 -15.5 -11.7 -15.0 M-14.9 -15.45 Q-17.15 -11.2 -18.25 -8.05 L-19.1 -4.75 -19.25 -3.35 -19.05 -1.4 Q-19.9 -1.55 -21.75 0.25 -22.75 1.7 -21.75 4.25 -22.35 4.0 -22.6 3.05 L-22.75 1.3 -22.5 -0.9 Q-22.1 -2.75 -18.65 -9.05 L-14.9 -15.45 M24.55 6.45 L22.85 8.25 18.7 9.0 Q17.2 9.0 16.6 8.25 L16.2 7.3 Q17.3 4.15 17.95 -0.8 18.25 -1.8 18.65 -1.8 18.9 2.35 20.2 5.5 21.7 7.95 24.55 6.45 M12.1 14.6 Q11.2 15.55 10.25 15.95 3.65 12.5 3.4 10.1 2.9 6.35 0.9 12.8 0.55 15.1 -1.2 15.75 -3.1 16.45 -5.6 14.85 L-6.65 13.7 Q-7.45 12.55 -7.6 11.4 -9.7 7.0 -10.75 2.55 -9.15 12.7 -11.7 12.9 L-12.95 12.4 Q-15.25 10.5 -16.2 6.95 -17.15 7.25 -17.7 6.55 -18.2 2.35 -19.55 2.3 -18.4 0.9 -17.85 3.0 -17.6 6.95 -16.2 6.7 L-16.2 6.95 Q-15.85 7.85 -11.3 0.2 L-10.55 1.15 Q-8.6 6.2 -7.25 8.6 -5.5 11.05 -3.65 11.15 -1.75 11.2 -0.2 8.7 L2.1 1.3 Q4.05 -6.35 5.95 2.65 L6.35 4.45 Q8.05 11.65 10.05 11.65 L14.1 11.45 Q13.15 13.45 12.1 14.6 M20.0 -10.4 Q19.1 -10.15 19.85 -8.0 L17.8 -11.65 20.0 -10.4 M15.1 -2.8 L11.95 -11.55 16.1 -6.1 Q15.2 -5.2 15.1 -2.8 M13.45 1.65 Q12.45 4.65 11.5 4.55 10.75 4.75 10.0 0.95 11.25 6.15 13.45 1.65 M24.2 -2.45 L23.15 -0.1 22.1 -3.6 Q23.15 -1.05 24.2 -2.45 M-15.6 -4.05 Q-16.35 -7.1 -17.2 -6.45 -15.85 -7.9 -15.6 -4.05 M-16.7 -1.25 Q-17.45 -4.3 -18.3 -3.65 -16.95 -5.1 -16.7 -1.25 M-16.2 -2.6 Q-16.95 -5.65 -17.8 -5.0 -16.45 -6.45 -16.2 -2.6 M-6.4 -7.8 Q-7.1 -11.1 -8.6 -11.85 L-10.8 -11.8 -7.75 -11.85 Q-6.9 -10.7 -6.4 -7.8 M-7.1 -3.45 Q-7.95 -9.6 -11.9 -7.45 -8.85 -10.3 -6.85 -5.2 -6.3 -0.75 -5.45 1.75 -4.4 4.85 -2.85 4.8 -4.35 6.7 -5.5 3.7 L-7.1 -3.45" fill="#ffcfb7" fill-rule="evenodd" stroke="none"/>
      <path d="M-19.05 -1.4 Q-18.1 -1.1 -17.7 1.5 -16.25 4.45 -14.45 1.55 -13.75 0.4 -13.0 -1.75 L-12.2 -3.3 Q-10.45 -6.4 -7.95 0.85 -6.1 6.3 -3.85 6.55 -2.4 6.25 -1.4 4.05 -0.35 1.75 0.25 -2.6 1.8 -9.1 4.45 -7.55 7.25 -6.5 7.75 -2.5 L9.95 4.4 Q10.8 6.35 12.3 5.05 13.3 4.15 14.65 1.7 L15.75 -1.55 16.05 -4.0 Q16.85 -6.8 17.9 -6.75 L18.8 -6.3 19.85 -4.8 Q22.25 8.8 25.4 -1.0 L26.7 -5.75 Q26.65 -4.4 27.15 -0.85 25.6 3.1 24.25 5.65 21.75 9.1 20.25 3.2 19.4 -1.35 18.75 -2.55 18.0 -3.55 16.85 0.35 15.75 7.25 14.4 9.6 8.6 15.15 6.65 4.4 5.6 -1.4 4.8 -2.1 2.5 -3.7 0.8 3.55 0.25 8.85 -2.15 10.35 -4.5 12.05 -10.55 1.15 L-11.3 0.2 Q-11.5 0.05 -12.1 0.6 L-12.7 1.3 Q-12.8 1.8 -14.4 4.25 L-16.2 6.7 Q-17.6 6.95 -17.85 3.0 -18.4 0.9 -19.55 2.3 -19.6 3.3 -21.75 4.25 -22.75 1.7 -21.75 0.25 -19.9 -1.55 -19.05 -1.4" fill="#000000" fill-rule="evenodd" stroke="none"/>
      <path d="M20.65 9.75 L20.85 9.85 12.1 14.6 Q13.15 13.45 14.1 11.45 17.6 11.45 20.65 9.75 M8.3 16.3 Q-5.55 22.0 -15.9 19.6 -34.45 11.45 -22.6 3.05 -22.35 4.0 -21.75 4.25 -20.1 4.7 -17.7 6.55 -17.15 7.25 -16.2 6.95 -15.25 10.5 -12.95 12.4 L-11.7 12.9 Q-9.45 13.45 -7.6 11.4 -7.45 12.55 -6.65 13.7 L-5.6 14.85 Q-3.1 16.45 -1.2 15.75 0.55 15.1 0.9 12.8 1.7 11.95 2.5 12.8 5.65 16.1 8.3 16.3" fill="#000000" fill-opacity="0.3019608" fill-rule="evenodd" stroke="none"/>
      <path d="M22.85 8.25 L20.65 9.75 Q17.6 11.45 14.1 11.45 15.75 9.55 16.2 7.3 L16.6 8.25 Q17.2 9.0 18.7 9.0 L22.85 8.25 M10.25 15.95 L8.3 16.3 Q5.65 16.1 2.5 12.8 1.7 11.95 0.9 12.8 2.9 6.35 3.4 10.1 3.65 12.5 10.25 15.95 M-7.6 11.4 Q-9.45 13.45 -11.7 12.9 -9.15 12.7 -10.75 2.55 -9.7 7.0 -7.6 11.4" fill="#d3705a" fill-rule="evenodd" stroke="none"/>
      <path d="M-17.7 6.55 Q-20.1 4.7 -21.75 4.25 -19.6 3.3 -19.55 2.3 -18.2 2.35 -17.7 6.55" fill="#e49d87" fill-rule="evenodd" stroke="none"/>
    </g>
    <g id="sprite0">
      <use ffdec:characterId="2" height="81.2" transform="matrix(1.0, 0.0, 0.0, 1.0, 0.0, 0.0)" width="64.4" xlink:href="#morphshape0"/>
      <use ffdec:characterId="4" height="13.4" transform="matrix(-0.8349, 0.4315, 0.4315, 0.8349, -22.3, -42.75)" width="13.4" xlink:href="#sprite1"/>
      <use ffdec:characterId="4" height="13.4" transform="matrix(-0.8349, 0.4315, 0.4315, 0.8349, 36.0, -52.9)" width="13.4" xlink:href="#sprite1"/>
    </g>
    <g id="morphshape0">
      <path d="M-22.3 -42.75 Q1.85 -28.2 8.05 -1.95 14.2 24.25 18.6 24.65 22.95 25.05 30.85 0.1 38.7 -24.9 35.95 -52.85" fill="none" stroke="#ff0000" stroke-linecap="round" stroke-linejoin="round" stroke-opacity="0.0" stroke-width="2.0"/>
    </g>
    <g id="sprite1">
      <use ffdec:characterId="3" height="13.4" transform="matrix(1.0, 0.0, 0.0, 1.0, 0.0, 0.0)" width="13.4" xlink:href="#shape1"/>
    </g>
    <g id="shape1">
      <path d="M4.75 -4.75 Q6.7 -2.8 6.7 0.0 6.7 2.8 4.75 4.75 2.8 6.7 0.0 6.7 -2.8 6.7 -4.75 4.75 -6.7 2.8 -6.7 0.0 -6.7 -2.8 -4.75 -4.75 -2.8 -6.7 0.0 -6.7 2.8 -6.7 4.75 -4.75" fill="url(#gradient0)" fill-rule="evenodd" stroke="none"/>
    </g>
    <radialGradient cx="0" cy="0" gradientTransform="matrix(0.0105, 0.0, 0.0, 0.0105, -1.1, -1.5)" gradientUnits="userSpaceOnUse" id="gradient0" r="819.2" spreadMethod="pad">
      <stop offset="0.0" stop-color="#fbf6e7" stop-opacity="0.0"/>
      <stop offset="0.4588235294117647" stop-color="#ffa737" stop-opacity="0.0"/>
      <stop offset="1.0" stop-color="#b54200" stop-opacity="0.0"/>
    </radialGradient>
    <g id="shape2">
      <path d="M-38.3 -114.75 Q-19.15 -112.6 45.55 -115.45 39.05 -24.05 44.05 70.0 1.45 67.65 -41.05 70.95 -34.4 -16.55 -38.3 -114.75" fill="#0000ab" fill-opacity="0.0" fill-rule="evenodd" stroke="none"/>
    </g>
    <g id="shape3">
      <path d="M-43.2 -33.85 L-43.25 -7.95 -16.45 -6.05 -43.55 -5.8 Q-39.95 1.5 -42.7 7.75 L-32.8 9.55 Q-35.8 10.65 -43.0 9.55 -41.3 16.25 -44.0 23.0 L-45.5 22.75 Q-44.2 16.55 -44.0 9.55 -43.65 2.85 -44.3 -7.5 -44.85 -15.6 -44.7 -33.85 L-43.2 -33.85" fill="#d28a10" fill-opacity="0.0" fill-rule="evenodd" stroke="none"/>
      <path d="M-44.0 23.0 Q-41.3 16.25 -43.0 9.55 -35.8 10.65 -32.8 9.55 L-42.7 7.75 Q-39.95 1.5 -43.55 -5.8 L-16.45 -6.05 -43.25 -7.95 -43.2 -33.85 Q13.7 -39.6 45.5 -33.05 43.5 -5.65 43.6 5.2 38.7 7.5 32.15 8.0 L43.65 8.0 Q42.95 16.55 44.95 23.0 L-44.0 23.0" fill="#edab3c" fill-opacity="0.0" fill-rule="evenodd" stroke="none"/>
      <path d="M43.65 -7.7 Q28.05 -7.35 6.85 -9.5 -21.9 -13.6 -43.25 -13.1 L-43.25 -14.45 Q9.0 -14.0 43.65 -10.35 L43.65 -7.7" fill="#d28a10" fill-opacity="0.0" fill-rule="evenodd" stroke="none"/>
      <path d="M-6.0 -0.7 Q22.4 3.35 43.55 2.85 L43.55 4.2 Q-8.1 3.75 -42.4 0.15 L-42.4 -2.5 Q-27.0 -2.9 -6.0 -0.7" fill="#d28a10" fill-opacity="0.0" fill-rule="evenodd" stroke="none"/>
      <path d="M-41.35 15.5 Q-25.95 15.15 -4.95 17.3 23.45 21.4 44.55 20.9 L44.55 22.25 Q-7.1 21.8 -41.35 18.15 L-41.35 15.5" fill="#d28a10" fill-opacity="0.0" fill-rule="evenodd" stroke="none"/>
      <path d="M43.85 19.4 Q28.45 19.8 7.45 17.65 -20.95 13.55 -42.05 14.05 L-42.05 12.7 Q9.55 13.15 43.85 16.8 L43.85 19.4" fill="#d28a10" fill-opacity="0.0" fill-rule="evenodd" stroke="none"/>
      <path d="M-43.05 -26.8 L-5.7 -25.0 Q23.4 -20.9 45.05 -21.4 L45.05 -20.05 Q-7.9 -20.5 -43.05 -24.15 L-43.05 -26.8" fill="#d28a10" fill-opacity="0.0" fill-rule="evenodd" stroke="none"/>
      <path d="M44.35 -24.05 Q28.55 -23.7 7.0 -25.85 -22.1 -29.95 -43.75 -29.45 L-43.75 -30.8 Q9.2 -30.35 44.35 -26.7 L44.35 -24.05" fill="#d28a10" fill-opacity="0.0" fill-rule="evenodd" stroke="none"/>
    </g>
    <g id="shape4">
      <path d="M-1.6 107.95 Q-6.5 107.4 -6.0 104.15 1.85 8.8 -6.0 -105.3 -5.5 -107.8 -2.65 -107.9 8.15 89.2 -1.6 107.95" fill="#d28a10" fill-opacity="0.0" fill-rule="evenodd" stroke="none"/>
      <path d="M-2.65 -107.9 L-2.1 -107.9 Q1.25 -107.85 1.7 -105.3 9.55 8.8 3.4 104.05 2.95 107.0 -1.6 107.95 8.15 89.2 -2.65 -107.9" fill="#f7be66" fill-opacity="0.0" fill-rule="evenodd" stroke="none"/>
    </g>
    <g id="shape5">
      <path d="M2.7 -107.9 L2.55 -105.1 Q-8.05 89.35 1.65 107.95 -2.9 107.0 -3.35 104.05 -9.5 9.05 -1.7 -104.7 L-1.65 -105.3 Q-1.35 -107.0 2.7 -107.9" fill="#d28a10" fill-opacity="0.0" fill-rule="evenodd" stroke="none"/>
      <path d="M1.65 107.95 Q-8.05 89.35 2.55 -105.1 L2.7 -107.9 Q5.5 -107.8 6.05 -105.35 L6.05 -105.3 Q-1.8 8.8 6.05 104.15 6.55 107.4 1.65 107.95" fill="#f7be66" fill-opacity="0.0" fill-rule="evenodd" stroke="none"/>
    </g>
    <g id="shape6">
      <path d="M2.45 -4.15 Q3.8 0.05 2.55 4.0 L-0.35 4.1 Q0.8 2.1 0.2 -4.15 L2.45 -4.15" fill="#000000" fill-opacity="0.0" fill-rule="evenodd" stroke="none"/>
    </g>
    <g id="shape7">
      <path d="M0.2 -1.4 L3.4 -5.1 Q5.1 -5.65 4.55 -3.95 L1.1 -0.2 4.2 4.05 Q4.2 5.35 3.1 4.95 L0.2 0.9 -3.15 5.55 Q-4.35 5.95 -4.3 4.6 L-0.7 -0.25 -4.5 -4.35 Q-5.05 -6.05 -3.35 -5.5 L0.2 -1.4" fill="#391000" fill-opacity="0.0" fill-rule="evenodd" stroke="none"/>
    </g>
    <g id="shape8">
      <path d="M-4.5 -7.25 Q-0.3 -2.9 5.3 5.1 5.35 6.8 3.85 6.3 -1.05 -1.1 -5.95 -5.8 -6.65 -7.95 -4.5 -7.25" fill="#391000" fill-opacity="0.0" fill-rule="evenodd" stroke="none"/>
    </g>
    <g id="shape9">
      <path d="M381.0 144.15 Q364.4 143.3 349.0 130.2 316.2 102.3 301.9 104.2 286.95 103.05 248.9 130.7 210.8 158.3 178.05 130.45 145.25 102.55 130.95 104.45 116.0 103.3 77.95 130.95 39.85 158.55 7.1 130.7 -25.7 102.8 -40.0 104.7 -54.95 103.55 -93.0 131.2 -131.1 158.8 -163.85 130.95 -196.65 103.05 -210.95 104.95 -225.9 103.8 -263.95 131.45 -302.05 159.05 -334.8 131.2 -366.55 104.2 -380.95 105.1 L-380.95 -178.2 381.0 -178.2 381.0 144.15" fill="#000000" fill-rule="evenodd" stroke="none"/>
    </g>
    <g id="shape10">
      <path d="M-300.4 -211.7 L300.4 -211.7 300.4 211.7 -300.4 211.7 -300.4 -211.7" fill="#000000" fill-opacity="0.19607843" fill-rule="evenodd" stroke="none"/>
    </g>
    <g id="shape11">
      <path d="M-391.45 376.15 L-391.45 -173.0 393.5 -173.0 393.5 376.15 -391.45 376.15" fill="url(#gradient1)" fill-rule="evenodd" stroke="none"/>
    </g>
    <linearGradient gradientTransform="matrix(0.0, 0.1138, -0.4791, 0.0, -173.9, -58.0)" gradientUnits="userSpaceOnUse" id="gradient1" spreadMethod="pad" x1="-819.2" x2="819.2">
      <stop offset="0.0" stop-color="#000000" stop-opacity="0.0"/>
      <stop offset="1.0" stop-color="#000000"/>
    </linearGradient>
  </defs>
</svg>
