<?xml version="1.0" encoding="UTF-8" standalone="no"?>
<svg xmlns:ffdec="https://www.free-decompiler.com/flash" xmlns:xlink="http://www.w3.org/1999/xlink" ffdec:objectType="shape" height="121.25px" width="190.6px" xmlns="http://www.w3.org/2000/svg">
  <g transform="matrix(1.0, 0.0, 0.0, 1.0, 95.3, 60.6)">
    <path d="M76.15 9.25 Q71.65 25.6 52.75 39.3 28.3 57.4 -6.35 60.2 -41.05 62.95 -65.8 48.8 -90.25 34.9 -90.25 12.4 -90.25 1.05 -84.1 -9.15 -82.8 -2.25 -78.35 1.65 L-75.15 4.55 -73.25 8.55 -73.2 8.65 Q-67.85 18.2 -53.55 25.85 -30.65 38.0 1.65 38.0 33.9 38.0 56.75 25.85 70.65 18.45 76.15 9.25" fill="#000000" fill-opacity="0.3019608" fill-rule="evenodd" stroke="none"/>
    <path d="M69.25 -38.95 L69.2 -38.9 70.85 -37.3 Q77.9 -31.0 80.25 -23.85 81.2 -20.9 81.4 -17.45 80.75 -8.35 79.6 -5.8 L79.55 -5.75 Q78.65 -15.65 69.75 -23.85 64.6 -28.6 56.75 -32.75 33.9 -44.9 1.65 -44.9 -30.65 -44.9 -53.55 -32.75 -76.4 -20.6 -76.35 -3.45 L-76.2 -0.75 Q-80.95 -6.1 -81.4 -16.75 L-79.95 -23.05 -79.95 -23.1 Q-78.1 -29.6 -72.55 -35.35 L-70.25 -37.5 Q-64.7 -42.5 -57.2 -46.5 -33.3 -59.15 0.25 -59.1 33.8 -59.15 57.65 -46.5 64.4 -42.95 69.25 -38.95" fill="url(#gradient0)" fill-rule="evenodd" stroke="none"/>
    <path d="M-76.2 -0.75 L-76.35 -3.45 Q-76.4 -20.6 -53.55 -32.75 -30.65 -44.9 1.65 -44.9 33.9 -44.9 56.75 -32.75 64.6 -28.6 69.75 -23.85 78.65 -15.65 79.55 -5.75 74.25 5.75 57.65 14.35 33.0 26.95 0.25 26.95 -33.4 26.95 -57.2 14.35 -62.2 11.7 -67.15 7.5 L-76.2 -0.75" fill="#9f680a" fill-rule="evenodd" stroke="none"/>
    <path d="M79.3 0.85 Q78.5 5.2 76.15 9.25 70.65 18.45 56.75 25.85 33.9 38.0 1.65 38.0 -30.65 38.0 -53.55 25.85 -67.85 18.2 -73.2 8.65 L-73.25 8.55 -75.15 4.55 -70.3 8.95 Q-65.15 13.3 -59.9 16.05 -35.05 29.2 0.05 29.2 34.2 29.2 59.9 16.05 72.95 9.3 79.3 0.85" fill="url(#gradient1)" fill-rule="evenodd" stroke="none"/>
    <path d="M70.85 -37.3 L76.3 -35.5 Q80.2 -31.35 82.3 -26.8 L80.25 -23.85 Q77.9 -31.0 70.85 -37.3 M70.5 -40.7 L69.25 -38.95 Q64.4 -42.95 57.65 -46.5 33.8 -59.15 0.25 -59.1 -33.3 -59.15 -57.2 -46.5 -64.7 -42.5 -70.25 -37.5 L-71.3 -40.05 Q-66.45 -43.9 -59.9 -47.4 -35.0 -60.6 0.05 -60.6 35.05 -60.6 59.9 -47.4 65.9 -44.2 70.5 -40.7 M-72.55 -35.35 Q-78.1 -29.6 -79.95 -23.1 L-82.4 -26.35 Q-80.6 -30.55 -77.25 -34.35 L-72.55 -35.35 M-81.4 -16.75 Q-80.95 -6.1 -76.2 -0.75 L-67.15 7.5 Q-62.2 11.7 -57.2 14.35 -33.4 26.95 0.25 26.95 33.0 26.95 57.65 14.35 74.25 5.75 79.55 -5.75 L79.6 -5.8 Q80.75 -8.35 81.4 -17.45 L84.8 -16.45 Q84.5 -8.75 82.8 -5.0 81.4 -2.0 79.3 0.85 72.95 9.3 59.9 16.05 34.2 29.2 0.05 29.2 -35.05 29.2 -59.9 16.05 -65.15 13.3 -70.3 8.95 L-75.15 4.55 -78.35 1.65 Q-82.8 -2.25 -84.1 -9.15 -84.5 -11.15 -84.65 -16.0 L-81.4 -16.75" fill="#fbe0b3" fill-rule="evenodd" stroke="none"/>
    <path d="M75.45 -43.6 L70.85 -37.3 69.2 -38.9 69.25 -38.95 70.5 -40.7 75.2 -47.25 Q81.5 -46.45 85.5 -43.8 L87.55 -42.15 Q91.05 -38.75 91.9 -33.1 L81.4 -17.45 Q81.2 -20.9 80.25 -23.85 L82.3 -26.8 86.8 -33.25 86.35 -35.6 85.75 -37.25 Q83.15 -43.65 75.45 -43.6 M-95.3 -30.55 Q-94.75 -37.1 -89.7 -40.45 L-85.5 -43.25 -87.45 -41.7 Q-91.1 -38.3 -91.95 -32.55 L-95.3 -30.55" fill="#85550c" fill-rule="evenodd" stroke="none"/>
    <path d="M75.45 -43.6 L80.2 -40.65 76.3 -35.5 70.85 -37.3 75.45 -43.6" fill="#ef9c11" fill-rule="evenodd" stroke="none"/>
    <path d="M80.2 -40.65 L75.45 -43.6 Q83.15 -43.65 85.75 -37.25 84.2 -40.6 80.2 -40.65" fill="#523407" fill-rule="evenodd" stroke="none"/>
    <path d="M91.9 -33.1 Q91.05 -38.75 87.55 -42.15 94.9 -35.4 95.3 -31.1 L91.9 -33.1" fill="#f7cf8c" fill-rule="evenodd" stroke="none"/>
    <path d="M81.4 -17.45 L91.9 -33.1 95.3 -31.1 84.8 -16.45 81.4 -17.45" fill="#edab3c" fill-rule="evenodd" stroke="none"/>
    <path d="M-70.25 -37.5 L-72.55 -35.35 -75.5 -43.05 Q-83.2 -43.1 -85.8 -36.7 -86.55 -35.2 -86.85 -32.7 L-82.4 -26.35 -79.95 -23.1 -79.95 -23.05 -81.4 -16.75 -91.95 -32.55 Q-91.1 -38.3 -87.45 -41.7 L-85.5 -43.25 Q-81.55 -45.9 -73.7 -46.1 L-71.3 -40.05 -70.25 -37.5" fill="#f7be66" fill-rule="evenodd" stroke="none"/>
    <path d="M-84.65 -16.0 L-95.3 -30.55 -91.95 -32.55 -81.4 -16.75 -84.65 -16.0 M-75.5 -43.05 L-72.55 -35.35 -77.25 -34.35 -80.2 -40.1 -75.5 -43.05" fill="#b67611" fill-rule="evenodd" stroke="none"/>
    <path d="M-85.8 -36.7 Q-83.2 -43.1 -75.5 -43.05 L-80.2 -40.1 Q-84.25 -40.05 -85.8 -36.7" fill="#774b0b" fill-rule="evenodd" stroke="none"/>
  </g>
  <defs>
    <linearGradient gradientTransform="matrix(-0.0865, 0.0, 0.0, -0.0369, 5.4, -26.7)" gradientUnits="userSpaceOnUse" id="gradient0" spreadMethod="pad" x1="-819.2" x2="819.2">
      <stop offset="0.00784313725490196" stop-color="#5e3c09"/>
      <stop offset="1.0" stop-color="#f7be66"/>
    </linearGradient>
    <linearGradient gradientTransform="matrix(0.0975, 0.0, 0.0, 0.0279, 0.85, 15.15)" gradientUnits="userSpaceOnUse" id="gradient1" spreadMethod="pad" x1="-819.2" x2="819.2">
      <stop offset="0.0" stop-color="#271803"/>
      <stop offset="1.0" stop-color="#edab3c"/>
    </linearGradient>
  </defs>
</svg>
