<?xml version="1.0" encoding="UTF-8" standalone="no"?>
<svg xmlns:ffdec="https://www.free-decompiler.com/flash" xmlns:xlink="http://www.w3.org/1999/xlink" ffdec:objectType="frame" height="74.6px" width="74.6px" xmlns="http://www.w3.org/2000/svg">
  <g transform="matrix(1.0, 0.0, 0.0, 1.0, 37.3, 37.3)">
    <use ffdec:characterId="74" height="83.0" transform="matrix(0.9, 0.0, 0.0, 0.9, 0.0, 0.0)" width="83.0" xlink:href="#shape0"/>
    <use ffdec:characterId="75" height="46.55" transform="matrix(1.0, 0.0, 0.0, 1.0, 0.0, 0.0)" width="59.25" xlink:href="#shape1"/>
    <use ffdec:characterId="93" height="105.95" transform="matrix(0.329, 0.0, 0.0, 0.329, 0.0, 0.0)" width="71.05" xlink:href="#shape2"/>
  </g>
  <defs>
    <g id="shape0">
      <path d="M0.0 -41.5 Q-17.2 -41.5 -29.35 -29.35 -41.5 -17.2 -41.5 0.0 -41.5 17.2 -29.35 29.35 -17.2 41.5 0.0 41.5 17.2 41.5 29.35 29.35 41.5 17.2 41.5 0.0 41.5 -17.2 29.35 -29.35 17.2 -41.5 0.0 -41.5 Z" ffdec:has-small-stroke="true" ffdec:original-stroke-width="0.05" fill="none" stroke="#c6f3ff" stroke-linecap="round" stroke-linejoin="round" stroke-width="1.1111186463666882"/>
      <path d="M24.05 -24.55 Q34.95 -13.65 34.95 1.85 34.95 17.35 24.05 28.3 L23.3 28.95 Q29.55 19.85 29.55 8.15 29.55 -7.35 18.65 -18.25 7.7 -29.2 -7.8 -29.2 -22.75 -29.2 -33.5 -18.95 -31.5 -21.9 -28.8 -24.55 -17.9 -35.5 -2.4 -35.5 13.1 -35.5 24.05 -24.55" fill="#cef5ff" fill-rule="evenodd" stroke="none"/>
    </g>
    <g id="shape1">
      <path d="M29.65 -22.7 Q27.45 1.0 29.45 23.3 L29.05 23.3 28.75 23.3 Q0.9 21.9 -29.6 23.05 L-29.6 22.85 -24.05 17.35 24.8 17.35 24.8 -19.0 25.1 -19.0 29.65 -22.7" fill="#85550c" fill-rule="evenodd" stroke="none"/>
      <path d="M24.8 -19.0 L24.8 17.35 -24.05 17.35 -24.0 17.35 -24.15 -19.0 24.8 -19.0" fill="#fffbf0" fill-rule="evenodd" stroke="none"/>
      <path d="M29.65 -22.7 L25.1 -19.0 24.8 -19.0 -24.15 -19.0 -24.0 17.35 -24.05 17.35 -29.6 22.85 Q-26.9 0.95 -29.5 -23.25 L29.65 -22.7" fill="#f7be66" fill-rule="evenodd" stroke="none"/>
    </g>
    <g id="shape2">
      <path d="M2.3 -30.15 Q-3.2 -30.95 -7.45 -27.7 -11.7 -24.55 -12.55 -19.5 L-12.55 -19.2 Q-13.3 -14.15 -10.0 -9.9 -7.15 -5.7 -1.95 -4.8 L-1.7 -4.75 Q3.5 -4.0 7.95 -7.5 9.4 -8.65 10.45 -9.95 12.0 -11.9 12.7 -14.3 L12.8 -14.75 13.1 -16.05 13.15 -16.3 Q13.35 -19.75 12.1 -22.7 10.85 -25.65 8.2 -27.7 5.55 -29.6 2.3 -30.15 M31.75 -1.4 Q18.85 26.3 4.5 53.0 L-19.05 44.05 -3.95 17.85 -5.85 17.55 Q-20.35 15.1 -28.85 3.15 -36.95 -8.2 -35.2 -21.75 L-35.0 -23.25 Q-32.6 -37.75 -20.6 -46.3 -8.6 -54.85 5.9 -52.4 20.35 -50.0 28.9 -38.0 37.45 -26.05 35.0 -11.55 L34.7 -10.1 Q33.95 -6.35 32.5 -3.0 L31.75 -1.4" fill="#d70000" fill-rule="evenodd" stroke="none"/>
    </g>
  </defs>
</svg>
